<?xml version="1.0" encoding="UTF-8" standalone="no"?>
<!DOCTYPE svg PUBLIC "-//W3C//DTD SVG 1.1//EN"
 "http://www.w3.org/Graphics/SVG/1.1/DTD/svg11.dtd">
<!-- Generated by graphviz version 13.1.2 (20250808.2320)
 -->
<!-- Title: application/src/Application.cpp Pages: 1 -->
<!--zoomable 388 -->

<svg id="main" version="1.1" xmlns="http://www.w3.org/2000/svg" xmlns:xlink="http://www.w3.org/1999/xlink" xml:space="preserve" onload="init(evt)">

<style type="text/css"><![CDATA[
.node, .edge {opacity: 0.7;}
.node.selected, .edge.selected {opacity: 1;}
.edge:hover path { stroke: red; }
.edge:hover polygon { stroke: red; fill: red; }
]]></style>

<defs>
  <circle id="rim" cx="0" cy="0" r="7"/>
  <circle id="rim2" cx="0" cy="0" r="3.5"/>
  <g id="zoomPlus">
    <use xlink:href="#rim" fill="#404040"><set attributeName="fill" to="#808080" begin="zoomplus.mouseover" end="zoomplus.mouseout"/></use>
    <path d="M-4,0h8M0,-4v8" fill="none" stroke="white" stroke-width="1.5" pointer-events="none"/>
  </g>
  <g id="zoomMin">
    <use xlink:href="#rim" fill="#404040"><set attributeName="fill" to="#808080" begin="zoomminus.mouseover" end="zoomminus.mouseout"/></use>
    <path d="M-4,0h8" fill="none" stroke="white" stroke-width="1.5" pointer-events="none"/>
  </g>
  <g id="arrowUp" transform="translate(30 24)">
    <use xlink:href="#rim"/>
    <path pointer-events="none" fill="none" stroke="white" stroke-width="1.5" d="M0,-3.0v7 M-2.5,-0.5L0,-3.0L2.5,-0.5"/>
  </g>
  <g id="arrowRight" transform="rotate(90) translate(36 -43)">
    <use xlink:href="#rim"/>
    <path pointer-events="none" fill="none" stroke="white" stroke-width="1.5" d="M0,-3.0v7 M-2.5,-0.5L0,-3.0L2.5,-0.5"/>
  </g>
  <g id="arrowDown" transform="rotate(180) translate(-30 -48)">
    <use xlink:href="#rim"/>
    <path pointer-events="none" fill="none" stroke="white" stroke-width="1.5" d="M0,-3.0v7 M-2.5,-0.5L0,-3.0L2.5,-0.5"/>
  </g>
  <g id="arrowLeft" transform="rotate(270) translate(-36 17)">
    <use xlink:href="#rim"/>
    <path pointer-events="none" fill="none" stroke="white" stroke-width="1.5" d="M0,-3.0v7 M-2.5,-0.5L0,-3.0L2.5,-0.5"/>
  </g>
  <g id="resetDef">
    <use xlink:href="#rim2" fill="#404040"><set attributeName="fill" to="#808080" begin="reset.mouseover" end="reset.mouseout"/></use>
  </g>
</defs>
<script type="application/ecmascript">
var viewWidth = 2010;
var viewHeight = 388;
var sectionId = 'dynsection-0';
</script>
<script type="application/ecmascript" xlink:href="svg.min.js"/>
<svg id="graph" class="graph">
<g id="viewport">
<title>application/src/Application.cpp</title>
<!-- Node1 -->
<g id="Node000001" class="node">
<title>Node1</title>
<g id="a_Node000001"><a xlink:title=" ">
<polygon fill="#999999" stroke="#666666" points="1566.52,-380 1417.77,-380 1417.77,-360 1566.52,-360 1566.52,-380"/>
<text xml:space="preserve" text-anchor="middle" x="1492.14" y="-366.5" font-family="Helvetica,sans-Serif" font-size="10.00">application/src/Application.cpp</text>
</a>
</g>
</g>
<!-- Node2 -->
<g id="Node000002" class="node">
<title>Node2</title>
<g id="a_Node000002"><a xlink:href="EmojiModuleLib_8hpp.html" target="_top" xlink:title=" ">
<polygon fill="white" stroke="#666666" points="1502.27,-324 1358.02,-324 1358.02,-292 1502.27,-292 1502.27,-324"/>
<text xml:space="preserve" text-anchor="start" x="1366.02" y="-310.5" font-family="Helvetica,sans-Serif" font-size="10.00">EmojiModuleLib/EmojiModule</text>
<text xml:space="preserve" text-anchor="middle" x="1430.14" y="-298.5" font-family="Helvetica,sans-Serif" font-size="10.00">Lib.hpp</text>
</a>
</g>
</g>
<!-- Node1&#45;&gt;Node2 -->
<g id="edge1_Node000001_Node000002" class="edge">
<title>Node1&#45;&gt;Node2</title>
<g id="a_edge1_Node000001_Node000002"><a xlink:title=" ">
<path fill="none" stroke="#63b8ff" d="M1482.46,-359.62C1474.79,-352.21 1463.76,-341.53 1453.8,-331.9"/>
<polygon fill="#63b8ff" stroke="#63b8ff" points="1456.5,-329.63 1446.88,-325.19 1451.63,-334.66 1456.5,-329.63"/>
</a>
</g>
</g>
<!-- Node4 -->
<g id="Node000004" class="node">
<title>Node4</title>
<g id="a_Node000004"><a xlink:href="UtilsFactory_8hpp.html" target="_top" xlink:title=" ">
<polygon fill="white" stroke="#666666" points="1341.39,-200 1230.89,-200 1230.89,-180 1341.39,-180 1341.39,-200"/>
<text xml:space="preserve" text-anchor="middle" x="1286.14" y="-186.5" font-family="Helvetica,sans-Serif" font-size="10.00">Utils/UtilsFactory.hpp</text>
</a>
</g>
</g>
<!-- Node1&#45;&gt;Node4 -->
<g id="edge67_Node000001_Node000004" class="edge">
<title>Node1&#45;&gt;Node4</title>
<g id="a_edge67_Node000001_Node000004"><a xlink:title=" ">
<path fill="none" stroke="#63b8ff" d="M1431.46,-359.58C1404.23,-353.05 1372.96,-342.13 1349.14,-324 1312.32,-295.97 1296.07,-241.03 1289.71,-211.28"/>
<polygon fill="#63b8ff" stroke="#63b8ff" points="1293.19,-210.86 1287.85,-201.72 1286.32,-212.2 1293.19,-210.86"/>
</a>
</g>
</g>
<!-- Node30 -->
<g id="Node000030" class="node">
<title>Node30</title>
<g id="a_Node000030"><a xlink:title=" ">
<polygon fill="#e0e0e0" stroke="#999999" points="1589.77,-318 1520.52,-318 1520.52,-298 1589.77,-298 1589.77,-318"/>
<text xml:space="preserve" text-anchor="middle" x="1555.14" y="-304.5" font-family="Helvetica,sans-Serif" font-size="10.00">cxxopts.hpp</text>
</a>
</g>
</g>
<!-- Node1&#45;&gt;Node30 -->
<g id="edge68_Node000001_Node000030" class="edge">
<title>Node1&#45;&gt;Node30</title>
<g id="a_edge68_Node000001_Node000030"><a xlink:title=" ">
<path fill="none" stroke="#63b8ff" d="M1501.99,-359.62C1511.47,-350.59 1526.04,-336.72 1537.53,-325.78"/>
<polygon fill="#63b8ff" stroke="#63b8ff" points="1539.65,-328.59 1544.48,-319.16 1534.82,-323.52 1539.65,-328.59"/>
</a>
</g>
</g>
<!-- Node31 -->
<g id="Node000031" class="node">
<title>Node31</title>
<g id="a_Node000031"><a xlink:title=" ">
<polygon fill="#e0e0e0" stroke="#999999" points="1660.89,-318 1607.39,-318 1607.39,-298 1660.89,-298 1660.89,-318"/>
<text xml:space="preserve" text-anchor="middle" x="1634.14" y="-304.5" font-family="Helvetica,sans-Serif" font-size="10.00">iostream</text>
</a>
</g>
</g>
<!-- Node1&#45;&gt;Node31 -->
<g id="edge69_Node000001_Node000031" class="edge">
<title>Node1&#45;&gt;Node31</title>
<g id="a_edge69_Node000001_Node000031"><a xlink:title=" ">
<path fill="none" stroke="#63b8ff" d="M1514.71,-359.56C1536.37,-350.49 1570.02,-336.36 1599.14,-324 1600.07,-323.6 1601.02,-323.2 1601.97,-322.8"/>
<polygon fill="#63b8ff" stroke="#63b8ff" points="1603.09,-326.12 1610.92,-318.98 1600.35,-319.69 1603.09,-326.12"/>
</a>
</g>
</g>
<!-- Node3 -->
<g id="Node000003" class="node">
<title>Node3</title>
<g id="a_Node000003"><a xlink:href="Emoji_8hpp.html" target="_top" xlink:title=" ">
<polygon fill="white" stroke="#666666" points="1401.77,-256 1314.52,-256 1314.52,-236 1401.77,-236 1401.77,-256"/>
<text xml:space="preserve" text-anchor="middle" x="1358.14" y="-242.5" font-family="Helvetica,sans-Serif" font-size="10.00">Emoji/Emoji.hpp</text>
</a>
</g>
</g>
<!-- Node2&#45;&gt;Node3 -->
<g id="edge2_Node000002_Node000003" class="edge">
<title>Node2&#45;&gt;Node3</title>
<g id="a_edge2_Node000002_Node000003"><a xlink:title=" ">
<path fill="none" stroke="#63b8ff" d="M1411.6,-291.55C1401.39,-283.04 1388.71,-272.48 1378.27,-263.77"/>
<polygon fill="#63b8ff" stroke="#63b8ff" points="1380.52,-261.09 1370.6,-257.38 1376.04,-266.47 1380.52,-261.09"/>
</a>
</g>
</g>
<!-- Node2&#45;&gt;Node4 -->
<g id="edge65_Node000002_Node000004" class="edge">
<title>Node2&#45;&gt;Node4</title>
<g id="a_edge65_Node000002_Node000004"><a xlink:title=" ">
<path fill="none" stroke="#63b8ff" d="M1430.02,-291.76C1429.07,-275.91 1425.22,-251.31 1411.14,-236 1395.86,-219.37 1373.97,-208.88 1352.78,-202.26"/>
<polygon fill="#63b8ff" stroke="#63b8ff" points="1353.83,-198.92 1343.25,-199.56 1351.91,-205.66 1353.83,-198.92"/>
</a>
</g>
</g>
<!-- Node5 -->
<g id="Node000005" class="node">
<title>Node5</title>
<g id="a_Node000005"><a xlink:title=" ">
<polygon fill="#e0e0e0" stroke="#999999" points="1936.02,-138 1808.27,-138 1808.27,-118 1936.02,-118 1936.02,-138"/>
<text xml:space="preserve" text-anchor="middle" x="1872.14" y="-124.5" font-family="Helvetica,sans-Serif" font-size="10.00">EmojiModuleLib/version.h</text>
</a>
</g>
</g>
<!-- Node2&#45;&gt;Node5 -->
<g id="edge64_Node000002_Node000005" class="edge">
<title>Node2&#45;&gt;Node5</title>
<g id="a_edge64_Node000002_Node000005"><a xlink:title=" ">
<path fill="none" stroke="#63b8ff" d="M1468.59,-291.52C1553.75,-257.22 1757.08,-175.34 1838.04,-142.73"/>
<polygon fill="#63b8ff" stroke="#63b8ff" points="1839.25,-146.02 1847.22,-139.04 1836.64,-139.53 1839.25,-146.02"/>
</a>
</g>
</g>
<!-- Node24 -->
<g id="Node000024" class="node">
<title>Node24</title>
<g id="a_Node000024"><a xlink:title=" ">
<polygon fill="#e0e0e0" stroke="#999999" points="1786.77,-20 1735.52,-20 1735.52,0 1786.77,0 1786.77,-20"/>
<text xml:space="preserve" text-anchor="middle" x="1761.14" y="-6.5" font-family="Helvetica,sans-Serif" font-size="10.00">memory</text>
</a>
</g>
</g>
<!-- Node2&#45;&gt;Node24 -->
<g id="edge66_Node000002_Node000024" class="edge">
<title>Node2&#45;&gt;Node24</title>
<g id="a_edge66_Node000002_Node000024"><a xlink:title=" ">
<path fill="none" stroke="#63b8ff" d="M1502.59,-293.25C1656.5,-263.9 2002.14,-197.3 2002.14,-191 2002.14,-191 2002.14,-191 2002.14,-127 2002.14,-37.64 1865.95,-17.08 1798.33,-12.38"/>
<polygon fill="#63b8ff" stroke="#63b8ff" points="1798.64,-8.89 1788.45,-11.78 1798.22,-15.88 1798.64,-8.89"/>
</a>
</g>
</g>
<!-- Node3&#45;&gt;Node4 -->
<g id="edge3_Node000003_Node000004" class="edge">
<title>Node3&#45;&gt;Node4</title>
<g id="a_edge3_Node000003_Node000004"><a xlink:title=" ">
<path fill="none" stroke="#63b8ff" d="M1345.6,-235.59C1335.17,-227.77 1320.1,-216.46 1307.73,-207.19"/>
<polygon fill="#63b8ff" stroke="#63b8ff" points="1309.85,-204.41 1299.75,-201.21 1305.65,-210.01 1309.85,-204.41"/>
</a>
</g>
</g>
<!-- Node13 -->
<g id="Node000013" class="node">
<title>Node13</title>
<g id="a_Node000013"><a xlink:title=" ">
<polygon fill="#e0e0e0" stroke="#999999" points="1073.14,-20 1033.14,-20 1033.14,0 1073.14,0 1073.14,-20"/>
<text xml:space="preserve" text-anchor="middle" x="1053.14" y="-6.5" font-family="Helvetica,sans-Serif" font-size="10.00">string</text>
</a>
</g>
</g>
<!-- Node3&#45;&gt;Node13 -->
<g id="edge62_Node000003_Node000013" class="edge">
<title>Node3&#45;&gt;Node13</title>
<g id="a_edge62_Node000003_Node000013"><a xlink:title=" ">
<path fill="none" stroke="#63b8ff" d="M1402.24,-242.58C1550.53,-233.6 2017.85,-198.22 1945.14,-112 1888.34,-44.65 1235.92,-17.48 1084.43,-12.05"/>
<polygon fill="#63b8ff" stroke="#63b8ff" points="1084.87,-8.57 1074.76,-11.71 1084.63,-15.56 1084.87,-8.57"/>
</a>
</g>
</g>
<!-- Node15 -->
<g id="Node000015" class="node">
<title>Node15</title>
<g id="a_Node000015"><a xlink:title=" ">
<polygon fill="#e0e0e0" stroke="#999999" points="341.64,-76 298.64,-76 298.64,-56 341.64,-56 341.64,-76"/>
<text xml:space="preserve" text-anchor="middle" x="320.14" y="-62.5" font-family="Helvetica,sans-Serif" font-size="10.00">vector</text>
</a>
</g>
</g>
<!-- Node3&#45;&gt;Node15 -->
<g id="edge63_Node000003_Node000015" class="edge">
<title>Node3&#45;&gt;Node15</title>
<g id="a_edge63_Node000003_Node000015"><a xlink:title=" ">
<path fill="none" stroke="#63b8ff" d="M1314.29,-245.17C1092.15,-245.59 98.04,-241.95 7.14,-144 -2.53,-133.58 -2.17,-122.75 7.14,-112 43.16,-70.44 214.5,-66.37 287.3,-66.56"/>
<polygon fill="#63b8ff" stroke="#63b8ff" points="286.97,-70.06 296.99,-66.62 287.01,-63.06 286.97,-70.06"/>
</a>
</g>
</g>
<!-- Node4&#45;&gt;Node5 -->
<g id="edge4_Node000004_Node000005" class="edge">
<title>Node4&#45;&gt;Node5</title>
<g id="a_edge4_Node000004_Node000005"><a xlink:title=" ">
<path fill="none" stroke="#63b8ff" d="M1341.6,-185.94C1435.22,-180.36 1630.39,-166.94 1794.14,-144 1801.31,-143 1808.81,-141.77 1816.21,-140.47"/>
<polygon fill="#63b8ff" stroke="#63b8ff" points="1816.62,-143.95 1825.83,-138.7 1815.36,-137.06 1816.62,-143.95"/>
</a>
</g>
</g>
<!-- Node6 -->
<g id="Node000006" class="node">
<title>Node6</title>
<g id="a_Node000006"><a xlink:href="IAssetManager_8hpp.html" target="_top" xlink:title=" ">
<polygon fill="white" stroke="#666666" points="561.02,-138 403.27,-138 403.27,-118 561.02,-118 561.02,-138"/>
<text xml:space="preserve" text-anchor="middle" x="482.14" y="-124.5" font-family="Helvetica,sans-Serif" font-size="10.00">Utils/Assets/IAssetManager.hpp</text>
</a>
</g>
</g>
<!-- Node4&#45;&gt;Node6 -->
<g id="edge5_Node000004_Node000006" class="edge">
<title>Node4&#45;&gt;Node6</title>
<g id="a_edge5_Node000004_Node000006"><a xlink:title=" ">
<path fill="none" stroke="#63b8ff" d="M1230.64,-187.56C1109.94,-183.98 814.73,-172.79 569.14,-144 560.68,-143.01 551.78,-141.74 543.04,-140.36"/>
<polygon fill="#63b8ff" stroke="#63b8ff" points="543.62,-136.91 533.19,-138.74 542.49,-143.82 543.62,-136.91"/>
</a>
</g>
</g>
<!-- Node7 -->
<g id="Node000007" class="node">
<title>Node7</title>
<g id="a_Node000007"><a xlink:title=" ">
<polygon fill="#e0e0e0" stroke="#999999" points="593.64,-76 532.64,-76 532.64,-56 593.64,-56 593.64,-76"/>
<text xml:space="preserve" text-anchor="middle" x="563.14" y="-62.5" font-family="Helvetica,sans-Serif" font-size="10.00">filesystem</text>
</a>
</g>
</g>
<!-- Node4&#45;&gt;Node7 -->
<g id="edge60_Node000004_Node000007" class="edge">
<title>Node4&#45;&gt;Node7</title>
<g id="a_edge60_Node000004_Node000007"><a xlink:title=" ">
<path fill="none" stroke="#63b8ff" d="M1230.72,-188.28C1040.32,-185.56 423.04,-174.39 394.14,-144 353.15,-100.89 459.04,-79.92 521.38,-71.57"/>
<polygon fill="#63b8ff" stroke="#63b8ff" points="521.49,-75.09 530.97,-70.35 520.6,-68.14 521.49,-75.09"/>
</a>
</g>
</g>
<!-- Node8 -->
<g id="Node000008" class="node">
<title>Node8</title>
<g id="a_Node000008"><a xlink:href="IDirectoryManager_8hpp.html" target="_top" xlink:title=" ">
<polygon fill="white" stroke="#666666" points="711.64,-144 578.64,-144 578.64,-112 711.64,-112 711.64,-144"/>
<text xml:space="preserve" text-anchor="start" x="586.64" y="-130.5" font-family="Helvetica,sans-Serif" font-size="10.00">Utils/Filesystem/IDirectory</text>
<text xml:space="preserve" text-anchor="middle" x="645.14" y="-118.5" font-family="Helvetica,sans-Serif" font-size="10.00">Manager.hpp</text>
</a>
</g>
</g>
<!-- Node4&#45;&gt;Node8 -->
<g id="edge7_Node000004_Node000008" class="edge">
<title>Node4&#45;&gt;Node8</title>
<g id="a_edge7_Node000004_Node000008"><a xlink:title=" ">
<path fill="none" stroke="#63b8ff" d="M1230.47,-186.76C1130.72,-182.26 914.78,-170.38 723.53,-144.38"/>
<polygon fill="#63b8ff" stroke="#63b8ff" points="724.02,-140.91 713.63,-143.01 723.06,-147.84 724.02,-140.91"/>
</a>
</g>
</g>
<!-- Node16 -->
<g id="Node000016" class="node">
<title>Node16</title>
<g id="a_Node000016"><a xlink:href="IFileReader_8hpp.html" target="_top" xlink:title=" ">
<polygon fill="white" stroke="#666666" points="175.77,-138 16.52,-138 16.52,-118 175.77,-118 175.77,-138"/>
<text xml:space="preserve" text-anchor="middle" x="96.14" y="-124.5" font-family="Helvetica,sans-Serif" font-size="10.00">Utils/Filesystem/IFileReader.hpp</text>
</a>
</g>
</g>
<!-- Node4&#45;&gt;Node16 -->
<g id="edge14_Node000004_Node000016" class="edge">
<title>Node4&#45;&gt;Node16</title>
<g id="a_edge14_Node000004_Node000016"><a xlink:title=" ">
<path fill="none" stroke="#63b8ff" d="M1230.63,-189.24C1068.83,-189.4 583.8,-186.05 184.14,-144 175.05,-143.04 165.47,-141.73 156.12,-140.28"/>
<polygon fill="#63b8ff" stroke="#63b8ff" points="156.79,-136.84 146.36,-138.69 155.67,-143.75 156.79,-136.84"/>
</a>
</g>
</g>
<!-- Node17 -->
<g id="Node000017" class="node">
<title>Node17</title>
<g id="a_Node000017"><a xlink:href="IFileWriter_8hpp.html" target="_top" xlink:title=" ">
<polygon fill="white" stroke="#666666" points="346.77,-138 193.52,-138 193.52,-118 346.77,-118 346.77,-138"/>
<text xml:space="preserve" text-anchor="middle" x="270.14" y="-124.5" font-family="Helvetica,sans-Serif" font-size="10.00">Utils/Filesystem/IFileWriter.hpp</text>
</a>
</g>
</g>
<!-- Node4&#45;&gt;Node17 -->
<g id="edge20_Node000004_Node000017" class="edge">
<title>Node4&#45;&gt;Node17</title>
<g id="a_edge20_Node000004_Node000017"><a xlink:title=" ">
<path fill="none" stroke="#63b8ff" d="M1230.45,-188.51C1086.34,-186.78 689.49,-178.93 361.14,-144 351.76,-143 341.87,-141.67 332.21,-140.21"/>
<polygon fill="#63b8ff" stroke="#63b8ff" points="332.94,-136.78 322.52,-138.68 331.85,-143.69 332.94,-136.78"/>
</a>
</g>
</g>
<!-- Node18 -->
<g id="Node000018" class="node">
<title>Node18</title>
<g id="a_Node000018"><a xlink:href="IPathResolver_8hpp.html" target="_top" xlink:title=" ">
<polygon fill="white" stroke="#666666" points="900.77,-138 729.52,-138 729.52,-118 900.77,-118 900.77,-138"/>
<text xml:space="preserve" text-anchor="middle" x="815.14" y="-124.5" font-family="Helvetica,sans-Serif" font-size="10.00">Utils/Filesystem/IPathResolver.hpp</text>
</a>
</g>
</g>
<!-- Node4&#45;&gt;Node18 -->
<g id="edge26_Node000004_Node000018" class="edge">
<title>Node4&#45;&gt;Node18</title>
<g id="a_edge26_Node000004_Node000018"><a xlink:title=" ">
<path fill="none" stroke="#63b8ff" d="M1230.63,-183.01C1157.2,-174.95 1023.78,-159.77 910.14,-144 901.75,-142.84 892.95,-141.54 884.23,-140.22"/>
<polygon fill="#63b8ff" stroke="#63b8ff" points="884.78,-136.76 874.36,-138.7 883.71,-143.68 884.78,-136.76"/>
</a>
</g>
</g>
<!-- Node19 -->
<g id="Node000019" class="node">
<title>Node19</title>
<g id="a_Node000019"><a xlink:href="ICustomStringsLoader_8hpp.html" target="_top" xlink:title=" ">
<polygon fill="white" stroke="#666666" points="1351.89,-144 1220.39,-144 1220.39,-112 1351.89,-112 1351.89,-144"/>
<text xml:space="preserve" text-anchor="start" x="1228.39" y="-130.5" font-family="Helvetica,sans-Serif" font-size="10.00">Utils/Json/ICustomStrings</text>
<text xml:space="preserve" text-anchor="middle" x="1286.14" y="-118.5" font-family="Helvetica,sans-Serif" font-size="10.00">Loader.hpp</text>
</a>
</g>
</g>
<!-- Node4&#45;&gt;Node19 -->
<g id="edge31_Node000004_Node000019" class="edge">
<title>Node4&#45;&gt;Node19</title>
<g id="a_edge31_Node000004_Node000019"><a xlink:title=" ">
<path fill="none" stroke="#63b8ff" d="M1286.14,-179.62C1286.14,-173.1 1286.14,-164.05 1286.14,-155.4"/>
<polygon fill="#63b8ff" stroke="#63b8ff" points="1289.64,-155.65 1286.14,-145.65 1282.64,-155.65 1289.64,-155.65"/>
</a>
</g>
</g>
<!-- Node21 -->
<g id="Node000021" class="node">
<title>Node21</title>
<g id="a_Node000021"><a xlink:href="IJsonSerializer_8hpp.html" target="_top" xlink:title=" ">
<polygon fill="white" stroke="#666666" points="1202.39,-138 1055.89,-138 1055.89,-118 1202.39,-118 1202.39,-138"/>
<text xml:space="preserve" text-anchor="middle" x="1129.14" y="-124.5" font-family="Helvetica,sans-Serif" font-size="10.00">Utils/Json/IJsonSerializer.hpp</text>
</a>
</g>
</g>
<!-- Node4&#45;&gt;Node21 -->
<g id="edge36_Node000004_Node000021" class="edge">
<title>Node4&#45;&gt;Node21</title>
<g id="a_edge36_Node000004_Node000021"><a xlink:title=" ">
<path fill="none" stroke="#63b8ff" d="M1261.61,-179.62C1235.53,-169.66 1194.06,-153.81 1164.46,-142.5"/>
<polygon fill="#63b8ff" stroke="#63b8ff" points="1165.77,-139.25 1155.17,-138.95 1163.27,-145.79 1165.77,-139.25"/>
</a>
</g>
</g>
<!-- Node22 -->
<g id="Node000022" class="node">
<title>Node22</title>
<g id="a_Node000022"><a xlink:href="ILogger_8hpp.html" target="_top" xlink:title=" ">
<polygon fill="white" stroke="#666666" points="1609.39,-76 1486.89,-76 1486.89,-56 1609.39,-56 1609.39,-76"/>
<text xml:space="preserve" text-anchor="middle" x="1548.14" y="-62.5" font-family="Helvetica,sans-Serif" font-size="10.00">Utils/Logger/ILogger.hpp</text>
</a>
</g>
</g>
<!-- Node4&#45;&gt;Node22 -->
<g id="edge41_Node000004_Node000022" class="edge">
<title>Node4&#45;&gt;Node22</title>
<g id="a_edge41_Node000004_Node000022"><a xlink:title=" ">
<path fill="none" stroke="#63b8ff" d="M1306,-179.58C1324.72,-170.64 1353.49,-156.71 1378.14,-144 1404.66,-130.33 1410.17,-124.73 1437.14,-112 1461.76,-100.38 1490.22,-88.88 1512.16,-80.41"/>
<polygon fill="#63b8ff" stroke="#63b8ff" points="1513.16,-83.78 1521.25,-76.94 1510.66,-77.24 1513.16,-83.78"/>
</a>
</g>
</g>
<!-- Node4&#45;&gt;Node24 -->
<g id="edge61_Node000004_Node000024" class="edge">
<title>Node4&#45;&gt;Node24</title>
<g id="a_edge61_Node000004_Node000024"><a xlink:title=" ">
<path fill="none" stroke="#63b8ff" d="M1341.73,-187.85C1461.09,-184.79 1733.38,-174.52 1761.14,-144 1789.15,-113.21 1777.72,-59.84 1768.5,-30.96"/>
<polygon fill="#63b8ff" stroke="#63b8ff" points="1771.86,-29.96 1765.3,-21.64 1765.24,-32.24 1771.86,-29.96"/>
</a>
</g>
</g>
<!-- Node26 -->
<g id="Node000026" class="node">
<title>Node26</title>
<g id="a_Node000026"><a xlink:href="LoggerFactory_8hpp.html" target="_top" xlink:title=" ">
<polygon fill="white" stroke="#666666" points="1752.02,-138 1600.27,-138 1600.27,-118 1752.02,-118 1752.02,-138"/>
<text xml:space="preserve" text-anchor="middle" x="1676.14" y="-124.5" font-family="Helvetica,sans-Serif" font-size="10.00">Utils/Logger/LoggerFactory.hpp</text>
</a>
</g>
</g>
<!-- Node4&#45;&gt;Node26 -->
<g id="edge47_Node000004_Node000026" class="edge">
<title>Node4&#45;&gt;Node26</title>
<g id="a_edge47_Node000004_Node000026"><a xlink:title=" ">
<path fill="none" stroke="#63b8ff" d="M1341.87,-181.26C1403.08,-172.64 1504.23,-158.08 1591.14,-144 1598.13,-142.87 1605.44,-141.64 1612.7,-140.4"/>
<polygon fill="#63b8ff" stroke="#63b8ff" points="1613.29,-143.85 1622.55,-138.69 1612.1,-136.95 1613.29,-143.85"/>
</a>
</g>
</g>
<!-- Node27 -->
<g id="Node000027" class="node">
<title>Node27</title>
<g id="a_Node000027"><a xlink:href="NullLogger_8hpp.html" target="_top" xlink:title=" ">
<polygon fill="white" stroke="#666666" points="1582.52,-138 1445.77,-138 1445.77,-118 1582.52,-118 1582.52,-138"/>
<text xml:space="preserve" text-anchor="middle" x="1514.14" y="-124.5" font-family="Helvetica,sans-Serif" font-size="10.00">Utils/Logger/NullLogger.hpp</text>
</a>
</g>
</g>
<!-- Node4&#45;&gt;Node27 -->
<g id="edge51_Node000004_Node000027" class="edge">
<title>Node4&#45;&gt;Node27</title>
<g id="a_edge51_Node000004_Node000027"><a xlink:title=" ">
<path fill="none" stroke="#63b8ff" d="M1322.02,-179.56C1361.16,-169.26 1423.97,-152.73 1467.05,-141.39"/>
<polygon fill="#63b8ff" stroke="#63b8ff" points="1467.86,-144.8 1476.64,-138.87 1466.08,-138.03 1467.86,-144.8"/>
</a>
</g>
</g>
<!-- Node28 -->
<g id="Node000028" class="node">
<title>Node28</title>
<g id="a_Node000028"><a xlink:href="IPlatformInfo_8hpp.html" target="_top" xlink:title=" ">
<polygon fill="white" stroke="#666666" points="1037.52,-144 918.77,-144 918.77,-112 1037.52,-112 1037.52,-144"/>
<text xml:space="preserve" text-anchor="start" x="926.77" y="-130.5" font-family="Helvetica,sans-Serif" font-size="10.00">Utils/Platform/IPlatform</text>
<text xml:space="preserve" text-anchor="middle" x="978.14" y="-118.5" font-family="Helvetica,sans-Serif" font-size="10.00">Info.hpp</text>
</a>
</g>
</g>
<!-- Node4&#45;&gt;Node28 -->
<g id="edge53_Node000004_Node000028" class="edge">
<title>Node4&#45;&gt;Node28</title>
<g id="a_edge53_Node000004_Node000028"><a xlink:title=" ">
<path fill="none" stroke="#63b8ff" d="M1233.37,-179.5C1187.35,-171.12 1118.51,-158.34 1049.1,-144.36"/>
<polygon fill="#63b8ff" stroke="#63b8ff" points="1049.94,-140.96 1039.44,-142.41 1048.55,-147.82 1049.94,-140.96"/>
</a>
</g>
</g>
<!-- Node29 -->
<g id="Node000029" class="node">
<title>Node29</title>
<g id="a_Node000029"><a xlink:href="IStringFormatter_8hpp.html" target="_top" xlink:title=" ">
<polygon fill="white" stroke="#666666" points="1430.64,-76 1273.64,-76 1273.64,-56 1430.64,-56 1430.64,-76"/>
<text xml:space="preserve" text-anchor="middle" x="1352.14" y="-62.5" font-family="Helvetica,sans-Serif" font-size="10.00">Utils/String/IStringFormatter.hpp</text>
</a>
</g>
</g>
<!-- Node4&#45;&gt;Node29 -->
<g id="edge58_Node000004_Node000029" class="edge">
<title>Node4&#45;&gt;Node29</title>
<g id="a_edge58_Node000004_Node000029"><a xlink:title=" ">
<path fill="none" stroke="#63b8ff" d="M1315.7,-179.51C1332.23,-172.51 1351.42,-161.18 1361.14,-144 1371.07,-126.47 1366.31,-103.12 1360.65,-86.74"/>
<polygon fill="#63b8ff" stroke="#63b8ff" points="1364,-85.7 1357.11,-77.65 1357.47,-88.24 1364,-85.7"/>
</a>
</g>
</g>
<!-- Node6&#45;&gt;Node7 -->
<g id="edge6_Node000006_Node000007" class="edge">
<title>Node6&#45;&gt;Node7</title>
<g id="a_edge6_Node000006_Node000007"><a xlink:title=" ">
<path fill="none" stroke="#63b8ff" d="M494.8,-117.62C507.28,-108.38 526.6,-94.07 541.52,-83.01"/>
<polygon fill="#63b8ff" stroke="#63b8ff" points="543.41,-85.97 549.36,-77.21 539.24,-80.35 543.41,-85.97"/>
</a>
</g>
</g>
<!-- Node8&#45;&gt;Node7 -->
<g id="edge12_Node000008_Node000007" class="edge">
<title>Node8&#45;&gt;Node7</title>
<g id="a_edge12_Node000008_Node000007"><a xlink:title=" ">
<path fill="none" stroke="#63b8ff" d="M624.03,-111.55C612.04,-102.78 597.07,-91.83 584.97,-82.97"/>
<polygon fill="#63b8ff" stroke="#63b8ff" points="587.36,-80.38 577.22,-77.3 583.23,-86.03 587.36,-80.38"/>
</a>
</g>
</g>
<!-- Node9 -->
<g id="Node000009" class="node">
<title>Node9</title>
<g id="a_Node000009"><a xlink:href="UtilsError_8hpp.html" target="_top" xlink:title=" ">
<polygon fill="#fff0f0" stroke="red" points="910.77,-76 811.52,-76 811.52,-56 910.77,-56 910.77,-76"/>
<text xml:space="preserve" text-anchor="middle" x="861.14" y="-62.5" font-family="Helvetica,sans-Serif" font-size="10.00">Utils/UtilsError.hpp</text>
</a>
</g>
</g>
<!-- Node8&#45;&gt;Node9 -->
<g id="edge8_Node000008_Node000009" class="edge">
<title>Node8&#45;&gt;Node9</title>
<g id="a_edge8_Node000008_Node000009"><a xlink:title=" ">
<path fill="none" stroke="#63b8ff" d="M700.77,-111.55C736.59,-101.6 782.56,-88.83 816.09,-79.51"/>
<polygon fill="#63b8ff" stroke="#63b8ff" points="816.8,-82.95 825.5,-76.9 814.93,-76.21 816.8,-82.95"/>
</a>
</g>
</g>
<!-- Node8&#45;&gt;Node15 -->
<g id="edge13_Node000008_Node000015" class="edge">
<title>Node8&#45;&gt;Node15</title>
<g id="a_edge13_Node000008_Node000015"><a xlink:title=" ">
<path fill="none" stroke="#63b8ff" d="M578.5,-113.6C575.68,-113.06 572.88,-112.52 570.14,-112 492.46,-97.24 400.95,-81.08 353.1,-72.72"/>
<polygon fill="#63b8ff" stroke="#63b8ff" points="353.85,-69.3 343.4,-71.03 352.65,-76.2 353.85,-69.3"/>
</a>
</g>
</g>
<!-- Node10 -->
<g id="Node000010" class="node">
<title>Node10</title>
<g id="a_Node000010"><a xlink:title=" ">
<polygon fill="#e0e0e0" stroke="#999999" points="883.77,-20 838.52,-20 838.52,0 883.77,0 883.77,-20"/>
<text xml:space="preserve" text-anchor="middle" x="861.14" y="-6.5" font-family="Helvetica,sans-Serif" font-size="10.00">cstdint</text>
</a>
</g>
</g>
<!-- Node9&#45;&gt;Node10 -->
<g id="edge9_Node000009_Node000010" class="edge">
<title>Node9&#45;&gt;Node10</title>
<g id="a_edge9_Node000009_Node000010"><a xlink:title=" ">
<path fill="none" stroke="#63b8ff" d="M861.14,-55.59C861.14,-49.01 861.14,-39.96 861.14,-31.73"/>
<polygon fill="#63b8ff" stroke="#63b8ff" points="864.64,-31.81 861.14,-21.81 857.64,-31.81 864.64,-31.81"/>
</a>
</g>
</g>
<!-- Node11 -->
<g id="Node000011" class="node">
<title>Node11</title>
<g id="a_Node000011"><a xlink:title=" ">
<polygon fill="#e0e0e0" stroke="#999999" points="984.02,-20 934.27,-20 934.27,0 984.02,0 984.02,-20"/>
<text xml:space="preserve" text-anchor="middle" x="959.14" y="-6.5" font-family="Helvetica,sans-Serif" font-size="10.00">optional</text>
</a>
</g>
</g>
<!-- Node9&#45;&gt;Node11 -->
<g id="edge10_Node000009_Node000011" class="edge">
<title>Node9&#45;&gt;Node11</title>
<g id="a_edge10_Node000009_Node000011"><a xlink:title=" ">
<path fill="none" stroke="#63b8ff" d="M878.21,-55.59C893.02,-47.44 914.71,-35.48 931.91,-26"/>
<polygon fill="#63b8ff" stroke="#63b8ff" points="933.54,-29.1 940.61,-21.21 930.17,-22.97 933.54,-29.1"/>
</a>
</g>
</g>
<!-- Node9&#45;&gt;Node13 -->
<g id="edge11_Node000009_Node000013" class="edge">
<title>Node9&#45;&gt;Node13</title>
<g id="a_edge11_Node000009_Node000013"><a xlink:title=" ">
<path fill="none" stroke="#63b8ff" d="M894.59,-55.59C930.4,-45.52 986.78,-29.66 1021.77,-19.82"/>
<polygon fill="#63b8ff" stroke="#63b8ff" points="1022.62,-23.22 1031.3,-17.14 1020.73,-16.48 1022.62,-23.22"/>
</a>
</g>
</g>
<!-- Node16&#45;&gt;Node7 -->
<g id="edge17_Node000016_Node000007" class="edge">
<title>Node16&#45;&gt;Node7</title>
<g id="a_edge17_Node000016_Node000007"><a xlink:title=" ">
<path fill="none" stroke="#63b8ff" d="M149.12,-117.52C160.65,-115.59 172.79,-113.64 184.14,-112 306.27,-94.35 451.27,-78.57 521.24,-71.27"/>
<polygon fill="#63b8ff" stroke="#63b8ff" points="521.52,-74.76 531.11,-70.25 520.8,-67.8 521.52,-74.76"/>
</a>
</g>
</g>
<!-- Node16&#45;&gt;Node9 -->
<g id="edge15_Node000016_Node000009" class="edge">
<title>Node16&#45;&gt;Node9</title>
<g id="a_edge15_Node000016_Node000009"><a xlink:title=" ">
<path fill="none" stroke="#63b8ff" d="M146.27,-117.54C158.62,-115.47 171.83,-113.45 184.14,-112 410.28,-85.28 680.93,-73.26 799.92,-68.97"/>
<polygon fill="#63b8ff" stroke="#63b8ff" points="799.91,-72.47 809.78,-68.62 799.66,-65.47 799.91,-72.47"/>
</a>
</g>
</g>
<!-- Node16&#45;&gt;Node10 -->
<g id="edge16_Node000016_Node000010" class="edge">
<title>Node16&#45;&gt;Node10</title>
<g id="a_edge16_Node000016_Node000010"><a xlink:title=" ">
<path fill="none" stroke="#63b8ff" d="M105.09,-117.73C121.18,-101.77 156.8,-69.51 194.14,-56 312.32,-13.24 707.88,-10.62 826.95,-10.83"/>
<polygon fill="#63b8ff" stroke="#63b8ff" points="826.69,-14.33 836.7,-10.86 826.71,-7.33 826.69,-14.33"/>
</a>
</g>
</g>
<!-- Node16&#45;&gt;Node13 -->
<g id="edge18_Node000016_Node000013" class="edge">
<title>Node16&#45;&gt;Node13</title>
<g id="a_edge18_Node000016_Node000013"><a xlink:title=" ">
<path fill="none" stroke="#63b8ff" d="M115.57,-117.61C149.73,-101.61 223.21,-69.49 289.14,-56 596.08,6.8 681.41,-51.27 993.14,-20 1002.33,-19.08 1012.25,-17.73 1021.33,-16.36"/>
<polygon fill="#63b8ff" stroke="#63b8ff" points="1021.83,-19.83 1031.16,-14.82 1020.74,-12.91 1021.83,-19.83"/>
</a>
</g>
</g>
<!-- Node16&#45;&gt;Node15 -->
<g id="edge19_Node000016_Node000015" class="edge">
<title>Node16&#45;&gt;Node15</title>
<g id="a_edge19_Node000016_Node000015"><a xlink:title=" ">
<path fill="none" stroke="#63b8ff" d="M131.14,-117.62C173.88,-106.18 245.62,-86.96 287.34,-75.79"/>
<polygon fill="#63b8ff" stroke="#63b8ff" points="288.04,-79.22 296.8,-73.25 286.23,-72.46 288.04,-79.22"/>
</a>
</g>
</g>
<!-- Node17&#45;&gt;Node7 -->
<g id="edge23_Node000017_Node000007" class="edge">
<title>Node17&#45;&gt;Node7</title>
<g id="a_edge23_Node000017_Node000007"><a xlink:title=" ">
<path fill="none" stroke="#63b8ff" d="M316.25,-117.56C372.55,-106.03 466.97,-86.69 521.28,-75.57"/>
<polygon fill="#63b8ff" stroke="#63b8ff" points="521.97,-79 531.07,-73.57 520.57,-72.15 521.97,-79"/>
</a>
</g>
</g>
<!-- Node17&#45;&gt;Node9 -->
<g id="edge21_Node000017_Node000009" class="edge">
<title>Node17&#45;&gt;Node9</title>
<g id="a_edge21_Node000017_Node000009"><a xlink:title=" ">
<path fill="none" stroke="#63b8ff" d="M346.18,-117.51C362.02,-115.61 378.62,-113.69 394.14,-112 539.6,-96.2 710.85,-80.42 800.09,-72.41"/>
<polygon fill="#63b8ff" stroke="#63b8ff" points="800.18,-75.91 809.83,-71.53 799.56,-68.94 800.18,-75.91"/>
</a>
</g>
</g>
<!-- Node17&#45;&gt;Node10 -->
<g id="edge22_Node000017_Node000010" class="edge">
<title>Node17&#45;&gt;Node10</title>
<g id="a_edge22_Node000017_Node000010"><a xlink:title=" ">
<path fill="none" stroke="#63b8ff" d="M269.55,-117.88C269.1,-102.44 270.7,-71.34 289.14,-56 330.51,-21.58 709.64,-13.21 826.81,-11.43"/>
<polygon fill="#63b8ff" stroke="#63b8ff" points="826.77,-14.93 836.72,-11.29 826.67,-7.93 826.77,-14.93"/>
</a>
</g>
</g>
<!-- Node17&#45;&gt;Node13 -->
<g id="edge24_Node000017_Node000013" class="edge">
<title>Node17&#45;&gt;Node13</title>
<g id="a_edge24_Node000017_Node000013"><a xlink:title=" ">
<path fill="none" stroke="#63b8ff" d="M297.07,-117.54C342.86,-101.89 439.14,-70.85 523.14,-56 729.44,-19.52 784.97,-43.55 993.14,-20 1002.49,-18.94 1012.62,-17.53 1021.84,-16.13"/>
<polygon fill="#63b8ff" stroke="#63b8ff" points="1022.08,-19.64 1031.42,-14.64 1021,-12.72 1022.08,-19.64"/>
</a>
</g>
</g>
<!-- Node17&#45;&gt;Node15 -->
<g id="edge25_Node000017_Node000015" class="edge">
<title>Node17&#45;&gt;Node15</title>
<g id="a_edge25_Node000017_Node000015"><a xlink:title=" ">
<path fill="none" stroke="#63b8ff" d="M277.96,-117.62C285.26,-108.86 296.37,-95.53 305.35,-84.75"/>
<polygon fill="#63b8ff" stroke="#63b8ff" points="307.87,-87.2 311.58,-77.28 302.49,-82.72 307.87,-87.2"/>
</a>
</g>
</g>
<!-- Node18&#45;&gt;Node7 -->
<g id="edge28_Node000018_Node000007" class="edge">
<title>Node18&#45;&gt;Node7</title>
<g id="a_edge28_Node000018_Node000007"><a xlink:title=" ">
<path fill="none" stroke="#63b8ff" d="M775.49,-117.56C729.01,-106.49 652.32,-88.23 604.93,-76.95"/>
<polygon fill="#63b8ff" stroke="#63b8ff" points="605.86,-73.57 595.32,-74.66 604.23,-80.38 605.86,-73.57"/>
</a>
</g>
</g>
<!-- Node18&#45;&gt;Node9 -->
<g id="edge27_Node000018_Node000009" class="edge">
<title>Node18&#45;&gt;Node9</title>
<g id="a_edge27_Node000018_Node000009"><a xlink:title=" ">
<path fill="none" stroke="#63b8ff" d="M822.33,-117.62C828.99,-108.94 839.06,-95.8 847.28,-85.08"/>
<polygon fill="#63b8ff" stroke="#63b8ff" points="849.93,-87.38 853.24,-77.31 844.37,-83.12 849.93,-87.38"/>
</a>
</g>
</g>
<!-- Node18&#45;&gt;Node13 -->
<g id="edge29_Node000018_Node000013" class="edge">
<title>Node18&#45;&gt;Node13</title>
<g id="a_edge29_Node000018_Node000013"><a xlink:title=" ">
<path fill="none" stroke="#63b8ff" d="M834.5,-117.61C855.58,-107.39 890.26,-90.56 920.14,-76 955.68,-58.69 996.52,-38.71 1023.47,-25.53"/>
<polygon fill="#63b8ff" stroke="#63b8ff" points="1024.96,-28.69 1032.41,-21.15 1021.89,-22.41 1024.96,-28.69"/>
</a>
</g>
</g>
<!-- Node18&#45;&gt;Node15 -->
<g id="edge30_Node000018_Node000015" class="edge">
<title>Node18&#45;&gt;Node15</title>
<g id="a_edge30_Node000018_Node000015"><a xlink:title=" ">
<path fill="none" stroke="#63b8ff" d="M757.68,-117.51C745.31,-115.58 732.31,-113.64 720.14,-112 584.26,-93.64 421.68,-76.99 353.16,-70.21"/>
<polygon fill="#63b8ff" stroke="#63b8ff" points="353.67,-66.74 343.37,-69.25 352.98,-73.71 353.67,-66.74"/>
</a>
</g>
</g>
<!-- Node19&#45;&gt;Node9 -->
<g id="edge32_Node000019_Node000009" class="edge">
<title>Node19&#45;&gt;Node9</title>
<g id="a_edge32_Node000019_Node000009"><a xlink:title=" ">
<path fill="none" stroke="#63b8ff" d="M1219.94,-113.5C1216.97,-112.98 1214.03,-112.47 1211.14,-112 1110.35,-95.46 992.4,-81.38 922.38,-73.57"/>
<polygon fill="#63b8ff" stroke="#63b8ff" points="922.98,-70.11 912.65,-72.49 922.21,-77.07 922.98,-70.11"/>
</a>
</g>
</g>
<!-- Node19&#45;&gt;Node11 -->
<g id="edge34_Node000019_Node000011" class="edge">
<title>Node19&#45;&gt;Node11</title>
<g id="a_edge34_Node000019_Node000011"><a xlink:title=" ">
<path fill="none" stroke="#63b8ff" d="M1267.17,-111.74C1243.7,-93.13 1204.81,-63.25 1188.14,-56 1153.98,-41.13 1050.71,-24.4 995.26,-16.16"/>
<polygon fill="#63b8ff" stroke="#63b8ff" points="996.1,-12.74 985.69,-14.75 995.08,-19.67 996.1,-12.74"/>
</a>
</g>
</g>
<!-- Node19&#45;&gt;Node13 -->
<g id="edge35_Node000019_Node000013" class="edge">
<title>Node19&#45;&gt;Node13</title>
<g id="a_edge35_Node000019_Node000013"><a xlink:title=" ">
<path fill="none" stroke="#63b8ff" d="M1276.07,-111.59C1264.66,-95.36 1244.57,-70.22 1221.14,-56 1178.13,-29.89 1119.92,-18.7 1084.53,-14.08"/>
<polygon fill="#63b8ff" stroke="#63b8ff" points="1085.3,-10.64 1074.96,-12.93 1084.47,-17.59 1085.3,-10.64"/>
</a>
</g>
</g>
<!-- Node20 -->
<g id="Node000020" class="node">
<title>Node20</title>
<g id="a_Node000020"><a xlink:title=" ">
<polygon fill="#e0e0e0" stroke="#999999" points="1179.02,-76 1081.27,-76 1081.27,-56 1179.02,-56 1179.02,-76"/>
<text xml:space="preserve" text-anchor="middle" x="1130.14" y="-62.5" font-family="Helvetica,sans-Serif" font-size="10.00">nlohmann/json.hpp</text>
</a>
</g>
</g>
<!-- Node19&#45;&gt;Node20 -->
<g id="edge33_Node000019_Node000020" class="edge">
<title>Node19&#45;&gt;Node20</title>
<g id="a_edge33_Node000019_Node000020"><a xlink:title=" ">
<path fill="none" stroke="#63b8ff" d="M1245.97,-111.55C1221.03,-101.96 1189.28,-89.75 1165.34,-80.54"/>
<polygon fill="#63b8ff" stroke="#63b8ff" points="1166.61,-77.27 1156.02,-76.95 1164.09,-83.81 1166.61,-77.27"/>
</a>
</g>
</g>
<!-- Node21&#45;&gt;Node7 -->
<g id="edge38_Node000021_Node000007" class="edge">
<title>Node21&#45;&gt;Node7</title>
<g id="a_edge38_Node000021_Node000007"><a xlink:title=" ">
<path fill="none" stroke="#63b8ff" d="M1080.98,-117.57C1069.59,-115.54 1057.46,-113.55 1046.14,-112 883.93,-89.83 689.56,-75.38 605.41,-69.71"/>
<polygon fill="#63b8ff" stroke="#63b8ff" points="605.77,-66.23 595.55,-69.05 605.3,-73.21 605.77,-66.23"/>
</a>
</g>
</g>
<!-- Node21&#45;&gt;Node9 -->
<g id="edge37_Node000021_Node000009" class="edge">
<title>Node21&#45;&gt;Node9</title>
<g id="a_edge37_Node000021_Node000009"><a xlink:title=" ">
<path fill="none" stroke="#63b8ff" d="M1086.97,-117.56C1040.38,-107.13 965.24,-90.31 914.56,-78.96"/>
<polygon fill="#63b8ff" stroke="#63b8ff" points="915.51,-75.58 904.99,-76.82 913.98,-82.42 915.51,-75.58"/>
</a>
</g>
</g>
<!-- Node21&#45;&gt;Node13 -->
<g id="edge40_Node000021_Node000013" class="edge">
<title>Node21&#45;&gt;Node13</title>
<g id="a_edge40_Node000021_Node000013"><a xlink:title=" ">
<path fill="none" stroke="#63b8ff" d="M1114.65,-117.58C1101.7,-108.43 1083.12,-93.41 1072.14,-76 1063.6,-62.45 1058.76,-44.9 1056.11,-31.46"/>
<polygon fill="#63b8ff" stroke="#63b8ff" points="1059.63,-31.26 1054.5,-21.99 1052.73,-32.43 1059.63,-31.26"/>
</a>
</g>
</g>
<!-- Node21&#45;&gt;Node20 -->
<g id="edge39_Node000021_Node000020" class="edge">
<title>Node21&#45;&gt;Node20</title>
<g id="a_edge39_Node000021_Node000020"><a xlink:title=" ">
<path fill="none" stroke="#63b8ff" d="M1129.3,-117.62C1129.43,-109.56 1129.63,-97.65 1129.8,-87.41"/>
<polygon fill="#63b8ff" stroke="#63b8ff" points="1133.3,-87.68 1129.97,-77.63 1126.3,-87.57 1133.3,-87.68"/>
</a>
</g>
</g>
<!-- Node22&#45;&gt;Node10 -->
<g id="edge43_Node000022_Node000010" class="edge">
<title>Node22&#45;&gt;Node10</title>
<g id="a_edge43_Node000022_Node000010"><a xlink:title=" ">
<path fill="none" stroke="#63b8ff" d="M1486.47,-59.72C1471.33,-58.46 1455.15,-57.15 1440.14,-56 1211.37,-38.47 1153.33,-43.99 925.14,-20 915.46,-18.98 905,-17.62 895.39,-16.27"/>
<polygon fill="#63b8ff" stroke="#63b8ff" points="896.1,-12.83 885.7,-14.86 895.09,-19.76 896.1,-12.83"/>
</a>
</g>
</g>
<!-- Node22&#45;&gt;Node13 -->
<g id="edge46_Node000022_Node000013" class="edge">
<title>Node22&#45;&gt;Node13</title>
<g id="a_edge46_Node000022_Node000013"><a xlink:title=" ">
<path fill="none" stroke="#63b8ff" d="M1486.76,-57.57C1482.15,-57.03 1477.57,-56.5 1473.14,-56 1327.8,-39.49 1153.98,-21.39 1084.29,-14.2"/>
<polygon fill="#63b8ff" stroke="#63b8ff" points="1085.07,-10.76 1074.77,-13.22 1084.36,-17.73 1085.07,-10.76"/>
</a>
</g>
</g>
<!-- Node23 -->
<g id="Node000023" class="node">
<title>Node23</title>
<g id="a_Node000023"><a xlink:title=" ">
<polygon fill="#e0e0e0" stroke="#999999" points="1541.27,-20 1481.02,-20 1481.02,0 1541.27,0 1541.27,-20"/>
<text xml:space="preserve" text-anchor="middle" x="1511.14" y="-6.5" font-family="Helvetica,sans-Serif" font-size="10.00">fmt/core.h</text>
</a>
</g>
</g>
<!-- Node22&#45;&gt;Node23 -->
<g id="edge42_Node000022_Node000023" class="edge">
<title>Node22&#45;&gt;Node23</title>
<g id="a_edge42_Node000022_Node000023"><a xlink:title=" ">
<path fill="none" stroke="#63b8ff" d="M1541.7,-55.59C1536.82,-48.47 1529.95,-38.45 1523.97,-29.72"/>
<polygon fill="#63b8ff" stroke="#63b8ff" points="1526.91,-27.82 1518.37,-21.55 1521.13,-31.77 1526.91,-27.82"/>
</a>
</g>
</g>
<!-- Node22&#45;&gt;Node24 -->
<g id="edge44_Node000022_Node000024" class="edge">
<title>Node22&#45;&gt;Node24</title>
<g id="a_edge44_Node000022_Node000024"><a xlink:title=" ">
<path fill="none" stroke="#63b8ff" d="M1585.24,-55.59C1624.21,-45.71 1685.14,-30.27 1724.09,-20.39"/>
<polygon fill="#63b8ff" stroke="#63b8ff" points="1724.88,-23.8 1733.72,-17.95 1723.16,-17.02 1724.88,-23.8"/>
</a>
</g>
</g>
<!-- Node25 -->
<g id="Node000025" class="node">
<title>Node25</title>
<g id="a_Node000025"><a xlink:title=" ">
<polygon fill="#e0e0e0" stroke="#999999" points="1610.77,-20 1559.52,-20 1559.52,0 1610.77,0 1610.77,-20"/>
<text xml:space="preserve" text-anchor="middle" x="1585.14" y="-6.5" font-family="Helvetica,sans-Serif" font-size="10.00">sstream</text>
</a>
</g>
</g>
<!-- Node22&#45;&gt;Node25 -->
<g id="edge45_Node000022_Node000025" class="edge">
<title>Node22&#45;&gt;Node25</title>
<g id="a_edge45_Node000022_Node000025"><a xlink:title=" ">
<path fill="none" stroke="#63b8ff" d="M1554.59,-55.59C1559.47,-48.47 1566.33,-38.45 1572.32,-29.72"/>
<polygon fill="#63b8ff" stroke="#63b8ff" points="1575.15,-31.77 1577.92,-21.55 1569.38,-27.82 1575.15,-31.77"/>
</a>
</g>
</g>
<!-- Node26&#45;&gt;Node13 -->
<g id="edge50_Node000026_Node000013" class="edge">
<title>Node26&#45;&gt;Node13</title>
<g id="a_edge50_Node000026_Node000013"><a xlink:title=" ">
<path fill="none" stroke="#63b8ff" d="M1626.33,-117.53C1585.67,-109 1527.16,-94.91 1478.14,-76 1460.34,-69.13 1458.38,-61.64 1440.14,-56 1312.7,-16.56 1151.93,-11.18 1084.82,-10.79"/>
<polygon fill="#63b8ff" stroke="#63b8ff" points="1084.93,-7.29 1074.92,-10.77 1084.92,-14.29 1084.93,-7.29"/>
</a>
</g>
</g>
<!-- Node26&#45;&gt;Node22 -->
<g id="edge48_Node000026_Node000022" class="edge">
<title>Node26&#45;&gt;Node22</title>
<g id="a_edge48_Node000026_Node000022"><a xlink:title=" ">
<path fill="none" stroke="#63b8ff" d="M1656.14,-117.62C1635.29,-107.85 1602.36,-92.41 1578.34,-81.15"/>
<polygon fill="#63b8ff" stroke="#63b8ff" points="1579.91,-78.03 1569.37,-76.95 1576.94,-84.37 1579.91,-78.03"/>
</a>
</g>
</g>
<!-- Node26&#45;&gt;Node24 -->
<g id="edge49_Node000026_Node000024" class="edge">
<title>Node26&#45;&gt;Node24</title>
<g id="a_edge49_Node000026_Node000024"><a xlink:title=" ">
<path fill="none" stroke="#63b8ff" d="M1683.1,-117.51C1697.18,-98.29 1729.26,-54.5 1747.61,-29.47"/>
<polygon fill="#63b8ff" stroke="#63b8ff" points="1750.35,-31.66 1753.43,-21.52 1744.7,-27.52 1750.35,-31.66"/>
</a>
</g>
</g>
<!-- Node27&#45;&gt;Node22 -->
<g id="edge52_Node000027_Node000022" class="edge">
<title>Node27&#45;&gt;Node22</title>
<g id="a_edge52_Node000027_Node000022"><a xlink:title=" ">
<path fill="none" stroke="#63b8ff" d="M1519.46,-117.62C1524.22,-109.21 1531.37,-96.6 1537.34,-86.07"/>
<polygon fill="#63b8ff" stroke="#63b8ff" points="1540.35,-87.86 1542.23,-77.43 1534.26,-84.4 1540.35,-87.86"/>
</a>
</g>
</g>
<!-- Node28&#45;&gt;Node7 -->
<g id="edge56_Node000028_Node000007" class="edge">
<title>Node28&#45;&gt;Node7</title>
<g id="a_edge56_Node000028_Node000007"><a xlink:title=" ">
<path fill="none" stroke="#63b8ff" d="M918.5,-113.53C915.68,-112.99 912.88,-112.48 910.14,-112 800.63,-92.86 670.36,-78.09 604.97,-71.22"/>
<polygon fill="#63b8ff" stroke="#63b8ff" points="605.73,-67.78 595.42,-70.23 605.01,-74.74 605.73,-67.78"/>
</a>
</g>
</g>
<!-- Node28&#45;&gt;Node9 -->
<g id="edge54_Node000028_Node000009" class="edge">
<title>Node28&#45;&gt;Node9</title>
<g id="a_edge54_Node000028_Node000009"><a xlink:title=" ">
<path fill="none" stroke="#63b8ff" d="M948.01,-111.55C929.9,-102.26 907,-90.52 889.26,-81.42"/>
<polygon fill="#63b8ff" stroke="#63b8ff" points="891.33,-78.55 880.84,-77.1 888.14,-84.78 891.33,-78.55"/>
</a>
</g>
</g>
<!-- Node28&#45;&gt;Node10 -->
<g id="edge55_Node000028_Node000010" class="edge">
<title>Node28&#45;&gt;Node10</title>
<g id="a_edge55_Node000028_Node000010"><a xlink:title=" ">
<path fill="none" stroke="#63b8ff" d="M967.31,-111.72C956.3,-96.72 938.33,-73.59 920.14,-56 909.11,-45.33 895.58,-34.85 884.25,-26.69"/>
<polygon fill="#63b8ff" stroke="#63b8ff" points="886.42,-23.93 876.22,-21.04 882.39,-29.66 886.42,-23.93"/>
</a>
</g>
</g>
<!-- Node28&#45;&gt;Node13 -->
<g id="edge57_Node000028_Node000013" class="edge">
<title>Node28&#45;&gt;Node13</title>
<g id="a_edge57_Node000028_Node000013"><a xlink:title=" ">
<path fill="none" stroke="#63b8ff" d="M987.95,-111.84C1001.52,-90.84 1026.03,-52.93 1040.83,-30.05"/>
<polygon fill="#63b8ff" stroke="#63b8ff" points="1043.73,-32.01 1046.22,-21.71 1037.85,-28.21 1043.73,-32.01"/>
</a>
</g>
</g>
<!-- Node29&#45;&gt;Node13 -->
<g id="edge59_Node000029_Node000013" class="edge">
<title>Node29&#45;&gt;Node13</title>
<g id="a_edge59_Node000029_Node000013"><a xlink:title=" ">
<path fill="none" stroke="#63b8ff" d="M1299.72,-55.53C1237.54,-44.3 1135.9,-25.95 1084.71,-16.7"/>
<polygon fill="#63b8ff" stroke="#63b8ff" points="1085.37,-13.26 1074.91,-14.93 1084.12,-20.15 1085.37,-13.26"/>
</a>
</g>
</g>
</g>
</svg>

<g id="navigator" transform="translate(0 0)" fill="#404254">
  <rect fill="#f2f5e9" fill-opacity="0.5" stroke="#606060" stroke-width=".5" x="0" y="0" width="60" height="60"/>
  <use id="zoomplus" xlink:href="#zoomPlus" x="17" y="9" onmousedown="handleZoom(evt,'in')"/>
  <use id="zoomminus" xlink:href="#zoomMin" x="42" y="9" onmousedown="handleZoom(evt,'out')"/>
  <use id="reset" xlink:href="#resetDef" x="30" y="36" onmousedown="handleReset()"/>
   <use id="arrowup" xlink:href="#arrowUp" x="0" y="0" onmousedown="handlePan(0,-1)"/>
  <use id="arrowright" xlink:href="#arrowRight" x="0" y="0" onmousedown="handlePan(1,0)"/>
  <use id="arrowdown" xlink:href="#arrowDown" x="0" y="0" onmousedown="handlePan(0,1)"/>
  <use id="arrowleft" xlink:href="#arrowLeft" x="0" y="0" onmousedown="handlePan(-1,0)"/>
</g>
<svg viewBox="0 0 15 15" width="100%" height="30px" preserveAspectRatio="xMaxYMin meet">
 <g id="arrow_out" transform="scale(0.3 0.3)">
  <a xlink:href="Application_8cpp__incl_org.svg" target="_base">
   <rect id="button" ry="5" rx="5" y="6" x="6" height="38" width="38"
        fill="#f2f5e9" fill-opacity="0.5" stroke="#606060" stroke-width="1.0"/>
   <path id="arrow"
     d="M 11.500037,31.436501 C 11.940474,20.09759 22.043105,11.32322 32.158766,21.979434 L 37.068811,17.246167 C 37.068811,17.246167 37.088388,32 37.088388,32 L 22.160133,31.978069 C 22.160133,31.978069 26.997745,27.140456 26.997745,27.140456 C 18.528582,18.264221 13.291696,25.230495 11.500037,31.436501 z"
     style="fill:#404040;"/>
  </a>
 </g>
</svg>

<style type='text/css'>
<![CDATA[
[data-mouse-over-selected='false'] { opacity: 0.7; }
[data-mouse-over-selected='true']  { opacity: 1.0; }
]]>
</style>
<script type="application/ecmascript"><![CDATA[
document.addEventListener('DOMContentLoaded', (event) => {
  highlightEdges();
  highlightAdjacentNodes();
});
]]></script>
</svg>
