<?xml version="1.0" encoding="UTF-8" standalone="no"?>
<!DOCTYPE svg PUBLIC "-//W3C//DTD SVG 1.1//EN"
 "http://www.w3.org/Graphics/SVG/1.1/DTD/svg11.dtd">
<!-- Generated by graphviz version 13.1.2 (20250808.2320)
 -->
<!-- Title: main Pages: 1 -->
<svg width="992pt" height="264pt"
 viewBox="0.00 0.00 992.00 264.00" xmlns="http://www.w3.org/2000/svg" xmlns:xlink="http://www.w3.org/1999/xlink">
<g id="graph0" class="graph" transform="scale(1 1) rotate(0) translate(4 260)">
<title>main</title>
<!-- Node1 -->
<g id="Node000001" class="node">
<title>Node1</title>
<g id="a_Node000001"><a xlink:title=" ">
<polygon fill="#999999" stroke="#666666" points="37,-116 0,-116 0,-96 37,-96 37,-116"/>
<text xml:space="preserve" text-anchor="middle" x="18.5" y="-102.5" font-family="Helvetica,sans-Serif" font-size="10.00">main</text>
</a>
</g>
</g>
<!-- Node2 -->
<g id="Node000002" class="node">
<title>Node2</title>
<g id="a_Node000002"><a xlink:href="classdotnamecpp_1_1utils_1_1UtilsFactory.html#a76b90ad17cd7e0dc50796299c94b8567" target="_top" xlink:title="Create complete application components.">
<polygon fill="white" stroke="#666666" points="248,-122 73,-122 73,-90 248,-90 248,-122"/>
<text xml:space="preserve" text-anchor="start" x="81" y="-108.5" font-family="Helvetica,sans-Serif" font-size="10.00">dotnamecpp::utils::</text>
<text xml:space="preserve" text-anchor="middle" x="160.5" y="-96.5" font-family="Helvetica,sans-Serif" font-size="10.00">UtilsFactory::createAppComponents</text>
</a>
</g>
</g>
<!-- Node1&#45;&gt;Node2 -->
<g id="edge1_Node000001_Node000002" class="edge">
<title>Node1&#45;&gt;Node2</title>
<g id="a_edge1_Node000001_Node000002"><a xlink:title=" ">
<path fill="none" stroke="#63b8ff" d="M37.23,-106C43.98,-106 52.23,-106 61.24,-106"/>
<polygon fill="#63b8ff" stroke="#63b8ff" points="61.03,-109.5 71.03,-106 61.03,-102.5 61.03,-109.5"/>
</a>
</g>
</g>
<!-- Node3 -->
<g id="Node000003" class="node">
<title>Node3</title>
<g id="a_Node000003"><a xlink:href="classdotnamecpp_1_1utils_1_1UtilsFactory.html#adb1debe875686643fe487a625750400f" target="_top" xlink:title=" ">
<polygon fill="white" stroke="#666666" points="640.75,-200 475.5,-200 475.5,-168 640.75,-168 640.75,-200"/>
<text xml:space="preserve" text-anchor="start" x="483.5" y="-186.5" font-family="Helvetica,sans-Serif" font-size="10.00">dotnamecpp::utils::</text>
<text xml:space="preserve" text-anchor="middle" x="558.12" y="-174.5" font-family="Helvetica,sans-Serif" font-size="10.00">UtilsFactory::createAssetManager</text>
</a>
</g>
</g>
<!-- Node2&#45;&gt;Node3 -->
<g id="edge2_Node000002_Node000003" class="edge">
<title>Node2&#45;&gt;Node3</title>
<g id="a_edge2_Node000002_Node000003"><a xlink:title=" ">
<path fill="none" stroke="#63b8ff" d="M188.08,-122.47C212.15,-136.48 249.09,-155.74 284,-165 342.55,-180.52 410.49,-185.3 463.96,-186.18"/>
<polygon fill="#63b8ff" stroke="#63b8ff" points="463.59,-189.68 473.63,-186.3 463.67,-182.68 463.59,-189.68"/>
</a>
</g>
</g>
<!-- Node6 -->
<g id="Node000006" class="node">
<title>Node6</title>
<g id="a_Node000006"><a xlink:href="classdotnamecpp_1_1utils_1_1UtilsFactory.html#aa0d9f669087b9bc6a0859324fe2afe50" target="_top" xlink:title=" ">
<polygon fill="white" stroke="#666666" points="430.12,-156 293.38,-156 293.38,-112 430.12,-112 430.12,-156"/>
<text xml:space="preserve" text-anchor="start" x="301.38" y="-142.5" font-family="Helvetica,sans-Serif" font-size="10.00">dotnamecpp::utils::</text>
<text xml:space="preserve" text-anchor="start" x="301.38" y="-130.5" font-family="Helvetica,sans-Serif" font-size="10.00">UtilsFactory::createCustom</text>
<text xml:space="preserve" text-anchor="middle" x="361.75" y="-118.5" font-family="Helvetica,sans-Serif" font-size="10.00">StringsLoader</text>
</a>
</g>
</g>
<!-- Node2&#45;&gt;Node6 -->
<g id="edge5_Node000002_Node000006" class="edge">
<title>Node2&#45;&gt;Node6</title>
<g id="a_edge5_Node000002_Node000006"><a xlink:title=" ">
<path fill="none" stroke="#63b8ff" d="M248.31,-118.2C259.44,-119.76 270.79,-121.36 281.79,-122.9"/>
<polygon fill="#63b8ff" stroke="#63b8ff" points="281.21,-126.36 291.6,-124.28 282.18,-119.42 281.21,-126.36"/>
</a>
</g>
</g>
<!-- Node10 -->
<g id="Node000010" class="node">
<title>Node10</title>
<g id="a_Node000010"><a xlink:href="classdotnamecpp_1_1utils_1_1UtilsFactory.html#accf95777b78081e29cd677b633ab9461" target="_top" xlink:title=" ">
<polygon fill="white" stroke="#666666" points="427.5,-94 296,-94 296,-62 427.5,-62 427.5,-94"/>
<text xml:space="preserve" text-anchor="start" x="304" y="-80.5" font-family="Helvetica,sans-Serif" font-size="10.00">dotnamecpp::utils::</text>
<text xml:space="preserve" text-anchor="middle" x="361.75" y="-68.5" font-family="Helvetica,sans-Serif" font-size="10.00">UtilsFactory::createLogger</text>
</a>
</g>
</g>
<!-- Node2&#45;&gt;Node10 -->
<g id="edge10_Node000002_Node000010" class="edge">
<title>Node2&#45;&gt;Node10</title>
<g id="a_edge10_Node000002_Node000010"><a xlink:title=" ">
<path fill="none" stroke="#63b8ff" d="M248.31,-93.8C260.31,-92.11 272.57,-90.39 284.36,-88.73"/>
<polygon fill="#63b8ff" stroke="#63b8ff" points="284.59,-92.24 294,-87.38 283.61,-85.31 284.59,-92.24"/>
</a>
</g>
</g>
<!-- Node14 -->
<g id="Node000014" class="node">
<title>Node14</title>
<g id="a_Node000014"><a xlink:href="classdotnamecpp_1_1utils_1_1UtilsFactory.html#a5dd47e86b64ad3d8efb881d5b6db1f9d" target="_top" xlink:title=" ">
<polygon fill="white" stroke="#666666" points="439.5,-41 284,-41 284,-9 439.5,-9 439.5,-41"/>
<text xml:space="preserve" text-anchor="start" x="292" y="-27.5" font-family="Helvetica,sans-Serif" font-size="10.00">dotnamecpp::utils::</text>
<text xml:space="preserve" text-anchor="middle" x="361.75" y="-15.5" font-family="Helvetica,sans-Serif" font-size="10.00">UtilsFactory::createPlatformInfo</text>
</a>
</g>
</g>
<!-- Node2&#45;&gt;Node14 -->
<g id="edge14_Node000002_Node000014" class="edge">
<title>Node2&#45;&gt;Node14</title>
<g id="a_edge14_Node000002_Node000014"><a xlink:title=" ">
<path fill="none" stroke="#63b8ff" d="M197.98,-89.55C222.22,-78.79 254.83,-64.62 284,-53 290.4,-50.45 297.13,-47.86 303.84,-45.34"/>
<polygon fill="#63b8ff" stroke="#63b8ff" points="304.74,-48.74 312.9,-41.97 302.31,-42.18 304.74,-48.74"/>
</a>
</g>
</g>
<!-- Node4 -->
<g id="Node000004" class="node">
<title>Node4</title>
<g id="a_Node000004"><a xlink:href="classdotnamecpp_1_1assets_1_1AssetManagerFactory.html#ac8586007318eb5a7692241afdaed9ba9" target="_top" xlink:title="Create a Default object.">
<polygon fill="white" stroke="#666666" points="812.38,-256 694.38,-256 694.38,-212 812.38,-212 812.38,-256"/>
<text xml:space="preserve" text-anchor="start" x="702.38" y="-242.5" font-family="Helvetica,sans-Serif" font-size="10.00">dotnamecpp::assets</text>
<text xml:space="preserve" text-anchor="start" x="702.38" y="-230.5" font-family="Helvetica,sans-Serif" font-size="10.00">::AssetManagerFactory</text>
<text xml:space="preserve" text-anchor="middle" x="753.38" y="-218.5" font-family="Helvetica,sans-Serif" font-size="10.00">::createDefault</text>
</a>
</g>
</g>
<!-- Node3&#45;&gt;Node4 -->
<g id="edge3_Node000003_Node000004" class="edge">
<title>Node3&#45;&gt;Node4</title>
<g id="a_edge3_Node000003_Node000004"><a xlink:title=" ">
<path fill="none" stroke="#63b8ff" d="M622.67,-200.44C641.98,-205.44 663.29,-210.95 682.97,-216.04"/>
<polygon fill="#63b8ff" stroke="#63b8ff" points="682,-219.41 692.56,-218.52 683.75,-212.63 682,-219.41"/>
</a>
</g>
</g>
<!-- Node5 -->
<g id="Node000005" class="node">
<title>Node5</title>
<g id="a_Node000005"><a xlink:href="classdotnamecpp_1_1assets_1_1AssetManager.html#af6846c31c10bcf4a5e937f1627aa0f48" target="_top" xlink:title="Create a new Asset Manager instance.">
<polygon fill="white" stroke="#666666" points="984,-250 866,-250 866,-218 984,-218 984,-250"/>
<text xml:space="preserve" text-anchor="start" x="874" y="-236.5" font-family="Helvetica,sans-Serif" font-size="10.00">dotnamecpp::assets</text>
<text xml:space="preserve" text-anchor="middle" x="925" y="-224.5" font-family="Helvetica,sans-Serif" font-size="10.00">::AssetManager::create</text>
</a>
</g>
</g>
<!-- Node4&#45;&gt;Node5 -->
<g id="edge4_Node000004_Node000005" class="edge">
<title>Node4&#45;&gt;Node5</title>
<g id="a_edge4_Node000004_Node000005"><a xlink:title=" ">
<path fill="none" stroke="#63b8ff" d="M812.75,-234C826.08,-234 840.37,-234 854.12,-234"/>
<polygon fill="#63b8ff" stroke="#63b8ff" points="854,-237.5 864,-234 854,-230.5 854,-237.5"/>
</a>
</g>
</g>
<!-- Node6&#45;&gt;Node3 -->
<g id="edge6_Node000006_Node000003" class="edge">
<title>Node6&#45;&gt;Node3</title>
<g id="a_edge6_Node000006_Node000003"><a xlink:title=" ">
<path fill="none" stroke="#63b8ff" d="M430.46,-151.42C447.18,-155.72 465.18,-160.35 482.22,-164.73"/>
<polygon fill="#63b8ff" stroke="#63b8ff" points="481.23,-168.09 491.78,-167.19 482.97,-161.31 481.23,-168.09"/>
</a>
</g>
</g>
<!-- Node7 -->
<g id="Node000007" class="node">
<title>Node7</title>
<g id="a_Node000007"><a xlink:href="classdotnamecpp_1_1utils_1_1UtilsFactory.html#a9fcea5e7ff94872b54a8c01eb2d9c965" target="_top" xlink:title=" ">
<polygon fill="white" stroke="#666666" points="640,-150 476.25,-150 476.25,-118 640,-118 640,-150"/>
<text xml:space="preserve" text-anchor="start" x="484.25" y="-136.5" font-family="Helvetica,sans-Serif" font-size="10.00">dotnamecpp::utils::</text>
<text xml:space="preserve" text-anchor="middle" x="558.12" y="-124.5" font-family="Helvetica,sans-Serif" font-size="10.00">UtilsFactory::createJsonSerializer</text>
</a>
</g>
</g>
<!-- Node6&#45;&gt;Node7 -->
<g id="edge7_Node000006_Node000007" class="edge">
<title>Node6&#45;&gt;Node7</title>
<g id="a_edge7_Node000006_Node000007"><a xlink:title=" ">
<path fill="none" stroke="#63b8ff" d="M430.46,-134C441.47,-134 453.04,-134 464.52,-134"/>
<polygon fill="#63b8ff" stroke="#63b8ff" points="464.44,-137.5 474.44,-134 464.44,-130.5 464.44,-137.5"/>
</a>
</g>
</g>
<!-- Node8 -->
<g id="Node000008" class="node">
<title>Node8</title>
<g id="a_Node000008"><a xlink:href="classdotnamecpp_1_1utils_1_1UtilsFactory.html#ad559863ad0bfa1fe1805f82089cfe948" target="_top" xlink:title=" ">
<polygon fill="white" stroke="#666666" points="828.12,-194 678.62,-194 678.62,-162 828.12,-162 828.12,-194"/>
<text xml:space="preserve" text-anchor="start" x="686.62" y="-180.5" font-family="Helvetica,sans-Serif" font-size="10.00">dotnamecpp::utils::</text>
<text xml:space="preserve" text-anchor="middle" x="753.38" y="-168.5" font-family="Helvetica,sans-Serif" font-size="10.00">UtilsFactory::createFileReader</text>
</a>
</g>
</g>
<!-- Node7&#45;&gt;Node8 -->
<g id="edge8_Node000007_Node000008" class="edge">
<title>Node7&#45;&gt;Node8</title>
<g id="a_edge8_Node000007_Node000008"><a xlink:title=" ">
<path fill="none" stroke="#63b8ff" d="M631.36,-150.45C643.63,-153.24 656.46,-156.16 668.99,-159.02"/>
<polygon fill="#63b8ff" stroke="#63b8ff" points="667.9,-162.36 678.43,-161.16 669.46,-155.53 667.9,-162.36"/>
</a>
</g>
</g>
<!-- Node9 -->
<g id="Node000009" class="node">
<title>Node9</title>
<g id="a_Node000009"><a xlink:href="classdotnamecpp_1_1utils_1_1UtilsFactory.html#aa935a454b1b16e1f69ee05949cf37701" target="_top" xlink:title=" ">
<polygon fill="white" stroke="#666666" points="825.12,-144 681.62,-144 681.62,-112 825.12,-112 825.12,-144"/>
<text xml:space="preserve" text-anchor="start" x="689.62" y="-130.5" font-family="Helvetica,sans-Serif" font-size="10.00">dotnamecpp::utils::</text>
<text xml:space="preserve" text-anchor="middle" x="753.38" y="-118.5" font-family="Helvetica,sans-Serif" font-size="10.00">UtilsFactory::createFileWriter</text>
</a>
</g>
</g>
<!-- Node7&#45;&gt;Node9 -->
<g id="edge9_Node000007_Node000009" class="edge">
<title>Node7&#45;&gt;Node9</title>
<g id="a_edge9_Node000007_Node000009"><a xlink:title=" ">
<path fill="none" stroke="#63b8ff" d="M640.24,-131.48C650.04,-131.18 660.06,-130.87 669.88,-130.56"/>
<polygon fill="#63b8ff" stroke="#63b8ff" points="669.89,-134.06 679.78,-130.25 669.67,-127.07 669.89,-134.06"/>
</a>
</g>
</g>
<!-- Node11 -->
<g id="Node000011" class="node">
<title>Node11</title>
<g id="a_Node000011"><a xlink:href="classdotnamecpp_1_1logging_1_1LoggerFactory.html#a2811f86fe84698397f09f3ae18959511" target="_top" xlink:title="Create a logger instance based on the specified type and configuration.">
<polygon fill="white" stroke="#666666" points="616.75,-94 499.5,-94 499.5,-62 616.75,-62 616.75,-94"/>
<text xml:space="preserve" text-anchor="start" x="507.5" y="-80.5" font-family="Helvetica,sans-Serif" font-size="10.00">dotnamecpp::logging</text>
<text xml:space="preserve" text-anchor="middle" x="558.12" y="-68.5" font-family="Helvetica,sans-Serif" font-size="10.00">::LoggerFactory::create</text>
</a>
</g>
</g>
<!-- Node10&#45;&gt;Node11 -->
<g id="edge11_Node000010_Node000011" class="edge">
<title>Node10&#45;&gt;Node11</title>
<g id="a_edge11_Node000010_Node000011"><a xlink:title=" ">
<path fill="none" stroke="#63b8ff" d="M427.74,-78C447.03,-78 468.21,-78 487.76,-78"/>
<polygon fill="#63b8ff" stroke="#63b8ff" points="487.54,-81.5 497.54,-78 487.54,-74.5 487.54,-81.5"/>
</a>
</g>
</g>
<!-- Node12 -->
<g id="Node000012" class="node">
<title>Node12</title>
<g id="a_Node000012"><a xlink:href="classdotnamecpp_1_1logging_1_1LoggerFactory.html#a66665981d61ca1baae6f1801a597bb65" target="_top" xlink:title="Create a Console object logger.">
<polygon fill="white" stroke="#666666" points="830,-94 676.75,-94 676.75,-62 830,-62 830,-94"/>
<text xml:space="preserve" text-anchor="start" x="684.75" y="-80.5" font-family="Helvetica,sans-Serif" font-size="10.00">dotnamecpp::logging</text>
<text xml:space="preserve" text-anchor="middle" x="753.38" y="-68.5" font-family="Helvetica,sans-Serif" font-size="10.00">::LoggerFactory::createConsole</text>
</a>
</g>
</g>
<!-- Node11&#45;&gt;Node12 -->
<g id="edge12_Node000011_Node000012" class="edge">
<title>Node11&#45;&gt;Node12</title>
<g id="a_edge12_Node000011_Node000012"><a xlink:title=" ">
<path fill="none" stroke="#63b8ff" d="M617.11,-78C632.28,-78 648.98,-78 665.31,-78"/>
<polygon fill="#63b8ff" stroke="#63b8ff" points="665.02,-81.5 675.02,-78 665.02,-74.5 665.02,-81.5"/>
</a>
</g>
</g>
<!-- Node13 -->
<g id="Node000013" class="node">
<title>Node13</title>
<g id="a_Node000013"><a xlink:href="classdotnamecpp_1_1logging_1_1LoggerFactory.html#a1cf52c1ddb57eae93a5aab46b593d021" target="_top" xlink:title="Create a Null object logger.">
<polygon fill="white" stroke="#666666" points="820.62,-44 686.12,-44 686.12,-12 820.62,-12 820.62,-44"/>
<text xml:space="preserve" text-anchor="start" x="694.12" y="-30.5" font-family="Helvetica,sans-Serif" font-size="10.00">dotnamecpp::logging</text>
<text xml:space="preserve" text-anchor="middle" x="753.38" y="-18.5" font-family="Helvetica,sans-Serif" font-size="10.00">::LoggerFactory::createNull</text>
</a>
</g>
</g>
<!-- Node11&#45;&gt;Node13 -->
<g id="edge13_Node000011_Node000013" class="edge">
<title>Node11&#45;&gt;Node13</title>
<g id="a_edge13_Node000011_Node000013"><a xlink:title=" ">
<path fill="none" stroke="#63b8ff" d="M617.11,-63C636.15,-58.07 657.59,-52.52 677.69,-47.32"/>
<polygon fill="#63b8ff" stroke="#63b8ff" points="678.43,-50.75 687.23,-44.85 676.68,-43.97 678.43,-50.75"/>
</a>
</g>
</g>
<!-- Node15 -->
<g id="Node000015" class="node">
<title>Node15</title>
<g id="a_Node000015"><a xlink:href="classdotnamecpp_1_1utils_1_1PlatformInfoFactory.html#ab7dafcf5ba115a99f7d80fa045639f84" target="_top" xlink:title=" ">
<polygon fill="white" stroke="#666666" points="624.25,-44 492,-44 492,0 624.25,0 624.25,-44"/>
<text xml:space="preserve" text-anchor="start" x="500" y="-30.5" font-family="Helvetica,sans-Serif" font-size="10.00">dotnamecpp::utils::</text>
<text xml:space="preserve" text-anchor="start" x="500" y="-18.5" font-family="Helvetica,sans-Serif" font-size="10.00">PlatformInfoFactory</text>
<text xml:space="preserve" text-anchor="middle" x="558.12" y="-6.5" font-family="Helvetica,sans-Serif" font-size="10.00">::createForCurrentPlatform</text>
</a>
</g>
</g>
<!-- Node14&#45;&gt;Node15 -->
<g id="edge15_Node000014_Node000015" class="edge">
<title>Node14&#45;&gt;Node15</title>
<g id="a_edge15_Node000014_Node000015"><a xlink:title=" ">
<path fill="none" stroke="#63b8ff" d="M439.85,-23.81C453.13,-23.61 466.94,-23.39 480.21,-23.19"/>
<polygon fill="#63b8ff" stroke="#63b8ff" points="480.26,-26.69 490.2,-23.03 480.15,-19.69 480.26,-26.69"/>
</a>
</g>
</g>
</g>
</svg>
