<?xml version="1.0" encoding="UTF-8" standalone="no"?>
<!DOCTYPE svg PUBLIC "-//W3C//DTD SVG 1.1//EN"
 "http://www.w3.org/Graphics/SVG/1.1/DTD/svg11.dtd">
<!-- Generated by graphviz version 13.1.2 (20250808.2320)
 -->
<!-- Title: TEST Pages: 1 -->
<svg width="232pt" height="78pt"
 viewBox="0.00 0.00 232.00 78.00" xmlns="http://www.w3.org/2000/svg" xmlns:xlink="http://www.w3.org/1999/xlink">
<g id="graph0" class="graph" transform="scale(1 1) rotate(0) translate(4 74)">
<title>TEST</title>
<!-- Node1 -->
<g id="Node000001" class="node">
<title>Node1</title>
<g id="a_Node000001"><a xlink:title=" ">
<polygon fill="#999999" stroke="#666666" points="41.5,-42 0,-42 0,-22 41.5,-22 41.5,-42"/>
<text xml:space="preserve" text-anchor="middle" x="20.75" y="-28.5" font-family="Helvetica,sans-Serif" font-size="10.00">TEST</text>
</a>
</g>
</g>
<!-- Node2 -->
<g id="Node000002" class="node">
<title>Node2</title>
<g id="a_Node000002"><a xlink:href="classMockAssetManager.html#a67f93b4a0f11a87eb463062d689df854" target="_top" xlink:title=" ">
<polygon fill="white" stroke="#666666" points="224,-70 77.5,-70 77.5,-38 224,-38 224,-70"/>
<text xml:space="preserve" text-anchor="start" x="85.5" y="-56.5" font-family="Helvetica,sans-Serif" font-size="10.00">MockAssetManager::setMock</text>
<text xml:space="preserve" text-anchor="middle" x="150.75" y="-44.5" font-family="Helvetica,sans-Serif" font-size="10.00">Valid</text>
</a>
</g>
</g>
<!-- Node1&#45;&gt;Node2 -->
<g id="edge1_Node000001_Node000002" class="edge">
<title>Node1&#45;&gt;Node2</title>
<g id="a_edge1_Node000001_Node000002"><a xlink:title=" ">
<path fill="none" stroke="#63b8ff" d="M41.75,-35.44C48.75,-36.64 57.11,-38.08 66.03,-39.61"/>
<polygon fill="#63b8ff" stroke="#63b8ff" points="65.21,-43.02 75.66,-41.27 66.39,-36.12 65.21,-43.02"/>
</a>
</g>
</g>
<!-- Node3 -->
<g id="Node000003" class="node">
<title>Node3</title>
<g id="a_Node000003"><a xlink:href="classMockAssetManager.html#a8f82bea196f675915de9ff257300d6a8" target="_top" xlink:title="Validate the asset manager configuration.">
<polygon fill="white" stroke="#666666" points="222.12,-20 79.38,-20 79.38,0 222.12,0 222.12,-20"/>
<text xml:space="preserve" text-anchor="middle" x="150.75" y="-6.5" font-family="Helvetica,sans-Serif" font-size="10.00">MockAssetManager::validate</text>
</a>
</g>
</g>
<!-- Node1&#45;&gt;Node3 -->
<g id="edge2_Node000001_Node000003" class="edge">
<title>Node1&#45;&gt;Node3</title>
<g id="a_edge2_Node000001_Node000003"><a xlink:title=" ">
<path fill="none" stroke="#63b8ff" d="M41.75,-28.56C51.75,-26.84 64.52,-24.65 77.76,-22.37"/>
<polygon fill="#63b8ff" stroke="#63b8ff" points="78.18,-25.85 87.44,-20.71 77,-18.95 78.18,-25.85"/>
</a>
</g>
</g>
</g>
</svg>
