<?xml version="1.0" encoding="UTF-8" standalone="no"?>
<!DOCTYPE svg PUBLIC "-//W3C//DTD SVG 1.1//EN"
 "http://www.w3.org/Graphics/SVG/1.1/DTD/svg11.dtd">
<!-- Generated by graphviz version 13.1.2 (20250808.2320)
 -->
<!-- Title: src/Utils/Assets/AssetManager.hpp Pages: 1 -->
<svg width="387pt" height="164pt"
 viewBox="0.00 0.00 387.00 164.00" xmlns="http://www.w3.org/2000/svg" xmlns:xlink="http://www.w3.org/1999/xlink">
<g id="graph0" class="graph" transform="scale(1 1) rotate(0) translate(4 160)">
<title>src/Utils/Assets/AssetManager.hpp</title>
<!-- Node1 -->
<g id="Node000001" class="node">
<title>Node1</title>
<g id="a_Node000001"><a xlink:title=" ">
<polygon fill="#999999" stroke="#666666" points="208.25,-156 37,-156 37,-136 208.25,-136 208.25,-156"/>
<text xml:space="preserve" text-anchor="middle" x="122.62" y="-142.5" font-family="Helvetica,sans-Serif" font-size="10.00">src/Utils/Assets/AssetManager.hpp</text>
</a>
</g>
</g>
<!-- Node2 -->
<g id="Node000002" class="node">
<title>Node2</title>
<g id="a_Node000002"><a xlink:href="AssetManagerTest_8cpp.html" target="_top" xlink:title=" ">
<polygon fill="white" stroke="#666666" points="153.25,-32 0,-32 0,0 153.25,0 153.25,-32"/>
<text xml:space="preserve" text-anchor="start" x="8" y="-18.5" font-family="Helvetica,sans-Serif" font-size="10.00">application/tests/AssetManager</text>
<text xml:space="preserve" text-anchor="middle" x="76.62" y="-6.5" font-family="Helvetica,sans-Serif" font-size="10.00">Test.cpp</text>
</a>
</g>
</g>
<!-- Node1&#45;&gt;Node2 -->
<g id="edge1_Node000001_Node000002" class="edge">
<title>Node1&#45;&gt;Node2</title>
<g id="a_edge1_Node000001_Node000002"><a xlink:title=" ">
<path fill="none" stroke="#63b8ff" d="M68.65,-131.58C52.69,-124.83 36.99,-114.8 27.62,-100 12.95,-76.81 37.19,-49.27 56.5,-32.47"/>
<polygon fill="#63b8ff" stroke="#63b8ff" points="67.11,-134.74 77.7,-135.03 69.6,-128.2 67.11,-134.74"/>
</a>
</g>
</g>
<!-- Node3 -->
<g id="Node000003" class="node">
<title>Node3</title>
<g id="a_Node000003"><a xlink:href="AssetManager_8cpp.html" target="_top" xlink:title=" ">
<polygon fill="white" stroke="#666666" points="208.25,-94 37,-94 37,-74 208.25,-74 208.25,-94"/>
<text xml:space="preserve" text-anchor="middle" x="122.62" y="-80.5" font-family="Helvetica,sans-Serif" font-size="10.00">src/Utils/Assets/AssetManager.cpp</text>
</a>
</g>
</g>
<!-- Node1&#45;&gt;Node3 -->
<g id="edge2_Node000001_Node000003" class="edge">
<title>Node1&#45;&gt;Node3</title>
<g id="a_edge2_Node000001_Node000003"><a xlink:title=" ">
<path fill="none" stroke="#63b8ff" d="M122.62,-124.25C122.62,-113.97 122.62,-102.09 122.62,-94.11"/>
<polygon fill="#63b8ff" stroke="#63b8ff" points="119.13,-124.11 122.63,-134.11 126.13,-124.11 119.13,-124.11"/>
</a>
</g>
</g>
<!-- Node4 -->
<g id="Node000004" class="node">
<title>Node4</title>
<g id="a_Node000004"><a xlink:href="AssetManagerFactory_8hpp.html" target="_top" xlink:title=" ">
<polygon fill="white" stroke="#666666" points="378.88,-100 226.38,-100 226.38,-68 378.88,-68 378.88,-100"/>
<text xml:space="preserve" text-anchor="start" x="234.38" y="-86.5" font-family="Helvetica,sans-Serif" font-size="10.00">src/Utils/Assets/AssetManager</text>
<text xml:space="preserve" text-anchor="middle" x="302.62" y="-74.5" font-family="Helvetica,sans-Serif" font-size="10.00">Factory.hpp</text>
</a>
</g>
</g>
<!-- Node1&#45;&gt;Node4 -->
<g id="edge3_Node000001_Node000004" class="edge">
<title>Node1&#45;&gt;Node4</title>
<g id="a_edge3_Node000001_Node000004"><a xlink:title=" ">
<path fill="none" stroke="#63b8ff" d="M161.63,-132C189.4,-122.74 226.84,-110.26 256.15,-100.49"/>
<polygon fill="#63b8ff" stroke="#63b8ff" points="160.57,-128.66 152.19,-135.15 162.78,-135.3 160.57,-128.66"/>
</a>
</g>
</g>
<!-- Node4&#45;&gt;Node2 -->
<g id="edge4_Node000004_Node000002" class="edge">
<title>Node4&#45;&gt;Node2</title>
<g id="a_edge4_Node000004_Node000002"><a xlink:title=" ">
<path fill="none" stroke="#63b8ff" d="M238.74,-64.34C204.3,-54.28 162.29,-42.02 129.67,-32.49"/>
<polygon fill="#63b8ff" stroke="#63b8ff" points="237.6,-67.66 248.19,-67.1 239.57,-60.94 237.6,-67.66"/>
</a>
</g>
</g>
<!-- Node5 -->
<g id="Node000005" class="node">
<title>Node5</title>
<g id="a_Node000005"><a xlink:href="UtilsFactory_8cpp.html" target="_top" xlink:title=" ">
<polygon fill="white" stroke="#666666" points="366.12,-26 239.12,-26 239.12,-6 366.12,-6 366.12,-26"/>
<text xml:space="preserve" text-anchor="middle" x="302.62" y="-12.5" font-family="Helvetica,sans-Serif" font-size="10.00">src/Utils/UtilsFactory.cpp</text>
</a>
</g>
</g>
<!-- Node4&#45;&gt;Node5 -->
<g id="edge5_Node000004_Node000005" class="edge">
<title>Node4&#45;&gt;Node5</title>
<g id="a_edge5_Node000004_Node000005"><a xlink:title=" ">
<path fill="none" stroke="#63b8ff" d="M302.62,-56.31C302.62,-45.67 302.62,-34.13 302.62,-26.32"/>
<polygon fill="#63b8ff" stroke="#63b8ff" points="299.13,-56.18 302.63,-66.18 306.13,-56.18 299.13,-56.18"/>
</a>
</g>
</g>
</g>
</svg>
