<?xml version="1.0" encoding="UTF-8" standalone="no"?>
<!DOCTYPE svg PUBLIC "-//W3C//DTD SVG 1.1//EN"
 "http://www.w3.org/Graphics/SVG/1.1/DTD/svg11.dtd">
<!-- Generated by graphviz version 13.1.2 (20250808.2320)
 -->
<!-- Title: application/tests/AssetManagerTest.cpp Pages: 1 -->
<!--zoomable 288 -->

<svg id="main" version="1.1" xmlns="http://www.w3.org/2000/svg" xmlns:xlink="http://www.w3.org/1999/xlink" xml:space="preserve" onload="init(evt)">

<style type="text/css"><![CDATA[
.node, .edge {opacity: 0.7;}
.node.selected, .edge.selected {opacity: 1;}
.edge:hover path { stroke: red; }
.edge:hover polygon { stroke: red; fill: red; }
]]></style>

<defs>
  <circle id="rim" cx="0" cy="0" r="7"/>
  <circle id="rim2" cx="0" cy="0" r="3.5"/>
  <g id="zoomPlus">
    <use xlink:href="#rim" fill="#404040"><set attributeName="fill" to="#808080" begin="zoomplus.mouseover" end="zoomplus.mouseout"/></use>
    <path d="M-4,0h8M0,-4v8" fill="none" stroke="white" stroke-width="1.5" pointer-events="none"/>
  </g>
  <g id="zoomMin">
    <use xlink:href="#rim" fill="#404040"><set attributeName="fill" to="#808080" begin="zoomminus.mouseover" end="zoomminus.mouseout"/></use>
    <path d="M-4,0h8" fill="none" stroke="white" stroke-width="1.5" pointer-events="none"/>
  </g>
  <g id="arrowUp" transform="translate(30 24)">
    <use xlink:href="#rim"/>
    <path pointer-events="none" fill="none" stroke="white" stroke-width="1.5" d="M0,-3.0v7 M-2.5,-0.5L0,-3.0L2.5,-0.5"/>
  </g>
  <g id="arrowRight" transform="rotate(90) translate(36 -43)">
    <use xlink:href="#rim"/>
    <path pointer-events="none" fill="none" stroke="white" stroke-width="1.5" d="M0,-3.0v7 M-2.5,-0.5L0,-3.0L2.5,-0.5"/>
  </g>
  <g id="arrowDown" transform="rotate(180) translate(-30 -48)">
    <use xlink:href="#rim"/>
    <path pointer-events="none" fill="none" stroke="white" stroke-width="1.5" d="M0,-3.0v7 M-2.5,-0.5L0,-3.0L2.5,-0.5"/>
  </g>
  <g id="arrowLeft" transform="rotate(270) translate(-36 17)">
    <use xlink:href="#rim"/>
    <path pointer-events="none" fill="none" stroke="white" stroke-width="1.5" d="M0,-3.0v7 M-2.5,-0.5L0,-3.0L2.5,-0.5"/>
  </g>
  <g id="resetDef">
    <use xlink:href="#rim2" fill="#404040"><set attributeName="fill" to="#808080" begin="reset.mouseover" end="reset.mouseout"/></use>
  </g>
</defs>
<script type="application/ecmascript">
var viewWidth = 516;
var viewHeight = 288;
var sectionId = 'dynsection-0';
</script>
<script type="application/ecmascript" xlink:href="svg.min.js"/>
<svg id="graph" class="graph">
<g id="viewport">
<title>application/tests/AssetManagerTest.cpp</title>
<!-- Node1 -->
<g id="Node000001" class="node">
<title>Node1</title>
<g id="a_Node000001"><a xlink:title=" ">
<polygon fill="#999999" stroke="#666666" points="314.64,-280 161.39,-280 161.39,-248 314.64,-248 314.64,-280"/>
<text xml:space="preserve" text-anchor="start" x="169.39" y="-266.5" font-family="Helvetica,sans-Serif" font-size="10.00">application/tests/AssetManager</text>
<text xml:space="preserve" text-anchor="middle" x="238.02" y="-254.5" font-family="Helvetica,sans-Serif" font-size="10.00">Test.cpp</text>
</a>
</g>
</g>
<!-- Node2 -->
<g id="Node000002" class="node">
<title>Node2</title>
<g id="a_Node000002"><a xlink:href="AssetManager_8hpp.html" target="_top" xlink:title=" ">
<polygon fill="white" stroke="#666666" points="298.27,-144 193.77,-144 193.77,-112 298.27,-112 298.27,-144"/>
<text xml:space="preserve" text-anchor="start" x="201.77" y="-130.5" font-family="Helvetica,sans-Serif" font-size="10.00">../../src/Utils/Assets</text>
<text xml:space="preserve" text-anchor="middle" x="246.02" y="-118.5" font-family="Helvetica,sans-Serif" font-size="10.00">/AssetManager.hpp</text>
</a>
</g>
</g>
<!-- Node1&#45;&gt;Node2 -->
<g id="edge1_Node000001_Node000002" class="edge">
<title>Node1&#45;&gt;Node2</title>
<g id="a_edge1_Node000001_Node000002"><a xlink:title=" ">
<path fill="none" stroke="#63b8ff" d="M227.39,-247.73C221.28,-237.99 214.2,-224.83 211.02,-212 207.59,-198.2 206.8,-193.58 211.02,-180 213.96,-170.52 219.34,-161.24 225.01,-153.25"/>
<polygon fill="#63b8ff" stroke="#63b8ff" points="227.71,-155.48 231.01,-145.41 222.15,-151.22 227.71,-155.48"/>
</a>
</g>
</g>
<!-- Node4 -->
<g id="Node000004" class="node">
<title>Node4</title>
<g id="a_Node000004"><a xlink:title=" ">
<polygon fill="#e0e0e0" stroke="#999999" points="119.52,-20 58.52,-20 58.52,0 119.52,0 119.52,-20"/>
<text xml:space="preserve" text-anchor="middle" x="89.02" y="-6.5" font-family="Helvetica,sans-Serif" font-size="10.00">filesystem</text>
</a>
</g>
</g>
<!-- Node1&#45;&gt;Node4 -->
<g id="edge15_Node000001_Node000004" class="edge">
<title>Node1&#45;&gt;Node4</title>
<g id="a_edge15_Node000001_Node000004"><a xlink:title=" ">
<path fill="none" stroke="#63b8ff" d="M166.3,-247.51C111.96,-231.58 41.03,-200.8 7.02,-144 -18.48,-101.43 34.34,-51.78 66.56,-26.91"/>
<polygon fill="#63b8ff" stroke="#63b8ff" points="68.28,-30 74.2,-21.21 64.09,-24.39 68.28,-30"/>
</a>
</g>
</g>
<!-- Node7 -->
<g id="Node000007" class="node">
<title>Node7</title>
<g id="a_Node000007"><a xlink:href="AssetManagerFactory_8hpp.html" target="_top" xlink:title=" ">
<polygon fill="white" stroke="#666666" points="352.52,-212 219.52,-212 219.52,-180 352.52,-180 352.52,-212"/>
<text xml:space="preserve" text-anchor="start" x="227.52" y="-198.5" font-family="Helvetica,sans-Serif" font-size="10.00">../../src/Utils/Assets</text>
<text xml:space="preserve" text-anchor="middle" x="286.02" y="-186.5" font-family="Helvetica,sans-Serif" font-size="10.00">/AssetManagerFactory.hpp</text>
</a>
</g>
</g>
<!-- Node1&#45;&gt;Node7 -->
<g id="edge6_Node000001_Node000007" class="edge">
<title>Node1&#45;&gt;Node7</title>
<g id="a_edge6_Node000001_Node000007"><a xlink:title=" ">
<path fill="none" stroke="#63b8ff" d="M249.15,-247.69C254.84,-239.86 261.91,-230.15 268.33,-221.32"/>
<polygon fill="#63b8ff" stroke="#63b8ff" points="271,-223.59 274.05,-213.45 265.34,-219.48 271,-223.59"/>
</a>
</g>
</g>
<!-- Node9 -->
<g id="Node000009" class="node">
<title>Node9</title>
<g id="a_Node000009"><a xlink:href="MockAssetManager_8hpp.html" target="_top" xlink:title=" ">
<polygon fill="white" stroke="#666666" points="137.89,-138 16.14,-138 16.14,-118 137.89,-118 137.89,-138"/>
<text xml:space="preserve" text-anchor="middle" x="77.02" y="-124.5" font-family="Helvetica,sans-Serif" font-size="10.00">MockAssetManager.hpp</text>
</a>
</g>
</g>
<!-- Node1&#45;&gt;Node9 -->
<g id="edge12_Node000001_Node000009" class="edge">
<title>Node1&#45;&gt;Node9</title>
<g id="a_edge12_Node000001_Node000009"><a xlink:title=" ">
<path fill="none" stroke="#63b8ff" d="M219.55,-247.63C189.01,-222.21 128.24,-171.64 96.84,-145.5"/>
<polygon fill="#63b8ff" stroke="#63b8ff" points="99.19,-142.9 89.26,-139.19 94.71,-148.28 99.19,-142.9"/>
</a>
</g>
</g>
<!-- Node10 -->
<g id="Node000010" class="node">
<title>Node10</title>
<g id="a_Node000010"><a xlink:title=" ">
<polygon fill="#e0e0e0" stroke="#999999" points="419.52,-206 370.52,-206 370.52,-186 419.52,-186 419.52,-206"/>
<text xml:space="preserve" text-anchor="middle" x="395.02" y="-192.5" font-family="Helvetica,sans-Serif" font-size="10.00">fstream</text>
</a>
</g>
</g>
<!-- Node1&#45;&gt;Node10 -->
<g id="edge16_Node000001_Node000010" class="edge">
<title>Node1&#45;&gt;Node10</title>
<g id="a_edge16_Node000001_Node000010"><a xlink:title=" ">
<path fill="none" stroke="#63b8ff" d="M276.71,-247.51C301.24,-237.58 333.6,-224.3 362.02,-212 362.77,-211.67 363.54,-211.34 364.31,-211"/>
<polygon fill="#63b8ff" stroke="#63b8ff" points="365.38,-214.36 373.09,-207.09 362.53,-207.96 365.38,-214.36"/>
</a>
</g>
</g>
<!-- Node11 -->
<g id="Node000011" class="node">
<title>Node11</title>
<g id="a_Node000011"><a xlink:title=" ">
<polygon fill="#e0e0e0" stroke="#999999" points="508.39,-206 437.64,-206 437.64,-186 508.39,-186 508.39,-206"/>
<text xml:space="preserve" text-anchor="middle" x="473.02" y="-192.5" font-family="Helvetica,sans-Serif" font-size="10.00">gtest/gtest.h</text>
</a>
</g>
</g>
<!-- Node1&#45;&gt;Node11 -->
<g id="edge17_Node000001_Node000011" class="edge">
<title>Node1&#45;&gt;Node11</title>
<g id="a_edge17_Node000001_Node000011"><a xlink:title=" ">
<path fill="none" stroke="#63b8ff" d="M300.25,-247.52C337.74,-237.91 386.32,-224.96 429.02,-212 431.1,-211.37 433.24,-210.7 435.39,-210.02"/>
<polygon fill="#63b8ff" stroke="#63b8ff" points="436.27,-213.41 444.68,-206.96 434.09,-206.76 436.27,-213.41"/>
</a>
</g>
</g>
<!-- Node3 -->
<g id="Node000003" class="node">
<title>Node3</title>
<g id="a_Node000003"><a xlink:href="IAssetManager_8hpp.html" target="_top" xlink:title=" ">
<polygon fill="white" stroke="#666666" points="221.89,-76 64.14,-76 64.14,-56 221.89,-56 221.89,-76"/>
<text xml:space="preserve" text-anchor="middle" x="143.02" y="-62.5" font-family="Helvetica,sans-Serif" font-size="10.00">Utils/Assets/IAssetManager.hpp</text>
</a>
</g>
</g>
<!-- Node2&#45;&gt;Node3 -->
<g id="edge2_Node000002_Node000003" class="edge">
<title>Node2&#45;&gt;Node3</title>
<g id="a_edge2_Node000002_Node000003"><a xlink:title=" ">
<path fill="none" stroke="#63b8ff" d="M219.49,-111.55C203.99,-102.52 184.52,-91.17 169.1,-82.19"/>
<polygon fill="#63b8ff" stroke="#63b8ff" points="170.88,-79.18 160.47,-77.17 167.35,-85.23 170.88,-79.18"/>
</a>
</g>
</g>
<!-- Node5 -->
<g id="Node000005" class="node">
<title>Node5</title>
<g id="a_Node000005"><a xlink:title=" ">
<polygon fill="#e0e0e0" stroke="#999999" points="351.64,-76 300.39,-76 300.39,-56 351.64,-56 351.64,-76"/>
<text xml:space="preserve" text-anchor="middle" x="326.02" y="-62.5" font-family="Helvetica,sans-Serif" font-size="10.00">memory</text>
</a>
</g>
</g>
<!-- Node2&#45;&gt;Node5 -->
<g id="edge4_Node000002_Node000005" class="edge">
<title>Node2&#45;&gt;Node5</title>
<g id="a_edge4_Node000002_Node000005"><a xlink:title=" ">
<path fill="none" stroke="#63b8ff" d="M266.62,-111.55C278.19,-102.87 292.63,-92.04 304.37,-83.24"/>
<polygon fill="#63b8ff" stroke="#63b8ff" points="306.36,-86.12 312.26,-77.32 302.16,-80.52 306.36,-86.12"/>
</a>
</g>
</g>
<!-- Node6 -->
<g id="Node000006" class="node">
<title>Node6</title>
<g id="a_Node000006"><a xlink:title=" ">
<polygon fill="#e0e0e0" stroke="#999999" points="282.52,-76 239.52,-76 239.52,-56 282.52,-56 282.52,-76"/>
<text xml:space="preserve" text-anchor="middle" x="261.02" y="-62.5" font-family="Helvetica,sans-Serif" font-size="10.00">mutex</text>
</a>
</g>
</g>
<!-- Node2&#45;&gt;Node6 -->
<g id="edge5_Node000002_Node000006" class="edge">
<title>Node2&#45;&gt;Node6</title>
<g id="a_edge5_Node000002_Node000006"><a xlink:title=" ">
<path fill="none" stroke="#63b8ff" d="M249.88,-111.55C251.72,-104.17 253.96,-95.24 255.94,-87.32"/>
<polygon fill="#63b8ff" stroke="#63b8ff" points="259.27,-88.43 258.3,-77.88 252.48,-86.73 259.27,-88.43"/>
</a>
</g>
</g>
<!-- Node3&#45;&gt;Node4 -->
<g id="edge3_Node000003_Node000004" class="edge">
<title>Node3&#45;&gt;Node4</title>
<g id="a_edge3_Node000003_Node000004"><a xlink:title=" ">
<path fill="none" stroke="#63b8ff" d="M133.61,-55.59C126.1,-48.08 115.37,-37.35 106.32,-28.3"/>
<polygon fill="#63b8ff" stroke="#63b8ff" points="108.93,-25.96 99.38,-21.37 103.98,-30.91 108.93,-25.96"/>
</a>
</g>
</g>
<!-- Node7&#45;&gt;Node2 -->
<g id="edge7_Node000007_Node000002" class="edge">
<title>Node7&#45;&gt;Node2</title>
<g id="a_edge7_Node000007_Node000002"><a xlink:title=" ">
<path fill="none" stroke="#63b8ff" d="M276.74,-179.69C272.09,-172.03 266.35,-162.56 261.1,-153.88"/>
<polygon fill="#63b8ff" stroke="#63b8ff" points="264.2,-152.26 256.03,-145.52 258.22,-155.89 264.2,-152.26"/>
</a>
</g>
</g>
<!-- Node7&#45;&gt;Node3 -->
<g id="edge8_Node000007_Node000003" class="edge">
<title>Node7&#45;&gt;Node3</title>
<g id="a_edge8_Node000007_Node000003"><a xlink:title=" ">
<path fill="none" stroke="#63b8ff" d="M241.86,-179.61C222.7,-171.3 201.03,-159.51 185.02,-144 168.4,-127.9 156.71,-103.79 149.96,-86.85"/>
<polygon fill="#63b8ff" stroke="#63b8ff" points="153.38,-86.01 146.6,-77.87 146.82,-88.46 153.38,-86.01"/>
</a>
</g>
</g>
<!-- Node7&#45;&gt;Node4 -->
<g id="edge9_Node000007_Node000004" class="edge">
<title>Node7&#45;&gt;Node4</title>
<g id="a_edge9_Node000007_Node000004"><a xlink:title=" ">
<path fill="none" stroke="#63b8ff" d="M352.95,-180.75C372.4,-173.17 391.48,-161.61 403.02,-144 426.76,-107.75 398.06,-78.49 361.02,-56 323.09,-32.98 197.48,-19.7 131.05,-14.13"/>
<polygon fill="#63b8ff" stroke="#63b8ff" points="131.51,-10.66 121.26,-13.33 130.94,-17.63 131.51,-10.66"/>
</a>
</g>
</g>
<!-- Node7&#45;&gt;Node5 -->
<g id="edge10_Node000007_Node000005" class="edge">
<title>Node7&#45;&gt;Node5</title>
<g id="a_edge10_Node000007_Node000005"><a xlink:title=" ">
<path fill="none" stroke="#63b8ff" d="M293.06,-179.6C297.46,-169.6 303.03,-156.19 307.02,-144 313.23,-125 318.51,-102.79 321.91,-87.11"/>
<polygon fill="#63b8ff" stroke="#63b8ff" points="325.28,-88.12 323.91,-77.61 318.43,-86.68 325.28,-88.12"/>
</a>
</g>
</g>
<!-- Node8 -->
<g id="Node000008" class="node">
<title>Node8</title>
<g id="a_Node000008"><a xlink:title=" ">
<polygon fill="#e0e0e0" stroke="#999999" points="394.02,-138 354.02,-138 354.02,-118 394.02,-118 394.02,-138"/>
<text xml:space="preserve" text-anchor="middle" x="374.02" y="-124.5" font-family="Helvetica,sans-Serif" font-size="10.00">string</text>
</a>
</g>
</g>
<!-- Node7&#45;&gt;Node8 -->
<g id="edge11_Node000007_Node000008" class="edge">
<title>Node7&#45;&gt;Node8</title>
<g id="a_edge11_Node000007_Node000008"><a xlink:title=" ">
<path fill="none" stroke="#63b8ff" d="M306.43,-179.69C320.29,-169.3 338.58,-155.57 352.64,-145.03"/>
<polygon fill="#63b8ff" stroke="#63b8ff" points="354.48,-148.02 360.38,-139.22 350.28,-142.42 354.48,-148.02"/>
</a>
</g>
</g>
<!-- Node9&#45;&gt;Node3 -->
<g id="edge13_Node000009_Node000003" class="edge">
<title>Node9&#45;&gt;Node3</title>
<g id="a_edge13_Node000009_Node000003"><a xlink:title=" ">
<path fill="none" stroke="#63b8ff" d="M87.33,-117.62C97.27,-108.59 112.53,-94.72 124.56,-83.78"/>
<polygon fill="#63b8ff" stroke="#63b8ff" points="126.83,-86.45 131.87,-77.13 122.12,-81.27 126.83,-86.45"/>
</a>
</g>
</g>
<!-- Node9&#45;&gt;Node4 -->
<g id="edge14_Node000009_Node000004" class="edge">
<title>Node9&#45;&gt;Node4</title>
<g id="a_edge14_Node000009_Node000004"><a xlink:title=" ">
<path fill="none" stroke="#63b8ff" d="M70.4,-117.77C61.51,-104.18 47.63,-78.02 55.02,-56 58.38,-45.97 64.96,-36.39 71.45,-28.66"/>
<polygon fill="#63b8ff" stroke="#63b8ff" points="73.93,-31.13 78.07,-21.38 68.75,-26.43 73.93,-31.13"/>
</a>
</g>
</g>
</g>
</svg>

<g id="navigator" transform="translate(0 0)" fill="#404254">
  <rect fill="#f2f5e9" fill-opacity="0.5" stroke="#606060" stroke-width=".5" x="0" y="0" width="60" height="60"/>
  <use id="zoomplus" xlink:href="#zoomPlus" x="17" y="9" onmousedown="handleZoom(evt,'in')"/>
  <use id="zoomminus" xlink:href="#zoomMin" x="42" y="9" onmousedown="handleZoom(evt,'out')"/>
  <use id="reset" xlink:href="#resetDef" x="30" y="36" onmousedown="handleReset()"/>
   <use id="arrowup" xlink:href="#arrowUp" x="0" y="0" onmousedown="handlePan(0,-1)"/>
  <use id="arrowright" xlink:href="#arrowRight" x="0" y="0" onmousedown="handlePan(1,0)"/>
  <use id="arrowdown" xlink:href="#arrowDown" x="0" y="0" onmousedown="handlePan(0,1)"/>
  <use id="arrowleft" xlink:href="#arrowLeft" x="0" y="0" onmousedown="handlePan(-1,0)"/>
</g>
<svg viewBox="0 0 15 15" width="100%" height="30px" preserveAspectRatio="xMaxYMin meet">
 <g id="arrow_out" transform="scale(0.3 0.3)">
  <a xlink:href="AssetManagerTest_8cpp__incl_org.svg" target="_base">
   <rect id="button" ry="5" rx="5" y="6" x="6" height="38" width="38"
        fill="#f2f5e9" fill-opacity="0.5" stroke="#606060" stroke-width="1.0"/>
   <path id="arrow"
     d="M 11.500037,31.436501 C 11.940474,20.09759 22.043105,11.32322 32.158766,21.979434 L 37.068811,17.246167 C 37.068811,17.246167 37.088388,32 37.088388,32 L 22.160133,31.978069 C 22.160133,31.978069 26.997745,27.140456 26.997745,27.140456 C 18.528582,18.264221 13.291696,25.230495 11.500037,31.436501 z"
     style="fill:#404040;"/>
  </a>
 </g>
</svg>

<style type='text/css'>
<![CDATA[
[data-mouse-over-selected='false'] { opacity: 0.7; }
[data-mouse-over-selected='true']  { opacity: 1.0; }
]]>
</style>
<script type="application/ecmascript"><![CDATA[
document.addEventListener('DOMContentLoaded', (event) => {
  highlightEdges();
  highlightAdjacentNodes();
});
]]></script>
</svg>
