<?xml version="1.0" encoding="UTF-8" standalone="no"?>
<!DOCTYPE svg PUBLIC "-//W3C//DTD SVG 1.1//EN"
 "http://www.w3.org/Graphics/SVG/1.1/DTD/svg11.dtd">
<!-- Generated by graphviz version 13.1.2 (20250808.2320)
 -->
<!-- Title: src/Utils/Assets/AssetManager.cpp Pages: 1 -->
<svg width="340pt" height="196pt"
 viewBox="0.00 0.00 340.00 196.00" xmlns="http://www.w3.org/2000/svg" xmlns:xlink="http://www.w3.org/1999/xlink">
<g id="graph0" class="graph" transform="scale(1 1) rotate(0) translate(4 192)">
<title>src/Utils/Assets/AssetManager.cpp</title>
<!-- Node1 -->
<g id="Node000001" class="node">
<title>Node1</title>
<g id="a_Node000001"><a xlink:title=" ">
<polygon fill="#999999" stroke="#666666" points="331.5,-188 160.25,-188 160.25,-168 331.5,-168 331.5,-188"/>
<text xml:space="preserve" text-anchor="middle" x="245.88" y="-174.5" font-family="Helvetica,sans-Serif" font-size="10.00">src/Utils/Assets/AssetManager.cpp</text>
</a>
</g>
</g>
<!-- Node2 -->
<g id="Node000002" class="node">
<title>Node2</title>
<g id="a_Node000002"><a xlink:href="AssetManager_8hpp.html" target="_top" xlink:title=" ">
<polygon fill="white" stroke="#666666" points="250.75,-132 153,-132 153,-112 250.75,-112 250.75,-132"/>
<text xml:space="preserve" text-anchor="middle" x="201.88" y="-118.5" font-family="Helvetica,sans-Serif" font-size="10.00">AssetManager.hpp</text>
</a>
</g>
</g>
<!-- Node1&#45;&gt;Node2 -->
<g id="edge1_Node000001_Node000002" class="edge">
<title>Node1&#45;&gt;Node2</title>
<g id="a_edge1_Node000001_Node000002"><a xlink:title=" ">
<path fill="none" stroke="#63b8ff" d="M238.21,-167.59C232.28,-160.32 223.89,-150.02 216.66,-141.15"/>
<polygon fill="#63b8ff" stroke="#63b8ff" points="219.44,-139.01 210.41,-133.47 214.01,-143.43 219.44,-139.01"/>
</a>
</g>
</g>
<!-- Node7 -->
<g id="Node000007" class="node">
<title>Node7</title>
<g id="a_Node000007"><a xlink:title=" ">
<polygon fill="#e0e0e0" stroke="#999999" points="311.38,-132 268.38,-132 268.38,-112 311.38,-112 311.38,-132"/>
<text xml:space="preserve" text-anchor="middle" x="289.88" y="-118.5" font-family="Helvetica,sans-Serif" font-size="10.00">vector</text>
</a>
</g>
</g>
<!-- Node1&#45;&gt;Node7 -->
<g id="edge6_Node000001_Node000007" class="edge">
<title>Node1&#45;&gt;Node7</title>
<g id="a_edge6_Node000001_Node000007"><a xlink:title=" ">
<path fill="none" stroke="#63b8ff" d="M253.54,-167.59C259.47,-160.32 267.86,-150.02 275.09,-141.15"/>
<polygon fill="#63b8ff" stroke="#63b8ff" points="277.74,-143.43 281.34,-133.47 272.31,-139.01 277.74,-143.43"/>
</a>
</g>
</g>
<!-- Node3 -->
<g id="Node000003" class="node">
<title>Node3</title>
<g id="a_Node000003"><a xlink:href="IAssetManager_8hpp.html" target="_top" xlink:title=" ">
<polygon fill="white" stroke="#666666" points="157.75,-76 0,-76 0,-56 157.75,-56 157.75,-76"/>
<text xml:space="preserve" text-anchor="middle" x="78.88" y="-62.5" font-family="Helvetica,sans-Serif" font-size="10.00">Utils/Assets/IAssetManager.hpp</text>
</a>
</g>
</g>
<!-- Node2&#45;&gt;Node3 -->
<g id="edge2_Node000002_Node000003" class="edge">
<title>Node2&#45;&gt;Node3</title>
<g id="a_edge2_Node000002_Node000003"><a xlink:title=" ">
<path fill="none" stroke="#63b8ff" d="M180.45,-111.59C161.25,-103.17 132.83,-90.69 110.93,-81.07"/>
<polygon fill="#63b8ff" stroke="#63b8ff" points="112.42,-77.9 101.85,-77.09 109.6,-84.31 112.42,-77.9"/>
</a>
</g>
</g>
<!-- Node5 -->
<g id="Node000005" class="node">
<title>Node5</title>
<g id="a_Node000005"><a xlink:title=" ">
<polygon fill="#e0e0e0" stroke="#999999" points="227.5,-76 176.25,-76 176.25,-56 227.5,-56 227.5,-76"/>
<text xml:space="preserve" text-anchor="middle" x="201.88" y="-62.5" font-family="Helvetica,sans-Serif" font-size="10.00">memory</text>
</a>
</g>
</g>
<!-- Node2&#45;&gt;Node5 -->
<g id="edge4_Node000002_Node000005" class="edge">
<title>Node2&#45;&gt;Node5</title>
<g id="a_edge4_Node000002_Node000005"><a xlink:title=" ">
<path fill="none" stroke="#63b8ff" d="M201.88,-111.59C201.88,-105.01 201.88,-95.96 201.88,-87.73"/>
<polygon fill="#63b8ff" stroke="#63b8ff" points="205.38,-87.81 201.88,-77.81 198.38,-87.81 205.38,-87.81"/>
</a>
</g>
</g>
<!-- Node6 -->
<g id="Node000006" class="node">
<title>Node6</title>
<g id="a_Node000006"><a xlink:title=" ">
<polygon fill="#e0e0e0" stroke="#999999" points="288.38,-76 245.38,-76 245.38,-56 288.38,-56 288.38,-76"/>
<text xml:space="preserve" text-anchor="middle" x="266.88" y="-62.5" font-family="Helvetica,sans-Serif" font-size="10.00">mutex</text>
</a>
</g>
</g>
<!-- Node2&#45;&gt;Node6 -->
<g id="edge5_Node000002_Node000006" class="edge">
<title>Node2&#45;&gt;Node6</title>
<g id="a_edge5_Node000002_Node000006"><a xlink:title=" ">
<path fill="none" stroke="#63b8ff" d="M213.2,-111.59C222.52,-103.85 235.95,-92.69 247.05,-83.47"/>
<polygon fill="#63b8ff" stroke="#63b8ff" points="249.06,-86.35 254.52,-77.27 244.59,-80.96 249.06,-86.35"/>
</a>
</g>
</g>
<!-- Node4 -->
<g id="Node000004" class="node">
<title>Node4</title>
<g id="a_Node000004"><a xlink:title=" ">
<polygon fill="#e0e0e0" stroke="#999999" points="109.38,-20 48.38,-20 48.38,0 109.38,0 109.38,-20"/>
<text xml:space="preserve" text-anchor="middle" x="78.88" y="-6.5" font-family="Helvetica,sans-Serif" font-size="10.00">filesystem</text>
</a>
</g>
</g>
<!-- Node3&#45;&gt;Node4 -->
<g id="edge3_Node000003_Node000004" class="edge">
<title>Node3&#45;&gt;Node4</title>
<g id="a_edge3_Node000003_Node000004"><a xlink:title=" ">
<path fill="none" stroke="#63b8ff" d="M78.88,-55.59C78.88,-49.01 78.88,-39.96 78.88,-31.73"/>
<polygon fill="#63b8ff" stroke="#63b8ff" points="82.38,-31.81 78.88,-21.81 75.38,-31.81 82.38,-31.81"/>
</a>
</g>
</g>
</g>
</svg>
