<?xml version="1.0" encoding="UTF-8" standalone="no"?>
<!DOCTYPE svg PUBLIC "-//W3C//DTD SVG 1.1//EN"
 "http://www.w3.org/Graphics/SVG/1.1/DTD/svg11.dtd">
<!-- Generated by graphviz version 13.1.2 (20250808.2320)
 -->
<!-- Title: TEST_F Pages: 1 -->
<svg width="369pt" height="52pt"
 viewBox="0.00 0.00 369.00 52.00" xmlns="http://www.w3.org/2000/svg" xmlns:xlink="http://www.w3.org/1999/xlink">
<g id="graph0" class="graph" transform="scale(1 1) rotate(0) translate(4 48)">
<title>TEST_F</title>
<!-- Node1 -->
<g id="Node000001" class="node">
<title>Node1</title>
<g id="a_Node000001"><a xlink:title=" ">
<polygon fill="#999999" stroke="#666666" points="52.75,-32 0,-32 0,-12 52.75,-12 52.75,-32"/>
<text xml:space="preserve" text-anchor="middle" x="26.38" y="-18.5" font-family="Helvetica,sans-Serif" font-size="10.00">TEST_F</text>
</a>
</g>
</g>
<!-- Node2 -->
<g id="Node000002" class="node">
<title>Node2</title>
<g id="a_Node000002"><a xlink:href="classdotnamecpp_1_1assets_1_1AssetManagerFactory.html#ac8586007318eb5a7692241afdaed9ba9" target="_top" xlink:title="Create a Default object.">
<polygon fill="white" stroke="#666666" points="206.75,-44 88.75,-44 88.75,0 206.75,0 206.75,-44"/>
<text xml:space="preserve" text-anchor="start" x="96.75" y="-30.5" font-family="Helvetica,sans-Serif" font-size="10.00">dotnamecpp::assets</text>
<text xml:space="preserve" text-anchor="start" x="96.75" y="-18.5" font-family="Helvetica,sans-Serif" font-size="10.00">::AssetManagerFactory</text>
<text xml:space="preserve" text-anchor="middle" x="147.75" y="-6.5" font-family="Helvetica,sans-Serif" font-size="10.00">::createDefault</text>
</a>
</g>
</g>
<!-- Node1&#45;&gt;Node2 -->
<g id="edge1_Node000001_Node000002" class="edge">
<title>Node1&#45;&gt;Node2</title>
<g id="a_edge1_Node000001_Node000002"><a xlink:title=" ">
<path fill="none" stroke="#63b8ff" d="M52.98,-22C60.22,-22 68.47,-22 77,-22"/>
<polygon fill="#63b8ff" stroke="#63b8ff" points="76.8,-25.5 86.8,-22 76.8,-18.5 76.8,-25.5"/>
</a>
</g>
</g>
<!-- Node3 -->
<g id="Node000003" class="node">
<title>Node3</title>
<g id="a_Node000003"><a xlink:href="classdotnamecpp_1_1assets_1_1AssetManager.html#af6846c31c10bcf4a5e937f1627aa0f48" target="_top" xlink:title="Create a new Asset Manager instance.">
<polygon fill="white" stroke="#666666" points="360.75,-38 242.75,-38 242.75,-6 360.75,-6 360.75,-38"/>
<text xml:space="preserve" text-anchor="start" x="250.75" y="-24.5" font-family="Helvetica,sans-Serif" font-size="10.00">dotnamecpp::assets</text>
<text xml:space="preserve" text-anchor="middle" x="301.75" y="-12.5" font-family="Helvetica,sans-Serif" font-size="10.00">::AssetManager::create</text>
</a>
</g>
</g>
<!-- Node2&#45;&gt;Node3 -->
<g id="edge2_Node000002_Node000003" class="edge">
<title>Node2&#45;&gt;Node3</title>
<g id="a_edge2_Node000002_Node000003"><a xlink:title=" ">
<path fill="none" stroke="#63b8ff" d="M207.08,-22C214.94,-22 223.05,-22 231.08,-22"/>
<polygon fill="#63b8ff" stroke="#63b8ff" points="230.81,-25.5 240.81,-22 230.81,-18.5 230.81,-25.5"/>
</a>
</g>
</g>
</g>
</svg>
