<?xml version="1.0" encoding="UTF-8" standalone="no"?>
<!DOCTYPE svg PUBLIC "-//W3C//DTD SVG 1.1//EN"
 "http://www.w3.org/Graphics/SVG/1.1/DTD/svg11.dtd">
<!-- Generated by graphviz version 13.1.2 (20250808.2320)
 -->
<!-- Title: src/Utils/Assets/AssetManagerFactory.hpp Pages: 1 -->
<svg width="400pt" height="208pt"
 viewBox="0.00 0.00 400.00 208.00" xmlns="http://www.w3.org/2000/svg" xmlns:xlink="http://www.w3.org/1999/xlink">

<svg id="main" version="1.1" xmlns="http://www.w3.org/2000/svg" xmlns:xlink="http://www.w3.org/1999/xlink" xml:space="preserve">

<style type="text/css"><![CDATA[
.node, .edge {opacity: 0.7;}
.node.selected, .edge.selected {opacity: 1;}
.edge:hover path { stroke: red; }
.edge:hover polygon { stroke: red; fill: red; }
]]></style>
<script type="application/ecmascript" xlink:href="svg.min.js"/>
<svg id="graph" class="graph">
<g id="graph0" class="graph" transform="scale(1 1) rotate(0) translate(4 204)">
<title>src/Utils/Assets/AssetManagerFactory.hpp</title>
<!-- Node1 -->
<g id="Node000001" class="node">
<title>Node1</title>
<g id="a_Node000001"><a xlink:title=" ">
<polygon fill="#999999" stroke="#666666" points="362.12,-200 209.62,-200 209.62,-168 362.12,-168 362.12,-200"/>
<text xml:space="preserve" text-anchor="start" x="217.62" y="-186.5" font-family="Helvetica,sans-Serif" font-size="10.00">src/Utils/Assets/AssetManager</text>
<text xml:space="preserve" text-anchor="middle" x="285.88" y="-174.5" font-family="Helvetica,sans-Serif" font-size="10.00">Factory.hpp</text>
</a>
</g>
</g>
<!-- Node2 -->
<g id="Node000002" class="node">
<title>Node2</title>
<g id="a_Node000002"><a xlink:href="AssetManager_8hpp.html" target="_top" xlink:title=" ">
<polygon fill="white" stroke="#666666" points="258.25,-132 103.5,-132 103.5,-112 258.25,-112 258.25,-132"/>
<text xml:space="preserve" text-anchor="middle" x="180.88" y="-118.5" font-family="Helvetica,sans-Serif" font-size="10.00">Utils/Assets/AssetManager.hpp</text>
</a>
</g>
</g>
<!-- Node1&#45;&gt;Node2 -->
<g id="edge1_Node000001_Node000002" class="edge">
<title>Node1&#45;&gt;Node2</title>
<g id="a_edge1_Node000001_Node000002"><a xlink:title=" ">
<path fill="none" stroke="#63b8ff" d="M258.83,-167.55C242.88,-158.43 222.8,-146.96 207.01,-137.93"/>
<polygon fill="#63b8ff" stroke="#63b8ff" points="209.07,-135.08 198.65,-133.16 205.6,-141.16 209.07,-135.08"/>
</a>
</g>
</g>
<!-- Node3 -->
<g id="Node000003" class="node">
<title>Node3</title>
<g id="a_Node000003"><a xlink:href="IAssetManager_8hpp.html" target="_top" xlink:title=" ">
<polygon fill="white" stroke="#666666" points="157.75,-76 0,-76 0,-56 157.75,-56 157.75,-76"/>
<text xml:space="preserve" text-anchor="middle" x="78.88" y="-62.5" font-family="Helvetica,sans-Serif" font-size="10.00">Utils/Assets/IAssetManager.hpp</text>
</a>
</g>
</g>
<!-- Node1&#45;&gt;Node3 -->
<g id="edge6_Node000001_Node000003" class="edge">
<title>Node1&#45;&gt;Node3</title>
<g id="a_edge6_Node000001_Node000003"><a xlink:title=" ">
<path fill="none" stroke="#63b8ff" d="M209.19,-180.48C170.05,-175.2 124.55,-162.26 94.88,-132 83.42,-120.32 79.73,-101.83 78.72,-87.55"/>
<polygon fill="#63b8ff" stroke="#63b8ff" points="82.23,-87.78 78.44,-77.88 75.23,-87.98 82.23,-87.78"/>
</a>
</g>
</g>
<!-- Node4 -->
<g id="Node000004" class="node">
<title>Node4</title>
<g id="a_Node000004"><a xlink:title=" ">
<polygon fill="#e0e0e0" stroke="#999999" points="227.38,-20 166.38,-20 166.38,0 227.38,0 227.38,-20"/>
<text xml:space="preserve" text-anchor="middle" x="196.88" y="-6.5" font-family="Helvetica,sans-Serif" font-size="10.00">filesystem</text>
</a>
</g>
</g>
<!-- Node1&#45;&gt;Node4 -->
<g id="edge7_Node000001_Node000004" class="edge">
<title>Node1&#45;&gt;Node4</title>
<g id="a_edge7_Node000001_Node000004"><a xlink:title=" ">
<path fill="none" stroke="#63b8ff" d="M293.72,-167.86C305.67,-142.47 324.75,-90.69 301.88,-56 287.87,-34.75 261.52,-23.5 238.72,-17.56"/>
<polygon fill="#63b8ff" stroke="#63b8ff" points="239.56,-14.16 229.02,-15.32 237.98,-20.98 239.56,-14.16"/>
</a>
</g>
</g>
<!-- Node5 -->
<g id="Node000005" class="node">
<title>Node5</title>
<g id="a_Node000005"><a xlink:title=" ">
<polygon fill="#e0e0e0" stroke="#999999" points="292.5,-76 241.25,-76 241.25,-56 292.5,-56 292.5,-76"/>
<text xml:space="preserve" text-anchor="middle" x="266.88" y="-62.5" font-family="Helvetica,sans-Serif" font-size="10.00">memory</text>
</a>
</g>
</g>
<!-- Node1&#45;&gt;Node5 -->
<g id="edge8_Node000001_Node000005" class="edge">
<title>Node1&#45;&gt;Node5</title>
<g id="a_edge8_Node000001_Node000005"><a xlink:title=" ">
<path fill="none" stroke="#63b8ff" d="M283.39,-167.84C280.03,-147.32 274.02,-110.63 270.25,-87.62"/>
<polygon fill="#63b8ff" stroke="#63b8ff" points="273.74,-87.23 268.67,-77.93 266.83,-88.37 273.74,-87.23"/>
</a>
</g>
</g>
<!-- Node7 -->
<g id="Node000007" class="node">
<title>Node7</title>
<g id="a_Node000007"><a xlink:title=" ">
<polygon fill="#e0e0e0" stroke="#999999" points="391.88,-132 351.88,-132 351.88,-112 391.88,-112 391.88,-132"/>
<text xml:space="preserve" text-anchor="middle" x="371.88" y="-118.5" font-family="Helvetica,sans-Serif" font-size="10.00">string</text>
</a>
</g>
</g>
<!-- Node1&#45;&gt;Node7 -->
<g id="edge9_Node000001_Node000007" class="edge">
<title>Node1&#45;&gt;Node7</title>
<g id="a_edge9_Node000001_Node000007"><a xlink:title=" ">
<path fill="none" stroke="#63b8ff" d="M308.02,-167.55C320.59,-158.78 336.29,-147.83 348.98,-138.97"/>
<polygon fill="#63b8ff" stroke="#63b8ff" points="350.95,-141.87 357.15,-133.27 346.94,-136.13 350.95,-141.87"/>
</a>
</g>
</g>
<!-- Node2&#45;&gt;Node3 -->
<g id="edge2_Node000002_Node000003" class="edge">
<title>Node2&#45;&gt;Node3</title>
<g id="a_edge2_Node000002_Node000003"><a xlink:title=" ">
<path fill="none" stroke="#63b8ff" d="M163.11,-111.59C147.55,-103.36 124.69,-91.26 106.71,-81.74"/>
<polygon fill="#63b8ff" stroke="#63b8ff" points="108.59,-78.77 98.12,-77.19 105.32,-84.96 108.59,-78.77"/>
</a>
</g>
</g>
<!-- Node2&#45;&gt;Node5 -->
<g id="edge4_Node000002_Node000005" class="edge">
<title>Node2&#45;&gt;Node5</title>
<g id="a_edge4_Node000002_Node000005"><a xlink:title=" ">
<path fill="none" stroke="#63b8ff" d="M195.86,-111.59C208.6,-103.59 227.17,-91.93 242.12,-82.54"/>
<polygon fill="#63b8ff" stroke="#63b8ff" points="243.89,-85.57 250.5,-77.28 240.17,-79.64 243.89,-85.57"/>
</a>
</g>
</g>
<!-- Node6 -->
<g id="Node000006" class="node">
<title>Node6</title>
<g id="a_Node000006"><a xlink:title=" ">
<polygon fill="#e0e0e0" stroke="#999999" points="218.38,-76 175.38,-76 175.38,-56 218.38,-56 218.38,-76"/>
<text xml:space="preserve" text-anchor="middle" x="196.88" y="-62.5" font-family="Helvetica,sans-Serif" font-size="10.00">mutex</text>
</a>
</g>
</g>
<!-- Node2&#45;&gt;Node6 -->
<g id="edge5_Node000002_Node000006" class="edge">
<title>Node2&#45;&gt;Node6</title>
<g id="a_edge5_Node000002_Node000006"><a xlink:title=" ">
<path fill="none" stroke="#63b8ff" d="M183.66,-111.59C185.66,-104.86 188.42,-95.53 190.9,-87.15"/>
<polygon fill="#63b8ff" stroke="#63b8ff" points="194.2,-88.33 193.69,-77.75 187.49,-86.34 194.2,-88.33"/>
</a>
</g>
</g>
<!-- Node3&#45;&gt;Node4 -->
<g id="edge3_Node000003_Node000004" class="edge">
<title>Node3&#45;&gt;Node4</title>
<g id="a_edge3_Node000003_Node000004"><a xlink:title=" ">
<path fill="none" stroke="#63b8ff" d="M99.43,-55.59C117.76,-47.21 144.86,-34.8 165.83,-25.21"/>
<polygon fill="#63b8ff" stroke="#63b8ff" points="167.15,-28.45 174.78,-21.11 164.23,-22.09 167.15,-28.45"/>
</a>
</g>
</g>
</g>
</svg>
</svg>

<style type='text/css'>
<![CDATA[
[data-mouse-over-selected='false'] { opacity: 0.7; }
[data-mouse-over-selected='true']  { opacity: 1.0; }
]]>
</style>
<script type="application/ecmascript"><![CDATA[
document.addEventListener('DOMContentLoaded', (event) => {
  highlightEdges();
  highlightAdjacentNodes();
});
]]></script>
</svg>
