<?xml version="1.0" encoding="UTF-8" standalone="no"?>
<!DOCTYPE svg PUBLIC "-//W3C//DTD SVG 1.1//EN"
 "http://www.w3.org/Graphics/SVG/1.1/DTD/svg11.dtd">
<!-- Generated by graphviz version 13.1.2 (20250808.2320)
 -->
<!-- Title: TEST Pages: 1 -->
<svg width="259pt" height="104pt"
 viewBox="0.00 0.00 259.00 104.00" xmlns="http://www.w3.org/2000/svg" xmlns:xlink="http://www.w3.org/1999/xlink">

<svg id="main" version="1.1" xmlns="http://www.w3.org/2000/svg" xmlns:xlink="http://www.w3.org/1999/xlink" xml:space="preserve">

<style type="text/css"><![CDATA[
.node, .edge {opacity: 0.7;}
.node.selected, .edge.selected {opacity: 1;}
.edge:hover path { stroke: red; }
.edge:hover polygon { stroke: red; fill: red; }
]]></style>
<script type="application/ecmascript" xlink:href="svg.min.js"/>
<svg id="graph" class="graph">
<g id="graph0" class="graph" transform="scale(1 1) rotate(0) translate(4 100)">
<title>TEST</title>
<!-- Node1 -->
<g id="Node000001" class="node">
<title>Node1</title>
<g id="a_Node000001"><a xlink:title=" ">
<polygon fill="#999999" stroke="#666666" points="41.5,-58 0,-58 0,-38 41.5,-38 41.5,-58"/>
<text xml:space="preserve" text-anchor="middle" x="20.75" y="-44.5" font-family="Helvetica,sans-Serif" font-size="10.00">TEST</text>
</a>
</g>
</g>
<!-- Node2 -->
<g id="Node000002" class="node">
<title>Node2</title>
<g id="a_Node000002"><a xlink:href="classMockAssetManager.html#af7bd4703685f7e58e055bed20dab6931" target="_top" xlink:title="Check if an asset exists given its relative path.">
<polygon fill="white" stroke="#666666" points="244.62,-96 83.88,-96 83.88,-76 244.62,-76 244.62,-96"/>
<text xml:space="preserve" text-anchor="middle" x="164.25" y="-82.5" font-family="Helvetica,sans-Serif" font-size="10.00">MockAssetManager::assetExists</text>
</a>
</g>
</g>
<!-- Node1&#45;&gt;Node2 -->
<g id="edge1_Node000001_Node000002" class="edge">
<title>Node1&#45;&gt;Node2</title>
<g id="a_edge1_Node000001_Node000002"><a xlink:title=" ">
<path fill="none" stroke="#63b8ff" d="M41.97,-55.49C52.48,-59.23 65.59,-63.66 77.5,-67 84.98,-69.1 92.89,-71.11 100.75,-73"/>
<polygon fill="#63b8ff" stroke="#63b8ff" points="99.77,-76.36 110.31,-75.22 101.36,-69.55 99.77,-76.36"/>
</a>
</g>
</g>
<!-- Node3 -->
<g id="Node000003" class="node">
<title>Node3</title>
<g id="a_Node000003"><a xlink:href="classMockAssetManager.html#a57ab69fcbe5dc9353276ecc1ce7b37e8" target="_top" xlink:title="Get the Assets Path object.">
<polygon fill="white" stroke="#666666" points="251,-58 77.5,-58 77.5,-38 251,-38 251,-58"/>
<text xml:space="preserve" text-anchor="middle" x="164.25" y="-44.5" font-family="Helvetica,sans-Serif" font-size="10.00">MockAssetManager::getAssetsPath</text>
</a>
</g>
</g>
<!-- Node1&#45;&gt;Node3 -->
<g id="edge2_Node000001_Node000003" class="edge">
<title>Node1&#45;&gt;Node3</title>
<g id="a_edge2_Node000001_Node000003"><a xlink:title=" ">
<path fill="none" stroke="#63b8ff" d="M41.72,-48C48.66,-48 56.96,-48 65.94,-48"/>
<polygon fill="#63b8ff" stroke="#63b8ff" points="65.65,-51.5 75.65,-48 65.65,-44.5 65.65,-51.5"/>
</a>
</g>
</g>
<!-- Node4 -->
<g id="Node000004" class="node">
<title>Node4</title>
<g id="a_Node000004"><a xlink:href="classMockAssetManager.html#a8f82bea196f675915de9ff257300d6a8" target="_top" xlink:title="Validate the asset manager configuration.">
<polygon fill="white" stroke="#666666" points="235.62,-20 92.88,-20 92.88,0 235.62,0 235.62,-20"/>
<text xml:space="preserve" text-anchor="middle" x="164.25" y="-6.5" font-family="Helvetica,sans-Serif" font-size="10.00">MockAssetManager::validate</text>
</a>
</g>
</g>
<!-- Node1&#45;&gt;Node4 -->
<g id="edge3_Node000001_Node000004" class="edge">
<title>Node1&#45;&gt;Node4</title>
<g id="a_edge3_Node000001_Node000004"><a xlink:title=" ">
<path fill="none" stroke="#63b8ff" d="M41.97,-40.51C52.48,-36.77 65.59,-32.34 77.5,-29 84.98,-26.9 92.89,-24.89 100.75,-23"/>
<polygon fill="#63b8ff" stroke="#63b8ff" points="101.36,-26.45 110.31,-20.78 99.77,-19.64 101.36,-26.45"/>
</a>
</g>
</g>
</g>
</svg>
</svg>

<style type='text/css'>
<![CDATA[
[data-mouse-over-selected='false'] { opacity: 0.7; }
[data-mouse-over-selected='true']  { opacity: 1.0; }
]]>
</style>
<script type="application/ecmascript"><![CDATA[
document.addEventListener('DOMContentLoaded', (event) => {
  highlightEdges();
  highlightAdjacentNodes();
});
]]></script>
</svg>
