<?xml version="1.0" encoding="UTF-8" standalone="no"?>
<!DOCTYPE svg PUBLIC "-//W3C//DTD SVG 1.1//EN"
 "http://www.w3.org/Graphics/SVG/1.1/DTD/svg11.dtd">
<!-- Generated by graphviz version 13.1.2 (20250808.2320)
 -->
<!-- Title: TEST Pages: 1 -->
<svg width="246pt" height="78pt"
 viewBox="0.00 0.00 246.00 78.00" xmlns="http://www.w3.org/2000/svg" xmlns:xlink="http://www.w3.org/1999/xlink">
<g id="graph0" class="graph" transform="scale(1 1) rotate(0) translate(4 74)">
<title>TEST</title>
<!-- Node1 -->
<g id="Node000001" class="node">
<title>Node1</title>
<g id="a_Node000001"><a xlink:title=" ">
<polygon fill="#999999" stroke="#666666" points="41.5,-48 0,-48 0,-28 41.5,-28 41.5,-48"/>
<text xml:space="preserve" text-anchor="middle" x="20.75" y="-34.5" font-family="Helvetica,sans-Serif" font-size="10.00">TEST</text>
</a>
</g>
</g>
<!-- Node2 -->
<g id="Node000002" class="node">
<title>Node2</title>
<g id="a_Node000002"><a xlink:href="classMockAssetManager.html#af7bd4703685f7e58e055bed20dab6931" target="_top" xlink:title="Check if an asset exists given its relative path.">
<polygon fill="white" stroke="#666666" points="238.25,-70 77.5,-70 77.5,-50 238.25,-50 238.25,-70"/>
<text xml:space="preserve" text-anchor="middle" x="157.88" y="-56.5" font-family="Helvetica,sans-Serif" font-size="10.00">MockAssetManager::assetExists</text>
</a>
</g>
</g>
<!-- Node1&#45;&gt;Node2 -->
<g id="edge1_Node000001_Node000002" class="edge">
<title>Node1&#45;&gt;Node2</title>
<g id="a_edge1_Node000001_Node000002"><a xlink:title=" ">
<path fill="none" stroke="#63b8ff" d="M41.98,-41.29C52.77,-43.05 66.81,-45.34 81.34,-47.7"/>
<polygon fill="#63b8ff" stroke="#63b8ff" points="80.58,-51.12 91.02,-49.28 81.71,-44.22 80.58,-51.12"/>
</a>
</g>
</g>
<!-- Node3 -->
<g id="Node000003" class="node">
<title>Node3</title>
<g id="a_Node000003"><a xlink:href="classMockAssetManager.html#aabd03768f97ee703033211a2deb86c65" target="_top" xlink:title=" ">
<polygon fill="white" stroke="#666666" points="231.12,-32 84.62,-32 84.62,0 231.12,0 231.12,-32"/>
<text xml:space="preserve" text-anchor="start" x="92.62" y="-18.5" font-family="Helvetica,sans-Serif" font-size="10.00">MockAssetManager::setMock</text>
<text xml:space="preserve" text-anchor="middle" x="157.88" y="-6.5" font-family="Helvetica,sans-Serif" font-size="10.00">Exists</text>
</a>
</g>
</g>
<!-- Node1&#45;&gt;Node3 -->
<g id="edge2_Node000001_Node000003" class="edge">
<title>Node1&#45;&gt;Node3</title>
<g id="a_edge2_Node000001_Node000003"><a xlink:title=" ">
<path fill="none" stroke="#63b8ff" d="M41.98,-34.71C50.68,-33.29 61.49,-31.53 72.97,-29.66"/>
<polygon fill="#63b8ff" stroke="#63b8ff" points="73.34,-33.15 82.64,-28.09 72.21,-26.24 73.34,-33.15"/>
</a>
</g>
</g>
</g>
</svg>
