<?xml version="1.0" encoding="UTF-8" standalone="no"?>
<!DOCTYPE svg PUBLIC "-//W3C//DTD SVG 1.1//EN"
 "http://www.w3.org/Graphics/SVG/1.1/DTD/svg11.dtd">
<!-- Generated by graphviz version 13.1.2 (20250808.2320)
 -->
<!-- Title: dotnamecpp::assets::AssetManager::validate Pages: 1 -->
<svg width="222pt" height="218pt"
 viewBox="0.00 0.00 222.00 218.00" xmlns="http://www.w3.org/2000/svg" xmlns:xlink="http://www.w3.org/1999/xlink">
<g id="graph0" class="graph" transform="scale(1 1) rotate(0) translate(4 214)">
<title>dotnamecpp::assets::AssetManager::validate</title>
<!-- Node1 -->
<g id="Node000001" class="node">
<title>Node1</title>
<g id="a_Node000001"><a xlink:title="Validate the asset manager configuration.">
<polygon fill="#999999" stroke="#666666" points="213.5,-121 88.75,-121 88.75,-89 213.5,-89 213.5,-121"/>
<text xml:space="preserve" text-anchor="start" x="96.75" y="-107.5" font-family="Helvetica,sans-Serif" font-size="10.00">dotnamecpp::assets</text>
<text xml:space="preserve" text-anchor="middle" x="151.12" y="-95.5" font-family="Helvetica,sans-Serif" font-size="10.00">::AssetManager::validate</text>
</a>
</g>
</g>
<!-- Node2 -->
<g id="Node000002" class="node">
<title>Node2</title>
<g id="a_Node000002"><a xlink:href="AssetManagerTest_8cpp.html#a164d13741975afb5bcc7c1850a6bf0b6" target="_top" xlink:title=" ">
<polygon fill="white" stroke="#666666" points="52.75,-210 0,-210 0,-190 52.75,-190 52.75,-210"/>
<text xml:space="preserve" text-anchor="middle" x="26.38" y="-196.5" font-family="Helvetica,sans-Serif" font-size="10.00">TEST_F</text>
</a>
</g>
</g>
<!-- Node1&#45;&gt;Node2 -->
<g id="edge1_Node000001_Node000002" class="edge">
<title>Node1&#45;&gt;Node2</title>
<g id="a_edge1_Node000001_Node000002"><a xlink:title=" ">
<path fill="none" stroke="#63b8ff" d="M120.44,-128.42C101.21,-143.52 75.59,-163.54 52.75,-181 49.08,-183.81 45.08,-186.82 41.37,-189.6"/>
<polygon fill="#63b8ff" stroke="#63b8ff" points="122.44,-131.3 128.13,-122.36 118.11,-125.8 122.44,-131.3"/>
</a>
</g>
</g>
<!-- Node3 -->
<g id="Node000003" class="node">
<title>Node3</title>
<g id="a_Node000003"><a xlink:href="AssetManagerTest_8cpp.html#abe136243ace10c032013eac345788425" target="_top" xlink:title=" ">
<polygon fill="white" stroke="#666666" points="52.75,-172 0,-172 0,-152 52.75,-152 52.75,-172"/>
<text xml:space="preserve" text-anchor="middle" x="26.38" y="-158.5" font-family="Helvetica,sans-Serif" font-size="10.00">TEST_F</text>
</a>
</g>
</g>
<!-- Node1&#45;&gt;Node3 -->
<g id="edge2_Node000001_Node000003" class="edge">
<title>Node1&#45;&gt;Node3</title>
<g id="a_edge2_Node000001_Node000003"><a xlink:title=" ">
<path fill="none" stroke="#63b8ff" d="M104.22,-126.31C85.57,-134.98 64.88,-144.59 49.67,-151.65"/>
<polygon fill="#63b8ff" stroke="#63b8ff" points="105.65,-129.51 113.25,-122.12 102.7,-123.16 105.65,-129.51"/>
</a>
</g>
</g>
<!-- Node4 -->
<g id="Node000004" class="node">
<title>Node4</title>
<g id="a_Node000004"><a xlink:href="AssetManagerTest_8cpp.html#a54a1c8e328d04db768b927359b1242d6" target="_top" xlink:title=" ">
<polygon fill="white" stroke="#666666" points="52.75,-134 0,-134 0,-114 52.75,-114 52.75,-134"/>
<text xml:space="preserve" text-anchor="middle" x="26.38" y="-120.5" font-family="Helvetica,sans-Serif" font-size="10.00">TEST_F</text>
</a>
</g>
</g>
<!-- Node1&#45;&gt;Node4 -->
<g id="edge3_Node000001_Node000004" class="edge">
<title>Node1&#45;&gt;Node4</title>
<g id="a_edge3_Node000001_Node000004"><a xlink:title=" ">
<path fill="none" stroke="#63b8ff" d="M77.1,-116.3C68.61,-117.62 60.42,-118.88 53.23,-120"/>
<polygon fill="#63b8ff" stroke="#63b8ff" points="77.55,-119.78 86.89,-114.79 76.48,-112.86 77.55,-119.78"/>
</a>
</g>
</g>
<!-- Node5 -->
<g id="Node000005" class="node">
<title>Node5</title>
<g id="a_Node000005"><a xlink:href="AssetManagerTest_8cpp.html#a0b3d8f45924e169b41efc8e21cf54de7" target="_top" xlink:title=" ">
<polygon fill="white" stroke="#666666" points="52.75,-96 0,-96 0,-76 52.75,-76 52.75,-96"/>
<text xml:space="preserve" text-anchor="middle" x="26.38" y="-82.5" font-family="Helvetica,sans-Serif" font-size="10.00">TEST_F</text>
</a>
</g>
</g>
<!-- Node1&#45;&gt;Node5 -->
<g id="edge4_Node000001_Node000005" class="edge">
<title>Node1&#45;&gt;Node5</title>
<g id="a_edge4_Node000001_Node000005"><a xlink:title=" ">
<path fill="none" stroke="#63b8ff" d="M77.1,-93.7C68.61,-92.38 60.42,-91.12 53.23,-90"/>
<polygon fill="#63b8ff" stroke="#63b8ff" points="76.48,-97.14 86.89,-95.21 77.55,-90.22 76.48,-97.14"/>
</a>
</g>
</g>
<!-- Node6 -->
<g id="Node000006" class="node">
<title>Node6</title>
<g id="a_Node000006"><a xlink:href="AssetManagerTest_8cpp.html#af93464a1881ac52a77cce1cee91dbc58" target="_top" xlink:title=" ">
<polygon fill="white" stroke="#666666" points="52.75,-58 0,-58 0,-38 52.75,-38 52.75,-58"/>
<text xml:space="preserve" text-anchor="middle" x="26.38" y="-44.5" font-family="Helvetica,sans-Serif" font-size="10.00">TEST_F</text>
</a>
</g>
</g>
<!-- Node1&#45;&gt;Node6 -->
<g id="edge5_Node000001_Node000006" class="edge">
<title>Node1&#45;&gt;Node6</title>
<g id="a_edge5_Node000001_Node000006"><a xlink:title=" ">
<path fill="none" stroke="#63b8ff" d="M104.22,-83.69C85.57,-75.02 64.88,-65.41 49.67,-58.35"/>
<polygon fill="#63b8ff" stroke="#63b8ff" points="102.7,-86.84 113.25,-87.88 105.65,-80.49 102.7,-86.84"/>
</a>
</g>
</g>
<!-- Node7 -->
<g id="Node000007" class="node">
<title>Node7</title>
<g id="a_Node000007"><a xlink:href="AssetManagerTest_8cpp.html#a63e0468dad34f3af1a66e5a77ac9d29b" target="_top" xlink:title=" ">
<polygon fill="white" stroke="#666666" points="52.75,-20 0,-20 0,0 52.75,0 52.75,-20"/>
<text xml:space="preserve" text-anchor="middle" x="26.38" y="-6.5" font-family="Helvetica,sans-Serif" font-size="10.00">TEST_F</text>
</a>
</g>
</g>
<!-- Node1&#45;&gt;Node7 -->
<g id="edge6_Node000001_Node000007" class="edge">
<title>Node1&#45;&gt;Node7</title>
<g id="a_edge6_Node000001_Node000007"><a xlink:title=" ">
<path fill="none" stroke="#63b8ff" d="M120.44,-81.58C101.21,-66.48 75.59,-46.46 52.75,-29 49.08,-26.19 45.08,-23.18 41.37,-20.4"/>
<polygon fill="#63b8ff" stroke="#63b8ff" points="118.11,-84.2 128.13,-87.64 122.44,-78.7 118.11,-84.2"/>
</a>
</g>
</g>
</g>
</svg>
