<?xml version="1.0" encoding="UTF-8" standalone="no"?>
<!DOCTYPE svg PUBLIC "-//W3C//DTD SVG 1.1//EN"
 "http://www.w3.org/Graphics/SVG/1.1/DTD/svg11.dtd">
<!-- Generated by graphviz version 13.1.2 (20250808.2320)
 -->
<!-- Title: dotnamecpp::assets::AssetManagerFactory::createDefault Pages: 1 -->
<svg width="784pt" height="78pt"
 viewBox="0.00 0.00 784.00 78.00" xmlns="http://www.w3.org/2000/svg" xmlns:xlink="http://www.w3.org/1999/xlink">
<g id="graph0" class="graph" transform="scale(1 1) rotate(0) translate(4 74)">
<title>dotnamecpp::assets::AssetManagerFactory::createDefault</title>
<!-- Node1 -->
<g id="Node000001" class="node">
<title>Node1</title>
<g id="a_Node000001"><a xlink:title="Create a Default object.">
<polygon fill="#999999" stroke="#666666" points="776,-54 658,-54 658,-10 776,-10 776,-54"/>
<text xml:space="preserve" text-anchor="start" x="666" y="-40.5" font-family="Helvetica,sans-Serif" font-size="10.00">dotnamecpp::assets</text>
<text xml:space="preserve" text-anchor="start" x="666" y="-28.5" font-family="Helvetica,sans-Serif" font-size="10.00">::AssetManagerFactory</text>
<text xml:space="preserve" text-anchor="middle" x="717" y="-16.5" font-family="Helvetica,sans-Serif" font-size="10.00">::createDefault</text>
</a>
</g>
</g>
<!-- Node2 -->
<g id="Node000002" class="node">
<title>Node2</title>
<g id="a_Node000002"><a xlink:href="classdotnamecpp_1_1utils_1_1UtilsFactory.html#adb1debe875686643fe487a625750400f" target="_top" xlink:title=" ">
<polygon fill="white" stroke="#666666" points="622,-70 456.75,-70 456.75,-38 622,-38 622,-70"/>
<text xml:space="preserve" text-anchor="start" x="464.75" y="-56.5" font-family="Helvetica,sans-Serif" font-size="10.00">dotnamecpp::utils::</text>
<text xml:space="preserve" text-anchor="middle" x="539.38" y="-44.5" font-family="Helvetica,sans-Serif" font-size="10.00">UtilsFactory::createAssetManager</text>
</a>
</g>
</g>
<!-- Node1&#45;&gt;Node2 -->
<g id="edge1_Node000001_Node000002" class="edge">
<title>Node1&#45;&gt;Node2</title>
<g id="a_edge1_Node000001_Node000002"><a xlink:title=" ">
<path fill="none" stroke="#63b8ff" d="M646.22,-40.74C638.38,-41.72 630.35,-42.73 622.38,-43.73"/>
<polygon fill="#63b8ff" stroke="#63b8ff" points="646.53,-44.23 656.02,-39.51 645.66,-37.28 646.53,-44.23"/>
</a>
</g>
</g>
<!-- Node6 -->
<g id="Node000006" class="node">
<title>Node6</title>
<g id="a_Node000006"><a xlink:href="AssetManagerTest_8cpp.html#a351b0b825a033c19c191b803ef3ed412" target="_top" xlink:title=" ">
<polygon fill="white" stroke="#666666" points="565.75,-20 513,-20 513,0 565.75,0 565.75,-20"/>
<text xml:space="preserve" text-anchor="middle" x="539.38" y="-6.5" font-family="Helvetica,sans-Serif" font-size="10.00">TEST_F</text>
</a>
</g>
</g>
<!-- Node1&#45;&gt;Node6 -->
<g id="edge6_Node000001_Node000006" class="edge">
<title>Node1&#45;&gt;Node6</title>
<g id="a_edge6_Node000001_Node000006"><a xlink:title=" ">
<path fill="none" stroke="#63b8ff" d="M646.45,-23.29C618.22,-19.75 587.36,-15.89 566.24,-13.24"/>
<polygon fill="#63b8ff" stroke="#63b8ff" points="645.66,-26.72 656.02,-24.49 646.53,-19.77 645.66,-26.72"/>
</a>
</g>
</g>
<!-- Node3 -->
<g id="Node000003" class="node">
<title>Node3</title>
<g id="a_Node000003"><a xlink:href="classdotnamecpp_1_1utils_1_1UtilsFactory.html#a76b90ad17cd7e0dc50796299c94b8567" target="_top" xlink:title="Create complete application components.">
<polygon fill="white" stroke="#666666" points="248,-70 73,-70 73,-38 248,-38 248,-70"/>
<text xml:space="preserve" text-anchor="start" x="81" y="-56.5" font-family="Helvetica,sans-Serif" font-size="10.00">dotnamecpp::utils::</text>
<text xml:space="preserve" text-anchor="middle" x="160.5" y="-44.5" font-family="Helvetica,sans-Serif" font-size="10.00">UtilsFactory::createAppComponents</text>
</a>
</g>
</g>
<!-- Node2&#45;&gt;Node3 -->
<g id="edge2_Node000002_Node000003" class="edge">
<title>Node2&#45;&gt;Node3</title>
<g id="a_edge2_Node000002_Node000003"><a xlink:title=" ">
<path fill="none" stroke="#63b8ff" d="M445.19,-59.19C436.93,-59.52 428.69,-59.8 420.75,-60 359.99,-61.55 344.76,-61.49 284,-60 272.51,-59.72 260.41,-59.29 248.48,-58.79"/>
<polygon fill="#63b8ff" stroke="#63b8ff" points="445.1,-62.7 454.94,-58.78 444.8,-55.7 445.1,-62.7"/>
</a>
</g>
</g>
<!-- Node5 -->
<g id="Node000005" class="node">
<title>Node5</title>
<g id="a_Node000005"><a xlink:href="classdotnamecpp_1_1utils_1_1UtilsFactory.html#aa0d9f669087b9bc6a0859324fe2afe50" target="_top" xlink:title=" ">
<polygon fill="white" stroke="#666666" points="420.75,-51 284,-51 284,-7 420.75,-7 420.75,-51"/>
<text xml:space="preserve" text-anchor="start" x="292" y="-37.5" font-family="Helvetica,sans-Serif" font-size="10.00">dotnamecpp::utils::</text>
<text xml:space="preserve" text-anchor="start" x="292" y="-25.5" font-family="Helvetica,sans-Serif" font-size="10.00">UtilsFactory::createCustom</text>
<text xml:space="preserve" text-anchor="middle" x="352.38" y="-13.5" font-family="Helvetica,sans-Serif" font-size="10.00">StringsLoader</text>
</a>
</g>
</g>
<!-- Node2&#45;&gt;Node5 -->
<g id="edge4_Node000002_Node000005" class="edge">
<title>Node2&#45;&gt;Node5</title>
<g id="a_edge4_Node000002_Node000005"><a xlink:title=" ">
<path fill="none" stroke="#63b8ff" d="M445.05,-41.39C436.99,-40.3 428.93,-39.21 421.13,-38.16"/>
<polygon fill="#63b8ff" stroke="#63b8ff" points="444.54,-44.85 454.92,-42.72 445.48,-37.92 444.54,-44.85"/>
</a>
</g>
</g>
<!-- Node4 -->
<g id="Node000004" class="node">
<title>Node4</title>
<g id="a_Node000004"><a xlink:href="Application_8cpp.html#a3c04138a5bfe5d72780bb7e82a18e627" target="_top" xlink:title=" ">
<polygon fill="white" stroke="#666666" points="37,-64 0,-64 0,-44 37,-44 37,-64"/>
<text xml:space="preserve" text-anchor="middle" x="18.5" y="-50.5" font-family="Helvetica,sans-Serif" font-size="10.00">main</text>
</a>
</g>
</g>
<!-- Node3&#45;&gt;Node4 -->
<g id="edge3_Node000003_Node000004" class="edge">
<title>Node3&#45;&gt;Node4</title>
<g id="a_edge3_Node000003_Node000004"><a xlink:title=" ">
<path fill="none" stroke="#63b8ff" d="M61.45,-54C52.39,-54 44.08,-54 37.29,-54"/>
<polygon fill="#63b8ff" stroke="#63b8ff" points="61.31,-57.5 71.31,-54 61.31,-50.5 61.31,-57.5"/>
</a>
</g>
</g>
<!-- Node5&#45;&gt;Node3 -->
<g id="edge5_Node000005_Node000003" class="edge">
<title>Node5&#45;&gt;Node3</title>
<g id="a_edge5_Node000005_Node000003"><a xlink:title=" ">
<path fill="none" stroke="#63b8ff" d="M272.25,-39.42C264.4,-40.45 256.4,-41.51 248.47,-42.55"/>
<polygon fill="#63b8ff" stroke="#63b8ff" points="272.67,-42.89 282.13,-38.12 271.76,-35.95 272.67,-42.89"/>
</a>
</g>
</g>
</g>
</svg>
