<?xml version="1.0" encoding="UTF-8" standalone="no"?>
<!DOCTYPE svg PUBLIC "-//W3C//DTD SVG 1.1//EN"
 "http://www.w3.org/Graphics/SVG/1.1/DTD/svg11.dtd">
<!-- Generated by graphviz version 13.1.2 (20250808.2320)
 -->
<!-- Title: dotnamecpp::utils::FileReader::readLines Pages: 1 -->
<svg width="208pt" height="180pt"
 viewBox="0.00 0.00 208.00 180.00" xmlns="http://www.w3.org/2000/svg" xmlns:xlink="http://www.w3.org/1999/xlink">
<g id="graph0" class="graph" transform="scale(1 1) rotate(0) translate(4 176)">
<title>dotnamecpp::utils::FileReader::readLines</title>
<!-- Node1 -->
<g id="Node000001" class="node">
<title>Node1</title>
<g id="a_Node000001"><a xlink:title="Read the content of a file as a vector of lines.">
<polygon fill="#999999" stroke="#666666" points="200,-102 88.75,-102 88.75,-70 200,-70 200,-102"/>
<text xml:space="preserve" text-anchor="start" x="96.75" y="-88.5" font-family="Helvetica,sans-Serif" font-size="10.00">dotnamecpp::utils::</text>
<text xml:space="preserve" text-anchor="middle" x="144.38" y="-76.5" font-family="Helvetica,sans-Serif" font-size="10.00">FileReader::readLines</text>
</a>
</g>
</g>
<!-- Node2 -->
<g id="Node000002" class="node">
<title>Node2</title>
<g id="a_Node000002"><a xlink:href="FileReaderTest_8cpp.html#a9b0935502ec20a7a0bff59806175b1bd" target="_top" xlink:title=" ">
<polygon fill="white" stroke="#666666" points="52.75,-172 0,-172 0,-152 52.75,-152 52.75,-172"/>
<text xml:space="preserve" text-anchor="middle" x="26.38" y="-158.5" font-family="Helvetica,sans-Serif" font-size="10.00">TEST_F</text>
</a>
</g>
</g>
<!-- Node1&#45;&gt;Node2 -->
<g id="edge1_Node000001_Node000002" class="edge">
<title>Node1&#45;&gt;Node2</title>
<g id="a_edge1_Node000001_Node000002"><a xlink:title=" ">
<path fill="none" stroke="#63b8ff" d="M108.65,-108.75C86.92,-122.99 59.98,-140.64 43.23,-151.61"/>
<polygon fill="#63b8ff" stroke="#63b8ff" points="110.49,-111.73 116.94,-103.32 106.66,-105.87 110.49,-111.73"/>
</a>
</g>
</g>
<!-- Node3 -->
<g id="Node000003" class="node">
<title>Node3</title>
<g id="a_Node000003"><a xlink:href="FileReaderTest_8cpp.html#ab503fd3a6ccb7f566d10e228dcc10220" target="_top" xlink:title=" ">
<polygon fill="white" stroke="#666666" points="52.75,-134 0,-134 0,-114 52.75,-114 52.75,-134"/>
<text xml:space="preserve" text-anchor="middle" x="26.38" y="-120.5" font-family="Helvetica,sans-Serif" font-size="10.00">TEST_F</text>
</a>
</g>
</g>
<!-- Node1&#45;&gt;Node3 -->
<g id="edge2_Node000001_Node000003" class="edge">
<title>Node1&#45;&gt;Node3</title>
<g id="a_edge2_Node000001_Node000003"><a xlink:title=" ">
<path fill="none" stroke="#63b8ff" d="M82.4,-105.97C72.06,-109.36 61.84,-112.71 53.08,-115.58"/>
<polygon fill="#63b8ff" stroke="#63b8ff" points="83.32,-109.36 91.73,-102.92 81.14,-102.7 83.32,-109.36"/>
</a>
</g>
</g>
<!-- Node4 -->
<g id="Node000004" class="node">
<title>Node4</title>
<g id="a_Node000004"><a xlink:href="FileReaderTest_8cpp.html#a2cc61af8fe98e0ebcdc58770c630b5d5" target="_top" xlink:title=" ">
<polygon fill="white" stroke="#666666" points="52.75,-96 0,-96 0,-76 52.75,-76 52.75,-96"/>
<text xml:space="preserve" text-anchor="middle" x="26.38" y="-82.5" font-family="Helvetica,sans-Serif" font-size="10.00">TEST_F</text>
</a>
</g>
</g>
<!-- Node1&#45;&gt;Node4 -->
<g id="edge3_Node000001_Node000004" class="edge">
<title>Node1&#45;&gt;Node4</title>
<g id="a_edge3_Node000001_Node000004"><a xlink:title=" ">
<path fill="none" stroke="#63b8ff" d="M77.2,-86C68.72,-86 60.47,-86 53.21,-86"/>
<polygon fill="#63b8ff" stroke="#63b8ff" points="76.92,-89.5 86.92,-86 76.92,-82.5 76.92,-89.5"/>
</a>
</g>
</g>
<!-- Node5 -->
<g id="Node000005" class="node">
<title>Node5</title>
<g id="a_Node000005"><a xlink:href="FileReaderTest_8cpp.html#afe02515e25d8735533b0b4f9a8ab6437" target="_top" xlink:title=" ">
<polygon fill="white" stroke="#666666" points="52.75,-58 0,-58 0,-38 52.75,-38 52.75,-58"/>
<text xml:space="preserve" text-anchor="middle" x="26.38" y="-44.5" font-family="Helvetica,sans-Serif" font-size="10.00">TEST_F</text>
</a>
</g>
</g>
<!-- Node1&#45;&gt;Node5 -->
<g id="edge4_Node000001_Node000005" class="edge">
<title>Node1&#45;&gt;Node5</title>
<g id="a_edge4_Node000001_Node000005"><a xlink:title=" ">
<path fill="none" stroke="#63b8ff" d="M82.4,-66.03C72.06,-62.64 61.84,-59.29 53.08,-56.42"/>
<polygon fill="#63b8ff" stroke="#63b8ff" points="81.14,-69.3 91.73,-69.08 83.32,-62.64 81.14,-69.3"/>
</a>
</g>
</g>
<!-- Node6 -->
<g id="Node000006" class="node">
<title>Node6</title>
<g id="a_Node000006"><a xlink:href="FileReaderTest_8cpp.html#a1d1de7e2e36b4c5bb4d58fd86447a38f" target="_top" xlink:title=" ">
<polygon fill="white" stroke="#666666" points="52.75,-20 0,-20 0,0 52.75,0 52.75,-20"/>
<text xml:space="preserve" text-anchor="middle" x="26.38" y="-6.5" font-family="Helvetica,sans-Serif" font-size="10.00">TEST_F</text>
</a>
</g>
</g>
<!-- Node1&#45;&gt;Node6 -->
<g id="edge5_Node000001_Node000006" class="edge">
<title>Node1&#45;&gt;Node6</title>
<g id="a_edge5_Node000001_Node000006"><a xlink:title=" ">
<path fill="none" stroke="#63b8ff" d="M108.65,-63.25C86.92,-49.01 59.98,-31.36 43.23,-20.39"/>
<polygon fill="#63b8ff" stroke="#63b8ff" points="106.66,-66.13 116.94,-68.68 110.49,-60.27 106.66,-66.13"/>
</a>
</g>
</g>
</g>
</svg>
