<?xml version="1.0" encoding="UTF-8" standalone="no"?>
<!DOCTYPE svg PUBLIC "-//W3C//DTD SVG 1.1//EN"
 "http://www.w3.org/Graphics/SVG/1.1/DTD/svg11.dtd">
<!-- Generated by graphviz version 13.1.2 (20250808.2320)
 -->
<!-- Title: ConsoleLogger::noHeader Pages: 1 -->
<svg width="342pt" height="166pt"
 viewBox="0.00 0.00 342.00 166.00" xmlns="http://www.w3.org/2000/svg" xmlns:xlink="http://www.w3.org/1999/xlink">
<g id="graph0" class="graph" transform="scale(1 1) rotate(0) translate(4 162)">
<title>ConsoleLogger::noHeader</title>
<!-- Node1 -->
<g id="Node000001" class="node">
<title>Node1</title>
<g id="a_Node000001"><a xlink:title="Show or hide all headers in the log output.">
<polygon fill="#999999" stroke="#666666" points="129.25,-80 0,-80 0,-60 129.25,-60 129.25,-80"/>
<text xml:space="preserve" text-anchor="middle" x="64.62" y="-66.5" font-family="Helvetica,sans-Serif" font-size="10.00">ConsoleLogger::noHeader</text>
</a>
</g>
</g>
<!-- Node1&#45;&gt;Node1 -->
<g id="edge1_Node000001_Node000001" class="edge">
<title>Node1&#45;&gt;Node1</title>
<g id="a_edge1_Node000001_Node000001"><a xlink:title=" ">
<path fill="none" stroke="#63b8ff" d="M35.27,-80.34C22.73,-88.98 32.51,-98 64.62,-98 82.69,-98 93.69,-95.14 97.62,-91.11"/>
<polygon fill="#63b8ff" stroke="#63b8ff" points="100.98,-90.12 94.46,-81.77 94.35,-92.37 100.98,-90.12"/>
</a>
</g>
</g>
<!-- Node2 -->
<g id="Node000002" class="node">
<title>Node2</title>
<g id="a_Node000002"><a xlink:href="classConsoleLogger.html#ad992cf9846433c9d08171e0da7a27d52" target="_top" xlink:title="Show or hide the header caller in the log output.">
<polygon fill="white" stroke="#666666" points="320.38,-158 178.38,-158 178.38,-126 320.38,-126 320.38,-158"/>
<text xml:space="preserve" text-anchor="start" x="186.38" y="-144.5" font-family="Helvetica,sans-Serif" font-size="10.00">ConsoleLogger::showHeader</text>
<text xml:space="preserve" text-anchor="middle" x="249.38" y="-132.5" font-family="Helvetica,sans-Serif" font-size="10.00">Caller</text>
</a>
</g>
</g>
<!-- Node1&#45;&gt;Node2 -->
<g id="edge2_Node000001_Node000002" class="edge">
<title>Node1&#45;&gt;Node2</title>
<g id="a_edge2_Node000001_Node000002"><a xlink:title=" ">
<path fill="none" stroke="#63b8ff" d="M85.47,-80.44C105.31,-90.61 136.86,-106.1 165.25,-117 169.8,-118.75 174.54,-120.45 179.33,-122.1"/>
<polygon fill="#63b8ff" stroke="#63b8ff" points="177.84,-125.29 188.43,-125.13 180.05,-118.65 177.84,-125.29"/>
</a>
</g>
</g>
<!-- Node3 -->
<g id="Node000003" class="node">
<title>Node3</title>
<g id="a_Node000003"><a xlink:href="classConsoleLogger.html#a93931df43572ddc3ca9246e793fa9ae8" target="_top" xlink:title="Show or hide the header level in the log output.">
<polygon fill="white" stroke="#666666" points="320.38,-108 178.38,-108 178.38,-76 320.38,-76 320.38,-108"/>
<text xml:space="preserve" text-anchor="start" x="186.38" y="-94.5" font-family="Helvetica,sans-Serif" font-size="10.00">ConsoleLogger::showHeader</text>
<text xml:space="preserve" text-anchor="middle" x="249.38" y="-82.5" font-family="Helvetica,sans-Serif" font-size="10.00">Level</text>
</a>
</g>
</g>
<!-- Node1&#45;&gt;Node3 -->
<g id="edge3_Node000001_Node000003" class="edge">
<title>Node1&#45;&gt;Node3</title>
<g id="a_edge3_Node000001_Node000003"><a xlink:title=" ">
<path fill="none" stroke="#63b8ff" d="M129.54,-77.69C141.52,-79.14 154.19,-80.66 166.62,-82.16"/>
<polygon fill="#63b8ff" stroke="#63b8ff" points="166.1,-85.62 176.45,-83.34 166.94,-78.67 166.1,-85.62"/>
</a>
</g>
</g>
<!-- Node4 -->
<g id="Node000004" class="node">
<title>Node4</title>
<g id="a_Node000004"><a xlink:href="classConsoleLogger.html#a76a289d0d0a58842e365885437644fe0" target="_top" xlink:title="Show or hide the header name in the log output.">
<polygon fill="white" stroke="#666666" points="333.5,-58 165.25,-58 165.25,-38 333.5,-38 333.5,-58"/>
<text xml:space="preserve" text-anchor="middle" x="249.38" y="-44.5" font-family="Helvetica,sans-Serif" font-size="10.00">ConsoleLogger::showHeaderName</text>
</a>
</g>
</g>
<!-- Node1&#45;&gt;Node4 -->
<g id="edge4_Node000001_Node000004" class="edge">
<title>Node1&#45;&gt;Node4</title>
<g id="a_edge4_Node000001_Node000004"><a xlink:title=" ">
<path fill="none" stroke="#63b8ff" d="M129.54,-62.31C137.4,-61.36 145.55,-60.38 153.74,-59.39"/>
<polygon fill="#63b8ff" stroke="#63b8ff" points="153.89,-62.9 163.4,-58.23 153.05,-55.95 153.89,-62.9"/>
</a>
</g>
</g>
<!-- Node5 -->
<g id="Node000005" class="node">
<title>Node5</title>
<g id="a_Node000005"><a xlink:href="classConsoleLogger.html#a09c84bad7201e76b0b8c31e25ec46efc" target="_top" xlink:title="Show or hide the header time in the log output.">
<polygon fill="white" stroke="#666666" points="331.25,-20 167.5,-20 167.5,0 331.25,0 331.25,-20"/>
<text xml:space="preserve" text-anchor="middle" x="249.38" y="-6.5" font-family="Helvetica,sans-Serif" font-size="10.00">ConsoleLogger::showHeaderTime</text>
</a>
</g>
</g>
<!-- Node1&#45;&gt;Node5 -->
<g id="edge5_Node000001_Node000005" class="edge">
<title>Node1&#45;&gt;Node5</title>
<g id="a_edge5_Node000001_Node000005"><a xlink:title=" ">
<path fill="none" stroke="#63b8ff" d="M87.78,-59.64C107.72,-50.62 137.98,-37.66 165.25,-29 171.82,-26.91 178.76,-24.95 185.7,-23.15"/>
<polygon fill="#63b8ff" stroke="#63b8ff" points="186.25,-26.62 195.11,-20.81 184.56,-19.83 186.25,-26.62"/>
</a>
</g>
</g>
</g>
</svg>
