<?xml version="1.0" encoding="UTF-8" standalone="no"?>
<!DOCTYPE svg PUBLIC "-//W3C//DTD SVG 1.1//EN"
 "http://www.w3.org/Graphics/SVG/1.1/DTD/svg11.dtd">
<!-- Generated by graphviz version 13.1.2 (20250808.2320)
 -->
<!-- Title: dotnamecpp::utils::Result&lt; void, E &gt;::error Pages: 1 -->
<svg width="291pt" height="90pt"
 viewBox="0.00 0.00 291.00 90.00" xmlns="http://www.w3.org/2000/svg" xmlns:xlink="http://www.w3.org/1999/xlink">
<g id="graph0" class="graph" transform="scale(1 1) rotate(0) translate(4 86)">
<title>dotnamecpp::utils::Result&lt; void, E &gt;::error</title>
<!-- Node1 -->
<g id="Node000001" class="node">
<title>Node1</title>
<g id="a_Node000001"><a xlink:title=" ">
<polygon fill="#999999" stroke="#666666" points="282.5,-57 163.75,-57 163.75,-25 282.5,-25 282.5,-57"/>
<text xml:space="preserve" text-anchor="start" x="171.75" y="-43.5" font-family="Helvetica,sans-Serif" font-size="10.00">dotnamecpp::utils::</text>
<text xml:space="preserve" text-anchor="middle" x="223.12" y="-31.5" font-family="Helvetica,sans-Serif" font-size="10.00">Result&lt; void, E &gt;::error</text>
</a>
</g>
</g>
<!-- Node2 -->
<g id="Node000002" class="node">
<title>Node2</title>
<g id="a_Node000002"><a xlink:href="classdotnamecpp_1_1utils_1_1Result_3_01void_00_01E_01_4.html#a527f175b268d5e08b33c98ce91ee511a" target="_top" xlink:title=" ">
<polygon fill="white" stroke="#666666" points="127.75,-82 0,-82 0,-50 127.75,-50 127.75,-82"/>
<text xml:space="preserve" text-anchor="start" x="8" y="-68.5" font-family="Helvetica,sans-Serif" font-size="10.00">dotnamecpp::utils::</text>
<text xml:space="preserve" text-anchor="middle" x="63.88" y="-56.5" font-family="Helvetica,sans-Serif" font-size="10.00">Result&lt; void, E &gt;::Result</text>
</a>
</g>
</g>
<!-- Node1&#45;&gt;Node2 -->
<g id="edge1_Node000001_Node000002" class="edge">
<title>Node1&#45;&gt;Node2</title>
<g id="a_edge1_Node000001_Node000002"><a xlink:title=" ">
<path fill="none" stroke="#63b8ff" d="M152.34,-52.09C144.31,-53.37 136.16,-54.67 128.23,-55.93"/>
<polygon fill="#63b8ff" stroke="#63b8ff" points="152.75,-55.57 162.08,-50.55 151.65,-48.66 152.75,-55.57"/>
</a>
</g>
</g>
<!-- Node3 -->
<g id="Node000003" class="node">
<title>Node3</title>
<g id="a_Node000003"><a xlink:href="classdotnamecpp_1_1utils_1_1Result_3_01void_00_01E_01_4.html#a4ea93798f6ca5564aeea68bce5ef4c43" target="_top" xlink:title=" ">
<polygon fill="white" stroke="#666666" points="127.75,-32 0,-32 0,0 127.75,0 127.75,-32"/>
<text xml:space="preserve" text-anchor="start" x="8" y="-18.5" font-family="Helvetica,sans-Serif" font-size="10.00">dotnamecpp::utils::</text>
<text xml:space="preserve" text-anchor="middle" x="63.88" y="-6.5" font-family="Helvetica,sans-Serif" font-size="10.00">Result&lt; void, E &gt;::Result</text>
</a>
</g>
</g>
<!-- Node1&#45;&gt;Node3 -->
<g id="edge2_Node000001_Node000003" class="edge">
<title>Node1&#45;&gt;Node3</title>
<g id="a_edge2_Node000001_Node000003"><a xlink:title=" ">
<path fill="none" stroke="#63b8ff" d="M152.34,-29.91C144.31,-28.63 136.16,-27.33 128.23,-26.07"/>
<polygon fill="#63b8ff" stroke="#63b8ff" points="151.65,-33.34 162.08,-31.45 152.75,-26.43 151.65,-33.34"/>
</a>
</g>
</g>
</g>
</svg>
