<?xml version="1.0" encoding="UTF-8" standalone="no"?>
<!DOCTYPE svg PUBLIC "-//W3C//DTD SVG 1.1//EN"
 "http://www.w3.org/Graphics/SVG/1.1/DTD/svg11.dtd">
<!-- Generated by graphviz version 13.1.2 (20250808.2320)
 -->
<!-- Title: ConsoleLogger::debug Pages: 1 -->
<svg width="791pt" height="116pt"
 viewBox="0.00 0.00 791.00 116.00" xmlns="http://www.w3.org/2000/svg" xmlns:xlink="http://www.w3.org/1999/xlink">
<g id="graph0" class="graph" transform="scale(1 1) rotate(0) translate(4 112)">
<title>ConsoleLogger::debug</title>
<!-- Node1 -->
<g id="Node000001" class="node">
<title>Node1</title>
<g id="a_Node000001"><a xlink:title="Log a debug message.">
<polygon fill="#999999" stroke="#666666" points="113.5,-70 0,-70 0,-50 113.5,-50 113.5,-70"/>
<text xml:space="preserve" text-anchor="middle" x="56.75" y="-56.5" font-family="Helvetica,sans-Serif" font-size="10.00">ConsoleLogger::debug</text>
</a>
</g>
</g>
<!-- Node2 -->
<g id="Node000002" class="node">
<title>Node2</title>
<g id="a_Node000002"><a xlink:href="classConsoleLogger.html#a9aa67bea16b85fc2e7f76aa6e6faac26" target="_top" xlink:title="Logs a message with a specified level to the console and optionally to a file.">
<polygon fill="white" stroke="#666666" points="249.5,-70 149.5,-70 149.5,-50 249.5,-50 249.5,-70"/>
<text xml:space="preserve" text-anchor="middle" x="199.5" y="-56.5" font-family="Helvetica,sans-Serif" font-size="10.00">ConsoleLogger::log</text>
</a>
</g>
</g>
<!-- Node1&#45;&gt;Node2 -->
<g id="edge1_Node000001_Node000002" class="edge">
<title>Node1&#45;&gt;Node2</title>
<g id="a_edge1_Node000001_Node000002"><a xlink:title=" ">
<path fill="none" stroke="#63b8ff" d="M113.78,-60C121.61,-60 129.69,-60 137.6,-60"/>
<polygon fill="#63b8ff" stroke="#63b8ff" points="137.52,-63.5 147.52,-60 137.52,-56.5 137.52,-63.5"/>
</a>
</g>
</g>
<!-- Node3 -->
<g id="Node000003" class="node">
<title>Node3</title>
<g id="a_Node000003"><a xlink:href="classConsoleLogger.html#a46e60e26db61000d04cfa66480729f2a" target="_top" xlink:title="Convert a logging level to its string representation.">
<polygon fill="white" stroke="#666666" points="429,-108 285.5,-108 285.5,-88 429,-88 429,-108"/>
<text xml:space="preserve" text-anchor="middle" x="357.25" y="-94.5" font-family="Helvetica,sans-Serif" font-size="10.00">ConsoleLogger::levelToString</text>
</a>
</g>
</g>
<!-- Node2&#45;&gt;Node3 -->
<g id="edge2_Node000002_Node000003" class="edge">
<title>Node2&#45;&gt;Node3</title>
<g id="a_edge2_Node000002_Node000003"><a xlink:title=" ">
<path fill="none" stroke="#63b8ff" d="M243.47,-70.48C261.69,-74.93 283.11,-80.16 302.37,-84.85"/>
<polygon fill="#63b8ff" stroke="#63b8ff" points="301.4,-88.22 311.95,-87.19 303.06,-81.42 301.4,-88.22"/>
</a>
</g>
</g>
<!-- Node4 -->
<g id="Node000004" class="node">
<title>Node4</title>
<g id="a_Node000004"><a xlink:href="classConsoleLogger.html#a787b42f6e197b60908113326b9a048fa" target="_top" xlink:title="Reset the console color to default.">
<polygon fill="white" stroke="#666666" points="782.75,-54 637.75,-54 637.75,-22 782.75,-22 782.75,-54"/>
<text xml:space="preserve" text-anchor="start" x="645.75" y="-40.5" font-family="Helvetica,sans-Serif" font-size="10.00">ConsoleLogger::resetConsole</text>
<text xml:space="preserve" text-anchor="middle" x="710.25" y="-28.5" font-family="Helvetica,sans-Serif" font-size="10.00">Color</text>
</a>
</g>
</g>
<!-- Node2&#45;&gt;Node4 -->
<g id="edge3_Node000002_Node000004" class="edge">
<title>Node2&#45;&gt;Node4</title>
<g id="a_edge3_Node000002_Node000004"><a xlink:title=" ">
<path fill="none" stroke="#63b8ff" d="M249.74,-57.87C336.84,-54.1 518.94,-46.23 625.9,-41.6"/>
<polygon fill="#63b8ff" stroke="#63b8ff" points="625.93,-45.11 635.77,-41.18 625.63,-38.11 625.93,-45.11"/>
</a>
</g>
</g>
<!-- Node5 -->
<g id="Node000005" class="node">
<title>Node5</title>
<g id="a_Node000005"><a xlink:href="classConsoleLogger.html#aecacefa838b28f34a80b06d3c68fd541" target="_top" xlink:title=" ">
<polygon fill="white" stroke="#666666" points="425.62,-32 288.88,-32 288.88,0 425.62,0 425.62,-32"/>
<text xml:space="preserve" text-anchor="start" x="296.88" y="-18.5" font-family="Helvetica,sans-Serif" font-size="10.00">ConsoleLogger::setConsole</text>
<text xml:space="preserve" text-anchor="middle" x="357.25" y="-6.5" font-family="Helvetica,sans-Serif" font-size="10.00">Color</text>
</a>
</g>
</g>
<!-- Node2&#45;&gt;Node5 -->
<g id="edge4_Node000002_Node000005" class="edge">
<title>Node2&#45;&gt;Node5</title>
<g id="a_edge4_Node000002_Node000005"><a xlink:title=" ">
<path fill="none" stroke="#63b8ff" d="M237.41,-49.57C252.38,-45.34 270.18,-40.31 287.39,-35.45"/>
<polygon fill="#63b8ff" stroke="#63b8ff" points="287.86,-38.96 296.53,-32.87 285.96,-32.22 287.86,-38.96"/>
</a>
</g>
</g>
<!-- Node6 -->
<g id="Node000006" class="node">
<title>Node6</title>
<g id="a_Node000006"><a xlink:href="classConsoleLogger.html#a7c4374a210726f7bbe380f45a1f99190" target="_top" xlink:title=" ">
<polygon fill="white" stroke="#666666" points="601.75,-32 465,-32 465,0 601.75,0 601.75,-32"/>
<text xml:space="preserve" text-anchor="start" x="473" y="-18.5" font-family="Helvetica,sans-Serif" font-size="10.00">ConsoleLogger::setConsole</text>
<text xml:space="preserve" text-anchor="middle" x="533.38" y="-6.5" font-family="Helvetica,sans-Serif" font-size="10.00">ColorUnix</text>
</a>
</g>
</g>
<!-- Node5&#45;&gt;Node6 -->
<g id="edge5_Node000005_Node000006" class="edge">
<title>Node5&#45;&gt;Node6</title>
<g id="a_edge5_Node000005_Node000006"><a xlink:title=" ">
<path fill="none" stroke="#63b8ff" d="M426.07,-16C435,-16 444.21,-16 453.31,-16"/>
<polygon fill="#63b8ff" stroke="#63b8ff" points="453.23,-19.5 463.23,-16 453.23,-12.5 453.23,-19.5"/>
</a>
</g>
</g>
<!-- Node6&#45;&gt;Node4 -->
<g id="edge6_Node000006_Node000004" class="edge">
<title>Node6&#45;&gt;Node4</title>
<g id="a_edge6_Node000006_Node000004"><a xlink:title=" ">
<path fill="none" stroke="#63b8ff" d="M602.24,-24.54C610.07,-25.52 618.12,-26.54 626.12,-27.54"/>
<polygon fill="#63b8ff" stroke="#63b8ff" points="625.52,-30.99 635.87,-28.77 626.39,-24.05 625.52,-30.99"/>
</a>
</g>
</g>
</g>
</svg>
