<?xml version="1.0" encoding="UTF-8" standalone="no"?>
<!DOCTYPE svg PUBLIC "-//W3C//DTD SVG 1.1//EN"
 "http://www.w3.org/Graphics/SVG/1.1/DTD/svg11.dtd">
<!-- Generated by graphviz version 13.1.2 (20250808.2320)
 -->
<!-- Title: dotnamecpp::utils::UtilsFactory::createBundle Pages: 1 -->
<svg width="868pt" height="421pt"
 viewBox="0.00 0.00 868.00 421.00" xmlns="http://www.w3.org/2000/svg" xmlns:xlink="http://www.w3.org/1999/xlink">
<g id="graph0" class="graph" transform="scale(1 1) rotate(0) translate(4 417)">
<title>dotnamecpp::utils::UtilsFactory::createBundle</title>
<!-- Node1 -->
<g id="Node000001" class="node">
<title>Node1</title>
<g id="a_Node000001"><a xlink:title=" ">
<polygon fill="#999999" stroke="#666666" points="132.25,-210 0,-210 0,-178 132.25,-178 132.25,-210"/>
<text xml:space="preserve" text-anchor="start" x="8" y="-196.5" font-family="Helvetica,sans-Serif" font-size="10.00">dotnamecpp::utils::</text>
<text xml:space="preserve" text-anchor="middle" x="66.12" y="-184.5" font-family="Helvetica,sans-Serif" font-size="10.00">UtilsFactory::createBundle</text>
</a>
</g>
</g>
<!-- Node2 -->
<g id="Node000002" class="node">
<title>Node2</title>
<g id="a_Node000002"><a xlink:href="classdotnamecpp_1_1utils_1_1UtilsFactory.html#a85aa2ef9b8d0cec5f67e3953f0d1937b" target="_top" xlink:title=" ">
<polygon fill="white" stroke="#666666" points="317,-394 183.25,-394 183.25,-350 317,-350 317,-394"/>
<text xml:space="preserve" text-anchor="start" x="191.25" y="-380.5" font-family="Helvetica,sans-Serif" font-size="10.00">dotnamecpp::utils::</text>
<text xml:space="preserve" text-anchor="start" x="191.25" y="-368.5" font-family="Helvetica,sans-Serif" font-size="10.00">UtilsFactory::createDefault</text>
<text xml:space="preserve" text-anchor="middle" x="250.12" y="-356.5" font-family="Helvetica,sans-Serif" font-size="10.00">Logger</text>
</a>
</g>
</g>
<!-- Node1&#45;&gt;Node2 -->
<g id="edge1_Node000001_Node000002" class="edge">
<title>Node1&#45;&gt;Node2</title>
<g id="a_edge1_Node000001_Node000002"><a xlink:title=" ">
<path fill="none" stroke="#63b8ff" d="M74.17,-210.07C88.01,-239.91 121.53,-304.2 168.25,-341 169.79,-342.22 171.39,-343.39 173.03,-344.52"/>
<polygon fill="#63b8ff" stroke="#63b8ff" points="171.19,-347.49 181.54,-349.75 174.85,-341.53 171.19,-347.49"/>
</a>
</g>
</g>
<!-- Node7 -->
<g id="Node000007" class="node">
<title>Node7</title>
<g id="a_Node000007"><a xlink:href="classdotnamecpp_1_1utils_1_1UtilsFactory.html#a6071a4ce383be760fd0f5f278871fc78" target="_top" xlink:title=" ">
<polygon fill="white" stroke="#666666" points="321.12,-332 179.12,-332 179.12,-288 321.12,-288 321.12,-332"/>
<text xml:space="preserve" text-anchor="start" x="187.12" y="-318.5" font-family="Helvetica,sans-Serif" font-size="10.00">dotnamecpp::utils::</text>
<text xml:space="preserve" text-anchor="start" x="187.12" y="-306.5" font-family="Helvetica,sans-Serif" font-size="10.00">UtilsFactory::createDirectory</text>
<text xml:space="preserve" text-anchor="middle" x="250.12" y="-294.5" font-family="Helvetica,sans-Serif" font-size="10.00">Manager</text>
</a>
</g>
</g>
<!-- Node1&#45;&gt;Node7 -->
<g id="edge6_Node000001_Node000007" class="edge">
<title>Node1&#45;&gt;Node7</title>
<g id="a_edge6_Node000001_Node000007"><a xlink:title=" ">
<path fill="none" stroke="#63b8ff" d="M84.75,-210.21C104.17,-227.51 136.84,-255 168.25,-274 173.14,-276.96 178.31,-279.81 183.59,-282.54"/>
<polygon fill="#63b8ff" stroke="#63b8ff" points="181.93,-285.62 192.44,-286.93 185.04,-279.35 181.93,-285.62"/>
</a>
</g>
</g>
<!-- Node8 -->
<g id="Node000008" class="node">
<title>Node8</title>
<g id="a_Node000008"><a xlink:href="classdotnamecpp_1_1utils_1_1UtilsFactory.html#ad559863ad0bfa1fe1805f82089cfe948" target="_top" xlink:title=" ">
<polygon fill="white" stroke="#666666" points="517.5,-257 368,-257 368,-225 517.5,-225 517.5,-257"/>
<text xml:space="preserve" text-anchor="start" x="376" y="-243.5" font-family="Helvetica,sans-Serif" font-size="10.00">dotnamecpp::utils::</text>
<text xml:space="preserve" text-anchor="middle" x="442.75" y="-231.5" font-family="Helvetica,sans-Serif" font-size="10.00">UtilsFactory::createFileReader</text>
</a>
</g>
</g>
<!-- Node1&#45;&gt;Node8 -->
<g id="edge7_Node000001_Node000008" class="edge">
<title>Node1&#45;&gt;Node8</title>
<g id="a_edge7_Node000001_Node000008"><a xlink:title=" ">
<path fill="none" stroke="#63b8ff" d="M93.87,-210.37C113.63,-221.45 141.6,-235.11 168.25,-241 230.15,-254.68 301.87,-254.09 356.33,-250.4"/>
<polygon fill="#63b8ff" stroke="#63b8ff" points="356.45,-253.9 366.17,-249.68 355.94,-246.92 356.45,-253.9"/>
</a>
</g>
</g>
<!-- Node9 -->
<g id="Node000009" class="node">
<title>Node9</title>
<g id="a_Node000009"><a xlink:href="classdotnamecpp_1_1utils_1_1UtilsFactory.html#aa935a454b1b16e1f69ee05949cf37701" target="_top" xlink:title=" ">
<polygon fill="white" stroke="#666666" points="514.5,-198 371,-198 371,-166 514.5,-166 514.5,-198"/>
<text xml:space="preserve" text-anchor="start" x="379" y="-184.5" font-family="Helvetica,sans-Serif" font-size="10.00">dotnamecpp::utils::</text>
<text xml:space="preserve" text-anchor="middle" x="442.75" y="-172.5" font-family="Helvetica,sans-Serif" font-size="10.00">UtilsFactory::createFileWriter</text>
</a>
</g>
</g>
<!-- Node1&#45;&gt;Node9 -->
<g id="edge8_Node000001_Node000009" class="edge">
<title>Node1&#45;&gt;Node9</title>
<g id="a_edge8_Node000001_Node000009"><a xlink:title=" ">
<path fill="none" stroke="#63b8ff" d="M132.38,-191.91C195.43,-189.89 291.16,-186.82 359.41,-184.64"/>
<polygon fill="#63b8ff" stroke="#63b8ff" points="359.15,-188.15 369.04,-184.33 358.93,-181.15 359.15,-188.15"/>
</a>
</g>
</g>
<!-- Node10 -->
<g id="Node000010" class="node">
<title>Node10</title>
<g id="a_Node000010"><a xlink:href="classdotnamecpp_1_1utils_1_1UtilsFactory.html#a9fcea5e7ff94872b54a8c01eb2d9c965" target="_top" xlink:title=" ">
<polygon fill="white" stroke="#666666" points="332,-232 168.25,-232 168.25,-200 332,-200 332,-232"/>
<text xml:space="preserve" text-anchor="start" x="176.25" y="-218.5" font-family="Helvetica,sans-Serif" font-size="10.00">dotnamecpp::utils::</text>
<text xml:space="preserve" text-anchor="middle" x="250.12" y="-206.5" font-family="Helvetica,sans-Serif" font-size="10.00">UtilsFactory::createJsonSerializer</text>
</a>
</g>
</g>
<!-- Node1&#45;&gt;Node10 -->
<g id="edge9_Node000001_Node000010" class="edge">
<title>Node1&#45;&gt;Node10</title>
<g id="a_edge9_Node000001_Node000010"><a xlink:title=" ">
<path fill="none" stroke="#63b8ff" d="M132.57,-201.91C140.33,-202.85 148.36,-203.82 156.4,-204.79"/>
<polygon fill="#63b8ff" stroke="#63b8ff" points="155.91,-208.26 166.26,-205.98 156.75,-201.31 155.91,-208.26"/>
</a>
</g>
</g>
<!-- Node11 -->
<g id="Node000011" class="node">
<title>Node11</title>
<g id="a_Node000011"><a xlink:href="classdotnamecpp_1_1utils_1_1UtilsFactory.html#a0c936eaf300e6f9b9014659d4ce6801c" target="_top" xlink:title=" ">
<polygon fill="white" stroke="#666666" points="330.88,-144 169.38,-144 169.38,-112 330.88,-112 330.88,-144"/>
<text xml:space="preserve" text-anchor="start" x="177.38" y="-130.5" font-family="Helvetica,sans-Serif" font-size="10.00">dotnamecpp::utils::</text>
<text xml:space="preserve" text-anchor="middle" x="250.12" y="-118.5" font-family="Helvetica,sans-Serif" font-size="10.00">UtilsFactory::createPathResolver</text>
</a>
</g>
</g>
<!-- Node1&#45;&gt;Node11 -->
<g id="edge12_Node000001_Node000011" class="edge">
<title>Node1&#45;&gt;Node11</title>
<g id="a_edge12_Node000001_Node000011"><a xlink:title=" ">
<path fill="none" stroke="#63b8ff" d="M112.58,-177.52C137,-168.66 167.3,-157.67 193.16,-148.3"/>
<polygon fill="#63b8ff" stroke="#63b8ff" points="194.3,-151.6 202.51,-144.9 191.92,-145.02 194.3,-151.6"/>
</a>
</g>
</g>
<!-- Node12 -->
<g id="Node000012" class="node">
<title>Node12</title>
<g id="a_Node000012"><a xlink:href="classdotnamecpp_1_1utils_1_1UtilsFactory.html#a5dd47e86b64ad3d8efb881d5b6db1f9d" target="_top" xlink:title=" ">
<polygon fill="white" stroke="#666666" points="327.88,-94 172.38,-94 172.38,-62 327.88,-62 327.88,-94"/>
<text xml:space="preserve" text-anchor="start" x="180.38" y="-80.5" font-family="Helvetica,sans-Serif" font-size="10.00">dotnamecpp::utils::</text>
<text xml:space="preserve" text-anchor="middle" x="250.12" y="-68.5" font-family="Helvetica,sans-Serif" font-size="10.00">UtilsFactory::createPlatformInfo</text>
</a>
</g>
</g>
<!-- Node1&#45;&gt;Node12 -->
<g id="edge13_Node000001_Node000012" class="edge">
<title>Node1&#45;&gt;Node12</title>
<g id="a_edge13_Node000001_Node000012"><a xlink:title=" ">
<path fill="none" stroke="#63b8ff" d="M81.23,-177.51C99.42,-157.24 132.92,-123.05 168.25,-103 170.71,-101.6 173.26,-100.28 175.87,-99.01"/>
<polygon fill="#63b8ff" stroke="#63b8ff" points="177.04,-102.32 184.78,-95.08 174.22,-95.91 177.04,-102.32"/>
</a>
</g>
</g>
<!-- Node14 -->
<g id="Node000014" class="node">
<title>Node14</title>
<g id="a_Node000014"><a xlink:href="classdotnamecpp_1_1utils_1_1UtilsFactory.html#af91cb262af886be48e1ec821f2f9e8db" target="_top" xlink:title=" ">
<polygon fill="white" stroke="#666666" points="314,-44 186.25,-44 186.25,0 314,0 314,-44"/>
<text xml:space="preserve" text-anchor="start" x="194.25" y="-30.5" font-family="Helvetica,sans-Serif" font-size="10.00">dotnamecpp::utils::</text>
<text xml:space="preserve" text-anchor="start" x="194.25" y="-18.5" font-family="Helvetica,sans-Serif" font-size="10.00">UtilsFactory::createString</text>
<text xml:space="preserve" text-anchor="middle" x="250.12" y="-6.5" font-family="Helvetica,sans-Serif" font-size="10.00">Formatter</text>
</a>
</g>
</g>
<!-- Node1&#45;&gt;Node14 -->
<g id="edge15_Node000001_Node000014" class="edge">
<title>Node1&#45;&gt;Node14</title>
<g id="a_edge15_Node000001_Node000014"><a xlink:title=" ">
<path fill="none" stroke="#63b8ff" d="M74.79,-177.69C89.18,-148.7 122.94,-87.97 168.25,-53 170.68,-51.13 173.23,-49.35 175.88,-47.68"/>
<polygon fill="#63b8ff" stroke="#63b8ff" points="177.51,-50.78 184.47,-42.79 174.05,-44.69 177.51,-50.78"/>
</a>
</g>
</g>
<!-- Node3 -->
<g id="Node000003" class="node">
<title>Node3</title>
<g id="a_Node000003"><a xlink:href="classdotnamecpp_1_1utils_1_1UtilsFactory.html#accf95777b78081e29cd677b633ab9461" target="_top" xlink:title=" ">
<polygon fill="white" stroke="#666666" points="508.5,-388 377,-388 377,-356 508.5,-356 508.5,-388"/>
<text xml:space="preserve" text-anchor="start" x="385" y="-374.5" font-family="Helvetica,sans-Serif" font-size="10.00">dotnamecpp::utils::</text>
<text xml:space="preserve" text-anchor="middle" x="442.75" y="-362.5" font-family="Helvetica,sans-Serif" font-size="10.00">UtilsFactory::createLogger</text>
</a>
</g>
</g>
<!-- Node2&#45;&gt;Node3 -->
<g id="edge2_Node000002_Node000003" class="edge">
<title>Node2&#45;&gt;Node3</title>
<g id="a_edge2_Node000002_Node000003"><a xlink:title=" ">
<path fill="none" stroke="#63b8ff" d="M317.26,-372C332.75,-372 349.38,-372 365.28,-372"/>
<polygon fill="#63b8ff" stroke="#63b8ff" points="365.18,-375.5 375.18,-372 365.18,-368.5 365.18,-375.5"/>
</a>
</g>
</g>
<!-- Node4 -->
<g id="Node000004" class="node">
<title>Node4</title>
<g id="a_Node000004"><a xlink:href="classdotnamecpp_1_1logging_1_1LoggerFactory.html#a2811f86fe84698397f09f3ae18959511" target="_top" xlink:title="Create a logger instance based on the specified type and configuration.">
<polygon fill="white" stroke="#666666" points="670.75,-388 553.5,-388 553.5,-356 670.75,-356 670.75,-388"/>
<text xml:space="preserve" text-anchor="start" x="561.5" y="-374.5" font-family="Helvetica,sans-Serif" font-size="10.00">dotnamecpp::logging</text>
<text xml:space="preserve" text-anchor="middle" x="612.12" y="-362.5" font-family="Helvetica,sans-Serif" font-size="10.00">::LoggerFactory::create</text>
</a>
</g>
</g>
<!-- Node3&#45;&gt;Node4 -->
<g id="edge3_Node000003_Node000004" class="edge">
<title>Node3&#45;&gt;Node4</title>
<g id="a_edge3_Node000003_Node000004"><a xlink:title=" ">
<path fill="none" stroke="#63b8ff" d="M508.94,-372C519.77,-372 531.04,-372 541.97,-372"/>
<polygon fill="#63b8ff" stroke="#63b8ff" points="541.68,-375.5 551.68,-372 541.68,-368.5 541.68,-375.5"/>
</a>
</g>
</g>
<!-- Node5 -->
<g id="Node000005" class="node">
<title>Node5</title>
<g id="a_Node000005"><a xlink:href="classdotnamecpp_1_1logging_1_1LoggerFactory.html#a66665981d61ca1baae6f1801a597bb65" target="_top" xlink:title="Create a Console object logger.">
<polygon fill="white" stroke="#666666" points="860,-413 706.75,-413 706.75,-381 860,-381 860,-413"/>
<text xml:space="preserve" text-anchor="start" x="714.75" y="-399.5" font-family="Helvetica,sans-Serif" font-size="10.00">dotnamecpp::logging</text>
<text xml:space="preserve" text-anchor="middle" x="783.38" y="-387.5" font-family="Helvetica,sans-Serif" font-size="10.00">::LoggerFactory::createConsole</text>
</a>
</g>
</g>
<!-- Node4&#45;&gt;Node5 -->
<g id="edge4_Node000004_Node000005" class="edge">
<title>Node4&#45;&gt;Node5</title>
<g id="a_edge4_Node000004_Node000005"><a xlink:title=" ">
<path fill="none" stroke="#63b8ff" d="M670.9,-380.53C678.73,-381.69 686.91,-382.9 695.12,-384.11"/>
<polygon fill="#63b8ff" stroke="#63b8ff" points="694.41,-387.54 704.81,-385.54 695.43,-380.62 694.41,-387.54"/>
</a>
</g>
</g>
<!-- Node6 -->
<g id="Node000006" class="node">
<title>Node6</title>
<g id="a_Node000006"><a xlink:href="classdotnamecpp_1_1logging_1_1LoggerFactory.html#a1cf52c1ddb57eae93a5aab46b593d021" target="_top" xlink:title="Create a Null object logger.">
<polygon fill="white" stroke="#666666" points="850.62,-363 716.12,-363 716.12,-331 850.62,-331 850.62,-363"/>
<text xml:space="preserve" text-anchor="start" x="724.12" y="-349.5" font-family="Helvetica,sans-Serif" font-size="10.00">dotnamecpp::logging</text>
<text xml:space="preserve" text-anchor="middle" x="783.38" y="-337.5" font-family="Helvetica,sans-Serif" font-size="10.00">::LoggerFactory::createNull</text>
</a>
</g>
</g>
<!-- Node4&#45;&gt;Node6 -->
<g id="edge5_Node000004_Node000006" class="edge">
<title>Node4&#45;&gt;Node6</title>
<g id="a_edge5_Node000004_Node000006"><a xlink:title=" ">
<path fill="none" stroke="#63b8ff" d="M670.9,-363.47C681.74,-361.86 693.24,-360.17 704.58,-358.49"/>
<polygon fill="#63b8ff" stroke="#63b8ff" points="704.95,-361.97 714.34,-357.05 703.93,-355.05 704.95,-361.97"/>
</a>
</g>
</g>
<!-- Node10&#45;&gt;Node8 -->
<g id="edge10_Node000010_Node000008" class="edge">
<title>Node10&#45;&gt;Node8</title>
<g id="a_edge10_Node000010_Node000008"><a xlink:title=" ">
<path fill="none" stroke="#63b8ff" d="M332.24,-226.64C340.23,-227.69 348.36,-228.75 356.39,-229.81"/>
<polygon fill="#63b8ff" stroke="#63b8ff" points="355.78,-233.26 366.15,-231.09 356.69,-226.32 355.78,-233.26"/>
</a>
</g>
</g>
<!-- Node10&#45;&gt;Node9 -->
<g id="edge11_Node000010_Node000009" class="edge">
<title>Node10&#45;&gt;Node9</title>
<g id="a_edge11_Node000010_Node000009"><a xlink:title=" ">
<path fill="none" stroke="#63b8ff" d="M332.24,-201.53C341.22,-199.93 350.37,-198.3 359.36,-196.69"/>
<polygon fill="#63b8ff" stroke="#63b8ff" points="359.93,-200.15 369.16,-194.95 358.7,-193.26 359.93,-200.15"/>
</a>
</g>
</g>
<!-- Node13 -->
<g id="Node000013" class="node">
<title>Node13</title>
<g id="a_Node000013"><a xlink:href="classdotnamecpp_1_1utils_1_1PlatformInfoFactory.html#ab7dafcf5ba115a99f7d80fa045639f84" target="_top" xlink:title=" ">
<polygon fill="white" stroke="#666666" points="508.88,-100 376.62,-100 376.62,-56 508.88,-56 508.88,-100"/>
<text xml:space="preserve" text-anchor="start" x="384.62" y="-86.5" font-family="Helvetica,sans-Serif" font-size="10.00">dotnamecpp::utils::</text>
<text xml:space="preserve" text-anchor="start" x="384.62" y="-74.5" font-family="Helvetica,sans-Serif" font-size="10.00">PlatformInfoFactory</text>
<text xml:space="preserve" text-anchor="middle" x="442.75" y="-62.5" font-family="Helvetica,sans-Serif" font-size="10.00">::createForCurrentPlatform</text>
</a>
</g>
</g>
<!-- Node12&#45;&gt;Node13 -->
<g id="edge14_Node000012_Node000013" class="edge">
<title>Node12&#45;&gt;Node13</title>
<g id="a_edge14_Node000012_Node000013"><a xlink:title=" ">
<path fill="none" stroke="#63b8ff" d="M328.11,-78C340.25,-78 352.8,-78 364.93,-78"/>
<polygon fill="#63b8ff" stroke="#63b8ff" points="364.9,-81.5 374.9,-78 364.9,-74.5 364.9,-81.5"/>
</a>
</g>
</g>
</g>
</svg>
