<?xml version="1.0" encoding="UTF-8" standalone="no"?>
<!DOCTYPE svg PUBLIC "-//W3C//DTD SVG 1.1//EN"
 "http://www.w3.org/Graphics/SVG/1.1/DTD/svg11.dtd">
<!-- Generated by graphviz version 13.1.2 (20250808.2320)
 -->
<!-- Title: ConsoleLogger::ConsoleLogger Pages: 1 -->
<svg width="349pt" height="142pt"
 viewBox="0.00 0.00 349.00 142.00" xmlns="http://www.w3.org/2000/svg" xmlns:xlink="http://www.w3.org/1999/xlink">
<g id="graph0" class="graph" transform="scale(1 1) rotate(0) translate(4 138)">
<title>ConsoleLogger::ConsoleLogger</title>
<!-- Node1 -->
<g id="Node000001" class="node">
<title>Node1</title>
<g id="a_Node000001"><a xlink:title=" ">
<polygon fill="#999999" stroke="#666666" points="341,-77 188.5,-77 188.5,-57 341,-57 341,-77"/>
<text xml:space="preserve" text-anchor="middle" x="264.75" y="-63.5" font-family="Helvetica,sans-Serif" font-size="10.00">ConsoleLogger::ConsoleLogger</text>
</a>
</g>
</g>
<!-- Node2 -->
<g id="Node000002" class="node">
<title>Node2</title>
<g id="a_Node000002"><a xlink:href="classConsoleLogger.html#a861ef16d038d599c9ce3a22d2d0644ac" target="_top" xlink:title=" ">
<polygon fill="white" stroke="#666666" points="152.5,-134 0,-134 0,-114 152.5,-114 152.5,-134"/>
<text xml:space="preserve" text-anchor="middle" x="76.25" y="-120.5" font-family="Helvetica,sans-Serif" font-size="10.00">ConsoleLogger::ConsoleLogger</text>
</a>
</g>
</g>
<!-- Node1&#45;&gt;Node2 -->
<g id="edge1_Node000001_Node000002" class="edge">
<title>Node1&#45;&gt;Node2</title>
<g id="a_edge1_Node000001_Node000002"><a xlink:title=" ">
<path fill="none" stroke="#63b8ff" d="M224.31,-81.35C203.15,-88.83 176.55,-97.87 152.5,-105 142.42,-107.99 131.5,-110.92 121.19,-113.55"/>
<polygon fill="#63b8ff" stroke="#63b8ff" points="225.47,-84.65 233.72,-78 223.12,-78.06 225.47,-84.65"/>
</a>
</g>
</g>
<!-- Node3 -->
<g id="Node000003" class="node">
<title>Node3</title>
<g id="a_Node000003"><a xlink:href="classConsoleLogger.html#aef5adf04fa11cfb6f1c8df808c4f9734" target="_top" xlink:title=" ">
<polygon fill="white" stroke="#666666" points="152.5,-96 0,-96 0,-76 152.5,-76 152.5,-96"/>
<text xml:space="preserve" text-anchor="middle" x="76.25" y="-82.5" font-family="Helvetica,sans-Serif" font-size="10.00">ConsoleLogger::ConsoleLogger</text>
</a>
</g>
</g>
<!-- Node1&#45;&gt;Node3 -->
<g id="edge2_Node000001_Node000003" class="edge">
<title>Node1&#45;&gt;Node3</title>
<g id="a_edge2_Node000001_Node000003"><a xlink:title=" ">
<path fill="none" stroke="#63b8ff" d="M176.91,-75.85C168.91,-76.66 160.84,-77.48 152.95,-78.29"/>
<polygon fill="#63b8ff" stroke="#63b8ff" points="177.06,-79.35 186.66,-74.85 176.35,-72.39 177.06,-79.35"/>
</a>
</g>
</g>
<!-- Node4 -->
<g id="Node000004" class="node">
<title>Node4</title>
<g id="a_Node000004"><a xlink:href="classConsoleLogger.html#a1139c6c8d32dafaf463e68c1e3ab1554" target="_top" xlink:title=" ">
<polygon fill="white" stroke="#666666" points="140.5,-58 12,-58 12,-38 140.5,-38 140.5,-58"/>
<text xml:space="preserve" text-anchor="middle" x="76.25" y="-44.5" font-family="Helvetica,sans-Serif" font-size="10.00">ConsoleLogger::operator=</text>
</a>
</g>
</g>
<!-- Node1&#45;&gt;Node4 -->
<g id="edge3_Node000001_Node000004" class="edge">
<title>Node1&#45;&gt;Node4</title>
<g id="a_edge3_Node000001_Node000004"><a xlink:title=" ">
<path fill="none" stroke="#63b8ff" d="M177.07,-58.17C164.92,-56.93 152.61,-55.68 141,-54.49"/>
<polygon fill="#63b8ff" stroke="#63b8ff" points="176.35,-61.61 186.66,-59.15 177.06,-54.65 176.35,-61.61"/>
</a>
</g>
</g>
<!-- Node5 -->
<g id="Node000005" class="node">
<title>Node5</title>
<g id="a_Node000005"><a xlink:href="classConsoleLogger.html#a8c773a671915651392234e88eebcd159" target="_top" xlink:title=" ">
<polygon fill="white" stroke="#666666" points="140.5,-20 12,-20 12,0 140.5,0 140.5,-20"/>
<text xml:space="preserve" text-anchor="middle" x="76.25" y="-6.5" font-family="Helvetica,sans-Serif" font-size="10.00">ConsoleLogger::operator=</text>
</a>
</g>
</g>
<!-- Node1&#45;&gt;Node5 -->
<g id="edge4_Node000001_Node000005" class="edge">
<title>Node1&#45;&gt;Node5</title>
<g id="a_edge4_Node000001_Node000005"><a xlink:title=" ">
<path fill="none" stroke="#63b8ff" d="M224.31,-52.65C203.15,-45.17 176.55,-36.13 152.5,-29 142.42,-26.01 131.5,-23.08 121.19,-20.45"/>
<polygon fill="#63b8ff" stroke="#63b8ff" points="223.12,-55.94 233.72,-56 225.47,-49.35 223.12,-55.94"/>
</a>
</g>
</g>
</g>
</svg>
