<?xml version="1.0" encoding="UTF-8" standalone="no"?>
<!DOCTYPE svg PUBLIC "-//W3C//DTD SVG 1.1//EN"
 "http://www.w3.org/Graphics/SVG/1.1/DTD/svg11.dtd">
<!-- Generated by graphviz version 13.1.2 (20250808.2320)
 -->
<!-- Title: dotnamecpp::utils::FileReader::read Pages: 1 -->
<svg width="196pt" height="446pt"
 viewBox="0.00 0.00 196.00 446.00" xmlns="http://www.w3.org/2000/svg" xmlns:xlink="http://www.w3.org/1999/xlink">

<svg id="main" version="1.1" xmlns="http://www.w3.org/2000/svg" xmlns:xlink="http://www.w3.org/1999/xlink" xml:space="preserve">

<style type="text/css"><![CDATA[
.node, .edge {opacity: 0.7;}
.node.selected, .edge.selected {opacity: 1;}
.edge:hover path { stroke: red; }
.edge:hover polygon { stroke: red; fill: red; }
]]></style>
<script type="application/ecmascript" xlink:href="svg.min.js"/>
<svg id="graph" class="graph">
<g id="graph0" class="graph" transform="scale(1 1) rotate(0) translate(4 442)">
<title>dotnamecpp::utils::FileReader::read</title>
<!-- Node1 -->
<g id="Node000001" class="node">
<title>Node1</title>
<g id="a_Node000001"><a xlink:title="Read the entire content of a file as a string.">
<polygon fill="#999999" stroke="#666666" points="188,-235 88.75,-235 88.75,-203 188,-203 188,-235"/>
<text xml:space="preserve" text-anchor="start" x="96.75" y="-221.5" font-family="Helvetica,sans-Serif" font-size="10.00">dotnamecpp::utils::</text>
<text xml:space="preserve" text-anchor="middle" x="138.38" y="-209.5" font-family="Helvetica,sans-Serif" font-size="10.00">FileReader::read</text>
</a>
</g>
</g>
<!-- Node2 -->
<g id="Node000002" class="node">
<title>Node2</title>
<g id="a_Node000002"><a xlink:href="FileReaderTest_8cpp.html#a8dca95bb6e515a28ed4746bea25769dd" target="_top" xlink:title=" ">
<polygon fill="white" stroke="#666666" points="52.75,-438 0,-438 0,-418 52.75,-418 52.75,-438"/>
<text xml:space="preserve" text-anchor="middle" x="26.38" y="-424.5" font-family="Helvetica,sans-Serif" font-size="10.00">TEST_F</text>
</a>
</g>
</g>
<!-- Node1&#45;&gt;Node2 -->
<g id="edge1_Node000001_Node000002" class="edge">
<title>Node1&#45;&gt;Node2</title>
<g id="a_edge1_Node000001_Node000002"><a xlink:title=" ">
<path fill="none" stroke="#63b8ff" d="M129.95,-246.53C118.37,-285.73 93.06,-358.48 52.75,-409 50.21,-412.18 47.02,-415.11 43.76,-417.67"/>
<polygon fill="#63b8ff" stroke="#63b8ff" points="133.31,-247.53 132.69,-236.95 126.58,-245.61 133.31,-247.53"/>
</a>
</g>
</g>
<!-- Node3 -->
<g id="Node000003" class="node">
<title>Node3</title>
<g id="a_Node000003"><a xlink:href="FileReaderTest_8cpp.html#a3a8d1ccdb41d7b8fb2e4878bdc1da44d" target="_top" xlink:title=" ">
<polygon fill="white" stroke="#666666" points="52.75,-400 0,-400 0,-380 52.75,-380 52.75,-400"/>
<text xml:space="preserve" text-anchor="middle" x="26.38" y="-386.5" font-family="Helvetica,sans-Serif" font-size="10.00">TEST_F</text>
</a>
</g>
</g>
<!-- Node1&#45;&gt;Node3 -->
<g id="edge2_Node000001_Node000003" class="edge">
<title>Node1&#45;&gt;Node3</title>
<g id="a_edge2_Node000001_Node000003"><a xlink:title=" ">
<path fill="none" stroke="#63b8ff" d="M126.57,-245.87C112.75,-278.02 86.52,-332.34 52.75,-371 50,-374.15 46.64,-377.1 43.29,-379.7"/>
<polygon fill="#63b8ff" stroke="#63b8ff" points="129.7,-247.45 130.34,-236.88 123.24,-244.74 129.7,-247.45"/>
</a>
</g>
</g>
<!-- Node4 -->
<g id="Node000004" class="node">
<title>Node4</title>
<g id="a_Node000004"><a xlink:href="FileReaderTest_8cpp.html#a6ec219668ac2d72be1abd31c931b757c" target="_top" xlink:title=" ">
<polygon fill="white" stroke="#666666" points="52.75,-362 0,-362 0,-342 52.75,-342 52.75,-362"/>
<text xml:space="preserve" text-anchor="middle" x="26.38" y="-348.5" font-family="Helvetica,sans-Serif" font-size="10.00">TEST_F</text>
</a>
</g>
</g>
<!-- Node1&#45;&gt;Node4 -->
<g id="edge3_Node000001_Node000004" class="edge">
<title>Node1&#45;&gt;Node4</title>
<g id="a_edge3_Node000001_Node000004"><a xlink:title=" ">
<path fill="none" stroke="#63b8ff" d="M121.33,-244.83C105.58,-269.09 79.99,-305.64 52.75,-333 49.72,-336.04 46.18,-338.99 42.73,-341.63"/>
<polygon fill="#63b8ff" stroke="#63b8ff" points="124.21,-246.84 126.65,-236.53 118.31,-243.06 124.21,-246.84"/>
</a>
</g>
</g>
<!-- Node5 -->
<g id="Node000005" class="node">
<title>Node5</title>
<g id="a_Node000005"><a xlink:href="FileReaderTest_8cpp.html#ac59487bf69bed67b08d3fc878f3c351e" target="_top" xlink:title=" ">
<polygon fill="white" stroke="#666666" points="52.75,-324 0,-324 0,-304 52.75,-304 52.75,-324"/>
<text xml:space="preserve" text-anchor="middle" x="26.38" y="-310.5" font-family="Helvetica,sans-Serif" font-size="10.00">TEST_F</text>
</a>
</g>
</g>
<!-- Node1&#45;&gt;Node5 -->
<g id="edge4_Node000001_Node000005" class="edge">
<title>Node1&#45;&gt;Node5</title>
<g id="a_edge4_Node000001_Node000005"><a xlink:title=" ">
<path fill="none" stroke="#63b8ff" d="M111.86,-243C95.33,-258.27 73.16,-278.25 52.75,-295 49.26,-297.86 45.4,-300.84 41.77,-303.57"/>
<polygon fill="#63b8ff" stroke="#63b8ff" points="113.89,-245.88 118.84,-236.51 109.13,-240.75 113.89,-245.88"/>
</a>
</g>
</g>
<!-- Node6 -->
<g id="Node000006" class="node">
<title>Node6</title>
<g id="a_Node000006"><a xlink:href="FileReaderTest_8cpp.html#aa79ddde8af828aa891c0dcd1c9620dc1" target="_top" xlink:title=" ">
<polygon fill="white" stroke="#666666" points="52.75,-286 0,-286 0,-266 52.75,-266 52.75,-286"/>
<text xml:space="preserve" text-anchor="middle" x="26.38" y="-272.5" font-family="Helvetica,sans-Serif" font-size="10.00">TEST_F</text>
</a>
</g>
</g>
<!-- Node1&#45;&gt;Node6 -->
<g id="edge5_Node000001_Node000006" class="edge">
<title>Node1&#45;&gt;Node6</title>
<g id="a_edge5_Node000001_Node000006"><a xlink:title=" ">
<path fill="none" stroke="#63b8ff" d="M95.54,-240.68C79.01,-249.24 60.79,-258.68 47.35,-265.65"/>
<polygon fill="#63b8ff" stroke="#63b8ff" points="96.95,-243.89 104.21,-236.18 93.73,-237.68 96.95,-243.89"/>
</a>
</g>
</g>
<!-- Node7 -->
<g id="Node000007" class="node">
<title>Node7</title>
<g id="a_Node000007"><a xlink:href="FileReaderTest_8cpp.html#ac54abd444b0514af6f9a47eed294e0cb" target="_top" xlink:title=" ">
<polygon fill="white" stroke="#666666" points="52.75,-248 0,-248 0,-228 52.75,-228 52.75,-248"/>
<text xml:space="preserve" text-anchor="middle" x="26.38" y="-234.5" font-family="Helvetica,sans-Serif" font-size="10.00">TEST_F</text>
</a>
</g>
</g>
<!-- Node1&#45;&gt;Node7 -->
<g id="edge6_Node000001_Node000007" class="edge">
<title>Node1&#45;&gt;Node7</title>
<g id="a_edge6_Node000001_Node000007"><a xlink:title=" ">
<path fill="none" stroke="#63b8ff" d="M77.32,-229.37C68.85,-230.84 60.54,-232.27 53.2,-233.54"/>
<polygon fill="#63b8ff" stroke="#63b8ff" points="77.74,-232.85 87,-227.7 76.55,-225.96 77.74,-232.85"/>
</a>
</g>
</g>
<!-- Node8 -->
<g id="Node000008" class="node">
<title>Node8</title>
<g id="a_Node000008"><a xlink:href="FileReaderTest_8cpp.html#a52adc5c09466e11a5917019b29f1627b" target="_top" xlink:title=" ">
<polygon fill="white" stroke="#666666" points="52.75,-210 0,-210 0,-190 52.75,-190 52.75,-210"/>
<text xml:space="preserve" text-anchor="middle" x="26.38" y="-196.5" font-family="Helvetica,sans-Serif" font-size="10.00">TEST_F</text>
</a>
</g>
</g>
<!-- Node1&#45;&gt;Node8 -->
<g id="edge7_Node000001_Node000008" class="edge">
<title>Node1&#45;&gt;Node8</title>
<g id="a_edge7_Node000001_Node000008"><a xlink:title=" ">
<path fill="none" stroke="#63b8ff" d="M77.32,-208.63C68.85,-207.16 60.54,-205.73 53.2,-204.46"/>
<polygon fill="#63b8ff" stroke="#63b8ff" points="76.55,-212.04 87,-210.3 77.74,-205.15 76.55,-212.04"/>
</a>
</g>
</g>
<!-- Node9 -->
<g id="Node000009" class="node">
<title>Node9</title>
<g id="a_Node000009"><a xlink:href="FileReaderTest_8cpp.html#a14c90d1ce716ee7ee5e179167f1d66c2" target="_top" xlink:title=" ">
<polygon fill="white" stroke="#666666" points="52.75,-172 0,-172 0,-152 52.75,-152 52.75,-172"/>
<text xml:space="preserve" text-anchor="middle" x="26.38" y="-158.5" font-family="Helvetica,sans-Serif" font-size="10.00">TEST_F</text>
</a>
</g>
</g>
<!-- Node1&#45;&gt;Node9 -->
<g id="edge8_Node000001_Node000009" class="edge">
<title>Node1&#45;&gt;Node9</title>
<g id="a_edge8_Node000001_Node000009"><a xlink:title=" ">
<path fill="none" stroke="#63b8ff" d="M95.54,-197.32C79.01,-188.76 60.79,-179.32 47.35,-172.35"/>
<polygon fill="#63b8ff" stroke="#63b8ff" points="93.73,-200.32 104.21,-201.82 96.95,-194.11 93.73,-200.32"/>
</a>
</g>
</g>
<!-- Node10 -->
<g id="Node000010" class="node">
<title>Node10</title>
<g id="a_Node000010"><a xlink:href="FileReaderTest_8cpp.html#a27dbdc8d23757dfe3ecade5b5c94de4a" target="_top" xlink:title=" ">
<polygon fill="white" stroke="#666666" points="52.75,-134 0,-134 0,-114 52.75,-114 52.75,-134"/>
<text xml:space="preserve" text-anchor="middle" x="26.38" y="-120.5" font-family="Helvetica,sans-Serif" font-size="10.00">TEST_F</text>
</a>
</g>
</g>
<!-- Node1&#45;&gt;Node10 -->
<g id="edge9_Node000001_Node000010" class="edge">
<title>Node1&#45;&gt;Node10</title>
<g id="a_edge9_Node000001_Node000010"><a xlink:title=" ">
<path fill="none" stroke="#63b8ff" d="M111.86,-195C95.33,-179.73 73.16,-159.75 52.75,-143 49.26,-140.14 45.4,-137.16 41.77,-134.43"/>
<polygon fill="#63b8ff" stroke="#63b8ff" points="109.13,-197.25 118.84,-201.49 113.89,-192.12 109.13,-197.25"/>
</a>
</g>
</g>
<!-- Node11 -->
<g id="Node000011" class="node">
<title>Node11</title>
<g id="a_Node000011"><a xlink:href="FileReaderTest_8cpp.html#acd46f0f0d3c277efe60653eaa467e1ff" target="_top" xlink:title=" ">
<polygon fill="white" stroke="#666666" points="52.75,-96 0,-96 0,-76 52.75,-76 52.75,-96"/>
<text xml:space="preserve" text-anchor="middle" x="26.38" y="-82.5" font-family="Helvetica,sans-Serif" font-size="10.00">TEST_F</text>
</a>
</g>
</g>
<!-- Node1&#45;&gt;Node11 -->
<g id="edge10_Node000001_Node000011" class="edge">
<title>Node1&#45;&gt;Node11</title>
<g id="a_edge10_Node000001_Node000011"><a xlink:title=" ">
<path fill="none" stroke="#63b8ff" d="M121.33,-193.17C105.58,-168.91 79.99,-132.36 52.75,-105 49.72,-101.96 46.18,-99.01 42.73,-96.37"/>
<polygon fill="#63b8ff" stroke="#63b8ff" points="118.31,-194.94 126.65,-201.47 124.21,-191.16 118.31,-194.94"/>
</a>
</g>
</g>
<!-- Node12 -->
<g id="Node000012" class="node">
<title>Node12</title>
<g id="a_Node000012"><a xlink:href="FileReaderTest_8cpp.html#a3a075140b216f72757e5c0e6f218f46b" target="_top" xlink:title=" ">
<polygon fill="white" stroke="#666666" points="52.75,-58 0,-58 0,-38 52.75,-38 52.75,-58"/>
<text xml:space="preserve" text-anchor="middle" x="26.38" y="-44.5" font-family="Helvetica,sans-Serif" font-size="10.00">TEST_F</text>
</a>
</g>
</g>
<!-- Node1&#45;&gt;Node12 -->
<g id="edge11_Node000001_Node000012" class="edge">
<title>Node1&#45;&gt;Node12</title>
<g id="a_edge11_Node000001_Node000012"><a xlink:title=" ">
<path fill="none" stroke="#63b8ff" d="M126.57,-192.13C112.75,-159.98 86.52,-105.66 52.75,-67 50,-63.85 46.64,-60.9 43.29,-58.3"/>
<polygon fill="#63b8ff" stroke="#63b8ff" points="123.24,-193.26 130.34,-201.12 129.7,-190.55 123.24,-193.26"/>
</a>
</g>
</g>
<!-- Node13 -->
<g id="Node000013" class="node">
<title>Node13</title>
<g id="a_Node000013"><a xlink:href="FileReaderTest_8cpp.html#a7c84d9f0899246617c7ee841a0fd42f5" target="_top" xlink:title=" ">
<polygon fill="white" stroke="#666666" points="52.75,-20 0,-20 0,0 52.75,0 52.75,-20"/>
<text xml:space="preserve" text-anchor="middle" x="26.38" y="-6.5" font-family="Helvetica,sans-Serif" font-size="10.00">TEST_F</text>
</a>
</g>
</g>
<!-- Node1&#45;&gt;Node13 -->
<g id="edge12_Node000001_Node000013" class="edge">
<title>Node1&#45;&gt;Node13</title>
<g id="a_edge12_Node000001_Node000013"><a xlink:title=" ">
<path fill="none" stroke="#63b8ff" d="M129.95,-191.47C118.37,-152.27 93.06,-79.52 52.75,-29 50.21,-25.82 47.02,-22.89 43.76,-20.33"/>
<polygon fill="#63b8ff" stroke="#63b8ff" points="126.58,-192.39 132.69,-201.05 133.31,-190.47 126.58,-192.39"/>
</a>
</g>
</g>
</g>
</svg>
</svg>

<style type='text/css'>
<![CDATA[
[data-mouse-over-selected='false'] { opacity: 0.7; }
[data-mouse-over-selected='true']  { opacity: 1.0; }
]]>
</style>
<script type="application/ecmascript"><![CDATA[
document.addEventListener('DOMContentLoaded', (event) => {
  highlightEdges();
  highlightAdjacentNodes();
});
]]></script>
</svg>
