<?xml version="1.0" encoding="UTF-8" standalone="no"?>
<!DOCTYPE svg PUBLIC "-//W3C//DTD SVG 1.1//EN"
 "http://www.w3.org/Graphics/SVG/1.1/DTD/svg11.dtd">
<!-- Generated by graphviz version 13.1.2 (20250808.2320)
 -->
<!-- Title: dotnamecpp::utils::FileReader::FileReader Pages: 1 -->
<svg width="277pt" height="190pt"
 viewBox="0.00 0.00 277.00 190.00" xmlns="http://www.w3.org/2000/svg" xmlns:xlink="http://www.w3.org/1999/xlink">

<svg id="main" version="1.1" xmlns="http://www.w3.org/2000/svg" xmlns:xlink="http://www.w3.org/1999/xlink" xml:space="preserve">

<style type="text/css"><![CDATA[
.node, .edge {opacity: 0.7;}
.node.selected, .edge.selected {opacity: 1;}
.edge:hover path { stroke: red; }
.edge:hover polygon { stroke: red; fill: red; }
]]></style>
<script type="application/ecmascript" xlink:href="svg.min.js"/>
<svg id="graph" class="graph">
<g id="graph0" class="graph" transform="scale(1 1) rotate(0) translate(4 186)">
<title>dotnamecpp::utils::FileReader::FileReader</title>
<!-- Node1 -->
<g id="Node000001" class="node">
<title>Node1</title>
<g id="a_Node000001"><a xlink:title=" ">
<polygon fill="#999999" stroke="#666666" points="269,-107 152.5,-107 152.5,-75 269,-75 269,-107"/>
<text xml:space="preserve" text-anchor="start" x="160.5" y="-93.5" font-family="Helvetica,sans-Serif" font-size="10.00">dotnamecpp::utils::</text>
<text xml:space="preserve" text-anchor="middle" x="210.75" y="-81.5" font-family="Helvetica,sans-Serif" font-size="10.00">FileReader::FileReader</text>
</a>
</g>
</g>
<!-- Node2 -->
<g id="Node000002" class="node">
<title>Node2</title>
<g id="a_Node000002"><a xlink:href="classdotnamecpp_1_1utils_1_1FileReader.html#a8e975d65c88933e65b8a3e8253f06f0e" target="_top" xlink:title=" ">
<polygon fill="white" stroke="#666666" points="116.5,-182 0,-182 0,-150 116.5,-150 116.5,-182"/>
<text xml:space="preserve" text-anchor="start" x="8" y="-168.5" font-family="Helvetica,sans-Serif" font-size="10.00">dotnamecpp::utils::</text>
<text xml:space="preserve" text-anchor="middle" x="58.25" y="-156.5" font-family="Helvetica,sans-Serif" font-size="10.00">FileReader::FileReader</text>
</a>
</g>
</g>
<!-- Node1&#45;&gt;Node2 -->
<g id="edge1_Node000001_Node000002" class="edge">
<title>Node1&#45;&gt;Node2</title>
<g id="a_edge1_Node000001_Node000002"><a xlink:title=" ">
<path fill="none" stroke="#63b8ff" d="M170.78,-112.8C154.2,-121.83 134.56,-132.23 116.5,-141 110.55,-143.89 104.18,-146.82 97.94,-149.61"/>
<polygon fill="#63b8ff" stroke="#63b8ff" points="172.25,-115.98 179.34,-108.1 168.89,-109.85 172.25,-115.98"/>
</a>
</g>
</g>
<!-- Node3 -->
<g id="Node000003" class="node">
<title>Node3</title>
<g id="a_Node000003"><a xlink:href="classdotnamecpp_1_1utils_1_1FileReader.html#a0c421632b2bed0703fb5d2712637a830" target="_top" xlink:title=" ">
<polygon fill="white" stroke="#666666" points="116.5,-132 0,-132 0,-100 116.5,-100 116.5,-132"/>
<text xml:space="preserve" text-anchor="start" x="8" y="-118.5" font-family="Helvetica,sans-Serif" font-size="10.00">dotnamecpp::utils::</text>
<text xml:space="preserve" text-anchor="middle" x="58.25" y="-106.5" font-family="Helvetica,sans-Serif" font-size="10.00">FileReader::FileReader</text>
</a>
</g>
</g>
<!-- Node1&#45;&gt;Node3 -->
<g id="edge2_Node000001_Node000003" class="edge">
<title>Node1&#45;&gt;Node3</title>
<g id="a_edge2_Node000001_Node000003"><a xlink:title=" ">
<path fill="none" stroke="#63b8ff" d="M141.1,-102.4C133.02,-103.75 124.83,-105.11 116.92,-106.42"/>
<polygon fill="#63b8ff" stroke="#63b8ff" points="141.64,-105.86 150.93,-100.77 140.49,-98.96 141.64,-105.86"/>
</a>
</g>
</g>
<!-- Node4 -->
<g id="Node000004" class="node">
<title>Node4</title>
<g id="a_Node000004"><a xlink:href="classdotnamecpp_1_1utils_1_1FileReader.html#a6689f7cb4a0fab6b64be4c90cbc0d6c2" target="_top" xlink:title=" ">
<polygon fill="white" stroke="#666666" points="113.5,-82 3,-82 3,-50 113.5,-50 113.5,-82"/>
<text xml:space="preserve" text-anchor="start" x="11" y="-68.5" font-family="Helvetica,sans-Serif" font-size="10.00">dotnamecpp::utils::</text>
<text xml:space="preserve" text-anchor="middle" x="58.25" y="-56.5" font-family="Helvetica,sans-Serif" font-size="10.00">FileReader::operator=</text>
</a>
</g>
</g>
<!-- Node1&#45;&gt;Node4 -->
<g id="edge3_Node000001_Node000004" class="edge">
<title>Node1&#45;&gt;Node4</title>
<g id="a_edge3_Node000001_Node000004"><a xlink:title=" ">
<path fill="none" stroke="#63b8ff" d="M141.33,-79.63C132.15,-78.11 122.84,-76.56 113.94,-75.08"/>
<polygon fill="#63b8ff" stroke="#63b8ff" points="140.49,-83.04 150.93,-81.23 141.64,-76.14 140.49,-83.04"/>
</a>
</g>
</g>
<!-- Node5 -->
<g id="Node000005" class="node">
<title>Node5</title>
<g id="a_Node000005"><a xlink:href="classdotnamecpp_1_1utils_1_1FileReader.html#a172d7e49eea2152f6295035f83c17f00" target="_top" xlink:title=" ">
<polygon fill="white" stroke="#666666" points="113.5,-32 3,-32 3,0 113.5,0 113.5,-32"/>
<text xml:space="preserve" text-anchor="start" x="11" y="-18.5" font-family="Helvetica,sans-Serif" font-size="10.00">dotnamecpp::utils::</text>
<text xml:space="preserve" text-anchor="middle" x="58.25" y="-6.5" font-family="Helvetica,sans-Serif" font-size="10.00">FileReader::operator=</text>
</a>
</g>
</g>
<!-- Node1&#45;&gt;Node5 -->
<g id="edge4_Node000001_Node000005" class="edge">
<title>Node1&#45;&gt;Node5</title>
<g id="a_edge4_Node000001_Node000005"><a xlink:title=" ">
<path fill="none" stroke="#63b8ff" d="M170.78,-69.2C154.2,-60.17 134.56,-49.77 116.5,-41 110.55,-38.11 104.18,-35.18 97.94,-32.39"/>
<polygon fill="#63b8ff" stroke="#63b8ff" points="168.89,-72.15 179.34,-73.9 172.25,-66.02 168.89,-72.15"/>
</a>
</g>
</g>
</g>
</svg>
</svg>

<style type='text/css'>
<![CDATA[
[data-mouse-over-selected='false'] { opacity: 0.7; }
[data-mouse-over-selected='true']  { opacity: 1.0; }
]]>
</style>
<script type="application/ecmascript"><![CDATA[
document.addEventListener('DOMContentLoaded', (event) => {
  highlightEdges();
  highlightAdjacentNodes();
});
]]></script>
</svg>
