<?xml version="1.0" encoding="UTF-8" standalone="no"?>
<!DOCTYPE svg PUBLIC "-//W3C//DTD SVG 1.1//EN"
 "http://www.w3.org/Graphics/SVG/1.1/DTD/svg11.dtd">
<!-- Generated by graphviz version 13.1.2 (20250808.2320)
 -->
<!-- Title: dotnamecpp::utils::UnixPlatformInfo::UnixPlatformInfo Pages: 1 -->
<svg width="382pt" height="190pt"
 viewBox="0.00 0.00 382.00 190.00" xmlns="http://www.w3.org/2000/svg" xmlns:xlink="http://www.w3.org/1999/xlink">
<g id="graph0" class="graph" transform="scale(1 1) rotate(0) translate(4 186)">
<title>dotnamecpp::utils::UnixPlatformInfo::UnixPlatformInfo</title>
<!-- Node1 -->
<g id="Node000001" class="node">
<title>Node1</title>
<g id="a_Node000001"><a xlink:title=" ">
<polygon fill="#999999" stroke="#666666" points="374,-107 205,-107 205,-75 374,-75 374,-107"/>
<text xml:space="preserve" text-anchor="start" x="213" y="-93.5" font-family="Helvetica,sans-Serif" font-size="10.00">dotnamecpp::utils::</text>
<text xml:space="preserve" text-anchor="middle" x="289.5" y="-81.5" font-family="Helvetica,sans-Serif" font-size="10.00">UnixPlatformInfo::UnixPlatformInfo</text>
</a>
</g>
</g>
<!-- Node2 -->
<g id="Node000002" class="node">
<title>Node2</title>
<g id="a_Node000002"><a xlink:href="classdotnamecpp_1_1utils_1_1UnixPlatformInfo.html#ae25ce8a95803de12f8492882fe5def2a" target="_top" xlink:title=" ">
<polygon fill="white" stroke="#666666" points="152.88,-182 16.12,-182 16.12,-150 152.88,-150 152.88,-182"/>
<text xml:space="preserve" text-anchor="start" x="24.12" y="-168.5" font-family="Helvetica,sans-Serif" font-size="10.00">dotnamecpp::utils::</text>
<text xml:space="preserve" text-anchor="middle" x="84.5" y="-156.5" font-family="Helvetica,sans-Serif" font-size="10.00">UnixPlatformInfo::operator=</text>
</a>
</g>
</g>
<!-- Node1&#45;&gt;Node2 -->
<g id="edge1_Node000001_Node000002" class="edge">
<title>Node1&#45;&gt;Node2</title>
<g id="a_edge1_Node000001_Node000002"><a xlink:title=" ">
<path fill="none" stroke="#63b8ff" d="M241.68,-111.93C219.81,-121.37 193.29,-132.31 169,-141 160.74,-143.96 151.93,-146.86 143.25,-149.57"/>
<polygon fill="#63b8ff" stroke="#63b8ff" points="242.85,-115.24 250.63,-108.05 240.06,-108.82 242.85,-115.24"/>
</a>
</g>
</g>
<!-- Node3 -->
<g id="Node000003" class="node">
<title>Node3</title>
<g id="a_Node000003"><a xlink:href="classdotnamecpp_1_1utils_1_1UnixPlatformInfo.html#a9cc8aa71bae0f9ca2cbcacc3a759b625" target="_top" xlink:title=" ">
<polygon fill="white" stroke="#666666" points="152.88,-132 16.12,-132 16.12,-100 152.88,-100 152.88,-132"/>
<text xml:space="preserve" text-anchor="start" x="24.12" y="-118.5" font-family="Helvetica,sans-Serif" font-size="10.00">dotnamecpp::utils::</text>
<text xml:space="preserve" text-anchor="middle" x="84.5" y="-106.5" font-family="Helvetica,sans-Serif" font-size="10.00">UnixPlatformInfo::operator=</text>
</a>
</g>
</g>
<!-- Node1&#45;&gt;Node3 -->
<g id="edge2_Node000001_Node000003" class="edge">
<title>Node1&#45;&gt;Node3</title>
<g id="a_edge2_Node000001_Node000003"><a xlink:title=" ">
<path fill="none" stroke="#63b8ff" d="M193.43,-102.71C179.87,-104.38 166.16,-106.07 153.27,-107.65"/>
<polygon fill="#63b8ff" stroke="#63b8ff" points="193.76,-106.19 203.26,-101.5 192.91,-99.25 193.76,-106.19"/>
</a>
</g>
</g>
<!-- Node4 -->
<g id="Node000004" class="node">
<title>Node4</title>
<g id="a_Node000004"><a xlink:href="classdotnamecpp_1_1utils_1_1UnixPlatformInfo.html#aac415767626b6f4c60096afc30956463" target="_top" xlink:title=" ">
<polygon fill="white" stroke="#666666" points="169,-82 0,-82 0,-50 169,-50 169,-82"/>
<text xml:space="preserve" text-anchor="start" x="8" y="-68.5" font-family="Helvetica,sans-Serif" font-size="10.00">dotnamecpp::utils::</text>
<text xml:space="preserve" text-anchor="middle" x="84.5" y="-56.5" font-family="Helvetica,sans-Serif" font-size="10.00">UnixPlatformInfo::UnixPlatformInfo</text>
</a>
</g>
</g>
<!-- Node1&#45;&gt;Node4 -->
<g id="edge3_Node000001_Node000004" class="edge">
<title>Node1&#45;&gt;Node4</title>
<g id="a_edge3_Node000001_Node000004"><a xlink:title=" ">
<path fill="none" stroke="#63b8ff" d="M193.45,-79.29C185.41,-78.3 177.32,-77.31 169.38,-76.33"/>
<polygon fill="#63b8ff" stroke="#63b8ff" points="192.91,-82.75 203.26,-80.5 193.76,-75.81 192.91,-82.75"/>
</a>
</g>
</g>
<!-- Node5 -->
<g id="Node000005" class="node">
<title>Node5</title>
<g id="a_Node000005"><a xlink:href="classdotnamecpp_1_1utils_1_1UnixPlatformInfo.html#a9fcc8a4a986798bb2760b29298d7bb28" target="_top" xlink:title=" ">
<polygon fill="white" stroke="#666666" points="169,-32 0,-32 0,0 169,0 169,-32"/>
<text xml:space="preserve" text-anchor="start" x="8" y="-18.5" font-family="Helvetica,sans-Serif" font-size="10.00">dotnamecpp::utils::</text>
<text xml:space="preserve" text-anchor="middle" x="84.5" y="-6.5" font-family="Helvetica,sans-Serif" font-size="10.00">UnixPlatformInfo::UnixPlatformInfo</text>
</a>
</g>
</g>
<!-- Node1&#45;&gt;Node5 -->
<g id="edge4_Node000001_Node000005" class="edge">
<title>Node1&#45;&gt;Node5</title>
<g id="a_edge4_Node000001_Node000005"><a xlink:title=" ">
<path fill="none" stroke="#63b8ff" d="M241.68,-70.07C219.81,-60.63 193.29,-49.69 169,-41 160.74,-38.04 151.93,-35.14 143.25,-32.43"/>
<polygon fill="#63b8ff" stroke="#63b8ff" points="240.06,-73.18 250.63,-73.95 242.85,-66.76 240.06,-73.18"/>
</a>
</g>
</g>
</g>
</svg>
