<?xml version="1.0" encoding="UTF-8" standalone="no"?>
<!DOCTYPE svg PUBLIC "-//W3C//DTD SVG 1.1//EN"
 "http://www.w3.org/Graphics/SVG/1.1/DTD/svg11.dtd">
<!-- Generated by graphviz version 13.1.2 (20250808.2320)
 -->
<!-- Title: dotnamecpp::assets::AssetManager::resolveAsset Pages: 1 -->
<svg width="424pt" height="186pt"
 viewBox="0.00 0.00 424.00 186.00" xmlns="http://www.w3.org/2000/svg" xmlns:xlink="http://www.w3.org/1999/xlink">

<svg id="main" version="1.1" xmlns="http://www.w3.org/2000/svg" xmlns:xlink="http://www.w3.org/1999/xlink" xml:space="preserve">

<style type="text/css"><![CDATA[
.node, .edge {opacity: 0.7;}
.node.selected, .edge.selected {opacity: 1;}
.edge:hover path { stroke: red; }
.edge:hover polygon { stroke: red; fill: red; }
]]></style>
<script type="application/ecmascript" xlink:href="svg.min.js"/>
<svg id="graph" class="graph">
<g id="graph0" class="graph" transform="scale(1 1) rotate(0) translate(4 182)">
<title>dotnamecpp::assets::AssetManager::resolveAsset</title>
<!-- Node1 -->
<g id="Node000001" class="node">
<title>Node1</title>
<g id="a_Node000001"><a xlink:title="Resolve the full path of an asset given its relative path.">
<polygon fill="#999999" stroke="#666666" points="415.5,-83 267.5,-83 267.5,-51 415.5,-51 415.5,-83"/>
<text xml:space="preserve" text-anchor="start" x="275.5" y="-69.5" font-family="Helvetica,sans-Serif" font-size="10.00">dotnamecpp::assets</text>
<text xml:space="preserve" text-anchor="middle" x="341.5" y="-57.5" font-family="Helvetica,sans-Serif" font-size="10.00">::AssetManager::resolveAsset</text>
</a>
</g>
</g>
<!-- Node2 -->
<g id="Node000002" class="node">
<title>Node2</title>
<g id="a_Node000002"><a xlink:href="classdotnamecpp_1_1assets_1_1AssetManager.html#a3ee89e1d5825272326ad38a69282affd" target="_top" xlink:title="Check if an asset exists given its relative path.">
<polygon fill="white" stroke="#666666" points="231.5,-146 88.75,-146 88.75,-114 231.5,-114 231.5,-146"/>
<text xml:space="preserve" text-anchor="start" x="96.75" y="-132.5" font-family="Helvetica,sans-Serif" font-size="10.00">dotnamecpp::assets</text>
<text xml:space="preserve" text-anchor="middle" x="160.12" y="-120.5" font-family="Helvetica,sans-Serif" font-size="10.00">::AssetManager::assetExists</text>
</a>
</g>
</g>
<!-- Node1&#45;&gt;Node2 -->
<g id="edge1_Node000001_Node000002" class="edge">
<title>Node1&#45;&gt;Node2</title>
<g id="a_edge1_Node000001_Node000002"><a xlink:title=" ">
<path fill="none" stroke="#63b8ff" d="M282.98,-87.2C258.71,-95.73 230.83,-105.52 207.86,-113.58"/>
<polygon fill="#63b8ff" stroke="#63b8ff" points="284.14,-90.51 292.41,-83.89 281.82,-83.9 284.14,-90.51"/>
</a>
</g>
</g>
<!-- Node6 -->
<g id="Node000006" class="node">
<title>Node6</title>
<g id="a_Node000006"><a xlink:href="AssetManagerTest_8cpp.html#afb120c396aab6c89a8f4d65454b3056b" target="_top" xlink:title=" ">
<polygon fill="white" stroke="#666666" points="186.5,-96 133.75,-96 133.75,-76 186.5,-76 186.5,-96"/>
<text xml:space="preserve" text-anchor="middle" x="160.12" y="-82.5" font-family="Helvetica,sans-Serif" font-size="10.00">TEST_F</text>
</a>
</g>
</g>
<!-- Node1&#45;&gt;Node6 -->
<g id="edge5_Node000001_Node000006" class="edge">
<title>Node1&#45;&gt;Node6</title>
<g id="a_edge5_Node000001_Node000006"><a xlink:title=" ">
<path fill="none" stroke="#63b8ff" d="M255.6,-75.99C230.6,-78.64 205.1,-81.34 186.9,-83.27"/>
<polygon fill="#63b8ff" stroke="#63b8ff" points="255.94,-79.48 265.52,-74.94 255.21,-72.52 255.94,-79.48"/>
</a>
</g>
</g>
<!-- Node7 -->
<g id="Node000007" class="node">
<title>Node7</title>
<g id="a_Node000007"><a xlink:href="AssetManagerTest_8cpp.html#a5d60a42a81908ce29588078c1ecb96c2" target="_top" xlink:title=" ">
<polygon fill="white" stroke="#666666" points="186.5,-58 133.75,-58 133.75,-38 186.5,-38 186.5,-58"/>
<text xml:space="preserve" text-anchor="middle" x="160.12" y="-44.5" font-family="Helvetica,sans-Serif" font-size="10.00">TEST_F</text>
</a>
</g>
</g>
<!-- Node1&#45;&gt;Node7 -->
<g id="edge6_Node000001_Node000007" class="edge">
<title>Node1&#45;&gt;Node7</title>
<g id="a_edge6_Node000001_Node000007"><a xlink:title=" ">
<path fill="none" stroke="#63b8ff" d="M255.6,-58.01C230.6,-55.36 205.1,-52.66 186.9,-50.73"/>
<polygon fill="#63b8ff" stroke="#63b8ff" points="255.21,-61.48 265.52,-59.06 255.94,-54.52 255.21,-61.48"/>
</a>
</g>
</g>
<!-- Node8 -->
<g id="Node000008" class="node">
<title>Node8</title>
<g id="a_Node000008"><a xlink:href="AssetManagerTest_8cpp.html#a72e7299bcf134bbe700f73ac083b9994" target="_top" xlink:title=" ">
<polygon fill="white" stroke="#666666" points="186.5,-20 133.75,-20 133.75,0 186.5,0 186.5,-20"/>
<text xml:space="preserve" text-anchor="middle" x="160.12" y="-6.5" font-family="Helvetica,sans-Serif" font-size="10.00">TEST_F</text>
</a>
</g>
</g>
<!-- Node1&#45;&gt;Node8 -->
<g id="edge7_Node000001_Node000008" class="edge">
<title>Node1&#45;&gt;Node8</title>
<g id="a_edge7_Node000001_Node000008"><a xlink:title=" ">
<path fill="none" stroke="#63b8ff" d="M285.26,-46.88C268.12,-40.87 249.1,-34.44 231.5,-29 216.87,-24.48 200.35,-19.99 186.99,-16.51"/>
<polygon fill="#63b8ff" stroke="#63b8ff" points="283.64,-50.02 294.24,-50.05 285.97,-43.42 283.64,-50.02"/>
</a>
</g>
</g>
<!-- Node3 -->
<g id="Node000003" class="node">
<title>Node3</title>
<g id="a_Node000003"><a xlink:href="AssetManagerTest_8cpp.html#a68afa704c1ff22c9610fae4172d24bc4" target="_top" xlink:title=" ">
<polygon fill="white" stroke="#666666" points="52.75,-178 0,-178 0,-158 52.75,-158 52.75,-178"/>
<text xml:space="preserve" text-anchor="middle" x="26.38" y="-164.5" font-family="Helvetica,sans-Serif" font-size="10.00">TEST_F</text>
</a>
</g>
</g>
<!-- Node2&#45;&gt;Node3 -->
<g id="edge2_Node000002_Node000003" class="edge">
<title>Node2&#45;&gt;Node3</title>
<g id="a_edge2_Node000002_Node000003"><a xlink:title=" ">
<path fill="none" stroke="#63b8ff" d="M91.21,-149.59C77.61,-153.51 64.12,-157.4 53.07,-160.59"/>
<polygon fill="#63b8ff" stroke="#63b8ff" points="92.01,-153 100.65,-146.87 90.07,-146.27 92.01,-153"/>
</a>
</g>
</g>
<!-- Node4 -->
<g id="Node000004" class="node">
<title>Node4</title>
<g id="a_Node000004"><a xlink:href="AssetManagerTest_8cpp.html#a08f42620f8e54d3a2e0804f9f064bd94" target="_top" xlink:title=" ">
<polygon fill="white" stroke="#666666" points="52.75,-140 0,-140 0,-120 52.75,-120 52.75,-140"/>
<text xml:space="preserve" text-anchor="middle" x="26.38" y="-126.5" font-family="Helvetica,sans-Serif" font-size="10.00">TEST_F</text>
</a>
</g>
</g>
<!-- Node2&#45;&gt;Node4 -->
<g id="edge3_Node000002_Node000004" class="edge">
<title>Node2&#45;&gt;Node4</title>
<g id="a_edge3_Node000002_Node000004"><a xlink:title=" ">
<path fill="none" stroke="#63b8ff" d="M77.11,-130C68.48,-130 60.25,-130 53.05,-130"/>
<polygon fill="#63b8ff" stroke="#63b8ff" points="77.11,-133.5 87.11,-130 77.11,-126.5 77.11,-133.5"/>
</a>
</g>
</g>
<!-- Node5 -->
<g id="Node000005" class="node">
<title>Node5</title>
<g id="a_Node000005"><a xlink:href="AssetManagerTest_8cpp.html#a4a19ea38d9becf48d8a59679ba370fbb" target="_top" xlink:title=" ">
<polygon fill="white" stroke="#666666" points="52.75,-102 0,-102 0,-82 52.75,-82 52.75,-102"/>
<text xml:space="preserve" text-anchor="middle" x="26.38" y="-88.5" font-family="Helvetica,sans-Serif" font-size="10.00">TEST_F</text>
</a>
</g>
</g>
<!-- Node2&#45;&gt;Node5 -->
<g id="edge4_Node000002_Node000005" class="edge">
<title>Node2&#45;&gt;Node5</title>
<g id="a_edge4_Node000002_Node000005"><a xlink:title=" ">
<path fill="none" stroke="#63b8ff" d="M91.21,-110.41C77.61,-106.49 64.12,-102.6 53.07,-99.41"/>
<polygon fill="#63b8ff" stroke="#63b8ff" points="90.07,-113.73 100.65,-113.13 92.01,-107 90.07,-113.73"/>
</a>
</g>
</g>
</g>
</svg>
</svg>

<style type='text/css'>
<![CDATA[
[data-mouse-over-selected='false'] { opacity: 0.7; }
[data-mouse-over-selected='true']  { opacity: 1.0; }
]]>
</style>
<script type="application/ecmascript"><![CDATA[
document.addEventListener('DOMContentLoaded', (event) => {
  highlightEdges();
  highlightAdjacentNodes();
});
]]></script>
</svg>
