<?xml version="1.0" encoding="UTF-8" standalone="no"?>
<!DOCTYPE svg PUBLIC "-//W3C//DTD SVG 1.1//EN"
 "http://www.w3.org/Graphics/SVG/1.1/DTD/svg11.dtd">
<!-- Generated by graphviz version 13.1.2 (20250808.2320)
 -->
<!-- Title: dotnamecpp::utils::PlatformInfoFactory Pages: 1 -->
<svg width="154pt" height="136pt"
 viewBox="0.00 0.00 154.00 136.00" xmlns="http://www.w3.org/2000/svg" xmlns:xlink="http://www.w3.org/1999/xlink">
<g id="graph0" class="graph" transform="scale(1 1) rotate(0) translate(4 132)">
<title>dotnamecpp::utils::PlatformInfoFactory</title>
<!-- Node1 -->
<g id="Node000001" class="node">
<title>Node1</title>
<g id="a_Node000001"><a xlink:title=" ">
<polygon fill="#999999" stroke="none" points="146.25,-128 0,-128 0,0 146.25,0 146.25,-128"/>
<text xml:space="preserve" text-anchor="start" x="30" y="-114.5" font-family="Helvetica,sans-Serif" font-size="10.00">dotnamecpp::utils::</text>
<text xml:space="preserve" text-anchor="start" x="30" y="-102.5" font-family="Helvetica,sans-Serif" font-size="10.00">PlatformInfoFactory</text>
<text xml:space="preserve" text-anchor="start" x="71.62" y="-86.5" font-family="Helvetica,sans-Serif" font-size="10.00"> </text>
<text xml:space="preserve" text-anchor="start" x="4" y="-70.5" font-family="Helvetica,sans-Serif" font-size="10.00">+</text>
<text xml:space="preserve" text-anchor="start" x="14" y="-70.5" font-family="Helvetica,sans-Serif" font-size="10.00">static std::unique</text>
<text xml:space="preserve" text-anchor="start" x="14" y="-58.5" font-family="Helvetica,sans-Serif" font-size="10.00">_ptr&lt; IPlatformInfo</text>
<text xml:space="preserve" text-anchor="start" x="14" y="-46.5" font-family="Helvetica,sans-Serif" font-size="10.00"> &gt; createForCurrentPlatform()</text>
<text xml:space="preserve" text-anchor="start" x="4" y="-30.5" font-family="Helvetica,sans-Serif" font-size="10.00">+</text>
<text xml:space="preserve" text-anchor="start" x="14" y="-30.5" font-family="Helvetica,sans-Serif" font-size="10.00">static std::unique</text>
<text xml:space="preserve" text-anchor="start" x="14" y="-18.5" font-family="Helvetica,sans-Serif" font-size="10.00">_ptr&lt; IPlatformInfo</text>
<text xml:space="preserve" text-anchor="start" x="14" y="-6.5" font-family="Helvetica,sans-Serif" font-size="10.00"> &gt; create(Platform platform)</text>
<polygon fill="#666666" stroke="#666666" points="0,-98 0,-98 146.25,-98 146.25,-98 0,-98"/>
<polygon fill="#666666" stroke="#666666" points="0,-82 0,-82 146.25,-82 146.25,-82 0,-82"/>
<polygon fill="none" stroke="#666666" points="0,0 0,-128 146.25,-128 146.25,0 0,0"/>
</a>
</g>
</g>
</g>
</svg>
