<?xml version="1.0" encoding="UTF-8" standalone="no"?>
<!DOCTYPE svg PUBLIC "-//W3C//DTD SVG 1.1//EN"
 "http://www.w3.org/Graphics/SVG/1.1/DTD/svg11.dtd">
<!-- Generated by graphviz version 13.1.2 (20250808.2320)
 -->
<!-- Title: ConsoleLogger::warning Pages: 1 -->
<svg width="798pt" height="116pt"
 viewBox="0.00 0.00 798.00 116.00" xmlns="http://www.w3.org/2000/svg" xmlns:xlink="http://www.w3.org/1999/xlink">
<g id="graph0" class="graph" transform="scale(1 1) rotate(0) translate(4 112)">
<title>ConsoleLogger::warning</title>
<!-- Node1 -->
<g id="Node000001" class="node">
<title>Node1</title>
<g id="a_Node000001"><a xlink:title="Log a warning message.">
<polygon fill="#999999" stroke="#666666" points="121,-70 0,-70 0,-50 121,-50 121,-70"/>
<text xml:space="preserve" text-anchor="middle" x="60.5" y="-56.5" font-family="Helvetica,sans-Serif" font-size="10.00">ConsoleLogger::warning</text>
</a>
</g>
</g>
<!-- Node2 -->
<g id="Node000002" class="node">
<title>Node2</title>
<g id="a_Node000002"><a xlink:href="classConsoleLogger.html#a9aa67bea16b85fc2e7f76aa6e6faac26" target="_top" xlink:title="Logs a message with a specified level to the console and optionally to a file.">
<polygon fill="white" stroke="#666666" points="257,-70 157,-70 157,-50 257,-50 257,-70"/>
<text xml:space="preserve" text-anchor="middle" x="207" y="-56.5" font-family="Helvetica,sans-Serif" font-size="10.00">ConsoleLogger::log</text>
</a>
</g>
</g>
<!-- Node1&#45;&gt;Node2 -->
<g id="edge1_Node000001_Node000002" class="edge">
<title>Node1&#45;&gt;Node2</title>
<g id="a_edge1_Node000001_Node000002"><a xlink:title=" ">
<path fill="none" stroke="#63b8ff" d="M121.11,-60C129.05,-60 137.2,-60 145.16,-60"/>
<polygon fill="#63b8ff" stroke="#63b8ff" points="145.12,-63.5 155.12,-60 145.12,-56.5 145.12,-63.5"/>
</a>
</g>
</g>
<!-- Node3 -->
<g id="Node000003" class="node">
<title>Node3</title>
<g id="a_Node000003"><a xlink:href="classConsoleLogger.html#a46e60e26db61000d04cfa66480729f2a" target="_top" xlink:title="Convert a logging level to its string representation.">
<polygon fill="white" stroke="#666666" points="436.5,-108 293,-108 293,-88 436.5,-88 436.5,-108"/>
<text xml:space="preserve" text-anchor="middle" x="364.75" y="-94.5" font-family="Helvetica,sans-Serif" font-size="10.00">ConsoleLogger::levelToString</text>
</a>
</g>
</g>
<!-- Node2&#45;&gt;Node3 -->
<g id="edge2_Node000002_Node000003" class="edge">
<title>Node2&#45;&gt;Node3</title>
<g id="a_edge2_Node000002_Node000003"><a xlink:title=" ">
<path fill="none" stroke="#63b8ff" d="M250.97,-70.48C269.19,-74.93 290.61,-80.16 309.87,-84.85"/>
<polygon fill="#63b8ff" stroke="#63b8ff" points="308.9,-88.22 319.45,-87.19 310.56,-81.42 308.9,-88.22"/>
</a>
</g>
</g>
<!-- Node4 -->
<g id="Node000004" class="node">
<title>Node4</title>
<g id="a_Node000004"><a xlink:href="classConsoleLogger.html#a787b42f6e197b60908113326b9a048fa" target="_top" xlink:title="Reset the console color to default.">
<polygon fill="white" stroke="#666666" points="790.25,-54 645.25,-54 645.25,-22 790.25,-22 790.25,-54"/>
<text xml:space="preserve" text-anchor="start" x="653.25" y="-40.5" font-family="Helvetica,sans-Serif" font-size="10.00">ConsoleLogger::resetConsole</text>
<text xml:space="preserve" text-anchor="middle" x="717.75" y="-28.5" font-family="Helvetica,sans-Serif" font-size="10.00">Color</text>
</a>
</g>
</g>
<!-- Node2&#45;&gt;Node4 -->
<g id="edge3_Node000002_Node000004" class="edge">
<title>Node2&#45;&gt;Node4</title>
<g id="a_edge3_Node000002_Node000004"><a xlink:title=" ">
<path fill="none" stroke="#63b8ff" d="M257.24,-57.87C344.34,-54.1 526.44,-46.23 633.4,-41.6"/>
<polygon fill="#63b8ff" stroke="#63b8ff" points="633.43,-45.11 643.27,-41.18 633.13,-38.11 633.43,-45.11"/>
</a>
</g>
</g>
<!-- Node5 -->
<g id="Node000005" class="node">
<title>Node5</title>
<g id="a_Node000005"><a xlink:href="classConsoleLogger.html#aecacefa838b28f34a80b06d3c68fd541" target="_top" xlink:title=" ">
<polygon fill="white" stroke="#666666" points="433.12,-32 296.38,-32 296.38,0 433.12,0 433.12,-32"/>
<text xml:space="preserve" text-anchor="start" x="304.38" y="-18.5" font-family="Helvetica,sans-Serif" font-size="10.00">ConsoleLogger::setConsole</text>
<text xml:space="preserve" text-anchor="middle" x="364.75" y="-6.5" font-family="Helvetica,sans-Serif" font-size="10.00">Color</text>
</a>
</g>
</g>
<!-- Node2&#45;&gt;Node5 -->
<g id="edge4_Node000002_Node000005" class="edge">
<title>Node2&#45;&gt;Node5</title>
<g id="a_edge4_Node000002_Node000005"><a xlink:title=" ">
<path fill="none" stroke="#63b8ff" d="M244.91,-49.57C259.88,-45.34 277.68,-40.31 294.89,-35.45"/>
<polygon fill="#63b8ff" stroke="#63b8ff" points="295.36,-38.96 304.03,-32.87 293.46,-32.22 295.36,-38.96"/>
</a>
</g>
</g>
<!-- Node6 -->
<g id="Node000006" class="node">
<title>Node6</title>
<g id="a_Node000006"><a xlink:href="classConsoleLogger.html#a7c4374a210726f7bbe380f45a1f99190" target="_top" xlink:title=" ">
<polygon fill="white" stroke="#666666" points="609.25,-32 472.5,-32 472.5,0 609.25,0 609.25,-32"/>
<text xml:space="preserve" text-anchor="start" x="480.5" y="-18.5" font-family="Helvetica,sans-Serif" font-size="10.00">ConsoleLogger::setConsole</text>
<text xml:space="preserve" text-anchor="middle" x="540.88" y="-6.5" font-family="Helvetica,sans-Serif" font-size="10.00">ColorUnix</text>
</a>
</g>
</g>
<!-- Node5&#45;&gt;Node6 -->
<g id="edge5_Node000005_Node000006" class="edge">
<title>Node5&#45;&gt;Node6</title>
<g id="a_edge5_Node000005_Node000006"><a xlink:title=" ">
<path fill="none" stroke="#63b8ff" d="M433.57,-16C442.5,-16 451.71,-16 460.81,-16"/>
<polygon fill="#63b8ff" stroke="#63b8ff" points="460.73,-19.5 470.73,-16 460.73,-12.5 460.73,-19.5"/>
</a>
</g>
</g>
<!-- Node6&#45;&gt;Node4 -->
<g id="edge6_Node000006_Node000004" class="edge">
<title>Node6&#45;&gt;Node4</title>
<g id="a_edge6_Node000006_Node000004"><a xlink:title=" ">
<path fill="none" stroke="#63b8ff" d="M609.74,-24.54C617.57,-25.52 625.62,-26.54 633.62,-27.54"/>
<polygon fill="#63b8ff" stroke="#63b8ff" points="633.02,-30.99 643.37,-28.77 633.89,-24.05 633.02,-30.99"/>
</a>
</g>
</g>
</g>
</svg>
