<?xml version="1.0" encoding="UTF-8" standalone="no"?>
<!DOCTYPE svg PUBLIC "-//W3C//DTD SVG 1.1//EN"
 "http://www.w3.org/Graphics/SVG/1.1/DTD/svg11.dtd">
<!-- Generated by graphviz version 13.1.2 (20250808.2320)
 -->
<!-- Title: dotnamecpp::utils::Result::value Pages: 1 -->
<svg width="243pt" height="340pt"
 viewBox="0.00 0.00 243.00 340.00" xmlns="http://www.w3.org/2000/svg" xmlns:xlink="http://www.w3.org/1999/xlink">

<svg id="main" version="1.1" xmlns="http://www.w3.org/2000/svg" xmlns:xlink="http://www.w3.org/1999/xlink" xml:space="preserve">

<style type="text/css"><![CDATA[
.node, .edge {opacity: 0.7;}
.node.selected, .edge.selected {opacity: 1;}
.edge:hover path { stroke: red; }
.edge:hover polygon { stroke: red; fill: red; }
]]></style>
<script type="application/ecmascript" xlink:href="svg.min.js"/>
<svg id="graph" class="graph">
<g id="graph0" class="graph" transform="scale(1 1) rotate(0) translate(4 336)">
<title>dotnamecpp::utils::Result::value</title>
<!-- Node1 -->
<g id="Node000001" class="node">
<title>Node1</title>
<g id="a_Node000001"><a xlink:title=" ">
<polygon fill="#999999" stroke="#666666" points="234.5,-182 135.25,-182 135.25,-150 234.5,-150 234.5,-182"/>
<text xml:space="preserve" text-anchor="start" x="143.25" y="-168.5" font-family="Helvetica,sans-Serif" font-size="10.00">dotnamecpp::utils::</text>
<text xml:space="preserve" text-anchor="middle" x="184.88" y="-156.5" font-family="Helvetica,sans-Serif" font-size="10.00">Result::value</text>
</a>
</g>
</g>
<!-- Node2 -->
<g id="Node000002" class="node">
<title>Node2</title>
<g id="a_Node000002"><a xlink:href="classdotnamecpp_1_1utils_1_1Result.html#a1fc83a327e942ce7fc86aadb5c724527" target="_top" xlink:title=" ">
<polygon fill="white" stroke="#666666" points="99.25,-332 0,-332 0,-300 99.25,-300 99.25,-332"/>
<text xml:space="preserve" text-anchor="start" x="8" y="-318.5" font-family="Helvetica,sans-Serif" font-size="10.00">dotnamecpp::utils::</text>
<text xml:space="preserve" text-anchor="middle" x="49.62" y="-306.5" font-family="Helvetica,sans-Serif" font-size="10.00">Result::operator*</text>
</a>
</g>
</g>
<!-- Node1&#45;&gt;Node2 -->
<g id="edge1_Node000001_Node000002" class="edge">
<title>Node1&#45;&gt;Node2</title>
<g id="a_edge1_Node000001_Node000002"><a xlink:title=" ">
<path fill="none" stroke="#63b8ff" d="M171.23,-192.12C156.88,-219.57 131.28,-262.61 99.25,-291 95.7,-294.15 91.68,-297.02 87.51,-299.6"/>
<polygon fill="#63b8ff" stroke="#63b8ff" points="174.23,-193.94 175.64,-183.44 167.99,-190.76 174.23,-193.94"/>
</a>
</g>
</g>
<!-- Node3 -->
<g id="Node000003" class="node">
<title>Node3</title>
<g id="a_Node000003"><a xlink:href="classdotnamecpp_1_1utils_1_1Result.html#ab684b1d35265b8ecf157f7f281ba7efb" target="_top" xlink:title=" ">
<polygon fill="white" stroke="#666666" points="99.25,-282 0,-282 0,-250 99.25,-250 99.25,-282"/>
<text xml:space="preserve" text-anchor="start" x="8" y="-268.5" font-family="Helvetica,sans-Serif" font-size="10.00">dotnamecpp::utils::</text>
<text xml:space="preserve" text-anchor="middle" x="49.62" y="-256.5" font-family="Helvetica,sans-Serif" font-size="10.00">Result::operator*</text>
</a>
</g>
</g>
<!-- Node1&#45;&gt;Node3 -->
<g id="edge2_Node000001_Node000003" class="edge">
<title>Node1&#45;&gt;Node3</title>
<g id="a_edge2_Node000001_Node000003"><a xlink:title=" ">
<path fill="none" stroke="#63b8ff" d="M160.14,-189.96C143.87,-205.62 121.33,-225.9 99.25,-241 94.86,-244 90.07,-246.89 85.25,-249.56"/>
<polygon fill="#63b8ff" stroke="#63b8ff" points="162.25,-192.8 166.95,-183.31 157.35,-187.79 162.25,-192.8"/>
</a>
</g>
</g>
<!-- Node4 -->
<g id="Node000004" class="node">
<title>Node4</title>
<g id="a_Node000004"><a xlink:href="classdotnamecpp_1_1utils_1_1Result.html#abf72fc4c6efb9b129b11b1a3638d4ff2" target="_top" xlink:title=" ">
<polygon fill="white" stroke="#666666" points="99.25,-232 0,-232 0,-200 99.25,-200 99.25,-232"/>
<text xml:space="preserve" text-anchor="start" x="8" y="-218.5" font-family="Helvetica,sans-Serif" font-size="10.00">dotnamecpp::utils::</text>
<text xml:space="preserve" text-anchor="middle" x="49.62" y="-206.5" font-family="Helvetica,sans-Serif" font-size="10.00">Result::operator*</text>
</a>
</g>
</g>
<!-- Node1&#45;&gt;Node4 -->
<g id="edge3_Node000001_Node000004" class="edge">
<title>Node1&#45;&gt;Node4</title>
<g id="a_edge3_Node000001_Node000004"><a xlink:title=" ">
<path fill="none" stroke="#63b8ff" d="M129.65,-186.35C117.91,-190.75 105.63,-195.36 94.35,-199.59"/>
<polygon fill="#63b8ff" stroke="#63b8ff" points="130.69,-189.69 138.83,-182.9 128.23,-183.14 130.69,-189.69"/>
</a>
</g>
</g>
<!-- Node5 -->
<g id="Node000005" class="node">
<title>Node5</title>
<g id="a_Node000005"><a xlink:href="classdotnamecpp_1_1utils_1_1Result.html#a59ce67f220041d38c1a8818ee209be08" target="_top" xlink:title=" ">
<polygon fill="white" stroke="#666666" points="99.25,-182 0,-182 0,-150 99.25,-150 99.25,-182"/>
<text xml:space="preserve" text-anchor="start" x="8" y="-168.5" font-family="Helvetica,sans-Serif" font-size="10.00">dotnamecpp::utils::</text>
<text xml:space="preserve" text-anchor="middle" x="49.62" y="-156.5" font-family="Helvetica,sans-Serif" font-size="10.00">Result::operator&#45;&gt;</text>
</a>
</g>
</g>
<!-- Node1&#45;&gt;Node5 -->
<g id="edge4_Node000001_Node000005" class="edge">
<title>Node1&#45;&gt;Node5</title>
<g id="a_edge4_Node000001_Node000005"><a xlink:title=" ">
<path fill="none" stroke="#63b8ff" d="M123.69,-166C115.59,-166 107.36,-166 99.48,-166"/>
<polygon fill="#63b8ff" stroke="#63b8ff" points="123.5,-169.5 133.5,-166 123.5,-162.5 123.5,-169.5"/>
</a>
</g>
</g>
<!-- Node6 -->
<g id="Node000006" class="node">
<title>Node6</title>
<g id="a_Node000006"><a xlink:href="classdotnamecpp_1_1utils_1_1Result.html#a86cb9df24fa64a5baad3a0f9c26a875c" target="_top" xlink:title=" ">
<polygon fill="white" stroke="#666666" points="99.25,-132 0,-132 0,-100 99.25,-100 99.25,-132"/>
<text xml:space="preserve" text-anchor="start" x="8" y="-118.5" font-family="Helvetica,sans-Serif" font-size="10.00">dotnamecpp::utils::</text>
<text xml:space="preserve" text-anchor="middle" x="49.62" y="-106.5" font-family="Helvetica,sans-Serif" font-size="10.00">Result::operator&#45;&gt;</text>
</a>
</g>
</g>
<!-- Node1&#45;&gt;Node6 -->
<g id="edge5_Node000001_Node000006" class="edge">
<title>Node1&#45;&gt;Node6</title>
<g id="a_edge5_Node000001_Node000006"><a xlink:title=" ">
<path fill="none" stroke="#63b8ff" d="M129.65,-145.65C117.91,-141.25 105.63,-136.64 94.35,-132.41"/>
<polygon fill="#63b8ff" stroke="#63b8ff" points="128.23,-148.86 138.83,-149.1 130.69,-142.31 128.23,-148.86"/>
</a>
</g>
</g>
<!-- Node7 -->
<g id="Node000007" class="node">
<title>Node7</title>
<g id="a_Node000007"><a xlink:href="classdotnamecpp_1_1utils_1_1Result.html#a315ac56ac7e02e43b6796d5e95727e28" target="_top" xlink:title=" ">
<polygon fill="white" stroke="#666666" points="99.25,-82 0,-82 0,-50 99.25,-50 99.25,-82"/>
<text xml:space="preserve" text-anchor="start" x="8" y="-68.5" font-family="Helvetica,sans-Serif" font-size="10.00">dotnamecpp::utils::</text>
<text xml:space="preserve" text-anchor="middle" x="49.62" y="-56.5" font-family="Helvetica,sans-Serif" font-size="10.00">Result::Result</text>
</a>
</g>
</g>
<!-- Node1&#45;&gt;Node7 -->
<g id="edge6_Node000001_Node000007" class="edge">
<title>Node1&#45;&gt;Node7</title>
<g id="a_edge6_Node000001_Node000007"><a xlink:title=" ">
<path fill="none" stroke="#63b8ff" d="M160.14,-142.04C143.87,-126.38 121.33,-106.1 99.25,-91 94.86,-88 90.07,-85.11 85.25,-82.44"/>
<polygon fill="#63b8ff" stroke="#63b8ff" points="157.35,-144.21 166.95,-148.69 162.25,-139.2 157.35,-144.21"/>
</a>
</g>
</g>
<!-- Node8 -->
<g id="Node000008" class="node">
<title>Node8</title>
<g id="a_Node000008"><a xlink:href="classdotnamecpp_1_1utils_1_1Result.html#ae885acdf59e7a58c817724cee134580b" target="_top" xlink:title=" ">
<polygon fill="white" stroke="#666666" points="99.25,-32 0,-32 0,0 99.25,0 99.25,-32"/>
<text xml:space="preserve" text-anchor="start" x="8" y="-18.5" font-family="Helvetica,sans-Serif" font-size="10.00">dotnamecpp::utils::</text>
<text xml:space="preserve" text-anchor="middle" x="49.62" y="-6.5" font-family="Helvetica,sans-Serif" font-size="10.00">Result::Result</text>
</a>
</g>
</g>
<!-- Node1&#45;&gt;Node8 -->
<g id="edge7_Node000001_Node000008" class="edge">
<title>Node1&#45;&gt;Node8</title>
<g id="a_edge7_Node000001_Node000008"><a xlink:title=" ">
<path fill="none" stroke="#63b8ff" d="M171.23,-139.88C156.88,-112.43 131.28,-69.39 99.25,-41 95.7,-37.85 91.68,-34.98 87.51,-32.4"/>
<polygon fill="#63b8ff" stroke="#63b8ff" points="167.99,-141.24 175.64,-148.56 174.23,-138.06 167.99,-141.24"/>
</a>
</g>
</g>
</g>
</svg>
</svg>

<style type='text/css'>
<![CDATA[
[data-mouse-over-selected='false'] { opacity: 0.7; }
[data-mouse-over-selected='true']  { opacity: 1.0; }
]]>
</style>
<script type="application/ecmascript"><![CDATA[
document.addEventListener('DOMContentLoaded', (event) => {
  highlightEdges();
  highlightAdjacentNodes();
});
]]></script>
</svg>
