<?xml version="1.0" encoding="UTF-8" standalone="no"?>
<!DOCTYPE svg PUBLIC "-//W3C//DTD SVG 1.1//EN"
 "http://www.w3.org/Graphics/SVG/1.1/DTD/svg11.dtd">
<!-- Generated by graphviz version 13.1.2 (20250808.2320)
 -->
<!-- Title: dotnamecpp::logging::LogStream::LogStream Pages: 1 -->
<svg width="289pt" height="90pt"
 viewBox="0.00 0.00 289.00 90.00" xmlns="http://www.w3.org/2000/svg" xmlns:xlink="http://www.w3.org/1999/xlink">
<g id="graph0" class="graph" transform="scale(1 1) rotate(0) translate(4 86)">
<title>dotnamecpp::logging::LogStream::LogStream</title>
<!-- Node1 -->
<g id="Node000001" class="node">
<title>Node1</title>
<g id="a_Node000001"><a xlink:title=" ">
<polygon fill="#999999" stroke="#666666" points="281,-57 158.5,-57 158.5,-25 281,-25 281,-57"/>
<text xml:space="preserve" text-anchor="start" x="166.5" y="-43.5" font-family="Helvetica,sans-Serif" font-size="10.00">dotnamecpp::logging</text>
<text xml:space="preserve" text-anchor="middle" x="219.75" y="-31.5" font-family="Helvetica,sans-Serif" font-size="10.00">::LogStream::LogStream</text>
</a>
</g>
</g>
<!-- Node2 -->
<g id="Node000002" class="node">
<title>Node2</title>
<g id="a_Node000002"><a xlink:href="classdotnamecpp_1_1logging_1_1LogStream.html#aaabb672a3e630f0b78c62cbe3c1dbf46" target="_top" xlink:title="Stream a value into the log message.">
<polygon fill="white" stroke="#666666" points="122.5,-82 0,-82 0,-50 122.5,-50 122.5,-82"/>
<text xml:space="preserve" text-anchor="start" x="8" y="-68.5" font-family="Helvetica,sans-Serif" font-size="10.00">dotnamecpp::logging</text>
<text xml:space="preserve" text-anchor="middle" x="61.25" y="-56.5" font-family="Helvetica,sans-Serif" font-size="10.00">::LogStream::operator&lt;&lt;</text>
</a>
</g>
</g>
<!-- Node1&#45;&gt;Node2 -->
<g id="edge1_Node000001_Node000002" class="edge">
<title>Node1&#45;&gt;Node2</title>
<g id="a_edge1_Node000001_Node000002"><a xlink:title=" ">
<path fill="none" stroke="#63b8ff" d="M146.95,-52.47C138.9,-53.76 130.75,-55.06 122.85,-56.32"/>
<polygon fill="#63b8ff" stroke="#63b8ff" points="147.43,-55.94 156.75,-50.9 146.32,-49.03 147.43,-55.94"/>
</a>
</g>
</g>
<!-- Node3 -->
<g id="Node000003" class="node">
<title>Node3</title>
<g id="a_Node000003"><a xlink:href="classdotnamecpp_1_1logging_1_1LogStream.html#abed18987dc00618e4edf513f38fb3f2d" target="_top" xlink:title="Stream a manipulator into the log message (e.g., std::endl)">
<polygon fill="white" stroke="#666666" points="122.5,-32 0,-32 0,0 122.5,0 122.5,-32"/>
<text xml:space="preserve" text-anchor="start" x="8" y="-18.5" font-family="Helvetica,sans-Serif" font-size="10.00">dotnamecpp::logging</text>
<text xml:space="preserve" text-anchor="middle" x="61.25" y="-6.5" font-family="Helvetica,sans-Serif" font-size="10.00">::LogStream::operator&lt;&lt;</text>
</a>
</g>
</g>
<!-- Node1&#45;&gt;Node3 -->
<g id="edge2_Node000001_Node000003" class="edge">
<title>Node1&#45;&gt;Node3</title>
<g id="a_edge2_Node000001_Node000003"><a xlink:title=" ">
<path fill="none" stroke="#63b8ff" d="M146.95,-29.53C138.9,-28.24 130.75,-26.94 122.85,-25.68"/>
<polygon fill="#63b8ff" stroke="#63b8ff" points="146.32,-32.97 156.75,-31.1 147.43,-26.06 146.32,-32.97"/>
</a>
</g>
</g>
</g>
</svg>
