<?xml version="1.0" encoding="UTF-8" standalone="no"?>
<!DOCTYPE svg PUBLIC "-//W3C//DTD SVG 1.1//EN"
 "http://www.w3.org/Graphics/SVG/1.1/DTD/svg11.dtd">
<!-- Generated by graphviz version 13.1.2 (20250808.2320)
 -->
<!-- Title: dotnamecpp::emoji::Emoji::getEmoji Pages: 1 -->
<svg width="270pt" height="190pt"
 viewBox="0.00 0.00 270.00 190.00" xmlns="http://www.w3.org/2000/svg" xmlns:xlink="http://www.w3.org/1999/xlink">

<svg id="main" version="1.1" xmlns="http://www.w3.org/2000/svg" xmlns:xlink="http://www.w3.org/1999/xlink" xml:space="preserve">

<style type="text/css"><![CDATA[
.node, .edge {opacity: 0.7;}
.node.selected, .edge.selected {opacity: 1;}
.edge:hover path { stroke: red; }
.edge:hover polygon { stroke: red; fill: red; }
]]></style>
<script type="application/ecmascript" xlink:href="svg.min.js"/>
<svg id="graph" class="graph">
<g id="graph0" class="graph" transform="scale(1 1) rotate(0) translate(4 186)">
<title>dotnamecpp::emoji::Emoji::getEmoji</title>
<!-- Node1 -->
<g id="Node000001" class="node">
<title>Node1</title>
<g id="a_Node000001"><a xlink:title=" ">
<polygon fill="#999999" stroke="#666666" points="262.25,-107 157.75,-107 157.75,-75 262.25,-75 262.25,-107"/>
<text xml:space="preserve" text-anchor="start" x="165.75" y="-93.5" font-family="Helvetica,sans-Serif" font-size="10.00">dotnamecpp::emoji::</text>
<text xml:space="preserve" text-anchor="middle" x="210" y="-81.5" font-family="Helvetica,sans-Serif" font-size="10.00">Emoji::getEmoji</text>
</a>
</g>
</g>
<!-- Node2 -->
<g id="Node000002" class="node">
<title>Node2</title>
<g id="a_Node000002"><a xlink:href="classdotnamecpp_1_1emoji_1_1Emoji.html#ac8f741680b3cebc8a6646b945907fb64" target="_top" xlink:title=" ">
<polygon fill="white" stroke="#666666" points="118,-182 3.75,-182 3.75,-150 118,-150 118,-182"/>
<text xml:space="preserve" text-anchor="start" x="11.75" y="-168.5" font-family="Helvetica,sans-Serif" font-size="10.00">dotnamecpp::emoji::</text>
<text xml:space="preserve" text-anchor="middle" x="60.88" y="-156.5" font-family="Helvetica,sans-Serif" font-size="10.00">Emoji::emojiChainTest</text>
</a>
</g>
</g>
<!-- Node1&#45;&gt;Node2 -->
<g id="edge1_Node000001_Node000002" class="edge">
<title>Node1&#45;&gt;Node2</title>
<g id="a_edge1_Node000001_Node000002"><a xlink:title=" ">
<path fill="none" stroke="#63b8ff" d="M172.66,-113.18C157.2,-122.25 138.83,-132.58 121.75,-141 115.79,-143.94 109.39,-146.85 103.08,-149.59"/>
<polygon fill="#63b8ff" stroke="#63b8ff" points="174.24,-116.31 181.05,-108.2 170.67,-110.29 174.24,-116.31"/>
</a>
</g>
</g>
<!-- Node3 -->
<g id="Node000003" class="node">
<title>Node3</title>
<g id="a_Node000003"><a xlink:href="classdotnamecpp_1_1emoji_1_1Emoji.html#abcd310c04fb879a40e235f66f4498d64" target="_top" xlink:title=" ">
<polygon fill="white" stroke="#666666" points="113.12,-132 8.62,-132 8.62,-100 113.12,-100 113.12,-132"/>
<text xml:space="preserve" text-anchor="start" x="16.62" y="-118.5" font-family="Helvetica,sans-Serif" font-size="10.00">dotnamecpp::emoji::</text>
<text xml:space="preserve" text-anchor="middle" x="60.88" y="-106.5" font-family="Helvetica,sans-Serif" font-size="10.00">Emoji::getEmoji</text>
</a>
</g>
</g>
<!-- Node1&#45;&gt;Node3 -->
<g id="edge2_Node000001_Node000003" class="edge">
<title>Node1&#45;&gt;Node3</title>
<g id="a_edge2_Node000001_Node000003"><a xlink:title=" ">
<path fill="none" stroke="#63b8ff" d="M146.32,-101.65C135.39,-103.51 124.14,-105.42 113.55,-107.22"/>
<polygon fill="#63b8ff" stroke="#63b8ff" points="146.78,-105.12 156.05,-100 145.61,-98.22 146.78,-105.12"/>
</a>
</g>
</g>
<!-- Node4 -->
<g id="Node000004" class="node">
<title>Node4</title>
<g id="a_Node000004"><a xlink:href="classdotnamecpp_1_1emoji_1_1Emoji.html#a0bf52428bf8d5ae5d2e6d1442772e0aa" target="_top" xlink:title=" ">
<polygon fill="white" stroke="#666666" points="113.12,-82 8.62,-82 8.62,-50 113.12,-50 113.12,-82"/>
<text xml:space="preserve" text-anchor="start" x="16.62" y="-68.5" font-family="Helvetica,sans-Serif" font-size="10.00">dotnamecpp::emoji::</text>
<text xml:space="preserve" text-anchor="middle" x="60.88" y="-56.5" font-family="Helvetica,sans-Serif" font-size="10.00">Emoji::getEmoji</text>
</a>
</g>
</g>
<!-- Node1&#45;&gt;Node4 -->
<g id="edge3_Node000001_Node000004" class="edge">
<title>Node1&#45;&gt;Node4</title>
<g id="a_edge3_Node000001_Node000004"><a xlink:title=" ">
<path fill="none" stroke="#63b8ff" d="M146.32,-80.35C135.39,-78.49 124.14,-76.58 113.55,-74.78"/>
<polygon fill="#63b8ff" stroke="#63b8ff" points="145.61,-83.78 156.05,-82 146.78,-76.88 145.61,-83.78"/>
</a>
</g>
</g>
<!-- Node5 -->
<g id="Node000005" class="node">
<title>Node5</title>
<g id="a_Node000005"><a xlink:href="classdotnamecpp_1_1emoji_1_1Emoji.html#a3f5239192f95e65662099eda3030d1b9" target="_top" xlink:title=" ">
<polygon fill="white" stroke="#666666" points="121.75,-32 0,-32 0,0 121.75,0 121.75,-32"/>
<text xml:space="preserve" text-anchor="start" x="8" y="-18.5" font-family="Helvetica,sans-Serif" font-size="10.00">dotnamecpp::emoji::</text>
<text xml:space="preserve" text-anchor="middle" x="60.88" y="-6.5" font-family="Helvetica,sans-Serif" font-size="10.00">Emoji::getRandomEmoji</text>
</a>
</g>
</g>
<!-- Node1&#45;&gt;Node5 -->
<g id="edge4_Node000001_Node000005" class="edge">
<title>Node1&#45;&gt;Node5</title>
<g id="a_edge4_Node000001_Node000005"><a xlink:title=" ">
<path fill="none" stroke="#63b8ff" d="M172.66,-68.82C157.2,-59.75 138.83,-49.42 121.75,-41 115.79,-38.06 109.39,-35.15 103.08,-32.41"/>
<polygon fill="#63b8ff" stroke="#63b8ff" points="170.67,-71.71 181.05,-73.8 174.24,-65.69 170.67,-71.71"/>
</a>
</g>
</g>
</g>
</svg>
</svg>

<style type='text/css'>
<![CDATA[
[data-mouse-over-selected='false'] { opacity: 0.7; }
[data-mouse-over-selected='true']  { opacity: 1.0; }
]]>
</style>
<script type="application/ecmascript"><![CDATA[
document.addEventListener('DOMContentLoaded', (event) => {
  highlightEdges();
  highlightAdjacentNodes();
});
]]></script>
</svg>
