<?xml version="1.0" encoding="UTF-8" standalone="no"?>
<!DOCTYPE svg PUBLIC "-//W3C//DTD SVG 1.1//EN"
 "http://www.w3.org/Graphics/SVG/1.1/DTD/svg11.dtd">
<!-- Generated by graphviz version 13.1.2 (20250808.2320)
 -->
<!-- Title: ConsoleLogger::setConsoleColor Pages: 1 -->
<svg width="499pt" height="40pt"
 viewBox="0.00 0.00 499.00 40.00" xmlns="http://www.w3.org/2000/svg" xmlns:xlink="http://www.w3.org/1999/xlink">
<g id="graph0" class="graph" transform="scale(1 1) rotate(0) translate(4 36)">
<title>ConsoleLogger::setConsoleColor</title>
<!-- Node1 -->
<g id="Node000001" class="node">
<title>Node1</title>
<g id="a_Node000001"><a xlink:title=" ">
<polygon fill="#999999" stroke="#666666" points="136.75,-32 0,-32 0,0 136.75,0 136.75,-32"/>
<text xml:space="preserve" text-anchor="start" x="8" y="-18.5" font-family="Helvetica,sans-Serif" font-size="10.00">ConsoleLogger::setConsole</text>
<text xml:space="preserve" text-anchor="middle" x="68.38" y="-6.5" font-family="Helvetica,sans-Serif" font-size="10.00">Color</text>
</a>
</g>
</g>
<!-- Node2 -->
<g id="Node000002" class="node">
<title>Node2</title>
<g id="a_Node000002"><a xlink:href="classConsoleLogger.html#a7c4374a210726f7bbe380f45a1f99190" target="_top" xlink:title=" ">
<polygon fill="white" stroke="#666666" points="309.5,-32 172.75,-32 172.75,0 309.5,0 309.5,-32"/>
<text xml:space="preserve" text-anchor="start" x="180.75" y="-18.5" font-family="Helvetica,sans-Serif" font-size="10.00">ConsoleLogger::setConsole</text>
<text xml:space="preserve" text-anchor="middle" x="241.12" y="-6.5" font-family="Helvetica,sans-Serif" font-size="10.00">ColorUnix</text>
</a>
</g>
</g>
<!-- Node1&#45;&gt;Node2 -->
<g id="edge1_Node000001_Node000002" class="edge">
<title>Node1&#45;&gt;Node2</title>
<g id="a_edge1_Node000001_Node000002"><a xlink:title=" ">
<path fill="none" stroke="#63b8ff" d="M136.86,-16C144.78,-16 152.91,-16 160.98,-16"/>
<polygon fill="#63b8ff" stroke="#63b8ff" points="160.78,-19.5 170.78,-16 160.78,-12.5 160.78,-19.5"/>
</a>
</g>
</g>
<!-- Node3 -->
<g id="Node000003" class="node">
<title>Node3</title>
<g id="a_Node000003"><a xlink:href="classConsoleLogger.html#a787b42f6e197b60908113326b9a048fa" target="_top" xlink:title="Reset the console color to default.">
<polygon fill="white" stroke="#666666" points="490.5,-32 345.5,-32 345.5,0 490.5,0 490.5,-32"/>
<text xml:space="preserve" text-anchor="start" x="353.5" y="-18.5" font-family="Helvetica,sans-Serif" font-size="10.00">ConsoleLogger::resetConsole</text>
<text xml:space="preserve" text-anchor="middle" x="418" y="-6.5" font-family="Helvetica,sans-Serif" font-size="10.00">Color</text>
</a>
</g>
</g>
<!-- Node2&#45;&gt;Node3 -->
<g id="edge2_Node000002_Node000003" class="edge">
<title>Node2&#45;&gt;Node3</title>
<g id="a_edge2_Node000002_Node000003"><a xlink:title=" ">
<path fill="none" stroke="#63b8ff" d="M309.99,-16C317.82,-16 325.87,-16 333.87,-16"/>
<polygon fill="#63b8ff" stroke="#63b8ff" points="333.61,-19.5 343.61,-16 333.61,-12.5 333.61,-19.5"/>
</a>
</g>
</g>
</g>
</svg>
