<?xml version="1.0" encoding="UTF-8" standalone="no"?>
<!DOCTYPE svg PUBLIC "-//W3C//DTD SVG 1.1//EN"
 "http://www.w3.org/Graphics/SVG/1.1/DTD/svg11.dtd">
<!-- Generated by graphviz version 13.1.2 (20250808.2320)
 -->
<!-- Title: FileReaderTest Pages: 1 -->
<svg width="133pt" height="244pt"
 viewBox="0.00 0.00 133.00 244.00" xmlns="http://www.w3.org/2000/svg" xmlns:xlink="http://www.w3.org/1999/xlink">

<svg id="main" version="1.1" xmlns="http://www.w3.org/2000/svg" xmlns:xlink="http://www.w3.org/1999/xlink" xml:space="preserve">

<style type="text/css"><![CDATA[
.node, .edge {opacity: 0.7;}
.node.selected, .edge.selected {opacity: 1;}
.edge:hover path { stroke: red; }
.edge:hover polygon { stroke: red; fill: red; }
]]></style>
<script type="application/ecmascript" xlink:href="svg.min.js"/>
<svg id="graph" class="graph">
<g id="graph0" class="graph" transform="scale(1 1) rotate(0) translate(4 240)">
<title>FileReaderTest</title>
<!-- Node1 -->
<g id="Node000001" class="node">
<title>Node1</title>
<g id="a_Node000001"><a xlink:title=" ">
<polygon fill="#999999" stroke="none" points="125.25,-148 0,-148 0,0 125.25,0 125.25,-148"/>
<text xml:space="preserve" text-anchor="start" x="29.62" y="-134.5" font-family="Helvetica,sans-Serif" font-size="10.00">FileReaderTest</text>
<text xml:space="preserve" text-anchor="start" x="4" y="-118.5" font-family="Helvetica,sans-Serif" font-size="10.00">#</text>
<text xml:space="preserve" text-anchor="start" x="13.25" y="-118.5" font-family="Helvetica,sans-Serif" font-size="10.00">fs::path testDir_</text>
<text xml:space="preserve" text-anchor="start" x="4" y="-102.5" font-family="Helvetica,sans-Serif" font-size="10.00">#</text>
<text xml:space="preserve" text-anchor="start" x="13.25" y="-102.5" font-family="Helvetica,sans-Serif" font-size="10.00">fs::path simpleFile_</text>
<text xml:space="preserve" text-anchor="start" x="4" y="-86.5" font-family="Helvetica,sans-Serif" font-size="10.00">#</text>
<text xml:space="preserve" text-anchor="start" x="13.25" y="-86.5" font-family="Helvetica,sans-Serif" font-size="10.00">fs::path emptyFile_</text>
<text xml:space="preserve" text-anchor="start" x="4" y="-70.5" font-family="Helvetica,sans-Serif" font-size="10.00">#</text>
<text xml:space="preserve" text-anchor="start" x="13.25" y="-70.5" font-family="Helvetica,sans-Serif" font-size="10.00">fs::path multiLineFile_</text>
<text xml:space="preserve" text-anchor="start" x="4" y="-54.5" font-family="Helvetica,sans-Serif" font-size="10.00">#</text>
<text xml:space="preserve" text-anchor="start" x="13.25" y="-54.5" font-family="Helvetica,sans-Serif" font-size="10.00">fs::path binaryFile_</text>
<text xml:space="preserve" text-anchor="start" x="4" y="-38.5" font-family="Helvetica,sans-Serif" font-size="10.00">#</text>
<text xml:space="preserve" text-anchor="start" x="13.25" y="-38.5" font-family="Helvetica,sans-Serif" font-size="10.00">fs::path unicodeFile_</text>
<text xml:space="preserve" text-anchor="start" x="4" y="-22.5" font-family="Helvetica,sans-Serif" font-size="10.00">#</text>
<text xml:space="preserve" text-anchor="start" x="13.25" y="-22.5" font-family="Helvetica,sans-Serif" font-size="10.00">void SetUp() override</text>
<text xml:space="preserve" text-anchor="start" x="4" y="-6.5" font-family="Helvetica,sans-Serif" font-size="10.00">#</text>
<text xml:space="preserve" text-anchor="start" x="13.25" y="-6.5" font-family="Helvetica,sans-Serif" font-size="10.00">void TearDown() override</text>
<polygon fill="#666666" stroke="#666666" points="0,-130 0,-130 125.25,-130 125.25,-130 0,-130"/>
<polygon fill="#666666" stroke="#666666" points="0,-34 0,-34 11.25,-34 11.25,-34 0,-34"/>
<polygon fill="#666666" stroke="#666666" points="11.25,-34 11.25,-34 125.25,-34 125.25,-34 11.25,-34"/>
<polygon fill="none" stroke="#666666" points="0,0 0,-148 125.25,-148 125.25,0 0,0"/>
</a>
</g>
</g>
<!-- Node2 -->
<g id="Node000002" class="node">
<title>Node2</title>
<g id="a_Node000002"><a xlink:title=" ">
<polygon fill="white" stroke="none" points="93.62,-236 31.62,-236 31.62,-184 93.62,-184 93.62,-236"/>
<text xml:space="preserve" text-anchor="start" x="35.62" y="-222.5" font-family="Helvetica,sans-Serif" font-size="10.00">testing::Test</text>
<text xml:space="preserve" text-anchor="start" x="61.12" y="-206.5" font-family="Helvetica,sans-Serif" font-size="10.00"> </text>
<text xml:space="preserve" text-anchor="start" x="61.12" y="-190.5" font-family="Helvetica,sans-Serif" font-size="10.00"> </text>
<polygon fill="#666666" stroke="#666666" points="31.62,-218 31.62,-218 93.62,-218 93.62,-218 31.62,-218"/>
<polygon fill="#666666" stroke="#666666" points="31.62,-202 31.62,-202 93.62,-202 93.62,-202 31.62,-202"/>
<polygon fill="none" stroke="#666666" points="31.62,-184 31.62,-236 93.62,-236 93.62,-184 31.62,-184"/>
</a>
</g>
</g>
<!-- Node2&#45;&gt;Node1 -->
<g id="edge1_Node000001_Node000002" class="edge">
<title>Node2&#45;&gt;Node1</title>
<g id="a_edge1_Node000001_Node000002"><a xlink:title=" ">
<path fill="none" stroke="#63b8ff" d="M62.62,-172.61C62.62,-164.87 62.62,-156.44 62.62,-147.88"/>
<polygon fill="none" stroke="#63b8ff" points="59.13,-172.6 62.63,-182.6 66.13,-172.6 59.13,-172.6"/>
</a>
</g>
</g>
</g>
</svg>
</svg>

<style type='text/css'>
<![CDATA[
[data-mouse-over-selected='false'] { opacity: 0.7; }
[data-mouse-over-selected='true']  { opacity: 1.0; }
]]>
</style>
<script type="application/ecmascript"><![CDATA[
document.addEventListener('DOMContentLoaded', (event) => {
  highlightEdges();
  highlightAdjacentNodes();
});
]]></script>
</svg>
