<?xml version="1.0" encoding="UTF-8" standalone="no"?>
<!DOCTYPE svg PUBLIC "-//W3C//DTD SVG 1.1//EN"
 "http://www.w3.org/Graphics/SVG/1.1/DTD/svg11.dtd">
<!-- Generated by graphviz version 13.1.2 (20250808.2320)
 -->
<!-- Title: ConsoleLogger::showHeaderTime Pages: 1 -->
<svg width="360pt" height="84pt"
 viewBox="0.00 0.00 360.00 84.00" xmlns="http://www.w3.org/2000/svg" xmlns:xlink="http://www.w3.org/1999/xlink">
<g id="graph0" class="graph" transform="scale(1 1) rotate(0) translate(4 80)">
<title>ConsoleLogger::showHeaderTime</title>
<!-- Node1 -->
<g id="Node000001" class="node">
<title>Node1</title>
<g id="a_Node000001"><a xlink:title="Show or hide the header time in the log output.">
<polygon fill="#999999" stroke="#666666" points="351.5,-39 187.75,-39 187.75,-19 351.5,-19 351.5,-39"/>
<text xml:space="preserve" text-anchor="middle" x="269.62" y="-25.5" font-family="Helvetica,sans-Serif" font-size="10.00">ConsoleLogger::showHeaderTime</text>
</a>
</g>
</g>
<!-- Node2 -->
<g id="Node000002" class="node">
<title>Node2</title>
<g id="a_Node000002"><a xlink:href="classConsoleLogger.html#a777c72f8f45463233b5e29231b2cd659" target="_top" xlink:title="Show or hide all headers in the log output.">
<polygon fill="white" stroke="#666666" points="140.5,-58 11.25,-58 11.25,-38 140.5,-38 140.5,-58"/>
<text xml:space="preserve" text-anchor="middle" x="75.88" y="-44.5" font-family="Helvetica,sans-Serif" font-size="10.00">ConsoleLogger::noHeader</text>
</a>
</g>
</g>
<!-- Node1&#45;&gt;Node2 -->
<g id="edge1_Node000001_Node000002" class="edge">
<title>Node1&#45;&gt;Node2</title>
<g id="a_edge1_Node000001_Node000002"><a xlink:title=" ">
<path fill="none" stroke="#63b8ff" d="M175.97,-38.18C164.09,-39.36 152.15,-40.54 140.87,-41.66"/>
<polygon fill="#63b8ff" stroke="#63b8ff" points="176.19,-41.68 185.8,-37.21 175.5,-34.71 176.19,-41.68"/>
</a>
</g>
</g>
<!-- Node3 -->
<g id="Node000003" class="node">
<title>Node3</title>
<g id="a_Node000003"><a xlink:href="classConsoleLogger.html#ae56e4044605f57c9253807c7e10db745" target="_top" xlink:title="Show or hide specific headers in the log output.">
<polygon fill="white" stroke="#666666" points="151.75,-20 0,-20 0,0 151.75,0 151.75,-20"/>
<text xml:space="preserve" text-anchor="middle" x="75.88" y="-6.5" font-family="Helvetica,sans-Serif" font-size="10.00">ConsoleLogger::visibleHeaders</text>
</a>
</g>
</g>
<!-- Node1&#45;&gt;Node3 -->
<g id="edge3_Node000001_Node000003" class="edge">
<title>Node1&#45;&gt;Node3</title>
<g id="a_edge3_Node000001_Node000003"><a xlink:title=" ">
<path fill="none" stroke="#63b8ff" d="M176.06,-19.83C168.07,-19.04 160.05,-18.24 152.23,-17.47"/>
<polygon fill="#63b8ff" stroke="#63b8ff" points="175.5,-23.29 185.8,-20.79 176.19,-16.32 175.5,-23.29"/>
</a>
</g>
</g>
<!-- Node2&#45;&gt;Node2 -->
<g id="edge2_Node000002_Node000002" class="edge">
<title>Node2&#45;&gt;Node2</title>
<g id="a_edge2_Node000002_Node000002"><a xlink:title=" ">
<path fill="none" stroke="#63b8ff" d="M110.48,-69.11C106.35,-73.14 94.82,-76 75.88,-76 42.2,-76 31.93,-66.98 45.09,-58.34"/>
<polygon fill="#63b8ff" stroke="#63b8ff" points="113.81,-68.02 107.17,-59.77 107.21,-70.36 113.81,-68.02"/>
</a>
</g>
</g>
</g>
</svg>
