<?xml version="1.0" encoding="UTF-8" standalone="no"?>
<!DOCTYPE svg PUBLIC "-//W3C//DTD SVG 1.1//EN"
 "http://www.w3.org/Graphics/SVG/1.1/DTD/svg11.dtd">
<!-- Generated by graphviz version 13.1.2 (20250808.2320)
 -->
<!-- Title: ConsoleLogger::setConsoleColor Pages: 1 -->
<svg width="527pt" height="180pt"
 viewBox="0.00 0.00 527.00 180.00" xmlns="http://www.w3.org/2000/svg" xmlns:xlink="http://www.w3.org/1999/xlink">
<g id="graph0" class="graph" transform="scale(1 1) rotate(0) translate(4 176)">
<title>ConsoleLogger::setConsoleColor</title>
<!-- Node1 -->
<g id="Node000001" class="node">
<title>Node1</title>
<g id="a_Node000001"><a xlink:title=" ">
<polygon fill="#999999" stroke="#666666" points="518.5,-83 381.75,-83 381.75,-51 518.5,-51 518.5,-83"/>
<text xml:space="preserve" text-anchor="start" x="389.75" y="-69.5" font-family="Helvetica,sans-Serif" font-size="10.00">ConsoleLogger::setConsole</text>
<text xml:space="preserve" text-anchor="middle" x="450.12" y="-57.5" font-family="Helvetica,sans-Serif" font-size="10.00">Color</text>
</a>
</g>
</g>
<!-- Node2 -->
<g id="Node000002" class="node">
<title>Node2</title>
<g id="a_Node000002"><a xlink:href="classConsoleLogger.html#a9aa67bea16b85fc2e7f76aa6e6faac26" target="_top" xlink:title="Logs a message with a specified level to the console and optionally to a file.">
<polygon fill="white" stroke="#666666" points="345.75,-96 245.75,-96 245.75,-76 345.75,-76 345.75,-96"/>
<text xml:space="preserve" text-anchor="middle" x="295.75" y="-82.5" font-family="Helvetica,sans-Serif" font-size="10.00">ConsoleLogger::log</text>
</a>
</g>
</g>
<!-- Node1&#45;&gt;Node2 -->
<g id="edge1_Node000001_Node000002" class="edge">
<title>Node1&#45;&gt;Node2</title>
<g id="a_edge1_Node000001_Node000002"><a xlink:title=" ">
<path fill="none" stroke="#63b8ff" d="M370.18,-76.84C361.94,-77.87 353.75,-78.89 345.98,-79.86"/>
<polygon fill="#63b8ff" stroke="#63b8ff" points="370.41,-80.34 379.9,-75.63 369.55,-73.4 370.41,-80.34"/>
</a>
</g>
</g>
<!-- Node9 -->
<g id="Node000009" class="node">
<title>Node9</title>
<g id="a_Node000009"><a xlink:href="ConsoleLoggerTest_8cpp.html#a1a488e15957fde4f49e4a0dfc8ee25cc" target="_top" xlink:title=" ">
<polygon fill="white" stroke="#666666" points="322.12,-58 269.38,-58 269.38,-38 322.12,-38 322.12,-58"/>
<text xml:space="preserve" text-anchor="middle" x="295.75" y="-44.5" font-family="Helvetica,sans-Serif" font-size="10.00">TEST_F</text>
</a>
</g>
</g>
<!-- Node1&#45;&gt;Node9 -->
<g id="edge8_Node000001_Node000009" class="edge">
<title>Node1&#45;&gt;Node9</title>
<g id="a_edge8_Node000001_Node000009"><a xlink:title=" ">
<path fill="none" stroke="#63b8ff" d="M370.05,-57.14C352.75,-54.98 335.65,-52.85 322.32,-51.19"/>
<polygon fill="#63b8ff" stroke="#63b8ff" points="369.55,-60.6 379.9,-58.37 370.41,-53.66 369.55,-60.6"/>
</a>
</g>
</g>
<!-- Node3 -->
<g id="Node000003" class="node">
<title>Node3</title>
<g id="a_Node000003"><a xlink:href="classConsoleLogger.html#adfe7ec1d32cf22b8280363401bc2f331" target="_top" xlink:title="Log a critical message.">
<polygon fill="white" stroke="#666666" points="207.12,-172 91.38,-172 91.38,-152 207.12,-152 207.12,-172"/>
<text xml:space="preserve" text-anchor="middle" x="149.25" y="-158.5" font-family="Helvetica,sans-Serif" font-size="10.00">ConsoleLogger::critical</text>
</a>
</g>
</g>
<!-- Node2&#45;&gt;Node3 -->
<g id="edge2_Node000002_Node000003" class="edge">
<title>Node2&#45;&gt;Node3</title>
<g id="a_edge2_Node000002_Node000003"><a xlink:title=" ">
<path fill="none" stroke="#63b8ff" d="M273.04,-103.07C256.45,-115.47 232.62,-131.95 209.75,-143 203.01,-146.25 195.58,-149.13 188.33,-151.61"/>
<polygon fill="#63b8ff" stroke="#63b8ff" points="274.87,-106.07 280.71,-97.23 270.63,-100.51 274.87,-106.07"/>
</a>
</g>
</g>
<!-- Node4 -->
<g id="Node000004" class="node">
<title>Node4</title>
<g id="a_Node000004"><a xlink:href="classConsoleLogger.html#a872f1edb1c3f27151aea7893257e84f9" target="_top" xlink:title="Log a debug message.">
<polygon fill="white" stroke="#666666" points="206,-134 92.5,-134 92.5,-114 206,-114 206,-134"/>
<text xml:space="preserve" text-anchor="middle" x="149.25" y="-120.5" font-family="Helvetica,sans-Serif" font-size="10.00">ConsoleLogger::debug</text>
</a>
</g>
</g>
<!-- Node2&#45;&gt;Node4 -->
<g id="edge3_Node000002_Node000004" class="edge">
<title>Node2&#45;&gt;Node4</title>
<g id="a_edge3_Node000002_Node000004"><a xlink:title=" ">
<path fill="none" stroke="#63b8ff" d="M243.87,-99.38C226.19,-104.03 206.63,-109.17 189.99,-113.55"/>
<polygon fill="#63b8ff" stroke="#63b8ff" points="244.64,-102.8 253.42,-96.87 242.86,-96.03 244.64,-102.8"/>
</a>
</g>
</g>
<!-- Node5 -->
<g id="Node000005" class="node">
<title>Node5</title>
<g id="a_Node000005"><a xlink:href="classConsoleLogger.html#a8973d67f0a94cf2af0c5c5df4f303ffe" target="_top" xlink:title="Log an error message.">
<polygon fill="white" stroke="#666666" points="202.62,-96 95.88,-96 95.88,-76 202.62,-76 202.62,-96"/>
<text xml:space="preserve" text-anchor="middle" x="149.25" y="-82.5" font-family="Helvetica,sans-Serif" font-size="10.00">ConsoleLogger::error</text>
</a>
</g>
</g>
<!-- Node2&#45;&gt;Node5 -->
<g id="edge4_Node000002_Node000005" class="edge">
<title>Node2&#45;&gt;Node5</title>
<g id="a_edge4_Node000002_Node000005"><a xlink:title=" ">
<path fill="none" stroke="#63b8ff" d="M233.93,-86C223.58,-86 212.92,-86 202.81,-86"/>
<polygon fill="#63b8ff" stroke="#63b8ff" points="233.91,-89.5 243.91,-86 233.91,-82.5 233.91,-89.5"/>
</a>
</g>
</g>
<!-- Node6 -->
<g id="Node000006" class="node">
<title>Node6</title>
<g id="a_Node000006"><a xlink:href="classConsoleLogger.html#ab610c1dfc5564e00841dfeae547f836f" target="_top" xlink:title="Log an info message.">
<polygon fill="white" stroke="#666666" points="200.75,-58 97.75,-58 97.75,-38 200.75,-38 200.75,-58"/>
<text xml:space="preserve" text-anchor="middle" x="149.25" y="-44.5" font-family="Helvetica,sans-Serif" font-size="10.00">ConsoleLogger::info</text>
</a>
</g>
</g>
<!-- Node2&#45;&gt;Node6 -->
<g id="edge5_Node000002_Node000006" class="edge">
<title>Node2&#45;&gt;Node6</title>
<g id="a_edge5_Node000002_Node000006"><a xlink:title=" ">
<path fill="none" stroke="#63b8ff" d="M243.87,-72.62C226.19,-67.97 206.63,-62.83 189.99,-58.45"/>
<polygon fill="#63b8ff" stroke="#63b8ff" points="242.86,-75.97 253.42,-75.13 244.64,-69.2 242.86,-75.97"/>
</a>
</g>
</g>
<!-- Node8 -->
<g id="Node000008" class="node">
<title>Node8</title>
<g id="a_Node000008"><a xlink:href="classConsoleLogger.html#a7c16af28ba75ff33649181778e73c070" target="_top" xlink:title="Log a warning message.">
<polygon fill="white" stroke="#666666" points="209.75,-20 88.75,-20 88.75,0 209.75,0 209.75,-20"/>
<text xml:space="preserve" text-anchor="middle" x="149.25" y="-6.5" font-family="Helvetica,sans-Serif" font-size="10.00">ConsoleLogger::warning</text>
</a>
</g>
</g>
<!-- Node2&#45;&gt;Node8 -->
<g id="edge7_Node000002_Node000008" class="edge">
<title>Node2&#45;&gt;Node8</title>
<g id="a_edge7_Node000002_Node000008"><a xlink:title=" ">
<path fill="none" stroke="#63b8ff" d="M251.53,-70.53C249.54,-69.42 247.6,-68.24 245.75,-67 226.43,-54.03 229.45,-41.37 209.75,-29 204.33,-25.6 198.25,-22.75 192.1,-20.39"/>
<polygon fill="#63b8ff" stroke="#63b8ff" points="249.97,-73.66 260.49,-74.91 253.04,-67.37 249.97,-73.66"/>
</a>
</g>
</g>
<!-- Node7 -->
<g id="Node000007" class="node">
<title>Node7</title>
<g id="a_Node000007"><a xlink:href="ConsoleLoggerTest_8cpp.html#ab35834df4087e6a0d58b5dbefb02da96" target="_top" xlink:title=" ">
<polygon fill="white" stroke="#666666" points="52.75,-58 0,-58 0,-38 52.75,-38 52.75,-58"/>
<text xml:space="preserve" text-anchor="middle" x="26.38" y="-44.5" font-family="Helvetica,sans-Serif" font-size="10.00">TEST_F</text>
</a>
</g>
</g>
<!-- Node6&#45;&gt;Node7 -->
<g id="edge6_Node000006_Node000007" class="edge">
<title>Node6&#45;&gt;Node7</title>
<g id="a_edge6_Node000006_Node000007"><a xlink:title=" ">
<path fill="none" stroke="#63b8ff" d="M85.83,-48C74.28,-48 62.84,-48 53.17,-48"/>
<polygon fill="#63b8ff" stroke="#63b8ff" points="85.82,-51.5 95.82,-48 85.82,-44.5 85.82,-51.5"/>
</a>
</g>
</g>
</g>
</svg>
