<?xml version="1.0" encoding="UTF-8" standalone="no"?>
<!DOCTYPE svg PUBLIC "-//W3C//DTD SVG 1.1//EN"
 "http://www.w3.org/Graphics/SVG/1.1/DTD/svg11.dtd">
<!-- Generated by graphviz version 13.1.2 (20250808.2320)
 -->
<!-- Title: dotnamecpp::utils::StringFormatter::StringFormatter Pages: 1 -->
<svg width="358pt" height="190pt"
 viewBox="0.00 0.00 358.00 190.00" xmlns="http://www.w3.org/2000/svg" xmlns:xlink="http://www.w3.org/1999/xlink">
<g id="graph0" class="graph" transform="scale(1 1) rotate(0) translate(4 186)">
<title>dotnamecpp::utils::StringFormatter::StringFormatter</title>
<!-- Node1 -->
<g id="Node000001" class="node">
<title>Node1</title>
<g id="a_Node000001"><a xlink:title=" ">
<polygon fill="#999999" stroke="#666666" points="350,-107 193,-107 193,-75 350,-75 350,-107"/>
<text xml:space="preserve" text-anchor="start" x="201" y="-93.5" font-family="Helvetica,sans-Serif" font-size="10.00">dotnamecpp::utils::</text>
<text xml:space="preserve" text-anchor="middle" x="271.5" y="-81.5" font-family="Helvetica,sans-Serif" font-size="10.00">StringFormatter::StringFormatter</text>
</a>
</g>
</g>
<!-- Node2 -->
<g id="Node000002" class="node">
<title>Node2</title>
<g id="a_Node000002"><a xlink:href="classdotnamecpp_1_1utils_1_1StringFormatter.html#a02849e618ab41a8cf8e52695a0a2ec22" target="_top" xlink:title=" ">
<polygon fill="white" stroke="#666666" points="143.88,-182 13.12,-182 13.12,-150 143.88,-150 143.88,-182"/>
<text xml:space="preserve" text-anchor="start" x="21.12" y="-168.5" font-family="Helvetica,sans-Serif" font-size="10.00">dotnamecpp::utils::</text>
<text xml:space="preserve" text-anchor="middle" x="78.5" y="-156.5" font-family="Helvetica,sans-Serif" font-size="10.00">StringFormatter::operator=</text>
</a>
</g>
</g>
<!-- Node1&#45;&gt;Node2 -->
<g id="edge1_Node000001_Node000002" class="edge">
<title>Node1&#45;&gt;Node2</title>
<g id="a_edge1_Node000001_Node000002"><a xlink:title=" ">
<path fill="none" stroke="#63b8ff" d="M225.25,-112.21C204.63,-121.54 179.79,-132.33 157,-141 149.34,-143.92 141.17,-146.79 133.11,-149.5"/>
<polygon fill="#63b8ff" stroke="#63b8ff" points="226.59,-115.45 234.23,-108.11 223.68,-109.08 226.59,-115.45"/>
</a>
</g>
</g>
<!-- Node3 -->
<g id="Node000003" class="node">
<title>Node3</title>
<g id="a_Node000003"><a xlink:href="classdotnamecpp_1_1utils_1_1StringFormatter.html#a033f88774ba71e1c6d4beb913d2f6175" target="_top" xlink:title=" ">
<polygon fill="white" stroke="#666666" points="143.88,-132 13.12,-132 13.12,-100 143.88,-100 143.88,-132"/>
<text xml:space="preserve" text-anchor="start" x="21.12" y="-118.5" font-family="Helvetica,sans-Serif" font-size="10.00">dotnamecpp::utils::</text>
<text xml:space="preserve" text-anchor="middle" x="78.5" y="-106.5" font-family="Helvetica,sans-Serif" font-size="10.00">StringFormatter::operator=</text>
</a>
</g>
</g>
<!-- Node1&#45;&gt;Node3 -->
<g id="edge2_Node000001_Node000003" class="edge">
<title>Node1&#45;&gt;Node3</title>
<g id="a_edge2_Node000001_Node000003"><a xlink:title=" ">
<path fill="none" stroke="#63b8ff" d="M181.13,-102.7C168.65,-104.33 156.02,-105.98 144.11,-107.54"/>
<polygon fill="#63b8ff" stroke="#63b8ff" points="181.58,-106.17 191.04,-101.4 180.67,-99.23 181.58,-106.17"/>
</a>
</g>
</g>
<!-- Node4 -->
<g id="Node000004" class="node">
<title>Node4</title>
<g id="a_Node000004"><a xlink:href="classdotnamecpp_1_1utils_1_1StringFormatter.html#a9248b007a7c80b0c8677fd12122a4cc1" target="_top" xlink:title=" ">
<polygon fill="white" stroke="#666666" points="157,-82 0,-82 0,-50 157,-50 157,-82"/>
<text xml:space="preserve" text-anchor="start" x="8" y="-68.5" font-family="Helvetica,sans-Serif" font-size="10.00">dotnamecpp::utils::</text>
<text xml:space="preserve" text-anchor="middle" x="78.5" y="-56.5" font-family="Helvetica,sans-Serif" font-size="10.00">StringFormatter::StringFormatter</text>
</a>
</g>
</g>
<!-- Node1&#45;&gt;Node4 -->
<g id="edge3_Node000001_Node000004" class="edge">
<title>Node1&#45;&gt;Node4</title>
<g id="a_edge3_Node000001_Node000004"><a xlink:title=" ">
<path fill="none" stroke="#63b8ff" d="M181.25,-79.32C173.22,-78.27 165.13,-77.21 157.21,-76.17"/>
<polygon fill="#63b8ff" stroke="#63b8ff" points="180.67,-82.77 191.04,-80.6 181.58,-75.83 180.67,-82.77"/>
</a>
</g>
</g>
<!-- Node5 -->
<g id="Node000005" class="node">
<title>Node5</title>
<g id="a_Node000005"><a xlink:href="classdotnamecpp_1_1utils_1_1StringFormatter.html#a7c279457678987318d7acb33a1c99c5d" target="_top" xlink:title=" ">
<polygon fill="white" stroke="#666666" points="157,-32 0,-32 0,0 157,0 157,-32"/>
<text xml:space="preserve" text-anchor="start" x="8" y="-18.5" font-family="Helvetica,sans-Serif" font-size="10.00">dotnamecpp::utils::</text>
<text xml:space="preserve" text-anchor="middle" x="78.5" y="-6.5" font-family="Helvetica,sans-Serif" font-size="10.00">StringFormatter::StringFormatter</text>
</a>
</g>
</g>
<!-- Node1&#45;&gt;Node5 -->
<g id="edge4_Node000001_Node000005" class="edge">
<title>Node1&#45;&gt;Node5</title>
<g id="a_edge4_Node000001_Node000005"><a xlink:title=" ">
<path fill="none" stroke="#63b8ff" d="M225.25,-69.79C204.63,-60.46 179.79,-49.67 157,-41 149.34,-38.08 141.17,-35.21 133.11,-32.5"/>
<polygon fill="#63b8ff" stroke="#63b8ff" points="223.68,-72.92 234.23,-73.89 226.59,-66.55 223.68,-72.92"/>
</a>
</g>
</g>
</g>
</svg>
