<?xml version="1.0" encoding="UTF-8" standalone="no"?>
<!DOCTYPE svg PUBLIC "-//W3C//DTD SVG 1.1//EN"
 "http://www.w3.org/Graphics/SVG/1.1/DTD/svg11.dtd">
<!-- Generated by graphviz version 13.1.2 (20250808.2320)
 -->
<!-- Title: dotnamecpp::utils::PathResolver::PathResolver Pages: 1 -->
<svg width="325pt" height="190pt"
 viewBox="0.00 0.00 325.00 190.00" xmlns="http://www.w3.org/2000/svg" xmlns:xlink="http://www.w3.org/1999/xlink">

<svg id="main" version="1.1" xmlns="http://www.w3.org/2000/svg" xmlns:xlink="http://www.w3.org/1999/xlink" xml:space="preserve">

<style type="text/css"><![CDATA[
.node, .edge {opacity: 0.7;}
.node.selected, .edge.selected {opacity: 1;}
.edge:hover path { stroke: red; }
.edge:hover polygon { stroke: red; fill: red; }
]]></style>
<script type="application/ecmascript" xlink:href="svg.min.js"/>
<svg id="graph" class="graph">
<g id="graph0" class="graph" transform="scale(1 1) rotate(0) translate(4 186)">
<title>dotnamecpp::utils::PathResolver::PathResolver</title>
<!-- Node1 -->
<g id="Node000001" class="node">
<title>Node1</title>
<g id="a_Node000001"><a xlink:title=" ">
<polygon fill="#999999" stroke="#666666" points="317,-107 176.5,-107 176.5,-75 317,-75 317,-107"/>
<text xml:space="preserve" text-anchor="start" x="184.5" y="-93.5" font-family="Helvetica,sans-Serif" font-size="10.00">dotnamecpp::utils::</text>
<text xml:space="preserve" text-anchor="middle" x="246.75" y="-81.5" font-family="Helvetica,sans-Serif" font-size="10.00">PathResolver::PathResolver</text>
</a>
</g>
</g>
<!-- Node2 -->
<g id="Node000002" class="node">
<title>Node2</title>
<g id="a_Node000002"><a xlink:href="classdotnamecpp_1_1utils_1_1PathResolver.html#ad1acb099b8d67310076403790837f08d" target="_top" xlink:title=" ">
<polygon fill="white" stroke="#666666" points="131.5,-182 9,-182 9,-150 131.5,-150 131.5,-182"/>
<text xml:space="preserve" text-anchor="start" x="17" y="-168.5" font-family="Helvetica,sans-Serif" font-size="10.00">dotnamecpp::utils::</text>
<text xml:space="preserve" text-anchor="middle" x="70.25" y="-156.5" font-family="Helvetica,sans-Serif" font-size="10.00">PathResolver::operator=</text>
</a>
</g>
</g>
<!-- Node1&#45;&gt;Node2 -->
<g id="edge1_Node000001_Node000002" class="edge">
<title>Node1&#45;&gt;Node2</title>
<g id="a_edge1_Node000001_Node000002"><a xlink:title=" ">
<path fill="none" stroke="#63b8ff" d="M203.27,-112.33C184.26,-121.58 161.45,-132.26 140.5,-141 133.54,-143.9 126.11,-146.79 118.79,-149.53"/>
<polygon fill="#63b8ff" stroke="#63b8ff" points="204.61,-115.58 212.05,-108.03 201.53,-109.29 204.61,-115.58"/>
</a>
</g>
</g>
<!-- Node3 -->
<g id="Node000003" class="node">
<title>Node3</title>
<g id="a_Node000003"><a xlink:href="classdotnamecpp_1_1utils_1_1PathResolver.html#af37ac5449eead4b09c3d7a7b3f724caf" target="_top" xlink:title=" ">
<polygon fill="white" stroke="#666666" points="131.5,-132 9,-132 9,-100 131.5,-100 131.5,-132"/>
<text xml:space="preserve" text-anchor="start" x="17" y="-118.5" font-family="Helvetica,sans-Serif" font-size="10.00">dotnamecpp::utils::</text>
<text xml:space="preserve" text-anchor="middle" x="70.25" y="-106.5" font-family="Helvetica,sans-Serif" font-size="10.00">PathResolver::operator=</text>
</a>
</g>
</g>
<!-- Node1&#45;&gt;Node3 -->
<g id="edge2_Node000001_Node000003" class="edge">
<title>Node1&#45;&gt;Node3</title>
<g id="a_edge2_Node000001_Node000003"><a xlink:title=" ">
<path fill="none" stroke="#63b8ff" d="M164.96,-102.57C153.82,-104.17 142.54,-105.79 131.85,-107.32"/>
<polygon fill="#63b8ff" stroke="#63b8ff" points="165.13,-106.09 174.53,-101.2 164.14,-99.16 165.13,-106.09"/>
</a>
</g>
</g>
<!-- Node4 -->
<g id="Node000004" class="node">
<title>Node4</title>
<g id="a_Node000004"><a xlink:href="classdotnamecpp_1_1utils_1_1PathResolver.html#a5b37aac34266dbd5ca461fc051cf3ee1" target="_top" xlink:title=" ">
<polygon fill="white" stroke="#666666" points="140.5,-82 0,-82 0,-50 140.5,-50 140.5,-82"/>
<text xml:space="preserve" text-anchor="start" x="8" y="-68.5" font-family="Helvetica,sans-Serif" font-size="10.00">dotnamecpp::utils::</text>
<text xml:space="preserve" text-anchor="middle" x="70.25" y="-56.5" font-family="Helvetica,sans-Serif" font-size="10.00">PathResolver::PathResolver</text>
</a>
</g>
</g>
<!-- Node1&#45;&gt;Node4 -->
<g id="edge3_Node000001_Node000004" class="edge">
<title>Node1&#45;&gt;Node4</title>
<g id="a_edge3_Node000001_Node000004"><a xlink:title=" ">
<path fill="none" stroke="#63b8ff" d="M164.8,-79.4C156.8,-78.26 148.73,-77.1 140.86,-75.97"/>
<polygon fill="#63b8ff" stroke="#63b8ff" points="164.14,-82.84 174.53,-80.8 165.13,-75.91 164.14,-82.84"/>
</a>
</g>
</g>
<!-- Node5 -->
<g id="Node000005" class="node">
<title>Node5</title>
<g id="a_Node000005"><a xlink:href="classdotnamecpp_1_1utils_1_1PathResolver.html#a6adad9f693ad991a38d2d73cf19b890a" target="_top" xlink:title=" ">
<polygon fill="white" stroke="#666666" points="140.5,-32 0,-32 0,0 140.5,0 140.5,-32"/>
<text xml:space="preserve" text-anchor="start" x="8" y="-18.5" font-family="Helvetica,sans-Serif" font-size="10.00">dotnamecpp::utils::</text>
<text xml:space="preserve" text-anchor="middle" x="70.25" y="-6.5" font-family="Helvetica,sans-Serif" font-size="10.00">PathResolver::PathResolver</text>
</a>
</g>
</g>
<!-- Node1&#45;&gt;Node5 -->
<g id="edge4_Node000001_Node000005" class="edge">
<title>Node1&#45;&gt;Node5</title>
<g id="a_edge4_Node000001_Node000005"><a xlink:title=" ">
<path fill="none" stroke="#63b8ff" d="M203.27,-69.67C184.26,-60.42 161.45,-49.74 140.5,-41 133.54,-38.1 126.11,-35.21 118.79,-32.47"/>
<polygon fill="#63b8ff" stroke="#63b8ff" points="201.53,-72.71 212.05,-73.97 204.61,-66.42 201.53,-72.71"/>
</a>
</g>
</g>
</g>
</svg>
</svg>

<style type='text/css'>
<![CDATA[
[data-mouse-over-selected='false'] { opacity: 0.7; }
[data-mouse-over-selected='true']  { opacity: 1.0; }
]]>
</style>
<script type="application/ecmascript"><![CDATA[
document.addEventListener('DOMContentLoaded', (event) => {
  highlightEdges();
  highlightAdjacentNodes();
});
]]></script>
</svg>
