<?xml version="1.0" encoding="UTF-8" standalone="no"?>
<!DOCTYPE svg PUBLIC "-//W3C//DTD SVG 1.1//EN"
 "http://www.w3.org/Graphics/SVG/1.1/DTD/svg11.dtd">
<!-- Generated by graphviz version 13.1.2 (20250808.2320)
 -->
<!-- Title: dotnamecpp::utils::FileWriter::FileWriter Pages: 1 -->
<svg width="253pt" height="190pt"
 viewBox="0.00 0.00 253.00 190.00" xmlns="http://www.w3.org/2000/svg" xmlns:xlink="http://www.w3.org/1999/xlink">
<g id="graph0" class="graph" transform="scale(1 1) rotate(0) translate(4 186)">
<title>dotnamecpp::utils::FileWriter::FileWriter</title>
<!-- Node1 -->
<g id="Node000001" class="node">
<title>Node1</title>
<g id="a_Node000001"><a xlink:title=" ">
<polygon fill="#999999" stroke="#666666" points="245,-107 140.5,-107 140.5,-75 245,-75 245,-107"/>
<text xml:space="preserve" text-anchor="start" x="148.5" y="-93.5" font-family="Helvetica,sans-Serif" font-size="10.00">dotnamecpp::utils::</text>
<text xml:space="preserve" text-anchor="middle" x="192.75" y="-81.5" font-family="Helvetica,sans-Serif" font-size="10.00">FileWriter::FileWriter</text>
</a>
</g>
</g>
<!-- Node2 -->
<g id="Node000002" class="node">
<title>Node2</title>
<g id="a_Node000002"><a xlink:href="classdotnamecpp_1_1utils_1_1FileWriter.html#a6578a49e857789feff5a61ed8a115146" target="_top" xlink:title=" ">
<polygon fill="white" stroke="#666666" points="104.5,-182 0,-182 0,-150 104.5,-150 104.5,-182"/>
<text xml:space="preserve" text-anchor="start" x="8" y="-168.5" font-family="Helvetica,sans-Serif" font-size="10.00">dotnamecpp::utils::</text>
<text xml:space="preserve" text-anchor="middle" x="52.25" y="-156.5" font-family="Helvetica,sans-Serif" font-size="10.00">FileWriter::FileWriter</text>
</a>
</g>
</g>
<!-- Node1&#45;&gt;Node2 -->
<g id="edge1_Node000001_Node000002" class="edge">
<title>Node1&#45;&gt;Node2</title>
<g id="a_edge1_Node000001_Node000002"><a xlink:title=" ">
<path fill="none" stroke="#63b8ff" d="M154.46,-113.1C139.11,-122 121.08,-132.22 104.5,-141 99.16,-143.83 93.46,-146.73 87.87,-149.5"/>
<polygon fill="#63b8ff" stroke="#63b8ff" points="155.93,-116.29 162.81,-108.23 152.41,-110.24 155.93,-116.29"/>
</a>
</g>
</g>
<!-- Node3 -->
<g id="Node000003" class="node">
<title>Node3</title>
<g id="a_Node000003"><a xlink:href="classdotnamecpp_1_1utils_1_1FileWriter.html#ac883f4c0c300ca4bcee879d0d28f6cea" target="_top" xlink:title=" ">
<polygon fill="white" stroke="#666666" points="104.5,-132 0,-132 0,-100 104.5,-100 104.5,-132"/>
<text xml:space="preserve" text-anchor="start" x="8" y="-118.5" font-family="Helvetica,sans-Serif" font-size="10.00">dotnamecpp::utils::</text>
<text xml:space="preserve" text-anchor="middle" x="52.25" y="-106.5" font-family="Helvetica,sans-Serif" font-size="10.00">FileWriter::FileWriter</text>
</a>
</g>
</g>
<!-- Node1&#45;&gt;Node3 -->
<g id="edge2_Node000001_Node000003" class="edge">
<title>Node1&#45;&gt;Node3</title>
<g id="a_edge2_Node000001_Node000003"><a xlink:title=" ">
<path fill="none" stroke="#63b8ff" d="M128.92,-102.34C120.87,-103.79 112.71,-105.27 104.87,-106.68"/>
<polygon fill="#63b8ff" stroke="#63b8ff" points="129.47,-105.8 138.69,-100.58 128.23,-98.91 129.47,-105.8"/>
</a>
</g>
</g>
<!-- Node4 -->
<g id="Node000004" class="node">
<title>Node4</title>
<g id="a_Node000004"><a xlink:href="classdotnamecpp_1_1utils_1_1FileWriter.html#afe71b9f4e34123472d4cbe9dc4ec1305" target="_top" xlink:title=" ">
<polygon fill="white" stroke="#666666" points="104.5,-82 0,-82 0,-50 104.5,-50 104.5,-82"/>
<text xml:space="preserve" text-anchor="start" x="8" y="-68.5" font-family="Helvetica,sans-Serif" font-size="10.00">dotnamecpp::utils::</text>
<text xml:space="preserve" text-anchor="middle" x="52.25" y="-56.5" font-family="Helvetica,sans-Serif" font-size="10.00">FileWriter::operator=</text>
</a>
</g>
</g>
<!-- Node1&#45;&gt;Node4 -->
<g id="edge3_Node000001_Node000004" class="edge">
<title>Node1&#45;&gt;Node4</title>
<g id="a_edge3_Node000001_Node000004"><a xlink:title=" ">
<path fill="none" stroke="#63b8ff" d="M128.92,-79.66C120.87,-78.21 112.71,-76.73 104.87,-75.32"/>
<polygon fill="#63b8ff" stroke="#63b8ff" points="128.23,-83.09 138.69,-81.42 129.47,-76.2 128.23,-83.09"/>
</a>
</g>
</g>
<!-- Node5 -->
<g id="Node000005" class="node">
<title>Node5</title>
<g id="a_Node000005"><a xlink:href="classdotnamecpp_1_1utils_1_1FileWriter.html#a2ebe2780adbd603fd37da6e77bed78c3" target="_top" xlink:title=" ">
<polygon fill="white" stroke="#666666" points="104.5,-32 0,-32 0,0 104.5,0 104.5,-32"/>
<text xml:space="preserve" text-anchor="start" x="8" y="-18.5" font-family="Helvetica,sans-Serif" font-size="10.00">dotnamecpp::utils::</text>
<text xml:space="preserve" text-anchor="middle" x="52.25" y="-6.5" font-family="Helvetica,sans-Serif" font-size="10.00">FileWriter::operator=</text>
</a>
</g>
</g>
<!-- Node1&#45;&gt;Node5 -->
<g id="edge4_Node000001_Node000005" class="edge">
<title>Node1&#45;&gt;Node5</title>
<g id="a_edge4_Node000001_Node000005"><a xlink:title=" ">
<path fill="none" stroke="#63b8ff" d="M154.46,-68.9C139.11,-60 121.08,-49.78 104.5,-41 99.16,-38.17 93.46,-35.27 87.87,-32.5"/>
<polygon fill="#63b8ff" stroke="#63b8ff" points="152.41,-71.76 162.81,-73.77 155.93,-65.71 152.41,-71.76"/>
</a>
</g>
</g>
</g>
</svg>
