<?xml version="1.0" encoding="UTF-8" standalone="no"?>
<!DOCTYPE svg PUBLIC "-//W3C//DTD SVG 1.1//EN"
 "http://www.w3.org/Graphics/SVG/1.1/DTD/svg11.dtd">
<!-- Generated by graphviz version 13.1.2 (20250808.2320)
 -->
<!-- Title: dotnamecpp::utils::DirectoryManager::DirectoryManager Pages: 1 -->
<svg width="324pt" height="214pt"
 viewBox="0.00 0.00 324.00 214.00" xmlns="http://www.w3.org/2000/svg" xmlns:xlink="http://www.w3.org/1999/xlink">
<g id="graph0" class="graph" transform="scale(1 1) rotate(0) translate(4 210)">
<title>dotnamecpp::utils::DirectoryManager::DirectoryManager</title>
<!-- Node1 -->
<g id="Node000001" class="node">
<title>Node1</title>
<g id="a_Node000001"><a xlink:title=" ">
<polygon fill="#999999" stroke="#666666" points="315.5,-116 176.5,-116 176.5,-72 315.5,-72 315.5,-116"/>
<text xml:space="preserve" text-anchor="start" x="184.5" y="-102.5" font-family="Helvetica,sans-Serif" font-size="10.00">dotnamecpp::utils::</text>
<text xml:space="preserve" text-anchor="start" x="184.5" y="-90.5" font-family="Helvetica,sans-Serif" font-size="10.00">DirectoryManager::Directory</text>
<text xml:space="preserve" text-anchor="middle" x="246" y="-78.5" font-family="Helvetica,sans-Serif" font-size="10.00">Manager</text>
</a>
</g>
</g>
<!-- Node2 -->
<g id="Node000002" class="node">
<title>Node2</title>
<g id="a_Node000002"><a xlink:href="classdotnamecpp_1_1utils_1_1DirectoryManager.html#a79a7f65ee015e18cfd6ce51ea41fdc67" target="_top" xlink:title=" ">
<polygon fill="white" stroke="#666666" points="139.75,-206 0.75,-206 0.75,-162 139.75,-162 139.75,-206"/>
<text xml:space="preserve" text-anchor="start" x="8.75" y="-192.5" font-family="Helvetica,sans-Serif" font-size="10.00">dotnamecpp::utils::</text>
<text xml:space="preserve" text-anchor="start" x="8.75" y="-180.5" font-family="Helvetica,sans-Serif" font-size="10.00">DirectoryManager::Directory</text>
<text xml:space="preserve" text-anchor="middle" x="70.25" y="-168.5" font-family="Helvetica,sans-Serif" font-size="10.00">Manager</text>
</a>
</g>
</g>
<!-- Node1&#45;&gt;Node2 -->
<g id="edge1_Node000001_Node000002" class="edge">
<title>Node1&#45;&gt;Node2</title>
<g id="a_edge1_Node000001_Node000002"><a xlink:title=" ">
<path fill="none" stroke="#63b8ff" d="M197.69,-121.94C179.95,-132.09 159.49,-143.42 140.5,-153 134.86,-155.85 128.89,-158.72 122.93,-161.5"/>
<polygon fill="#63b8ff" stroke="#63b8ff" points="199.01,-125.22 205.93,-117.2 195.52,-119.15 199.01,-125.22"/>
</a>
</g>
</g>
<!-- Node3 -->
<g id="Node000003" class="node">
<title>Node3</title>
<g id="a_Node000003"><a xlink:href="classdotnamecpp_1_1utils_1_1DirectoryManager.html#ae4f51c0d86c80a54632ae13c57e44bec" target="_top" xlink:title=" ">
<polygon fill="white" stroke="#666666" points="139.75,-144 0.75,-144 0.75,-100 139.75,-100 139.75,-144"/>
<text xml:space="preserve" text-anchor="start" x="8.75" y="-130.5" font-family="Helvetica,sans-Serif" font-size="10.00">dotnamecpp::utils::</text>
<text xml:space="preserve" text-anchor="start" x="8.75" y="-118.5" font-family="Helvetica,sans-Serif" font-size="10.00">DirectoryManager::Directory</text>
<text xml:space="preserve" text-anchor="middle" x="70.25" y="-106.5" font-family="Helvetica,sans-Serif" font-size="10.00">Manager</text>
</a>
</g>
</g>
<!-- Node1&#45;&gt;Node3 -->
<g id="edge2_Node000001_Node000003" class="edge">
<title>Node1&#45;&gt;Node3</title>
<g id="a_edge2_Node000001_Node000003"><a xlink:title=" ">
<path fill="none" stroke="#63b8ff" d="M165.01,-106.89C156.65,-108.24 148.21,-109.6 139.99,-110.92"/>
<polygon fill="#63b8ff" stroke="#63b8ff" points="165.52,-110.35 174.84,-105.31 164.41,-103.44 165.52,-110.35"/>
</a>
</g>
</g>
<!-- Node4 -->
<g id="Node000004" class="node">
<title>Node4</title>
<g id="a_Node000004"><a xlink:href="classdotnamecpp_1_1utils_1_1DirectoryManager.html#a1e1660882bd430c9038e8d6530149b25" target="_top" xlink:title=" ">
<polygon fill="white" stroke="#666666" points="140.5,-82 0,-82 0,-50 140.5,-50 140.5,-82"/>
<text xml:space="preserve" text-anchor="start" x="8" y="-68.5" font-family="Helvetica,sans-Serif" font-size="10.00">dotnamecpp::utils::</text>
<text xml:space="preserve" text-anchor="middle" x="70.25" y="-56.5" font-family="Helvetica,sans-Serif" font-size="10.00">DirectoryManager::operator=</text>
</a>
</g>
</g>
<!-- Node1&#45;&gt;Node4 -->
<g id="edge3_Node000001_Node000004" class="edge">
<title>Node1&#45;&gt;Node4</title>
<g id="a_edge3_Node000001_Node000004"><a xlink:title=" ">
<path fill="none" stroke="#63b8ff" d="M165.01,-81.11C156.94,-79.81 148.79,-78.5 140.85,-77.22"/>
<polygon fill="#63b8ff" stroke="#63b8ff" points="164.41,-84.56 174.84,-82.69 165.52,-77.65 164.41,-84.56"/>
</a>
</g>
</g>
<!-- Node5 -->
<g id="Node000005" class="node">
<title>Node5</title>
<g id="a_Node000005"><a xlink:href="classdotnamecpp_1_1utils_1_1DirectoryManager.html#a7f71a757e95cb895d77dc7221ec6b4f0" target="_top" xlink:title=" ">
<polygon fill="white" stroke="#666666" points="140.5,-32 0,-32 0,0 140.5,0 140.5,-32"/>
<text xml:space="preserve" text-anchor="start" x="8" y="-18.5" font-family="Helvetica,sans-Serif" font-size="10.00">dotnamecpp::utils::</text>
<text xml:space="preserve" text-anchor="middle" x="70.25" y="-6.5" font-family="Helvetica,sans-Serif" font-size="10.00">DirectoryManager::operator=</text>
</a>
</g>
</g>
<!-- Node1&#45;&gt;Node5 -->
<g id="edge4_Node000001_Node000005" class="edge">
<title>Node1&#45;&gt;Node5</title>
<g id="a_edge4_Node000001_Node000005"><a xlink:title=" ">
<path fill="none" stroke="#63b8ff" d="M193.5,-66.3C176.8,-57.74 158.05,-48.58 140.5,-41 133.69,-38.06 126.42,-35.17 119.23,-32.45"/>
<polygon fill="#63b8ff" stroke="#63b8ff" points="191.78,-69.35 202.27,-70.83 194.99,-63.13 191.78,-69.35"/>
</a>
</g>
</g>
</g>
</svg>
