<?xml version="1.0" encoding="UTF-8" standalone="no"?>
<!DOCTYPE svg PUBLIC "-//W3C//DTD SVG 1.1//EN"
 "http://www.w3.org/Graphics/SVG/1.1/DTD/svg11.dtd">
<!-- Generated by graphviz version 13.1.2 (20250808.2320)
 -->
<!-- Title: dotnamecpp::v1::EmojiModuleLib::EmojiModuleLib Pages: 1 -->
<svg width="340pt" height="190pt"
 viewBox="0.00 0.00 340.00 190.00" xmlns="http://www.w3.org/2000/svg" xmlns:xlink="http://www.w3.org/1999/xlink">

<svg id="main" version="1.1" xmlns="http://www.w3.org/2000/svg" xmlns:xlink="http://www.w3.org/1999/xlink" xml:space="preserve">

<style type="text/css"><![CDATA[
.node, .edge {opacity: 0.7;}
.node.selected, .edge.selected {opacity: 1;}
.edge:hover path { stroke: red; }
.edge:hover polygon { stroke: red; fill: red; }
]]></style>
<script type="application/ecmascript" xlink:href="svg.min.js"/>
<svg id="graph" class="graph">
<g id="graph0" class="graph" transform="scale(1 1) rotate(0) translate(4 186)">
<title>dotnamecpp::v1::EmojiModuleLib::EmojiModuleLib</title>
<!-- Node1 -->
<g id="Node000001" class="node">
<title>Node1</title>
<g id="a_Node000001"><a xlink:title=" ">
<polygon fill="#999999" stroke="#666666" points="332,-107 184,-107 184,-75 332,-75 332,-107"/>
<text xml:space="preserve" text-anchor="start" x="192" y="-93.5" font-family="Helvetica,sans-Serif" font-size="10.00">dotnamecpp::v1::EmojiModule</text>
<text xml:space="preserve" text-anchor="middle" x="258" y="-81.5" font-family="Helvetica,sans-Serif" font-size="10.00">Lib::EmojiModuleLib</text>
</a>
</g>
</g>
<!-- Node2 -->
<g id="Node000002" class="node">
<title>Node2</title>
<g id="a_Node000002"><a xlink:href="classdotnamecpp_1_1v1_1_1EmojiModuleLib.html#a5d8445b1b1726b15fa4201ceeeba3d2d" target="_top" xlink:title=" ">
<polygon fill="white" stroke="#666666" points="148,-182 0,-182 0,-150 148,-150 148,-182"/>
<text xml:space="preserve" text-anchor="start" x="8" y="-168.5" font-family="Helvetica,sans-Serif" font-size="10.00">dotnamecpp::v1::EmojiModule</text>
<text xml:space="preserve" text-anchor="middle" x="74" y="-156.5" font-family="Helvetica,sans-Serif" font-size="10.00">Lib::EmojiModuleLib</text>
</a>
</g>
</g>
<!-- Node1&#45;&gt;Node2 -->
<g id="edge1_Node000001_Node000002" class="edge">
<title>Node1&#45;&gt;Node2</title>
<g id="a_edge1_Node000001_Node000002"><a xlink:title=" ">
<path fill="none" stroke="#63b8ff" d="M213.28,-112.27C193.54,-121.56 169.8,-132.29 148,-141 140.66,-143.93 132.83,-146.84 125.12,-149.58"/>
<polygon fill="#63b8ff" stroke="#63b8ff" points="214.6,-115.52 222.13,-108.07 211.6,-109.19 214.6,-115.52"/>
</a>
</g>
</g>
<!-- Node3 -->
<g id="Node000003" class="node">
<title>Node3</title>
<g id="a_Node000003"><a xlink:href="classdotnamecpp_1_1v1_1_1EmojiModuleLib.html#a20d7d8c8fa177dcb2e37323fa3efa564" target="_top" xlink:title=" ">
<polygon fill="white" stroke="#666666" points="148,-132 0,-132 0,-100 148,-100 148,-132"/>
<text xml:space="preserve" text-anchor="start" x="8" y="-118.5" font-family="Helvetica,sans-Serif" font-size="10.00">dotnamecpp::v1::EmojiModule</text>
<text xml:space="preserve" text-anchor="middle" x="74" y="-106.5" font-family="Helvetica,sans-Serif" font-size="10.00">Lib::EmojiModuleLib</text>
</a>
</g>
</g>
<!-- Node1&#45;&gt;Node3 -->
<g id="edge2_Node000001_Node000003" class="edge">
<title>Node1&#45;&gt;Node3</title>
<g id="a_edge2_Node000001_Node000003"><a xlink:title=" ">
<path fill="none" stroke="#63b8ff" d="M172.46,-102.61C164.42,-103.72 156.31,-104.83 148.39,-105.92"/>
<polygon fill="#63b8ff" stroke="#63b8ff" points="172.83,-106.09 182.26,-101.27 171.88,-99.16 172.83,-106.09"/>
</a>
</g>
</g>
<!-- Node4 -->
<g id="Node000004" class="node">
<title>Node4</title>
<g id="a_Node000004"><a xlink:href="classdotnamecpp_1_1v1_1_1EmojiModuleLib.html#a66e80702039aee3938b3b3e6b380b60d" target="_top" xlink:title=" ">
<polygon fill="white" stroke="#666666" points="148,-82 0,-82 0,-50 148,-50 148,-82"/>
<text xml:space="preserve" text-anchor="start" x="8" y="-68.5" font-family="Helvetica,sans-Serif" font-size="10.00">dotnamecpp::v1::EmojiModule</text>
<text xml:space="preserve" text-anchor="middle" x="74" y="-56.5" font-family="Helvetica,sans-Serif" font-size="10.00">Lib::operator=</text>
</a>
</g>
</g>
<!-- Node1&#45;&gt;Node4 -->
<g id="edge3_Node000001_Node000004" class="edge">
<title>Node1&#45;&gt;Node4</title>
<g id="a_edge3_Node000001_Node000004"><a xlink:title=" ">
<path fill="none" stroke="#63b8ff" d="M172.46,-79.39C164.42,-78.28 156.31,-77.17 148.39,-76.08"/>
<polygon fill="#63b8ff" stroke="#63b8ff" points="171.88,-82.84 182.26,-80.73 172.83,-75.91 171.88,-82.84"/>
</a>
</g>
</g>
<!-- Node5 -->
<g id="Node000005" class="node">
<title>Node5</title>
<g id="a_Node000005"><a xlink:href="classdotnamecpp_1_1v1_1_1EmojiModuleLib.html#af641a2b1020a0e18265cc0dc44f9bad7" target="_top" xlink:title=" ">
<polygon fill="white" stroke="#666666" points="148,-32 0,-32 0,0 148,0 148,-32"/>
<text xml:space="preserve" text-anchor="start" x="8" y="-18.5" font-family="Helvetica,sans-Serif" font-size="10.00">dotnamecpp::v1::EmojiModule</text>
<text xml:space="preserve" text-anchor="middle" x="74" y="-6.5" font-family="Helvetica,sans-Serif" font-size="10.00">Lib::operator=</text>
</a>
</g>
</g>
<!-- Node1&#45;&gt;Node5 -->
<g id="edge4_Node000001_Node000005" class="edge">
<title>Node1&#45;&gt;Node5</title>
<g id="a_edge4_Node000001_Node000005"><a xlink:title=" ">
<path fill="none" stroke="#63b8ff" d="M213.28,-69.73C193.54,-60.44 169.8,-49.71 148,-41 140.66,-38.07 132.83,-35.16 125.12,-32.42"/>
<polygon fill="#63b8ff" stroke="#63b8ff" points="211.6,-72.81 222.13,-73.93 214.6,-66.48 211.6,-72.81"/>
</a>
</g>
</g>
</g>
</svg>
</svg>

<style type='text/css'>
<![CDATA[
[data-mouse-over-selected='false'] { opacity: 0.7; }
[data-mouse-over-selected='true']  { opacity: 1.0; }
]]>
</style>
<script type="application/ecmascript"><![CDATA[
document.addEventListener('DOMContentLoaded', (event) => {
  highlightEdges();
  highlightAdjacentNodes();
});
]]></script>
</svg>
