<?xml version="1.0" encoding="UTF-8" standalone="no"?>
<!DOCTYPE svg PUBLIC "-//W3C//DTD SVG 1.1//EN"
 "http://www.w3.org/Graphics/SVG/1.1/DTD/svg11.dtd">
<!-- Generated by graphviz version 13.1.2 (20250808.2320)
 -->
<!-- Title: ConsoleLogger::showHeaderName Pages: 1 -->
<svg width="364pt" height="84pt"
 viewBox="0.00 0.00 364.00 84.00" xmlns="http://www.w3.org/2000/svg" xmlns:xlink="http://www.w3.org/1999/xlink">
<g id="graph0" class="graph" transform="scale(1 1) rotate(0) translate(4 80)">
<title>ConsoleLogger::showHeaderName</title>
<!-- Node1 -->
<g id="Node000001" class="node">
<title>Node1</title>
<g id="a_Node000001"><a xlink:title="Show or hide the header name in the log output.">
<polygon fill="#999999" stroke="#666666" points="356,-39 187.75,-39 187.75,-19 356,-19 356,-39"/>
<text xml:space="preserve" text-anchor="middle" x="271.88" y="-25.5" font-family="Helvetica,sans-Serif" font-size="10.00">ConsoleLogger::showHeaderName</text>
</a>
</g>
</g>
<!-- Node2 -->
<g id="Node000002" class="node">
<title>Node2</title>
<g id="a_Node000002"><a xlink:href="classConsoleLogger.html#a777c72f8f45463233b5e29231b2cd659" target="_top" xlink:title="Show or hide all headers in the log output.">
<polygon fill="white" stroke="#666666" points="140.5,-58 11.25,-58 11.25,-38 140.5,-38 140.5,-58"/>
<text xml:space="preserve" text-anchor="middle" x="75.88" y="-44.5" font-family="Helvetica,sans-Serif" font-size="10.00">ConsoleLogger::noHeader</text>
</a>
</g>
</g>
<!-- Node1&#45;&gt;Node2 -->
<g id="edge1_Node000001_Node000002" class="edge">
<title>Node1&#45;&gt;Node2</title>
<g id="a_edge1_Node000001_Node000002"><a xlink:title=" ">
<path fill="none" stroke="#63b8ff" d="M176.07,-38.28C164.14,-39.45 152.17,-40.63 140.87,-41.73"/>
<polygon fill="#63b8ff" stroke="#63b8ff" points="176.36,-41.77 185.97,-37.32 175.68,-34.81 176.36,-41.77"/>
</a>
</g>
</g>
<!-- Node3 -->
<g id="Node000003" class="node">
<title>Node3</title>
<g id="a_Node000003"><a xlink:href="classConsoleLogger.html#ae56e4044605f57c9253807c7e10db745" target="_top" xlink:title="Show or hide specific headers in the log output.">
<polygon fill="white" stroke="#666666" points="151.75,-20 0,-20 0,0 151.75,0 151.75,-20"/>
<text xml:space="preserve" text-anchor="middle" x="75.88" y="-6.5" font-family="Helvetica,sans-Serif" font-size="10.00">ConsoleLogger::visibleHeaders</text>
</a>
</g>
</g>
<!-- Node1&#45;&gt;Node3 -->
<g id="edge3_Node000001_Node000003" class="edge">
<title>Node1&#45;&gt;Node3</title>
<g id="a_edge3_Node000001_Node000003"><a xlink:title=" ">
<path fill="none" stroke="#63b8ff" d="M176.17,-19.72C168.14,-18.94 160.09,-18.15 152.24,-17.38"/>
<polygon fill="#63b8ff" stroke="#63b8ff" points="175.68,-23.19 185.97,-20.68 176.36,-16.23 175.68,-23.19"/>
</a>
</g>
</g>
<!-- Node2&#45;&gt;Node2 -->
<g id="edge2_Node000002_Node000002" class="edge">
<title>Node2&#45;&gt;Node2</title>
<g id="a_edge2_Node000002_Node000002"><a xlink:title=" ">
<path fill="none" stroke="#63b8ff" d="M110.88,-69.11C106.71,-73.14 95.04,-76 75.88,-76 41.8,-76 31.42,-66.98 44.73,-58.34"/>
<polygon fill="#63b8ff" stroke="#63b8ff" points="114.2,-67.99 107.53,-59.76 107.61,-70.36 114.2,-67.99"/>
</a>
</g>
</g>
</g>
</svg>
