<?xml version="1.0" encoding="UTF-8" standalone="no"?>
<!DOCTYPE svg PUBLIC "-//W3C//DTD SVG 1.1//EN"
 "http://www.w3.org/Graphics/SVG/1.1/DTD/svg11.dtd">
<!-- Generated by graphviz version 13.1.2 (20250808.2320)
 -->
<!-- Title: dotnamecpp::utils::FileReader::readBytes Pages: 1 -->
<svg width="210pt" height="142pt"
 viewBox="0.00 0.00 210.00 142.00" xmlns="http://www.w3.org/2000/svg" xmlns:xlink="http://www.w3.org/1999/xlink">

<svg id="main" version="1.1" xmlns="http://www.w3.org/2000/svg" xmlns:xlink="http://www.w3.org/1999/xlink" xml:space="preserve">

<style type="text/css"><![CDATA[
.node, .edge {opacity: 0.7;}
.node.selected, .edge.selected {opacity: 1;}
.edge:hover path { stroke: red; }
.edge:hover polygon { stroke: red; fill: red; }
]]></style>
<script type="application/ecmascript" xlink:href="svg.min.js"/>
<svg id="graph" class="graph">
<g id="graph0" class="graph" transform="scale(1 1) rotate(0) translate(4 138)">
<title>dotnamecpp::utils::FileReader::readBytes</title>
<!-- Node1 -->
<g id="Node000001" class="node">
<title>Node1</title>
<g id="a_Node000001"><a xlink:title="Read the entire content of a file as a vector of bytes.">
<polygon fill="#999999" stroke="#666666" points="202.25,-83 88.75,-83 88.75,-51 202.25,-51 202.25,-83"/>
<text xml:space="preserve" text-anchor="start" x="96.75" y="-69.5" font-family="Helvetica,sans-Serif" font-size="10.00">dotnamecpp::utils::</text>
<text xml:space="preserve" text-anchor="middle" x="145.5" y="-57.5" font-family="Helvetica,sans-Serif" font-size="10.00">FileReader::readBytes</text>
</a>
</g>
</g>
<!-- Node2 -->
<g id="Node000002" class="node">
<title>Node2</title>
<g id="a_Node000002"><a xlink:href="FileReaderTest_8cpp.html#a21fbdc04482e85168ee95265a6e6410d" target="_top" xlink:title=" ">
<polygon fill="white" stroke="#666666" points="52.75,-134 0,-134 0,-114 52.75,-114 52.75,-134"/>
<text xml:space="preserve" text-anchor="middle" x="26.38" y="-120.5" font-family="Helvetica,sans-Serif" font-size="10.00">TEST_F</text>
</a>
</g>
</g>
<!-- Node1&#45;&gt;Node2 -->
<g id="edge1_Node000001_Node000002" class="edge">
<title>Node1&#45;&gt;Node2</title>
<g id="a_edge1_Node000001_Node000002"><a xlink:title=" ">
<path fill="none" stroke="#63b8ff" d="M100.45,-88.44C82.72,-97.07 63.09,-106.62 48.64,-113.65"/>
<polygon fill="#63b8ff" stroke="#63b8ff" points="101.8,-91.67 109.26,-84.15 98.74,-85.38 101.8,-91.67"/>
</a>
</g>
</g>
<!-- Node3 -->
<g id="Node000003" class="node">
<title>Node3</title>
<g id="a_Node000003"><a xlink:href="FileReaderTest_8cpp.html#a0131d32a3466ac7f4026682b24f25d4e" target="_top" xlink:title=" ">
<polygon fill="white" stroke="#666666" points="52.75,-96 0,-96 0,-76 52.75,-76 52.75,-96"/>
<text xml:space="preserve" text-anchor="middle" x="26.38" y="-82.5" font-family="Helvetica,sans-Serif" font-size="10.00">TEST_F</text>
</a>
</g>
</g>
<!-- Node1&#45;&gt;Node3 -->
<g id="edge2_Node000001_Node000003" class="edge">
<title>Node1&#45;&gt;Node3</title>
<g id="a_edge2_Node000001_Node000003"><a xlink:title=" ">
<path fill="none" stroke="#63b8ff" d="M77.09,-77.93C68.6,-79.31 60.36,-80.65 53.12,-81.82"/>
<polygon fill="#63b8ff" stroke="#63b8ff" points="77.53,-81.41 86.84,-76.35 76.41,-74.5 77.53,-81.41"/>
</a>
</g>
</g>
<!-- Node4 -->
<g id="Node000004" class="node">
<title>Node4</title>
<g id="a_Node000004"><a xlink:href="FileReaderTest_8cpp.html#a3e54e2d4494798f1b31bf9bc3d9e476a" target="_top" xlink:title=" ">
<polygon fill="white" stroke="#666666" points="52.75,-58 0,-58 0,-38 52.75,-38 52.75,-58"/>
<text xml:space="preserve" text-anchor="middle" x="26.38" y="-44.5" font-family="Helvetica,sans-Serif" font-size="10.00">TEST_F</text>
</a>
</g>
</g>
<!-- Node1&#45;&gt;Node4 -->
<g id="edge3_Node000001_Node000004" class="edge">
<title>Node1&#45;&gt;Node4</title>
<g id="a_edge3_Node000001_Node000004"><a xlink:title=" ">
<path fill="none" stroke="#63b8ff" d="M77.09,-56.07C68.6,-54.69 60.36,-53.35 53.12,-52.18"/>
<polygon fill="#63b8ff" stroke="#63b8ff" points="76.41,-59.5 86.84,-57.65 77.53,-52.59 76.41,-59.5"/>
</a>
</g>
</g>
<!-- Node5 -->
<g id="Node000005" class="node">
<title>Node5</title>
<g id="a_Node000005"><a xlink:href="FileReaderTest_8cpp.html#a92203db8536ae7f1fa01807385f10568" target="_top" xlink:title=" ">
<polygon fill="white" stroke="#666666" points="52.75,-20 0,-20 0,0 52.75,0 52.75,-20"/>
<text xml:space="preserve" text-anchor="middle" x="26.38" y="-6.5" font-family="Helvetica,sans-Serif" font-size="10.00">TEST_F</text>
</a>
</g>
</g>
<!-- Node1&#45;&gt;Node5 -->
<g id="edge4_Node000001_Node000005" class="edge">
<title>Node1&#45;&gt;Node5</title>
<g id="a_edge4_Node000001_Node000005"><a xlink:title=" ">
<path fill="none" stroke="#63b8ff" d="M100.45,-45.56C82.72,-36.93 63.09,-27.38 48.64,-20.35"/>
<polygon fill="#63b8ff" stroke="#63b8ff" points="98.74,-48.62 109.26,-49.85 101.8,-42.33 98.74,-48.62"/>
</a>
</g>
</g>
</g>
</svg>
</svg>

<style type='text/css'>
<![CDATA[
[data-mouse-over-selected='false'] { opacity: 0.7; }
[data-mouse-over-selected='true']  { opacity: 1.0; }
]]>
</style>
<script type="application/ecmascript"><![CDATA[
document.addEventListener('DOMContentLoaded', (event) => {
  highlightEdges();
  highlightAdjacentNodes();
});
]]></script>
</svg>
