<?xml version="1.0" encoding="UTF-8" standalone="no"?>
<!DOCTYPE svg PUBLIC "-//W3C//DTD SVG 1.1//EN"
 "http://www.w3.org/Graphics/SVG/1.1/DTD/svg11.dtd">
<!-- Generated by graphviz version 13.1.2 (20250808.2320)
 -->
<!-- Title: ConsoleLogger::error Pages: 1 -->
<svg width="784pt" height="116pt"
 viewBox="0.00 0.00 784.00 116.00" xmlns="http://www.w3.org/2000/svg" xmlns:xlink="http://www.w3.org/1999/xlink">
<g id="graph0" class="graph" transform="scale(1 1) rotate(0) translate(4 112)">
<title>ConsoleLogger::error</title>
<!-- Node1 -->
<g id="Node000001" class="node">
<title>Node1</title>
<g id="a_Node000001"><a xlink:title="Log an error message.">
<polygon fill="#999999" stroke="#666666" points="106.75,-70 0,-70 0,-50 106.75,-50 106.75,-70"/>
<text xml:space="preserve" text-anchor="middle" x="53.38" y="-56.5" font-family="Helvetica,sans-Serif" font-size="10.00">ConsoleLogger::error</text>
</a>
</g>
</g>
<!-- Node2 -->
<g id="Node000002" class="node">
<title>Node2</title>
<g id="a_Node000002"><a xlink:href="classConsoleLogger.html#a9aa67bea16b85fc2e7f76aa6e6faac26" target="_top" xlink:title="Logs a message with a specified level to the console and optionally to a file.">
<polygon fill="white" stroke="#666666" points="242.75,-70 142.75,-70 142.75,-50 242.75,-50 242.75,-70"/>
<text xml:space="preserve" text-anchor="middle" x="192.75" y="-56.5" font-family="Helvetica,sans-Serif" font-size="10.00">ConsoleLogger::log</text>
</a>
</g>
</g>
<!-- Node1&#45;&gt;Node2 -->
<g id="edge1_Node000001_Node000002" class="edge">
<title>Node1&#45;&gt;Node2</title>
<g id="a_edge1_Node000001_Node000002"><a xlink:title=" ">
<path fill="none" stroke="#63b8ff" d="M107.09,-60C115.01,-60 123.23,-60 131.3,-60"/>
<polygon fill="#63b8ff" stroke="#63b8ff" points="131.04,-63.5 141.04,-60 131.04,-56.5 131.04,-63.5"/>
</a>
</g>
</g>
<!-- Node3 -->
<g id="Node000003" class="node">
<title>Node3</title>
<g id="a_Node000003"><a xlink:href="classConsoleLogger.html#a46e60e26db61000d04cfa66480729f2a" target="_top" xlink:title="Convert a logging level to its string representation.">
<polygon fill="white" stroke="#666666" points="422.25,-108 278.75,-108 278.75,-88 422.25,-88 422.25,-108"/>
<text xml:space="preserve" text-anchor="middle" x="350.5" y="-94.5" font-family="Helvetica,sans-Serif" font-size="10.00">ConsoleLogger::levelToString</text>
</a>
</g>
</g>
<!-- Node2&#45;&gt;Node3 -->
<g id="edge2_Node000002_Node000003" class="edge">
<title>Node2&#45;&gt;Node3</title>
<g id="a_edge2_Node000002_Node000003"><a xlink:title=" ">
<path fill="none" stroke="#63b8ff" d="M236.72,-70.48C254.94,-74.93 276.36,-80.16 295.62,-84.85"/>
<polygon fill="#63b8ff" stroke="#63b8ff" points="294.65,-88.22 305.2,-87.19 296.31,-81.42 294.65,-88.22"/>
</a>
</g>
</g>
<!-- Node4 -->
<g id="Node000004" class="node">
<title>Node4</title>
<g id="a_Node000004"><a xlink:href="classConsoleLogger.html#a787b42f6e197b60908113326b9a048fa" target="_top" xlink:title="Reset the console color to default.">
<polygon fill="white" stroke="#666666" points="776,-54 631,-54 631,-22 776,-22 776,-54"/>
<text xml:space="preserve" text-anchor="start" x="639" y="-40.5" font-family="Helvetica,sans-Serif" font-size="10.00">ConsoleLogger::resetConsole</text>
<text xml:space="preserve" text-anchor="middle" x="703.5" y="-28.5" font-family="Helvetica,sans-Serif" font-size="10.00">Color</text>
</a>
</g>
</g>
<!-- Node2&#45;&gt;Node4 -->
<g id="edge3_Node000002_Node000004" class="edge">
<title>Node2&#45;&gt;Node4</title>
<g id="a_edge3_Node000002_Node000004"><a xlink:title=" ">
<path fill="none" stroke="#63b8ff" d="M242.99,-57.87C330.09,-54.1 512.19,-46.23 619.15,-41.6"/>
<polygon fill="#63b8ff" stroke="#63b8ff" points="619.18,-45.11 629.02,-41.18 618.88,-38.11 619.18,-45.11"/>
</a>
</g>
</g>
<!-- Node5 -->
<g id="Node000005" class="node">
<title>Node5</title>
<g id="a_Node000005"><a xlink:href="classConsoleLogger.html#aecacefa838b28f34a80b06d3c68fd541" target="_top" xlink:title=" ">
<polygon fill="white" stroke="#666666" points="418.88,-32 282.12,-32 282.12,0 418.88,0 418.88,-32"/>
<text xml:space="preserve" text-anchor="start" x="290.12" y="-18.5" font-family="Helvetica,sans-Serif" font-size="10.00">ConsoleLogger::setConsole</text>
<text xml:space="preserve" text-anchor="middle" x="350.5" y="-6.5" font-family="Helvetica,sans-Serif" font-size="10.00">Color</text>
</a>
</g>
</g>
<!-- Node2&#45;&gt;Node5 -->
<g id="edge4_Node000002_Node000005" class="edge">
<title>Node2&#45;&gt;Node5</title>
<g id="a_edge4_Node000002_Node000005"><a xlink:title=" ">
<path fill="none" stroke="#63b8ff" d="M230.66,-49.57C245.63,-45.34 263.43,-40.31 280.64,-35.45"/>
<polygon fill="#63b8ff" stroke="#63b8ff" points="281.11,-38.96 289.78,-32.87 279.21,-32.22 281.11,-38.96"/>
</a>
</g>
</g>
<!-- Node6 -->
<g id="Node000006" class="node">
<title>Node6</title>
<g id="a_Node000006"><a xlink:href="classConsoleLogger.html#a7c4374a210726f7bbe380f45a1f99190" target="_top" xlink:title=" ">
<polygon fill="white" stroke="#666666" points="595,-32 458.25,-32 458.25,0 595,0 595,-32"/>
<text xml:space="preserve" text-anchor="start" x="466.25" y="-18.5" font-family="Helvetica,sans-Serif" font-size="10.00">ConsoleLogger::setConsole</text>
<text xml:space="preserve" text-anchor="middle" x="526.62" y="-6.5" font-family="Helvetica,sans-Serif" font-size="10.00">ColorUnix</text>
</a>
</g>
</g>
<!-- Node5&#45;&gt;Node6 -->
<g id="edge5_Node000005_Node000006" class="edge">
<title>Node5&#45;&gt;Node6</title>
<g id="a_edge5_Node000005_Node000006"><a xlink:title=" ">
<path fill="none" stroke="#63b8ff" d="M419.32,-16C428.25,-16 437.46,-16 446.56,-16"/>
<polygon fill="#63b8ff" stroke="#63b8ff" points="446.48,-19.5 456.48,-16 446.48,-12.5 446.48,-19.5"/>
</a>
</g>
</g>
<!-- Node6&#45;&gt;Node4 -->
<g id="edge6_Node000006_Node000004" class="edge">
<title>Node6&#45;&gt;Node4</title>
<g id="a_edge6_Node000006_Node000004"><a xlink:title=" ">
<path fill="none" stroke="#63b8ff" d="M595.49,-24.54C603.32,-25.52 611.37,-26.54 619.37,-27.54"/>
<polygon fill="#63b8ff" stroke="#63b8ff" points="618.77,-30.99 629.12,-28.77 619.64,-24.05 618.77,-30.99"/>
</a>
</g>
</g>
</g>
</svg>
