<?xml version="1.0" encoding="UTF-8" standalone="no"?>
<!DOCTYPE svg PUBLIC "-//W3C//DTD SVG 1.1//EN"
 "http://www.w3.org/Graphics/SVG/1.1/DTD/svg11.dtd">
<!-- Generated by graphviz version 13.1.2 (20250808.2320)
 -->
<!-- Title: dotnamecpp::utils::FileReader::getSize Pages: 1 -->
<svg width="349pt" height="243pt"
 viewBox="0.00 0.00 349.00 243.00" xmlns="http://www.w3.org/2000/svg" xmlns:xlink="http://www.w3.org/1999/xlink">
<g id="graph0" class="graph" transform="scale(1 1) rotate(0) translate(4 239)">
<title>dotnamecpp::utils::FileReader::getSize</title>
<!-- Node1 -->
<g id="Node000001" class="node">
<title>Node1</title>
<g id="a_Node000001"><a xlink:title="Get the Size object.">
<polygon fill="#999999" stroke="#666666" points="340.5,-102 238.25,-102 238.25,-70 340.5,-70 340.5,-102"/>
<text xml:space="preserve" text-anchor="start" x="246.25" y="-88.5" font-family="Helvetica,sans-Serif" font-size="10.00">dotnamecpp::utils::</text>
<text xml:space="preserve" text-anchor="middle" x="289.38" y="-76.5" font-family="Helvetica,sans-Serif" font-size="10.00">FileReader::getSize</text>
</a>
</g>
</g>
<!-- Node2 -->
<g id="Node000002" class="node">
<title>Node2</title>
<g id="a_Node000002"><a xlink:href="classdotnamecpp_1_1utils_1_1FileReader.html#aaf51818070d178f7700e956410b4305d" target="_top" xlink:title="Read the entire content of a file as a vector of bytes.">
<polygon fill="white" stroke="#666666" points="202.25,-184 88.75,-184 88.75,-152 202.25,-152 202.25,-184"/>
<text xml:space="preserve" text-anchor="start" x="96.75" y="-170.5" font-family="Helvetica,sans-Serif" font-size="10.00">dotnamecpp::utils::</text>
<text xml:space="preserve" text-anchor="middle" x="145.5" y="-158.5" font-family="Helvetica,sans-Serif" font-size="10.00">FileReader::readBytes</text>
</a>
</g>
</g>
<!-- Node1&#45;&gt;Node2 -->
<g id="edge1_Node000001_Node000002" class="edge">
<title>Node1&#45;&gt;Node2</title>
<g id="a_edge1_Node000001_Node000002"><a xlink:title=" ">
<path fill="none" stroke="#63b8ff" d="M256.61,-108.82C240.67,-119.8 220.85,-132.76 202.25,-143 196.86,-145.97 191.05,-148.87 185.29,-151.59"/>
<polygon fill="#63b8ff" stroke="#63b8ff" points="258.54,-111.74 264.74,-103.15 254.53,-106 258.54,-111.74"/>
</a>
</g>
</g>
<!-- Node7 -->
<g id="Node000007" class="node">
<title>Node7</title>
<g id="a_Node000007"><a xlink:href="FileReaderTest_8cpp.html#acf5d0870ec57649b43569f8286472d30" target="_top" xlink:title=" ">
<polygon fill="white" stroke="#666666" points="171.88,-134 119.12,-134 119.12,-114 171.88,-114 171.88,-134"/>
<text xml:space="preserve" text-anchor="middle" x="145.5" y="-120.5" font-family="Helvetica,sans-Serif" font-size="10.00">TEST_F</text>
</a>
</g>
</g>
<!-- Node1&#45;&gt;Node7 -->
<g id="edge6_Node000001_Node000007" class="edge">
<title>Node1&#45;&gt;Node7</title>
<g id="a_edge6_Node000001_Node000007"><a xlink:title=" ">
<path fill="none" stroke="#63b8ff" d="M227.05,-102.42C207.74,-107.6 187.46,-113.03 172.08,-117.15"/>
<polygon fill="#63b8ff" stroke="#63b8ff" points="227.74,-105.86 236.49,-99.9 225.93,-99.1 227.74,-105.86"/>
</a>
</g>
</g>
<!-- Node8 -->
<g id="Node000008" class="node">
<title>Node8</title>
<g id="a_Node000008"><a xlink:href="FileReaderTest_8cpp.html#aa5756d60466f1a4e1b06b4e90862a86e" target="_top" xlink:title=" ">
<polygon fill="white" stroke="#666666" points="171.88,-96 119.12,-96 119.12,-76 171.88,-76 171.88,-96"/>
<text xml:space="preserve" text-anchor="middle" x="145.5" y="-82.5" font-family="Helvetica,sans-Serif" font-size="10.00">TEST_F</text>
</a>
</g>
</g>
<!-- Node1&#45;&gt;Node8 -->
<g id="edge7_Node000001_Node000008" class="edge">
<title>Node1&#45;&gt;Node8</title>
<g id="a_edge7_Node000001_Node000008"><a xlink:title=" ">
<path fill="none" stroke="#63b8ff" d="M226.51,-86C207.36,-86 187.32,-86 172.08,-86"/>
<polygon fill="#63b8ff" stroke="#63b8ff" points="226.44,-89.5 236.44,-86 226.44,-82.5 226.44,-89.5"/>
</a>
</g>
</g>
<!-- Node9 -->
<g id="Node000009" class="node">
<title>Node9</title>
<g id="a_Node000009"><a xlink:href="FileReaderTest_8cpp.html#aed0994f6d1fe9d39d534cb60f2a186b6" target="_top" xlink:title=" ">
<polygon fill="white" stroke="#666666" points="171.88,-58 119.12,-58 119.12,-38 171.88,-38 171.88,-58"/>
<text xml:space="preserve" text-anchor="middle" x="145.5" y="-44.5" font-family="Helvetica,sans-Serif" font-size="10.00">TEST_F</text>
</a>
</g>
</g>
<!-- Node1&#45;&gt;Node9 -->
<g id="edge8_Node000001_Node000009" class="edge">
<title>Node1&#45;&gt;Node9</title>
<g id="a_edge8_Node000001_Node000009"><a xlink:title=" ">
<path fill="none" stroke="#63b8ff" d="M227.05,-69.58C207.74,-64.4 187.46,-58.97 172.08,-54.85"/>
<polygon fill="#63b8ff" stroke="#63b8ff" points="225.93,-72.9 236.49,-72.1 227.74,-66.14 225.93,-72.9"/>
</a>
</g>
</g>
<!-- Node10 -->
<g id="Node000010" class="node">
<title>Node10</title>
<g id="a_Node000010"><a xlink:href="FileReaderTest_8cpp.html#a2dbab418fc5b9014f12804905df01d34" target="_top" xlink:title=" ">
<polygon fill="white" stroke="#666666" points="171.88,-20 119.12,-20 119.12,0 171.88,0 171.88,-20"/>
<text xml:space="preserve" text-anchor="middle" x="145.5" y="-6.5" font-family="Helvetica,sans-Serif" font-size="10.00">TEST_F</text>
</a>
</g>
</g>
<!-- Node1&#45;&gt;Node10 -->
<g id="edge9_Node000001_Node000010" class="edge">
<title>Node1&#45;&gt;Node10</title>
<g id="a_edge9_Node000001_Node000010"><a xlink:title=" ">
<path fill="none" stroke="#63b8ff" d="M257.66,-62.88C241.72,-51.62 221.58,-38.49 202.25,-29 192.8,-24.36 181.93,-20.37 172.31,-17.27"/>
<polygon fill="#63b8ff" stroke="#63b8ff" points="255.61,-65.72 265.77,-68.72 259.7,-60.04 255.61,-65.72"/>
</a>
</g>
</g>
<!-- Node3 -->
<g id="Node000003" class="node">
<title>Node3</title>
<g id="a_Node000003"><a xlink:href="FileReaderTest_8cpp.html#a21fbdc04482e85168ee95265a6e6410d" target="_top" xlink:title=" ">
<polygon fill="white" stroke="#666666" points="52.75,-235 0,-235 0,-215 52.75,-215 52.75,-235"/>
<text xml:space="preserve" text-anchor="middle" x="26.38" y="-221.5" font-family="Helvetica,sans-Serif" font-size="10.00">TEST_F</text>
</a>
</g>
</g>
<!-- Node2&#45;&gt;Node3 -->
<g id="edge2_Node000002_Node000003" class="edge">
<title>Node2&#45;&gt;Node3</title>
<g id="a_edge2_Node000002_Node000003"><a xlink:title=" ">
<path fill="none" stroke="#63b8ff" d="M100.45,-189.44C82.72,-198.07 63.09,-207.62 48.64,-214.65"/>
<polygon fill="#63b8ff" stroke="#63b8ff" points="101.8,-192.67 109.26,-185.15 98.74,-186.38 101.8,-192.67"/>
</a>
</g>
</g>
<!-- Node4 -->
<g id="Node000004" class="node">
<title>Node4</title>
<g id="a_Node000004"><a xlink:href="FileReaderTest_8cpp.html#a0131d32a3466ac7f4026682b24f25d4e" target="_top" xlink:title=" ">
<polygon fill="white" stroke="#666666" points="52.75,-197 0,-197 0,-177 52.75,-177 52.75,-197"/>
<text xml:space="preserve" text-anchor="middle" x="26.38" y="-183.5" font-family="Helvetica,sans-Serif" font-size="10.00">TEST_F</text>
</a>
</g>
</g>
<!-- Node2&#45;&gt;Node4 -->
<g id="edge3_Node000002_Node000004" class="edge">
<title>Node2&#45;&gt;Node4</title>
<g id="a_edge3_Node000002_Node000004"><a xlink:title=" ">
<path fill="none" stroke="#63b8ff" d="M77.09,-178.93C68.6,-180.31 60.36,-181.65 53.12,-182.82"/>
<polygon fill="#63b8ff" stroke="#63b8ff" points="77.53,-182.41 86.84,-177.35 76.41,-175.5 77.53,-182.41"/>
</a>
</g>
</g>
<!-- Node5 -->
<g id="Node000005" class="node">
<title>Node5</title>
<g id="a_Node000005"><a xlink:href="FileReaderTest_8cpp.html#a3e54e2d4494798f1b31bf9bc3d9e476a" target="_top" xlink:title=" ">
<polygon fill="white" stroke="#666666" points="52.75,-159 0,-159 0,-139 52.75,-139 52.75,-159"/>
<text xml:space="preserve" text-anchor="middle" x="26.38" y="-145.5" font-family="Helvetica,sans-Serif" font-size="10.00">TEST_F</text>
</a>
</g>
</g>
<!-- Node2&#45;&gt;Node5 -->
<g id="edge4_Node000002_Node000005" class="edge">
<title>Node2&#45;&gt;Node5</title>
<g id="a_edge4_Node000002_Node000005"><a xlink:title=" ">
<path fill="none" stroke="#63b8ff" d="M77.09,-157.07C68.6,-155.69 60.36,-154.35 53.12,-153.18"/>
<polygon fill="#63b8ff" stroke="#63b8ff" points="76.41,-160.5 86.84,-158.65 77.53,-153.59 76.41,-160.5"/>
</a>
</g>
</g>
<!-- Node6 -->
<g id="Node000006" class="node">
<title>Node6</title>
<g id="a_Node000006"><a xlink:href="FileReaderTest_8cpp.html#a92203db8536ae7f1fa01807385f10568" target="_top" xlink:title=" ">
<polygon fill="white" stroke="#666666" points="52.75,-121 0,-121 0,-101 52.75,-101 52.75,-121"/>
<text xml:space="preserve" text-anchor="middle" x="26.38" y="-107.5" font-family="Helvetica,sans-Serif" font-size="10.00">TEST_F</text>
</a>
</g>
</g>
<!-- Node2&#45;&gt;Node6 -->
<g id="edge5_Node000002_Node000006" class="edge">
<title>Node2&#45;&gt;Node6</title>
<g id="a_edge5_Node000002_Node000006"><a xlink:title=" ">
<path fill="none" stroke="#63b8ff" d="M96.99,-146.93C94.2,-145.61 91.43,-144.3 88.75,-143 74.47,-136.09 58.6,-127.79 46.58,-121.38"/>
<polygon fill="#63b8ff" stroke="#63b8ff" points="95.25,-149.98 105.8,-150.99 98.19,-143.62 95.25,-149.98"/>
</a>
</g>
</g>
</g>
</svg>
