<?xml version="1.0" encoding="UTF-8" standalone="no"?>
<!DOCTYPE svg PUBLIC "-//W3C//DTD SVG 1.1//EN"
 "http://www.w3.org/Graphics/SVG/1.1/DTD/svg11.dtd">
<!-- Generated by graphviz version 13.1.2 (20250808.2320)
 -->
<!-- Title: MockAssetManager::assetExists Pages: 1 -->
<svg width="246pt" height="66pt"
 viewBox="0.00 0.00 246.00 66.00" xmlns="http://www.w3.org/2000/svg" xmlns:xlink="http://www.w3.org/1999/xlink">
<g id="graph0" class="graph" transform="scale(1 1) rotate(0) translate(4 62)">
<title>MockAssetManager::assetExists</title>
<!-- Node1 -->
<g id="Node000001" class="node">
<title>Node1</title>
<g id="a_Node000001"><a xlink:title="Check if an asset exists given its relative path.">
<polygon fill="#999999" stroke="#666666" points="238.25,-39 77.5,-39 77.5,-19 238.25,-19 238.25,-39"/>
<text xml:space="preserve" text-anchor="middle" x="157.88" y="-25.5" font-family="Helvetica,sans-Serif" font-size="10.00">MockAssetManager::assetExists</text>
</a>
</g>
</g>
<!-- Node2 -->
<g id="Node000002" class="node">
<title>Node2</title>
<g id="a_Node000002"><a xlink:href="AssetManagerTest_8cpp.html#a2101e2c74d1ca5ddb1868403a1cde944" target="_top" xlink:title=" ">
<polygon fill="white" stroke="#666666" points="41.5,-58 0,-58 0,-38 41.5,-38 41.5,-58"/>
<text xml:space="preserve" text-anchor="middle" x="20.75" y="-44.5" font-family="Helvetica,sans-Serif" font-size="10.00">TEST</text>
</a>
</g>
</g>
<!-- Node1&#45;&gt;Node2 -->
<g id="edge1_Node000001_Node000002" class="edge">
<title>Node1&#45;&gt;Node2</title>
<g id="a_edge1_Node000001_Node000002"><a xlink:title=" ">
<path fill="none" stroke="#63b8ff" d="M71.41,-41.02C60.41,-42.56 50.09,-44.02 41.74,-45.19"/>
<polygon fill="#63b8ff" stroke="#63b8ff" points="71.68,-44.51 81.09,-39.66 70.7,-37.58 71.68,-44.51"/>
</a>
</g>
</g>
<!-- Node3 -->
<g id="Node000003" class="node">
<title>Node3</title>
<g id="a_Node000003"><a xlink:href="AssetManagerTest_8cpp.html#aba63d46b0b8d94a9532f022fc82f5051" target="_top" xlink:title=" ">
<polygon fill="white" stroke="#666666" points="41.5,-20 0,-20 0,0 41.5,0 41.5,-20"/>
<text xml:space="preserve" text-anchor="middle" x="20.75" y="-6.5" font-family="Helvetica,sans-Serif" font-size="10.00">TEST</text>
</a>
</g>
</g>
<!-- Node1&#45;&gt;Node3 -->
<g id="edge2_Node000001_Node000003" class="edge">
<title>Node1&#45;&gt;Node3</title>
<g id="a_edge2_Node000001_Node000003"><a xlink:title=" ">
<path fill="none" stroke="#63b8ff" d="M71.41,-16.98C60.41,-15.44 50.09,-13.98 41.74,-12.81"/>
<polygon fill="#63b8ff" stroke="#63b8ff" points="70.7,-20.42 81.09,-18.34 71.68,-13.49 70.7,-20.42"/>
</a>
</g>
</g>
</g>
</svg>
