<?xml version="1.0" encoding="UTF-8" standalone="no"?>
<!DOCTYPE svg PUBLIC "-//W3C//DTD SVG 1.1//EN"
 "http://www.w3.org/Graphics/SVG/1.1/DTD/svg11.dtd">
<!-- Generated by graphviz version 13.1.2 (20250808.2320)
 -->
<!-- Title: dotnamecpp::utils::UtilsFactory::createFileWriter Pages: 1 -->
<svg width="808pt" height="102pt"
 viewBox="0.00 0.00 808.00 102.00" xmlns="http://www.w3.org/2000/svg" xmlns:xlink="http://www.w3.org/1999/xlink">
<g id="graph0" class="graph" transform="scale(1 1) rotate(0) translate(4 98)">
<title>dotnamecpp::utils::UtilsFactory::createFileWriter</title>
<!-- Node1 -->
<g id="Node000001" class="node">
<title>Node1</title>
<g id="a_Node000001"><a xlink:title=" ">
<polygon fill="#999999" stroke="#666666" points="800,-72 656.5,-72 656.5,-40 800,-40 800,-72"/>
<text xml:space="preserve" text-anchor="start" x="664.5" y="-58.5" font-family="Helvetica,sans-Serif" font-size="10.00">dotnamecpp::utils::</text>
<text xml:space="preserve" text-anchor="middle" x="728.25" y="-46.5" font-family="Helvetica,sans-Serif" font-size="10.00">UtilsFactory::createFileWriter</text>
</a>
</g>
</g>
<!-- Node2 -->
<g id="Node000002" class="node">
<title>Node2</title>
<g id="a_Node000002"><a xlink:href="classdotnamecpp_1_1utils_1_1UtilsFactory.html#afcf1273b868694eaeb8390bc41241049" target="_top" xlink:title=" ">
<polygon fill="white" stroke="#666666" points="418.5,-94 286.25,-94 286.25,-62 418.5,-62 418.5,-94"/>
<text xml:space="preserve" text-anchor="start" x="294.25" y="-80.5" font-family="Helvetica,sans-Serif" font-size="10.00">dotnamecpp::utils::</text>
<text xml:space="preserve" text-anchor="middle" x="352.38" y="-68.5" font-family="Helvetica,sans-Serif" font-size="10.00">UtilsFactory::createBundle</text>
</a>
</g>
</g>
<!-- Node1&#45;&gt;Node2 -->
<g id="edge1_Node000001_Node000002" class="edge">
<title>Node1&#45;&gt;Node2</title>
<g id="a_edge1_Node000001_Node000002"><a xlink:title=" ">
<path fill="none" stroke="#63b8ff" d="M644.96,-60.84C577.03,-64.84 481.88,-70.44 418.99,-74.14"/>
<polygon fill="#63b8ff" stroke="#63b8ff" points="644.76,-64.36 654.54,-60.28 644.35,-57.37 644.76,-64.36"/>
</a>
</g>
</g>
<!-- Node3 -->
<g id="Node000003" class="node">
<title>Node3</title>
<g id="a_Node000003"><a xlink:href="classdotnamecpp_1_1utils_1_1UtilsFactory.html#a9fcea5e7ff94872b54a8c01eb2d9c965" target="_top" xlink:title=" ">
<polygon fill="white" stroke="#666666" points="620.5,-50 456.75,-50 456.75,-18 620.5,-18 620.5,-50"/>
<text xml:space="preserve" text-anchor="start" x="464.75" y="-36.5" font-family="Helvetica,sans-Serif" font-size="10.00">dotnamecpp::utils::</text>
<text xml:space="preserve" text-anchor="middle" x="538.62" y="-24.5" font-family="Helvetica,sans-Serif" font-size="10.00">UtilsFactory::createJsonSerializer</text>
</a>
</g>
</g>
<!-- Node1&#45;&gt;Node3 -->
<g id="edge2_Node000001_Node000003" class="edge">
<title>Node1&#45;&gt;Node3</title>
<g id="a_edge2_Node000001_Node000003"><a xlink:title=" ">
<path fill="none" stroke="#63b8ff" d="M644.87,-46.34C636.89,-45.4 628.8,-44.46 620.83,-43.52"/>
<polygon fill="#63b8ff" stroke="#63b8ff" points="644.21,-49.79 654.55,-47.48 645.02,-42.83 644.21,-49.79"/>
</a>
</g>
</g>
<!-- Node3&#45;&gt;Node2 -->
<g id="edge3_Node000003_Node000002" class="edge">
<title>Node3&#45;&gt;Node2</title>
<g id="a_edge3_Node000003_Node000002"><a xlink:title=" ">
<path fill="none" stroke="#63b8ff" d="M457.9,-53.04C444.85,-56.16 431.46,-59.35 418.8,-62.37"/>
<polygon fill="#63b8ff" stroke="#63b8ff" points="458.37,-56.53 467.28,-50.8 456.74,-49.72 458.37,-56.53"/>
</a>
</g>
</g>
<!-- Node4 -->
<g id="Node000004" class="node">
<title>Node4</title>
<g id="a_Node000004"><a xlink:href="classdotnamecpp_1_1utils_1_1UtilsFactory.html#aa0d9f669087b9bc6a0859324fe2afe50" target="_top" xlink:title=" ">
<polygon fill="white" stroke="#666666" points="420.75,-44 284,-44 284,0 420.75,0 420.75,-44"/>
<text xml:space="preserve" text-anchor="start" x="292" y="-30.5" font-family="Helvetica,sans-Serif" font-size="10.00">dotnamecpp::utils::</text>
<text xml:space="preserve" text-anchor="start" x="292" y="-18.5" font-family="Helvetica,sans-Serif" font-size="10.00">UtilsFactory::createCustom</text>
<text xml:space="preserve" text-anchor="middle" x="352.38" y="-6.5" font-family="Helvetica,sans-Serif" font-size="10.00">StringsLoader</text>
</a>
</g>
</g>
<!-- Node3&#45;&gt;Node4 -->
<g id="edge4_Node000003_Node000004" class="edge">
<title>Node3&#45;&gt;Node4</title>
<g id="a_edge4_Node000003_Node000004"><a xlink:title=" ">
<path fill="none" stroke="#63b8ff" d="M444.92,-27.96C436.88,-27.44 428.85,-26.92 421.06,-26.41"/>
<polygon fill="#63b8ff" stroke="#63b8ff" points="444.56,-31.45 454.76,-28.6 445.01,-24.46 444.56,-31.45"/>
</a>
</g>
</g>
<!-- Node5 -->
<g id="Node000005" class="node">
<title>Node5</title>
<g id="a_Node000005"><a xlink:href="classdotnamecpp_1_1utils_1_1UtilsFactory.html#a76b90ad17cd7e0dc50796299c94b8567" target="_top" xlink:title="Create complete application components.">
<polygon fill="white" stroke="#666666" points="248,-38 73,-38 73,-6 248,-6 248,-38"/>
<text xml:space="preserve" text-anchor="start" x="81" y="-24.5" font-family="Helvetica,sans-Serif" font-size="10.00">dotnamecpp::utils::</text>
<text xml:space="preserve" text-anchor="middle" x="160.5" y="-12.5" font-family="Helvetica,sans-Serif" font-size="10.00">UtilsFactory::createAppComponents</text>
</a>
</g>
</g>
<!-- Node4&#45;&gt;Node5 -->
<g id="edge5_Node000004_Node000005" class="edge">
<title>Node4&#45;&gt;Node5</title>
<g id="a_edge5_Node000004_Node000005"><a xlink:title=" ">
<path fill="none" stroke="#63b8ff" d="M272.25,-22C264.4,-22 256.4,-22 248.47,-22"/>
<polygon fill="#63b8ff" stroke="#63b8ff" points="272.12,-25.5 282.12,-22 272.12,-18.5 272.12,-25.5"/>
</a>
</g>
</g>
<!-- Node6 -->
<g id="Node000006" class="node">
<title>Node6</title>
<g id="a_Node000006"><a xlink:href="Application_8cpp.html#a3c04138a5bfe5d72780bb7e82a18e627" target="_top" xlink:title=" ">
<polygon fill="white" stroke="#666666" points="37,-32 0,-32 0,-12 37,-12 37,-32"/>
<text xml:space="preserve" text-anchor="middle" x="18.5" y="-18.5" font-family="Helvetica,sans-Serif" font-size="10.00">main</text>
</a>
</g>
</g>
<!-- Node5&#45;&gt;Node6 -->
<g id="edge6_Node000005_Node000006" class="edge">
<title>Node5&#45;&gt;Node6</title>
<g id="a_edge6_Node000005_Node000006"><a xlink:title=" ">
<path fill="none" stroke="#63b8ff" d="M61.45,-22C52.39,-22 44.08,-22 37.29,-22"/>
<polygon fill="#63b8ff" stroke="#63b8ff" points="61.31,-25.5 71.31,-22 61.31,-18.5 61.31,-25.5"/>
</a>
</g>
</g>
</g>
</svg>
