<?xml version="1.0" encoding="UTF-8" standalone="no"?>
<!DOCTYPE svg PUBLIC "-//W3C//DTD SVG 1.1//EN"
 "http://www.w3.org/Graphics/SVG/1.1/DTD/svg11.dtd">
<!-- Generated by graphviz version 13.1.2 (20250808.2320)
 -->
<!-- Title: dotnamecpp::utils::JsonSerializer::JsonSerializer Pages: 1 -->
<svg width="334pt" height="190pt"
 viewBox="0.00 0.00 334.00 190.00" xmlns="http://www.w3.org/2000/svg" xmlns:xlink="http://www.w3.org/1999/xlink">

<svg id="main" version="1.1" xmlns="http://www.w3.org/2000/svg" xmlns:xlink="http://www.w3.org/1999/xlink" xml:space="preserve">

<style type="text/css"><![CDATA[
.node, .edge {opacity: 0.7;}
.node.selected, .edge.selected {opacity: 1;}
.edge:hover path { stroke: red; }
.edge:hover polygon { stroke: red; fill: red; }
]]></style>
<script type="application/ecmascript" xlink:href="svg.min.js"/>
<svg id="graph" class="graph">
<g id="graph0" class="graph" transform="scale(1 1) rotate(0) translate(4 186)">
<title>dotnamecpp::utils::JsonSerializer::JsonSerializer</title>
<!-- Node1 -->
<g id="Node000001" class="node">
<title>Node1</title>
<g id="a_Node000001"><a xlink:title=" ">
<polygon fill="#999999" stroke="#666666" points="326,-107 181,-107 181,-75 326,-75 326,-107"/>
<text xml:space="preserve" text-anchor="start" x="189" y="-93.5" font-family="Helvetica,sans-Serif" font-size="10.00">dotnamecpp::utils::</text>
<text xml:space="preserve" text-anchor="middle" x="253.5" y="-81.5" font-family="Helvetica,sans-Serif" font-size="10.00">JsonSerializer::JsonSerializer</text>
</a>
</g>
</g>
<!-- Node2 -->
<g id="Node000002" class="node">
<title>Node2</title>
<g id="a_Node000002"><a xlink:href="classdotnamecpp_1_1utils_1_1JsonSerializer.html#a9b02ff409609c095755de5b74ff9ee43" target="_top" xlink:title=" ">
<polygon fill="white" stroke="#666666" points="145,-182 0,-182 0,-150 145,-150 145,-182"/>
<text xml:space="preserve" text-anchor="start" x="8" y="-168.5" font-family="Helvetica,sans-Serif" font-size="10.00">dotnamecpp::utils::</text>
<text xml:space="preserve" text-anchor="middle" x="72.5" y="-156.5" font-family="Helvetica,sans-Serif" font-size="10.00">JsonSerializer::JsonSerializer</text>
</a>
</g>
</g>
<!-- Node1&#45;&gt;Node2 -->
<g id="edge1_Node000001_Node000002" class="edge">
<title>Node1&#45;&gt;Node2</title>
<g id="a_edge1_Node000001_Node000002"><a xlink:title=" ">
<path fill="none" stroke="#63b8ff" d="M209.11,-112.37C189.69,-121.63 166.4,-132.31 145,-141 137.81,-143.92 130.14,-146.82 122.59,-149.56"/>
<polygon fill="#63b8ff" stroke="#63b8ff" points="210.6,-115.54 218.1,-108.06 207.57,-109.23 210.6,-115.54"/>
</a>
</g>
</g>
<!-- Node3 -->
<g id="Node000003" class="node">
<title>Node3</title>
<g id="a_Node000003"><a xlink:href="classdotnamecpp_1_1utils_1_1JsonSerializer.html#a25dfe64868831fb8aa53d037d7b70f58" target="_top" xlink:title=" ">
<polygon fill="white" stroke="#666666" points="145,-132 0,-132 0,-100 145,-100 145,-132"/>
<text xml:space="preserve" text-anchor="start" x="8" y="-118.5" font-family="Helvetica,sans-Serif" font-size="10.00">dotnamecpp::utils::</text>
<text xml:space="preserve" text-anchor="middle" x="72.5" y="-106.5" font-family="Helvetica,sans-Serif" font-size="10.00">JsonSerializer::JsonSerializer</text>
</a>
</g>
</g>
<!-- Node1&#45;&gt;Node3 -->
<g id="edge2_Node000001_Node000003" class="edge">
<title>Node1&#45;&gt;Node3</title>
<g id="a_edge2_Node000001_Node000003"><a xlink:title=" ">
<path fill="none" stroke="#63b8ff" d="M169.41,-102.61C161.35,-103.73 153.22,-104.87 145.29,-105.97"/>
<polygon fill="#63b8ff" stroke="#63b8ff" points="169.81,-106.08 179.23,-101.23 168.84,-99.15 169.81,-106.08"/>
</a>
</g>
</g>
<!-- Node4 -->
<g id="Node000004" class="node">
<title>Node4</title>
<g id="a_Node000004"><a xlink:href="classdotnamecpp_1_1utils_1_1JsonSerializer.html#ae0307d1037d6ed05b9d3d188a7da6670" target="_top" xlink:title=" ">
<polygon fill="white" stroke="#666666" points="134.88,-82 10.13,-82 10.13,-50 134.88,-50 134.88,-82"/>
<text xml:space="preserve" text-anchor="start" x="18.12" y="-68.5" font-family="Helvetica,sans-Serif" font-size="10.00">dotnamecpp::utils::</text>
<text xml:space="preserve" text-anchor="middle" x="72.5" y="-56.5" font-family="Helvetica,sans-Serif" font-size="10.00">JsonSerializer::operator=</text>
</a>
</g>
</g>
<!-- Node1&#45;&gt;Node4 -->
<g id="edge3_Node000001_Node000004" class="edge">
<title>Node1&#45;&gt;Node4</title>
<g id="a_edge3_Node000001_Node000004"><a xlink:title=" ">
<path fill="none" stroke="#63b8ff" d="M169.67,-79.43C158.07,-77.81 146.32,-76.17 135.21,-74.62"/>
<polygon fill="#63b8ff" stroke="#63b8ff" points="168.84,-82.85 179.23,-80.77 169.81,-75.92 168.84,-82.85"/>
</a>
</g>
</g>
<!-- Node5 -->
<g id="Node000005" class="node">
<title>Node5</title>
<g id="a_Node000005"><a xlink:href="classdotnamecpp_1_1utils_1_1JsonSerializer.html#ac7aec627ead7996259f2839ed3fd1f26" target="_top" xlink:title=" ">
<polygon fill="white" stroke="#666666" points="134.88,-32 10.13,-32 10.13,0 134.88,0 134.88,-32"/>
<text xml:space="preserve" text-anchor="start" x="18.12" y="-18.5" font-family="Helvetica,sans-Serif" font-size="10.00">dotnamecpp::utils::</text>
<text xml:space="preserve" text-anchor="middle" x="72.5" y="-6.5" font-family="Helvetica,sans-Serif" font-size="10.00">JsonSerializer::operator=</text>
</a>
</g>
</g>
<!-- Node1&#45;&gt;Node5 -->
<g id="edge4_Node000001_Node000005" class="edge">
<title>Node1&#45;&gt;Node5</title>
<g id="a_edge4_Node000001_Node000005"><a xlink:title=" ">
<path fill="none" stroke="#63b8ff" d="M209.11,-69.63C189.69,-60.37 166.4,-49.69 145,-41 137.81,-38.08 130.14,-35.18 122.59,-32.44"/>
<polygon fill="#63b8ff" stroke="#63b8ff" points="207.57,-72.77 218.1,-73.94 210.6,-66.46 207.57,-72.77"/>
</a>
</g>
</g>
</g>
</svg>
</svg>

<style type='text/css'>
<![CDATA[
[data-mouse-over-selected='false'] { opacity: 0.7; }
[data-mouse-over-selected='true']  { opacity: 1.0; }
]]>
</style>
<script type="application/ecmascript"><![CDATA[
document.addEventListener('DOMContentLoaded', (event) => {
  highlightEdges();
  highlightAdjacentNodes();
});
]]></script>
</svg>
