<?xml version="1.0" encoding="UTF-8" standalone="no"?>
<!DOCTYPE svg PUBLIC "-//W3C//DTD SVG 1.1//EN"
 "http://www.w3.org/Graphics/SVG/1.1/DTD/svg11.dtd">
<!-- Generated by graphviz version 13.1.2 (20250808.2320)
 -->
<!-- Title: ConsoleLogger::visibleHeaders Pages: 1 -->
<svg width="364pt" height="166pt"
 viewBox="0.00 0.00 364.00 166.00" xmlns="http://www.w3.org/2000/svg" xmlns:xlink="http://www.w3.org/1999/xlink">

<svg id="main" version="1.1" xmlns="http://www.w3.org/2000/svg" xmlns:xlink="http://www.w3.org/1999/xlink" xml:space="preserve">

<style type="text/css"><![CDATA[
.node, .edge {opacity: 0.7;}
.node.selected, .edge.selected {opacity: 1;}
.edge:hover path { stroke: red; }
.edge:hover polygon { stroke: red; fill: red; }
]]></style>
<script type="application/ecmascript" xlink:href="svg.min.js"/>
<svg id="graph" class="graph">
<g id="graph0" class="graph" transform="scale(1 1) rotate(0) translate(4 162)">
<title>ConsoleLogger::visibleHeaders</title>
<!-- Node1 -->
<g id="Node000001" class="node">
<title>Node1</title>
<g id="a_Node000001"><a xlink:title="Show or hide specific headers in the log output.">
<polygon fill="#999999" stroke="#666666" points="151.75,-80 0,-80 0,-60 151.75,-60 151.75,-80"/>
<text xml:space="preserve" text-anchor="middle" x="75.88" y="-66.5" font-family="Helvetica,sans-Serif" font-size="10.00">ConsoleLogger::visibleHeaders</text>
</a>
</g>
</g>
<!-- Node2 -->
<g id="Node000002" class="node">
<title>Node2</title>
<g id="a_Node000002"><a xlink:href="classConsoleLogger.html#ad992cf9846433c9d08171e0da7a27d52" target="_top" xlink:title="Show or hide the header caller in the log output.">
<polygon fill="white" stroke="#666666" points="342.88,-158 200.88,-158 200.88,-126 342.88,-126 342.88,-158"/>
<text xml:space="preserve" text-anchor="start" x="208.88" y="-144.5" font-family="Helvetica,sans-Serif" font-size="10.00">ConsoleLogger::showHeader</text>
<text xml:space="preserve" text-anchor="middle" x="271.88" y="-132.5" font-family="Helvetica,sans-Serif" font-size="10.00">Caller</text>
</a>
</g>
</g>
<!-- Node1&#45;&gt;Node2 -->
<g id="edge1_Node000001_Node000002" class="edge">
<title>Node1&#45;&gt;Node2</title>
<g id="a_edge1_Node000001_Node000002"><a xlink:title=" ">
<path fill="none" stroke="#63b8ff" d="M99.52,-80.46C121.73,-90.51 156.68,-105.78 187.75,-117 192.5,-118.72 197.44,-120.41 202.42,-122.06"/>
<polygon fill="#63b8ff" stroke="#63b8ff" points="201.34,-125.39 211.93,-125.13 203.49,-118.73 201.34,-125.39"/>
</a>
</g>
</g>
<!-- Node3 -->
<g id="Node000003" class="node">
<title>Node3</title>
<g id="a_Node000003"><a xlink:href="classConsoleLogger.html#a93931df43572ddc3ca9246e793fa9ae8" target="_top" xlink:title="Show or hide the header level in the log output.">
<polygon fill="white" stroke="#666666" points="342.88,-108 200.88,-108 200.88,-76 342.88,-76 342.88,-108"/>
<text xml:space="preserve" text-anchor="start" x="208.88" y="-94.5" font-family="Helvetica,sans-Serif" font-size="10.00">ConsoleLogger::showHeader</text>
<text xml:space="preserve" text-anchor="middle" x="271.88" y="-82.5" font-family="Helvetica,sans-Serif" font-size="10.00">Level</text>
</a>
</g>
</g>
<!-- Node1&#45;&gt;Node3 -->
<g id="edge2_Node000001_Node000003" class="edge">
<title>Node1&#45;&gt;Node3</title>
<g id="a_edge2_Node000001_Node000003"><a xlink:title=" ">
<path fill="none" stroke="#63b8ff" d="M152.16,-78.54C164.31,-79.92 176.94,-81.35 189.23,-82.74"/>
<polygon fill="#63b8ff" stroke="#63b8ff" points="188.57,-86.19 198.9,-83.84 189.35,-79.23 188.57,-86.19"/>
</a>
</g>
</g>
<!-- Node4 -->
<g id="Node000004" class="node">
<title>Node4</title>
<g id="a_Node000004"><a xlink:href="classConsoleLogger.html#a76a289d0d0a58842e365885437644fe0" target="_top" xlink:title="Show or hide the header name in the log output.">
<polygon fill="white" stroke="#666666" points="356,-58 187.75,-58 187.75,-38 356,-38 356,-58"/>
<text xml:space="preserve" text-anchor="middle" x="271.88" y="-44.5" font-family="Helvetica,sans-Serif" font-size="10.00">ConsoleLogger::showHeaderName</text>
</a>
</g>
</g>
<!-- Node1&#45;&gt;Node4 -->
<g id="edge3_Node000001_Node000004" class="edge">
<title>Node1&#45;&gt;Node4</title>
<g id="a_edge3_Node000001_Node000004"><a xlink:title=" ">
<path fill="none" stroke="#63b8ff" d="M152.16,-61.46C159.98,-60.58 167.99,-59.67 175.99,-58.76"/>
<polygon fill="#63b8ff" stroke="#63b8ff" points="176.22,-62.26 185.76,-57.65 175.43,-55.3 176.22,-62.26"/>
</a>
</g>
</g>
<!-- Node5 -->
<g id="Node000005" class="node">
<title>Node5</title>
<g id="a_Node000005"><a xlink:href="classConsoleLogger.html#a09c84bad7201e76b0b8c31e25ec46efc" target="_top" xlink:title="Show or hide the header time in the log output.">
<polygon fill="white" stroke="#666666" points="353.75,-20 190,-20 190,0 353.75,0 353.75,-20"/>
<text xml:space="preserve" text-anchor="middle" x="271.88" y="-6.5" font-family="Helvetica,sans-Serif" font-size="10.00">ConsoleLogger::showHeaderTime</text>
</a>
</g>
</g>
<!-- Node1&#45;&gt;Node5 -->
<g id="edge4_Node000001_Node000005" class="edge">
<title>Node1&#45;&gt;Node5</title>
<g id="a_edge4_Node000001_Node000005"><a xlink:title=" ">
<path fill="none" stroke="#63b8ff" d="M102.1,-59.61C124.37,-50.69 157.85,-37.9 187.75,-29 194.72,-26.92 202.08,-24.94 209.42,-23.1"/>
<polygon fill="#63b8ff" stroke="#63b8ff" points="210.13,-26.53 219.02,-20.77 208.48,-19.73 210.13,-26.53"/>
</a>
</g>
</g>
</g>
</svg>
</svg>

<style type='text/css'>
<![CDATA[
[data-mouse-over-selected='false'] { opacity: 0.7; }
[data-mouse-over-selected='true']  { opacity: 1.0; }
]]>
</style>
<script type="application/ecmascript"><![CDATA[
document.addEventListener('DOMContentLoaded', (event) => {
  highlightEdges();
  highlightAdjacentNodes();
});
]]></script>
</svg>
