<?xml version="1.0" encoding="UTF-8" standalone="no"?>
<!DOCTYPE svg PUBLIC "-//W3C//DTD SVG 1.1//EN"
 "http://www.w3.org/Graphics/SVG/1.1/DTD/svg11.dtd">
<!-- Generated by graphviz version 13.1.2 (20250808.2320)
 -->
<!-- Title: AssetManagerTest Pages: 1 -->
<svg width="133pt" height="176pt"
 viewBox="0.00 0.00 133.00 176.00" xmlns="http://www.w3.org/2000/svg" xmlns:xlink="http://www.w3.org/1999/xlink">
<g id="graph0" class="graph" transform="scale(1 1) rotate(0) translate(4 172)">
<title>AssetManagerTest</title>
<!-- Node1 -->
<g id="Node000001" class="node">
<title>Node1</title>
<g id="a_Node000001"><a xlink:title=" ">
<polygon fill="#999999" stroke="none" points="125.25,-80 0,-80 0,0 125.25,0 125.25,-80"/>
<text xml:space="preserve" text-anchor="start" x="21.75" y="-66.5" font-family="Helvetica,sans-Serif" font-size="10.00">AssetManagerTest</text>
<text xml:space="preserve" text-anchor="start" x="4" y="-50.5" font-family="Helvetica,sans-Serif" font-size="10.00">#</text>
<text xml:space="preserve" text-anchor="start" x="13.25" y="-50.5" font-family="Helvetica,sans-Serif" font-size="10.00">std::filesystem::path</text>
<text xml:space="preserve" text-anchor="start" x="13.25" y="-38.5" font-family="Helvetica,sans-Serif" font-size="10.00"> testAssetsPath_</text>
<text xml:space="preserve" text-anchor="start" x="4" y="-22.5" font-family="Helvetica,sans-Serif" font-size="10.00">#</text>
<text xml:space="preserve" text-anchor="start" x="13.25" y="-22.5" font-family="Helvetica,sans-Serif" font-size="10.00">void SetUp() override</text>
<text xml:space="preserve" text-anchor="start" x="4" y="-6.5" font-family="Helvetica,sans-Serif" font-size="10.00">#</text>
<text xml:space="preserve" text-anchor="start" x="13.25" y="-6.5" font-family="Helvetica,sans-Serif" font-size="10.00">void TearDown() override</text>
<polygon fill="#666666" stroke="#666666" points="0,-62 0,-62 125.25,-62 125.25,-62 0,-62"/>
<polygon fill="#666666" stroke="#666666" points="0,-34 0,-34 11.25,-34 11.25,-34 0,-34"/>
<polygon fill="#666666" stroke="#666666" points="11.25,-34 11.25,-34 125.25,-34 125.25,-34 11.25,-34"/>
<polygon fill="none" stroke="#666666" points="0,0 0,-80 125.25,-80 125.25,0 0,0"/>
</a>
</g>
</g>
<!-- Node2 -->
<g id="Node000002" class="node">
<title>Node2</title>
<g id="a_Node000002"><a xlink:title=" ">
<polygon fill="white" stroke="none" points="93.62,-168 31.62,-168 31.62,-116 93.62,-116 93.62,-168"/>
<text xml:space="preserve" text-anchor="start" x="35.62" y="-154.5" font-family="Helvetica,sans-Serif" font-size="10.00">testing::Test</text>
<text xml:space="preserve" text-anchor="start" x="61.12" y="-138.5" font-family="Helvetica,sans-Serif" font-size="10.00"> </text>
<text xml:space="preserve" text-anchor="start" x="61.12" y="-122.5" font-family="Helvetica,sans-Serif" font-size="10.00"> </text>
<polygon fill="#666666" stroke="#666666" points="31.62,-150 31.62,-150 93.62,-150 93.62,-150 31.62,-150"/>
<polygon fill="#666666" stroke="#666666" points="31.62,-134 31.62,-134 93.62,-134 93.62,-134 31.62,-134"/>
<polygon fill="none" stroke="#666666" points="31.62,-116 31.62,-168 93.62,-168 93.62,-116 31.62,-116"/>
</a>
</g>
</g>
<!-- Node2&#45;&gt;Node1 -->
<g id="edge1_Node000001_Node000002" class="edge">
<title>Node2&#45;&gt;Node1</title>
<g id="a_edge1_Node000001_Node000002"><a xlink:title=" ">
<path fill="none" stroke="#63b8ff" d="M62.62,-104.61C62.62,-96.5 62.62,-87.86 62.62,-79.65"/>
<polygon fill="none" stroke="#63b8ff" points="59.13,-104.51 62.63,-114.51 66.13,-104.51 59.13,-104.51"/>
</a>
</g>
</g>
</g>
</svg>
