<?xml version="1.0" encoding="UTF-8" standalone="no"?>
<!DOCTYPE svg PUBLIC "-//W3C//DTD SVG 1.1//EN"
 "http://www.w3.org/Graphics/SVG/1.1/DTD/svg11.dtd">
<!-- Generated by graphviz version 13.1.2 (20250808.2320)
 -->
<!-- Title: dotnamecpp::utils::UtilsFactory::createDefaultLogger Pages: 1 -->
<svg width="652pt" height="90pt"
 viewBox="0.00 0.00 652.00 90.00" xmlns="http://www.w3.org/2000/svg" xmlns:xlink="http://www.w3.org/1999/xlink">
<g id="graph0" class="graph" transform="scale(1 1) rotate(0) translate(4 86)">
<title>dotnamecpp::utils::UtilsFactory::createDefaultLogger</title>
<!-- Node1 -->
<g id="Node000001" class="node">
<title>Node1</title>
<g id="a_Node000001"><a xlink:title=" ">
<polygon fill="#999999" stroke="#666666" points="133.75,-63 0,-63 0,-19 133.75,-19 133.75,-63"/>
<text xml:space="preserve" text-anchor="start" x="8" y="-49.5" font-family="Helvetica,sans-Serif" font-size="10.00">dotnamecpp::utils::</text>
<text xml:space="preserve" text-anchor="start" x="8" y="-37.5" font-family="Helvetica,sans-Serif" font-size="10.00">UtilsFactory::createDefault</text>
<text xml:space="preserve" text-anchor="middle" x="66.88" y="-25.5" font-family="Helvetica,sans-Serif" font-size="10.00">Logger</text>
</a>
</g>
</g>
<!-- Node2 -->
<g id="Node000002" class="node">
<title>Node2</title>
<g id="a_Node000002"><a xlink:href="classdotnamecpp_1_1utils_1_1UtilsFactory.html#accf95777b78081e29cd677b633ab9461" target="_top" xlink:title=" ">
<polygon fill="white" stroke="#666666" points="301.25,-57 169.75,-57 169.75,-25 301.25,-25 301.25,-57"/>
<text xml:space="preserve" text-anchor="start" x="177.75" y="-43.5" font-family="Helvetica,sans-Serif" font-size="10.00">dotnamecpp::utils::</text>
<text xml:space="preserve" text-anchor="middle" x="235.5" y="-31.5" font-family="Helvetica,sans-Serif" font-size="10.00">UtilsFactory::createLogger</text>
</a>
</g>
</g>
<!-- Node1&#45;&gt;Node2 -->
<g id="edge1_Node000001_Node000002" class="edge">
<title>Node1&#45;&gt;Node2</title>
<g id="a_edge1_Node000001_Node000002"><a xlink:title=" ">
<path fill="none" stroke="#63b8ff" d="M134.21,-41C142.1,-41 150.21,-41 158.23,-41"/>
<polygon fill="#63b8ff" stroke="#63b8ff" points="157.97,-44.5 167.97,-41 157.97,-37.5 157.97,-44.5"/>
</a>
</g>
</g>
<!-- Node3 -->
<g id="Node000003" class="node">
<title>Node3</title>
<g id="a_Node000003"><a xlink:href="classdotnamecpp_1_1logging_1_1LoggerFactory.html#a2811f86fe84698397f09f3ae18959511" target="_top" xlink:title="Create a logger instance based on the specified type and configuration.">
<polygon fill="white" stroke="#666666" points="454.5,-57 337.25,-57 337.25,-25 454.5,-25 454.5,-57"/>
<text xml:space="preserve" text-anchor="start" x="345.25" y="-43.5" font-family="Helvetica,sans-Serif" font-size="10.00">dotnamecpp::logging</text>
<text xml:space="preserve" text-anchor="middle" x="395.88" y="-31.5" font-family="Helvetica,sans-Serif" font-size="10.00">::LoggerFactory::create</text>
</a>
</g>
</g>
<!-- Node2&#45;&gt;Node3 -->
<g id="edge2_Node000002_Node000003" class="edge">
<title>Node2&#45;&gt;Node3</title>
<g id="a_edge2_Node000002_Node000003"><a xlink:title=" ">
<path fill="none" stroke="#63b8ff" d="M301.37,-41C309.39,-41 317.6,-41 325.68,-41"/>
<polygon fill="#63b8ff" stroke="#63b8ff" points="325.45,-44.5 335.45,-41 325.45,-37.5 325.45,-44.5"/>
</a>
</g>
</g>
<!-- Node4 -->
<g id="Node000004" class="node">
<title>Node4</title>
<g id="a_Node000004"><a xlink:href="classdotnamecpp_1_1logging_1_1LoggerFactory.html#a66665981d61ca1baae6f1801a597bb65" target="_top" xlink:title="Create a Console object logger.">
<polygon fill="white" stroke="#666666" points="643.75,-82 490.5,-82 490.5,-50 643.75,-50 643.75,-82"/>
<text xml:space="preserve" text-anchor="start" x="498.5" y="-68.5" font-family="Helvetica,sans-Serif" font-size="10.00">dotnamecpp::logging</text>
<text xml:space="preserve" text-anchor="middle" x="567.12" y="-56.5" font-family="Helvetica,sans-Serif" font-size="10.00">::LoggerFactory::createConsole</text>
</a>
</g>
</g>
<!-- Node3&#45;&gt;Node4 -->
<g id="edge3_Node000003_Node000004" class="edge">
<title>Node3&#45;&gt;Node4</title>
<g id="a_edge3_Node000003_Node000004"><a xlink:title=" ">
<path fill="none" stroke="#63b8ff" d="M454.65,-49.53C462.48,-50.69 470.66,-51.9 478.87,-53.11"/>
<polygon fill="#63b8ff" stroke="#63b8ff" points="478.16,-56.54 488.56,-54.54 479.18,-49.62 478.16,-56.54"/>
</a>
</g>
</g>
<!-- Node5 -->
<g id="Node000005" class="node">
<title>Node5</title>
<g id="a_Node000005"><a xlink:href="classdotnamecpp_1_1logging_1_1LoggerFactory.html#a1cf52c1ddb57eae93a5aab46b593d021" target="_top" xlink:title="Create a Null object logger.">
<polygon fill="white" stroke="#666666" points="634.38,-32 499.88,-32 499.88,0 634.38,0 634.38,-32"/>
<text xml:space="preserve" text-anchor="start" x="507.88" y="-18.5" font-family="Helvetica,sans-Serif" font-size="10.00">dotnamecpp::logging</text>
<text xml:space="preserve" text-anchor="middle" x="567.12" y="-6.5" font-family="Helvetica,sans-Serif" font-size="10.00">::LoggerFactory::createNull</text>
</a>
</g>
</g>
<!-- Node3&#45;&gt;Node5 -->
<g id="edge4_Node000003_Node000005" class="edge">
<title>Node3&#45;&gt;Node5</title>
<g id="a_edge4_Node000003_Node000005"><a xlink:title=" ">
<path fill="none" stroke="#63b8ff" d="M454.65,-32.47C465.49,-30.86 476.99,-29.17 488.33,-27.49"/>
<polygon fill="#63b8ff" stroke="#63b8ff" points="488.7,-30.97 498.09,-26.05 487.68,-24.05 488.7,-30.97"/>
</a>
</g>
</g>
</g>
</svg>
