<?xml version="1.0" encoding="UTF-8" standalone="no"?>
<!DOCTYPE svg PUBLIC "-//W3C//DTD SVG 1.1//EN"
 "http://www.w3.org/Graphics/SVG/1.1/DTD/svg11.dtd">
<!-- Generated by graphviz version 13.1.2 (20250808.2320)
 -->
<!-- Title: TEST_F Pages: 1 -->
<svg width="587pt" height="62pt"
 viewBox="0.00 0.00 587.00 62.00" xmlns="http://www.w3.org/2000/svg" xmlns:xlink="http://www.w3.org/1999/xlink">
<g id="graph0" class="graph" transform="scale(1 1) rotate(0) translate(4 58)">
<title>TEST_F</title>
<!-- Node1 -->
<g id="Node000001" class="node">
<title>Node1</title>
<g id="a_Node000001"><a xlink:title=" ">
<polygon fill="#999999" stroke="#666666" points="52.75,-48 0,-48 0,-28 52.75,-28 52.75,-48"/>
<text xml:space="preserve" text-anchor="middle" x="26.38" y="-34.5" font-family="Helvetica,sans-Serif" font-size="10.00">TEST_F</text>
</a>
</g>
</g>
<!-- Node2 -->
<g id="Node000002" class="node">
<title>Node2</title>
<g id="a_Node000002"><a xlink:href="classConsoleLogger.html#a787b42f6e197b60908113326b9a048fa" target="_top" xlink:title="Reset the console color to default.">
<polygon fill="white" stroke="#666666" points="579.25,-54 434.25,-54 434.25,-22 579.25,-22 579.25,-54"/>
<text xml:space="preserve" text-anchor="start" x="442.25" y="-40.5" font-family="Helvetica,sans-Serif" font-size="10.00">ConsoleLogger::resetConsole</text>
<text xml:space="preserve" text-anchor="middle" x="506.75" y="-28.5" font-family="Helvetica,sans-Serif" font-size="10.00">Color</text>
</a>
</g>
</g>
<!-- Node1&#45;&gt;Node2 -->
<g id="edge1_Node000001_Node000002" class="edge">
<title>Node1&#45;&gt;Node2</title>
<g id="a_edge1_Node000001_Node000002"><a xlink:title=" ">
<path fill="none" stroke="#63b8ff" d="M53.05,-39.53C64.04,-40.12 77.02,-40.71 88.75,-41 226.26,-44.36 260.71,-42.92 398.25,-41 406.05,-40.89 414.17,-40.74 422.3,-40.56"/>
<polygon fill="#63b8ff" stroke="#63b8ff" points="422.34,-44.06 432.25,-40.32 422.17,-37.06 422.34,-44.06"/>
</a>
</g>
</g>
<!-- Node3 -->
<g id="Node000003" class="node">
<title>Node3</title>
<g id="a_Node000003"><a xlink:href="classConsoleLogger.html#aecacefa838b28f34a80b06d3c68fd541" target="_top" xlink:title=" ">
<polygon fill="white" stroke="#666666" points="225.5,-32 88.75,-32 88.75,0 225.5,0 225.5,-32"/>
<text xml:space="preserve" text-anchor="start" x="96.75" y="-18.5" font-family="Helvetica,sans-Serif" font-size="10.00">ConsoleLogger::setConsole</text>
<text xml:space="preserve" text-anchor="middle" x="157.12" y="-6.5" font-family="Helvetica,sans-Serif" font-size="10.00">Color</text>
</a>
</g>
</g>
<!-- Node1&#45;&gt;Node3 -->
<g id="edge2_Node000001_Node000003" class="edge">
<title>Node1&#45;&gt;Node3</title>
<g id="a_edge2_Node000001_Node000003"><a xlink:title=" ">
<path fill="none" stroke="#63b8ff" d="M53.12,-33.6C60.34,-32.37 68.6,-30.96 77.22,-29.48"/>
<polygon fill="#63b8ff" stroke="#63b8ff" points="77.52,-32.98 86.79,-27.85 76.34,-26.08 77.52,-32.98"/>
</a>
</g>
</g>
<!-- Node4 -->
<g id="Node000004" class="node">
<title>Node4</title>
<g id="a_Node000004"><a xlink:href="classConsoleLogger.html#a7c4374a210726f7bbe380f45a1f99190" target="_top" xlink:title=" ">
<polygon fill="white" stroke="#666666" points="398.25,-32 261.5,-32 261.5,0 398.25,0 398.25,-32"/>
<text xml:space="preserve" text-anchor="start" x="269.5" y="-18.5" font-family="Helvetica,sans-Serif" font-size="10.00">ConsoleLogger::setConsole</text>
<text xml:space="preserve" text-anchor="middle" x="329.88" y="-6.5" font-family="Helvetica,sans-Serif" font-size="10.00">ColorUnix</text>
</a>
</g>
</g>
<!-- Node3&#45;&gt;Node4 -->
<g id="edge3_Node000003_Node000004" class="edge">
<title>Node3&#45;&gt;Node4</title>
<g id="a_edge3_Node000003_Node000004"><a xlink:title=" ">
<path fill="none" stroke="#63b8ff" d="M225.61,-16C233.53,-16 241.66,-16 249.73,-16"/>
<polygon fill="#63b8ff" stroke="#63b8ff" points="249.53,-19.5 259.53,-16 249.53,-12.5 249.53,-19.5"/>
</a>
</g>
</g>
<!-- Node4&#45;&gt;Node2 -->
<g id="edge4_Node000004_Node000002" class="edge">
<title>Node4&#45;&gt;Node2</title>
<g id="a_edge4_Node000004_Node000002"><a xlink:title=" ">
<path fill="none" stroke="#63b8ff" d="M398.74,-24.54C406.57,-25.52 414.62,-26.54 422.62,-27.54"/>
<polygon fill="#63b8ff" stroke="#63b8ff" points="422.02,-30.99 432.37,-28.77 422.89,-24.05 422.02,-30.99"/>
</a>
</g>
</g>
</g>
</svg>
