<?xml version="1.0" encoding="UTF-8" standalone="no"?>
<!DOCTYPE svg PUBLIC "-//W3C//DTD SVG 1.1//EN"
 "http://www.w3.org/Graphics/SVG/1.1/DTD/svg11.dtd">
<!-- Generated by graphviz version 13.1.2 (20250808.2320)
 -->
<!-- Title: TEST_F Pages: 1 -->
<svg width="925pt" height="116pt"
 viewBox="0.00 0.00 925.00 116.00" xmlns="http://www.w3.org/2000/svg" xmlns:xlink="http://www.w3.org/1999/xlink">
<g id="graph0" class="graph" transform="scale(1 1) rotate(0) translate(4 112)">
<title>TEST_F</title>
<!-- Node1 -->
<g id="Node000001" class="node">
<title>Node1</title>
<g id="a_Node000001"><a xlink:title=" ">
<polygon fill="#999999" stroke="#666666" points="52.75,-51 0,-51 0,-31 52.75,-31 52.75,-51"/>
<text xml:space="preserve" text-anchor="middle" x="26.38" y="-37.5" font-family="Helvetica,sans-Serif" font-size="10.00">TEST_F</text>
</a>
</g>
</g>
<!-- Node2 -->
<g id="Node000002" class="node">
<title>Node2</title>
<g id="a_Node000002"><a xlink:href="classConsoleLogger.html#ab610c1dfc5564e00841dfeae547f836f" target="_top" xlink:title="Log an info message.">
<polygon fill="white" stroke="#666666" points="219.5,-70 116.5,-70 116.5,-50 219.5,-50 219.5,-70"/>
<text xml:space="preserve" text-anchor="middle" x="168" y="-56.5" font-family="Helvetica,sans-Serif" font-size="10.00">ConsoleLogger::info</text>
</a>
</g>
</g>
<!-- Node1&#45;&gt;Node2 -->
<g id="edge1_Node000001_Node000002" class="edge">
<title>Node1&#45;&gt;Node2</title>
<g id="a_edge1_Node000001_Node000002"><a xlink:title=" ">
<path fill="none" stroke="#63b8ff" d="M52.98,-44.48C67.59,-46.47 86.58,-49.06 104.85,-51.54"/>
<polygon fill="#63b8ff" stroke="#63b8ff" points="104.22,-54.99 114.6,-52.87 105.16,-48.05 104.22,-54.99"/>
</a>
</g>
</g>
<!-- Node8 -->
<g id="Node000008" class="node">
<title>Node8</title>
<g id="a_Node000008"><a xlink:href="classConsoleLogger.html#add4cfcb48e31fc7223fefc343ce324b1" target="_top" xlink:title="Set the Header Name object.">
<polygon fill="white" stroke="#666666" points="247.25,-32 88.75,-32 88.75,-12 247.25,-12 247.25,-32"/>
<text xml:space="preserve" text-anchor="middle" x="168" y="-18.5" font-family="Helvetica,sans-Serif" font-size="10.00">ConsoleLogger::setHeaderName</text>
</a>
</g>
</g>
<!-- Node1&#45;&gt;Node8 -->
<g id="edge8_Node000001_Node000008" class="edge">
<title>Node1&#45;&gt;Node8</title>
<g id="a_edge8_Node000001_Node000008"><a xlink:title=" ">
<path fill="none" stroke="#63b8ff" d="M52.98,-37.52C60.54,-36.49 69.27,-35.3 78.47,-34.05"/>
<polygon fill="#63b8ff" stroke="#63b8ff" points="78.94,-37.52 88.37,-32.7 77.99,-30.58 78.94,-37.52"/>
</a>
</g>
</g>
<!-- Node3 -->
<g id="Node000003" class="node">
<title>Node3</title>
<g id="a_Node000003"><a xlink:href="classConsoleLogger.html#a9aa67bea16b85fc2e7f76aa6e6faac26" target="_top" xlink:title="Logs a message with a specified level to the console and optionally to a file.">
<polygon fill="white" stroke="#666666" points="383.25,-70 283.25,-70 283.25,-50 383.25,-50 383.25,-70"/>
<text xml:space="preserve" text-anchor="middle" x="333.25" y="-56.5" font-family="Helvetica,sans-Serif" font-size="10.00">ConsoleLogger::log</text>
</a>
</g>
</g>
<!-- Node2&#45;&gt;Node3 -->
<g id="edge2_Node000002_Node000003" class="edge">
<title>Node2&#45;&gt;Node3</title>
<g id="a_edge2_Node000002_Node000003"><a xlink:title=" ">
<path fill="none" stroke="#63b8ff" d="M219.76,-60C236.27,-60 254.75,-60 271.89,-60"/>
<polygon fill="#63b8ff" stroke="#63b8ff" points="271.41,-63.5 281.41,-60 271.41,-56.5 271.41,-63.5"/>
</a>
</g>
</g>
<!-- Node4 -->
<g id="Node000004" class="node">
<title>Node4</title>
<g id="a_Node000004"><a xlink:href="classConsoleLogger.html#a46e60e26db61000d04cfa66480729f2a" target="_top" xlink:title="Convert a logging level to its string representation.">
<polygon fill="white" stroke="#666666" points="562.75,-108 419.25,-108 419.25,-88 562.75,-88 562.75,-108"/>
<text xml:space="preserve" text-anchor="middle" x="491" y="-94.5" font-family="Helvetica,sans-Serif" font-size="10.00">ConsoleLogger::levelToString</text>
</a>
</g>
</g>
<!-- Node3&#45;&gt;Node4 -->
<g id="edge3_Node000003_Node000004" class="edge">
<title>Node3&#45;&gt;Node4</title>
<g id="a_edge3_Node000003_Node000004"><a xlink:title=" ">
<path fill="none" stroke="#63b8ff" d="M377.22,-70.48C395.44,-74.93 416.86,-80.16 436.12,-84.85"/>
<polygon fill="#63b8ff" stroke="#63b8ff" points="435.15,-88.22 445.7,-87.19 436.81,-81.42 435.15,-88.22"/>
</a>
</g>
</g>
<!-- Node5 -->
<g id="Node000005" class="node">
<title>Node5</title>
<g id="a_Node000005"><a xlink:href="classConsoleLogger.html#a787b42f6e197b60908113326b9a048fa" target="_top" xlink:title="Reset the console color to default.">
<polygon fill="white" stroke="#666666" points="916.5,-54 771.5,-54 771.5,-22 916.5,-22 916.5,-54"/>
<text xml:space="preserve" text-anchor="start" x="779.5" y="-40.5" font-family="Helvetica,sans-Serif" font-size="10.00">ConsoleLogger::resetConsole</text>
<text xml:space="preserve" text-anchor="middle" x="844" y="-28.5" font-family="Helvetica,sans-Serif" font-size="10.00">Color</text>
</a>
</g>
</g>
<!-- Node3&#45;&gt;Node5 -->
<g id="edge4_Node000003_Node000005" class="edge">
<title>Node3&#45;&gt;Node5</title>
<g id="a_edge4_Node000003_Node000005"><a xlink:title=" ">
<path fill="none" stroke="#63b8ff" d="M383.49,-57.87C470.59,-54.1 652.69,-46.23 759.65,-41.6"/>
<polygon fill="#63b8ff" stroke="#63b8ff" points="759.68,-45.11 769.52,-41.18 759.38,-38.11 759.68,-45.11"/>
</a>
</g>
</g>
<!-- Node6 -->
<g id="Node000006" class="node">
<title>Node6</title>
<g id="a_Node000006"><a xlink:href="classConsoleLogger.html#aecacefa838b28f34a80b06d3c68fd541" target="_top" xlink:title=" ">
<polygon fill="white" stroke="#666666" points="559.38,-32 422.62,-32 422.62,0 559.38,0 559.38,-32"/>
<text xml:space="preserve" text-anchor="start" x="430.62" y="-18.5" font-family="Helvetica,sans-Serif" font-size="10.00">ConsoleLogger::setConsole</text>
<text xml:space="preserve" text-anchor="middle" x="491" y="-6.5" font-family="Helvetica,sans-Serif" font-size="10.00">Color</text>
</a>
</g>
</g>
<!-- Node3&#45;&gt;Node6 -->
<g id="edge5_Node000003_Node000006" class="edge">
<title>Node3&#45;&gt;Node6</title>
<g id="a_edge5_Node000003_Node000006"><a xlink:title=" ">
<path fill="none" stroke="#63b8ff" d="M371.16,-49.57C386.13,-45.34 403.93,-40.31 421.14,-35.45"/>
<polygon fill="#63b8ff" stroke="#63b8ff" points="421.61,-38.96 430.28,-32.87 419.71,-32.22 421.61,-38.96"/>
</a>
</g>
</g>
<!-- Node7 -->
<g id="Node000007" class="node">
<title>Node7</title>
<g id="a_Node000007"><a xlink:href="classConsoleLogger.html#a7c4374a210726f7bbe380f45a1f99190" target="_top" xlink:title=" ">
<polygon fill="white" stroke="#666666" points="735.5,-32 598.75,-32 598.75,0 735.5,0 735.5,-32"/>
<text xml:space="preserve" text-anchor="start" x="606.75" y="-18.5" font-family="Helvetica,sans-Serif" font-size="10.00">ConsoleLogger::setConsole</text>
<text xml:space="preserve" text-anchor="middle" x="667.12" y="-6.5" font-family="Helvetica,sans-Serif" font-size="10.00">ColorUnix</text>
</a>
</g>
</g>
<!-- Node6&#45;&gt;Node7 -->
<g id="edge6_Node000006_Node000007" class="edge">
<title>Node6&#45;&gt;Node7</title>
<g id="a_edge6_Node000006_Node000007"><a xlink:title=" ">
<path fill="none" stroke="#63b8ff" d="M559.82,-16C568.75,-16 577.96,-16 587.06,-16"/>
<polygon fill="#63b8ff" stroke="#63b8ff" points="586.98,-19.5 596.98,-16 586.98,-12.5 586.98,-19.5"/>
</a>
</g>
</g>
<!-- Node7&#45;&gt;Node5 -->
<g id="edge7_Node000007_Node000005" class="edge">
<title>Node7&#45;&gt;Node5</title>
<g id="a_edge7_Node000007_Node000005"><a xlink:title=" ">
<path fill="none" stroke="#63b8ff" d="M735.99,-24.54C743.82,-25.52 751.87,-26.54 759.87,-27.54"/>
<polygon fill="#63b8ff" stroke="#63b8ff" points="759.27,-30.99 769.62,-28.77 760.14,-24.05 759.27,-30.99"/>
</a>
</g>
</g>
</g>
</svg>
