<?xml version="1.0" encoding="UTF-8" standalone="no"?>
<!DOCTYPE svg PUBLIC "-//W3C//DTD SVG 1.1//EN"
 "http://www.w3.org/Graphics/SVG/1.1/DTD/svg11.dtd">
<!-- Generated by graphviz version 13.1.2 (20250808.2320)
 -->
<!-- Title: src/Utils/Logger/ConsoleLogger.hpp Pages: 1 -->
<svg width="320pt" height="108pt"
 viewBox="0.00 0.00 320.00 108.00" xmlns="http://www.w3.org/2000/svg" xmlns:xlink="http://www.w3.org/1999/xlink">
<g id="graph0" class="graph" transform="scale(1 1) rotate(0) translate(4 104)">
<title>src/Utils/Logger/ConsoleLogger.hpp</title>
<!-- Node1 -->
<g id="Node000001" class="node">
<title>Node1</title>
<g id="a_Node000001"><a xlink:title=" ">
<polygon fill="#999999" stroke="#666666" points="207.12,-100 83.12,-100 83.12,-68 207.12,-68 207.12,-100"/>
<text xml:space="preserve" text-anchor="start" x="91.12" y="-86.5" font-family="Helvetica,sans-Serif" font-size="10.00">src/Utils/Logger/Console</text>
<text xml:space="preserve" text-anchor="middle" x="145.12" y="-74.5" font-family="Helvetica,sans-Serif" font-size="10.00">Logger.hpp</text>
</a>
</g>
</g>
<!-- Node2 -->
<g id="Node000002" class="node">
<title>Node2</title>
<g id="a_Node000002"><a xlink:href="ConsoleLoggerTest_8cpp.html" target="_top" xlink:title=" ">
<polygon fill="white" stroke="#666666" points="126.25,-32 0,-32 0,0 126.25,0 126.25,-32"/>
<text xml:space="preserve" text-anchor="start" x="8" y="-18.5" font-family="Helvetica,sans-Serif" font-size="10.00">application/tests/Console</text>
<text xml:space="preserve" text-anchor="middle" x="63.12" y="-6.5" font-family="Helvetica,sans-Serif" font-size="10.00">LoggerTest.cpp</text>
</a>
</g>
</g>
<!-- Node1&#45;&gt;Node2 -->
<g id="edge1_Node000001_Node000002" class="edge">
<title>Node1&#45;&gt;Node2</title>
<g id="a_edge1_Node000001_Node000002"><a xlink:title=" ">
<path fill="none" stroke="#63b8ff" d="M117.29,-60.6C105.79,-51.34 92.73,-40.83 82.32,-32.45"/>
<polygon fill="#63b8ff" stroke="#63b8ff" points="114.94,-63.2 124.93,-66.74 119.33,-57.75 114.94,-63.2"/>
</a>
</g>
</g>
<!-- Node3 -->
<g id="Node000003" class="node">
<title>Node3</title>
<g id="a_Node000003"><a xlink:href="LoggerFactory_8cpp.html" target="_top" xlink:title=" ">
<polygon fill="white" stroke="#666666" points="312.25,-26 144,-26 144,-6 312.25,-6 312.25,-26"/>
<text xml:space="preserve" text-anchor="middle" x="228.12" y="-12.5" font-family="Helvetica,sans-Serif" font-size="10.00">src/Utils/Logger/LoggerFactory.cpp</text>
</a>
</g>
</g>
<!-- Node1&#45;&gt;Node3 -->
<g id="edge2_Node000001_Node000003" class="edge">
<title>Node1&#45;&gt;Node3</title>
<g id="a_edge2_Node000001_Node000003"><a xlink:title=" ">
<path fill="none" stroke="#63b8ff" d="M173.16,-60.71C187.91,-48.98 205.22,-35.22 216.41,-26.32"/>
<polygon fill="#63b8ff" stroke="#63b8ff" points="171.21,-57.79 165.56,-66.75 175.57,-63.27 171.21,-57.79"/>
</a>
</g>
</g>
</g>
</svg>
