<?xml version="1.0" encoding="UTF-8" standalone="no"?>
<!DOCTYPE svg PUBLIC "-//W3C//DTD SVG 1.1//EN"
 "http://www.w3.org/Graphics/SVG/1.1/DTD/svg11.dtd">
<!-- Generated by graphviz version 13.1.2 (20250808.2320)
 -->
<!-- Title: src/Utils/Logger/ConsoleLogger.hpp Pages: 1 -->
<svg width="800pt" height="152pt"
 viewBox="0.00 0.00 800.00 152.00" xmlns="http://www.w3.org/2000/svg" xmlns:xlink="http://www.w3.org/1999/xlink">
<g id="graph0" class="graph" transform="scale(1 1) rotate(0) translate(4 148)">
<title>src/Utils/Logger/ConsoleLogger.hpp</title>
<!-- Node1 -->
<g id="Node000001" class="node">
<title>Node1</title>
<g id="a_Node000001"><a xlink:title=" ">
<polygon fill="#999999" stroke="#666666" points="484.12,-144 360.12,-144 360.12,-112 484.12,-112 484.12,-144"/>
<text xml:space="preserve" text-anchor="start" x="368.12" y="-130.5" font-family="Helvetica,sans-Serif" font-size="10.00">src/Utils/Logger/Console</text>
<text xml:space="preserve" text-anchor="middle" x="422.12" y="-118.5" font-family="Helvetica,sans-Serif" font-size="10.00">Logger.hpp</text>
</a>
</g>
</g>
<!-- Node2 -->
<g id="Node000002" class="node">
<title>Node2</title>
<g id="a_Node000002"><a xlink:href="ILogger_8hpp.html" target="_top" xlink:title=" ">
<polygon fill="white" stroke="#666666" points="204.62,-76 137.62,-76 137.62,-56 204.62,-56 204.62,-76"/>
<text xml:space="preserve" text-anchor="middle" x="171.12" y="-62.5" font-family="Helvetica,sans-Serif" font-size="10.00">ILogger.hpp</text>
</a>
</g>
</g>
<!-- Node1&#45;&gt;Node2 -->
<g id="edge1_Node000001_Node000002" class="edge">
<title>Node1&#45;&gt;Node2</title>
<g id="a_edge1_Node000001_Node000002"><a xlink:title=" ">
<path fill="none" stroke="#63b8ff" d="M359.76,-112.09C315.13,-101.42 256.1,-87.31 216.04,-77.74"/>
<polygon fill="#63b8ff" stroke="#63b8ff" points="217.04,-74.38 206.5,-75.46 215.41,-81.18 217.04,-74.38"/>
</a>
</g>
</g>
<!-- Node3 -->
<g id="Node000003" class="node">
<title>Node3</title>
<g id="a_Node000003"><a xlink:title=" ">
<polygon fill="#e0e0e0" stroke="#999999" points="60.25,-20 0,-20 0,0 60.25,0 60.25,-20"/>
<text xml:space="preserve" text-anchor="middle" x="30.12" y="-6.5" font-family="Helvetica,sans-Serif" font-size="10.00">fmt/core.h</text>
</a>
</g>
</g>
<!-- Node1&#45;&gt;Node3 -->
<g id="edge16_Node000001_Node000003" class="edge">
<title>Node1&#45;&gt;Node3</title>
<g id="a_edge16_Node000001_Node000003"><a xlink:title=" ">
<path fill="none" stroke="#63b8ff" d="M359.83,-123.52C299.11,-118.44 205.11,-106.05 129.12,-76 99.33,-64.21 69.12,-42.69 50.05,-27.65"/>
<polygon fill="#63b8ff" stroke="#63b8ff" points="52.31,-24.98 42.33,-21.42 47.91,-30.42 52.31,-24.98"/>
</a>
</g>
</g>
<!-- Node6 -->
<g id="Node000006" class="node">
<title>Node6</title>
<g id="a_Node000006"><a xlink:title=" ">
<polygon fill="#e0e0e0" stroke="#999999" points="261.75,-20 210.5,-20 210.5,0 261.75,0 261.75,-20"/>
<text xml:space="preserve" text-anchor="middle" x="236.12" y="-6.5" font-family="Helvetica,sans-Serif" font-size="10.00">sstream</text>
</a>
</g>
</g>
<!-- Node1&#45;&gt;Node6 -->
<g id="edge13_Node000001_Node000006" class="edge">
<title>Node1&#45;&gt;Node6</title>
<g id="a_edge13_Node000001_Node000006"><a xlink:title=" ">
<path fill="none" stroke="#63b8ff" d="M359.88,-113.11C334.03,-105.22 304.84,-93.35 282.12,-76 266.19,-63.83 253.55,-44.59 245.58,-30.19"/>
<polygon fill="#63b8ff" stroke="#63b8ff" points="248.86,-28.91 241.12,-21.67 242.65,-32.15 248.86,-28.91"/>
</a>
</g>
</g>
<!-- Node7 -->
<g id="Node000007" class="node">
<title>Node7</title>
<g id="a_Node000007"><a xlink:title=" ">
<polygon fill="#e0e0e0" stroke="#999999" points="320.12,-20 280.12,-20 280.12,0 320.12,0 320.12,-20"/>
<text xml:space="preserve" text-anchor="middle" x="300.12" y="-6.5" font-family="Helvetica,sans-Serif" font-size="10.00">string</text>
</a>
</g>
</g>
<!-- Node1&#45;&gt;Node7 -->
<g id="edge14_Node000001_Node000007" class="edge">
<title>Node1&#45;&gt;Node7</title>
<g id="a_edge14_Node000001_Node000007"><a xlink:title=" ">
<path fill="none" stroke="#63b8ff" d="M359.86,-118.13C334.46,-111.11 307.49,-98.53 292.12,-76 283.12,-62.79 286.42,-44.48 291.23,-30.66"/>
<polygon fill="#63b8ff" stroke="#63b8ff" points="294.34,-32.3 294.82,-21.72 287.84,-29.69 294.34,-32.3"/>
</a>
</g>
</g>
<!-- Node8 -->
<g id="Node000008" class="node">
<title>Node8</title>
<g id="a_Node000008"><a xlink:title=" ">
<polygon fill="#e0e0e0" stroke="#999999" points="346.75,-76 301.5,-76 301.5,-56 346.75,-56 346.75,-76"/>
<text xml:space="preserve" text-anchor="middle" x="324.12" y="-62.5" font-family="Helvetica,sans-Serif" font-size="10.00">chrono</text>
</a>
</g>
</g>
<!-- Node1&#45;&gt;Node8 -->
<g id="edge7_Node000001_Node000008" class="edge">
<title>Node1&#45;&gt;Node8</title>
<g id="a_edge7_Node000001_Node000008"><a xlink:title=" ">
<path fill="none" stroke="#63b8ff" d="M396.89,-111.55C382.14,-102.52 363.61,-91.17 348.94,-82.19"/>
<polygon fill="#63b8ff" stroke="#63b8ff" points="351.14,-79.43 340.78,-77.2 347.48,-85.4 351.14,-79.43"/>
</a>
</g>
</g>
<!-- Node9 -->
<g id="Node000009" class="node">
<title>Node9</title>
<g id="a_Node000009"><a xlink:title=" ">
<polygon fill="#e0e0e0" stroke="#999999" points="413.62,-76 364.62,-76 364.62,-56 413.62,-56 413.62,-76"/>
<text xml:space="preserve" text-anchor="middle" x="389.12" y="-62.5" font-family="Helvetica,sans-Serif" font-size="10.00">fstream</text>
</a>
</g>
</g>
<!-- Node1&#45;&gt;Node9 -->
<g id="edge8_Node000001_Node000009" class="edge">
<title>Node1&#45;&gt;Node9</title>
<g id="a_edge8_Node000001_Node000009"><a xlink:title=" ">
<path fill="none" stroke="#63b8ff" d="M413.63,-111.55C409.43,-103.91 404.31,-94.61 399.84,-86.49"/>
<polygon fill="#63b8ff" stroke="#63b8ff" points="402.91,-84.81 395.03,-77.73 396.78,-88.18 402.91,-84.81"/>
</a>
</g>
</g>
<!-- Node10 -->
<g id="Node000010" class="node">
<title>Node10</title>
<g id="a_Node000010"><a xlink:title=" ">
<polygon fill="#e0e0e0" stroke="#999999" points="481,-76 431.25,-76 431.25,-56 481,-56 481,-76"/>
<text xml:space="preserve" text-anchor="middle" x="456.12" y="-62.5" font-family="Helvetica,sans-Serif" font-size="10.00">iomanip</text>
</a>
</g>
</g>
<!-- Node1&#45;&gt;Node10 -->
<g id="edge9_Node000001_Node000010" class="edge">
<title>Node1&#45;&gt;Node10</title>
<g id="a_edge9_Node000001_Node000010"><a xlink:title=" ">
<path fill="none" stroke="#63b8ff" d="M430.88,-111.55C435.26,-103.82 440.6,-94.4 445.24,-86.21"/>
<polygon fill="#63b8ff" stroke="#63b8ff" points="448.16,-88.15 450.05,-77.72 442.07,-84.7 448.16,-88.15"/>
</a>
</g>
</g>
<!-- Node11 -->
<g id="Node000011" class="node">
<title>Node11</title>
<g id="a_Node000011"><a xlink:title=" ">
<polygon fill="#e0e0e0" stroke="#999999" points="552.88,-76 499.38,-76 499.38,-56 552.88,-56 552.88,-76"/>
<text xml:space="preserve" text-anchor="middle" x="526.12" y="-62.5" font-family="Helvetica,sans-Serif" font-size="10.00">iostream</text>
</a>
</g>
</g>
<!-- Node1&#45;&gt;Node11 -->
<g id="edge10_Node000001_Node000011" class="edge">
<title>Node1&#45;&gt;Node11</title>
<g id="a_edge10_Node000001_Node000011"><a xlink:title=" ">
<path fill="none" stroke="#63b8ff" d="M448.91,-111.55C464.71,-102.43 484.6,-90.96 500.24,-81.93"/>
<polygon fill="#63b8ff" stroke="#63b8ff" points="501.59,-85.19 508.51,-77.16 498.1,-79.13 501.59,-85.19"/>
</a>
</g>
</g>
<!-- Node12 -->
<g id="Node000012" class="node">
<title>Node12</title>
<g id="a_Node000012"><a xlink:title=" ">
<polygon fill="#e0e0e0" stroke="#999999" points="605.5,-76 570.75,-76 570.75,-56 605.5,-56 605.5,-76"/>
<text xml:space="preserve" text-anchor="middle" x="588.12" y="-62.5" font-family="Helvetica,sans-Serif" font-size="10.00">map</text>
</a>
</g>
</g>
<!-- Node1&#45;&gt;Node12 -->
<g id="edge11_Node000001_Node000012" class="edge">
<title>Node1&#45;&gt;Node12</title>
<g id="a_edge11_Node000001_Node000012"><a xlink:title=" ">
<path fill="none" stroke="#63b8ff" d="M464.87,-111.55C494.66,-100.78 533.58,-86.71 559.64,-77.29"/>
<polygon fill="#63b8ff" stroke="#63b8ff" points="560.66,-80.65 568.87,-73.96 558.28,-74.07 560.66,-80.65"/>
</a>
</g>
</g>
<!-- Node13 -->
<g id="Node000013" class="node">
<title>Node13</title>
<g id="a_Node000013"><a xlink:title=" ">
<polygon fill="#e0e0e0" stroke="#999999" points="666.62,-76 623.62,-76 623.62,-56 666.62,-56 666.62,-76"/>
<text xml:space="preserve" text-anchor="middle" x="645.12" y="-62.5" font-family="Helvetica,sans-Serif" font-size="10.00">mutex</text>
</a>
</g>
</g>
<!-- Node1&#45;&gt;Node13 -->
<g id="edge12_Node000001_Node000013" class="edge">
<title>Node1&#45;&gt;Node13</title>
<g id="a_edge12_Node000001_Node000013"><a xlink:title=" ">
<path fill="none" stroke="#63b8ff" d="M481.9,-111.5C517.24,-102.25 563.14,-90.08 612.26,-76.47"/>
<polygon fill="#63b8ff" stroke="#63b8ff" points="612.97,-79.91 621.67,-73.86 611.1,-73.16 612.97,-79.91"/>
</a>
</g>
</g>
<!-- Node14 -->
<g id="Node000014" class="node">
<title>Node14</title>
<g id="a_Node000014"><a xlink:title=" ">
<polygon fill="#e0e0e0" stroke="#999999" points="723.75,-76 684.5,-76 684.5,-56 723.75,-56 723.75,-76"/>
<text xml:space="preserve" text-anchor="middle" x="704.12" y="-62.5" font-family="Helvetica,sans-Serif" font-size="10.00">utility</text>
</a>
</g>
</g>
<!-- Node1&#45;&gt;Node14 -->
<g id="edge15_Node000001_Node000014" class="edge">
<title>Node1&#45;&gt;Node14</title>
<g id="a_edge15_Node000001_Node000014"><a xlink:title=" ">
<path fill="none" stroke="#63b8ff" d="M484.42,-116.52C533.49,-107.8 603.79,-94.31 672.93,-76.63"/>
<polygon fill="#63b8ff" stroke="#63b8ff" points="673.75,-80.04 682.55,-74.14 671.99,-73.26 673.75,-80.04"/>
</a>
</g>
</g>
<!-- Node15 -->
<g id="Node000015" class="node">
<title>Node15</title>
<g id="a_Node000015"><a xlink:title=" ">
<polygon fill="#e0e0e0" stroke="#999999" points="792.38,-76 741.88,-76 741.88,-56 792.38,-56 792.38,-76"/>
<text xml:space="preserve" text-anchor="middle" x="767.12" y="-62.5" font-family="Helvetica,sans-Serif" font-size="10.00">unistd.h</text>
</a>
</g>
</g>
<!-- Node1&#45;&gt;Node15 -->
<g id="edge17_Node000001_Node000015" class="edge">
<title>Node1&#45;&gt;Node15</title>
<g id="a_edge17_Node000001_Node000015"><a xlink:title=" ">
<path fill="none" stroke="#63b8ff" d="M484.41,-118.59C544.97,-110 639.76,-95.49 730.52,-76.4"/>
<polygon fill="#63b8ff" stroke="#63b8ff" points="731.04,-79.87 740.09,-74.36 729.58,-73.02 731.04,-79.87"/>
</a>
</g>
</g>
<!-- Node2&#45;&gt;Node3 -->
<g id="edge2_Node000002_Node000003" class="edge">
<title>Node2&#45;&gt;Node3</title>
<g id="a_edge2_Node000002_Node000003"><a xlink:title=" ">
<path fill="none" stroke="#63b8ff" d="M146.56,-55.59C124.16,-47.01 90.79,-34.23 65.51,-24.55"/>
<polygon fill="#63b8ff" stroke="#63b8ff" points="66.88,-21.33 56.29,-21.02 64.38,-27.87 66.88,-21.33"/>
</a>
</g>
</g>
<!-- Node4 -->
<g id="Node000004" class="node">
<title>Node4</title>
<g id="a_Node000004"><a xlink:title=" ">
<polygon fill="#e0e0e0" stroke="#999999" points="192.75,-20 147.5,-20 147.5,0 192.75,0 192.75,-20"/>
<text xml:space="preserve" text-anchor="middle" x="170.12" y="-6.5" font-family="Helvetica,sans-Serif" font-size="10.00">cstdint</text>
</a>
</g>
</g>
<!-- Node2&#45;&gt;Node4 -->
<g id="edge3_Node000002_Node000004" class="edge">
<title>Node2&#45;&gt;Node4</title>
<g id="a_edge3_Node000002_Node000004"><a xlink:title=" ">
<path fill="none" stroke="#63b8ff" d="M170.95,-55.59C170.83,-49.01 170.66,-39.96 170.51,-31.73"/>
<polygon fill="#63b8ff" stroke="#63b8ff" points="174.01,-31.75 170.33,-21.81 167.01,-31.87 174.01,-31.75"/>
</a>
</g>
</g>
<!-- Node5 -->
<g id="Node000005" class="node">
<title>Node5</title>
<g id="a_Node000005"><a xlink:title=" ">
<polygon fill="#e0e0e0" stroke="#999999" points="129.75,-20 78.5,-20 78.5,0 129.75,0 129.75,-20"/>
<text xml:space="preserve" text-anchor="middle" x="104.12" y="-6.5" font-family="Helvetica,sans-Serif" font-size="10.00">memory</text>
</a>
</g>
</g>
<!-- Node2&#45;&gt;Node5 -->
<g id="edge4_Node000002_Node000005" class="edge">
<title>Node2&#45;&gt;Node5</title>
<g id="a_edge4_Node000002_Node000005"><a xlink:title=" ">
<path fill="none" stroke="#63b8ff" d="M159.45,-55.59C149.85,-47.85 136,-36.69 124.56,-27.47"/>
<polygon fill="#63b8ff" stroke="#63b8ff" points="126.82,-24.8 116.84,-21.25 122.43,-30.25 126.82,-24.8"/>
</a>
</g>
</g>
<!-- Node2&#45;&gt;Node6 -->
<g id="edge5_Node000002_Node000006" class="edge">
<title>Node2&#45;&gt;Node6</title>
<g id="a_edge5_Node000002_Node000006"><a xlink:title=" ">
<path fill="none" stroke="#63b8ff" d="M182.45,-55.59C191.77,-47.85 205.2,-36.69 216.3,-27.47"/>
<polygon fill="#63b8ff" stroke="#63b8ff" points="218.31,-30.35 223.77,-21.27 213.84,-24.96 218.31,-30.35"/>
</a>
</g>
</g>
<!-- Node2&#45;&gt;Node7 -->
<g id="edge6_Node000002_Node000007" class="edge">
<title>Node2&#45;&gt;Node7</title>
<g id="a_edge6_Node000002_Node000007"><a xlink:title=" ">
<path fill="none" stroke="#63b8ff" d="M193.6,-55.59C214.66,-46.78 246.31,-33.53 269.65,-23.76"/>
<polygon fill="#63b8ff" stroke="#63b8ff" points="270.76,-27.09 278.63,-20 268.06,-20.63 270.76,-27.09"/>
</a>
</g>
</g>
</g>
</svg>
