<?xml version="1.0" encoding="UTF-8" standalone="no"?>
<!DOCTYPE svg PUBLIC "-//W3C//DTD SVG 1.1//EN"
 "http://www.w3.org/Graphics/SVG/1.1/DTD/svg11.dtd">
<!-- Generated by graphviz version 13.1.2 (20250808.2320)
 -->
<!-- Title: application/tests/ConsoleLoggerTest.cpp Pages: 1 -->
<!--zoomable 220 -->

<svg id="main" version="1.1" xmlns="http://www.w3.org/2000/svg" xmlns:xlink="http://www.w3.org/1999/xlink" xml:space="preserve" onload="init(evt)">

<style type="text/css"><![CDATA[
.node, .edge {opacity: 0.7;}
.node.selected, .edge.selected {opacity: 1;}
.edge:hover path { stroke: red; }
.edge:hover polygon { stroke: red; fill: red; }
]]></style>

<defs>
  <circle id="rim" cx="0" cy="0" r="7"/>
  <circle id="rim2" cx="0" cy="0" r="3.5"/>
  <g id="zoomPlus">
    <use xlink:href="#rim" fill="#404040"><set attributeName="fill" to="#808080" begin="zoomplus.mouseover" end="zoomplus.mouseout"/></use>
    <path d="M-4,0h8M0,-4v8" fill="none" stroke="white" stroke-width="1.5" pointer-events="none"/>
  </g>
  <g id="zoomMin">
    <use xlink:href="#rim" fill="#404040"><set attributeName="fill" to="#808080" begin="zoomminus.mouseover" end="zoomminus.mouseout"/></use>
    <path d="M-4,0h8" fill="none" stroke="white" stroke-width="1.5" pointer-events="none"/>
  </g>
  <g id="arrowUp" transform="translate(30 24)">
    <use xlink:href="#rim"/>
    <path pointer-events="none" fill="none" stroke="white" stroke-width="1.5" d="M0,-3.0v7 M-2.5,-0.5L0,-3.0L2.5,-0.5"/>
  </g>
  <g id="arrowRight" transform="rotate(90) translate(36 -43)">
    <use xlink:href="#rim"/>
    <path pointer-events="none" fill="none" stroke="white" stroke-width="1.5" d="M0,-3.0v7 M-2.5,-0.5L0,-3.0L2.5,-0.5"/>
  </g>
  <g id="arrowDown" transform="rotate(180) translate(-30 -48)">
    <use xlink:href="#rim"/>
    <path pointer-events="none" fill="none" stroke="white" stroke-width="1.5" d="M0,-3.0v7 M-2.5,-0.5L0,-3.0L2.5,-0.5"/>
  </g>
  <g id="arrowLeft" transform="rotate(270) translate(-36 17)">
    <use xlink:href="#rim"/>
    <path pointer-events="none" fill="none" stroke="white" stroke-width="1.5" d="M0,-3.0v7 M-2.5,-0.5L0,-3.0L2.5,-0.5"/>
  </g>
  <g id="resetDef">
    <use xlink:href="#rim2" fill="#404040"><set attributeName="fill" to="#808080" begin="reset.mouseover" end="reset.mouseout"/></use>
  </g>
</defs>
<script type="application/ecmascript">
var viewWidth = 887;
var viewHeight = 220;
var sectionId = 'dynsection-0';
</script>
<script type="application/ecmascript" xlink:href="svg.min.js"/>
<svg id="graph" class="graph">
<g id="viewport">
<title>application/tests/ConsoleLoggerTest.cpp</title>
<!-- Node1 -->
<g id="Node000001" class="node">
<title>Node1</title>
<g id="a_Node000001"><a xlink:title=" ">
<polygon fill="#999999" stroke="#666666" points="762.75,-212 636.5,-212 636.5,-180 762.75,-180 762.75,-212"/>
<text xml:space="preserve" text-anchor="start" x="644.5" y="-198.5" font-family="Helvetica,sans-Serif" font-size="10.00">application/tests/Console</text>
<text xml:space="preserve" text-anchor="middle" x="699.62" y="-186.5" font-family="Helvetica,sans-Serif" font-size="10.00">LoggerTest.cpp</text>
</a>
</g>
</g>
<!-- Node2 -->
<g id="Node000002" class="node">
<title>Node2</title>
<g id="a_Node000002"><a xlink:href="ConsoleLogger_8hpp.html" target="_top" xlink:title=" ">
<polygon fill="white" stroke="#666666" points="408.12,-144 305.12,-144 305.12,-112 408.12,-112 408.12,-144"/>
<text xml:space="preserve" text-anchor="start" x="313.12" y="-130.5" font-family="Helvetica,sans-Serif" font-size="10.00">../../src/Utils/Logger</text>
<text xml:space="preserve" text-anchor="middle" x="356.62" y="-118.5" font-family="Helvetica,sans-Serif" font-size="10.00">/ConsoleLogger.hpp</text>
</a>
</g>
</g>
<!-- Node1&#45;&gt;Node2 -->
<g id="edge1_Node000001_Node000002" class="edge">
<title>Node1&#45;&gt;Node2</title>
<g id="a_edge1_Node000001_Node000002"><a xlink:title=" ">
<path fill="none" stroke="#63b8ff" d="M636.31,-182.82C574.54,-170.93 481.11,-152.95 419.49,-141.1"/>
<polygon fill="#63b8ff" stroke="#63b8ff" points="420.33,-137.69 409.85,-139.24 419.01,-144.57 420.33,-137.69"/>
</a>
</g>
</g>
<!-- Node6 -->
<g id="Node000006" class="node">
<title>Node6</title>
<g id="a_Node000006"><a xlink:title=" ">
<polygon fill="#e0e0e0" stroke="#999999" points="570.25,-20 519,-20 519,0 570.25,0 570.25,-20"/>
<text xml:space="preserve" text-anchor="middle" x="544.62" y="-6.5" font-family="Helvetica,sans-Serif" font-size="10.00">memory</text>
</a>
</g>
</g>
<!-- Node1&#45;&gt;Node6 -->
<g id="edge22_Node000001_Node000006" class="edge">
<title>Node1&#45;&gt;Node6</title>
<g id="a_edge22_Node000001_Node000006"><a xlink:title=" ">
<path fill="none" stroke="#63b8ff" d="M705.15,-179.79C714.14,-152.08 728.34,-92.83 700.62,-56 686.37,-37.05 623.44,-23.57 582,-16.55"/>
<polygon fill="#63b8ff" stroke="#63b8ff" points="582.6,-13.11 572.17,-14.95 581.48,-20.01 582.6,-13.11"/>
</a>
</g>
</g>
<!-- Node9 -->
<g id="Node000009" class="node">
<title>Node9</title>
<g id="a_Node000009"><a xlink:title=" ">
<polygon fill="#e0e0e0" stroke="#999999" points="45.25,-76 0,-76 0,-56 45.25,-56 45.25,-76"/>
<text xml:space="preserve" text-anchor="middle" x="22.62" y="-62.5" font-family="Helvetica,sans-Serif" font-size="10.00">chrono</text>
</a>
</g>
</g>
<!-- Node1&#45;&gt;Node9 -->
<g id="edge19_Node000001_Node000009" class="edge">
<title>Node1&#45;&gt;Node9</title>
<g id="a_edge19_Node000001_Node000009"><a xlink:title=" ">
<path fill="none" stroke="#63b8ff" d="M636.17,-189.94C556.2,-182.89 414.79,-168.19 295.62,-144 208.13,-126.24 107.65,-95.02 56.45,-78.31"/>
<polygon fill="#63b8ff" stroke="#63b8ff" points="57.74,-75.05 47.15,-75.25 55.55,-81.7 57.74,-75.05"/>
</a>
</g>
</g>
<!-- Node10 -->
<g id="Node000010" class="node">
<title>Node10</title>
<g id="a_Node000010"><a xlink:title=" ">
<polygon fill="#e0e0e0" stroke="#999999" points="691.12,-76 642.12,-76 642.12,-56 691.12,-56 691.12,-76"/>
<text xml:space="preserve" text-anchor="middle" x="666.62" y="-62.5" font-family="Helvetica,sans-Serif" font-size="10.00">fstream</text>
</a>
</g>
</g>
<!-- Node1&#45;&gt;Node10 -->
<g id="edge20_Node000001_Node000010" class="edge">
<title>Node1&#45;&gt;Node10</title>
<g id="a_edge20_Node000001_Node000010"><a xlink:title=" ">
<path fill="none" stroke="#63b8ff" d="M695.64,-179.56C689.69,-156.47 678.47,-112.94 671.86,-87.31"/>
<polygon fill="#63b8ff" stroke="#63b8ff" points="675.29,-86.6 669.41,-77.79 668.51,-88.35 675.29,-86.6"/>
</a>
</g>
</g>
<!-- Node17 -->
<g id="Node000017" class="node">
<title>Node17</title>
<g id="a_Node000017"><a xlink:title=" ">
<polygon fill="#e0e0e0" stroke="#999999" points="818,-138 747.25,-138 747.25,-118 818,-118 818,-138"/>
<text xml:space="preserve" text-anchor="middle" x="782.62" y="-124.5" font-family="Helvetica,sans-Serif" font-size="10.00">gtest/gtest.h</text>
</a>
</g>
</g>
<!-- Node1&#45;&gt;Node17 -->
<g id="edge21_Node000001_Node000017" class="edge">
<title>Node1&#45;&gt;Node17</title>
<g id="a_edge21_Node000001_Node000017"><a xlink:title=" ">
<path fill="none" stroke="#63b8ff" d="M718.88,-179.69C731.82,-169.4 748.87,-155.84 762.08,-145.33"/>
<polygon fill="#63b8ff" stroke="#63b8ff" points="764.08,-148.22 769.72,-139.26 759.72,-142.74 764.08,-148.22"/>
</a>
</g>
</g>
<!-- Node18 -->
<g id="Node000018" class="node">
<title>Node18</title>
<g id="a_Node000018"><a xlink:title=" ">
<polygon fill="#e0e0e0" stroke="#999999" points="879.12,-138 836.12,-138 836.12,-118 879.12,-118 879.12,-138"/>
<text xml:space="preserve" text-anchor="middle" x="857.62" y="-124.5" font-family="Helvetica,sans-Serif" font-size="10.00">thread</text>
</a>
</g>
</g>
<!-- Node1&#45;&gt;Node18 -->
<g id="edge23_Node000001_Node000018" class="edge">
<title>Node1&#45;&gt;Node18</title>
<g id="a_edge23_Node000001_Node000018"><a xlink:title=" ">
<path fill="none" stroke="#63b8ff" d="M740.24,-179.51C765.32,-169.74 798.05,-156.63 826.62,-144 827.24,-143.73 827.86,-143.45 828.49,-143.17"/>
<polygon fill="#63b8ff" stroke="#63b8ff" points="829.75,-146.44 837.33,-139.05 826.79,-140.1 829.75,-146.44"/>
</a>
</g>
</g>
<!-- Node3 -->
<g id="Node000003" class="node">
<title>Node3</title>
<g id="a_Node000003"><a xlink:href="ILogger_8hpp.html" target="_top" xlink:title=" ">
<polygon fill="white" stroke="#666666" points="275.12,-76 208.12,-76 208.12,-56 275.12,-56 275.12,-76"/>
<text xml:space="preserve" text-anchor="middle" x="241.62" y="-62.5" font-family="Helvetica,sans-Serif" font-size="10.00">ILogger.hpp</text>
</a>
</g>
</g>
<!-- Node2&#45;&gt;Node3 -->
<g id="edge2_Node000002_Node000003" class="edge">
<title>Node2&#45;&gt;Node3</title>
<g id="a_edge2_Node000002_Node000003"><a xlink:title=" ">
<path fill="none" stroke="#63b8ff" d="M327.01,-111.55C309.37,-102.35 287.12,-90.74 269.75,-81.68"/>
<polygon fill="#63b8ff" stroke="#63b8ff" points="271.48,-78.63 261,-77.11 268.25,-84.84 271.48,-78.63"/>
</a>
</g>
</g>
<!-- Node4 -->
<g id="Node000004" class="node">
<title>Node4</title>
<g id="a_Node000004"><a xlink:title=" ">
<polygon fill="#e0e0e0" stroke="#999999" points="135.75,-20 75.5,-20 75.5,0 135.75,0 135.75,-20"/>
<text xml:space="preserve" text-anchor="middle" x="105.62" y="-6.5" font-family="Helvetica,sans-Serif" font-size="10.00">fmt/core.h</text>
</a>
</g>
</g>
<!-- Node2&#45;&gt;Node4 -->
<g id="edge17_Node000002_Node000004" class="edge">
<title>Node2&#45;&gt;Node4</title>
<g id="a_edge17_Node000002_Node000004"><a xlink:title=" ">
<path fill="none" stroke="#63b8ff" d="M304.92,-117.55C269.37,-109.69 221.88,-96.44 183.62,-76 159.97,-63.36 136.88,-42.79 122.04,-28.17"/>
<polygon fill="#63b8ff" stroke="#63b8ff" points="124.9,-26.09 115.38,-21.44 119.93,-31.01 124.9,-26.09"/>
</a>
</g>
</g>
<!-- Node7 -->
<g id="Node000007" class="node">
<title>Node7</title>
<g id="a_Node000007"><a xlink:title=" ">
<polygon fill="#e0e0e0" stroke="#999999" points="205.25,-20 154,-20 154,0 205.25,0 205.25,-20"/>
<text xml:space="preserve" text-anchor="middle" x="179.62" y="-6.5" font-family="Helvetica,sans-Serif" font-size="10.00">sstream</text>
</a>
</g>
</g>
<!-- Node2&#45;&gt;Node7 -->
<g id="edge14_Node000002_Node000007" class="edge">
<title>Node2&#45;&gt;Node7</title>
<g id="a_edge14_Node000002_Node000007"><a xlink:title=" ">
<path fill="none" stroke="#63b8ff" d="M304.91,-122.72C270.42,-117.2 226.46,-104.62 198.62,-76 187.09,-64.14 182.49,-45.67 180.69,-31.44"/>
<polygon fill="#63b8ff" stroke="#63b8ff" points="184.21,-31.48 179.86,-21.82 177.24,-32.08 184.21,-31.48"/>
</a>
</g>
</g>
<!-- Node8 -->
<g id="Node000008" class="node">
<title>Node8</title>
<g id="a_Node000008"><a xlink:title=" ">
<polygon fill="#e0e0e0" stroke="#999999" points="326.62,-20 286.62,-20 286.62,0 326.62,0 326.62,-20"/>
<text xml:space="preserve" text-anchor="middle" x="306.62" y="-6.5" font-family="Helvetica,sans-Serif" font-size="10.00">string</text>
</a>
</g>
</g>
<!-- Node2&#45;&gt;Node8 -->
<g id="edge15_Node000002_Node000008" class="edge">
<title>Node2&#45;&gt;Node8</title>
<g id="a_edge15_Node000002_Node000008"><a xlink:title=" ">
<path fill="none" stroke="#63b8ff" d="M344.4,-111.74C337.15,-102.01 328.28,-88.86 322.62,-76 316.31,-61.65 312.21,-44.38 309.74,-31.24"/>
<polygon fill="#63b8ff" stroke="#63b8ff" points="313.23,-30.92 308.11,-21.64 306.33,-32.09 313.23,-30.92"/>
</a>
</g>
</g>
<!-- Node2&#45;&gt;Node9 -->
<g id="edge8_Node000002_Node000009" class="edge">
<title>Node2&#45;&gt;Node9</title>
<g id="a_edge8_Node000002_Node000009"><a xlink:title=" ">
<path fill="none" stroke="#63b8ff" d="M304.73,-119.96C246.61,-111.69 149.42,-96.72 56.62,-76.24"/>
<polygon fill="#63b8ff" stroke="#63b8ff" points="57.62,-72.88 47.1,-74.12 56.09,-79.71 57.62,-72.88"/>
</a>
</g>
</g>
<!-- Node2&#45;&gt;Node10 -->
<g id="edge9_Node000002_Node000010" class="edge">
<title>Node2&#45;&gt;Node10</title>
<g id="a_edge9_Node000002_Node000010"><a xlink:title=" ">
<path fill="none" stroke="#63b8ff" d="M408.45,-118.8C461.91,-110.04 547.89,-95.12 630.69,-76.53"/>
<polygon fill="#63b8ff" stroke="#63b8ff" points="631.36,-79.97 640.34,-74.34 629.81,-73.14 631.36,-79.97"/>
</a>
</g>
</g>
<!-- Node11 -->
<g id="Node000011" class="node">
<title>Node11</title>
<g id="a_Node000011"><a xlink:title=" ">
<polygon fill="#e0e0e0" stroke="#999999" points="381.5,-76 331.75,-76 331.75,-56 381.5,-56 381.5,-76"/>
<text xml:space="preserve" text-anchor="middle" x="356.62" y="-62.5" font-family="Helvetica,sans-Serif" font-size="10.00">iomanip</text>
</a>
</g>
</g>
<!-- Node2&#45;&gt;Node11 -->
<g id="edge10_Node000002_Node000011" class="edge">
<title>Node2&#45;&gt;Node11</title>
<g id="a_edge10_Node000002_Node000011"><a xlink:title=" ">
<path fill="none" stroke="#63b8ff" d="M356.62,-111.55C356.62,-104.34 356.62,-95.66 356.62,-87.88"/>
<polygon fill="#63b8ff" stroke="#63b8ff" points="360.13,-87.92 356.63,-77.92 353.13,-87.92 360.13,-87.92"/>
</a>
</g>
</g>
<!-- Node12 -->
<g id="Node000012" class="node">
<title>Node12</title>
<g id="a_Node000012"><a xlink:title=" ">
<polygon fill="#e0e0e0" stroke="#999999" points="453.38,-76 399.88,-76 399.88,-56 453.38,-56 453.38,-76"/>
<text xml:space="preserve" text-anchor="middle" x="426.62" y="-62.5" font-family="Helvetica,sans-Serif" font-size="10.00">iostream</text>
</a>
</g>
</g>
<!-- Node2&#45;&gt;Node12 -->
<g id="edge11_Node000002_Node000012" class="edge">
<title>Node2&#45;&gt;Node12</title>
<g id="a_edge11_Node000002_Node000012"><a xlink:title=" ">
<path fill="none" stroke="#63b8ff" d="M374.65,-111.55C384.58,-103.04 396.9,-92.48 407.06,-83.77"/>
<polygon fill="#63b8ff" stroke="#63b8ff" points="409.19,-86.56 414.5,-77.39 404.63,-81.24 409.19,-86.56"/>
</a>
</g>
</g>
<!-- Node13 -->
<g id="Node000013" class="node">
<title>Node13</title>
<g id="a_Node000013"><a xlink:title=" ">
<polygon fill="#e0e0e0" stroke="#999999" points="506,-76 471.25,-76 471.25,-56 506,-56 506,-76"/>
<text xml:space="preserve" text-anchor="middle" x="488.62" y="-62.5" font-family="Helvetica,sans-Serif" font-size="10.00">map</text>
</a>
</g>
</g>
<!-- Node2&#45;&gt;Node13 -->
<g id="edge12_Node000002_Node000013" class="edge">
<title>Node2&#45;&gt;Node13</title>
<g id="a_edge12_Node000002_Node000013"><a xlink:title=" ">
<path fill="none" stroke="#63b8ff" d="M390.62,-111.55C412.37,-101.66 440.25,-88.99 460.71,-79.69"/>
<polygon fill="#63b8ff" stroke="#63b8ff" points="461.91,-82.99 469.56,-75.66 459.01,-76.62 461.91,-82.99"/>
</a>
</g>
</g>
<!-- Node14 -->
<g id="Node000014" class="node">
<title>Node14</title>
<g id="a_Node000014"><a xlink:title=" ">
<polygon fill="#e0e0e0" stroke="#999999" points="567.12,-76 524.12,-76 524.12,-56 567.12,-56 567.12,-76"/>
<text xml:space="preserve" text-anchor="middle" x="545.62" y="-62.5" font-family="Helvetica,sans-Serif" font-size="10.00">mutex</text>
</a>
</g>
</g>
<!-- Node2&#45;&gt;Node14 -->
<g id="edge13_Node000002_Node000014" class="edge">
<title>Node2&#45;&gt;Node14</title>
<g id="a_edge13_Node000002_Node000014"><a xlink:title=" ">
<path fill="none" stroke="#63b8ff" d="M405.3,-111.55C439.24,-100.77 483.59,-86.69 513.27,-77.27"/>
<polygon fill="#63b8ff" stroke="#63b8ff" points="513.95,-80.73 522.42,-74.37 511.83,-74.06 513.95,-80.73"/>
</a>
</g>
</g>
<!-- Node15 -->
<g id="Node000015" class="node">
<title>Node15</title>
<g id="a_Node000015"><a xlink:title=" ">
<polygon fill="#e0e0e0" stroke="#999999" points="624.25,-76 585,-76 585,-56 624.25,-56 624.25,-76"/>
<text xml:space="preserve" text-anchor="middle" x="604.62" y="-62.5" font-family="Helvetica,sans-Serif" font-size="10.00">utility</text>
</a>
</g>
</g>
<!-- Node2&#45;&gt;Node15 -->
<g id="edge16_Node000002_Node000015" class="edge">
<title>Node2&#45;&gt;Node15</title>
<g id="a_edge16_Node000002_Node000015"><a xlink:title=" ">
<path fill="none" stroke="#63b8ff" d="M408.49,-116.25C450.73,-107.21 512.12,-93.43 573.71,-76.65"/>
<polygon fill="#63b8ff" stroke="#63b8ff" points="574.63,-80.03 583.34,-74 572.77,-73.28 574.63,-80.03"/>
</a>
</g>
</g>
<!-- Node16 -->
<g id="Node000016" class="node">
<title>Node16</title>
<g id="a_Node000016"><a xlink:title=" ">
<polygon fill="#e0e0e0" stroke="#999999" points="113.88,-76 63.38,-76 63.38,-56 113.88,-56 113.88,-76"/>
<text xml:space="preserve" text-anchor="middle" x="88.62" y="-62.5" font-family="Helvetica,sans-Serif" font-size="10.00">unistd.h</text>
</a>
</g>
</g>
<!-- Node2&#45;&gt;Node16 -->
<g id="edge18_Node000002_Node000016" class="edge">
<title>Node2&#45;&gt;Node16</title>
<g id="a_edge18_Node000002_Node000016"><a xlink:title=" ">
<path fill="none" stroke="#63b8ff" d="M304.76,-115.57C258.33,-105.31 188.4,-89.78 127.62,-76 126.81,-75.82 125.99,-75.63 125.16,-75.44"/>
<polygon fill="#63b8ff" stroke="#63b8ff" points="126.22,-72.09 115.69,-73.27 124.65,-78.92 126.22,-72.09"/>
</a>
</g>
</g>
<!-- Node3&#45;&gt;Node4 -->
<g id="edge3_Node000003_Node000004" class="edge">
<title>Node3&#45;&gt;Node4</title>
<g id="a_edge3_Node000003_Node000004"><a xlink:title=" ">
<path fill="none" stroke="#63b8ff" d="M217.94,-55.59C196.42,-47.05 164.42,-34.35 140.08,-24.68"/>
<polygon fill="#63b8ff" stroke="#63b8ff" points="141.49,-21.48 130.91,-21.04 138.91,-27.98 141.49,-21.48"/>
</a>
</g>
</g>
<!-- Node5 -->
<g id="Node000005" class="node">
<title>Node5</title>
<g id="a_Node000005"><a xlink:title=" ">
<polygon fill="#e0e0e0" stroke="#999999" points="268.25,-20 223,-20 223,0 268.25,0 268.25,-20"/>
<text xml:space="preserve" text-anchor="middle" x="245.62" y="-6.5" font-family="Helvetica,sans-Serif" font-size="10.00">cstdint</text>
</a>
</g>
</g>
<!-- Node3&#45;&gt;Node5 -->
<g id="edge4_Node000003_Node000005" class="edge">
<title>Node3&#45;&gt;Node5</title>
<g id="a_edge4_Node000003_Node000005"><a xlink:title=" ">
<path fill="none" stroke="#63b8ff" d="M242.32,-55.59C242.81,-49.01 243.48,-39.96 244.09,-31.73"/>
<polygon fill="#63b8ff" stroke="#63b8ff" points="247.58,-32.04 244.82,-21.81 240.6,-31.52 247.58,-32.04"/>
</a>
</g>
</g>
<!-- Node3&#45;&gt;Node6 -->
<g id="edge5_Node000003_Node000006" class="edge">
<title>Node3&#45;&gt;Node6</title>
<g id="a_edge5_Node000003_Node000006"><a xlink:title=" ">
<path fill="none" stroke="#63b8ff" d="M275.5,-58.96C332.83,-48.75 448.52,-28.13 507.79,-17.56"/>
<polygon fill="#63b8ff" stroke="#63b8ff" points="508.14,-21.06 517.37,-15.86 506.91,-14.17 508.14,-21.06"/>
</a>
</g>
</g>
<!-- Node3&#45;&gt;Node7 -->
<g id="edge6_Node000003_Node000007" class="edge">
<title>Node3&#45;&gt;Node7</title>
<g id="a_edge6_Node000003_Node000007"><a xlink:title=" ">
<path fill="none" stroke="#63b8ff" d="M230.83,-55.59C222.02,-47.93 209.37,-36.91 198.85,-27.75"/>
<polygon fill="#63b8ff" stroke="#63b8ff" points="201.28,-25.22 191.44,-21.29 196.68,-30.5 201.28,-25.22"/>
</a>
</g>
</g>
<!-- Node3&#45;&gt;Node8 -->
<g id="edge7_Node000003_Node000008" class="edge">
<title>Node3&#45;&gt;Node8</title>
<g id="a_edge7_Node000003_Node000008"><a xlink:title=" ">
<path fill="none" stroke="#63b8ff" d="M252.95,-55.59C262.27,-47.85 275.7,-36.69 286.8,-27.47"/>
<polygon fill="#63b8ff" stroke="#63b8ff" points="288.81,-30.35 294.27,-21.27 284.34,-24.96 288.81,-30.35"/>
</a>
</g>
</g>
</g>
</svg>

<g id="navigator" transform="translate(0 0)" fill="#404254">
  <rect fill="#f2f5e9" fill-opacity="0.5" stroke="#606060" stroke-width=".5" x="0" y="0" width="60" height="60"/>
  <use id="zoomplus" xlink:href="#zoomPlus" x="17" y="9" onmousedown="handleZoom(evt,'in')"/>
  <use id="zoomminus" xlink:href="#zoomMin" x="42" y="9" onmousedown="handleZoom(evt,'out')"/>
  <use id="reset" xlink:href="#resetDef" x="30" y="36" onmousedown="handleReset()"/>
   <use id="arrowup" xlink:href="#arrowUp" x="0" y="0" onmousedown="handlePan(0,-1)"/>
  <use id="arrowright" xlink:href="#arrowRight" x="0" y="0" onmousedown="handlePan(1,0)"/>
  <use id="arrowdown" xlink:href="#arrowDown" x="0" y="0" onmousedown="handlePan(0,1)"/>
  <use id="arrowleft" xlink:href="#arrowLeft" x="0" y="0" onmousedown="handlePan(-1,0)"/>
</g>
<svg viewBox="0 0 15 15" width="100%" height="30px" preserveAspectRatio="xMaxYMin meet">
 <g id="arrow_out" transform="scale(0.3 0.3)">
  <a xlink:href="ConsoleLoggerTest_8cpp__incl_org.svg" target="_base">
   <rect id="button" ry="5" rx="5" y="6" x="6" height="38" width="38"
        fill="#f2f5e9" fill-opacity="0.5" stroke="#606060" stroke-width="1.0"/>
   <path id="arrow"
     d="M 11.500037,31.436501 C 11.940474,20.09759 22.043105,11.32322 32.158766,21.979434 L 37.068811,17.246167 C 37.068811,17.246167 37.088388,32 37.088388,32 L 22.160133,31.978069 C 22.160133,31.978069 26.997745,27.140456 26.997745,27.140456 C 18.528582,18.264221 13.291696,25.230495 11.500037,31.436501 z"
     style="fill:#404040;"/>
  </a>
 </g>
</svg>

<style type='text/css'>
<![CDATA[
[data-mouse-over-selected='false'] { opacity: 0.7; }
[data-mouse-over-selected='true']  { opacity: 1.0; }
]]>
</style>
<script type="application/ecmascript"><![CDATA[
document.addEventListener('DOMContentLoaded', (event) => {
  highlightEdges();
  highlightAdjacentNodes();
});
]]></script>
</svg>
