<?xml version="1.0" encoding="UTF-8" standalone="no"?>
<!DOCTYPE svg PUBLIC "-//W3C//DTD SVG 1.1//EN"
 "http://www.w3.org/Graphics/SVG/1.1/DTD/svg11.dtd">
<!-- Generated by graphviz version 13.1.2 (20250808.2320)
 -->
<!-- Title: src/Utils/Json/CustomStringsLoader.hpp Pages: 1 -->
<svg width="690pt" height="220pt"
 viewBox="0.00 0.00 690.00 220.00" xmlns="http://www.w3.org/2000/svg" xmlns:xlink="http://www.w3.org/1999/xlink">
<g id="graph0" class="graph" transform="scale(1 1) rotate(0) translate(4 216)">
<title>src/Utils/Json/CustomStringsLoader.hpp</title>
<!-- Node1 -->
<g id="Node000001" class="node">
<title>Node1</title>
<g id="a_Node000001"><a xlink:title=" ">
<polygon fill="#999999" stroke="#666666" points="545.38,-212 400.38,-212 400.38,-180 545.38,-180 545.38,-212"/>
<text xml:space="preserve" text-anchor="start" x="408.38" y="-198.5" font-family="Helvetica,sans-Serif" font-size="10.00">src/Utils/Json/CustomStrings</text>
<text xml:space="preserve" text-anchor="middle" x="472.88" y="-186.5" font-family="Helvetica,sans-Serif" font-size="10.00">Loader.hpp</text>
</a>
</g>
</g>
<!-- Node2 -->
<g id="Node000002" class="node">
<title>Node2</title>
<g id="a_Node000002"><a xlink:href="IAssetManager_8hpp.html" target="_top" xlink:title=" ">
<polygon fill="white" stroke="#666666" points="551.75,-138 394,-138 394,-118 551.75,-118 551.75,-138"/>
<text xml:space="preserve" text-anchor="middle" x="472.88" y="-124.5" font-family="Helvetica,sans-Serif" font-size="10.00">Utils/Assets/IAssetManager.hpp</text>
</a>
</g>
</g>
<!-- Node1&#45;&gt;Node2 -->
<g id="edge1_Node000001_Node000002" class="edge">
<title>Node1&#45;&gt;Node2</title>
<g id="a_edge1_Node000001_Node000002"><a xlink:title=" ">
<path fill="none" stroke="#63b8ff" d="M472.88,-179.69C472.88,-170.8 472.88,-159.46 472.88,-149.77"/>
<polygon fill="#63b8ff" stroke="#63b8ff" points="476.38,-149.83 472.88,-139.83 469.38,-149.83 476.38,-149.83"/>
</a>
</g>
</g>
<!-- Node4 -->
<g id="Node000004" class="node">
<title>Node4</title>
<g id="a_Node000004"><a xlink:href="ICustomStringsLoader_8hpp.html" target="_top" xlink:title=" ">
<polygon fill="white" stroke="#666666" points="211.62,-144 80.12,-144 80.12,-112 211.62,-112 211.62,-144"/>
<text xml:space="preserve" text-anchor="start" x="88.12" y="-130.5" font-family="Helvetica,sans-Serif" font-size="10.00">Utils/Json/ICustomStrings</text>
<text xml:space="preserve" text-anchor="middle" x="145.88" y="-118.5" font-family="Helvetica,sans-Serif" font-size="10.00">Loader.hpp</text>
</a>
</g>
</g>
<!-- Node1&#45;&gt;Node4 -->
<g id="edge3_Node000001_Node000004" class="edge">
<title>Node1&#45;&gt;Node4</title>
<g id="a_edge3_Node000001_Node000004"><a xlink:title=" ">
<path fill="none" stroke="#63b8ff" d="M399.9,-180.27C347.35,-169.67 276.6,-155.38 223.1,-144.59"/>
<polygon fill="#63b8ff" stroke="#63b8ff" points="223.94,-141.19 213.45,-142.64 222.56,-148.05 223.94,-141.19"/>
</a>
</g>
</g>
<!-- Node12 -->
<g id="Node000012" class="node">
<title>Node12</title>
<g id="a_Node000012"><a xlink:href="IJsonSerializer_8hpp.html" target="_top" xlink:title=" ">
<polygon fill="white" stroke="#666666" points="376.12,-138 229.62,-138 229.62,-118 376.12,-118 376.12,-138"/>
<text xml:space="preserve" text-anchor="middle" x="302.88" y="-124.5" font-family="Helvetica,sans-Serif" font-size="10.00">Utils/Json/IJsonSerializer.hpp</text>
</a>
</g>
</g>
<!-- Node1&#45;&gt;Node12 -->
<g id="edge13_Node000001_Node000012" class="edge">
<title>Node1&#45;&gt;Node12</title>
<g id="a_edge13_Node000001_Node000012"><a xlink:title=" ">
<path fill="none" stroke="#63b8ff" d="M433.02,-179.53C404.08,-168.29 365.31,-153.24 337.63,-142.49"/>
<polygon fill="#63b8ff" stroke="#63b8ff" points="339.24,-139.36 328.65,-139.01 336.71,-145.89 339.24,-139.36"/>
</a>
</g>
</g>
<!-- Node13 -->
<g id="Node000013" class="node">
<title>Node13</title>
<g id="a_Node000013"><a xlink:title=" ">
<polygon fill="#e0e0e0" stroke="#999999" points="621.5,-138 570.25,-138 570.25,-118 621.5,-118 621.5,-138"/>
<text xml:space="preserve" text-anchor="middle" x="595.88" y="-124.5" font-family="Helvetica,sans-Serif" font-size="10.00">memory</text>
</a>
</g>
</g>
<!-- Node1&#45;&gt;Node13 -->
<g id="edge18_Node000001_Node000013" class="edge">
<title>Node1&#45;&gt;Node13</title>
<g id="a_edge18_Node000001_Node000013"><a xlink:title=" ">
<path fill="none" stroke="#63b8ff" d="M501.71,-179.53C521.82,-168.74 548.48,-154.43 568.3,-143.8"/>
<polygon fill="#63b8ff" stroke="#63b8ff" points="569.75,-146.99 576.91,-139.18 566.44,-140.82 569.75,-146.99"/>
</a>
</g>
</g>
<!-- Node14 -->
<g id="Node000014" class="node">
<title>Node14</title>
<g id="a_Node000014"><a xlink:title=" ">
<polygon fill="#e0e0e0" stroke="#999999" points="682.38,-138 639.38,-138 639.38,-118 682.38,-118 682.38,-138"/>
<text xml:space="preserve" text-anchor="middle" x="660.88" y="-124.5" font-family="Helvetica,sans-Serif" font-size="10.00">mutex</text>
</a>
</g>
</g>
<!-- Node1&#45;&gt;Node14 -->
<g id="edge19_Node000001_Node000014" class="edge">
<title>Node1&#45;&gt;Node14</title>
<g id="a_edge19_Node000001_Node000014"><a xlink:title=" ">
<path fill="none" stroke="#63b8ff" d="M527.72,-179.53C558.45,-170.31 597.26,-157.74 630.88,-144 631.5,-143.75 632.13,-143.48 632.76,-143.21"/>
<polygon fill="#63b8ff" stroke="#63b8ff" points="634.01,-146.49 641.62,-139.13 631.07,-140.14 634.01,-146.49"/>
</a>
</g>
</g>
<!-- Node3 -->
<g id="Node000003" class="node">
<title>Node3</title>
<g id="a_Node000003"><a xlink:title=" ">
<polygon fill="#e0e0e0" stroke="#999999" points="485.38,-76 424.38,-76 424.38,-56 485.38,-56 485.38,-76"/>
<text xml:space="preserve" text-anchor="middle" x="454.88" y="-62.5" font-family="Helvetica,sans-Serif" font-size="10.00">filesystem</text>
</a>
</g>
</g>
<!-- Node2&#45;&gt;Node3 -->
<g id="edge2_Node000002_Node000003" class="edge">
<title>Node2&#45;&gt;Node3</title>
<g id="a_edge2_Node000002_Node000003"><a xlink:title=" ">
<path fill="none" stroke="#63b8ff" d="M470.06,-117.62C467.62,-109.48 463.99,-97.39 460.9,-87.07"/>
<polygon fill="#63b8ff" stroke="#63b8ff" points="464.27,-86.13 458.04,-77.56 457.56,-88.15 464.27,-86.13"/>
</a>
</g>
</g>
<!-- Node5 -->
<g id="Node000005" class="node">
<title>Node5</title>
<g id="a_Node000005"><a xlink:href="UtilsError_8hpp.html" target="_top" xlink:title=" ">
<polygon fill="white" stroke="#666666" points="195.5,-76 96.25,-76 96.25,-56 195.5,-56 195.5,-76"/>
<text xml:space="preserve" text-anchor="middle" x="145.88" y="-62.5" font-family="Helvetica,sans-Serif" font-size="10.00">Utils/UtilsError.hpp</text>
</a>
</g>
</g>
<!-- Node4&#45;&gt;Node5 -->
<g id="edge4_Node000004_Node000005" class="edge">
<title>Node4&#45;&gt;Node5</title>
<g id="a_edge4_Node000004_Node000005"><a xlink:title=" ">
<path fill="none" stroke="#63b8ff" d="M145.88,-111.55C145.88,-104.34 145.88,-95.66 145.88,-87.88"/>
<polygon fill="#63b8ff" stroke="#63b8ff" points="149.38,-87.92 145.88,-77.92 142.38,-87.92 149.38,-87.92"/>
</a>
</g>
</g>
<!-- Node7 -->
<g id="Node000007" class="node">
<title>Node7</title>
<g id="a_Node000007"><a xlink:title=" ">
<polygon fill="#e0e0e0" stroke="#999999" points="49.75,-20 0,-20 0,0 49.75,0 49.75,-20"/>
<text xml:space="preserve" text-anchor="middle" x="24.88" y="-6.5" font-family="Helvetica,sans-Serif" font-size="10.00">optional</text>
</a>
</g>
</g>
<!-- Node4&#45;&gt;Node7 -->
<g id="edge11_Node000004_Node000007" class="edge">
<title>Node4&#45;&gt;Node7</title>
<g id="a_edge11_Node000004_Node000007"><a xlink:title=" ">
<path fill="none" stroke="#63b8ff" d="M127.13,-111.59C115.33,-101.7 99.92,-88.42 86.88,-76 70.54,-60.45 52.87,-41.72 40.59,-28.37"/>
<polygon fill="#63b8ff" stroke="#63b8ff" points="43.38,-26.24 34.06,-21.21 38.21,-30.96 43.38,-26.24"/>
</a>
</g>
</g>
<!-- Node9 -->
<g id="Node000009" class="node">
<title>Node9</title>
<g id="a_Node000009"><a xlink:title=" ">
<polygon fill="#e0e0e0" stroke="#999999" points="311.88,-20 271.88,-20 271.88,0 311.88,0 311.88,-20"/>
<text xml:space="preserve" text-anchor="middle" x="291.88" y="-6.5" font-family="Helvetica,sans-Serif" font-size="10.00">string</text>
</a>
</g>
</g>
<!-- Node4&#45;&gt;Node9 -->
<g id="edge12_Node000004_Node000009" class="edge">
<title>Node4&#45;&gt;Node9</title>
<g id="a_edge12_Node000004_Node000009"><a xlink:title=" ">
<path fill="none" stroke="#63b8ff" d="M165.26,-111.6C192.74,-89.76 242.8,-49.99 271.05,-27.55"/>
<polygon fill="#63b8ff" stroke="#63b8ff" points="273.22,-30.3 278.87,-21.33 268.86,-24.81 273.22,-30.3"/>
</a>
</g>
</g>
<!-- Node11 -->
<g id="Node000011" class="node">
<title>Node11</title>
<g id="a_Node000011"><a xlink:title=" ">
<polygon fill="#e0e0e0" stroke="#999999" points="349.75,-76 252,-76 252,-56 349.75,-56 349.75,-76"/>
<text xml:space="preserve" text-anchor="middle" x="300.88" y="-62.5" font-family="Helvetica,sans-Serif" font-size="10.00">nlohmann/json.hpp</text>
</a>
</g>
</g>
<!-- Node4&#45;&gt;Node11 -->
<g id="edge10_Node000004_Node000011" class="edge">
<title>Node4&#45;&gt;Node11</title>
<g id="a_edge10_Node000004_Node000011"><a xlink:title=" ">
<path fill="none" stroke="#63b8ff" d="M185.79,-111.55C210.57,-101.96 242.11,-89.75 265.91,-80.54"/>
<polygon fill="#63b8ff" stroke="#63b8ff" points="267.1,-83.83 275.16,-76.95 264.57,-77.3 267.1,-83.83"/>
</a>
</g>
</g>
<!-- Node6 -->
<g id="Node000006" class="node">
<title>Node6</title>
<g id="a_Node000006"><a xlink:title=" ">
<polygon fill="#e0e0e0" stroke="#999999" points="113.5,-20 68.25,-20 68.25,0 113.5,0 113.5,-20"/>
<text xml:space="preserve" text-anchor="middle" x="90.88" y="-6.5" font-family="Helvetica,sans-Serif" font-size="10.00">cstdint</text>
</a>
</g>
</g>
<!-- Node5&#45;&gt;Node6 -->
<g id="edge5_Node000005_Node000006" class="edge">
<title>Node5&#45;&gt;Node6</title>
<g id="a_edge5_Node000005_Node000006"><a xlink:title=" ">
<path fill="none" stroke="#63b8ff" d="M136.29,-55.59C128.64,-48.08 117.72,-37.35 108.5,-28.3"/>
<polygon fill="#63b8ff" stroke="#63b8ff" points="111.01,-25.87 101.43,-21.36 106.11,-30.86 111.01,-25.87"/>
</a>
</g>
</g>
<!-- Node5&#45;&gt;Node7 -->
<g id="edge6_Node000005_Node000007" class="edge">
<title>Node5&#45;&gt;Node7</title>
<g id="a_edge6_Node000005_Node000007"><a xlink:title=" ">
<path fill="none" stroke="#63b8ff" d="M124.8,-55.59C105.92,-47.17 77.96,-34.69 56.41,-25.07"/>
<polygon fill="#63b8ff" stroke="#63b8ff" points="58.06,-21.98 47.5,-21.1 55.2,-28.37 58.06,-21.98"/>
</a>
</g>
</g>
<!-- Node8 -->
<g id="Node000008" class="node">
<title>Node8</title>
<g id="a_Node000008"><a xlink:title=" ">
<polygon fill="#e0e0e0" stroke="#999999" points="190.25,-20 131.5,-20 131.5,0 190.25,0 190.25,-20"/>
<text xml:space="preserve" text-anchor="middle" x="160.88" y="-6.5" font-family="Helvetica,sans-Serif" font-size="10.00">stdexcept</text>
</a>
</g>
</g>
<!-- Node5&#45;&gt;Node8 -->
<g id="edge7_Node000005_Node000008" class="edge">
<title>Node5&#45;&gt;Node8</title>
<g id="a_edge7_Node000005_Node000008"><a xlink:title=" ">
<path fill="none" stroke="#63b8ff" d="M148.49,-55.59C150.36,-48.86 152.95,-39.53 155.28,-31.15"/>
<polygon fill="#63b8ff" stroke="#63b8ff" points="158.58,-32.33 157.89,-21.76 151.84,-30.46 158.58,-32.33"/>
</a>
</g>
</g>
<!-- Node5&#45;&gt;Node9 -->
<g id="edge8_Node000005_Node000009" class="edge">
<title>Node5&#45;&gt;Node9</title>
<g id="a_edge8_Node000005_Node000009"><a xlink:title=" ">
<path fill="none" stroke="#63b8ff" d="M171.31,-55.59C196.18,-46.39 234.12,-32.36 260.78,-22.5"/>
<polygon fill="#63b8ff" stroke="#63b8ff" points="261.86,-25.83 270.02,-19.08 259.43,-19.27 261.86,-25.83"/>
</a>
</g>
</g>
<!-- Node10 -->
<g id="Node000010" class="node">
<title>Node10</title>
<g id="a_Node000010"><a xlink:title=" ">
<polygon fill="#e0e0e0" stroke="#999999" points="253.5,-20 208.25,-20 208.25,0 253.5,0 253.5,-20"/>
<text xml:space="preserve" text-anchor="middle" x="230.88" y="-6.5" font-family="Helvetica,sans-Serif" font-size="10.00">variant</text>
</a>
</g>
</g>
<!-- Node5&#45;&gt;Node10 -->
<g id="edge9_Node000005_Node000010" class="edge">
<title>Node5&#45;&gt;Node10</title>
<g id="a_edge9_Node000005_Node000010"><a xlink:title=" ">
<path fill="none" stroke="#63b8ff" d="M160.68,-55.59C173.28,-47.59 191.63,-35.93 206.41,-26.54"/>
<polygon fill="#63b8ff" stroke="#63b8ff" points="208.11,-29.61 214.68,-21.29 204.36,-23.7 208.11,-29.61"/>
</a>
</g>
</g>
<!-- Node12&#45;&gt;Node3 -->
<g id="edge15_Node000012_Node000003" class="edge">
<title>Node12&#45;&gt;Node3</title>
<g id="a_edge15_Node000012_Node000003"><a xlink:title=" ">
<path fill="none" stroke="#63b8ff" d="M326.62,-117.62C351.87,-107.66 392.03,-91.81 420.68,-80.5"/>
<polygon fill="#63b8ff" stroke="#63b8ff" points="421.62,-83.89 429.63,-76.96 419.05,-77.38 421.62,-83.89"/>
</a>
</g>
</g>
<!-- Node12&#45;&gt;Node5 -->
<g id="edge14_Node000012_Node000005" class="edge">
<title>Node12&#45;&gt;Node5</title>
<g id="a_edge14_Node000012_Node000005"><a xlink:title=" ">
<path fill="none" stroke="#63b8ff" d="M278.34,-117.62C252.27,-107.66 210.79,-91.81 181.2,-80.5"/>
<polygon fill="#63b8ff" stroke="#63b8ff" points="182.5,-77.25 171.91,-76.95 180,-83.79 182.5,-77.25"/>
</a>
</g>
</g>
<!-- Node12&#45;&gt;Node9 -->
<g id="edge17_Node000012_Node000009" class="edge">
<title>Node12&#45;&gt;Node9</title>
<g id="a_edge17_Node000012_Node000009"><a xlink:title=" ">
<path fill="none" stroke="#63b8ff" d="M319.67,-117.68C340.53,-104.8 371.87,-80.38 358.88,-56 351.05,-41.32 336.07,-30.57 322.26,-23.28"/>
<polygon fill="#63b8ff" stroke="#63b8ff" points="323.95,-20.21 313.42,-19.01 320.91,-26.51 323.95,-20.21"/>
</a>
</g>
</g>
<!-- Node12&#45;&gt;Node11 -->
<g id="edge16_Node000012_Node000011" class="edge">
<title>Node12&#45;&gt;Node11</title>
<g id="a_edge16_Node000012_Node000011"><a xlink:title=" ">
<path fill="none" stroke="#63b8ff" d="M302.56,-117.62C302.29,-109.56 301.9,-97.65 301.56,-87.41"/>
<polygon fill="#63b8ff" stroke="#63b8ff" points="305.06,-87.5 301.23,-77.63 298.06,-87.74 305.06,-87.5"/>
</a>
</g>
</g>
</g>
</svg>
