<?xml version="1.0" encoding="UTF-8" standalone="no"?>
<!DOCTYPE svg PUBLIC "-//W3C//DTD SVG 1.1//EN"
 "http://www.w3.org/Graphics/SVG/1.1/DTD/svg11.dtd">
<!-- Generated by graphviz version 13.1.2 (20250808.2320)
 -->
<!-- Title: src/EmojiModuleLib.cpp Pages: 1 -->
<svg width="2011pt" height="388pt"
 viewBox="0.00 0.00 2011.00 388.00" xmlns="http://www.w3.org/2000/svg" xmlns:xlink="http://www.w3.org/1999/xlink">
<g id="graph0" class="graph" transform="scale(1 1) rotate(0) translate(4 384)">
<title>src/EmojiModuleLib.cpp</title>
<!-- Node1 -->
<g id="Node000001" class="node">
<title>Node1</title>
<g id="a_Node000001"><a xlink:title=" ">
<polygon fill="#999999" stroke="#666666" points="1185.31,-380 1065.06,-380 1065.06,-360 1185.31,-360 1185.31,-380"/>
<text xml:space="preserve" text-anchor="middle" x="1125.19" y="-366.5" font-family="Helvetica,sans-Serif" font-size="10.00">src/EmojiModuleLib.cpp</text>
</a>
</g>
</g>
<!-- Node2 -->
<g id="Node000002" class="node">
<title>Node2</title>
<g id="a_Node000002"><a xlink:href="EmojiModuleLib_8hpp.html" target="_top" xlink:title=" ">
<polygon fill="white" stroke="#666666" points="1197.31,-324 1053.06,-324 1053.06,-292 1197.31,-292 1197.31,-324"/>
<text xml:space="preserve" text-anchor="start" x="1061.06" y="-310.5" font-family="Helvetica,sans-Serif" font-size="10.00">EmojiModuleLib/EmojiModule</text>
<text xml:space="preserve" text-anchor="middle" x="1125.19" y="-298.5" font-family="Helvetica,sans-Serif" font-size="10.00">Lib.hpp</text>
</a>
</g>
</g>
<!-- Node1&#45;&gt;Node2 -->
<g id="edge1_Node000001_Node000002" class="edge">
<title>Node1&#45;&gt;Node2</title>
<g id="a_edge1_Node000001_Node000002"><a xlink:title=" ">
<path fill="none" stroke="#63b8ff" d="M1125.19,-359.62C1125.19,-353.1 1125.19,-344.05 1125.19,-335.4"/>
<polygon fill="#63b8ff" stroke="#63b8ff" points="1128.69,-335.65 1125.19,-325.65 1121.69,-335.65 1128.69,-335.65"/>
</a>
</g>
</g>
<!-- Node3 -->
<g id="Node000003" class="node">
<title>Node3</title>
<g id="a_Node000003"><a xlink:href="Emoji_8hpp.html" target="_top" xlink:title=" ">
<polygon fill="white" stroke="#666666" points="1204.81,-256 1117.56,-256 1117.56,-236 1204.81,-236 1204.81,-256"/>
<text xml:space="preserve" text-anchor="middle" x="1161.19" y="-242.5" font-family="Helvetica,sans-Serif" font-size="10.00">Emoji/Emoji.hpp</text>
</a>
</g>
</g>
<!-- Node2&#45;&gt;Node3 -->
<g id="edge2_Node000002_Node000003" class="edge">
<title>Node2&#45;&gt;Node3</title>
<g id="a_edge2_Node000002_Node000003"><a xlink:title=" ">
<path fill="none" stroke="#63b8ff" d="M1134.46,-291.55C1139.1,-283.82 1144.75,-274.4 1149.66,-266.21"/>
<polygon fill="#63b8ff" stroke="#63b8ff" points="1152.62,-268.08 1154.77,-257.71 1146.62,-264.48 1152.62,-268.08"/>
</a>
</g>
</g>
<!-- Node4 -->
<g id="Node000004" class="node">
<title>Node4</title>
<g id="a_Node000004"><a xlink:href="UtilsFactory_8hpp.html" target="_top" xlink:title=" ">
<polygon fill="white" stroke="#666666" points="1180.44,-200 1069.94,-200 1069.94,-180 1180.44,-180 1180.44,-200"/>
<text xml:space="preserve" text-anchor="middle" x="1125.19" y="-186.5" font-family="Helvetica,sans-Serif" font-size="10.00">Utils/UtilsFactory.hpp</text>
</a>
</g>
</g>
<!-- Node2&#45;&gt;Node4 -->
<g id="edge65_Node000002_Node000004" class="edge">
<title>Node2&#45;&gt;Node4</title>
<g id="a_edge65_Node000002_Node000004"><a xlink:title=" ">
<path fill="none" stroke="#63b8ff" d="M1117.69,-291.59C1111.64,-277.28 1104.66,-255.33 1108.19,-236 1109.74,-227.49 1112.82,-218.5 1115.94,-210.81"/>
<polygon fill="#63b8ff" stroke="#63b8ff" points="1119.1,-212.32 1119.9,-201.75 1112.69,-209.51 1119.1,-212.32"/>
</a>
</g>
</g>
<!-- Node5 -->
<g id="Node000005" class="node">
<title>Node5</title>
<g id="a_Node000005"><a xlink:title=" ">
<polygon fill="#e0e0e0" stroke="#999999" points="144.06,-138 16.31,-138 16.31,-118 144.06,-118 144.06,-138"/>
<text xml:space="preserve" text-anchor="middle" x="80.19" y="-124.5" font-family="Helvetica,sans-Serif" font-size="10.00">EmojiModuleLib/version.h</text>
</a>
</g>
</g>
<!-- Node2&#45;&gt;Node5 -->
<g id="edge64_Node000002_Node000005" class="edge">
<title>Node2&#45;&gt;Node5</title>
<g id="a_edge64_Node000002_Node000005"><a xlink:title=" ">
<path fill="none" stroke="#63b8ff" d="M1052.78,-295.78C891.11,-270.54 488.55,-206.55 153.19,-144 147.61,-142.96 141.8,-141.83 136,-140.69"/>
<polygon fill="#63b8ff" stroke="#63b8ff" points="136.9,-137.3 126.41,-138.76 135.52,-144.16 136.9,-137.3"/>
</a>
</g>
</g>
<!-- Node24 -->
<g id="Node000024" class="node">
<title>Node24</title>
<g id="a_Node000024"><a xlink:title=" ">
<polygon fill="#e0e0e0" stroke="#999999" points="1928.81,-20 1877.56,-20 1877.56,0 1928.81,0 1928.81,-20"/>
<text xml:space="preserve" text-anchor="middle" x="1903.19" y="-6.5" font-family="Helvetica,sans-Serif" font-size="10.00">memory</text>
</a>
</g>
</g>
<!-- Node2&#45;&gt;Node24 -->
<g id="edge66_Node000002_Node000024" class="edge">
<title>Node2&#45;&gt;Node24</title>
<g id="a_edge66_Node000002_Node000024"><a xlink:title=" ">
<path fill="none" stroke="#63b8ff" d="M1197.79,-305C1408.14,-298.25 2003.19,-272.01 2003.19,-191 2003.19,-191 2003.19,-191 2003.19,-127 2003.19,-81.85 1959.19,-45.56 1929.57,-26.24"/>
<polygon fill="#63b8ff" stroke="#63b8ff" points="1931.77,-23.49 1921.44,-21.15 1928.06,-29.43 1931.77,-23.49"/>
</a>
</g>
</g>
<!-- Node3&#45;&gt;Node4 -->
<g id="edge3_Node000003_Node000004" class="edge">
<title>Node3&#45;&gt;Node4</title>
<g id="a_edge3_Node000003_Node000004"><a xlink:title=" ">
<path fill="none" stroke="#63b8ff" d="M1154.92,-235.59C1150.17,-228.47 1143.49,-218.45 1137.67,-209.72"/>
<polygon fill="#63b8ff" stroke="#63b8ff" points="1140.69,-207.94 1132.23,-201.56 1134.86,-211.82 1140.69,-207.94"/>
</a>
</g>
</g>
<!-- Node13 -->
<g id="Node000013" class="node">
<title>Node13</title>
<g id="a_Node000013"><a xlink:title=" ">
<polygon fill="#e0e0e0" stroke="#999999" points="1254.19,-20 1214.19,-20 1214.19,0 1254.19,0 1254.19,-20"/>
<text xml:space="preserve" text-anchor="middle" x="1234.19" y="-6.5" font-family="Helvetica,sans-Serif" font-size="10.00">string</text>
</a>
</g>
</g>
<!-- Node3&#45;&gt;Node13 -->
<g id="edge62_Node000003_Node000013" class="edge">
<title>Node3&#45;&gt;Node13</title>
<g id="a_edge62_Node000003_Node000013"><a xlink:title=" ">
<path fill="none" stroke="#63b8ff" d="M1205.26,-242.19C1355.68,-232.14 1842.04,-195.86 1887.19,-144 1917.02,-109.74 1845.9,-56.39 1845.19,-56 1794.15,-28.09 1384.18,-15.02 1265.98,-11.81"/>
<polygon fill="#63b8ff" stroke="#63b8ff" points="1266.16,-8.31 1256.07,-11.54 1265.97,-15.31 1266.16,-8.31"/>
</a>
</g>
</g>
<!-- Node15 -->
<g id="Node000015" class="node">
<title>Node15</title>
<g id="a_Node000015"><a xlink:title=" ">
<polygon fill="#e0e0e0" stroke="#999999" points="487.69,-76 444.69,-76 444.69,-56 487.69,-56 487.69,-76"/>
<text xml:space="preserve" text-anchor="middle" x="466.19" y="-62.5" font-family="Helvetica,sans-Serif" font-size="10.00">vector</text>
</a>
</g>
</g>
<!-- Node3&#45;&gt;Node15 -->
<g id="edge63_Node000003_Node000015" class="edge">
<title>Node3&#45;&gt;Node15</title>
<g id="a_edge63_Node000003_Node000015"><a xlink:title=" ">
<path fill="none" stroke="#63b8ff" d="M1117.21,-244.58C915.28,-242.19 83.53,-227.31 7.19,-144 -2.42,-133.51 -2.36,-122.54 7.19,-112 35.74,-80.51 332.79,-70.3 433.22,-67.73"/>
<polygon fill="#63b8ff" stroke="#63b8ff" points="433.04,-71.24 442.95,-67.49 432.87,-64.24 433.04,-71.24"/>
</a>
</g>
</g>
<!-- Node4&#45;&gt;Node5 -->
<g id="edge4_Node000004_Node000005" class="edge">
<title>Node4&#45;&gt;Node5</title>
<g id="a_edge4_Node000004_Node000005"><a xlink:title=" ">
<path fill="none" stroke="#63b8ff" d="M1069.59,-189.46C920.52,-190.03 499.75,-187.36 153.19,-144 146.2,-143.13 138.87,-141.94 131.68,-140.63"/>
<polygon fill="#63b8ff" stroke="#63b8ff" points="132.51,-137.22 122.03,-138.75 131.18,-144.09 132.51,-137.22"/>
</a>
</g>
</g>
<!-- Node6 -->
<g id="Node000006" class="node">
<title>Node6</title>
<g id="a_Node000006"><a xlink:href="IAssetManager_8hpp.html" target="_top" xlink:title=" ">
<polygon fill="white" stroke="#666666" points="858.06,-138 700.31,-138 700.31,-118 858.06,-118 858.06,-138"/>
<text xml:space="preserve" text-anchor="middle" x="779.19" y="-124.5" font-family="Helvetica,sans-Serif" font-size="10.00">Utils/Assets/IAssetManager.hpp</text>
</a>
</g>
</g>
<!-- Node4&#45;&gt;Node6 -->
<g id="edge5_Node000004_Node000006" class="edge">
<title>Node4&#45;&gt;Node6</title>
<g id="a_edge5_Node000004_Node000006"><a xlink:title=" ">
<path fill="none" stroke="#63b8ff" d="M1070.75,-179.56C1009.58,-168.95 910.31,-151.74 844.89,-140.39"/>
<polygon fill="#63b8ff" stroke="#63b8ff" points="845.83,-137 835.38,-138.74 844.63,-143.9 845.83,-137"/>
</a>
</g>
</g>
<!-- Node7 -->
<g id="Node000007" class="node">
<title>Node7</title>
<g id="a_Node000007"><a xlink:title=" ">
<polygon fill="#e0e0e0" stroke="#999999" points="758.69,-76 697.69,-76 697.69,-56 758.69,-56 758.69,-76"/>
<text xml:space="preserve" text-anchor="middle" x="728.19" y="-62.5" font-family="Helvetica,sans-Serif" font-size="10.00">filesystem</text>
</a>
</g>
</g>
<!-- Node4&#45;&gt;Node7 -->
<g id="edge60_Node000004_Node000007" class="edge">
<title>Node4&#45;&gt;Node7</title>
<g id="a_edge60_Node000004_Node000007"><a xlink:title=" ">
<path fill="none" stroke="#63b8ff" d="M1069.79,-187.32C958.48,-183.36 716.11,-171.64 691.19,-144 675.37,-126.46 693.55,-100.95 709.55,-84.17"/>
<polygon fill="#63b8ff" stroke="#63b8ff" points="711.8,-86.86 716.45,-77.34 706.88,-81.89 711.8,-86.86"/>
</a>
</g>
</g>
<!-- Node8 -->
<g id="Node000008" class="node">
<title>Node8</title>
<g id="a_Node000008"><a xlink:href="IDirectoryManager_8hpp.html" target="_top" xlink:title=" ">
<polygon fill="white" stroke="#666666" points="643.69,-144 510.69,-144 510.69,-112 643.69,-112 643.69,-144"/>
<text xml:space="preserve" text-anchor="start" x="518.69" y="-130.5" font-family="Helvetica,sans-Serif" font-size="10.00">Utils/Filesystem/IDirectory</text>
<text xml:space="preserve" text-anchor="middle" x="577.19" y="-118.5" font-family="Helvetica,sans-Serif" font-size="10.00">Manager.hpp</text>
</a>
</g>
</g>
<!-- Node4&#45;&gt;Node8 -->
<g id="edge7_Node000004_Node000008" class="edge">
<title>Node4&#45;&gt;Node8</title>
<g id="a_edge7_Node000004_Node000008"><a xlink:title=" ">
<path fill="none" stroke="#63b8ff" d="M1069.65,-185.22C981.97,-178.9 806.2,-164.8 658.19,-144 657.17,-143.86 656.14,-143.71 655.1,-143.56"/>
<polygon fill="#63b8ff" stroke="#63b8ff" points="655.77,-140.12 645.35,-142.05 654.7,-147.04 655.77,-140.12"/>
</a>
</g>
</g>
<!-- Node16 -->
<g id="Node000016" class="node">
<title>Node16</title>
<g id="a_Node000016"><a xlink:href="IFileReader_8hpp.html" target="_top" xlink:title=" ">
<polygon fill="white" stroke="#666666" points="321.81,-138 162.56,-138 162.56,-118 321.81,-118 321.81,-138"/>
<text xml:space="preserve" text-anchor="middle" x="242.19" y="-124.5" font-family="Helvetica,sans-Serif" font-size="10.00">Utils/Filesystem/IFileReader.hpp</text>
</a>
</g>
</g>
<!-- Node4&#45;&gt;Node16 -->
<g id="edge14_Node000004_Node000016" class="edge">
<title>Node4&#45;&gt;Node16</title>
<g id="a_edge14_Node000004_Node000016"><a xlink:title=" ">
<path fill="none" stroke="#63b8ff" d="M1069.59,-188C939.75,-185.19 606.64,-175.28 330.19,-144 321.42,-143.01 312.19,-141.71 303.15,-140.3"/>
<polygon fill="#63b8ff" stroke="#63b8ff" points="303.77,-136.86 293.34,-138.71 302.65,-143.77 303.77,-136.86"/>
</a>
</g>
</g>
<!-- Node17 -->
<g id="Node000017" class="node">
<title>Node17</title>
<g id="a_Node000017"><a xlink:href="IFileWriter_8hpp.html" target="_top" xlink:title=" ">
<polygon fill="white" stroke="#666666" points="492.81,-138 339.56,-138 339.56,-118 492.81,-118 492.81,-138"/>
<text xml:space="preserve" text-anchor="middle" x="416.19" y="-124.5" font-family="Helvetica,sans-Serif" font-size="10.00">Utils/Filesystem/IFileWriter.hpp</text>
</a>
</g>
</g>
<!-- Node4&#45;&gt;Node17 -->
<g id="edge20_Node000004_Node000017" class="edge">
<title>Node4&#45;&gt;Node17</title>
<g id="a_edge20_Node000004_Node000017"><a xlink:title=" ">
<path fill="none" stroke="#63b8ff" d="M1069.49,-186.9C960.18,-182.37 710.03,-169.89 501.19,-144 492.92,-142.97 484.23,-141.69 475.69,-140.3"/>
<polygon fill="#63b8ff" stroke="#63b8ff" points="476.54,-136.89 466.1,-138.68 475.38,-143.8 476.54,-136.89"/>
</a>
</g>
</g>
<!-- Node18 -->
<g id="Node000018" class="node">
<title>Node18</title>
<g id="a_Node000018"><a xlink:href="IPathResolver_8hpp.html" target="_top" xlink:title=" ">
<polygon fill="white" stroke="#666666" points="1047.81,-138 876.56,-138 876.56,-118 1047.81,-118 1047.81,-138"/>
<text xml:space="preserve" text-anchor="middle" x="962.19" y="-124.5" font-family="Helvetica,sans-Serif" font-size="10.00">Utils/Filesystem/IPathResolver.hpp</text>
</a>
</g>
</g>
<!-- Node4&#45;&gt;Node18 -->
<g id="edge26_Node000004_Node000018" class="edge">
<title>Node4&#45;&gt;Node18</title>
<g id="a_edge26_Node000004_Node000018"><a xlink:title=" ">
<path fill="none" stroke="#63b8ff" d="M1099.72,-179.62C1072.53,-169.62 1029.2,-153.67 998.45,-142.35"/>
<polygon fill="#63b8ff" stroke="#63b8ff" points="999.76,-139.1 989.17,-138.93 997.34,-145.67 999.76,-139.1"/>
</a>
</g>
</g>
<!-- Node19 -->
<g id="Node000019" class="node">
<title>Node19</title>
<g id="a_Node000019"><a xlink:href="ICustomStringsLoader_8hpp.html" target="_top" xlink:title=" ">
<polygon fill="white" stroke="#666666" points="1498.94,-144 1367.44,-144 1367.44,-112 1498.94,-112 1498.94,-144"/>
<text xml:space="preserve" text-anchor="start" x="1375.44" y="-130.5" font-family="Helvetica,sans-Serif" font-size="10.00">Utils/Json/ICustomStrings</text>
<text xml:space="preserve" text-anchor="middle" x="1433.19" y="-118.5" font-family="Helvetica,sans-Serif" font-size="10.00">Loader.hpp</text>
</a>
</g>
</g>
<!-- Node4&#45;&gt;Node19 -->
<g id="edge31_Node000004_Node000019" class="edge">
<title>Node4&#45;&gt;Node19</title>
<g id="a_edge31_Node000004_Node000019"><a xlink:title=" ">
<path fill="none" stroke="#63b8ff" d="M1174.75,-179.53C1219.54,-170.94 1287.58,-157.85 1355.97,-144.43"/>
<polygon fill="#63b8ff" stroke="#63b8ff" points="1356.32,-147.93 1365.46,-142.57 1354.97,-141.06 1356.32,-147.93"/>
</a>
</g>
</g>
<!-- Node21 -->
<g id="Node000021" class="node">
<title>Node21</title>
<g id="a_Node000021"><a xlink:href="IJsonSerializer_8hpp.html" target="_top" xlink:title=" ">
<polygon fill="white" stroke="#666666" points="1349.44,-138 1202.94,-138 1202.94,-118 1349.44,-118 1349.44,-138"/>
<text xml:space="preserve" text-anchor="middle" x="1276.19" y="-124.5" font-family="Helvetica,sans-Serif" font-size="10.00">Utils/Json/IJsonSerializer.hpp</text>
</a>
</g>
</g>
<!-- Node4&#45;&gt;Node21 -->
<g id="edge36_Node000004_Node000021" class="edge">
<title>Node4&#45;&gt;Node21</title>
<g id="a_edge36_Node000004_Node000021"><a xlink:title=" ">
<path fill="none" stroke="#63b8ff" d="M1148.78,-179.62C1173.83,-169.67 1213.64,-153.85 1242.09,-142.55"/>
<polygon fill="#63b8ff" stroke="#63b8ff" points="1243.35,-145.81 1251.35,-138.87 1240.77,-139.31 1243.35,-145.81"/>
</a>
</g>
</g>
<!-- Node22 -->
<g id="Node000022" class="node">
<title>Node22</title>
<g id="a_Node000022"><a xlink:href="ILogger_8hpp.html" target="_top" xlink:title=" ">
<polygon fill="white" stroke="#666666" points="1836.44,-76 1713.94,-76 1713.94,-56 1836.44,-56 1836.44,-76"/>
<text xml:space="preserve" text-anchor="middle" x="1775.19" y="-62.5" font-family="Helvetica,sans-Serif" font-size="10.00">Utils/Logger/ILogger.hpp</text>
</a>
</g>
</g>
<!-- Node4&#45;&gt;Node22 -->
<g id="edge41_Node000004_Node000022" class="edge">
<title>Node4&#45;&gt;Node22</title>
<g id="a_edge41_Node000004_Node000022"><a xlink:title=" ">
<path fill="none" stroke="#63b8ff" d="M1180.66,-187.71C1349.43,-183.51 1846.61,-169.05 1870.19,-144 1879.94,-133.64 1877.79,-124.02 1870.19,-112 1860.82,-97.2 1845.13,-87.17 1829.16,-80.42"/>
<polygon fill="#63b8ff" stroke="#63b8ff" points="1830.7,-77.26 1820.11,-76.97 1828.21,-83.8 1830.7,-77.26"/>
</a>
</g>
</g>
<!-- Node4&#45;&gt;Node24 -->
<g id="edge61_Node000004_Node000024" class="edge">
<title>Node4&#45;&gt;Node24</title>
<g id="a_edge61_Node000004_Node000024"><a xlink:title=" ">
<path fill="none" stroke="#63b8ff" d="M1180.89,-187.65C1352.24,-183.24 1861.52,-168.15 1887.19,-144 1917.72,-115.27 1913.19,-61.06 1907.83,-31.5"/>
<polygon fill="#63b8ff" stroke="#63b8ff" points="1911.32,-31.06 1905.89,-21.96 1904.46,-32.46 1911.32,-31.06"/>
</a>
</g>
</g>
<!-- Node26 -->
<g id="Node000026" class="node">
<title>Node26</title>
<g id="a_Node000026"><a xlink:href="LoggerFactory_8hpp.html" target="_top" xlink:title=" ">
<polygon fill="white" stroke="#666666" points="1861.06,-138 1709.31,-138 1709.31,-118 1861.06,-118 1861.06,-138"/>
<text xml:space="preserve" text-anchor="middle" x="1785.19" y="-124.5" font-family="Helvetica,sans-Serif" font-size="10.00">Utils/Logger/LoggerFactory.hpp</text>
</a>
</g>
</g>
<!-- Node4&#45;&gt;Node26 -->
<g id="edge47_Node000004_Node000026" class="edge">
<title>Node4&#45;&gt;Node26</title>
<g id="a_edge47_Node000004_Node000026"><a xlink:title=" ">
<path fill="none" stroke="#63b8ff" d="M1180.88,-186.43C1283.77,-181.29 1510.46,-168.11 1700.19,-144 1708.26,-142.97 1716.74,-141.71 1725.08,-140.35"/>
<polygon fill="#63b8ff" stroke="#63b8ff" points="1725.55,-143.82 1734.83,-138.71 1724.38,-136.92 1725.55,-143.82"/>
</a>
</g>
</g>
<!-- Node27 -->
<g id="Node000027" class="node">
<title>Node27</title>
<g id="a_Node000027"><a xlink:href="NullLogger_8hpp.html" target="_top" xlink:title=" ">
<polygon fill="white" stroke="#666666" points="1691.56,-138 1554.81,-138 1554.81,-118 1691.56,-118 1691.56,-138"/>
<text xml:space="preserve" text-anchor="middle" x="1623.19" y="-124.5" font-family="Helvetica,sans-Serif" font-size="10.00">Utils/Logger/NullLogger.hpp</text>
</a>
</g>
</g>
<!-- Node4&#45;&gt;Node27 -->
<g id="edge51_Node000004_Node000027" class="edge">
<title>Node4&#45;&gt;Node27</title>
<g id="a_edge51_Node000004_Node000027"><a xlink:title=" ">
<path fill="none" stroke="#63b8ff" d="M1180.87,-184.28C1260.82,-177.21 1412.69,-162.68 1541.19,-144 1548.42,-142.95 1555.98,-141.73 1563.47,-140.45"/>
<polygon fill="#63b8ff" stroke="#63b8ff" points="1563.99,-143.91 1573.23,-138.73 1562.78,-137.02 1563.99,-143.91"/>
</a>
</g>
</g>
<!-- Node28 -->
<g id="Node000028" class="node">
<title>Node28</title>
<g id="a_Node000028"><a xlink:href="IPlatformInfo_8hpp.html" target="_top" xlink:title=" ">
<polygon fill="white" stroke="#666666" points="1184.56,-144 1065.81,-144 1065.81,-112 1184.56,-112 1184.56,-144"/>
<text xml:space="preserve" text-anchor="start" x="1073.81" y="-130.5" font-family="Helvetica,sans-Serif" font-size="10.00">Utils/Platform/IPlatform</text>
<text xml:space="preserve" text-anchor="middle" x="1125.19" y="-118.5" font-family="Helvetica,sans-Serif" font-size="10.00">Info.hpp</text>
</a>
</g>
</g>
<!-- Node4&#45;&gt;Node28 -->
<g id="edge53_Node000004_Node000028" class="edge">
<title>Node4&#45;&gt;Node28</title>
<g id="a_edge53_Node000004_Node000028"><a xlink:title=" ">
<path fill="none" stroke="#63b8ff" d="M1125.19,-179.62C1125.19,-173.1 1125.19,-164.05 1125.19,-155.4"/>
<polygon fill="#63b8ff" stroke="#63b8ff" points="1128.69,-155.65 1125.19,-145.65 1121.69,-155.65 1128.69,-155.65"/>
</a>
</g>
</g>
<!-- Node29 -->
<g id="Node000029" class="node">
<title>Node29</title>
<g id="a_Node000029"><a xlink:href="IStringFormatter_8hpp.html" target="_top" xlink:title=" ">
<polygon fill="white" stroke="#666666" points="1611.69,-76 1454.69,-76 1454.69,-56 1611.69,-56 1611.69,-76"/>
<text xml:space="preserve" text-anchor="middle" x="1533.19" y="-62.5" font-family="Helvetica,sans-Serif" font-size="10.00">Utils/String/IStringFormatter.hpp</text>
</a>
</g>
</g>
<!-- Node4&#45;&gt;Node29 -->
<g id="edge58_Node000004_Node000029" class="edge">
<title>Node4&#45;&gt;Node29</title>
<g id="a_edge58_Node000004_Node000029"><a xlink:title=" ">
<path fill="none" stroke="#63b8ff" d="M1180.85,-189.61C1274.81,-189.5 1459.4,-184.02 1508.19,-144 1524.8,-130.37 1530.49,-105.56 1532.38,-87.78"/>
<polygon fill="#63b8ff" stroke="#63b8ff" points="1535.86,-88.07 1533.07,-77.85 1528.88,-87.58 1535.86,-88.07"/>
</a>
</g>
</g>
<!-- Node6&#45;&gt;Node7 -->
<g id="edge6_Node000006_Node000007" class="edge">
<title>Node6&#45;&gt;Node7</title>
<g id="a_edge6_Node000006_Node000007"><a xlink:title=" ">
<path fill="none" stroke="#63b8ff" d="M771.22,-117.62C763.77,-108.86 752.44,-95.53 743.28,-84.75"/>
<polygon fill="#63b8ff" stroke="#63b8ff" points="746.06,-82.62 736.92,-77.27 740.72,-87.15 746.06,-82.62"/>
</a>
</g>
</g>
<!-- Node8&#45;&gt;Node7 -->
<g id="edge12_Node000008_Node000007" class="edge">
<title>Node8&#45;&gt;Node7</title>
<g id="a_edge12_Node000008_Node000007"><a xlink:title=" ">
<path fill="none" stroke="#63b8ff" d="M616.08,-111.55C640.21,-101.96 670.94,-89.75 694.12,-80.54"/>
<polygon fill="#63b8ff" stroke="#63b8ff" points="695.1,-83.91 703.11,-76.97 692.52,-77.41 695.1,-83.91"/>
</a>
</g>
</g>
<!-- Node9 -->
<g id="Node000009" class="node">
<title>Node9</title>
<g id="a_Node000009"><a xlink:href="UtilsError_8hpp.html" target="_top" xlink:title=" ">
<polygon fill="#fff0f0" stroke="red" points="1129.81,-76 1030.56,-76 1030.56,-56 1129.81,-56 1129.81,-76"/>
<text xml:space="preserve" text-anchor="middle" x="1080.19" y="-62.5" font-family="Helvetica,sans-Serif" font-size="10.00">Utils/UtilsError.hpp</text>
</a>
</g>
</g>
<!-- Node8&#45;&gt;Node9 -->
<g id="edge8_Node000008_Node000009" class="edge">
<title>Node8&#45;&gt;Node9</title>
<g id="a_edge8_Node000008_Node000009"><a xlink:title=" ">
<path fill="none" stroke="#63b8ff" d="M644.08,-118.02C659.54,-115.99 675.93,-113.89 691.19,-112 806.87,-97.7 942.08,-82.37 1018.77,-73.8"/>
<polygon fill="#63b8ff" stroke="#63b8ff" points="1019.06,-77.29 1028.61,-72.71 1018.28,-70.34 1019.06,-77.29"/>
</a>
</g>
</g>
<!-- Node8&#45;&gt;Node15 -->
<g id="edge13_Node000008_Node000015" class="edge">
<title>Node8&#45;&gt;Node15</title>
<g id="a_edge13_Node000008_Node000015"><a xlink:title=" ">
<path fill="none" stroke="#63b8ff" d="M548.6,-111.55C531.58,-102.35 510.1,-90.74 493.34,-81.68"/>
<polygon fill="#63b8ff" stroke="#63b8ff" points="495.39,-78.8 484.93,-77.13 492.06,-84.96 495.39,-78.8"/>
</a>
</g>
</g>
<!-- Node10 -->
<g id="Node000010" class="node">
<title>Node10</title>
<g id="a_Node000010"><a xlink:title=" ">
<polygon fill="#e0e0e0" stroke="#999999" points="1024.81,-20 979.56,-20 979.56,0 1024.81,0 1024.81,-20"/>
<text xml:space="preserve" text-anchor="middle" x="1002.19" y="-6.5" font-family="Helvetica,sans-Serif" font-size="10.00">cstdint</text>
</a>
</g>
</g>
<!-- Node9&#45;&gt;Node10 -->
<g id="edge9_Node000009_Node000010" class="edge">
<title>Node9&#45;&gt;Node10</title>
<g id="a_edge9_Node000009_Node000010"><a xlink:title=" ">
<path fill="none" stroke="#63b8ff" d="M1066.6,-55.59C1055.15,-47.67 1038.53,-36.16 1025.03,-26.82"/>
<polygon fill="#63b8ff" stroke="#63b8ff" points="1027.34,-24.16 1017.13,-21.34 1023.36,-29.91 1027.34,-24.16"/>
</a>
</g>
</g>
<!-- Node11 -->
<g id="Node000011" class="node">
<title>Node11</title>
<g id="a_Node000011"><a xlink:title=" ">
<polygon fill="#e0e0e0" stroke="#999999" points="1150.06,-20 1100.31,-20 1100.31,0 1150.06,0 1150.06,-20"/>
<text xml:space="preserve" text-anchor="middle" x="1125.19" y="-6.5" font-family="Helvetica,sans-Serif" font-size="10.00">optional</text>
</a>
</g>
</g>
<!-- Node9&#45;&gt;Node11 -->
<g id="edge10_Node000009_Node000011" class="edge">
<title>Node9&#45;&gt;Node11</title>
<g id="a_edge10_Node000009_Node000011"><a xlink:title=" ">
<path fill="none" stroke="#63b8ff" d="M1088.03,-55.59C1094.16,-48.24 1102.86,-37.8 1110.3,-28.87"/>
<polygon fill="#63b8ff" stroke="#63b8ff" points="1112.76,-31.38 1116.47,-21.46 1107.38,-26.9 1112.76,-31.38"/>
</a>
</g>
</g>
<!-- Node9&#45;&gt;Node13 -->
<g id="edge11_Node000009_Node000013" class="edge">
<title>Node9&#45;&gt;Node13</title>
<g id="a_edge11_Node000009_Node000013"><a xlink:title=" ">
<path fill="none" stroke="#63b8ff" d="M1107.01,-55.59C1133.83,-46.19 1175.01,-31.75 1203.21,-21.86"/>
<polygon fill="#63b8ff" stroke="#63b8ff" points="1204.34,-25.18 1212.62,-18.56 1202.02,-18.57 1204.34,-25.18"/>
</a>
</g>
</g>
<!-- Node16&#45;&gt;Node7 -->
<g id="edge17_Node000016_Node000007" class="edge">
<title>Node16&#45;&gt;Node7</title>
<g id="a_edge17_Node000016_Node000007"><a xlink:title=" ">
<path fill="none" stroke="#63b8ff" d="M294.7,-117.55C306.36,-115.59 318.68,-113.63 330.19,-112 459.49,-93.69 613.26,-78.03 686.02,-70.98"/>
<polygon fill="#63b8ff" stroke="#63b8ff" points="686.28,-74.47 695.9,-70.03 685.61,-67.5 686.28,-74.47"/>
</a>
</g>
</g>
<!-- Node16&#45;&gt;Node9 -->
<g id="edge15_Node000016_Node000009" class="edge">
<title>Node16&#45;&gt;Node9</title>
<g id="a_edge15_Node000016_Node000009"><a xlink:title=" ">
<path fill="none" stroke="#63b8ff" d="M291.85,-117.56C304.33,-115.46 317.72,-113.43 330.19,-112 584.98,-82.73 890.79,-71.88 1018.96,-68.42"/>
<polygon fill="#63b8ff" stroke="#63b8ff" points="1019.03,-71.92 1028.93,-68.15 1018.84,-64.92 1019.03,-71.92"/>
</a>
</g>
</g>
<!-- Node16&#45;&gt;Node10 -->
<g id="edge16_Node000016_Node000010" class="edge">
<title>Node16&#45;&gt;Node10</title>
<g id="a_edge16_Node000016_Node000010"><a xlink:title=" ">
<path fill="none" stroke="#63b8ff" d="M251.14,-117.73C267.23,-101.78 302.85,-69.52 340.19,-56 457.34,-13.58 849.19,-10.72 967.85,-10.85"/>
<polygon fill="#63b8ff" stroke="#63b8ff" points="967.57,-14.35 977.57,-10.87 967.58,-7.35 967.57,-14.35"/>
</a>
</g>
</g>
<!-- Node16&#45;&gt;Node13 -->
<g id="edge18_Node000016_Node000013" class="edge">
<title>Node16&#45;&gt;Node13</title>
<g id="a_edge18_Node000016_Node000013"><a xlink:title=" ">
<path fill="none" stroke="#63b8ff" d="M261.61,-117.6C295.77,-101.58 369.25,-69.44 435.19,-56 750.87,8.35 838.16,-47.21 1159.19,-20 1173.54,-18.78 1189.38,-16.95 1202.79,-15.26"/>
<polygon fill="#63b8ff" stroke="#63b8ff" points="1202.89,-18.78 1212.35,-14.02 1201.99,-11.84 1202.89,-18.78"/>
</a>
</g>
</g>
<!-- Node16&#45;&gt;Node15 -->
<g id="edge19_Node000016_Node000015" class="edge">
<title>Node16&#45;&gt;Node15</title>
<g id="a_edge19_Node000016_Node000015"><a xlink:title=" ">
<path fill="none" stroke="#63b8ff" d="M277.19,-117.62C319.93,-106.18 391.66,-86.96 433.38,-75.79"/>
<polygon fill="#63b8ff" stroke="#63b8ff" points="434.09,-79.22 442.84,-73.25 432.28,-72.46 434.09,-79.22"/>
</a>
</g>
</g>
<!-- Node17&#45;&gt;Node7 -->
<g id="edge23_Node000017_Node000007" class="edge">
<title>Node17&#45;&gt;Node7</title>
<g id="a_edge23_Node000017_Node000007"><a xlink:title=" ">
<path fill="none" stroke="#63b8ff" d="M465.28,-117.56C526.13,-105.86 628.79,-86.12 686.17,-75.08"/>
<polygon fill="#63b8ff" stroke="#63b8ff" points="686.71,-78.54 695.86,-73.22 685.38,-71.67 686.71,-78.54"/>
</a>
</g>
</g>
<!-- Node17&#45;&gt;Node9 -->
<g id="edge21_Node000017_Node000009" class="edge">
<title>Node17&#45;&gt;Node9</title>
<g id="a_edge21_Node000017_Node000009"><a xlink:title=" ">
<path fill="none" stroke="#63b8ff" d="M465.06,-117.54C476.85,-115.49 489.44,-113.49 501.19,-112 688.95,-88.19 912.66,-75.1 1018.65,-69.82"/>
<polygon fill="#63b8ff" stroke="#63b8ff" points="1018.74,-73.32 1028.56,-69.33 1018.4,-66.32 1018.74,-73.32"/>
</a>
</g>
</g>
<!-- Node17&#45;&gt;Node10 -->
<g id="edge22_Node000017_Node000010" class="edge">
<title>Node17&#45;&gt;Node10</title>
<g id="a_edge22_Node000017_Node000010"><a xlink:title=" ">
<path fill="none" stroke="#63b8ff" d="M415.6,-117.88C415.15,-102.44 416.75,-71.35 435.19,-56 476.14,-21.9 851.17,-13.31 967.76,-11.46"/>
<polygon fill="#63b8ff" stroke="#63b8ff" points="967.69,-14.96 977.63,-11.31 967.58,-7.96 967.69,-14.96"/>
</a>
</g>
</g>
<!-- Node17&#45;&gt;Node13 -->
<g id="edge24_Node000017_Node000013" class="edge">
<title>Node17&#45;&gt;Node13</title>
<g id="a_edge24_Node000017_Node000013"><a xlink:title=" ">
<path fill="none" stroke="#63b8ff" d="M445.2,-117.59C494.53,-102 598.18,-71.06 688.19,-56 895.25,-21.35 950.25,-40.51 1159.19,-20 1173.52,-18.59 1189.36,-16.74 1202.78,-15.08"/>
<polygon fill="#63b8ff" stroke="#63b8ff" points="1202.86,-18.59 1212.34,-13.87 1201.98,-11.65 1202.86,-18.59"/>
</a>
</g>
</g>
<!-- Node17&#45;&gt;Node15 -->
<g id="edge25_Node000017_Node000015" class="edge">
<title>Node17&#45;&gt;Node15</title>
<g id="a_edge25_Node000017_Node000015"><a xlink:title=" ">
<path fill="none" stroke="#63b8ff" d="M424,-117.62C431.31,-108.86 442.41,-95.53 451.4,-84.75"/>
<polygon fill="#63b8ff" stroke="#63b8ff" points="453.91,-87.2 457.63,-77.28 448.54,-82.72 453.91,-87.2"/>
</a>
</g>
</g>
<!-- Node18&#45;&gt;Node7 -->
<g id="edge28_Node000018_Node000007" class="edge">
<title>Node18&#45;&gt;Node7</title>
<g id="a_edge28_Node000018_Node000007"><a xlink:title=" ">
<path fill="none" stroke="#63b8ff" d="M925.37,-117.56C883.22,-106.75 814.32,-89.08 770.13,-77.75"/>
<polygon fill="#63b8ff" stroke="#63b8ff" points="771.21,-74.42 760.65,-75.32 769.47,-81.2 771.21,-74.42"/>
</a>
</g>
</g>
<!-- Node18&#45;&gt;Node9 -->
<g id="edge27_Node000018_Node000009" class="edge">
<title>Node18&#45;&gt;Node9</title>
<g id="a_edge27_Node000018_Node000009"><a xlink:title=" ">
<path fill="none" stroke="#63b8ff" d="M980.63,-117.62C999.68,-107.94 1029.66,-92.69 1051.75,-81.46"/>
<polygon fill="#63b8ff" stroke="#63b8ff" points="1053.2,-84.65 1060.53,-77 1050.03,-78.41 1053.2,-84.65"/>
</a>
</g>
</g>
<!-- Node18&#45;&gt;Node13 -->
<g id="edge29_Node000018_Node000013" class="edge">
<title>Node18&#45;&gt;Node13</title>
<g id="a_edge29_Node000018_Node000013"><a xlink:title=" ">
<path fill="none" stroke="#63b8ff" d="M1010.26,-117.53C1046.73,-109.31 1097.53,-95.63 1139.19,-76 1154.14,-68.96 1189.42,-43.89 1212.52,-27.02"/>
<polygon fill="#63b8ff" stroke="#63b8ff" points="1214.37,-30.01 1220.36,-21.27 1210.23,-24.36 1214.37,-30.01"/>
</a>
</g>
</g>
<!-- Node18&#45;&gt;Node15 -->
<g id="edge30_Node000018_Node000015" class="edge">
<title>Node18&#45;&gt;Node15</title>
<g id="a_edge30_Node000018_Node000015"><a xlink:title=" ">
<path fill="none" stroke="#63b8ff" d="M904.73,-117.5C892.36,-115.58 879.35,-113.64 867.19,-112 730.96,-93.61 567.98,-76.97 499.29,-70.21"/>
<polygon fill="#63b8ff" stroke="#63b8ff" points="499.77,-66.74 489.47,-69.24 499.08,-73.7 499.77,-66.74"/>
</a>
</g>
</g>
<!-- Node19&#45;&gt;Node9 -->
<g id="edge32_Node000019_Node000009" class="edge">
<title>Node19&#45;&gt;Node9</title>
<g id="a_edge32_Node000019_Node000009"><a xlink:title=" ">
<path fill="none" stroke="#63b8ff" d="M1366.96,-113.62C1364,-113.06 1361.06,-112.52 1358.19,-112 1283.81,-98.55 1197.88,-84.93 1141.48,-76.26"/>
<polygon fill="#63b8ff" stroke="#63b8ff" points="1142.16,-72.82 1131.75,-74.76 1141.1,-79.74 1142.16,-72.82"/>
</a>
</g>
</g>
<!-- Node19&#45;&gt;Node11 -->
<g id="edge34_Node000019_Node000011" class="edge">
<title>Node19&#45;&gt;Node11</title>
<g id="a_edge34_Node000019_Node000011"><a xlink:title=" ">
<path fill="none" stroke="#63b8ff" d="M1423.74,-111.53C1412.77,-94.99 1393.09,-69.36 1369.19,-56 1334.19,-36.43 1221.05,-21.53 1161.93,-14.85"/>
<polygon fill="#63b8ff" stroke="#63b8ff" points="1162.36,-11.38 1152.03,-13.75 1161.59,-18.33 1162.36,-11.38"/>
</a>
</g>
</g>
<!-- Node19&#45;&gt;Node13 -->
<g id="edge35_Node000019_Node000013" class="edge">
<title>Node19&#45;&gt;Node13</title>
<g id="a_edge35_Node000019_Node000013"><a xlink:title=" ">
<path fill="none" stroke="#63b8ff" d="M1430.53,-111.66C1426.93,-95.48 1418.91,-70.39 1402.19,-56 1363.46,-22.68 1302.54,-13.75 1265.68,-11.52"/>
<polygon fill="#63b8ff" stroke="#63b8ff" points="1266.28,-8.05 1256.13,-11.08 1265.96,-15.04 1266.28,-8.05"/>
</a>
</g>
</g>
<!-- Node20 -->
<g id="Node000020" class="node">
<title>Node20</title>
<g id="a_Node000020"><a xlink:title=" ">
<polygon fill="#e0e0e0" stroke="#999999" points="1360.06,-76 1262.31,-76 1262.31,-56 1360.06,-56 1360.06,-76"/>
<text xml:space="preserve" text-anchor="middle" x="1311.19" y="-62.5" font-family="Helvetica,sans-Serif" font-size="10.00">nlohmann/json.hpp</text>
</a>
</g>
</g>
<!-- Node19&#45;&gt;Node20 -->
<g id="edge33_Node000019_Node000020" class="edge">
<title>Node19&#45;&gt;Node20</title>
<g id="a_edge33_Node000019_Node000020"><a xlink:title=" ">
<path fill="none" stroke="#63b8ff" d="M1401.77,-111.55C1382.89,-102.26 1359.01,-90.52 1340.51,-81.42"/>
<polygon fill="#63b8ff" stroke="#63b8ff" points="1342.19,-78.35 1331.68,-77.08 1339.11,-84.63 1342.19,-78.35"/>
</a>
</g>
</g>
<!-- Node21&#45;&gt;Node7 -->
<g id="edge38_Node000021_Node000007" class="edge">
<title>Node21&#45;&gt;Node7</title>
<g id="a_edge38_Node000021_Node000007"><a xlink:title=" ">
<path fill="none" stroke="#63b8ff" d="M1227.58,-117.52C1216.32,-115.52 1204.36,-113.55 1193.19,-112 1037.94,-90.5 852.11,-75.82 770.33,-69.91"/>
<polygon fill="#63b8ff" stroke="#63b8ff" points="770.77,-66.43 760.54,-69.21 770.27,-73.41 770.77,-66.43"/>
</a>
</g>
</g>
<!-- Node21&#45;&gt;Node9 -->
<g id="edge37_Node000021_Node000009" class="edge">
<title>Node21&#45;&gt;Node9</title>
<g id="a_edge37_Node000021_Node000009"><a xlink:title=" ">
<path fill="none" stroke="#63b8ff" d="M1245.56,-117.62C1212.29,-107.44 1158.94,-91.11 1121.86,-79.76"/>
<polygon fill="#63b8ff" stroke="#63b8ff" points="1122.96,-76.43 1112.37,-76.85 1120.91,-83.12 1122.96,-76.43"/>
</a>
</g>
</g>
<!-- Node21&#45;&gt;Node13 -->
<g id="edge40_Node000021_Node000013" class="edge">
<title>Node21&#45;&gt;Node13</title>
<g id="a_edge40_Node000021_Node000013"><a xlink:title=" ">
<path fill="none" stroke="#63b8ff" d="M1271.55,-117.76C1266.6,-107.67 1258.71,-90.94 1253.19,-76 1247.75,-61.29 1242.82,-44.27 1239.35,-31.33"/>
<polygon fill="#63b8ff" stroke="#63b8ff" points="1242.79,-30.65 1236.88,-21.85 1236.01,-32.41 1242.79,-30.65"/>
</a>
</g>
</g>
<!-- Node21&#45;&gt;Node20 -->
<g id="edge39_Node000021_Node000020" class="edge">
<title>Node21&#45;&gt;Node20</title>
<g id="a_edge39_Node000021_Node000020"><a xlink:title=" ">
<path fill="none" stroke="#63b8ff" d="M1281.66,-117.62C1286.62,-109.12 1294.08,-96.33 1300.26,-85.74"/>
<polygon fill="#63b8ff" stroke="#63b8ff" points="1303.1,-87.82 1305.11,-77.42 1297.05,-84.29 1303.1,-87.82"/>
</a>
</g>
</g>
<!-- Node22&#45;&gt;Node10 -->
<g id="edge43_Node000022_Node000010" class="edge">
<title>Node22&#45;&gt;Node10</title>
<g id="a_edge43_Node000022_Node000010"><a xlink:title=" ">
<path fill="none" stroke="#63b8ff" d="M1713.52,-61.22C1568.92,-52.32 1211.19,-30.01 1091.19,-20 1073.13,-18.49 1053.05,-16.49 1036.53,-14.76"/>
<polygon fill="#63b8ff" stroke="#63b8ff" points="1037.04,-11.29 1026.72,-13.71 1036.3,-18.25 1037.04,-11.29"/>
</a>
</g>
</g>
<!-- Node22&#45;&gt;Node13 -->
<g id="edge46_Node000022_Node000013" class="edge">
<title>Node22&#45;&gt;Node13</title>
<g id="a_edge46_Node000022_Node000013"><a xlink:title=" ">
<path fill="none" stroke="#63b8ff" d="M1713.7,-58.85C1704.16,-57.9 1694.41,-56.92 1685.19,-56 1527.58,-40.26 1338.99,-21.45 1265.58,-14.13"/>
<polygon fill="#63b8ff" stroke="#63b8ff" points="1266.22,-10.68 1255.92,-13.17 1265.53,-17.64 1266.22,-10.68"/>
</a>
</g>
</g>
<!-- Node23 -->
<g id="Node000023" class="node">
<title>Node23</title>
<g id="a_Node000023"><a xlink:title=" ">
<polygon fill="#e0e0e0" stroke="#999999" points="1760.31,-20 1700.06,-20 1700.06,0 1760.31,0 1760.31,-20"/>
<text xml:space="preserve" text-anchor="middle" x="1730.19" y="-6.5" font-family="Helvetica,sans-Serif" font-size="10.00">fmt/core.h</text>
</a>
</g>
</g>
<!-- Node22&#45;&gt;Node23 -->
<g id="edge42_Node000022_Node000023" class="edge">
<title>Node22&#45;&gt;Node23</title>
<g id="a_edge42_Node000022_Node000023"><a xlink:title=" ">
<path fill="none" stroke="#63b8ff" d="M1767.35,-55.59C1761.22,-48.24 1752.52,-37.8 1745.08,-28.87"/>
<polygon fill="#63b8ff" stroke="#63b8ff" points="1748,-26.9 1738.91,-21.46 1742.62,-31.38 1748,-26.9"/>
</a>
</g>
</g>
<!-- Node22&#45;&gt;Node24 -->
<g id="edge44_Node000022_Node000024" class="edge">
<title>Node22&#45;&gt;Node24</title>
<g id="a_edge44_Node000022_Node000024"><a xlink:title=" ">
<path fill="none" stroke="#63b8ff" d="M1797.48,-55.59C1817.55,-47.13 1847.31,-34.58 1870.14,-24.94"/>
<polygon fill="#63b8ff" stroke="#63b8ff" points="1871.47,-28.18 1879.32,-21.07 1868.75,-21.73 1871.47,-28.18"/>
</a>
</g>
</g>
<!-- Node25 -->
<g id="Node000025" class="node">
<title>Node25</title>
<g id="a_Node000025"><a xlink:title=" ">
<polygon fill="#e0e0e0" stroke="#999999" points="1829.81,-20 1778.56,-20 1778.56,0 1829.81,0 1829.81,-20"/>
<text xml:space="preserve" text-anchor="middle" x="1804.19" y="-6.5" font-family="Helvetica,sans-Serif" font-size="10.00">sstream</text>
</a>
</g>
</g>
<!-- Node22&#45;&gt;Node25 -->
<g id="edge45_Node000022_Node000025" class="edge">
<title>Node22&#45;&gt;Node25</title>
<g id="a_edge45_Node000022_Node000025"><a xlink:title=" ">
<path fill="none" stroke="#63b8ff" d="M1780.24,-55.59C1783.98,-48.63 1789.21,-38.89 1793.83,-30.29"/>
<polygon fill="#63b8ff" stroke="#63b8ff" points="1796.83,-32.1 1798.48,-21.63 1790.66,-28.79 1796.83,-32.1"/>
</a>
</g>
</g>
<!-- Node26&#45;&gt;Node13 -->
<g id="edge50_Node000026_Node000013" class="edge">
<title>Node26&#45;&gt;Node13</title>
<g id="a_edge50_Node000026_Node000013"><a xlink:title=" ">
<path fill="none" stroke="#63b8ff" d="M1768.08,-117.58C1738.9,-101.99 1677.23,-71.04 1621.19,-56 1492.34,-21.43 1332.33,-13.42 1265.65,-11.56"/>
<polygon fill="#63b8ff" stroke="#63b8ff" points="1265.91,-8.06 1255.82,-11.32 1265.73,-15.06 1265.91,-8.06"/>
</a>
</g>
</g>
<!-- Node26&#45;&gt;Node22 -->
<g id="edge48_Node000026_Node000022" class="edge">
<title>Node26&#45;&gt;Node22</title>
<g id="a_edge48_Node000026_Node000022"><a xlink:title=" ">
<path fill="none" stroke="#63b8ff" d="M1783.63,-117.62C1782.28,-109.56 1780.3,-97.65 1778.59,-87.41"/>
<polygon fill="#63b8ff" stroke="#63b8ff" points="1782.05,-86.89 1776.96,-77.61 1775.15,-88.05 1782.05,-86.89"/>
</a>
</g>
</g>
<!-- Node26&#45;&gt;Node24 -->
<g id="edge49_Node000026_Node000024" class="edge">
<title>Node26&#45;&gt;Node24</title>
<g id="a_edge49_Node000026_Node000024"><a xlink:title=" ">
<path fill="none" stroke="#63b8ff" d="M1797.11,-117.68C1809.52,-107.78 1829.34,-91.47 1845.19,-76 1860.69,-60.87 1877,-42.32 1888.37,-28.92"/>
<polygon fill="#63b8ff" stroke="#63b8ff" points="1890.97,-31.26 1894.71,-21.35 1885.6,-26.76 1890.97,-31.26"/>
</a>
</g>
</g>
<!-- Node27&#45;&gt;Node22 -->
<g id="edge52_Node000027_Node000022" class="edge">
<title>Node27&#45;&gt;Node22</title>
<g id="a_edge52_Node000027_Node000022"><a xlink:title=" ">
<path fill="none" stroke="#63b8ff" d="M1646.94,-117.62C1672.19,-107.66 1712.34,-91.81 1740.99,-80.5"/>
<polygon fill="#63b8ff" stroke="#63b8ff" points="1741.93,-83.89 1749.95,-76.96 1739.36,-77.38 1741.93,-83.89"/>
</a>
</g>
</g>
<!-- Node28&#45;&gt;Node7 -->
<g id="edge56_Node000028_Node000007" class="edge">
<title>Node28&#45;&gt;Node7</title>
<g id="a_edge56_Node000028_Node000007"><a xlink:title=" ">
<path fill="none" stroke="#63b8ff" d="M1065.54,-113.55C1062.72,-113.01 1059.93,-112.49 1057.19,-112 954.82,-93.74 833.38,-78.87 770.56,-71.68"/>
<polygon fill="#63b8ff" stroke="#63b8ff" points="771,-68.21 760.67,-70.56 770.21,-75.16 771,-68.21"/>
</a>
</g>
</g>
<!-- Node28&#45;&gt;Node9 -->
<g id="edge54_Node000028_Node000009" class="edge">
<title>Node28&#45;&gt;Node9</title>
<g id="a_edge54_Node000028_Node000009"><a xlink:title=" ">
<path fill="none" stroke="#63b8ff" d="M1113.6,-111.55C1107.61,-103.56 1100.26,-93.76 1093.98,-85.39"/>
<polygon fill="#63b8ff" stroke="#63b8ff" points="1096.95,-83.52 1088.15,-77.62 1091.35,-87.72 1096.95,-83.52"/>
</a>
</g>
</g>
<!-- Node28&#45;&gt;Node10 -->
<g id="edge55_Node000028_Node000010" class="edge">
<title>Node28&#45;&gt;Node10</title>
<g id="a_edge55_Node000028_Node000010"><a xlink:title=" ">
<path fill="none" stroke="#63b8ff" d="M1073.52,-111.56C1054.72,-103.64 1034.79,-92.15 1021.19,-76 1010.64,-63.47 1005.95,-45.32 1003.86,-31.38"/>
<polygon fill="#63b8ff" stroke="#63b8ff" points="1007.35,-31.1 1002.75,-21.55 1000.39,-31.88 1007.35,-31.1"/>
</a>
</g>
</g>
<!-- Node28&#45;&gt;Node13 -->
<g id="edge57_Node000028_Node000013" class="edge">
<title>Node28&#45;&gt;Node13</title>
<g id="a_edge57_Node000028_Node000013"><a xlink:title=" ">
<path fill="none" stroke="#63b8ff" d="M1139.44,-111.84C1159.52,-90.46 1196.09,-51.55 1217.44,-28.82"/>
<polygon fill="#63b8ff" stroke="#63b8ff" points="1219.99,-31.22 1224.28,-21.54 1214.89,-26.43 1219.99,-31.22"/>
</a>
</g>
</g>
<!-- Node29&#45;&gt;Node13 -->
<g id="edge59_Node000029_Node000013" class="edge">
<title>Node29&#45;&gt;Node13</title>
<g id="a_edge59_Node000029_Node000013"><a xlink:title=" ">
<path fill="none" stroke="#63b8ff" d="M1480.77,-55.53C1418.59,-44.3 1316.94,-25.95 1265.75,-16.7"/>
<polygon fill="#63b8ff" stroke="#63b8ff" points="1266.41,-13.26 1255.95,-14.93 1265.17,-20.15 1266.41,-13.26"/>
</a>
</g>
</g>
</g>
</svg>
