<?xml version="1.0" encoding="UTF-8" standalone="no"?>
<!DOCTYPE svg PUBLIC "-//W3C//DTD SVG 1.1//EN"
 "http://www.w3.org/Graphics/SVG/1.1/DTD/svg11.dtd">
<!-- Generated by graphviz version 13.1.2 (20250808.2320)
 -->
<!-- Title: src/Emoji/Emoji.cpp Pages: 1 -->
<svg width="1980pt" height="320pt"
 viewBox="0.00 0.00 1980.00 320.00" xmlns="http://www.w3.org/2000/svg" xmlns:xlink="http://www.w3.org/1999/xlink">
<g id="graph0" class="graph" transform="scale(1 1) rotate(0) translate(4 316)">
<title>src/Emoji/Emoji.cpp</title>
<!-- Node1 -->
<g id="Node000001" class="node">
<title>Node1</title>
<g id="a_Node000001"><a xlink:title=" ">
<polygon fill="#999999" stroke="#666666" points="1387.98,-312 1284.23,-312 1284.23,-292 1387.98,-292 1387.98,-312"/>
<text xml:space="preserve" text-anchor="middle" x="1336.11" y="-298.5" font-family="Helvetica,sans-Serif" font-size="10.00">src/Emoji/Emoji.cpp</text>
</a>
</g>
</g>
<!-- Node2 -->
<g id="Node000002" class="node">
<title>Node2</title>
<g id="a_Node000002"><a xlink:href="Emoji_8hpp.html" target="_top" xlink:title=" ">
<polygon fill="white" stroke="#666666" points="1154.86,-256 1095.36,-256 1095.36,-236 1154.86,-236 1154.86,-256"/>
<text xml:space="preserve" text-anchor="middle" x="1125.11" y="-242.5" font-family="Helvetica,sans-Serif" font-size="10.00">Emoji.hpp</text>
</a>
</g>
</g>
<!-- Node1&#45;&gt;Node2 -->
<g id="edge1_Node000001_Node000002" class="edge">
<title>Node1&#45;&gt;Node2</title>
<g id="a_edge1_Node000001_Node000002"><a xlink:title=" ">
<path fill="none" stroke="#63b8ff" d="M1299.35,-291.59C1262.17,-282.08 1204.81,-267.4 1166.16,-257.51"/>
<polygon fill="#63b8ff" stroke="#63b8ff" points="1167.32,-254.19 1156.76,-255.1 1165.58,-260.97 1167.32,-254.19"/>
</a>
</g>
</g>
<!-- Node29 -->
<g id="Node000029" class="node">
<title>Node29</title>
<g id="a_Node000029"><a xlink:title=" ">
<polygon fill="#e0e0e0" stroke="#999999" points="1228.98,-256 1173.23,-256 1173.23,-236 1228.98,-236 1228.98,-256"/>
<text xml:space="preserve" text-anchor="middle" x="1201.11" y="-242.5" font-family="Helvetica,sans-Serif" font-size="10.00">algorithm</text>
</a>
</g>
</g>
<!-- Node1&#45;&gt;Node29 -->
<g id="edge65_Node000001_Node000029" class="edge">
<title>Node1&#45;&gt;Node29</title>
<g id="a_edge65_Node000001_Node000029"><a xlink:title=" ">
<path fill="none" stroke="#63b8ff" d="M1312.59,-291.59C1291.24,-283.05 1259.47,-270.35 1235.31,-260.68"/>
<polygon fill="#63b8ff" stroke="#63b8ff" points="1236.8,-257.51 1226.21,-257.04 1234.2,-264.01 1236.8,-257.51"/>
</a>
</g>
</g>
<!-- Node30 -->
<g id="Node000030" class="node">
<title>Node30</title>
<g id="a_Node000030"><a xlink:title=" ">
<polygon fill="#e0e0e0" stroke="#999999" points="1295.23,-256 1246.98,-256 1246.98,-236 1295.23,-236 1295.23,-256"/>
<text xml:space="preserve" text-anchor="middle" x="1271.11" y="-242.5" font-family="Helvetica,sans-Serif" font-size="10.00">cassert</text>
</a>
</g>
</g>
<!-- Node1&#45;&gt;Node30 -->
<g id="edge66_Node000001_Node000030" class="edge">
<title>Node1&#45;&gt;Node30</title>
<g id="a_edge66_Node000001_Node000030"><a xlink:title=" ">
<path fill="none" stroke="#63b8ff" d="M1324.79,-291.59C1315.46,-283.85 1302.03,-272.69 1290.93,-263.47"/>
<polygon fill="#63b8ff" stroke="#63b8ff" points="1293.39,-260.96 1283.46,-257.27 1288.92,-266.35 1293.39,-260.96"/>
</a>
</g>
</g>
<!-- Node31 -->
<g id="Node000031" class="node">
<title>Node31</title>
<g id="a_Node000031"><a xlink:title=" ">
<polygon fill="#e0e0e0" stroke="#999999" points="1358.73,-256 1313.48,-256 1313.48,-236 1358.73,-236 1358.73,-256"/>
<text xml:space="preserve" text-anchor="middle" x="1336.11" y="-242.5" font-family="Helvetica,sans-Serif" font-size="10.00">cctype</text>
</a>
</g>
</g>
<!-- Node1&#45;&gt;Node31 -->
<g id="edge67_Node000001_Node000031" class="edge">
<title>Node1&#45;&gt;Node31</title>
<g id="a_edge67_Node000001_Node000031"><a xlink:title=" ">
<path fill="none" stroke="#63b8ff" d="M1336.11,-291.59C1336.11,-285.01 1336.11,-275.96 1336.11,-267.73"/>
<polygon fill="#63b8ff" stroke="#63b8ff" points="1339.61,-267.81 1336.11,-257.81 1332.61,-267.81 1339.61,-267.81"/>
</a>
</g>
</g>
<!-- Node32 -->
<g id="Node000032" class="node">
<title>Node32</title>
<g id="a_Node000032"><a xlink:title=" ">
<polygon fill="#e0e0e0" stroke="#999999" points="1425.61,-256 1376.61,-256 1376.61,-236 1425.61,-236 1425.61,-256"/>
<text xml:space="preserve" text-anchor="middle" x="1401.11" y="-242.5" font-family="Helvetica,sans-Serif" font-size="10.00">fstream</text>
</a>
</g>
</g>
<!-- Node1&#45;&gt;Node32 -->
<g id="edge68_Node000001_Node000032" class="edge">
<title>Node1&#45;&gt;Node32</title>
<g id="a_edge68_Node000001_Node000032"><a xlink:title=" ">
<path fill="none" stroke="#63b8ff" d="M1347.43,-291.59C1356.75,-283.85 1370.19,-272.69 1381.28,-263.47"/>
<polygon fill="#63b8ff" stroke="#63b8ff" points="1383.3,-266.35 1388.75,-257.27 1378.82,-260.96 1383.3,-266.35"/>
</a>
</g>
</g>
<!-- Node33 -->
<g id="Node000033" class="node">
<title>Node33</title>
<g id="a_Node000033"><a xlink:title=" ">
<polygon fill="#e0e0e0" stroke="#999999" points="1492.23,-256 1443.98,-256 1443.98,-236 1492.23,-236 1492.23,-256"/>
<text xml:space="preserve" text-anchor="middle" x="1468.11" y="-242.5" font-family="Helvetica,sans-Serif" font-size="10.00">random</text>
</a>
</g>
</g>
<!-- Node1&#45;&gt;Node33 -->
<g id="edge69_Node000001_Node000033" class="edge">
<title>Node1&#45;&gt;Node33</title>
<g id="a_edge69_Node000001_Node000033"><a xlink:title=" ">
<path fill="none" stroke="#63b8ff" d="M1359.1,-291.59C1379.89,-283.09 1410.76,-270.46 1434.35,-260.81"/>
<polygon fill="#63b8ff" stroke="#63b8ff" points="1435.6,-264.08 1443.53,-257.05 1432.95,-257.6 1435.6,-264.08"/>
</a>
</g>
</g>
<!-- Node34 -->
<g id="Node000034" class="node">
<title>Node34</title>
<g id="a_Node000034"><a xlink:title=" ">
<polygon fill="#e0e0e0" stroke="#999999" points="1550.11,-256 1510.11,-256 1510.11,-236 1550.11,-236 1550.11,-256"/>
<text xml:space="preserve" text-anchor="middle" x="1530.11" y="-242.5" font-family="Helvetica,sans-Serif" font-size="10.00">regex</text>
</a>
</g>
</g>
<!-- Node1&#45;&gt;Node34 -->
<g id="edge70_Node000001_Node000034" class="edge">
<title>Node1&#45;&gt;Node34</title>
<g id="a_edge70_Node000001_Node000034"><a xlink:title=" ">
<path fill="none" stroke="#63b8ff" d="M1372.26,-291.53C1403.47,-283.26 1450.01,-270.74 1499.03,-256.54"/>
<polygon fill="#63b8ff" stroke="#63b8ff" points="1499.78,-259.96 1508.4,-253.81 1497.82,-253.24 1499.78,-259.96"/>
</a>
</g>
</g>
<!-- Node3 -->
<g id="Node000003" class="node">
<title>Node3</title>
<g id="a_Node000003"><a xlink:href="UtilsFactory_8hpp.html" target="_top" xlink:title=" ">
<polygon fill="white" stroke="#666666" points="1180.36,-200 1069.86,-200 1069.86,-180 1180.36,-180 1180.36,-200"/>
<text xml:space="preserve" text-anchor="middle" x="1125.11" y="-186.5" font-family="Helvetica,sans-Serif" font-size="10.00">Utils/UtilsFactory.hpp</text>
</a>
</g>
</g>
<!-- Node2&#45;&gt;Node3 -->
<g id="edge2_Node000002_Node000003" class="edge">
<title>Node2&#45;&gt;Node3</title>
<g id="a_edge2_Node000002_Node000003"><a xlink:title=" ">
<path fill="none" stroke="#63b8ff" d="M1125.11,-235.59C1125.11,-229.01 1125.11,-219.96 1125.11,-211.73"/>
<polygon fill="#63b8ff" stroke="#63b8ff" points="1128.61,-211.81 1125.11,-201.81 1121.61,-211.81 1128.61,-211.81"/>
</a>
</g>
</g>
<!-- Node12 -->
<g id="Node000012" class="node">
<title>Node12</title>
<g id="a_Node000012"><a xlink:title=" ">
<polygon fill="#e0e0e0" stroke="#999999" points="1248.11,-20 1208.11,-20 1208.11,0 1248.11,0 1248.11,-20"/>
<text xml:space="preserve" text-anchor="middle" x="1228.11" y="-6.5" font-family="Helvetica,sans-Serif" font-size="10.00">string</text>
</a>
</g>
</g>
<!-- Node2&#45;&gt;Node12 -->
<g id="edge63_Node000002_Node000012" class="edge">
<title>Node2&#45;&gt;Node12</title>
<g id="a_edge63_Node000002_Node000012"><a xlink:title=" ">
<path fill="none" stroke="#63b8ff" d="M1155.28,-237.72C1158.25,-237.1 1161.23,-236.51 1164.11,-236 1323.55,-207.53 1780.06,-265.54 1887.11,-144 1927.78,-97.82 1836.63,-61.31 1824.11,-56 1720.96,-12.27 1367.8,-10.29 1259.76,-10.75"/>
<polygon fill="#63b8ff" stroke="#63b8ff" points="1259.89,-7.25 1249.91,-10.8 1259.93,-14.25 1259.89,-7.25"/>
</a>
</g>
</g>
<!-- Node14 -->
<g id="Node000014" class="node">
<title>Node14</title>
<g id="a_Node000014"><a xlink:title=" ">
<polygon fill="#e0e0e0" stroke="#999999" points="341.61,-76 298.61,-76 298.61,-56 341.61,-56 341.61,-76"/>
<text xml:space="preserve" text-anchor="middle" x="320.11" y="-62.5" font-family="Helvetica,sans-Serif" font-size="10.00">vector</text>
</a>
</g>
</g>
<!-- Node2&#45;&gt;Node14 -->
<g id="edge64_Node000002_Node000014" class="edge">
<title>Node2&#45;&gt;Node14</title>
<g id="a_edge64_Node000002_Node000014"><a xlink:title=" ">
<path fill="none" stroke="#63b8ff" d="M1094.91,-244.64C923.99,-242.31 82.66,-226.68 7.11,-144 -2.49,-133.5 -2.21,-122.75 7.11,-112 43.12,-70.44 214.47,-66.37 287.27,-66.56"/>
<polygon fill="#63b8ff" stroke="#63b8ff" points="286.93,-70.06 296.96,-66.62 286.98,-63.06 286.93,-70.06"/>
</a>
</g>
</g>
<!-- Node4 -->
<g id="Node000004" class="node">
<title>Node4</title>
<g id="a_Node000004"><a xlink:title=" ">
<polygon fill="#e0e0e0" stroke="#999999" points="1047.98,-138 920.23,-138 920.23,-118 1047.98,-118 1047.98,-138"/>
<text xml:space="preserve" text-anchor="middle" x="984.11" y="-124.5" font-family="Helvetica,sans-Serif" font-size="10.00">EmojiModuleLib/version.h</text>
</a>
</g>
</g>
<!-- Node3&#45;&gt;Node4 -->
<g id="edge3_Node000003_Node000004" class="edge">
<title>Node3&#45;&gt;Node4</title>
<g id="a_edge3_Node000003_Node000004"><a xlink:title=" ">
<path fill="none" stroke="#63b8ff" d="M1103.08,-179.62C1079.79,-169.72 1042.85,-153.99 1016.3,-142.7"/>
<polygon fill="#63b8ff" stroke="#63b8ff" points="1017.95,-139.6 1007.38,-138.9 1015.21,-146.04 1017.95,-139.6"/>
</a>
</g>
</g>
<!-- Node5 -->
<g id="Node000005" class="node">
<title>Node5</title>
<g id="a_Node000005"><a xlink:href="IAssetManager_8hpp.html" target="_top" xlink:title=" ">
<polygon fill="white" stroke="#666666" points="711.98,-138 554.23,-138 554.23,-118 711.98,-118 711.98,-138"/>
<text xml:space="preserve" text-anchor="middle" x="633.11" y="-124.5" font-family="Helvetica,sans-Serif" font-size="10.00">Utils/Assets/IAssetManager.hpp</text>
</a>
</g>
</g>
<!-- Node3&#45;&gt;Node5 -->
<g id="edge4_Node000003_Node000005" class="edge">
<title>Node3&#45;&gt;Node5</title>
<g id="a_edge4_Node000003_Node000005"><a xlink:title=" ">
<path fill="none" stroke="#63b8ff" d="M1069.43,-183.83C991.4,-176.34 845.15,-161.47 721.11,-144 713.19,-142.89 704.9,-141.61 696.7,-140.29"/>
<polygon fill="#63b8ff" stroke="#63b8ff" points="697.54,-136.88 687.11,-138.71 696.4,-143.79 697.54,-136.88"/>
</a>
</g>
</g>
<!-- Node6 -->
<g id="Node000006" class="node">
<title>Node6</title>
<g id="a_Node000006"><a xlink:title=" ">
<polygon fill="#e0e0e0" stroke="#999999" points="610.61,-76 549.61,-76 549.61,-56 610.61,-56 610.61,-76"/>
<text xml:space="preserve" text-anchor="middle" x="580.11" y="-62.5" font-family="Helvetica,sans-Serif" font-size="10.00">filesystem</text>
</a>
</g>
</g>
<!-- Node3&#45;&gt;Node6 -->
<g id="edge61_Node000003_Node000006" class="edge">
<title>Node3&#45;&gt;Node6</title>
<g id="a_edge61_Node000003_Node000006"><a xlink:title=" ">
<path fill="none" stroke="#63b8ff" d="M1069.41,-188.88C931.04,-187.99 580.26,-181.99 545.11,-144 529.23,-126.84 546.64,-101.23 562.08,-84.33"/>
<polygon fill="#63b8ff" stroke="#63b8ff" points="564.29,-87.08 568.73,-77.46 559.26,-82.21 564.29,-87.08"/>
</a>
</g>
</g>
<!-- Node7 -->
<g id="Node000007" class="node">
<title>Node7</title>
<g id="a_Node000007"><a xlink:href="IDirectoryManager_8hpp.html" target="_top" xlink:title=" ">
<polygon fill="white" stroke="#666666" points="497.61,-144 364.61,-144 364.61,-112 497.61,-112 497.61,-144"/>
<text xml:space="preserve" text-anchor="start" x="372.61" y="-130.5" font-family="Helvetica,sans-Serif" font-size="10.00">Utils/Filesystem/IDirectory</text>
<text xml:space="preserve" text-anchor="middle" x="431.11" y="-118.5" font-family="Helvetica,sans-Serif" font-size="10.00">Manager.hpp</text>
</a>
</g>
</g>
<!-- Node3&#45;&gt;Node7 -->
<g id="edge6_Node000003_Node000007" class="edge">
<title>Node3&#45;&gt;Node7</title>
<g id="a_edge6_Node000003_Node000007"><a xlink:title=" ">
<path fill="none" stroke="#63b8ff" d="M1069.54,-186.97C961.69,-182.57 716.63,-170.36 512.11,-144 511.08,-143.87 510.05,-143.73 509.02,-143.59"/>
<polygon fill="#63b8ff" stroke="#63b8ff" points="509.66,-140.15 499.26,-142.16 508.65,-147.07 509.66,-140.15"/>
</a>
</g>
</g>
<!-- Node15 -->
<g id="Node000015" class="node">
<title>Node15</title>
<g id="a_Node000015"><a xlink:href="IFileReader_8hpp.html" target="_top" xlink:title=" ">
<polygon fill="white" stroke="#666666" points="175.73,-138 16.48,-138 16.48,-118 175.73,-118 175.73,-138"/>
<text xml:space="preserve" text-anchor="middle" x="96.11" y="-124.5" font-family="Helvetica,sans-Serif" font-size="10.00">Utils/Filesystem/IFileReader.hpp</text>
</a>
</g>
</g>
<!-- Node3&#45;&gt;Node15 -->
<g id="edge15_Node000003_Node000015" class="edge">
<title>Node3&#45;&gt;Node15</title>
<g id="a_edge15_Node000003_Node000015"><a xlink:title=" ">
<path fill="none" stroke="#63b8ff" d="M1069.51,-188.69C923.77,-187.36 518.85,-180.4 184.11,-144 175.13,-143.02 165.67,-141.71 156.42,-140.27"/>
<polygon fill="#63b8ff" stroke="#63b8ff" points="157.22,-136.86 146.79,-138.71 156.1,-143.77 157.22,-136.86"/>
</a>
</g>
</g>
<!-- Node16 -->
<g id="Node000016" class="node">
<title>Node16</title>
<g id="a_Node000016"><a xlink:href="IFileWriter_8hpp.html" target="_top" xlink:title=" ">
<polygon fill="white" stroke="#666666" points="346.73,-138 193.48,-138 193.48,-118 346.73,-118 346.73,-138"/>
<text xml:space="preserve" text-anchor="middle" x="270.11" y="-124.5" font-family="Helvetica,sans-Serif" font-size="10.00">Utils/Filesystem/IFileWriter.hpp</text>
</a>
</g>
</g>
<!-- Node3&#45;&gt;Node16 -->
<g id="edge21_Node000003_Node000016" class="edge">
<title>Node3&#45;&gt;Node16</title>
<g id="a_edge21_Node000003_Node000016"><a xlink:title=" ">
<path fill="none" stroke="#63b8ff" d="M1069.83,-187.97C943.06,-185.14 621.77,-175.21 355.11,-144 346.73,-143.02 337.92,-141.74 329.28,-140.35"/>
<polygon fill="#63b8ff" stroke="#63b8ff" points="330,-136.92 319.56,-138.72 328.84,-143.83 330,-136.92"/>
</a>
</g>
</g>
<!-- Node17 -->
<g id="Node000017" class="node">
<title>Node17</title>
<g id="a_Node000017"><a xlink:href="IPathResolver_8hpp.html" target="_top" xlink:title=" ">
<polygon fill="white" stroke="#666666" points="901.73,-138 730.48,-138 730.48,-118 901.73,-118 901.73,-138"/>
<text xml:space="preserve" text-anchor="middle" x="816.11" y="-124.5" font-family="Helvetica,sans-Serif" font-size="10.00">Utils/Filesystem/IPathResolver.hpp</text>
</a>
</g>
</g>
<!-- Node3&#45;&gt;Node17 -->
<g id="edge27_Node000003_Node000017" class="edge">
<title>Node3&#45;&gt;Node17</title>
<g id="a_edge27_Node000003_Node000017"><a xlink:title=" ">
<path fill="none" stroke="#63b8ff" d="M1076.49,-179.56C1022.31,-169.04 934.67,-152.02 876.23,-140.68"/>
<polygon fill="#63b8ff" stroke="#63b8ff" points="876.92,-137.24 866.44,-138.77 875.59,-144.12 876.92,-137.24"/>
</a>
</g>
</g>
<!-- Node18 -->
<g id="Node000018" class="node">
<title>Node18</title>
<g id="a_Node000018"><a xlink:href="ICustomStringsLoader_8hpp.html" target="_top" xlink:title=" ">
<polygon fill="white" stroke="#666666" points="1498.86,-144 1367.36,-144 1367.36,-112 1498.86,-112 1498.86,-144"/>
<text xml:space="preserve" text-anchor="start" x="1375.36" y="-130.5" font-family="Helvetica,sans-Serif" font-size="10.00">Utils/Json/ICustomStrings</text>
<text xml:space="preserve" text-anchor="middle" x="1433.11" y="-118.5" font-family="Helvetica,sans-Serif" font-size="10.00">Loader.hpp</text>
</a>
</g>
</g>
<!-- Node3&#45;&gt;Node18 -->
<g id="edge32_Node000003_Node000018" class="edge">
<title>Node3&#45;&gt;Node18</title>
<g id="a_edge32_Node000003_Node000018"><a xlink:title=" ">
<path fill="none" stroke="#63b8ff" d="M1174.67,-179.53C1219.46,-170.94 1287.5,-157.85 1355.88,-144.43"/>
<polygon fill="#63b8ff" stroke="#63b8ff" points="1356.24,-147.93 1365.37,-142.57 1354.89,-141.06 1356.24,-147.93"/>
</a>
</g>
</g>
<!-- Node20 -->
<g id="Node000020" class="node">
<title>Node20</title>
<g id="a_Node000020"><a xlink:href="IJsonSerializer_8hpp.html" target="_top" xlink:title=" ">
<polygon fill="white" stroke="#666666" points="1349.36,-138 1202.86,-138 1202.86,-118 1349.36,-118 1349.36,-138"/>
<text xml:space="preserve" text-anchor="middle" x="1276.11" y="-124.5" font-family="Helvetica,sans-Serif" font-size="10.00">Utils/Json/IJsonSerializer.hpp</text>
</a>
</g>
</g>
<!-- Node3&#45;&gt;Node20 -->
<g id="edge37_Node000003_Node000020" class="edge">
<title>Node3&#45;&gt;Node20</title>
<g id="a_edge37_Node000003_Node000020"><a xlink:title=" ">
<path fill="none" stroke="#63b8ff" d="M1148.7,-179.62C1173.74,-169.67 1213.56,-153.85 1242.01,-142.55"/>
<polygon fill="#63b8ff" stroke="#63b8ff" points="1243.27,-145.81 1251.27,-138.87 1240.69,-139.31 1243.27,-145.81"/>
</a>
</g>
</g>
<!-- Node21 -->
<g id="Node000021" class="node">
<title>Node21</title>
<g id="a_Node000021"><a xlink:href="ILogger_8hpp.html" target="_top" xlink:title=" ">
<polygon fill="white" stroke="#666666" points="1815.36,-76 1692.86,-76 1692.86,-56 1815.36,-56 1815.36,-76"/>
<text xml:space="preserve" text-anchor="middle" x="1754.11" y="-62.5" font-family="Helvetica,sans-Serif" font-size="10.00">Utils/Logger/ILogger.hpp</text>
</a>
</g>
</g>
<!-- Node3&#45;&gt;Node21 -->
<g id="edge42_Node000003_Node000021" class="edge">
<title>Node3&#45;&gt;Node21</title>
<g id="a_edge42_Node000003_Node000021"><a xlink:title=" ">
<path fill="none" stroke="#63b8ff" d="M1180.58,-187.71C1349.35,-183.51 1846.53,-169.05 1870.11,-144 1879.86,-133.64 1878.14,-123.74 1870.11,-112 1859.75,-96.87 1843.51,-86.83 1826.42,-80.16"/>
<polygon fill="#63b8ff" stroke="#63b8ff" points="1827.74,-76.91 1817.15,-76.93 1825.44,-83.52 1827.74,-76.91"/>
</a>
</g>
</g>
<!-- Node23 -->
<g id="Node000023" class="node">
<title>Node23</title>
<g id="a_Node000023"><a xlink:title=" ">
<polygon fill="#e0e0e0" stroke="#999999" points="1971.73,-20 1920.48,-20 1920.48,0 1971.73,0 1971.73,-20"/>
<text xml:space="preserve" text-anchor="middle" x="1946.11" y="-6.5" font-family="Helvetica,sans-Serif" font-size="10.00">memory</text>
</a>
</g>
</g>
<!-- Node3&#45;&gt;Node23 -->
<g id="edge62_Node000003_Node000023" class="edge">
<title>Node3&#45;&gt;Node23</title>
<g id="a_edge62_Node000003_Node000023"><a xlink:title=" ">
<path fill="none" stroke="#63b8ff" d="M1180.66,-189.01C1346.41,-188.6 1829.49,-183.94 1887.11,-144 1924.71,-117.94 1938.64,-62.18 1943.57,-31.79"/>
<polygon fill="#63b8ff" stroke="#63b8ff" points="1947.02,-32.37 1944.96,-21.98 1940.09,-31.39 1947.02,-32.37"/>
</a>
</g>
</g>
<!-- Node25 -->
<g id="Node000025" class="node">
<title>Node25</title>
<g id="a_Node000025"><a xlink:href="LoggerFactory_8hpp.html" target="_top" xlink:title=" ">
<polygon fill="white" stroke="#666666" points="1860.98,-138 1709.23,-138 1709.23,-118 1860.98,-118 1860.98,-138"/>
<text xml:space="preserve" text-anchor="middle" x="1785.11" y="-124.5" font-family="Helvetica,sans-Serif" font-size="10.00">Utils/Logger/LoggerFactory.hpp</text>
</a>
</g>
</g>
<!-- Node3&#45;&gt;Node25 -->
<g id="edge48_Node000003_Node000025" class="edge">
<title>Node3&#45;&gt;Node25</title>
<g id="a_edge48_Node000003_Node000025"><a xlink:title=" ">
<path fill="none" stroke="#63b8ff" d="M1180.8,-186.43C1283.69,-181.29 1510.38,-168.11 1700.11,-144 1708.18,-142.97 1716.66,-141.71 1725,-140.35"/>
<polygon fill="#63b8ff" stroke="#63b8ff" points="1725.47,-143.82 1734.74,-138.71 1724.3,-136.92 1725.47,-143.82"/>
</a>
</g>
</g>
<!-- Node26 -->
<g id="Node000026" class="node">
<title>Node26</title>
<g id="a_Node000026"><a xlink:href="NullLogger_8hpp.html" target="_top" xlink:title=" ">
<polygon fill="white" stroke="#666666" points="1691.48,-138 1554.73,-138 1554.73,-118 1691.48,-118 1691.48,-138"/>
<text xml:space="preserve" text-anchor="middle" x="1623.11" y="-124.5" font-family="Helvetica,sans-Serif" font-size="10.00">Utils/Logger/NullLogger.hpp</text>
</a>
</g>
</g>
<!-- Node3&#45;&gt;Node26 -->
<g id="edge52_Node000003_Node000026" class="edge">
<title>Node3&#45;&gt;Node26</title>
<g id="a_edge52_Node000003_Node000026"><a xlink:title=" ">
<path fill="none" stroke="#63b8ff" d="M1180.78,-184.28C1260.74,-177.21 1412.61,-162.68 1541.11,-144 1548.34,-142.95 1555.9,-141.73 1563.39,-140.45"/>
<polygon fill="#63b8ff" stroke="#63b8ff" points="1563.91,-143.91 1573.15,-138.73 1562.7,-137.02 1563.91,-143.91"/>
</a>
</g>
</g>
<!-- Node27 -->
<g id="Node000027" class="node">
<title>Node27</title>
<g id="a_Node000027"><a xlink:href="IPlatformInfo_8hpp.html" target="_top" xlink:title=" ">
<polygon fill="white" stroke="#666666" points="1184.48,-144 1065.73,-144 1065.73,-112 1184.48,-112 1184.48,-144"/>
<text xml:space="preserve" text-anchor="start" x="1073.73" y="-130.5" font-family="Helvetica,sans-Serif" font-size="10.00">Utils/Platform/IPlatform</text>
<text xml:space="preserve" text-anchor="middle" x="1125.11" y="-118.5" font-family="Helvetica,sans-Serif" font-size="10.00">Info.hpp</text>
</a>
</g>
</g>
<!-- Node3&#45;&gt;Node27 -->
<g id="edge54_Node000003_Node000027" class="edge">
<title>Node3&#45;&gt;Node27</title>
<g id="a_edge54_Node000003_Node000027"><a xlink:title=" ">
<path fill="none" stroke="#63b8ff" d="M1125.11,-179.62C1125.11,-173.1 1125.11,-164.05 1125.11,-155.4"/>
<polygon fill="#63b8ff" stroke="#63b8ff" points="1128.61,-155.65 1125.11,-145.65 1121.61,-155.65 1128.61,-155.65"/>
</a>
</g>
</g>
<!-- Node28 -->
<g id="Node000028" class="node">
<title>Node28</title>
<g id="a_Node000028"><a xlink:href="IStringFormatter_8hpp.html" target="_top" xlink:title=" ">
<polygon fill="white" stroke="#666666" points="1605.61,-76 1448.61,-76 1448.61,-56 1605.61,-56 1605.61,-76"/>
<text xml:space="preserve" text-anchor="middle" x="1527.11" y="-62.5" font-family="Helvetica,sans-Serif" font-size="10.00">Utils/String/IStringFormatter.hpp</text>
</a>
</g>
</g>
<!-- Node3&#45;&gt;Node28 -->
<g id="edge59_Node000003_Node000028" class="edge">
<title>Node3&#45;&gt;Node28</title>
<g id="a_edge59_Node000003_Node000028"><a xlink:title=" ">
<path fill="none" stroke="#63b8ff" d="M1180.7,-189.97C1275.01,-190.42 1460.73,-185.8 1508.11,-144 1523.89,-130.07 1527.6,-105.32 1528.03,-87.63"/>
<polygon fill="#63b8ff" stroke="#63b8ff" points="1531.53,-87.73 1527.9,-77.78 1524.53,-87.82 1531.53,-87.73"/>
</a>
</g>
</g>
<!-- Node5&#45;&gt;Node6 -->
<g id="edge5_Node000005_Node000006" class="edge">
<title>Node5&#45;&gt;Node6</title>
<g id="a_edge5_Node000005_Node000006"><a xlink:title=" ">
<path fill="none" stroke="#63b8ff" d="M624.83,-117.62C617,-108.77 605.07,-95.26 595.5,-84.43"/>
<polygon fill="#63b8ff" stroke="#63b8ff" points="598.4,-82.42 589.16,-77.25 593.16,-87.06 598.4,-82.42"/>
</a>
</g>
</g>
<!-- Node7&#45;&gt;Node6 -->
<g id="edge13_Node000007_Node000006" class="edge">
<title>Node7&#45;&gt;Node6</title>
<g id="a_edge13_Node000007_Node000006"><a xlink:title=" ">
<path fill="none" stroke="#63b8ff" d="M469.48,-111.55C493.19,-102 523.35,-89.86 546.18,-80.66"/>
<polygon fill="#63b8ff" stroke="#63b8ff" points="547.37,-83.96 555.34,-76.97 544.76,-77.46 547.37,-83.96"/>
</a>
</g>
</g>
<!-- Node8 -->
<g id="Node000008" class="node">
<title>Node8</title>
<g id="a_Node000008"><a xlink:href="UtilsError_8hpp.html" target="_top" xlink:title=" ">
<polygon fill="white" stroke="#666666" points="1058.73,-76 959.48,-76 959.48,-56 1058.73,-56 1058.73,-76"/>
<text xml:space="preserve" text-anchor="middle" x="1009.11" y="-62.5" font-family="Helvetica,sans-Serif" font-size="10.00">Utils/UtilsError.hpp</text>
</a>
</g>
</g>
<!-- Node7&#45;&gt;Node8 -->
<g id="edge7_Node000007_Node000008" class="edge">
<title>Node7&#45;&gt;Node8</title>
<g id="a_edge7_Node000007_Node000008"><a xlink:title=" ">
<path fill="none" stroke="#63b8ff" d="M497.97,-117.81C513.44,-115.8 529.84,-113.74 545.11,-112 689.35,-95.52 859.28,-80.04 948.07,-72.25"/>
<polygon fill="#63b8ff" stroke="#63b8ff" points="948.1,-75.76 957.76,-71.4 947.49,-68.79 948.1,-75.76"/>
</a>
</g>
</g>
<!-- Node7&#45;&gt;Node14 -->
<g id="edge14_Node000007_Node000014" class="edge">
<title>Node7&#45;&gt;Node14</title>
<g id="a_edge14_Node000007_Node000014"><a xlink:title=" ">
<path fill="none" stroke="#63b8ff" d="M402.52,-111.55C385.5,-102.35 364.02,-90.74 347.26,-81.68"/>
<polygon fill="#63b8ff" stroke="#63b8ff" points="349.31,-78.8 338.84,-77.13 345.98,-84.96 349.31,-78.8"/>
</a>
</g>
</g>
<!-- Node9 -->
<g id="Node000009" class="node">
<title>Node9</title>
<g id="a_Node000009"><a xlink:title=" ">
<polygon fill="#e0e0e0" stroke="#999999" points="1031.73,-20 986.48,-20 986.48,0 1031.73,0 1031.73,-20"/>
<text xml:space="preserve" text-anchor="middle" x="1009.11" y="-6.5" font-family="Helvetica,sans-Serif" font-size="10.00">cstdint</text>
</a>
</g>
</g>
<!-- Node8&#45;&gt;Node9 -->
<g id="edge8_Node000008_Node000009" class="edge">
<title>Node8&#45;&gt;Node9</title>
<g id="a_edge8_Node000008_Node000009"><a xlink:title=" ">
<path fill="none" stroke="#63b8ff" d="M1009.11,-55.59C1009.11,-49.01 1009.11,-39.96 1009.11,-31.73"/>
<polygon fill="#63b8ff" stroke="#63b8ff" points="1012.61,-31.81 1009.11,-21.81 1005.61,-31.81 1012.61,-31.81"/>
</a>
</g>
</g>
<!-- Node10 -->
<g id="Node000010" class="node">
<title>Node10</title>
<g id="a_Node000010"><a xlink:title=" ">
<polygon fill="#e0e0e0" stroke="#999999" points="1182.98,-20 1133.23,-20 1133.23,0 1182.98,0 1182.98,-20"/>
<text xml:space="preserve" text-anchor="middle" x="1158.11" y="-6.5" font-family="Helvetica,sans-Serif" font-size="10.00">optional</text>
</a>
</g>
</g>
<!-- Node8&#45;&gt;Node10 -->
<g id="edge9_Node000008_Node000010" class="edge">
<title>Node8&#45;&gt;Node10</title>
<g id="a_edge9_Node000008_Node000010"><a xlink:title=" ">
<path fill="none" stroke="#63b8ff" d="M1035.06,-55.59C1059.24,-46.83 1095.51,-33.68 1122.42,-23.93"/>
<polygon fill="#63b8ff" stroke="#63b8ff" points="1123.32,-27.33 1131.52,-20.63 1120.93,-20.75 1123.32,-27.33"/>
</a>
</g>
</g>
<!-- Node11 -->
<g id="Node000011" class="node">
<title>Node11</title>
<g id="a_Node000011"><a xlink:title=" ">
<polygon fill="#e0e0e0" stroke="#999999" points="1108.48,-20 1049.73,-20 1049.73,0 1108.48,0 1108.48,-20"/>
<text xml:space="preserve" text-anchor="middle" x="1079.11" y="-6.5" font-family="Helvetica,sans-Serif" font-size="10.00">stdexcept</text>
</a>
</g>
</g>
<!-- Node8&#45;&gt;Node11 -->
<g id="edge10_Node000008_Node000011" class="edge">
<title>Node8&#45;&gt;Node11</title>
<g id="a_edge10_Node000008_Node000011"><a xlink:title=" ">
<path fill="none" stroke="#63b8ff" d="M1021.3,-55.59C1031.44,-47.77 1046.1,-36.46 1058.12,-27.19"/>
<polygon fill="#63b8ff" stroke="#63b8ff" points="1060.08,-30.1 1065.86,-21.22 1055.8,-24.56 1060.08,-30.1"/>
</a>
</g>
</g>
<!-- Node8&#45;&gt;Node12 -->
<g id="edge11_Node000008_Node000012" class="edge">
<title>Node8&#45;&gt;Node12</title>
<g id="a_edge11_Node000008_Node000012"><a xlink:title=" ">
<path fill="none" stroke="#63b8ff" d="M1047.68,-55.56C1084.72,-46.49 1142.25,-32.36 1192.11,-20 1193.71,-19.6 1195.35,-19.19 1197.01,-18.78"/>
<polygon fill="#63b8ff" stroke="#63b8ff" points="1197.6,-22.24 1206.46,-16.43 1195.91,-15.45 1197.6,-22.24"/>
</a>
</g>
</g>
<!-- Node13 -->
<g id="Node000013" class="node">
<title>Node13</title>
<g id="a_Node000013"><a xlink:title=" ">
<polygon fill="#e0e0e0" stroke="#999999" points="968.73,-20 923.48,-20 923.48,0 968.73,0 968.73,-20"/>
<text xml:space="preserve" text-anchor="middle" x="946.11" y="-6.5" font-family="Helvetica,sans-Serif" font-size="10.00">variant</text>
</a>
</g>
</g>
<!-- Node8&#45;&gt;Node13 -->
<g id="edge12_Node000008_Node000013" class="edge">
<title>Node8&#45;&gt;Node13</title>
<g id="a_edge12_Node000008_Node000013"><a xlink:title=" ">
<path fill="none" stroke="#63b8ff" d="M998.13,-55.59C989.19,-47.93 976.34,-36.91 965.64,-27.75"/>
<polygon fill="#63b8ff" stroke="#63b8ff" points="967.98,-25.13 958.1,-21.28 963.42,-30.45 967.98,-25.13"/>
</a>
</g>
</g>
<!-- Node15&#45;&gt;Node6 -->
<g id="edge18_Node000015_Node000006" class="edge">
<title>Node15&#45;&gt;Node6</title>
<g id="a_edge18_Node000015_Node000006"><a xlink:title=" ">
<path fill="none" stroke="#63b8ff" d="M148.62,-117.56C160.28,-115.6 172.6,-113.63 184.11,-112 312.6,-93.76 465.37,-78.09 537.88,-71.02"/>
<polygon fill="#63b8ff" stroke="#63b8ff" points="538.1,-74.51 547.72,-70.06 537.43,-67.55 538.1,-74.51"/>
</a>
</g>
</g>
<!-- Node15&#45;&gt;Node8 -->
<g id="edge16_Node000015_Node000008" class="edge">
<title>Node15&#45;&gt;Node8</title>
<g id="a_edge16_Node000015_Node000008"><a xlink:title=" ">
<path fill="none" stroke="#63b8ff" d="M145.76,-117.52C158.24,-115.41 171.63,-113.4 184.11,-112 468.4,-80.12 810.45,-70.6 947.72,-67.95"/>
<polygon fill="#63b8ff" stroke="#63b8ff" points="947.74,-71.45 957.68,-67.76 947.61,-64.45 947.74,-71.45"/>
</a>
</g>
</g>
<!-- Node15&#45;&gt;Node9 -->
<g id="edge17_Node000015_Node000009" class="edge">
<title>Node15&#45;&gt;Node9</title>
<g id="a_edge17_Node000015_Node000009"><a xlink:title=" ">
<path fill="none" stroke="#63b8ff" d="M105.03,-117.65C121.07,-101.56 156.63,-69.11 194.11,-56 355.44,0.42 788.25,-46.55 975.09,-20.02"/>
<polygon fill="#63b8ff" stroke="#63b8ff" points="975.38,-23.51 984.73,-18.53 974.31,-16.6 975.38,-23.51"/>
</a>
</g>
</g>
<!-- Node15&#45;&gt;Node12 -->
<g id="edge19_Node000015_Node000012" class="edge">
<title>Node15&#45;&gt;Node12</title>
<g id="a_edge19_Node000015_Node000012"><a xlink:title=" ">
<path fill="none" stroke="#63b8ff" d="M115.52,-117.53C149.66,-101.41 223.1,-69.12 289.11,-56 683.06,22.29 794.52,-77.01 1192.11,-20 1193.54,-19.79 1195,-19.56 1196.47,-19.29"/>
<polygon fill="#63b8ff" stroke="#63b8ff" points="1197.17,-22.72 1206.21,-17.19 1195.7,-15.88 1197.17,-22.72"/>
</a>
</g>
</g>
<!-- Node15&#45;&gt;Node14 -->
<g id="edge20_Node000015_Node000014" class="edge">
<title>Node15&#45;&gt;Node14</title>
<g id="a_edge20_Node000015_Node000014"><a xlink:title=" ">
<path fill="none" stroke="#63b8ff" d="M131.11,-117.62C173.85,-106.18 245.58,-86.96 287.3,-75.79"/>
<polygon fill="#63b8ff" stroke="#63b8ff" points="288.01,-79.22 296.76,-73.25 286.19,-72.46 288.01,-79.22"/>
</a>
</g>
</g>
<!-- Node16&#45;&gt;Node6 -->
<g id="edge24_Node000016_Node000006" class="edge">
<title>Node16&#45;&gt;Node6</title>
<g id="a_edge24_Node000016_Node000006"><a xlink:title=" ">
<path fill="none" stroke="#63b8ff" d="M318.89,-117.56C379.34,-105.86 481.34,-86.12 538.35,-75.08"/>
<polygon fill="#63b8ff" stroke="#63b8ff" points="538.83,-78.55 547.98,-73.22 537.5,-71.68 538.83,-78.55"/>
</a>
</g>
</g>
<!-- Node16&#45;&gt;Node8 -->
<g id="edge22_Node000016_Node000008" class="edge">
<title>Node16&#45;&gt;Node8</title>
<g id="a_edge22_Node000016_Node000008"><a xlink:title=" ">
<path fill="none" stroke="#63b8ff" d="M318.52,-117.54C330.45,-115.47 343.21,-113.46 355.11,-112 572.18,-85.45 831.84,-73.41 947.86,-69.05"/>
<polygon fill="#63b8ff" stroke="#63b8ff" points="947.92,-72.55 957.79,-68.68 947.67,-65.55 947.92,-72.55"/>
</a>
</g>
</g>
<!-- Node16&#45;&gt;Node9 -->
<g id="edge23_Node000016_Node000009" class="edge">
<title>Node16&#45;&gt;Node9</title>
<g id="a_edge23_Node000016_Node000009"><a xlink:title=" ">
<path fill="none" stroke="#63b8ff" d="M269.46,-117.58C268.97,-101.98 270.57,-71.02 289.11,-56 346.47,-9.54 862.09,-31.02 975.01,-19.74"/>
<polygon fill="#63b8ff" stroke="#63b8ff" points="975.25,-23.24 984.72,-18.48 974.35,-16.29 975.25,-23.24"/>
</a>
</g>
</g>
<!-- Node16&#45;&gt;Node12 -->
<g id="edge25_Node000016_Node000012" class="edge">
<title>Node16&#45;&gt;Node12</title>
<g id="a_edge25_Node000016_Node000012"><a xlink:title=" ">
<path fill="none" stroke="#63b8ff" d="M298.47,-117.51C347.23,-101.65 450.33,-70.13 540.11,-56 826.8,-10.87 905.15,-63.39 1192.11,-20 1193.54,-19.78 1195,-19.54 1196.47,-19.26"/>
<polygon fill="#63b8ff" stroke="#63b8ff" points="1197.18,-22.69 1206.2,-17.14 1195.69,-15.85 1197.18,-22.69"/>
</a>
</g>
</g>
<!-- Node16&#45;&gt;Node14 -->
<g id="edge26_Node000016_Node000014" class="edge">
<title>Node16&#45;&gt;Node14</title>
<g id="a_edge26_Node000016_Node000014"><a xlink:title=" ">
<path fill="none" stroke="#63b8ff" d="M277.92,-117.62C285.23,-108.86 296.33,-95.53 305.32,-84.75"/>
<polygon fill="#63b8ff" stroke="#63b8ff" points="307.83,-87.2 311.54,-77.28 302.45,-82.72 307.83,-87.2"/>
</a>
</g>
</g>
<!-- Node17&#45;&gt;Node6 -->
<g id="edge29_Node000017_Node000006" class="edge">
<title>Node17&#45;&gt;Node6</title>
<g id="a_edge29_Node000017_Node000006"><a xlink:title=" ">
<path fill="none" stroke="#63b8ff" d="M778.97,-117.56C736.34,-106.72 666.58,-88.98 622.03,-77.66"/>
<polygon fill="#63b8ff" stroke="#63b8ff" points="623.03,-74.3 612.48,-75.23 621.3,-81.09 623.03,-74.3"/>
</a>
</g>
</g>
<!-- Node17&#45;&gt;Node8 -->
<g id="edge28_Node000017_Node000008" class="edge">
<title>Node17&#45;&gt;Node8</title>
<g id="a_edge28_Node000017_Node000008"><a xlink:title=" ">
<path fill="none" stroke="#63b8ff" d="M846.26,-117.62C879.03,-107.44 931.56,-91.11 968.07,-79.76"/>
<polygon fill="#63b8ff" stroke="#63b8ff" points="968.89,-83.17 977.4,-76.86 966.81,-76.48 968.89,-83.17"/>
</a>
</g>
</g>
<!-- Node17&#45;&gt;Node12 -->
<g id="edge30_Node000017_Node000012" class="edge">
<title>Node17&#45;&gt;Node12</title>
<g id="a_edge30_Node000017_Node000012"><a xlink:title=" ">
<path fill="none" stroke="#63b8ff" d="M868.92,-117.51C931.4,-106.07 1031.57,-87.01 1068.11,-76 1114.59,-61.99 1166.27,-39.7 1197.99,-25.21"/>
<polygon fill="#63b8ff" stroke="#63b8ff" points="1199.35,-28.44 1206.96,-21.07 1196.41,-22.08 1199.35,-28.44"/>
</a>
</g>
</g>
<!-- Node17&#45;&gt;Node14 -->
<g id="edge31_Node000017_Node000014" class="edge">
<title>Node17&#45;&gt;Node14</title>
<g id="a_edge31_Node000017_Node000014"><a xlink:title=" ">
<path fill="none" stroke="#63b8ff" d="M758.65,-117.5C746.28,-115.58 733.27,-113.64 721.11,-112 584.88,-93.61 421.9,-76.97 353.21,-70.21"/>
<polygon fill="#63b8ff" stroke="#63b8ff" points="353.68,-66.74 343.39,-69.24 353,-73.7 353.68,-66.74"/>
</a>
</g>
</g>
<!-- Node18&#45;&gt;Node8 -->
<g id="edge33_Node000018_Node000008" class="edge">
<title>Node18&#45;&gt;Node8</title>
<g id="a_edge33_Node000018_Node000008"><a xlink:title=" ">
<path fill="none" stroke="#63b8ff" d="M1366.9,-113.5C1363.93,-112.98 1360.99,-112.47 1358.11,-112 1257.6,-95.49 1139.99,-81.4 1070.17,-73.58"/>
<polygon fill="#63b8ff" stroke="#63b8ff" points="1070.8,-70.13 1060.47,-72.5 1070.02,-77.08 1070.8,-70.13"/>
</a>
</g>
</g>
<!-- Node18&#45;&gt;Node10 -->
<g id="edge35_Node000018_Node000010" class="edge">
<title>Node18&#45;&gt;Node10</title>
<g id="a_edge35_Node000018_Node000010"><a xlink:title=" ">
<path fill="none" stroke="#63b8ff" d="M1422.34,-111.7C1409.96,-95.31 1388.11,-69.8 1363.11,-56 1363.11,-56 1253.14,-31.86 1194.29,-18.94"/>
<polygon fill="#63b8ff" stroke="#63b8ff" points="1195.24,-15.57 1184.72,-16.84 1193.74,-22.41 1195.24,-15.57"/>
</a>
</g>
</g>
<!-- Node18&#45;&gt;Node12 -->
<g id="edge36_Node000018_Node000012" class="edge">
<title>Node18&#45;&gt;Node12</title>
<g id="a_edge36_Node000018_Node000012"><a xlink:title=" ">
<path fill="none" stroke="#63b8ff" d="M1429.1,-111.61C1424.07,-95.39 1413.89,-70.26 1396.11,-56 1356.54,-24.26 1296.55,-14.8 1259.98,-12.04"/>
<polygon fill="#63b8ff" stroke="#63b8ff" points="1260.25,-8.55 1250.05,-11.44 1259.82,-15.54 1260.25,-8.55"/>
</a>
</g>
</g>
<!-- Node19 -->
<g id="Node000019" class="node">
<title>Node19</title>
<g id="a_Node000019"><a xlink:title=" ">
<polygon fill="#e0e0e0" stroke="#999999" points="1353.98,-76 1256.23,-76 1256.23,-56 1353.98,-56 1353.98,-76"/>
<text xml:space="preserve" text-anchor="middle" x="1305.11" y="-62.5" font-family="Helvetica,sans-Serif" font-size="10.00">nlohmann/json.hpp</text>
</a>
</g>
</g>
<!-- Node18&#45;&gt;Node19 -->
<g id="edge34_Node000018_Node000019" class="edge">
<title>Node18&#45;&gt;Node19</title>
<g id="a_edge34_Node000018_Node000019"><a xlink:title=" ">
<path fill="none" stroke="#63b8ff" d="M1400.14,-111.55C1380.24,-102.22 1355.04,-90.41 1335.6,-81.29"/>
<polygon fill="#63b8ff" stroke="#63b8ff" points="1337.09,-78.13 1326.55,-77.05 1334.12,-84.46 1337.09,-78.13"/>
</a>
</g>
</g>
<!-- Node20&#45;&gt;Node6 -->
<g id="edge39_Node000020_Node000006" class="edge">
<title>Node20&#45;&gt;Node6</title>
<g id="a_edge39_Node000020_Node000006"><a xlink:title=" ">
<path fill="none" stroke="#63b8ff" d="M1228.84,-117.57C1217.19,-115.49 1204.73,-113.47 1193.11,-112 979.48,-84.93 721.75,-72.58 622.18,-68.56"/>
<polygon fill="#63b8ff" stroke="#63b8ff" points="622.48,-65.07 612.35,-68.17 622.2,-72.06 622.48,-65.07"/>
</a>
</g>
</g>
<!-- Node20&#45;&gt;Node8 -->
<g id="edge38_Node000020_Node000008" class="edge">
<title>Node20&#45;&gt;Node8</title>
<g id="a_edge38_Node000020_Node000008"><a xlink:title=" ">
<path fill="none" stroke="#63b8ff" d="M1234.1,-117.56C1187.67,-107.13 1112.82,-90.31 1062.33,-78.96"/>
<polygon fill="#63b8ff" stroke="#63b8ff" points="1063.32,-75.59 1052.79,-76.82 1061.78,-82.42 1063.32,-75.59"/>
</a>
</g>
</g>
<!-- Node20&#45;&gt;Node12 -->
<g id="edge41_Node000020_Node000012" class="edge">
<title>Node20&#45;&gt;Node12</title>
<g id="a_edge41_Node000020_Node000012"><a xlink:title=" ">
<path fill="none" stroke="#63b8ff" d="M1269.85,-117.57C1263.45,-107.58 1253.54,-91.19 1247.11,-76 1240.99,-61.56 1236.09,-44.52 1232.8,-31.52"/>
<polygon fill="#63b8ff" stroke="#63b8ff" points="1236.24,-30.87 1230.5,-21.97 1229.44,-32.51 1236.24,-30.87"/>
</a>
</g>
</g>
<!-- Node20&#45;&gt;Node19 -->
<g id="edge40_Node000020_Node000019" class="edge">
<title>Node20&#45;&gt;Node19</title>
<g id="a_edge40_Node000020_Node000019"><a xlink:title=" ">
<path fill="none" stroke="#63b8ff" d="M1280.64,-117.62C1284.66,-109.3 1290.67,-96.86 1295.73,-86.4"/>
<polygon fill="#63b8ff" stroke="#63b8ff" points="1298.84,-88 1300.04,-77.48 1292.54,-84.96 1298.84,-88"/>
</a>
</g>
</g>
<!-- Node21&#45;&gt;Node9 -->
<g id="edge44_Node000021_Node000009" class="edge">
<title>Node21&#45;&gt;Node9</title>
<g id="a_edge44_Node000021_Node000009"><a xlink:title=" ">
<path fill="none" stroke="#63b8ff" d="M1692.53,-60.99C1668.38,-59.42 1640.45,-57.62 1615.11,-56 1363.75,-39.98 1295.1,-62.17 1043.4,-20"/>
<polygon fill="#63b8ff" stroke="#63b8ff" points="1043.98,-16.55 1033.54,-18.33 1042.81,-23.45 1043.98,-16.55"/>
</a>
</g>
</g>
<!-- Node21&#45;&gt;Node12 -->
<g id="edge47_Node000021_Node000012" class="edge">
<title>Node21&#45;&gt;Node12</title>
<g id="a_edge47_Node000021_Node000012"><a xlink:title=" ">
<path fill="none" stroke="#63b8ff" d="M1692.48,-58.67C1579.89,-47.11 1344.7,-22.97 1259.65,-14.24"/>
<polygon fill="#63b8ff" stroke="#63b8ff" points="1260.26,-10.78 1249.96,-13.24 1259.55,-17.75 1260.26,-10.78"/>
</a>
</g>
</g>
<!-- Node22 -->
<g id="Node000022" class="node">
<title>Node22</title>
<g id="a_Node000022"><a xlink:title=" ">
<polygon fill="#e0e0e0" stroke="#999999" points="1747.23,-20 1686.98,-20 1686.98,0 1747.23,0 1747.23,-20"/>
<text xml:space="preserve" text-anchor="middle" x="1717.11" y="-6.5" font-family="Helvetica,sans-Serif" font-size="10.00">fmt/core.h</text>
</a>
</g>
</g>
<!-- Node21&#45;&gt;Node22 -->
<g id="edge43_Node000021_Node000022" class="edge">
<title>Node21&#45;&gt;Node22</title>
<g id="a_edge43_Node000021_Node000022"><a xlink:title=" ">
<path fill="none" stroke="#63b8ff" d="M1747.66,-55.59C1742.78,-48.47 1735.92,-38.45 1729.93,-29.72"/>
<polygon fill="#63b8ff" stroke="#63b8ff" points="1732.87,-27.82 1724.33,-21.55 1727.1,-31.77 1732.87,-27.82"/>
</a>
</g>
</g>
<!-- Node21&#45;&gt;Node23 -->
<g id="edge45_Node000021_Node000023" class="edge">
<title>Node21&#45;&gt;Node23</title>
<g id="a_edge45_Node000021_Node000023"><a xlink:title=" ">
<path fill="none" stroke="#63b8ff" d="M1787.55,-55.59C1821.58,-46.02 1874.18,-31.23 1909.36,-21.34"/>
<polygon fill="#63b8ff" stroke="#63b8ff" points="1909.98,-24.8 1918.66,-18.72 1908.09,-18.06 1909.98,-24.8"/>
</a>
</g>
</g>
<!-- Node24 -->
<g id="Node000024" class="node">
<title>Node24</title>
<g id="a_Node000024"><a xlink:title=" ">
<polygon fill="#e0e0e0" stroke="#999999" points="1816.73,-20 1765.48,-20 1765.48,0 1816.73,0 1816.73,-20"/>
<text xml:space="preserve" text-anchor="middle" x="1791.11" y="-6.5" font-family="Helvetica,sans-Serif" font-size="10.00">sstream</text>
</a>
</g>
</g>
<!-- Node21&#45;&gt;Node24 -->
<g id="edge46_Node000021_Node000024" class="edge">
<title>Node21&#45;&gt;Node24</title>
<g id="a_edge46_Node000021_Node000024"><a xlink:title=" ">
<path fill="none" stroke="#63b8ff" d="M1760.55,-55.59C1765.43,-48.47 1772.3,-38.45 1778.28,-29.72"/>
<polygon fill="#63b8ff" stroke="#63b8ff" points="1781.12,-31.77 1783.88,-21.55 1775.34,-27.82 1781.12,-31.77"/>
</a>
</g>
</g>
<!-- Node25&#45;&gt;Node12 -->
<g id="edge51_Node000025_Node000012" class="edge">
<title>Node25&#45;&gt;Node12</title>
<g id="a_edge51_Node000025_Node000012"><a xlink:title=" ">
<path fill="none" stroke="#63b8ff" d="M1767.33,-117.6C1737.01,-102.04 1672.97,-71.13 1615.11,-56 1486.04,-22.26 1326.15,-13.8 1259.53,-11.69"/>
<polygon fill="#63b8ff" stroke="#63b8ff" points="1259.81,-8.2 1249.72,-11.41 1259.61,-15.2 1259.81,-8.2"/>
</a>
</g>
</g>
<!-- Node25&#45;&gt;Node21 -->
<g id="edge49_Node000025_Node000021" class="edge">
<title>Node25&#45;&gt;Node21</title>
<g id="a_edge49_Node000025_Node000021"><a xlink:title=" ">
<path fill="none" stroke="#63b8ff" d="M1780.26,-117.62C1775.92,-109.21 1769.4,-96.6 1763.96,-86.07"/>
<polygon fill="#63b8ff" stroke="#63b8ff" points="1767.21,-84.74 1759.51,-77.46 1760.99,-87.95 1767.21,-84.74"/>
</a>
</g>
</g>
<!-- Node25&#45;&gt;Node23 -->
<g id="edge50_Node000025_Node000023" class="edge">
<title>Node25&#45;&gt;Node23</title>
<g id="a_edge50_Node000025_Node000023"><a xlink:title=" ">
<path fill="none" stroke="#63b8ff" d="M1798.28,-117.51C1825.9,-97.61 1890.09,-51.36 1924.08,-26.87"/>
<polygon fill="#63b8ff" stroke="#63b8ff" points="1925.9,-29.87 1931.97,-21.18 1921.81,-24.19 1925.9,-29.87"/>
</a>
</g>
</g>
<!-- Node26&#45;&gt;Node21 -->
<g id="edge53_Node000026_Node000021" class="edge">
<title>Node26&#45;&gt;Node21</title>
<g id="a_edge53_Node000026_Node000021"><a xlink:title=" ">
<path fill="none" stroke="#63b8ff" d="M1643.58,-117.62C1665.01,-107.81 1698.93,-92.27 1723.54,-81"/>
<polygon fill="#63b8ff" stroke="#63b8ff" points="1724.77,-84.29 1732.41,-76.94 1721.86,-77.92 1724.77,-84.29"/>
</a>
</g>
</g>
<!-- Node27&#45;&gt;Node6 -->
<g id="edge57_Node000027_Node000006" class="edge">
<title>Node27&#45;&gt;Node6</title>
<g id="a_edge57_Node000027_Node000006"><a xlink:title=" ">
<path fill="none" stroke="#63b8ff" d="M1065.48,-113.41C1062.66,-112.91 1059.85,-112.43 1057.11,-112 897.56,-86.97 705.64,-74.02 622.23,-69.23"/>
<polygon fill="#63b8ff" stroke="#63b8ff" points="622.66,-65.75 612.47,-68.68 622.26,-72.74 622.66,-65.75"/>
</a>
</g>
</g>
<!-- Node27&#45;&gt;Node8 -->
<g id="edge55_Node000027_Node000008" class="edge">
<title>Node27&#45;&gt;Node8</title>
<g id="a_edge55_Node000027_Node000008"><a xlink:title=" ">
<path fill="none" stroke="#63b8ff" d="M1095.23,-111.55C1077.45,-102.35 1055,-90.74 1037.48,-81.68"/>
<polygon fill="#63b8ff" stroke="#63b8ff" points="1039.13,-78.59 1028.64,-77.1 1035.91,-84.81 1039.13,-78.59"/>
</a>
</g>
</g>
<!-- Node27&#45;&gt;Node9 -->
<g id="edge56_Node000027_Node000009" class="edge">
<title>Node27&#45;&gt;Node9</title>
<g id="a_edge56_Node000027_Node000009"><a xlink:title=" ">
<path fill="none" stroke="#63b8ff" d="M1114.51,-111.7C1103.73,-96.69 1086.1,-73.55 1068.11,-56 1057.27,-45.42 1043.94,-35.07 1032.7,-26.97"/>
<polygon fill="#63b8ff" stroke="#63b8ff" points="1034.9,-24.24 1024.71,-21.35 1030.87,-29.96 1034.9,-24.24"/>
</a>
</g>
</g>
<!-- Node27&#45;&gt;Node12 -->
<g id="edge58_Node000027_Node000012" class="edge">
<title>Node27&#45;&gt;Node12</title>
<g id="a_edge58_Node000027_Node000012"><a xlink:title=" ">
<path fill="none" stroke="#63b8ff" d="M1138.57,-111.84C1157.55,-90.46 1192.1,-51.55 1212.28,-28.82"/>
<polygon fill="#63b8ff" stroke="#63b8ff" points="1214.7,-31.37 1218.72,-21.57 1209.47,-26.72 1214.7,-31.37"/>
</a>
</g>
</g>
<!-- Node28&#45;&gt;Node12 -->
<g id="edge60_Node000028_Node000012" class="edge">
<title>Node28&#45;&gt;Node12</title>
<g id="a_edge60_Node000028_Node000012"><a xlink:title=" ">
<path fill="none" stroke="#63b8ff" d="M1474.68,-55.53C1412.51,-44.3 1310.86,-25.95 1259.67,-16.7"/>
<polygon fill="#63b8ff" stroke="#63b8ff" points="1260.33,-13.26 1249.87,-14.93 1259.09,-20.15 1260.33,-13.26"/>
</a>
</g>
</g>
</g>
</svg>
