<?xml version="1.0" encoding="UTF-8" standalone="no"?>
<!DOCTYPE svg PUBLIC "-//W3C//DTD SVG 1.1//EN"
 "http://www.w3.org/Graphics/SVG/1.1/DTD/svg11.dtd">
<!-- Generated by graphviz version 13.1.2 (20250808.2320)
 -->
<!-- Title: include/EmojiModuleLib/EmojiModuleLib.hpp Pages: 1 -->
<svg width="2031pt" height="332pt"
 viewBox="0.00 0.00 2031.00 332.00" xmlns="http://www.w3.org/2000/svg" xmlns:xlink="http://www.w3.org/1999/xlink">
<g id="graph0" class="graph" transform="scale(1 1) rotate(0) translate(4 328)">
<title>include/EmojiModuleLib/EmojiModuleLib.hpp</title>
<!-- Node1 -->
<g id="Node000001" class="node">
<title>Node1</title>
<g id="a_Node000001"><a xlink:title=" ">
<polygon fill="#999999" stroke="#666666" points="1602.25,-324 1483.5,-324 1483.5,-292 1602.25,-292 1602.25,-324"/>
<text xml:space="preserve" text-anchor="start" x="1491.5" y="-310.5" font-family="Helvetica,sans-Serif" font-size="10.00">include/EmojiModuleLib</text>
<text xml:space="preserve" text-anchor="middle" x="1542.88" y="-298.5" font-family="Helvetica,sans-Serif" font-size="10.00">/EmojiModuleLib.hpp</text>
</a>
</g>
</g>
<!-- Node2 -->
<g id="Node000002" class="node">
<title>Node2</title>
<g id="a_Node000002"><a xlink:href="Emoji_8hpp.html" target="_top" xlink:title=" ">
<polygon fill="white" stroke="#666666" points="1652.5,-256 1565.25,-256 1565.25,-236 1652.5,-236 1652.5,-256"/>
<text xml:space="preserve" text-anchor="middle" x="1608.88" y="-242.5" font-family="Helvetica,sans-Serif" font-size="10.00">Emoji/Emoji.hpp</text>
</a>
</g>
</g>
<!-- Node1&#45;&gt;Node2 -->
<g id="edge1_Node000001_Node000002" class="edge">
<title>Node1&#45;&gt;Node2</title>
<g id="a_edge1_Node000001_Node000002"><a xlink:title=" ">
<path fill="none" stroke="#63b8ff" d="M1559.87,-291.55C1569.13,-283.13 1580.61,-272.69 1590.14,-264.04"/>
<polygon fill="#63b8ff" stroke="#63b8ff" points="1592.36,-266.74 1597.41,-257.43 1587.65,-261.56 1592.36,-266.74"/>
</a>
</g>
</g>
<!-- Node3 -->
<g id="Node000003" class="node">
<title>Node3</title>
<g id="a_Node000003"><a xlink:href="UtilsFactory_8hpp.html" target="_top" xlink:title=" ">
<polygon fill="white" stroke="#666666" points="1273.12,-200 1162.62,-200 1162.62,-180 1273.12,-180 1273.12,-200"/>
<text xml:space="preserve" text-anchor="middle" x="1217.88" y="-186.5" font-family="Helvetica,sans-Serif" font-size="10.00">Utils/UtilsFactory.hpp</text>
</a>
</g>
</g>
<!-- Node1&#45;&gt;Node3 -->
<g id="edge66_Node000001_Node000003" class="edge">
<title>Node1&#45;&gt;Node3</title>
<g id="a_edge66_Node000001_Node000003"><a xlink:title=" ">
<path fill="none" stroke="#63b8ff" d="M1499.72,-291.6C1435.35,-268.62 1315.29,-225.77 1254.77,-204.17"/>
<polygon fill="#63b8ff" stroke="#63b8ff" points="1256.21,-200.97 1245.62,-200.9 1253.86,-207.56 1256.21,-200.97"/>
</a>
</g>
</g>
<!-- Node4 -->
<g id="Node000004" class="node">
<title>Node4</title>
<g id="a_Node000004"><a xlink:title=" ">
<polygon fill="#e0e0e0" stroke="#999999" points="127.75,-138 0,-138 0,-118 127.75,-118 127.75,-138"/>
<text xml:space="preserve" text-anchor="middle" x="63.88" y="-124.5" font-family="Helvetica,sans-Serif" font-size="10.00">EmojiModuleLib/version.h</text>
</a>
</g>
</g>
<!-- Node1&#45;&gt;Node4 -->
<g id="edge65_Node000001_Node000004" class="edge">
<title>Node1&#45;&gt;Node4</title>
<g id="a_edge65_Node000001_Node000004"><a xlink:title=" ">
<path fill="none" stroke="#63b8ff" d="M1483.01,-301.94C1288.27,-285.09 655.5,-227.18 136.88,-144 130.57,-142.99 123.99,-141.81 117.47,-140.57"/>
<polygon fill="#63b8ff" stroke="#63b8ff" points="118.58,-137.22 108.09,-138.72 117.23,-144.09 118.58,-137.22"/>
</a>
</g>
</g>
<!-- Node23 -->
<g id="Node000023" class="node">
<title>Node23</title>
<g id="a_Node000023"><a xlink:title=" ">
<polygon fill="#e0e0e0" stroke="#999999" points="1946.5,-20 1895.25,-20 1895.25,0 1946.5,0 1946.5,-20"/>
<text xml:space="preserve" text-anchor="middle" x="1920.88" y="-6.5" font-family="Helvetica,sans-Serif" font-size="10.00">memory</text>
</a>
</g>
</g>
<!-- Node1&#45;&gt;Node23 -->
<g id="edge67_Node000001_Node000023" class="edge">
<title>Node1&#45;&gt;Node23</title>
<g id="a_edge67_Node000001_Node000023"><a xlink:title=" ">
<path fill="none" stroke="#63b8ff" d="M1602.7,-305.04C1731.37,-299.2 2022.88,-276.52 2022.88,-191 2022.88,-191 2022.88,-191 2022.88,-127 2022.88,-81.46 1978,-45.3 1947.78,-26.11"/>
<polygon fill="#63b8ff" stroke="#63b8ff" points="1949.83,-23.26 1939.47,-21.05 1946.19,-29.24 1949.83,-23.26"/>
</a>
</g>
</g>
<!-- Node2&#45;&gt;Node3 -->
<g id="edge2_Node000002_Node000003" class="edge">
<title>Node2&#45;&gt;Node3</title>
<g id="a_edge2_Node000002_Node000003"><a xlink:title=" ">
<path fill="none" stroke="#63b8ff" d="M1564.78,-238.91C1496.4,-229.47 1364.34,-211.23 1284.34,-200.18"/>
<polygon fill="#63b8ff" stroke="#63b8ff" points="1285.3,-196.78 1274.91,-198.88 1284.34,-203.71 1285.3,-196.78"/>
</a>
</g>
</g>
<!-- Node12 -->
<g id="Node000012" class="node">
<title>Node12</title>
<g id="a_Node000012"><a xlink:title=" ">
<polygon fill="#e0e0e0" stroke="#999999" points="1188.88,-20 1148.88,-20 1148.88,0 1188.88,0 1188.88,-20"/>
<text xml:space="preserve" text-anchor="middle" x="1168.88" y="-6.5" font-family="Helvetica,sans-Serif" font-size="10.00">string</text>
</a>
</g>
</g>
<!-- Node2&#45;&gt;Node12 -->
<g id="edge63_Node000002_Node000012" class="edge">
<title>Node2&#45;&gt;Node12</title>
<g id="a_edge63_Node000002_Node000012"><a xlink:title=" ">
<path fill="none" stroke="#63b8ff" d="M1652.67,-242.72C1756.34,-235.72 2002.69,-208.69 1927.88,-112 1867.18,-33.57 1809.65,-72.6 1711.88,-56 1519.43,-23.33 1284.43,-14.09 1200.51,-11.73"/>
<polygon fill="#63b8ff" stroke="#63b8ff" points="1200.85,-8.24 1190.76,-11.48 1200.66,-15.24 1200.85,-8.24"/>
</a>
</g>
</g>
<!-- Node14 -->
<g id="Node000014" class="node">
<title>Node14</title>
<g id="a_Node000014"><a xlink:title=" ">
<polygon fill="#e0e0e0" stroke="#999999" points="1240.38,-76 1197.38,-76 1197.38,-56 1240.38,-56 1240.38,-76"/>
<text xml:space="preserve" text-anchor="middle" x="1218.88" y="-62.5" font-family="Helvetica,sans-Serif" font-size="10.00">vector</text>
</a>
</g>
</g>
<!-- Node2&#45;&gt;Node14 -->
<g id="edge64_Node000002_Node000014" class="edge">
<title>Node2&#45;&gt;Node14</title>
<g id="a_edge64_Node000002_Node000014"><a xlink:title=" ">
<path fill="none" stroke="#63b8ff" d="M1627.39,-235.56C1668.52,-213.44 1760.77,-156.73 1719.88,-112 1711.94,-103.32 1362.59,-77.38 1252.05,-69.38"/>
<polygon fill="#63b8ff" stroke="#63b8ff" points="1252.39,-65.89 1242.16,-68.67 1251.88,-72.88 1252.39,-65.89"/>
</a>
</g>
</g>
<!-- Node3&#45;&gt;Node4 -->
<g id="edge3_Node000003_Node000004" class="edge">
<title>Node3&#45;&gt;Node4</title>
<g id="a_edge3_Node000003_Node000004"><a xlink:title=" ">
<path fill="none" stroke="#63b8ff" d="M1162.36,-187.87C970.84,-183.79 338.46,-168.74 136.88,-144 129.88,-143.14 122.56,-141.97 115.36,-140.66"/>
<polygon fill="#63b8ff" stroke="#63b8ff" points="116.2,-137.25 105.71,-138.79 114.87,-144.12 116.2,-137.25"/>
</a>
</g>
</g>
<!-- Node5 -->
<g id="Node000005" class="node">
<title>Node5</title>
<g id="a_Node000005"><a xlink:href="IAssetManager_8hpp.html" target="_top" xlink:title=" ">
<polygon fill="white" stroke="#666666" points="792.75,-138 635,-138 635,-118 792.75,-118 792.75,-138"/>
<text xml:space="preserve" text-anchor="middle" x="713.88" y="-124.5" font-family="Helvetica,sans-Serif" font-size="10.00">Utils/Assets/IAssetManager.hpp</text>
</a>
</g>
</g>
<!-- Node3&#45;&gt;Node5 -->
<g id="edge4_Node000003_Node000005" class="edge">
<title>Node3&#45;&gt;Node5</title>
<g id="a_edge4_Node000003_Node000005"><a xlink:title=" ">
<path fill="none" stroke="#63b8ff" d="M1162.43,-184.14C1082.4,-176.87 929.96,-162.07 800.88,-144 792.94,-142.89 784.63,-141.61 776.41,-140.27"/>
<polygon fill="#63b8ff" stroke="#63b8ff" points="777.25,-136.86 766.81,-138.67 776.1,-143.77 777.25,-136.86"/>
</a>
</g>
</g>
<!-- Node6 -->
<g id="Node000006" class="node">
<title>Node6</title>
<g id="a_Node000006"><a xlink:title=" ">
<polygon fill="#e0e0e0" stroke="#999999" points="974.38,-76 913.38,-76 913.38,-56 974.38,-56 974.38,-76"/>
<text xml:space="preserve" text-anchor="middle" x="943.88" y="-62.5" font-family="Helvetica,sans-Serif" font-size="10.00">filesystem</text>
</a>
</g>
</g>
<!-- Node3&#45;&gt;Node6 -->
<g id="edge61_Node000003_Node000006" class="edge">
<title>Node3&#45;&gt;Node6</title>
<g id="a_edge61_Node000003_Node000006"><a xlink:title=" ">
<path fill="none" stroke="#63b8ff" d="M1162.31,-188.97C1021.99,-188.33 661.89,-182.86 625.88,-144 616.21,-133.57 616.5,-122.69 625.88,-112 666.22,-65.99 838.51,-86.01 898.88,-76 899.87,-75.83 900.88,-75.66 901.9,-75.49"/>
<polygon fill="#63b8ff" stroke="#63b8ff" points="902.24,-78.98 911.45,-73.74 900.98,-72.1 902.24,-78.98"/>
</a>
</g>
</g>
<!-- Node7 -->
<g id="Node000007" class="node">
<title>Node7</title>
<g id="a_Node000007"><a xlink:href="IDirectoryManager_8hpp.html" target="_top" xlink:title=" ">
<polygon fill="white" stroke="#666666" points="943.38,-144 810.38,-144 810.38,-112 943.38,-112 943.38,-144"/>
<text xml:space="preserve" text-anchor="start" x="818.38" y="-130.5" font-family="Helvetica,sans-Serif" font-size="10.00">Utils/Filesystem/IDirectory</text>
<text xml:space="preserve" text-anchor="middle" x="876.88" y="-118.5" font-family="Helvetica,sans-Serif" font-size="10.00">Manager.hpp</text>
</a>
</g>
</g>
<!-- Node3&#45;&gt;Node7 -->
<g id="edge6_Node000003_Node000007" class="edge">
<title>Node3&#45;&gt;Node7</title>
<g id="a_edge6_Node000003_Node000007"><a xlink:title=" ">
<path fill="none" stroke="#63b8ff" d="M1162.26,-180.09C1110.8,-171.73 1031.9,-158.63 954.43,-144.44"/>
<polygon fill="#63b8ff" stroke="#63b8ff" points="955.47,-141.08 945,-142.71 954.2,-147.96 955.47,-141.08"/>
</a>
</g>
</g>
<!-- Node15 -->
<g id="Node000015" class="node">
<title>Node15</title>
<g id="a_Node000015"><a xlink:href="IFileReader_8hpp.html" target="_top" xlink:title=" ">
<polygon fill="white" stroke="#666666" points="1480.5,-138 1321.25,-138 1321.25,-118 1480.5,-118 1480.5,-138"/>
<text xml:space="preserve" text-anchor="middle" x="1400.88" y="-124.5" font-family="Helvetica,sans-Serif" font-size="10.00">Utils/Filesystem/IFileReader.hpp</text>
</a>
</g>
</g>
<!-- Node3&#45;&gt;Node15 -->
<g id="edge15_Node000003_Node000015" class="edge">
<title>Node3&#45;&gt;Node15</title>
<g id="a_edge15_Node000003_Node000015"><a xlink:title=" ">
<path fill="none" stroke="#63b8ff" d="M1246.47,-179.62C1277.4,-169.48 1326.92,-153.25 1361.52,-141.9"/>
<polygon fill="#63b8ff" stroke="#63b8ff" points="1362.33,-145.32 1370.74,-138.88 1360.15,-138.67 1362.33,-145.32"/>
</a>
</g>
</g>
<!-- Node16 -->
<g id="Node000016" class="node">
<title>Node16</title>
<g id="a_Node000016"><a xlink:href="IFileWriter_8hpp.html" target="_top" xlink:title=" ">
<polygon fill="white" stroke="#666666" points="1114.5,-138 961.25,-138 961.25,-118 1114.5,-118 1114.5,-138"/>
<text xml:space="preserve" text-anchor="middle" x="1037.88" y="-124.5" font-family="Helvetica,sans-Serif" font-size="10.00">Utils/Filesystem/IFileWriter.hpp</text>
</a>
</g>
</g>
<!-- Node3&#45;&gt;Node16 -->
<g id="edge21_Node000003_Node000016" class="edge">
<title>Node3&#45;&gt;Node16</title>
<g id="a_edge21_Node000003_Node000016"><a xlink:title=" ">
<path fill="none" stroke="#63b8ff" d="M1189.75,-179.62C1159.33,-169.48 1110.62,-153.25 1076.59,-141.9"/>
<polygon fill="#63b8ff" stroke="#63b8ff" points="1078.13,-138.73 1067.53,-138.89 1075.91,-145.37 1078.13,-138.73"/>
</a>
</g>
</g>
<!-- Node17 -->
<g id="Node000017" class="node">
<title>Node17</title>
<g id="a_Node000017"><a xlink:href="IPathResolver_8hpp.html" target="_top" xlink:title=" ">
<polygon fill="white" stroke="#666666" points="1303.5,-138 1132.25,-138 1132.25,-118 1303.5,-118 1303.5,-138"/>
<text xml:space="preserve" text-anchor="middle" x="1217.88" y="-124.5" font-family="Helvetica,sans-Serif" font-size="10.00">Utils/Filesystem/IPathResolver.hpp</text>
</a>
</g>
</g>
<!-- Node3&#45;&gt;Node17 -->
<g id="edge27_Node000003_Node000017" class="edge">
<title>Node3&#45;&gt;Node17</title>
<g id="a_edge27_Node000003_Node000017"><a xlink:title=" ">
<path fill="none" stroke="#63b8ff" d="M1217.88,-179.62C1217.88,-171.56 1217.88,-159.65 1217.88,-149.41"/>
<polygon fill="#63b8ff" stroke="#63b8ff" points="1221.38,-149.63 1217.88,-139.63 1214.38,-149.63 1221.38,-149.63"/>
</a>
</g>
</g>
<!-- Node18 -->
<g id="Node000018" class="node">
<title>Node18</title>
<g id="a_Node000018"><a xlink:href="ICustomStringsLoader_8hpp.html" target="_top" xlink:title=" ">
<polygon fill="white" stroke="#666666" points="277.62,-144 146.12,-144 146.12,-112 277.62,-112 277.62,-144"/>
<text xml:space="preserve" text-anchor="start" x="154.12" y="-130.5" font-family="Helvetica,sans-Serif" font-size="10.00">Utils/Json/ICustomStrings</text>
<text xml:space="preserve" text-anchor="middle" x="211.88" y="-118.5" font-family="Helvetica,sans-Serif" font-size="10.00">Loader.hpp</text>
</a>
</g>
</g>
<!-- Node3&#45;&gt;Node18 -->
<g id="edge32_Node000003_Node000018" class="edge">
<title>Node3&#45;&gt;Node18</title>
<g id="a_edge32_Node000003_Node000018"><a xlink:title=" ">
<path fill="none" stroke="#63b8ff" d="M1162.28,-189.19C1019.05,-189.08 625.68,-184.87 288.99,-144.13"/>
<polygon fill="#63b8ff" stroke="#63b8ff" points="289.89,-140.71 279.54,-142.97 289.04,-147.66 289.89,-140.71"/>
</a>
</g>
</g>
<!-- Node20 -->
<g id="Node000020" class="node">
<title>Node20</title>
<g id="a_Node000020"><a xlink:href="IJsonSerializer_8hpp.html" target="_top" xlink:title=" ">
<polygon fill="white" stroke="#666666" points="442.12,-138 295.62,-138 295.62,-118 442.12,-118 442.12,-138"/>
<text xml:space="preserve" text-anchor="middle" x="368.88" y="-124.5" font-family="Helvetica,sans-Serif" font-size="10.00">Utils/Json/IJsonSerializer.hpp</text>
</a>
</g>
</g>
<!-- Node3&#45;&gt;Node20 -->
<g id="edge37_Node000003_Node000020" class="edge">
<title>Node3&#45;&gt;Node20</title>
<g id="a_edge37_Node000003_Node000020"><a xlink:title=" ">
<path fill="none" stroke="#63b8ff" d="M1162.4,-188.02C1035.94,-185.3 716.76,-175.6 451.88,-144 443.78,-143.03 435.28,-141.78 426.93,-140.41"/>
<polygon fill="#63b8ff" stroke="#63b8ff" points="427.63,-136.98 417.19,-138.73 426.45,-143.87 427.63,-136.98"/>
</a>
</g>
</g>
<!-- Node21 -->
<g id="Node000021" class="node">
<title>Node21</title>
<g id="a_Node000021"><a xlink:href="ILogger_8hpp.html" target="_top" xlink:title=" ">
<polygon fill="white" stroke="#666666" points="1703.12,-76 1580.62,-76 1580.62,-56 1703.12,-56 1703.12,-76"/>
<text xml:space="preserve" text-anchor="middle" x="1641.88" y="-62.5" font-family="Helvetica,sans-Serif" font-size="10.00">Utils/Logger/ILogger.hpp</text>
</a>
</g>
</g>
<!-- Node3&#45;&gt;Node21 -->
<g id="edge42_Node000003_Node000021" class="edge">
<title>Node3&#45;&gt;Node21</title>
<g id="a_edge42_Node000003_Node000021"><a xlink:title=" ">
<path fill="none" stroke="#63b8ff" d="M1273.38,-186.34C1332.65,-182.13 1428.63,-171.36 1506.88,-144 1518.35,-139.99 1580.57,-103.47 1616.4,-82.2"/>
<polygon fill="#63b8ff" stroke="#63b8ff" points="1618.06,-85.28 1624.87,-77.16 1614.48,-79.26 1618.06,-85.28"/>
</a>
</g>
</g>
<!-- Node3&#45;&gt;Node23 -->
<g id="edge62_Node000003_Node000023" class="edge">
<title>Node3&#45;&gt;Node23</title>
<g id="a_edge62_Node000003_Node000023"><a xlink:title=" ">
<path fill="none" stroke="#63b8ff" d="M1273.62,-187.53C1437.15,-182.94 1905.57,-167.77 1927.88,-144 1956.53,-113.48 1941.15,-59.6 1929.69,-30.67"/>
<polygon fill="#63b8ff" stroke="#63b8ff" points="1933,-29.51 1925.89,-21.66 1926.55,-32.23 1933,-29.51"/>
</a>
</g>
</g>
<!-- Node25 -->
<g id="Node000025" class="node">
<title>Node25</title>
<g id="a_Node000025"><a xlink:href="LoggerFactory_8hpp.html" target="_top" xlink:title=" ">
<polygon fill="white" stroke="#666666" points="1918.75,-138 1767,-138 1767,-118 1918.75,-118 1918.75,-138"/>
<text xml:space="preserve" text-anchor="middle" x="1842.88" y="-124.5" font-family="Helvetica,sans-Serif" font-size="10.00">Utils/Logger/LoggerFactory.hpp</text>
</a>
</g>
</g>
<!-- Node3&#45;&gt;Node25 -->
<g id="edge48_Node000003_Node000025" class="edge">
<title>Node3&#45;&gt;Node25</title>
<g id="a_edge48_Node000003_Node000025"><a xlink:title=" ">
<path fill="none" stroke="#63b8ff" d="M1273.27,-184.62C1365.84,-177.16 1557.81,-161.14 1719.88,-144 1731.91,-142.73 1744.6,-141.29 1757.08,-139.82"/>
<polygon fill="#63b8ff" stroke="#63b8ff" points="1757.42,-143.3 1766.94,-138.64 1756.6,-136.35 1757.42,-143.3"/>
</a>
</g>
</g>
<!-- Node26 -->
<g id="Node000026" class="node">
<title>Node26</title>
<g id="a_Node000026"><a xlink:href="NullLogger_8hpp.html" target="_top" xlink:title=" ">
<polygon fill="white" stroke="#666666" points="1711.25,-138 1574.5,-138 1574.5,-118 1711.25,-118 1711.25,-138"/>
<text xml:space="preserve" text-anchor="middle" x="1642.88" y="-124.5" font-family="Helvetica,sans-Serif" font-size="10.00">Utils/Logger/NullLogger.hpp</text>
</a>
</g>
</g>
<!-- Node3&#45;&gt;Node26 -->
<g id="edge52_Node000003_Node000026" class="edge">
<title>Node3&#45;&gt;Node26</title>
<g id="a_edge52_Node000003_Node000026"><a xlink:title=" ">
<path fill="none" stroke="#63b8ff" d="M1273.55,-182.57C1341.5,-174.52 1459.86,-159.85 1560.88,-144 1567.82,-142.91 1575.08,-141.69 1582.28,-140.44"/>
<polygon fill="#63b8ff" stroke="#63b8ff" points="1582.79,-143.9 1592.02,-138.71 1581.56,-137.01 1582.79,-143.9"/>
</a>
</g>
</g>
<!-- Node27 -->
<g id="Node000027" class="node">
<title>Node27</title>
<g id="a_Node000027"><a xlink:href="IPlatformInfo_8hpp.html" target="_top" xlink:title=" ">
<polygon fill="white" stroke="#666666" points="579.25,-144 460.5,-144 460.5,-112 579.25,-112 579.25,-144"/>
<text xml:space="preserve" text-anchor="start" x="468.5" y="-130.5" font-family="Helvetica,sans-Serif" font-size="10.00">Utils/Platform/IPlatform</text>
<text xml:space="preserve" text-anchor="middle" x="519.88" y="-118.5" font-family="Helvetica,sans-Serif" font-size="10.00">Info.hpp</text>
</a>
</g>
</g>
<!-- Node3&#45;&gt;Node27 -->
<g id="edge54_Node000003_Node000027" class="edge">
<title>Node3&#45;&gt;Node27</title>
<g id="a_edge54_Node000003_Node000027"><a xlink:title=" ">
<path fill="none" stroke="#63b8ff" d="M1162.44,-187.44C1053.06,-183.83 801.94,-172.88 592.88,-144 592.19,-143.91 591.51,-143.81 590.82,-143.71"/>
<polygon fill="#63b8ff" stroke="#63b8ff" points="591.44,-140.26 581.02,-142.16 590.35,-147.18 591.44,-140.26"/>
</a>
</g>
</g>
<!-- Node28 -->
<g id="Node000028" class="node">
<title>Node28</title>
<g id="a_Node000028"><a xlink:href="IStringFormatter_8hpp.html" target="_top" xlink:title=" ">
<polygon fill="white" stroke="#666666" points="1521.38,-76 1364.38,-76 1364.38,-56 1521.38,-56 1521.38,-76"/>
<text xml:space="preserve" text-anchor="middle" x="1442.88" y="-62.5" font-family="Helvetica,sans-Serif" font-size="10.00">Utils/String/IStringFormatter.hpp</text>
</a>
</g>
</g>
<!-- Node3&#45;&gt;Node28 -->
<g id="edge59_Node000003_Node000028" class="edge">
<title>Node3&#45;&gt;Node28</title>
<g id="a_edge59_Node000003_Node000028"><a xlink:title=" ">
<path fill="none" stroke="#63b8ff" d="M1273.59,-187.95C1344.96,-185.29 1462.71,-176.03 1489.88,-144 1505.98,-125.01 1483.96,-99.91 1464.95,-83.61"/>
<polygon fill="#63b8ff" stroke="#63b8ff" points="1467.19,-80.92 1457.22,-77.34 1462.78,-86.36 1467.19,-80.92"/>
</a>
</g>
</g>
<!-- Node5&#45;&gt;Node6 -->
<g id="edge5_Node000005_Node000006" class="edge">
<title>Node5&#45;&gt;Node6</title>
<g id="a_edge5_Node000005_Node000006"><a xlink:title=" ">
<path fill="none" stroke="#63b8ff" d="M750.07,-117.56C791.29,-106.8 858.55,-89.26 902.01,-77.92"/>
<polygon fill="#63b8ff" stroke="#63b8ff" points="902.79,-81.33 911.58,-75.42 901.02,-74.56 902.79,-81.33"/>
</a>
</g>
</g>
<!-- Node7&#45;&gt;Node6 -->
<g id="edge13_Node000007_Node000006" class="edge">
<title>Node7&#45;&gt;Node6</title>
<g id="a_edge13_Node000007_Node000006"><a xlink:title=" ">
<path fill="none" stroke="#63b8ff" d="M894.13,-111.55C903.53,-103.13 915.19,-92.69 924.85,-84.04"/>
<polygon fill="#63b8ff" stroke="#63b8ff" points="927.13,-86.7 932.24,-77.42 922.46,-81.48 927.13,-86.7"/>
</a>
</g>
</g>
<!-- Node8 -->
<g id="Node000008" class="node">
<title>Node8</title>
<g id="a_Node000008"><a xlink:href="UtilsError_8hpp.html" target="_top" xlink:title=" ">
<polygon fill="white" stroke="#666666" points="856.5,-76 757.25,-76 757.25,-56 856.5,-56 856.5,-76"/>
<text xml:space="preserve" text-anchor="middle" x="806.88" y="-62.5" font-family="Helvetica,sans-Serif" font-size="10.00">Utils/UtilsError.hpp</text>
</a>
</g>
</g>
<!-- Node7&#45;&gt;Node8 -->
<g id="edge7_Node000007_Node000008" class="edge">
<title>Node7&#45;&gt;Node8</title>
<g id="a_edge7_Node000007_Node000008"><a xlink:title=" ">
<path fill="none" stroke="#63b8ff" d="M858.85,-111.55C848.92,-103.04 836.6,-92.48 826.44,-83.77"/>
<polygon fill="#63b8ff" stroke="#63b8ff" points="828.87,-81.24 819,-77.39 824.31,-86.56 828.87,-81.24"/>
</a>
</g>
</g>
<!-- Node7&#45;&gt;Node14 -->
<g id="edge14_Node000007_Node000014" class="edge">
<title>Node7&#45;&gt;Node14</title>
<g id="a_edge14_Node000007_Node000014"><a xlink:title=" ">
<path fill="none" stroke="#63b8ff" d="M943.51,-113.56C946.34,-113.03 949.13,-112.51 951.88,-112 1035.97,-96.51 1135.38,-80.31 1185.86,-72.23"/>
<polygon fill="#63b8ff" stroke="#63b8ff" points="1186.21,-75.72 1195.54,-70.69 1185.11,-68.81 1186.21,-75.72"/>
</a>
</g>
</g>
<!-- Node9 -->
<g id="Node000009" class="node">
<title>Node9</title>
<g id="a_Node000009"><a xlink:title=" ">
<polygon fill="#e0e0e0" stroke="#999999" points="1060.5,-20 1015.25,-20 1015.25,0 1060.5,0 1060.5,-20"/>
<text xml:space="preserve" text-anchor="middle" x="1037.88" y="-6.5" font-family="Helvetica,sans-Serif" font-size="10.00">cstdint</text>
</a>
</g>
</g>
<!-- Node8&#45;&gt;Node9 -->
<g id="edge8_Node000008_Node000009" class="edge">
<title>Node8&#45;&gt;Node9</title>
<g id="a_edge8_Node000008_Node000009"><a xlink:title=" ">
<path fill="none" stroke="#63b8ff" d="M847.38,-55.53C891.75,-45.16 962.15,-28.7 1003.8,-18.97"/>
<polygon fill="#63b8ff" stroke="#63b8ff" points="1004.58,-22.38 1013.52,-16.69 1002.98,-15.56 1004.58,-22.38"/>
</a>
</g>
</g>
<!-- Node10 -->
<g id="Node000010" class="node">
<title>Node10</title>
<g id="a_Node000010"><a xlink:title=" ">
<polygon fill="#e0e0e0" stroke="#999999" points="471.75,-20 422,-20 422,0 471.75,0 471.75,-20"/>
<text xml:space="preserve" text-anchor="middle" x="446.88" y="-6.5" font-family="Helvetica,sans-Serif" font-size="10.00">optional</text>
</a>
</g>
</g>
<!-- Node8&#45;&gt;Node10 -->
<g id="edge9_Node000008_Node000010" class="edge">
<title>Node8&#45;&gt;Node10</title>
<g id="a_edge9_Node000008_Node000010"><a xlink:title=" ">
<path fill="none" stroke="#63b8ff" d="M756.82,-57.49C683.34,-46.47 548,-26.17 483.25,-16.46"/>
<polygon fill="#63b8ff" stroke="#63b8ff" points="483.92,-13.02 473.51,-14.99 482.88,-19.94 483.92,-13.02"/>
</a>
</g>
</g>
<!-- Node11 -->
<g id="Node000011" class="node">
<title>Node11</title>
<g id="a_Node000011"><a xlink:title=" ">
<polygon fill="#e0e0e0" stroke="#999999" points="871.25,-20 812.5,-20 812.5,0 871.25,0 871.25,-20"/>
<text xml:space="preserve" text-anchor="middle" x="841.88" y="-6.5" font-family="Helvetica,sans-Serif" font-size="10.00">stdexcept</text>
</a>
</g>
</g>
<!-- Node8&#45;&gt;Node11 -->
<g id="edge10_Node000008_Node000011" class="edge">
<title>Node8&#45;&gt;Node11</title>
<g id="a_edge10_Node000008_Node000011"><a xlink:title=" ">
<path fill="none" stroke="#63b8ff" d="M812.97,-55.59C817.59,-48.47 824.08,-38.45 829.74,-29.72"/>
<polygon fill="#63b8ff" stroke="#63b8ff" points="832.52,-31.86 835.03,-21.57 826.65,-28.06 832.52,-31.86"/>
</a>
</g>
</g>
<!-- Node8&#45;&gt;Node12 -->
<g id="edge11_Node000008_Node000012" class="edge">
<title>Node8&#45;&gt;Node12</title>
<g id="a_edge11_Node000008_Node000012"><a xlink:title=" ">
<path fill="none" stroke="#63b8ff" d="M856.83,-57.55C932.63,-46.24 1074.52,-25.07 1137.44,-15.69"/>
<polygon fill="#63b8ff" stroke="#63b8ff" points="1137.72,-19.19 1147.09,-14.25 1136.68,-12.26 1137.72,-19.19"/>
</a>
</g>
</g>
<!-- Node13 -->
<g id="Node000013" class="node">
<title>Node13</title>
<g id="a_Node000013"><a xlink:title=" ">
<polygon fill="#e0e0e0" stroke="#999999" points="794.5,-20 749.25,-20 749.25,0 794.5,0 794.5,-20"/>
<text xml:space="preserve" text-anchor="middle" x="771.88" y="-6.5" font-family="Helvetica,sans-Serif" font-size="10.00">variant</text>
</a>
</g>
</g>
<!-- Node8&#45;&gt;Node13 -->
<g id="edge12_Node000008_Node000013" class="edge">
<title>Node8&#45;&gt;Node13</title>
<g id="a_edge12_Node000008_Node000013"><a xlink:title=" ">
<path fill="none" stroke="#63b8ff" d="M800.78,-55.59C796.16,-48.47 789.67,-38.45 784.01,-29.72"/>
<polygon fill="#63b8ff" stroke="#63b8ff" points="787.1,-28.06 778.72,-21.57 781.23,-31.86 787.1,-28.06"/>
</a>
</g>
</g>
<!-- Node15&#45;&gt;Node6 -->
<g id="edge18_Node000015_Node000006" class="edge">
<title>Node15&#45;&gt;Node6</title>
<g id="a_edge18_Node000015_Node000006"><a xlink:title=" ">
<path fill="none" stroke="#63b8ff" d="M1347.89,-117.55C1336.36,-115.61 1324.22,-113.66 1312.88,-112 1194.56,-94.71 1054.22,-78.88 985.71,-71.45"/>
<polygon fill="#63b8ff" stroke="#63b8ff" points="986.38,-68 976.06,-70.41 985.63,-74.96 986.38,-68"/>
</a>
</g>
</g>
<!-- Node15&#45;&gt;Node8 -->
<g id="edge16_Node000015_Node000008" class="edge">
<title>Node15&#45;&gt;Node8</title>
<g id="a_edge16_Node000015_Node000008"><a xlink:title=" ">
<path fill="none" stroke="#63b8ff" d="M1349.79,-117.57C1337.72,-115.54 1324.86,-113.55 1312.88,-112 1131.89,-88.65 1085.61,-92.43 903.88,-76 892.26,-74.95 879.86,-73.81 867.95,-72.71"/>
<polygon fill="#63b8ff" stroke="#63b8ff" points="868.5,-69.25 858.22,-71.81 867.86,-76.22 868.5,-69.25"/>
</a>
</g>
</g>
<!-- Node15&#45;&gt;Node9 -->
<g id="edge17_Node000015_Node000009" class="edge">
<title>Node15&#45;&gt;Node9</title>
<g id="a_edge17_Node000015_Node000009"><a xlink:title=" ">
<path fill="none" stroke="#63b8ff" d="M1382.22,-117.57C1347.99,-100.37 1276.23,-64.86 1249.88,-56 1188.88,-35.49 1114.77,-22.3 1072.29,-15.8"/>
<polygon fill="#63b8ff" stroke="#63b8ff" points="1072.83,-12.35 1062.42,-14.34 1071.8,-19.27 1072.83,-12.35"/>
</a>
</g>
</g>
<!-- Node15&#45;&gt;Node12 -->
<g id="edge19_Node000015_Node000012" class="edge">
<title>Node15&#45;&gt;Node12</title>
<g id="a_edge19_Node000015_Node000012"><a xlink:title=" ">
<path fill="none" stroke="#63b8ff" d="M1389.74,-117.56C1371.81,-102.76 1335,-73.92 1299.88,-56 1267.26,-39.36 1227.11,-26.6 1199.91,-18.98"/>
<polygon fill="#63b8ff" stroke="#63b8ff" points="1201.14,-15.69 1190.57,-16.44 1199.3,-22.44 1201.14,-15.69"/>
</a>
</g>
</g>
<!-- Node15&#45;&gt;Node14 -->
<g id="edge20_Node000015_Node000014" class="edge">
<title>Node15&#45;&gt;Node14</title>
<g id="a_edge20_Node000015_Node000014"><a xlink:title=" ">
<path fill="none" stroke="#63b8ff" d="M1372.44,-117.62C1339.74,-106.85 1286.16,-89.18 1251.72,-77.83"/>
<polygon fill="#63b8ff" stroke="#63b8ff" points="1252.86,-74.52 1242.27,-74.71 1250.67,-81.17 1252.86,-74.52"/>
</a>
</g>
</g>
<!-- Node16&#45;&gt;Node6 -->
<g id="edge24_Node000016_Node000006" class="edge">
<title>Node16&#45;&gt;Node6</title>
<g id="a_edge24_Node000016_Node000006"><a xlink:title=" ">
<path fill="none" stroke="#63b8ff" d="M1023.19,-117.62C1008.43,-108.2 985.42,-93.52 967.98,-82.39"/>
<polygon fill="#63b8ff" stroke="#63b8ff" points="970.05,-79.55 959.74,-77.12 966.28,-85.45 970.05,-79.55"/>
</a>
</g>
</g>
<!-- Node16&#45;&gt;Node8 -->
<g id="edge22_Node000016_Node000008" class="edge">
<title>Node16&#45;&gt;Node8</title>
<g id="a_edge22_Node000016_Node000008"><a xlink:title=" ">
<path fill="none" stroke="#63b8ff" d="M1001.53,-117.56C961.79,-107.24 897.96,-90.66 854.3,-79.32"/>
<polygon fill="#63b8ff" stroke="#63b8ff" points="855.42,-75.99 844.86,-76.87 853.66,-82.77 855.42,-75.99"/>
</a>
</g>
</g>
<!-- Node16&#45;&gt;Node9 -->
<g id="edge23_Node000016_Node000009" class="edge">
<title>Node16&#45;&gt;Node9</title>
<g id="a_edge23_Node000016_Node000009"><a xlink:title=" ">
<path fill="none" stroke="#63b8ff" d="M1037.88,-117.51C1037.88,-98.81 1037.88,-56.82 1037.88,-31.51"/>
<polygon fill="#63b8ff" stroke="#63b8ff" points="1041.38,-31.81 1037.88,-21.81 1034.38,-31.81 1041.38,-31.81"/>
</a>
</g>
</g>
<!-- Node16&#45;&gt;Node12 -->
<g id="edge25_Node000016_Node000012" class="edge">
<title>Node16&#45;&gt;Node12</title>
<g id="a_edge25_Node000016_Node000012"><a xlink:title=" ">
<path fill="none" stroke="#63b8ff" d="M1048.6,-117.51C1070.78,-97.87 1121.96,-52.55 1149.87,-27.83"/>
<polygon fill="#63b8ff" stroke="#63b8ff" points="1152.07,-30.55 1157.24,-21.3 1147.43,-25.31 1152.07,-30.55"/>
</a>
</g>
</g>
<!-- Node16&#45;&gt;Node14 -->
<g id="edge26_Node000016_Node000014" class="edge">
<title>Node16&#45;&gt;Node14</title>
<g id="a_edge26_Node000016_Node000014"><a xlink:title=" ">
<path fill="none" stroke="#63b8ff" d="M1066.16,-117.62C1098.67,-106.85 1151.96,-89.18 1186.21,-77.83"/>
<polygon fill="#63b8ff" stroke="#63b8ff" points="1187.21,-81.18 1195.61,-74.71 1185.01,-74.54 1187.21,-81.18"/>
</a>
</g>
</g>
<!-- Node17&#45;&gt;Node6 -->
<g id="edge29_Node000017_Node000006" class="edge">
<title>Node17&#45;&gt;Node6</title>
<g id="a_edge29_Node000017_Node000006"><a xlink:title=" ">
<path fill="none" stroke="#63b8ff" d="M1174.76,-117.56C1123.06,-106.24 1036.99,-87.39 985.81,-76.18"/>
<polygon fill="#63b8ff" stroke="#63b8ff" points="986.83,-72.82 976.31,-74.1 985.33,-79.66 986.83,-72.82"/>
</a>
</g>
</g>
<!-- Node17&#45;&gt;Node8 -->
<g id="edge28_Node000017_Node000008" class="edge">
<title>Node17&#45;&gt;Node8</title>
<g id="a_edge28_Node000017_Node000008"><a xlink:title=" ">
<path fill="none" stroke="#63b8ff" d="M1159.48,-117.52C1147.7,-115.65 1135.4,-113.74 1123.88,-112 1034.95,-98.59 931.81,-84.16 867.94,-75.35"/>
<polygon fill="#63b8ff" stroke="#63b8ff" points="868.76,-71.93 858.38,-74.03 867.8,-78.87 868.76,-71.93"/>
</a>
</g>
</g>
<!-- Node17&#45;&gt;Node12 -->
<g id="edge30_Node000017_Node000012" class="edge">
<title>Node17&#45;&gt;Node12</title>
<g id="a_edge30_Node000017_Node000012"><a xlink:title=" ">
<path fill="none" stroke="#63b8ff" d="M1211.66,-117.55C1205.29,-107.55 1195.42,-91.15 1188.88,-76 1182.63,-61.54 1177.46,-44.51 1173.95,-31.5"/>
<polygon fill="#63b8ff" stroke="#63b8ff" points="1177.37,-30.76 1171.48,-21.95 1170.59,-32.51 1177.37,-30.76"/>
</a>
</g>
</g>
<!-- Node17&#45;&gt;Node14 -->
<g id="edge31_Node000017_Node000014" class="edge">
<title>Node17&#45;&gt;Node14</title>
<g id="a_edge31_Node000017_Node000014"><a xlink:title=" ">
<path fill="none" stroke="#63b8ff" d="M1218.03,-117.62C1218.17,-109.56 1218.36,-97.65 1218.53,-87.41"/>
<polygon fill="#63b8ff" stroke="#63b8ff" points="1222.03,-87.68 1218.7,-77.63 1215.03,-87.57 1222.03,-87.68"/>
</a>
</g>
</g>
<!-- Node18&#45;&gt;Node8 -->
<g id="edge33_Node000018_Node000008" class="edge">
<title>Node18&#45;&gt;Node8</title>
<g id="a_edge33_Node000018_Node000008"><a xlink:title=" ">
<path fill="none" stroke="#63b8ff" d="M278.06,-113.35C281.03,-112.87 283.98,-112.41 286.88,-112 451.73,-88.46 647.88,-75.52 745.43,-70.1"/>
<polygon fill="#63b8ff" stroke="#63b8ff" points="745.53,-73.6 755.32,-69.56 745.14,-66.61 745.53,-73.6"/>
</a>
</g>
</g>
<!-- Node18&#45;&gt;Node10 -->
<g id="edge35_Node000018_Node000010" class="edge">
<title>Node18&#45;&gt;Node10</title>
<g id="a_edge35_Node000018_Node000010"><a xlink:title=" ">
<path fill="none" stroke="#63b8ff" d="M218.76,-111.78C226.93,-95.46 242.12,-70.01 262.88,-56 307.71,-25.73 370.89,-15.78 410.33,-12.54"/>
<polygon fill="#63b8ff" stroke="#63b8ff" points="410.53,-16.03 420.25,-11.84 410.03,-9.05 410.53,-16.03"/>
</a>
</g>
</g>
<!-- Node18&#45;&gt;Node12 -->
<g id="edge36_Node000018_Node000012" class="edge">
<title>Node18&#45;&gt;Node12</title>
<g id="a_edge36_Node000018_Node000012"><a xlink:title=" ">
<path fill="none" stroke="#63b8ff" d="M226.11,-111.74C243.18,-94.61 273.56,-67.68 305.88,-56 465.71,1.8 900.31,-31.7 1069.88,-20 1092.4,-18.45 1117.76,-16.13 1137.18,-14.24"/>
<polygon fill="#63b8ff" stroke="#63b8ff" points="1137.31,-17.74 1146.91,-13.27 1136.62,-10.77 1137.31,-17.74"/>
</a>
</g>
</g>
<!-- Node19 -->
<g id="Node000019" class="node">
<title>Node19</title>
<g id="a_Node000019"><a xlink:title=" ">
<polygon fill="#e0e0e0" stroke="#999999" points="412.75,-76 315,-76 315,-56 412.75,-56 412.75,-76"/>
<text xml:space="preserve" text-anchor="middle" x="363.88" y="-62.5" font-family="Helvetica,sans-Serif" font-size="10.00">nlohmann/json.hpp</text>
</a>
</g>
</g>
<!-- Node18&#45;&gt;Node19 -->
<g id="edge34_Node000018_Node000019" class="edge">
<title>Node18&#45;&gt;Node19</title>
<g id="a_edge34_Node000018_Node000019"><a xlink:title=" ">
<path fill="none" stroke="#63b8ff" d="M251.02,-111.55C275.32,-101.96 306.25,-89.75 329.58,-80.54"/>
<polygon fill="#63b8ff" stroke="#63b8ff" points="330.62,-83.89 338.63,-76.96 328.05,-77.38 330.62,-83.89"/>
</a>
</g>
</g>
<!-- Node20&#45;&gt;Node6 -->
<g id="edge39_Node000020_Node000006" class="edge">
<title>Node20&#45;&gt;Node6</title>
<g id="a_edge39_Node000020_Node000006"><a xlink:title=" ">
<path fill="none" stroke="#63b8ff" d="M417.03,-117.52C428.43,-115.5 440.55,-113.51 451.88,-112 634.94,-87.55 682.12,-94.59 865.88,-76 877.57,-74.82 890.24,-73.41 901.9,-72.06"/>
<polygon fill="#63b8ff" stroke="#63b8ff" points="902.12,-75.56 911.64,-70.92 901.31,-68.61 902.12,-75.56"/>
</a>
</g>
</g>
<!-- Node20&#45;&gt;Node8 -->
<g id="edge38_Node000020_Node000008" class="edge">
<title>Node20&#45;&gt;Node8</title>
<g id="a_edge38_Node000020_Node000008"><a xlink:title=" ">
<path fill="none" stroke="#63b8ff" d="M418.84,-117.53C429.71,-115.59 441.16,-113.65 451.88,-112 554.54,-96.23 674.52,-81.86 745.42,-73.79"/>
<polygon fill="#63b8ff" stroke="#63b8ff" points="745.74,-77.28 755.28,-72.68 744.95,-70.32 745.74,-77.28"/>
</a>
</g>
</g>
<!-- Node20&#45;&gt;Node12 -->
<g id="edge41_Node000020_Node000012" class="edge">
<title>Node20&#45;&gt;Node12</title>
<g id="a_edge41_Node000020_Node000012"><a xlink:title=" ">
<path fill="none" stroke="#63b8ff" d="M413.03,-117.56C483.53,-102.75 626.01,-73.9 747.88,-56 823.26,-44.93 1052.62,-22.28 1137.15,-14.06"/>
<polygon fill="#63b8ff" stroke="#63b8ff" points="1137.42,-17.55 1147.03,-13.11 1136.74,-10.59 1137.42,-17.55"/>
</a>
</g>
</g>
<!-- Node20&#45;&gt;Node19 -->
<g id="edge40_Node000020_Node000019" class="edge">
<title>Node20&#45;&gt;Node19</title>
<g id="a_edge40_Node000020_Node000019"><a xlink:title=" ">
<path fill="none" stroke="#63b8ff" d="M368.09,-117.62C367.42,-109.56 366.43,-97.65 365.58,-87.41"/>
<polygon fill="#63b8ff" stroke="#63b8ff" points="369.08,-87.3 364.76,-77.62 362.1,-87.88 369.08,-87.3"/>
</a>
</g>
</g>
<!-- Node21&#45;&gt;Node9 -->
<g id="edge44_Node000021_Node000009" class="edge">
<title>Node21&#45;&gt;Node9</title>
<g id="a_edge44_Node000021_Node000009"><a xlink:title=" ">
<path fill="none" stroke="#63b8ff" d="M1580.36,-59.5C1454.38,-48.24 1170.66,-22.87 1072.26,-14.07"/>
<polygon fill="#63b8ff" stroke="#63b8ff" points="1072.72,-10.6 1062.45,-13.2 1072.09,-17.57 1072.72,-10.6"/>
</a>
</g>
</g>
<!-- Node21&#45;&gt;Node12 -->
<g id="edge47_Node000021_Node000012" class="edge">
<title>Node21&#45;&gt;Node12</title>
<g id="a_edge47_Node000021_Node000012"><a xlink:title=" ">
<path fill="none" stroke="#63b8ff" d="M1580.49,-57.7C1575.54,-57.12 1570.63,-56.55 1565.88,-56 1429.98,-40.25 1267.84,-22.06 1200.56,-14.54"/>
<polygon fill="#63b8ff" stroke="#63b8ff" points="1200.95,-11.06 1190.63,-13.43 1200.18,-18.02 1200.95,-11.06"/>
</a>
</g>
</g>
<!-- Node22 -->
<g id="Node000022" class="node">
<title>Node22</title>
<g id="a_Node000022"><a xlink:title=" ">
<polygon fill="#e0e0e0" stroke="#999999" points="1635,-20 1574.75,-20 1574.75,0 1635,0 1635,-20"/>
<text xml:space="preserve" text-anchor="middle" x="1604.88" y="-6.5" font-family="Helvetica,sans-Serif" font-size="10.00">fmt/core.h</text>
</a>
</g>
</g>
<!-- Node21&#45;&gt;Node22 -->
<g id="edge43_Node000021_Node000022" class="edge">
<title>Node21&#45;&gt;Node22</title>
<g id="a_edge43_Node000021_Node000022"><a xlink:title=" ">
<path fill="none" stroke="#63b8ff" d="M1635.43,-55.59C1630.55,-48.47 1623.68,-38.45 1617.7,-29.72"/>
<polygon fill="#63b8ff" stroke="#63b8ff" points="1620.64,-27.82 1612.1,-21.55 1614.87,-31.77 1620.64,-27.82"/>
</a>
</g>
</g>
<!-- Node21&#45;&gt;Node23 -->
<g id="edge45_Node000021_Node000023" class="edge">
<title>Node21&#45;&gt;Node23</title>
<g id="a_edge45_Node000021_Node000023"><a xlink:title=" ">
<path fill="none" stroke="#63b8ff" d="M1690.79,-55.53C1745.92,-44.86 1834.29,-27.76 1883.93,-18.15"/>
<polygon fill="#63b8ff" stroke="#63b8ff" points="1884.45,-21.61 1893.6,-16.28 1883.12,-14.74 1884.45,-21.61"/>
</a>
</g>
</g>
<!-- Node24 -->
<g id="Node000024" class="node">
<title>Node24</title>
<g id="a_Node000024"><a xlink:title=" ">
<polygon fill="#e0e0e0" stroke="#999999" points="1704.5,-20 1653.25,-20 1653.25,0 1704.5,0 1704.5,-20"/>
<text xml:space="preserve" text-anchor="middle" x="1678.88" y="-6.5" font-family="Helvetica,sans-Serif" font-size="10.00">sstream</text>
</a>
</g>
</g>
<!-- Node21&#45;&gt;Node24 -->
<g id="edge46_Node000021_Node000024" class="edge">
<title>Node21&#45;&gt;Node24</title>
<g id="a_edge46_Node000021_Node000024"><a xlink:title=" ">
<path fill="none" stroke="#63b8ff" d="M1648.32,-55.59C1653.2,-48.47 1660.07,-38.45 1666.05,-29.72"/>
<polygon fill="#63b8ff" stroke="#63b8ff" points="1668.88,-31.77 1671.65,-21.55 1663.11,-27.82 1668.88,-31.77"/>
</a>
</g>
</g>
<!-- Node25&#45;&gt;Node12 -->
<g id="edge51_Node000025_Node000012" class="edge">
<title>Node25&#45;&gt;Node12</title>
<g id="a_edge51_Node000025_Node000012"><a xlink:title=" ">
<path fill="none" stroke="#63b8ff" d="M1788.36,-117.55C1715.22,-104.74 1592.1,-82.7 1571.88,-76 1552.63,-69.62 1550.31,-61.77 1530.88,-56 1412.53,-20.84 1264.52,-13.14 1200.64,-11.46"/>
<polygon fill="#63b8ff" stroke="#63b8ff" points="1200.96,-7.97 1190.88,-11.24 1200.8,-14.96 1200.96,-7.97"/>
</a>
</g>
</g>
<!-- Node25&#45;&gt;Node21 -->
<g id="edge49_Node000025_Node000021" class="edge">
<title>Node25&#45;&gt;Node21</title>
<g id="a_edge49_Node000025_Node000021"><a xlink:title=" ">
<path fill="none" stroke="#63b8ff" d="M1811.47,-117.62C1777.2,-107.4 1722.16,-90.97 1684.12,-79.61"/>
<polygon fill="#63b8ff" stroke="#63b8ff" points="1685.43,-76.35 1674.84,-76.84 1683.42,-83.06 1685.43,-76.35"/>
</a>
</g>
</g>
<!-- Node25&#45;&gt;Node23 -->
<g id="edge50_Node000025_Node000023" class="edge">
<title>Node25&#45;&gt;Node23</title>
<g id="a_edge50_Node000025_Node000023"><a xlink:title=" ">
<path fill="none" stroke="#63b8ff" d="M1849.26,-117.51C1862.12,-98.38 1891.36,-54.89 1908.23,-29.8"/>
<polygon fill="#63b8ff" stroke="#63b8ff" points="1911.1,-31.81 1913.78,-21.56 1905.29,-27.9 1911.1,-31.81"/>
</a>
</g>
</g>
<!-- Node26&#45;&gt;Node21 -->
<g id="edge53_Node000026_Node000021" class="edge">
<title>Node26&#45;&gt;Node21</title>
<g id="a_edge53_Node000026_Node000021"><a xlink:title=" ">
<path fill="none" stroke="#63b8ff" d="M1642.72,-117.62C1642.58,-109.56 1642.39,-97.65 1642.22,-87.41"/>
<polygon fill="#63b8ff" stroke="#63b8ff" points="1645.72,-87.57 1642.05,-77.63 1638.72,-87.68 1645.72,-87.57"/>
</a>
</g>
</g>
<!-- Node27&#45;&gt;Node6 -->
<g id="edge57_Node000027_Node000006" class="edge">
<title>Node27&#45;&gt;Node6</title>
<g id="a_edge57_Node000027_Node000006"><a xlink:title=" ">
<path fill="none" stroke="#63b8ff" d="M579.56,-114.3C584.06,-113.48 588.53,-112.7 592.88,-112 728.07,-90.2 763.63,-97.45 898.88,-76 899.87,-75.84 900.88,-75.68 901.9,-75.51"/>
<polygon fill="#63b8ff" stroke="#63b8ff" points="902.23,-79 911.46,-73.79 901,-72.11 902.23,-79"/>
</a>
</g>
</g>
<!-- Node27&#45;&gt;Node8 -->
<g id="edge55_Node000027_Node000008" class="edge">
<title>Node27&#45;&gt;Node8</title>
<g id="a_edge55_Node000027_Node000008"><a xlink:title=" ">
<path fill="none" stroke="#63b8ff" d="M579.69,-114.5C629.99,-103.98 701.36,-89.06 750.63,-78.76"/>
<polygon fill="#63b8ff" stroke="#63b8ff" points="751.16,-82.22 760.23,-76.75 749.73,-75.37 751.16,-82.22"/>
</a>
</g>
</g>
<!-- Node27&#45;&gt;Node9 -->
<g id="edge56_Node000027_Node000009" class="edge">
<title>Node27&#45;&gt;Node9</title>
<g id="a_edge56_Node000027_Node000009"><a xlink:title=" ">
<path fill="none" stroke="#63b8ff" d="M562.64,-111.6C608.07,-95.73 682.25,-71.22 747.88,-56 839.24,-34.81 949.15,-20.83 1003.7,-14.64"/>
<polygon fill="#63b8ff" stroke="#63b8ff" points="1004.04,-18.13 1013.59,-13.54 1003.27,-11.17 1004.04,-18.13"/>
</a>
</g>
</g>
<!-- Node27&#45;&gt;Node12 -->
<g id="edge58_Node000027_Node000012" class="edge">
<title>Node27&#45;&gt;Node12</title>
<g id="a_edge58_Node000027_Node000012"><a xlink:title=" ">
<path fill="none" stroke="#63b8ff" d="M579.65,-117.43C591.33,-115.6 603.48,-113.72 614.88,-112 726.31,-95.21 758.67,-110.75 865.88,-76 884.03,-70.11 885.8,-62.12 903.88,-56 985.14,-28.5 1086.35,-17.29 1136.95,-13.15"/>
<polygon fill="#63b8ff" stroke="#63b8ff" points="1137.19,-16.65 1146.89,-12.39 1136.65,-9.67 1137.19,-16.65"/>
</a>
</g>
</g>
<!-- Node28&#45;&gt;Node12 -->
<g id="edge60_Node000028_Node000012" class="edge">
<title>Node28&#45;&gt;Node12</title>
<g id="a_edge60_Node000028_Node000012"><a xlink:title=" ">
<path fill="none" stroke="#63b8ff" d="M1394.83,-55.53C1338.8,-44.49 1247.8,-26.55 1200.18,-17.17"/>
<polygon fill="#63b8ff" stroke="#63b8ff" points="1201.03,-13.77 1190.54,-15.27 1199.68,-20.64 1201.03,-13.77"/>
</a>
</g>
</g>
</g>
</svg>
