<?xml version="1.0" encoding="UTF-8" standalone="no"?>
<!DOCTYPE svg PUBLIC "-//W3C//DTD SVG 1.1//EN"
 "http://www.w3.org/Graphics/SVG/1.1/DTD/svg11.dtd">
<!-- Generated by graphviz version 13.1.2 (20250808.2320)
 -->
<!-- Title: src/Utils/Filesystem/FileWriter.hpp Pages: 1 -->
<svg width="397pt" height="208pt"
 viewBox="0.00 0.00 397.00 208.00" xmlns="http://www.w3.org/2000/svg" xmlns:xlink="http://www.w3.org/1999/xlink">
<g id="graph0" class="graph" transform="scale(1 1) rotate(0) translate(4 204)">
<title>src/Utils/Filesystem/FileWriter.hpp</title>
<!-- Node1 -->
<g id="Node000001" class="node">
<title>Node1</title>
<g id="a_Node000001"><a xlink:title=" ">
<polygon fill="#999999" stroke="#666666" points="290.5,-200 186.75,-200 186.75,-168 290.5,-168 290.5,-200"/>
<text xml:space="preserve" text-anchor="start" x="194.75" y="-186.5" font-family="Helvetica,sans-Serif" font-size="10.00">src/Utils/Filesystem</text>
<text xml:space="preserve" text-anchor="middle" x="238.62" y="-174.5" font-family="Helvetica,sans-Serif" font-size="10.00">/FileWriter.hpp</text>
</a>
</g>
</g>
<!-- Node2 -->
<g id="Node000002" class="node">
<title>Node2</title>
<g id="a_Node000002"><a xlink:href="IFileWriter_8hpp.html" target="_top" xlink:title=" ">
<polygon fill="white" stroke="#666666" points="315.25,-132 162,-132 162,-112 315.25,-112 315.25,-132"/>
<text xml:space="preserve" text-anchor="middle" x="238.62" y="-118.5" font-family="Helvetica,sans-Serif" font-size="10.00">Utils/Filesystem/IFileWriter.hpp</text>
</a>
</g>
</g>
<!-- Node1&#45;&gt;Node2 -->
<g id="edge1_Node000001_Node000002" class="edge">
<title>Node1&#45;&gt;Node2</title>
<g id="a_edge1_Node000001_Node000002"><a xlink:title=" ">
<path fill="none" stroke="#63b8ff" d="M238.62,-167.55C238.62,-160.34 238.62,-151.66 238.62,-143.88"/>
<polygon fill="#63b8ff" stroke="#63b8ff" points="242.13,-143.92 238.63,-133.92 235.13,-143.92 242.13,-143.92"/>
</a>
</g>
</g>
<!-- Node3 -->
<g id="Node000003" class="node">
<title>Node3</title>
<g id="a_Node000003"><a xlink:href="UtilsError_8hpp.html" target="_top" xlink:title=" ">
<polygon fill="white" stroke="#666666" points="210.25,-76 111,-76 111,-56 210.25,-56 210.25,-76"/>
<text xml:space="preserve" text-anchor="middle" x="160.62" y="-62.5" font-family="Helvetica,sans-Serif" font-size="10.00">Utils/UtilsError.hpp</text>
</a>
</g>
</g>
<!-- Node2&#45;&gt;Node3 -->
<g id="edge2_Node000002_Node000003" class="edge">
<title>Node2&#45;&gt;Node3</title>
<g id="a_edge2_Node000002_Node000003"><a xlink:title=" ">
<path fill="none" stroke="#63b8ff" d="M225.04,-111.59C213.59,-103.67 196.96,-92.16 183.47,-82.82"/>
<polygon fill="#63b8ff" stroke="#63b8ff" points="185.78,-80.16 175.56,-77.34 181.79,-85.91 185.78,-80.16"/>
</a>
</g>
</g>
<!-- Node4 -->
<g id="Node000004" class="node">
<title>Node4</title>
<g id="a_Node000004"><a xlink:title=" ">
<polygon fill="#e0e0e0" stroke="#999999" points="45.25,-20 0,-20 0,0 45.25,0 45.25,-20"/>
<text xml:space="preserve" text-anchor="middle" x="22.62" y="-6.5" font-family="Helvetica,sans-Serif" font-size="10.00">cstdint</text>
</a>
</g>
</g>
<!-- Node2&#45;&gt;Node4 -->
<g id="edge8_Node000002_Node000004" class="edge">
<title>Node2&#45;&gt;Node4</title>
<g id="a_edge8_Node000002_Node000004"><a xlink:title=" ">
<path fill="none" stroke="#63b8ff" d="M196.51,-111.5C168.53,-104.17 131.57,-92.47 101.62,-76 77.95,-62.98 54.51,-42.47 39.39,-27.98"/>
<polygon fill="#63b8ff" stroke="#63b8ff" points="42.18,-25.82 32.59,-21.31 37.28,-30.81 42.18,-25.82"/>
</a>
</g>
</g>
<!-- Node7 -->
<g id="Node000007" class="node">
<title>Node7</title>
<g id="a_Node000007"><a xlink:title=" ">
<polygon fill="#e0e0e0" stroke="#999999" points="311.62,-20 271.62,-20 271.62,0 311.62,0 311.62,-20"/>
<text xml:space="preserve" text-anchor="middle" x="291.62" y="-6.5" font-family="Helvetica,sans-Serif" font-size="10.00">string</text>
</a>
</g>
</g>
<!-- Node2&#45;&gt;Node7 -->
<g id="edge10_Node000002_Node000007" class="edge">
<title>Node2&#45;&gt;Node7</title>
<g id="a_edge10_Node000002_Node000007"><a xlink:title=" ">
<path fill="none" stroke="#63b8ff" d="M240.44,-111.8C243.21,-98.87 249.19,-74.78 258.62,-56 263.33,-46.63 269.96,-37.13 276.05,-29.3"/>
<polygon fill="#63b8ff" stroke="#63b8ff" points="278.74,-31.54 282.32,-21.56 273.3,-27.12 278.74,-31.54"/>
</a>
</g>
</g>
<!-- Node9 -->
<g id="Node000009" class="node">
<title>Node9</title>
<g id="a_Node000009"><a xlink:title=" ">
<polygon fill="#e0e0e0" stroke="#999999" points="328.12,-76 267.12,-76 267.12,-56 328.12,-56 328.12,-76"/>
<text xml:space="preserve" text-anchor="middle" x="297.62" y="-62.5" font-family="Helvetica,sans-Serif" font-size="10.00">filesystem</text>
</a>
</g>
</g>
<!-- Node2&#45;&gt;Node9 -->
<g id="edge9_Node000002_Node000009" class="edge">
<title>Node2&#45;&gt;Node9</title>
<g id="a_edge9_Node000002_Node000009"><a xlink:title=" ">
<path fill="none" stroke="#63b8ff" d="M248.9,-111.59C257.19,-104.01 269.07,-93.13 279.03,-84.02"/>
<polygon fill="#63b8ff" stroke="#63b8ff" points="281.34,-86.65 286.35,-77.32 276.61,-81.49 281.34,-86.65"/>
</a>
</g>
</g>
<!-- Node10 -->
<g id="Node000010" class="node">
<title>Node10</title>
<g id="a_Node000010"><a xlink:title=" ">
<polygon fill="#e0e0e0" stroke="#999999" points="389.12,-76 346.12,-76 346.12,-56 389.12,-56 389.12,-76"/>
<text xml:space="preserve" text-anchor="middle" x="367.62" y="-62.5" font-family="Helvetica,sans-Serif" font-size="10.00">vector</text>
</a>
</g>
</g>
<!-- Node2&#45;&gt;Node10 -->
<g id="edge11_Node000002_Node000010" class="edge">
<title>Node2&#45;&gt;Node10</title>
<g id="a_edge11_Node000002_Node000010"><a xlink:title=" ">
<path fill="none" stroke="#63b8ff" d="M261.1,-111.59C281.66,-102.99 312.32,-90.15 335.48,-80.46"/>
<polygon fill="#63b8ff" stroke="#63b8ff" points="336.57,-83.79 344.45,-76.7 333.87,-77.34 336.57,-83.79"/>
</a>
</g>
</g>
<!-- Node3&#45;&gt;Node4 -->
<g id="edge3_Node000003_Node000004" class="edge">
<title>Node3&#45;&gt;Node4</title>
<g id="a_edge3_Node000003_Node000004"><a xlink:title=" ">
<path fill="none" stroke="#63b8ff" d="M136.59,-55.59C114.25,-46.85 80.79,-33.76 55.9,-24.02"/>
<polygon fill="#63b8ff" stroke="#63b8ff" points="57.47,-20.88 46.88,-20.49 54.92,-27.39 57.47,-20.88"/>
</a>
</g>
</g>
<!-- Node5 -->
<g id="Node000005" class="node">
<title>Node5</title>
<g id="a_Node000005"><a xlink:title=" ">
<polygon fill="#e0e0e0" stroke="#999999" points="113.5,-20 63.75,-20 63.75,0 113.5,0 113.5,-20"/>
<text xml:space="preserve" text-anchor="middle" x="88.62" y="-6.5" font-family="Helvetica,sans-Serif" font-size="10.00">optional</text>
</a>
</g>
</g>
<!-- Node3&#45;&gt;Node5 -->
<g id="edge4_Node000003_Node000005" class="edge">
<title>Node3&#45;&gt;Node5</title>
<g id="a_edge4_Node000003_Node000005"><a xlink:title=" ">
<path fill="none" stroke="#63b8ff" d="M148.08,-55.59C137.66,-47.77 122.58,-36.46 110.21,-27.19"/>
<polygon fill="#63b8ff" stroke="#63b8ff" points="112.33,-24.41 102.23,-21.21 108.13,-30.01 112.33,-24.41"/>
</a>
</g>
</g>
<!-- Node6 -->
<g id="Node000006" class="node">
<title>Node6</title>
<g id="a_Node000006"><a xlink:title=" ">
<polygon fill="#e0e0e0" stroke="#999999" points="190,-20 131.25,-20 131.25,0 190,0 190,-20"/>
<text xml:space="preserve" text-anchor="middle" x="160.62" y="-6.5" font-family="Helvetica,sans-Serif" font-size="10.00">stdexcept</text>
</a>
</g>
</g>
<!-- Node3&#45;&gt;Node6 -->
<g id="edge5_Node000003_Node000006" class="edge">
<title>Node3&#45;&gt;Node6</title>
<g id="a_edge5_Node000003_Node000006"><a xlink:title=" ">
<path fill="none" stroke="#63b8ff" d="M160.62,-55.59C160.62,-49.01 160.62,-39.96 160.62,-31.73"/>
<polygon fill="#63b8ff" stroke="#63b8ff" points="164.13,-31.81 160.63,-21.81 157.13,-31.81 164.13,-31.81"/>
</a>
</g>
</g>
<!-- Node3&#45;&gt;Node7 -->
<g id="edge6_Node000003_Node000007" class="edge">
<title>Node3&#45;&gt;Node7</title>
<g id="a_edge6_Node000003_Node000007"><a xlink:title=" ">
<path fill="none" stroke="#63b8ff" d="M183.44,-55.59C204.83,-46.78 236.98,-33.53 260.67,-23.76"/>
<polygon fill="#63b8ff" stroke="#63b8ff" points="261.91,-27.04 269.82,-19.99 259.24,-20.56 261.91,-27.04"/>
</a>
</g>
</g>
<!-- Node8 -->
<g id="Node000008" class="node">
<title>Node8</title>
<g id="a_Node000008"><a xlink:title=" ">
<polygon fill="#e0e0e0" stroke="#999999" points="253.25,-20 208,-20 208,0 253.25,0 253.25,-20"/>
<text xml:space="preserve" text-anchor="middle" x="230.62" y="-6.5" font-family="Helvetica,sans-Serif" font-size="10.00">variant</text>
</a>
</g>
</g>
<!-- Node3&#45;&gt;Node8 -->
<g id="edge7_Node000003_Node000008" class="edge">
<title>Node3&#45;&gt;Node8</title>
<g id="a_edge7_Node000003_Node000008"><a xlink:title=" ">
<path fill="none" stroke="#63b8ff" d="M172.82,-55.59C182.96,-47.77 197.62,-36.46 209.64,-27.19"/>
<polygon fill="#63b8ff" stroke="#63b8ff" points="211.59,-30.1 217.37,-21.22 207.32,-24.56 211.59,-30.1"/>
</a>
</g>
</g>
</g>
</svg>
