<?xml version="1.0" encoding="UTF-8" standalone="no"?>
<!DOCTYPE svg PUBLIC "-//W3C//DTD SVG 1.1//EN"
 "http://www.w3.org/Graphics/SVG/1.1/DTD/svg11.dtd">
<!-- Generated by graphviz version 13.1.2 (20250808.2320)
 -->
<!-- Title: src/Utils/Assets/IAssetManager.hpp Pages: 1 -->
<svg width="1011pt" height="288pt"
 viewBox="0.00 0.00 1011.00 288.00" xmlns="http://www.w3.org/2000/svg" xmlns:xlink="http://www.w3.org/1999/xlink">
<g id="graph0" class="graph" transform="scale(1 1) rotate(0) translate(4 284)">
<title>src/Utils/Assets/IAssetManager.hpp</title>
<!-- Node1 -->
<g id="Node000001" class="node">
<title>Node1</title>
<g id="a_Node000001"><a xlink:title=" ">
<polygon fill="#999999" stroke="#666666" points="478,-280 303.75,-280 303.75,-260 478,-260 478,-280"/>
<text xml:space="preserve" text-anchor="middle" x="390.88" y="-266.5" font-family="Helvetica,sans-Serif" font-size="10.00">src/Utils/Assets/IAssetManager.hpp</text>
</a>
</g>
</g>
<!-- Node2 -->
<g id="Node000002" class="node">
<title>Node2</title>
<g id="a_Node000002"><a xlink:href="MockAssetManager_8hpp.html" target="_top" xlink:title=" ">
<polygon fill="white" stroke="#666666" points="139.75,-224 0,-224 0,-192 139.75,-192 139.75,-224"/>
<text xml:space="preserve" text-anchor="start" x="8" y="-210.5" font-family="Helvetica,sans-Serif" font-size="10.00">application/tests/MockAsset</text>
<text xml:space="preserve" text-anchor="middle" x="69.88" y="-198.5" font-family="Helvetica,sans-Serif" font-size="10.00">Manager.hpp</text>
</a>
</g>
</g>
<!-- Node1&#45;&gt;Node2 -->
<g id="edge1_Node000001_Node000002" class="edge">
<title>Node1&#45;&gt;Node2</title>
<g id="a_edge1_Node000001_Node000002"><a xlink:title=" ">
<path fill="none" stroke="#63b8ff" d="M329.21,-257.47C275.13,-247.37 196.54,-232.68 140.06,-222.12"/>
<polygon fill="#63b8ff" stroke="#63b8ff" points="328.4,-260.88 338.88,-259.28 329.69,-254 328.4,-260.88"/>
</a>
</g>
</g>
<!-- Node4 -->
<g id="Node000004" class="node">
<title>Node4</title>
<g id="a_Node000004"><a xlink:href="AssetManager_8hpp.html" target="_top" xlink:title=" ">
<polygon fill="white" stroke="#666666" points="351.5,-218 180.25,-218 180.25,-198 351.5,-198 351.5,-218"/>
<text xml:space="preserve" text-anchor="middle" x="265.88" y="-204.5" font-family="Helvetica,sans-Serif" font-size="10.00">src/Utils/Assets/AssetManager.hpp</text>
</a>
</g>
</g>
<!-- Node1&#45;&gt;Node4 -->
<g id="edge3_Node000001_Node000004" class="edge">
<title>Node1&#45;&gt;Node4</title>
<g id="a_edge3_Node000001_Node000004"><a xlink:title=" ">
<path fill="none" stroke="#63b8ff" d="M361.23,-254.77C337.73,-243.49 305.58,-228.06 285.27,-218.31"/>
<polygon fill="#63b8ff" stroke="#63b8ff" points="359.45,-257.8 369.98,-258.97 362.48,-251.49 359.45,-257.8"/>
</a>
</g>
</g>
<!-- Node6 -->
<g id="Node000006" class="node">
<title>Node6</title>
<g id="a_Node000006"><a xlink:href="AssetManagerFactory_8hpp.html" target="_top" xlink:title=" ">
<polygon fill="white" stroke="#666666" points="467.12,-156 314.62,-156 314.62,-124 467.12,-124 467.12,-156"/>
<text xml:space="preserve" text-anchor="start" x="322.62" y="-142.5" font-family="Helvetica,sans-Serif" font-size="10.00">src/Utils/Assets/AssetManager</text>
<text xml:space="preserve" text-anchor="middle" x="390.88" y="-130.5" font-family="Helvetica,sans-Serif" font-size="10.00">Factory.hpp</text>
</a>
</g>
</g>
<!-- Node1&#45;&gt;Node6 -->
<g id="edge9_Node000001_Node000006" class="edge">
<title>Node1&#45;&gt;Node6</title>
<g id="a_edge9_Node000001_Node000006"><a xlink:title=" ">
<path fill="none" stroke="#63b8ff" d="M390.88,-248.46C390.88,-222.73 390.88,-179.24 390.88,-156.27"/>
<polygon fill="#63b8ff" stroke="#63b8ff" points="387.38,-248.28 390.88,-258.28 394.38,-248.28 387.38,-248.28"/>
</a>
</g>
</g>
<!-- Node8 -->
<g id="Node000008" class="node">
<title>Node8</title>
<g id="a_Node000008"><a xlink:href="CustomStringsLoader_8hpp.html" target="_top" xlink:title=" ">
<polygon fill="white" stroke="#666666" points="567.38,-224 422.38,-224 422.38,-192 567.38,-192 567.38,-224"/>
<text xml:space="preserve" text-anchor="start" x="430.38" y="-210.5" font-family="Helvetica,sans-Serif" font-size="10.00">src/Utils/Json/CustomStrings</text>
<text xml:space="preserve" text-anchor="middle" x="494.88" y="-198.5" font-family="Helvetica,sans-Serif" font-size="10.00">Loader.hpp</text>
</a>
</g>
</g>
<!-- Node1&#45;&gt;Node8 -->
<g id="edge10_Node000001_Node000008" class="edge">
<title>Node1&#45;&gt;Node8</title>
<g id="a_edge10_Node000001_Node000008"><a xlink:title=" ">
<path fill="none" stroke="#63b8ff" d="M416.73,-254.08C432.42,-245.03 452.4,-233.51 468.23,-224.37"/>
<polygon fill="#63b8ff" stroke="#63b8ff" points="415.35,-250.84 408.44,-258.87 418.85,-256.9 415.35,-250.84"/>
</a>
</g>
</g>
<!-- Node10 -->
<g id="Node000010" class="node">
<title>Node10</title>
<g id="a_Node000010"><a xlink:href="UtilsFactory_8hpp.html" target="_top" xlink:title=" ">
<polygon fill="white" stroke="#666666" points="798.38,-218 671.38,-218 671.38,-198 798.38,-198 798.38,-218"/>
<text xml:space="preserve" text-anchor="middle" x="734.88" y="-204.5" font-family="Helvetica,sans-Serif" font-size="10.00">src/Utils/UtilsFactory.hpp</text>
</a>
</g>
</g>
<!-- Node1&#45;&gt;Node10 -->
<g id="edge13_Node000001_Node000010" class="edge">
<title>Node1&#45;&gt;Node10</title>
<g id="a_edge13_Node000001_Node000010"><a xlink:title=" ">
<path fill="none" stroke="#63b8ff" d="M456.33,-257.58C521.29,-246.25 619.7,-229.09 680.49,-218.48"/>
<polygon fill="#63b8ff" stroke="#63b8ff" points="455.74,-254.13 446.49,-259.3 456.95,-261.03 455.74,-254.13"/>
</a>
</g>
</g>
<!-- Node3 -->
<g id="Node000003" class="node">
<title>Node3</title>
<g id="a_Node000003"><a xlink:href="AssetManagerTest_8cpp.html" target="_top" xlink:title=" ">
<polygon fill="white" stroke="#666666" points="173.5,-88 20.25,-88 20.25,-56 173.5,-56 173.5,-88"/>
<text xml:space="preserve" text-anchor="start" x="28.25" y="-74.5" font-family="Helvetica,sans-Serif" font-size="10.00">application/tests/AssetManager</text>
<text xml:space="preserve" text-anchor="middle" x="96.88" y="-62.5" font-family="Helvetica,sans-Serif" font-size="10.00">Test.cpp</text>
</a>
</g>
</g>
<!-- Node2&#45;&gt;Node3 -->
<g id="edge2_Node000002_Node000003" class="edge">
<title>Node2&#45;&gt;Node3</title>
<g id="a_edge2_Node000002_Node000003"><a xlink:title=" ">
<path fill="none" stroke="#63b8ff" d="M73.29,-180.2C75.57,-163.88 78.87,-142.64 82.88,-124 85.5,-111.79 89.29,-98.16 92.26,-88.06"/>
<polygon fill="#63b8ff" stroke="#63b8ff" points="69.82,-179.73 71.96,-190.11 76.76,-180.66 69.82,-179.73"/>
</a>
</g>
</g>
<!-- Node4&#45;&gt;Node3 -->
<g id="edge4_Node000004_Node000003" class="edge">
<title>Node4&#45;&gt;Node3</title>
<g id="a_edge4_Node000004_Node000003"><a xlink:title=" ">
<path fill="none" stroke="#63b8ff" d="M182.22,-194.56C157.83,-187.08 133.13,-175.12 115.88,-156 99.04,-137.34 96.19,-106.86 96.17,-88.49"/>
<polygon fill="#63b8ff" stroke="#63b8ff" points="180.98,-197.84 191.55,-197.18 182.87,-191.1 180.98,-197.84"/>
</a>
</g>
</g>
<!-- Node5 -->
<g id="Node000005" class="node">
<title>Node5</title>
<g id="a_Node000005"><a xlink:href="AssetManager_8cpp.html" target="_top" xlink:title=" ">
<polygon fill="white" stroke="#666666" points="296.5,-150 125.25,-150 125.25,-130 296.5,-130 296.5,-150"/>
<text xml:space="preserve" text-anchor="middle" x="210.88" y="-136.5" font-family="Helvetica,sans-Serif" font-size="10.00">src/Utils/Assets/AssetManager.cpp</text>
</a>
</g>
</g>
<!-- Node4&#45;&gt;Node5 -->
<g id="edge5_Node000004_Node000005" class="edge">
<title>Node4&#45;&gt;Node5</title>
<g id="a_edge5_Node000004_Node000005"><a xlink:title=" ">
<path fill="none" stroke="#63b8ff" d="M250.78,-188.88C240.41,-176.44 227.07,-160.43 218.74,-150.44"/>
<polygon fill="#63b8ff" stroke="#63b8ff" points="247.94,-190.94 257.03,-196.38 253.31,-186.46 247.94,-190.94"/>
</a>
</g>
</g>
<!-- Node4&#45;&gt;Node6 -->
<g id="edge6_Node000004_Node000006" class="edge">
<title>Node4&#45;&gt;Node6</title>
<g id="a_edge6_Node000004_Node000006"><a xlink:title=" ">
<path fill="none" stroke="#63b8ff" d="M293.94,-192.18C314.19,-181.49 341.44,-167.1 361.9,-156.3"/>
<polygon fill="#63b8ff" stroke="#63b8ff" points="292.33,-189.07 285.12,-196.84 295.6,-195.26 292.33,-189.07"/>
</a>
</g>
</g>
<!-- Node6&#45;&gt;Node3 -->
<g id="edge7_Node000006_Node000003" class="edge">
<title>Node6&#45;&gt;Node3</title>
<g id="a_edge7_Node000006_Node000003"><a xlink:title=" ">
<path fill="none" stroke="#63b8ff" d="M310.95,-121.06C265.57,-110.87 209.33,-98.24 165.88,-88.49"/>
<polygon fill="#63b8ff" stroke="#63b8ff" points="309.94,-124.42 320.47,-123.19 311.48,-117.59 309.94,-124.42"/>
</a>
</g>
</g>
<!-- Node7 -->
<g id="Node000007" class="node">
<title>Node7</title>
<g id="a_Node000007"><a xlink:href="UtilsFactory_8cpp.html" target="_top" xlink:title=" ">
<polygon fill="white" stroke="#666666" points="558.38,-82 431.38,-82 431.38,-62 558.38,-62 558.38,-82"/>
<text xml:space="preserve" text-anchor="middle" x="494.88" y="-68.5" font-family="Helvetica,sans-Serif" font-size="10.00">src/Utils/UtilsFactory.cpp</text>
</a>
</g>
</g>
<!-- Node6&#45;&gt;Node7 -->
<g id="edge8_Node000006_Node000007" class="edge">
<title>Node6&#45;&gt;Node7</title>
<g id="a_edge8_Node000006_Node000007"><a xlink:title=" ">
<path fill="none" stroke="#63b8ff" d="M424.89,-117.41C443.52,-105.59 465.65,-91.54 479.97,-82.46"/>
<polygon fill="#63b8ff" stroke="#63b8ff" points="423.1,-114.4 416.54,-122.71 426.86,-120.31 423.1,-114.4"/>
</a>
</g>
</g>
<!-- Node8&#45;&gt;Node7 -->
<g id="edge12_Node000008_Node000007" class="edge">
<title>Node8&#45;&gt;Node7</title>
<g id="a_edge12_Node000008_Node000007"><a xlink:title=" ">
<path fill="none" stroke="#63b8ff" d="M494.88,-180.21C494.88,-149.9 494.88,-102.16 494.88,-82.22"/>
<polygon fill="#63b8ff" stroke="#63b8ff" points="491.38,-180.11 494.88,-190.11 498.38,-180.11 491.38,-180.11"/>
</a>
</g>
</g>
<!-- Node9 -->
<g id="Node000009" class="node">
<title>Node9</title>
<g id="a_Node000009"><a xlink:href="CustomStringsLoader_8cpp.html" target="_top" xlink:title=" ">
<polygon fill="white" stroke="#666666" points="668.38,-156 523.38,-156 523.38,-124 668.38,-124 668.38,-156"/>
<text xml:space="preserve" text-anchor="start" x="531.38" y="-142.5" font-family="Helvetica,sans-Serif" font-size="10.00">src/Utils/Json/CustomStrings</text>
<text xml:space="preserve" text-anchor="middle" x="595.88" y="-130.5" font-family="Helvetica,sans-Serif" font-size="10.00">Loader.cpp</text>
</a>
</g>
</g>
<!-- Node8&#45;&gt;Node9 -->
<g id="edge11_Node000008_Node000009" class="edge">
<title>Node8&#45;&gt;Node9</title>
<g id="a_edge11_Node000008_Node000009"><a xlink:title=" ">
<path fill="none" stroke="#63b8ff" d="M528.15,-185.25C542.61,-175.81 559.2,-164.97 572.34,-156.38"/>
<polygon fill="#63b8ff" stroke="#63b8ff" points="526.28,-182.3 519.82,-190.7 530.11,-188.16 526.28,-182.3"/>
</a>
</g>
</g>
<!-- Node10&#45;&gt;Node7 -->
<g id="edge21_Node000010_Node000007" class="edge">
<title>Node10&#45;&gt;Node7</title>
<g id="a_edge21_Node000010_Node000007"><a xlink:title=" ">
<path fill="none" stroke="#63b8ff" d="M726.27,-187.24C717,-168.26 700.49,-140.16 677.88,-124 642.86,-98.98 595.98,-86.21 558.45,-79.71"/>
<polygon fill="#63b8ff" stroke="#63b8ff" points="723.09,-188.7 730.45,-196.32 729.44,-185.77 723.09,-188.7"/>
</a>
</g>
</g>
<!-- Node11 -->
<g id="Node000011" class="node">
<title>Node11</title>
<g id="a_Node000011"><a xlink:href="Application_8cpp.html" target="_top" xlink:title=" ">
<polygon fill="white" stroke="#666666" points="809.25,-20 660.5,-20 660.5,0 809.25,0 809.25,-20"/>
<text xml:space="preserve" text-anchor="middle" x="734.88" y="-6.5" font-family="Helvetica,sans-Serif" font-size="10.00">application/src/Application.cpp</text>
</a>
</g>
</g>
<!-- Node10&#45;&gt;Node11 -->
<g id="edge14_Node000010_Node000011" class="edge">
<title>Node10&#45;&gt;Node11</title>
<g id="a_edge14_Node000010_Node000011"><a xlink:title=" ">
<path fill="none" stroke="#63b8ff" d="M734.88,-186.29C734.88,-144.24 734.88,-50.3 734.88,-20.36"/>
<polygon fill="#63b8ff" stroke="#63b8ff" points="731.38,-186.03 734.88,-196.03 738.38,-186.03 731.38,-186.03"/>
</a>
</g>
</g>
<!-- Node12 -->
<g id="Node000012" class="node">
<title>Node12</title>
<g id="a_Node000012"><a xlink:href="EmojiModuleLib_8hpp.html" target="_top" xlink:title=" ">
<polygon fill="white" stroke="#666666" points="881.25,-88 762.5,-88 762.5,-56 881.25,-56 881.25,-88"/>
<text xml:space="preserve" text-anchor="start" x="770.5" y="-74.5" font-family="Helvetica,sans-Serif" font-size="10.00">include/EmojiModuleLib</text>
<text xml:space="preserve" text-anchor="middle" x="821.88" y="-62.5" font-family="Helvetica,sans-Serif" font-size="10.00">/EmojiModuleLib.hpp</text>
</a>
</g>
</g>
<!-- Node10&#45;&gt;Node12 -->
<g id="edge15_Node000010_Node000012" class="edge">
<title>Node10&#45;&gt;Node12</title>
<g id="a_edge15_Node000010_Node000012"><a xlink:title=" ">
<path fill="none" stroke="#63b8ff" d="M746.93,-188.43C764.28,-161.72 795.93,-112.96 811.98,-88.24"/>
<polygon fill="#63b8ff" stroke="#63b8ff" points="744.19,-186.23 741.68,-196.52 750.06,-190.04 744.19,-186.23"/>
</a>
</g>
</g>
<!-- Node14 -->
<g id="Node000014" class="node">
<title>Node14</title>
<g id="a_Node000014"><a xlink:href="Emoji_8hpp.html" target="_top" xlink:title=" ">
<polygon fill="white" stroke="#666666" points="904.75,-150 801,-150 801,-130 904.75,-130 904.75,-150"/>
<text xml:space="preserve" text-anchor="middle" x="852.88" y="-136.5" font-family="Helvetica,sans-Serif" font-size="10.00">src/Emoji/Emoji.hpp</text>
</a>
</g>
</g>
<!-- Node10&#45;&gt;Node14 -->
<g id="edge18_Node000010_Node000014" class="edge">
<title>Node10&#45;&gt;Node14</title>
<g id="a_edge18_Node000010_Node000014"><a xlink:title=" ">
<path fill="none" stroke="#63b8ff" d="M761.54,-192.09C784.37,-179.32 816.56,-161.31 836,-150.44"/>
<polygon fill="#63b8ff" stroke="#63b8ff" points="760.12,-188.87 753.1,-196.8 763.54,-194.98 760.12,-188.87"/>
</a>
</g>
</g>
<!-- Node12&#45;&gt;Node11 -->
<g id="edge16_Node000012_Node000011" class="edge">
<title>Node12&#45;&gt;Node11</title>
<g id="a_edge16_Node000012_Node000011"><a xlink:title=" ">
<path fill="none" stroke="#63b8ff" d="M790.37,-49.27C775.98,-39.35 759.7,-28.12 748.52,-20.41"/>
<polygon fill="#63b8ff" stroke="#63b8ff" points="788.01,-51.89 798.22,-54.69 791.98,-46.13 788.01,-51.89"/>
</a>
</g>
</g>
<!-- Node13 -->
<g id="Node000013" class="node">
<title>Node13</title>
<g id="a_Node000013"><a xlink:href="EmojiModuleLib_8cpp.html" target="_top" xlink:title=" ">
<polygon fill="white" stroke="#666666" points="948,-20 827.75,-20 827.75,0 948,0 948,-20"/>
<text xml:space="preserve" text-anchor="middle" x="887.88" y="-6.5" font-family="Helvetica,sans-Serif" font-size="10.00">src/EmojiModuleLib.cpp</text>
</a>
</g>
</g>
<!-- Node12&#45;&gt;Node13 -->
<g id="edge17_Node000012_Node000013" class="edge">
<title>Node12&#45;&gt;Node13</title>
<g id="a_edge17_Node000012_Node000013"><a xlink:title=" ">
<path fill="none" stroke="#63b8ff" d="M847.35,-47.84C857.86,-38.29 869.44,-27.76 877.53,-20.41"/>
<polygon fill="#63b8ff" stroke="#63b8ff" points="845.04,-45.21 839.99,-54.53 849.75,-50.39 845.04,-45.21"/>
</a>
</g>
</g>
<!-- Node14&#45;&gt;Node12 -->
<g id="edge19_Node000014_Node000012" class="edge">
<title>Node14&#45;&gt;Node12</title>
<g id="a_edge19_Node000014_Node000012"><a xlink:title=" ">
<path fill="none" stroke="#63b8ff" d="M843.67,-119.39C839,-109.45 833.41,-97.56 829.06,-88.3"/>
<polygon fill="#63b8ff" stroke="#63b8ff" points="840.37,-120.61 847.79,-128.17 846.71,-117.63 840.37,-120.61"/>
</a>
</g>
</g>
<!-- Node15 -->
<g id="Node000015" class="node">
<title>Node15</title>
<g id="a_Node000015"><a xlink:href="Emoji_8cpp.html" target="_top" xlink:title=" ">
<polygon fill="white" stroke="#666666" points="1002.75,-82 899,-82 899,-62 1002.75,-62 1002.75,-82"/>
<text xml:space="preserve" text-anchor="middle" x="950.88" y="-68.5" font-family="Helvetica,sans-Serif" font-size="10.00">src/Emoji/Emoji.cpp</text>
</a>
</g>
</g>
<!-- Node14&#45;&gt;Node15 -->
<g id="edge20_Node000014_Node000015" class="edge">
<title>Node14&#45;&gt;Node15</title>
<g id="a_edge20_Node000014_Node000015"><a xlink:title=" ">
<path fill="none" stroke="#63b8ff" d="M876.31,-123.22C895.18,-110.51 921.08,-93.07 936.86,-82.44"/>
<polygon fill="#63b8ff" stroke="#63b8ff" points="874.51,-120.21 868.17,-128.7 878.42,-126.02 874.51,-120.21"/>
</a>
</g>
</g>
</g>
</svg>
