<?xml version="1.0" encoding="UTF-8" standalone="no"?>
<!DOCTYPE svg PUBLIC "-//W3C//DTD SVG 1.1//EN"
 "http://www.w3.org/Graphics/SVG/1.1/DTD/svg11.dtd">
<!-- Generated by graphviz version 13.1.2 (20250808.2320)
 -->
<!-- Title: src/Utils/Filesystem/IDirectoryManager.hpp Pages: 1 -->
<svg width="564pt" height="300pt"
 viewBox="0.00 0.00 564.00 300.00" xmlns="http://www.w3.org/2000/svg" xmlns:xlink="http://www.w3.org/1999/xlink">
<g id="graph0" class="graph" transform="scale(1 1) rotate(0) translate(4 296)">
<title>src/Utils/Filesystem/IDirectoryManager.hpp</title>
<!-- Node1 -->
<g id="Node000001" class="node">
<title>Node1</title>
<g id="a_Node000001"><a xlink:title=" ">
<polygon fill="#999999" stroke="#666666" points="296.5,-292 178.5,-292 178.5,-260 296.5,-260 296.5,-292"/>
<text xml:space="preserve" text-anchor="start" x="186.5" y="-278.5" font-family="Helvetica,sans-Serif" font-size="10.00">src/Utils/Filesystem</text>
<text xml:space="preserve" text-anchor="middle" x="237.5" y="-266.5" font-family="Helvetica,sans-Serif" font-size="10.00">/IDirectoryManager.hpp</text>
</a>
</g>
</g>
<!-- Node2 -->
<g id="Node000002" class="node">
<title>Node2</title>
<g id="a_Node000002"><a xlink:href="DirectoryManager_8hpp.html" target="_top" xlink:title=" ">
<polygon fill="white" stroke="#666666" points="226,-224 111,-224 111,-192 226,-192 226,-224"/>
<text xml:space="preserve" text-anchor="start" x="119" y="-210.5" font-family="Helvetica,sans-Serif" font-size="10.00">src/Utils/Filesystem</text>
<text xml:space="preserve" text-anchor="middle" x="168.5" y="-198.5" font-family="Helvetica,sans-Serif" font-size="10.00">/DirectoryManager.hpp</text>
</a>
</g>
</g>
<!-- Node1&#45;&gt;Node2 -->
<g id="edge1_Node000001_Node000002" class="edge">
<title>Node1&#45;&gt;Node2</title>
<g id="a_edge1_Node000001_Node000002"><a xlink:title=" ">
<path fill="none" stroke="#63b8ff" d="M213.44,-251.99C203.83,-242.79 193.02,-232.46 184.42,-224.22"/>
<polygon fill="#63b8ff" stroke="#63b8ff" points="210.76,-254.26 220.4,-258.65 215.6,-249.2 210.76,-254.26"/>
</a>
</g>
</g>
<!-- Node5 -->
<g id="Node000005" class="node">
<title>Node5</title>
<g id="a_Node000005"><a xlink:href="UtilsFactory_8hpp.html" target="_top" xlink:title=" ">
<polygon fill="white" stroke="#666666" points="371,-218 244,-218 244,-198 371,-198 371,-218"/>
<text xml:space="preserve" text-anchor="middle" x="307.5" y="-204.5" font-family="Helvetica,sans-Serif" font-size="10.00">src/Utils/UtilsFactory.hpp</text>
</a>
</g>
</g>
<!-- Node1&#45;&gt;Node5 -->
<g id="edge4_Node000001_Node000005" class="edge">
<title>Node1&#45;&gt;Node5</title>
<g id="a_edge4_Node000001_Node000005"><a xlink:title=" ">
<path fill="none" stroke="#63b8ff" d="M261.85,-252.04C274.13,-240.46 288.36,-227.05 297.62,-218.32"/>
<polygon fill="#63b8ff" stroke="#63b8ff" points="259.71,-249.25 254.84,-258.65 264.51,-254.34 259.71,-249.25"/>
</a>
</g>
</g>
<!-- Node3 -->
<g id="Node000003" class="node">
<title>Node3</title>
<g id="a_Node000003"><a xlink:href="DirectoryManager_8cpp.html" target="_top" xlink:title=" ">
<polygon fill="white" stroke="#666666" points="115,-156 0,-156 0,-124 115,-124 115,-156"/>
<text xml:space="preserve" text-anchor="start" x="8" y="-142.5" font-family="Helvetica,sans-Serif" font-size="10.00">src/Utils/Filesystem</text>
<text xml:space="preserve" text-anchor="middle" x="57.5" y="-130.5" font-family="Helvetica,sans-Serif" font-size="10.00">/DirectoryManager.cpp</text>
</a>
</g>
</g>
<!-- Node2&#45;&gt;Node3 -->
<g id="edge2_Node000002_Node000003" class="edge">
<title>Node2&#45;&gt;Node3</title>
<g id="a_edge2_Node000002_Node000003"><a xlink:title=" ">
<path fill="none" stroke="#63b8ff" d="M132.84,-185.8C116.75,-176.23 98.08,-165.13 83.36,-156.38"/>
<polygon fill="#63b8ff" stroke="#63b8ff" points="130.79,-188.65 141.17,-190.75 134.37,-182.63 130.79,-188.65"/>
</a>
</g>
</g>
<!-- Node4 -->
<g id="Node000004" class="node">
<title>Node4</title>
<g id="a_Node000004"><a xlink:href="UtilsFactory_8cpp.html" target="_top" xlink:title=" ">
<polygon fill="white" stroke="#666666" points="260,-150 133,-150 133,-130 260,-130 260,-150"/>
<text xml:space="preserve" text-anchor="middle" x="196.5" y="-136.5" font-family="Helvetica,sans-Serif" font-size="10.00">src/Utils/UtilsFactory.cpp</text>
</a>
</g>
</g>
<!-- Node2&#45;&gt;Node4 -->
<g id="edge3_Node000002_Node000004" class="edge">
<title>Node2&#45;&gt;Node4</title>
<g id="a_edge3_Node000002_Node000004"><a xlink:title=" ">
<path fill="none" stroke="#63b8ff" d="M179.39,-181.34C184.02,-170.42 189.13,-158.38 192.55,-150.32"/>
<polygon fill="#63b8ff" stroke="#63b8ff" points="176.27,-179.73 175.59,-190.3 182.71,-182.46 176.27,-179.73"/>
</a>
</g>
</g>
<!-- Node5&#45;&gt;Node4 -->
<g id="edge12_Node000005_Node000004" class="edge">
<title>Node5&#45;&gt;Node4</title>
<g id="a_edge12_Node000005_Node000004"><a xlink:title=" ">
<path fill="none" stroke="#63b8ff" d="M281.84,-191.74C260.39,-178.99 230.5,-161.21 212.37,-150.44"/>
<polygon fill="#63b8ff" stroke="#63b8ff" points="279.91,-194.67 290.3,-196.77 283.49,-188.65 279.91,-194.67"/>
</a>
</g>
</g>
<!-- Node6 -->
<g id="Node000006" class="node">
<title>Node6</title>
<g id="a_Node000006"><a xlink:href="Application_8cpp.html" target="_top" xlink:title=" ">
<polygon fill="white" stroke="#666666" points="362.88,-20 214.12,-20 214.12,0 362.88,0 362.88,-20"/>
<text xml:space="preserve" text-anchor="middle" x="288.5" y="-6.5" font-family="Helvetica,sans-Serif" font-size="10.00">application/src/Application.cpp</text>
</a>
</g>
</g>
<!-- Node5&#45;&gt;Node6 -->
<g id="edge5_Node000005_Node000006" class="edge">
<title>Node5&#45;&gt;Node6</title>
<g id="a_edge5_Node000005_Node000006"><a xlink:title=" ">
<path fill="none" stroke="#63b8ff" d="M305.49,-186.29C301.42,-144.24 292.31,-50.3 289.41,-20.36"/>
<polygon fill="#63b8ff" stroke="#63b8ff" points="301.99,-186.42 306.44,-196.04 308.96,-185.75 301.99,-186.42"/>
</a>
</g>
</g>
<!-- Node7 -->
<g id="Node000007" class="node">
<title>Node7</title>
<g id="a_Node000007"><a xlink:href="EmojiModuleLib_8hpp.html" target="_top" xlink:title=" ">
<polygon fill="white" stroke="#666666" points="434.88,-88 316.12,-88 316.12,-56 434.88,-56 434.88,-88"/>
<text xml:space="preserve" text-anchor="start" x="324.12" y="-74.5" font-family="Helvetica,sans-Serif" font-size="10.00">include/EmojiModuleLib</text>
<text xml:space="preserve" text-anchor="middle" x="375.5" y="-62.5" font-family="Helvetica,sans-Serif" font-size="10.00">/EmojiModuleLib.hpp</text>
</a>
</g>
</g>
<!-- Node5&#45;&gt;Node7 -->
<g id="edge6_Node000005_Node000007" class="edge">
<title>Node5&#45;&gt;Node7</title>
<g id="a_edge6_Node000005_Node000007"><a xlink:title=" ">
<path fill="none" stroke="#63b8ff" d="M315.83,-187.32C323.19,-170.33 334.43,-145.24 345.5,-124 351.86,-111.79 359.78,-98.39 365.89,-88.39"/>
<polygon fill="#63b8ff" stroke="#63b8ff" points="312.73,-185.68 312.01,-196.25 319.16,-188.43 312.73,-185.68"/>
</a>
</g>
</g>
<!-- Node9 -->
<g id="Node000009" class="node">
<title>Node9</title>
<g id="a_Node000009"><a xlink:href="Emoji_8hpp.html" target="_top" xlink:title=" ">
<polygon fill="white" stroke="#666666" points="458.38,-150 354.62,-150 354.62,-130 458.38,-130 458.38,-150"/>
<text xml:space="preserve" text-anchor="middle" x="406.5" y="-136.5" font-family="Helvetica,sans-Serif" font-size="10.00">src/Emoji/Emoji.hpp</text>
</a>
</g>
</g>
<!-- Node5&#45;&gt;Node9 -->
<g id="edge9_Node000005_Node000009" class="edge">
<title>Node5&#45;&gt;Node9</title>
<g id="a_edge9_Node000005_Node000009"><a xlink:title=" ">
<path fill="none" stroke="#63b8ff" d="M331.17,-191.22C350.24,-178.51 376.4,-161.07 392.34,-150.44"/>
<polygon fill="#63b8ff" stroke="#63b8ff" points="329.32,-188.25 322.94,-196.7 333.21,-194.07 329.32,-188.25"/>
</a>
</g>
</g>
<!-- Node7&#45;&gt;Node6 -->
<g id="edge7_Node000007_Node000006" class="edge">
<title>Node7&#45;&gt;Node6</title>
<g id="a_edge7_Node000007_Node000006"><a xlink:title=" ">
<path fill="none" stroke="#63b8ff" d="M343.99,-49.27C329.61,-39.35 313.33,-28.12 302.14,-20.41"/>
<polygon fill="#63b8ff" stroke="#63b8ff" points="341.63,-51.89 351.85,-54.69 345.6,-46.13 341.63,-51.89"/>
</a>
</g>
</g>
<!-- Node8 -->
<g id="Node000008" class="node">
<title>Node8</title>
<g id="a_Node000008"><a xlink:href="EmojiModuleLib_8cpp.html" target="_top" xlink:title=" ">
<polygon fill="white" stroke="#666666" points="501.62,-20 381.38,-20 381.38,0 501.62,0 501.62,-20"/>
<text xml:space="preserve" text-anchor="middle" x="441.5" y="-6.5" font-family="Helvetica,sans-Serif" font-size="10.00">src/EmojiModuleLib.cpp</text>
</a>
</g>
</g>
<!-- Node7&#45;&gt;Node8 -->
<g id="edge8_Node000007_Node000008" class="edge">
<title>Node7&#45;&gt;Node8</title>
<g id="a_edge8_Node000007_Node000008"><a xlink:title=" ">
<path fill="none" stroke="#63b8ff" d="M400.97,-47.84C411.48,-38.29 423.07,-27.76 431.15,-20.41"/>
<polygon fill="#63b8ff" stroke="#63b8ff" points="398.66,-45.21 393.62,-54.53 403.37,-50.39 398.66,-45.21"/>
</a>
</g>
</g>
<!-- Node9&#45;&gt;Node7 -->
<g id="edge10_Node000009_Node000007" class="edge">
<title>Node9&#45;&gt;Node7</title>
<g id="a_edge10_Node000009_Node000007"><a xlink:title=" ">
<path fill="none" stroke="#63b8ff" d="M397.29,-119.39C392.62,-109.45 387.03,-97.56 382.69,-88.3"/>
<polygon fill="#63b8ff" stroke="#63b8ff" points="394,-120.61 401.41,-128.17 400.33,-117.63 394,-120.61"/>
</a>
</g>
</g>
<!-- Node10 -->
<g id="Node000010" class="node">
<title>Node10</title>
<g id="a_Node000010"><a xlink:href="Emoji_8cpp.html" target="_top" xlink:title=" ">
<polygon fill="white" stroke="#666666" points="556.38,-82 452.62,-82 452.62,-62 556.38,-62 556.38,-82"/>
<text xml:space="preserve" text-anchor="middle" x="504.5" y="-68.5" font-family="Helvetica,sans-Serif" font-size="10.00">src/Emoji/Emoji.cpp</text>
</a>
</g>
</g>
<!-- Node9&#45;&gt;Node10 -->
<g id="edge11_Node000009_Node000010" class="edge">
<title>Node9&#45;&gt;Node10</title>
<g id="a_edge11_Node000009_Node000010"><a xlink:title=" ">
<path fill="none" stroke="#63b8ff" d="M429.94,-123.22C448.81,-110.51 474.7,-93.07 490.49,-82.44"/>
<polygon fill="#63b8ff" stroke="#63b8ff" points="428.14,-120.21 421.8,-128.7 432.05,-126.02 428.14,-120.21"/>
</a>
</g>
</g>
</g>
</svg>
