<?xml version="1.0" encoding="UTF-8" standalone="no"?>
<!DOCTYPE svg PUBLIC "-//W3C//DTD SVG 1.1//EN"
 "http://www.w3.org/Graphics/SVG/1.1/DTD/svg11.dtd">
<!-- Generated by graphviz version 13.1.2 (20250808.2320)
 -->
<!-- Title: src/Utils/Filesystem/IDirectoryManager.hpp Pages: 1 -->
<svg width="358pt" height="152pt"
 viewBox="0.00 0.00 358.00 152.00" xmlns="http://www.w3.org/2000/svg" xmlns:xlink="http://www.w3.org/1999/xlink">
<g id="graph0" class="graph" transform="scale(1 1) rotate(0) translate(4 148)">
<title>src/Utils/Filesystem/IDirectoryManager.hpp</title>
<!-- Node1 -->
<g id="Node000001" class="node">
<title>Node1</title>
<g id="a_Node000001"><a xlink:title=" ">
<polygon fill="#999999" stroke="#666666" points="317.62,-144 199.62,-144 199.62,-112 317.62,-112 317.62,-144"/>
<text xml:space="preserve" text-anchor="start" x="207.62" y="-130.5" font-family="Helvetica,sans-Serif" font-size="10.00">src/Utils/Filesystem</text>
<text xml:space="preserve" text-anchor="middle" x="258.62" y="-118.5" font-family="Helvetica,sans-Serif" font-size="10.00">/IDirectoryManager.hpp</text>
</a>
</g>
</g>
<!-- Node2 -->
<g id="Node000002" class="node">
<title>Node2</title>
<g id="a_Node000002"><a xlink:href="UtilsError_8hpp.html" target="_top" xlink:title=" ">
<polygon fill="white" stroke="#666666" points="210.25,-76 111,-76 111,-56 210.25,-56 210.25,-76"/>
<text xml:space="preserve" text-anchor="middle" x="160.62" y="-62.5" font-family="Helvetica,sans-Serif" font-size="10.00">Utils/UtilsError.hpp</text>
</a>
</g>
</g>
<!-- Node1&#45;&gt;Node2 -->
<g id="edge1_Node000001_Node000002" class="edge">
<title>Node1&#45;&gt;Node2</title>
<g id="a_edge1_Node000001_Node000002"><a xlink:title=" ">
<path fill="none" stroke="#63b8ff" d="M233.39,-111.55C218.64,-102.52 200.11,-91.17 185.44,-82.19"/>
<polygon fill="#63b8ff" stroke="#63b8ff" points="187.64,-79.43 177.28,-77.2 183.98,-85.4 187.64,-79.43"/>
</a>
</g>
</g>
<!-- Node8 -->
<g id="Node000008" class="node">
<title>Node8</title>
<g id="a_Node000008"><a xlink:title=" ">
<polygon fill="#e0e0e0" stroke="#999999" points="289.12,-76 228.12,-76 228.12,-56 289.12,-56 289.12,-76"/>
<text xml:space="preserve" text-anchor="middle" x="258.62" y="-62.5" font-family="Helvetica,sans-Serif" font-size="10.00">filesystem</text>
</a>
</g>
</g>
<!-- Node1&#45;&gt;Node8 -->
<g id="edge7_Node000001_Node000008" class="edge">
<title>Node1&#45;&gt;Node8</title>
<g id="a_edge7_Node000001_Node000008"><a xlink:title=" ">
<path fill="none" stroke="#63b8ff" d="M258.62,-111.55C258.62,-104.34 258.62,-95.66 258.62,-87.88"/>
<polygon fill="#63b8ff" stroke="#63b8ff" points="262.13,-87.92 258.63,-77.92 255.13,-87.92 262.13,-87.92"/>
</a>
</g>
</g>
<!-- Node9 -->
<g id="Node000009" class="node">
<title>Node9</title>
<g id="a_Node000009"><a xlink:title=" ">
<polygon fill="#e0e0e0" stroke="#999999" points="350.12,-76 307.12,-76 307.12,-56 350.12,-56 350.12,-76"/>
<text xml:space="preserve" text-anchor="middle" x="328.62" y="-62.5" font-family="Helvetica,sans-Serif" font-size="10.00">vector</text>
</a>
</g>
</g>
<!-- Node1&#45;&gt;Node9 -->
<g id="edge8_Node000001_Node000009" class="edge">
<title>Node1&#45;&gt;Node9</title>
<g id="a_edge8_Node000001_Node000009"><a xlink:title=" ">
<path fill="none" stroke="#63b8ff" d="M276.65,-111.55C286.58,-103.04 298.9,-92.48 309.06,-83.77"/>
<polygon fill="#63b8ff" stroke="#63b8ff" points="311.19,-86.56 316.5,-77.39 306.63,-81.24 311.19,-86.56"/>
</a>
</g>
</g>
<!-- Node3 -->
<g id="Node000003" class="node">
<title>Node3</title>
<g id="a_Node000003"><a xlink:title=" ">
<polygon fill="#e0e0e0" stroke="#999999" points="45.25,-20 0,-20 0,0 45.25,0 45.25,-20"/>
<text xml:space="preserve" text-anchor="middle" x="22.62" y="-6.5" font-family="Helvetica,sans-Serif" font-size="10.00">cstdint</text>
</a>
</g>
</g>
<!-- Node2&#45;&gt;Node3 -->
<g id="edge2_Node000002_Node000003" class="edge">
<title>Node2&#45;&gt;Node3</title>
<g id="a_edge2_Node000002_Node000003"><a xlink:title=" ">
<path fill="none" stroke="#63b8ff" d="M136.59,-55.59C114.25,-46.85 80.79,-33.76 55.9,-24.02"/>
<polygon fill="#63b8ff" stroke="#63b8ff" points="57.47,-20.88 46.88,-20.49 54.92,-27.39 57.47,-20.88"/>
</a>
</g>
</g>
<!-- Node4 -->
<g id="Node000004" class="node">
<title>Node4</title>
<g id="a_Node000004"><a xlink:title=" ">
<polygon fill="#e0e0e0" stroke="#999999" points="113.5,-20 63.75,-20 63.75,0 113.5,0 113.5,-20"/>
<text xml:space="preserve" text-anchor="middle" x="88.62" y="-6.5" font-family="Helvetica,sans-Serif" font-size="10.00">optional</text>
</a>
</g>
</g>
<!-- Node2&#45;&gt;Node4 -->
<g id="edge3_Node000002_Node000004" class="edge">
<title>Node2&#45;&gt;Node4</title>
<g id="a_edge3_Node000002_Node000004"><a xlink:title=" ">
<path fill="none" stroke="#63b8ff" d="M148.08,-55.59C137.66,-47.77 122.58,-36.46 110.21,-27.19"/>
<polygon fill="#63b8ff" stroke="#63b8ff" points="112.33,-24.41 102.23,-21.21 108.13,-30.01 112.33,-24.41"/>
</a>
</g>
</g>
<!-- Node5 -->
<g id="Node000005" class="node">
<title>Node5</title>
<g id="a_Node000005"><a xlink:title=" ">
<polygon fill="#e0e0e0" stroke="#999999" points="190,-20 131.25,-20 131.25,0 190,0 190,-20"/>
<text xml:space="preserve" text-anchor="middle" x="160.62" y="-6.5" font-family="Helvetica,sans-Serif" font-size="10.00">stdexcept</text>
</a>
</g>
</g>
<!-- Node2&#45;&gt;Node5 -->
<g id="edge4_Node000002_Node000005" class="edge">
<title>Node2&#45;&gt;Node5</title>
<g id="a_edge4_Node000002_Node000005"><a xlink:title=" ">
<path fill="none" stroke="#63b8ff" d="M160.62,-55.59C160.62,-49.01 160.62,-39.96 160.62,-31.73"/>
<polygon fill="#63b8ff" stroke="#63b8ff" points="164.13,-31.81 160.63,-21.81 157.13,-31.81 164.13,-31.81"/>
</a>
</g>
</g>
<!-- Node6 -->
<g id="Node000006" class="node">
<title>Node6</title>
<g id="a_Node000006"><a xlink:title=" ">
<polygon fill="#e0e0e0" stroke="#999999" points="247.62,-20 207.62,-20 207.62,0 247.62,0 247.62,-20"/>
<text xml:space="preserve" text-anchor="middle" x="227.62" y="-6.5" font-family="Helvetica,sans-Serif" font-size="10.00">string</text>
</a>
</g>
</g>
<!-- Node2&#45;&gt;Node6 -->
<g id="edge5_Node000002_Node000006" class="edge">
<title>Node2&#45;&gt;Node6</title>
<g id="a_edge5_Node000002_Node000006"><a xlink:title=" ">
<path fill="none" stroke="#63b8ff" d="M172.3,-55.59C181.9,-47.85 195.75,-36.69 207.19,-27.47"/>
<polygon fill="#63b8ff" stroke="#63b8ff" points="209.32,-30.25 214.91,-21.25 204.93,-24.8 209.32,-30.25"/>
</a>
</g>
</g>
<!-- Node7 -->
<g id="Node000007" class="node">
<title>Node7</title>
<g id="a_Node000007"><a xlink:title=" ">
<polygon fill="#e0e0e0" stroke="#999999" points="311.25,-20 266,-20 266,0 311.25,0 311.25,-20"/>
<text xml:space="preserve" text-anchor="middle" x="288.62" y="-6.5" font-family="Helvetica,sans-Serif" font-size="10.00">variant</text>
</a>
</g>
</g>
<!-- Node2&#45;&gt;Node7 -->
<g id="edge6_Node000002_Node000007" class="edge">
<title>Node2&#45;&gt;Node7</title>
<g id="a_edge6_Node000002_Node000007"><a xlink:title=" ">
<path fill="none" stroke="#63b8ff" d="M182.92,-55.59C202.99,-47.13 232.74,-34.58 255.58,-24.94"/>
<polygon fill="#63b8ff" stroke="#63b8ff" points="256.91,-28.18 264.76,-21.07 254.19,-21.73 256.91,-28.18"/>
</a>
</g>
</g>
</g>
</svg>
