<?xml version="1.0" encoding="UTF-8" standalone="no"?>
<!DOCTYPE svg PUBLIC "-//W3C//DTD SVG 1.1//EN"
 "http://www.w3.org/Graphics/SVG/1.1/DTD/svg11.dtd">
<!-- Generated by graphviz version 13.1.2 (20250808.2320)
 -->
<!-- Title: src/Utils/Filesystem/IFileWriter.hpp Pages: 1 -->
<svg width="731pt" height="300pt"
 viewBox="0.00 0.00 731.00 300.00" xmlns="http://www.w3.org/2000/svg" xmlns:xlink="http://www.w3.org/1999/xlink">
<g id="graph0" class="graph" transform="scale(1 1) rotate(0) translate(4 296)">
<title>src/Utils/Filesystem/IFileWriter.hpp</title>
<!-- Node1 -->
<g id="Node000001" class="node">
<title>Node1</title>
<g id="a_Node000001"><a xlink:title=" ">
<polygon fill="#999999" stroke="#666666" points="363.75,-292 260,-292 260,-260 363.75,-260 363.75,-292"/>
<text xml:space="preserve" text-anchor="start" x="268" y="-278.5" font-family="Helvetica,sans-Serif" font-size="10.00">src/Utils/Filesystem</text>
<text xml:space="preserve" text-anchor="middle" x="311.88" y="-266.5" font-family="Helvetica,sans-Serif" font-size="10.00">/IFileWriter.hpp</text>
</a>
</g>
</g>
<!-- Node2 -->
<g id="Node000002" class="node">
<title>Node2</title>
<g id="a_Node000002"><a xlink:href="FileWriter_8hpp.html" target="_top" xlink:title=" ">
<polygon fill="white" stroke="#666666" points="213.75,-224 110,-224 110,-192 213.75,-192 213.75,-224"/>
<text xml:space="preserve" text-anchor="start" x="118" y="-210.5" font-family="Helvetica,sans-Serif" font-size="10.00">src/Utils/Filesystem</text>
<text xml:space="preserve" text-anchor="middle" x="161.88" y="-198.5" font-family="Helvetica,sans-Serif" font-size="10.00">/FileWriter.hpp</text>
</a>
</g>
</g>
<!-- Node1&#45;&gt;Node2 -->
<g id="edge1_Node000001_Node000002" class="edge">
<title>Node1&#45;&gt;Node2</title>
<g id="a_edge1_Node000001_Node000002"><a xlink:title=" ">
<path fill="none" stroke="#63b8ff" d="M266.18,-254.89C243.97,-245.12 217.7,-233.56 197.08,-224.49"/>
<polygon fill="#63b8ff" stroke="#63b8ff" points="264.76,-258.09 275.32,-258.92 267.58,-251.69 264.76,-258.09"/>
</a>
</g>
</g>
<!-- Node5 -->
<g id="Node000005" class="node">
<title>Node5</title>
<g id="a_Node000005"><a xlink:href="JsonSerializer_8hpp.html" target="_top" xlink:title=" ">
<polygon fill="white" stroke="#666666" points="391.88,-218 231.88,-218 231.88,-198 391.88,-198 391.88,-218"/>
<text xml:space="preserve" text-anchor="middle" x="311.88" y="-204.5" font-family="Helvetica,sans-Serif" font-size="10.00">src/Utils/Json/JsonSerializer.hpp</text>
</a>
</g>
</g>
<!-- Node1&#45;&gt;Node5 -->
<g id="edge4_Node000001_Node000005" class="edge">
<title>Node1&#45;&gt;Node5</title>
<g id="a_edge4_Node000001_Node000005"><a xlink:title=" ">
<path fill="none" stroke="#63b8ff" d="M311.88,-248.31C311.88,-237.67 311.88,-226.13 311.88,-218.32"/>
<polygon fill="#63b8ff" stroke="#63b8ff" points="308.38,-248.18 311.88,-258.18 315.38,-248.18 308.38,-248.18"/>
</a>
</g>
</g>
<!-- Node7 -->
<g id="Node000007" class="node">
<title>Node7</title>
<g id="a_Node000007"><a xlink:href="UtilsFactory_8hpp.html" target="_top" xlink:title=" ">
<polygon fill="white" stroke="#666666" points="537.38,-218 410.38,-218 410.38,-198 537.38,-198 537.38,-218"/>
<text xml:space="preserve" text-anchor="middle" x="473.88" y="-204.5" font-family="Helvetica,sans-Serif" font-size="10.00">src/Utils/UtilsFactory.hpp</text>
</a>
</g>
</g>
<!-- Node1&#45;&gt;Node7 -->
<g id="edge7_Node000001_Node000007" class="edge">
<title>Node1&#45;&gt;Node7</title>
<g id="a_edge7_Node000001_Node000007"><a xlink:title=" ">
<path fill="none" stroke="#63b8ff" d="M360.5,-255.19C390.35,-243.03 427.23,-228 450.65,-218.46"/>
<polygon fill="#63b8ff" stroke="#63b8ff" points="359.2,-251.94 351.26,-258.95 361.84,-258.42 359.2,-251.94"/>
</a>
</g>
</g>
<!-- Node3 -->
<g id="Node000003" class="node">
<title>Node3</title>
<g id="a_Node000003"><a xlink:href="FileWriter_8cpp.html" target="_top" xlink:title=" ">
<polygon fill="white" stroke="#666666" points="103.75,-156 0,-156 0,-124 103.75,-124 103.75,-156"/>
<text xml:space="preserve" text-anchor="start" x="8" y="-142.5" font-family="Helvetica,sans-Serif" font-size="10.00">src/Utils/Filesystem</text>
<text xml:space="preserve" text-anchor="middle" x="51.88" y="-130.5" font-family="Helvetica,sans-Serif" font-size="10.00">/FileWriter.cpp</text>
</a>
</g>
</g>
<!-- Node2&#45;&gt;Node3 -->
<g id="edge2_Node000002_Node000003" class="edge">
<title>Node2&#45;&gt;Node3</title>
<g id="a_edge2_Node000002_Node000003"><a xlink:title=" ">
<path fill="none" stroke="#63b8ff" d="M126.54,-185.8C110.59,-176.23 92.09,-165.13 77.5,-156.38"/>
<polygon fill="#63b8ff" stroke="#63b8ff" points="124.41,-188.6 134.79,-190.75 128.01,-182.6 124.41,-188.6"/>
</a>
</g>
</g>
<!-- Node4 -->
<g id="Node000004" class="node">
<title>Node4</title>
<g id="a_Node000004"><a xlink:href="UtilsFactory_8cpp.html" target="_top" xlink:title=" ">
<polygon fill="white" stroke="#666666" points="248.38,-150 121.38,-150 121.38,-130 248.38,-130 248.38,-150"/>
<text xml:space="preserve" text-anchor="middle" x="184.88" y="-136.5" font-family="Helvetica,sans-Serif" font-size="10.00">src/Utils/UtilsFactory.cpp</text>
</a>
</g>
</g>
<!-- Node2&#45;&gt;Node4 -->
<g id="edge3_Node000002_Node000004" class="edge">
<title>Node2&#45;&gt;Node4</title>
<g id="a_edge3_Node000002_Node000004"><a xlink:title=" ">
<path fill="none" stroke="#63b8ff" d="M170.94,-181C174.71,-170.17 178.85,-158.29 181.63,-150.32"/>
<polygon fill="#63b8ff" stroke="#63b8ff" points="167.69,-179.67 167.71,-190.26 174.3,-181.97 167.69,-179.67"/>
</a>
</g>
</g>
<!-- Node5&#45;&gt;Node4 -->
<g id="edge6_Node000005_Node000004" class="edge">
<title>Node5&#45;&gt;Node4</title>
<g id="a_edge6_Node000005_Node000004"><a xlink:title=" ">
<path fill="none" stroke="#63b8ff" d="M283.51,-192.26C258.92,-179.48 224.05,-161.36 203.04,-150.44"/>
<polygon fill="#63b8ff" stroke="#63b8ff" points="281.85,-195.34 292.34,-196.85 285.08,-189.13 281.85,-195.34"/>
</a>
</g>
</g>
<!-- Node6 -->
<g id="Node000006" class="node">
<title>Node6</title>
<g id="a_Node000006"><a xlink:href="JsonSerializer_8cpp.html" target="_top" xlink:title=" ">
<polygon fill="white" stroke="#666666" points="426.88,-150 266.88,-150 266.88,-130 426.88,-130 426.88,-150"/>
<text xml:space="preserve" text-anchor="middle" x="346.88" y="-136.5" font-family="Helvetica,sans-Serif" font-size="10.00">src/Utils/Json/JsonSerializer.cpp</text>
</a>
</g>
</g>
<!-- Node5&#45;&gt;Node6 -->
<g id="edge5_Node000005_Node000006" class="edge">
<title>Node5&#45;&gt;Node6</title>
<g id="a_edge5_Node000005_Node000006"><a xlink:title=" ">
<path fill="none" stroke="#63b8ff" d="M322.27,-187.4C328.74,-175.2 336.78,-160.04 341.87,-150.44"/>
<polygon fill="#63b8ff" stroke="#63b8ff" points="319.19,-185.73 317.6,-196.21 325.38,-189.01 319.19,-185.73"/>
</a>
</g>
</g>
<!-- Node7&#45;&gt;Node4 -->
<g id="edge15_Node000007_Node000004" class="edge">
<title>Node7&#45;&gt;Node4</title>
<g id="a_edge15_Node000007_Node000004"><a xlink:title=" ">
<path fill="none" stroke="#63b8ff" d="M421.35,-195C365.27,-182.2 277.57,-162.17 226.2,-150.44"/>
<polygon fill="#63b8ff" stroke="#63b8ff" points="420.46,-198.39 430.99,-197.21 422.02,-191.57 420.46,-198.39"/>
</a>
</g>
</g>
<!-- Node8 -->
<g id="Node000008" class="node">
<title>Node8</title>
<g id="a_Node000008"><a xlink:href="Application_8cpp.html" target="_top" xlink:title=" ">
<polygon fill="white" stroke="#666666" points="529.25,-20 380.5,-20 380.5,0 529.25,0 529.25,-20"/>
<text xml:space="preserve" text-anchor="middle" x="454.88" y="-6.5" font-family="Helvetica,sans-Serif" font-size="10.00">application/src/Application.cpp</text>
</a>
</g>
</g>
<!-- Node7&#45;&gt;Node8 -->
<g id="edge8_Node000007_Node000008" class="edge">
<title>Node7&#45;&gt;Node8</title>
<g id="a_edge8_Node000007_Node000008"><a xlink:title=" ">
<path fill="none" stroke="#63b8ff" d="M471.87,-186.29C467.79,-144.24 458.68,-50.3 455.78,-20.36"/>
<polygon fill="#63b8ff" stroke="#63b8ff" points="468.36,-186.42 472.81,-196.04 475.33,-185.75 468.36,-186.42"/>
</a>
</g>
</g>
<!-- Node9 -->
<g id="Node000009" class="node">
<title>Node9</title>
<g id="a_Node000009"><a xlink:href="EmojiModuleLib_8hpp.html" target="_top" xlink:title=" ">
<polygon fill="white" stroke="#666666" points="601.25,-88 482.5,-88 482.5,-56 601.25,-56 601.25,-88"/>
<text xml:space="preserve" text-anchor="start" x="490.5" y="-74.5" font-family="Helvetica,sans-Serif" font-size="10.00">include/EmojiModuleLib</text>
<text xml:space="preserve" text-anchor="middle" x="541.88" y="-62.5" font-family="Helvetica,sans-Serif" font-size="10.00">/EmojiModuleLib.hpp</text>
</a>
</g>
</g>
<!-- Node7&#45;&gt;Node9 -->
<g id="edge9_Node000007_Node000009" class="edge">
<title>Node7&#45;&gt;Node9</title>
<g id="a_edge9_Node000007_Node000009"><a xlink:title=" ">
<path fill="none" stroke="#63b8ff" d="M482.21,-187.32C489.56,-170.33 500.8,-145.24 511.88,-124 518.24,-111.79 526.16,-98.39 532.26,-88.39"/>
<polygon fill="#63b8ff" stroke="#63b8ff" points="479.1,-185.68 478.38,-196.25 485.54,-188.43 479.1,-185.68"/>
</a>
</g>
</g>
<!-- Node11 -->
<g id="Node000011" class="node">
<title>Node11</title>
<g id="a_Node000011"><a xlink:href="Emoji_8hpp.html" target="_top" xlink:title=" ">
<polygon fill="white" stroke="#666666" points="624.75,-150 521,-150 521,-130 624.75,-130 624.75,-150"/>
<text xml:space="preserve" text-anchor="middle" x="572.88" y="-136.5" font-family="Helvetica,sans-Serif" font-size="10.00">src/Emoji/Emoji.hpp</text>
</a>
</g>
</g>
<!-- Node7&#45;&gt;Node11 -->
<g id="edge12_Node000007_Node000011" class="edge">
<title>Node7&#45;&gt;Node11</title>
<g id="a_edge12_Node000007_Node000011"><a xlink:title=" ">
<path fill="none" stroke="#63b8ff" d="M497.55,-191.22C516.61,-178.51 542.78,-161.07 558.72,-150.44"/>
<polygon fill="#63b8ff" stroke="#63b8ff" points="495.7,-188.25 489.32,-196.7 499.58,-194.07 495.7,-188.25"/>
</a>
</g>
</g>
<!-- Node9&#45;&gt;Node8 -->
<g id="edge10_Node000009_Node000008" class="edge">
<title>Node9&#45;&gt;Node8</title>
<g id="a_edge10_Node000009_Node000008"><a xlink:title=" ">
<path fill="none" stroke="#63b8ff" d="M510.37,-49.27C495.98,-39.35 479.7,-28.12 468.52,-20.41"/>
<polygon fill="#63b8ff" stroke="#63b8ff" points="508.01,-51.89 518.22,-54.69 511.98,-46.13 508.01,-51.89"/>
</a>
</g>
</g>
<!-- Node10 -->
<g id="Node000010" class="node">
<title>Node10</title>
<g id="a_Node000010"><a xlink:href="EmojiModuleLib_8cpp.html" target="_top" xlink:title=" ">
<polygon fill="white" stroke="#666666" points="668,-20 547.75,-20 547.75,0 668,0 668,-20"/>
<text xml:space="preserve" text-anchor="middle" x="607.88" y="-6.5" font-family="Helvetica,sans-Serif" font-size="10.00">src/EmojiModuleLib.cpp</text>
</a>
</g>
</g>
<!-- Node9&#45;&gt;Node10 -->
<g id="edge11_Node000009_Node000010" class="edge">
<title>Node9&#45;&gt;Node10</title>
<g id="a_edge11_Node000009_Node000010"><a xlink:title=" ">
<path fill="none" stroke="#63b8ff" d="M567.35,-47.84C577.86,-38.29 589.44,-27.76 597.53,-20.41"/>
<polygon fill="#63b8ff" stroke="#63b8ff" points="565.04,-45.21 559.99,-54.53 569.75,-50.39 565.04,-45.21"/>
</a>
</g>
</g>
<!-- Node11&#45;&gt;Node9 -->
<g id="edge13_Node000011_Node000009" class="edge">
<title>Node11&#45;&gt;Node9</title>
<g id="a_edge13_Node000011_Node000009"><a xlink:title=" ">
<path fill="none" stroke="#63b8ff" d="M563.67,-119.39C559,-109.45 553.41,-97.56 549.06,-88.3"/>
<polygon fill="#63b8ff" stroke="#63b8ff" points="560.37,-120.61 567.79,-128.17 566.71,-117.63 560.37,-120.61"/>
</a>
</g>
</g>
<!-- Node12 -->
<g id="Node000012" class="node">
<title>Node12</title>
<g id="a_Node000012"><a xlink:href="Emoji_8cpp.html" target="_top" xlink:title=" ">
<polygon fill="white" stroke="#666666" points="722.75,-82 619,-82 619,-62 722.75,-62 722.75,-82"/>
<text xml:space="preserve" text-anchor="middle" x="670.88" y="-68.5" font-family="Helvetica,sans-Serif" font-size="10.00">src/Emoji/Emoji.cpp</text>
</a>
</g>
</g>
<!-- Node11&#45;&gt;Node12 -->
<g id="edge14_Node000011_Node000012" class="edge">
<title>Node11&#45;&gt;Node12</title>
<g id="a_edge14_Node000011_Node000012"><a xlink:title=" ">
<path fill="none" stroke="#63b8ff" d="M596.31,-123.22C615.18,-110.51 641.08,-93.07 656.86,-82.44"/>
<polygon fill="#63b8ff" stroke="#63b8ff" points="594.51,-120.21 588.17,-128.7 598.42,-126.02 594.51,-120.21"/>
</a>
</g>
</g>
</g>
</svg>
