<?xml version="1.0" encoding="UTF-8" standalone="no"?>
<!DOCTYPE svg PUBLIC "-//W3C//DTD SVG 1.1//EN"
 "http://www.w3.org/Graphics/SVG/1.1/DTD/svg11.dtd">
<!-- Generated by graphviz version 13.1.2 (20250808.2320)
 -->
<!-- Title: src/Utils/Filesystem/IFileReader.hpp Pages: 1 -->
<svg width="877pt" height="300pt"
 viewBox="0.00 0.00 877.00 300.00" xmlns="http://www.w3.org/2000/svg" xmlns:xlink="http://www.w3.org/1999/xlink">
<g id="graph0" class="graph" transform="scale(1 1) rotate(0) translate(4 296)">
<title>src/Utils/Filesystem/IFileReader.hpp</title>
<!-- Node1 -->
<g id="Node000001" class="node">
<title>Node1</title>
<g id="a_Node000001"><a xlink:title=" ">
<polygon fill="#999999" stroke="#666666" points="475.75,-292 372,-292 372,-260 475.75,-260 475.75,-292"/>
<text xml:space="preserve" text-anchor="start" x="380" y="-278.5" font-family="Helvetica,sans-Serif" font-size="10.00">src/Utils/Filesystem</text>
<text xml:space="preserve" text-anchor="middle" x="423.88" y="-266.5" font-family="Helvetica,sans-Serif" font-size="10.00">/IFileReader.hpp</text>
</a>
</g>
</g>
<!-- Node2 -->
<g id="Node000002" class="node">
<title>Node2</title>
<g id="a_Node000002"><a xlink:href="FileReader_8hpp.html" target="_top" xlink:title=" ">
<polygon fill="white" stroke="#666666" points="317.75,-224 214,-224 214,-192 317.75,-192 317.75,-224"/>
<text xml:space="preserve" text-anchor="start" x="222" y="-210.5" font-family="Helvetica,sans-Serif" font-size="10.00">src/Utils/Filesystem</text>
<text xml:space="preserve" text-anchor="middle" x="265.88" y="-198.5" font-family="Helvetica,sans-Serif" font-size="10.00">/FileReader.hpp</text>
</a>
</g>
</g>
<!-- Node1&#45;&gt;Node2 -->
<g id="edge1_Node000001_Node000002" class="edge">
<title>Node1&#45;&gt;Node2</title>
<g id="a_edge1_Node000001_Node000002"><a xlink:title=" ">
<path fill="none" stroke="#63b8ff" d="M376.38,-255.16C352.85,-245.33 324.88,-233.65 302.96,-224.49"/>
<polygon fill="#63b8ff" stroke="#63b8ff" points="374.86,-258.32 385.43,-258.94 377.56,-251.86 374.86,-258.32"/>
</a>
</g>
</g>
<!-- Node6 -->
<g id="Node000006" class="node">
<title>Node6</title>
<g id="a_Node000006"><a xlink:href="JsonSerializer_8hpp.html" target="_top" xlink:title=" ">
<polygon fill="white" stroke="#666666" points="503.88,-218 343.88,-218 343.88,-198 503.88,-198 503.88,-218"/>
<text xml:space="preserve" text-anchor="middle" x="423.88" y="-204.5" font-family="Helvetica,sans-Serif" font-size="10.00">src/Utils/Json/JsonSerializer.hpp</text>
</a>
</g>
</g>
<!-- Node1&#45;&gt;Node6 -->
<g id="edge5_Node000001_Node000006" class="edge">
<title>Node1&#45;&gt;Node6</title>
<g id="a_edge5_Node000001_Node000006"><a xlink:title=" ">
<path fill="none" stroke="#63b8ff" d="M423.88,-248.31C423.88,-237.67 423.88,-226.13 423.88,-218.32"/>
<polygon fill="#63b8ff" stroke="#63b8ff" points="420.38,-248.18 423.88,-258.18 427.38,-248.18 420.38,-248.18"/>
</a>
</g>
</g>
<!-- Node8 -->
<g id="Node000008" class="node">
<title>Node8</title>
<g id="a_Node000008"><a xlink:href="UtilsFactory_8hpp.html" target="_top" xlink:title=" ">
<polygon fill="white" stroke="#666666" points="716.38,-218 589.38,-218 589.38,-198 716.38,-198 716.38,-218"/>
<text xml:space="preserve" text-anchor="middle" x="652.88" y="-204.5" font-family="Helvetica,sans-Serif" font-size="10.00">src/Utils/UtilsFactory.hpp</text>
</a>
</g>
</g>
<!-- Node1&#45;&gt;Node8 -->
<g id="edge8_Node000001_Node000008" class="edge">
<title>Node1&#45;&gt;Node8</title>
<g id="a_edge8_Node000001_Node000008"><a xlink:title=" ">
<path fill="none" stroke="#63b8ff" d="M487.07,-256.79C530.12,-244.38 585.38,-228.45 619.96,-218.49"/>
<polygon fill="#63b8ff" stroke="#63b8ff" points="486.22,-253.39 477.58,-259.52 488.16,-260.12 486.22,-253.39"/>
</a>
</g>
</g>
<!-- Node3 -->
<g id="Node000003" class="node">
<title>Node3</title>
<g id="a_Node000003"><a xlink:href="FileReaderTest_8cpp.html" target="_top" xlink:title=" ">
<polygon fill="white" stroke="#666666" points="259.62,-156 122.12,-156 122.12,-124 259.62,-124 259.62,-156"/>
<text xml:space="preserve" text-anchor="start" x="130.12" y="-142.5" font-family="Helvetica,sans-Serif" font-size="10.00">application/tests/FileReader</text>
<text xml:space="preserve" text-anchor="middle" x="190.88" y="-130.5" font-family="Helvetica,sans-Serif" font-size="10.00">Test.cpp</text>
</a>
</g>
</g>
<!-- Node2&#45;&gt;Node3 -->
<g id="edge2_Node000002_Node000003" class="edge">
<title>Node2&#45;&gt;Node3</title>
<g id="a_edge2_Node000002_Node000003"><a xlink:title=" ">
<path fill="none" stroke="#63b8ff" d="M240.1,-184.32C229.66,-175.13 217.86,-164.75 208.44,-156.45"/>
<polygon fill="#63b8ff" stroke="#63b8ff" points="237.52,-186.71 247.34,-190.69 242.15,-181.46 237.52,-186.71"/>
</a>
</g>
</g>
<!-- Node4 -->
<g id="Node000004" class="node">
<title>Node4</title>
<g id="a_Node000004"><a xlink:href="FileReader_8cpp.html" target="_top" xlink:title=" ">
<polygon fill="white" stroke="#666666" points="103.75,-156 0,-156 0,-124 103.75,-124 103.75,-156"/>
<text xml:space="preserve" text-anchor="start" x="8" y="-142.5" font-family="Helvetica,sans-Serif" font-size="10.00">src/Utils/Filesystem</text>
<text xml:space="preserve" text-anchor="middle" x="51.88" y="-130.5" font-family="Helvetica,sans-Serif" font-size="10.00">/FileReader.cpp</text>
</a>
</g>
</g>
<!-- Node2&#45;&gt;Node4 -->
<g id="edge3_Node000002_Node000004" class="edge">
<title>Node2&#45;&gt;Node4</title>
<g id="a_edge3_Node000002_Node000004"><a xlink:title=" ">
<path fill="none" stroke="#63b8ff" d="M204.96,-188.21C172.42,-178.18 132.86,-165.98 102.1,-156.49"/>
<polygon fill="#63b8ff" stroke="#63b8ff" points="203.67,-191.48 214.26,-191.08 205.73,-184.79 203.67,-191.48"/>
</a>
</g>
</g>
<!-- Node5 -->
<g id="Node000005" class="node">
<title>Node5</title>
<g id="a_Node000005"><a xlink:href="UtilsFactory_8cpp.html" target="_top" xlink:title=" ">
<polygon fill="white" stroke="#666666" points="583.38,-150 456.38,-150 456.38,-130 583.38,-130 583.38,-150"/>
<text xml:space="preserve" text-anchor="middle" x="519.88" y="-136.5" font-family="Helvetica,sans-Serif" font-size="10.00">src/Utils/UtilsFactory.cpp</text>
</a>
</g>
</g>
<!-- Node2&#45;&gt;Node5 -->
<g id="edge4_Node000002_Node000005" class="edge">
<title>Node2&#45;&gt;Node5</title>
<g id="a_edge4_Node000002_Node000005"><a xlink:title=" ">
<path fill="none" stroke="#63b8ff" d="M329.25,-190.53C377.93,-177.88 443.44,-160.86 483.6,-150.42"/>
<polygon fill="#63b8ff" stroke="#63b8ff" points="328.46,-187.12 319.66,-193.02 330.22,-193.9 328.46,-187.12"/>
</a>
</g>
</g>
<!-- Node6&#45;&gt;Node5 -->
<g id="edge7_Node000006_Node000005" class="edge">
<title>Node6&#45;&gt;Node5</title>
<g id="a_edge7_Node000006_Node000005"><a xlink:title=" ">
<path fill="none" stroke="#63b8ff" d="M447.09,-191.04C465.55,-178.35 490.76,-161.02 506.15,-150.44"/>
<polygon fill="#63b8ff" stroke="#63b8ff" points="445.13,-188.14 438.88,-196.69 449.1,-193.91 445.13,-188.14"/>
</a>
</g>
</g>
<!-- Node7 -->
<g id="Node000007" class="node">
<title>Node7</title>
<g id="a_Node000007"><a xlink:href="JsonSerializer_8cpp.html" target="_top" xlink:title=" ">
<polygon fill="white" stroke="#666666" points="437.88,-150 277.88,-150 277.88,-130 437.88,-130 437.88,-150"/>
<text xml:space="preserve" text-anchor="middle" x="357.88" y="-136.5" font-family="Helvetica,sans-Serif" font-size="10.00">src/Utils/Json/JsonSerializer.cpp</text>
</a>
</g>
</g>
<!-- Node6&#45;&gt;Node7 -->
<g id="edge6_Node000006_Node000007" class="edge">
<title>Node6&#45;&gt;Node7</title>
<g id="a_edge6_Node000006_Node000007"><a xlink:title=" ">
<path fill="none" stroke="#63b8ff" d="M406.49,-189.61C393.95,-177.07 377.5,-160.63 367.31,-150.44"/>
<polygon fill="#63b8ff" stroke="#63b8ff" points="403.8,-191.88 413.35,-196.47 408.75,-186.93 403.8,-191.88"/>
</a>
</g>
</g>
<!-- Node8&#45;&gt;Node5 -->
<g id="edge16_Node000008_Node000005" class="edge">
<title>Node8&#45;&gt;Node5</title>
<g id="a_edge16_Node000008_Node000005"><a xlink:title=" ">
<path fill="none" stroke="#63b8ff" d="M623.52,-192.43C597.74,-179.64 561,-161.41 538.9,-150.44"/>
<polygon fill="#63b8ff" stroke="#63b8ff" points="621.95,-195.56 632.46,-196.87 625.06,-189.29 621.95,-195.56"/>
</a>
</g>
</g>
<!-- Node9 -->
<g id="Node000009" class="node">
<title>Node9</title>
<g id="a_Node000009"><a xlink:href="Application_8cpp.html" target="_top" xlink:title=" ">
<polygon fill="white" stroke="#666666" points="869.25,-20 720.5,-20 720.5,0 869.25,0 869.25,-20"/>
<text xml:space="preserve" text-anchor="middle" x="794.88" y="-6.5" font-family="Helvetica,sans-Serif" font-size="10.00">application/src/Application.cpp</text>
</a>
</g>
</g>
<!-- Node8&#45;&gt;Node9 -->
<g id="edge9_Node000008_Node000009" class="edge">
<title>Node8&#45;&gt;Node9</title>
<g id="a_edge9_Node000008_Node000009"><a xlink:title=" ">
<path fill="none" stroke="#63b8ff" d="M681.48,-192.09C697.2,-183.02 716.38,-170.41 730.88,-156 756.57,-130.44 761.32,-121.19 775.88,-88 786.05,-64.8 791.41,-35.17 793.63,-20.34"/>
<polygon fill="#63b8ff" stroke="#63b8ff" points="680.09,-188.86 673.06,-196.79 683.5,-194.98 680.09,-188.86"/>
</a>
</g>
</g>
<!-- Node10 -->
<g id="Node000010" class="node">
<title>Node10</title>
<g id="a_Node000010"><a xlink:href="EmojiModuleLib_8hpp.html" target="_top" xlink:title=" ">
<polygon fill="white" stroke="#666666" points="767.25,-88 648.5,-88 648.5,-56 767.25,-56 767.25,-88"/>
<text xml:space="preserve" text-anchor="start" x="656.5" y="-74.5" font-family="Helvetica,sans-Serif" font-size="10.00">include/EmojiModuleLib</text>
<text xml:space="preserve" text-anchor="middle" x="707.88" y="-62.5" font-family="Helvetica,sans-Serif" font-size="10.00">/EmojiModuleLib.hpp</text>
</a>
</g>
</g>
<!-- Node8&#45;&gt;Node10 -->
<g id="edge10_Node000008_Node000010" class="edge">
<title>Node8&#45;&gt;Node10</title>
<g id="a_edge10_Node000008_Node000010"><a xlink:title=" ">
<path fill="none" stroke="#63b8ff" d="M680.44,-191.72C693.13,-183.06 706.89,-170.95 713.88,-156 724.09,-134.14 718.43,-105.48 713.25,-88.19"/>
<polygon fill="#63b8ff" stroke="#63b8ff" points="678.93,-188.53 672.36,-196.85 682.68,-194.44 678.93,-188.53"/>
</a>
</g>
</g>
<!-- Node12 -->
<g id="Node000012" class="node">
<title>Node12</title>
<g id="a_Node000012"><a xlink:href="Emoji_8hpp.html" target="_top" xlink:title=" ">
<polygon fill="white" stroke="#666666" points="704.75,-150 601,-150 601,-130 704.75,-130 704.75,-150"/>
<text xml:space="preserve" text-anchor="middle" x="652.88" y="-136.5" font-family="Helvetica,sans-Serif" font-size="10.00">src/Emoji/Emoji.hpp</text>
</a>
</g>
</g>
<!-- Node8&#45;&gt;Node12 -->
<g id="edge13_Node000008_Node000012" class="edge">
<title>Node8&#45;&gt;Node12</title>
<g id="a_edge13_Node000008_Node000012"><a xlink:title=" ">
<path fill="none" stroke="#63b8ff" d="M652.88,-186.28C652.88,-174.27 652.88,-159.74 652.88,-150.44"/>
<polygon fill="#63b8ff" stroke="#63b8ff" points="649.38,-186.03 652.88,-196.03 656.38,-186.03 649.38,-186.03"/>
</a>
</g>
</g>
<!-- Node10&#45;&gt;Node9 -->
<g id="edge11_Node000010_Node000009" class="edge">
<title>Node10&#45;&gt;Node9</title>
<g id="a_edge11_Node000010_Node000009"><a xlink:title=" ">
<path fill="none" stroke="#63b8ff" d="M739.38,-49.27C753.77,-39.35 770.05,-28.12 781.23,-20.41"/>
<polygon fill="#63b8ff" stroke="#63b8ff" points="737.77,-46.13 731.53,-54.69 741.74,-51.89 737.77,-46.13"/>
</a>
</g>
</g>
<!-- Node11 -->
<g id="Node000011" class="node">
<title>Node11</title>
<g id="a_Node000011"><a xlink:href="EmojiModuleLib_8cpp.html" target="_top" xlink:title=" ">
<polygon fill="white" stroke="#666666" points="702,-20 581.75,-20 581.75,0 702,0 702,-20"/>
<text xml:space="preserve" text-anchor="middle" x="641.88" y="-6.5" font-family="Helvetica,sans-Serif" font-size="10.00">src/EmojiModuleLib.cpp</text>
</a>
</g>
</g>
<!-- Node10&#45;&gt;Node11 -->
<g id="edge12_Node000010_Node000011" class="edge">
<title>Node10&#45;&gt;Node11</title>
<g id="a_edge12_Node000010_Node000011"><a xlink:title=" ">
<path fill="none" stroke="#63b8ff" d="M682.4,-47.84C671.89,-38.29 660.31,-27.76 652.22,-20.41"/>
<polygon fill="#63b8ff" stroke="#63b8ff" points="680,-50.39 689.76,-54.53 684.71,-45.21 680,-50.39"/>
</a>
</g>
</g>
<!-- Node12&#45;&gt;Node10 -->
<g id="edge14_Node000012_Node000010" class="edge">
<title>Node12&#45;&gt;Node10</title>
<g id="a_edge14_Node000012_Node000010"><a xlink:title=" ">
<path fill="none" stroke="#63b8ff" d="M667.89,-120.98C676.43,-110.74 687,-98.06 695.12,-88.3"/>
<polygon fill="#63b8ff" stroke="#63b8ff" points="665.44,-118.46 661.72,-128.38 670.81,-122.94 665.44,-118.46"/>
</a>
</g>
</g>
<!-- Node13 -->
<g id="Node000013" class="node">
<title>Node13</title>
<g id="a_Node000013"><a xlink:href="Emoji_8cpp.html" target="_top" xlink:title=" ">
<polygon fill="white" stroke="#666666" points="630.75,-82 527,-82 527,-62 630.75,-62 630.75,-82"/>
<text xml:space="preserve" text-anchor="middle" x="578.88" y="-68.5" font-family="Helvetica,sans-Serif" font-size="10.00">src/Emoji/Emoji.cpp</text>
</a>
</g>
</g>
<!-- Node12&#45;&gt;Node13 -->
<g id="edge15_Node000012_Node000013" class="edge">
<title>Node12&#45;&gt;Node13</title>
<g id="a_edge15_Node000012_Node000013"><a xlink:title=" ">
<path fill="none" stroke="#63b8ff" d="M633.78,-121.97C619.68,-109.39 600.99,-92.72 589.46,-82.44"/>
<polygon fill="#63b8ff" stroke="#63b8ff" points="631.35,-124.49 641.14,-128.54 636.01,-119.27 631.35,-124.49"/>
</a>
</g>
</g>
</g>
</svg>
