<?xml version="1.0" encoding="UTF-8" standalone="no"?>
<!DOCTYPE svg PUBLIC "-//W3C//DTD SVG 1.1//EN"
 "http://www.w3.org/Graphics/SVG/1.1/DTD/svg11.dtd">
<!-- Generated by graphviz version 13.1.2 (20250808.2320)
 -->
<!-- Title: src/Utils/Json/IJsonSerializer.hpp Pages: 1 -->
<svg width="772pt" height="288pt"
 viewBox="0.00 0.00 772.00 288.00" xmlns="http://www.w3.org/2000/svg" xmlns:xlink="http://www.w3.org/1999/xlink">
<g id="graph0" class="graph" transform="scale(1 1) rotate(0) translate(4 284)">
<title>src/Utils/Json/IJsonSerializer.hpp</title>
<!-- Node1 -->
<g id="Node000001" class="node">
<title>Node1</title>
<g id="a_Node000001"><a xlink:title=" ">
<polygon fill="#999999" stroke="#666666" points="435,-280 272,-280 272,-260 435,-260 435,-280"/>
<text xml:space="preserve" text-anchor="middle" x="353.5" y="-266.5" font-family="Helvetica,sans-Serif" font-size="10.00">src/Utils/Json/IJsonSerializer.hpp</text>
</a>
</g>
</g>
<!-- Node2 -->
<g id="Node000002" class="node">
<title>Node2</title>
<g id="a_Node000002"><a xlink:href="CustomStringsLoader_8hpp.html" target="_top" xlink:title=" ">
<polygon fill="white" stroke="#666666" points="255,-224 110,-224 110,-192 255,-192 255,-224"/>
<text xml:space="preserve" text-anchor="start" x="118" y="-210.5" font-family="Helvetica,sans-Serif" font-size="10.00">src/Utils/Json/CustomStrings</text>
<text xml:space="preserve" text-anchor="middle" x="182.5" y="-198.5" font-family="Helvetica,sans-Serif" font-size="10.00">Loader.hpp</text>
</a>
</g>
</g>
<!-- Node1&#45;&gt;Node2 -->
<g id="edge1_Node000001_Node000002" class="edge">
<title>Node1&#45;&gt;Node2</title>
<g id="a_edge1_Node000001_Node000002"><a xlink:title=" ">
<path fill="none" stroke="#63b8ff" d="M316.09,-255.87C289.75,-246.63 254.38,-234.22 226.65,-224.49"/>
<polygon fill="#63b8ff" stroke="#63b8ff" points="314.76,-259.12 325.35,-259.12 317.08,-252.51 314.76,-259.12"/>
</a>
</g>
</g>
<!-- Node5 -->
<g id="Node000005" class="node">
<title>Node5</title>
<g id="a_Node000005"><a xlink:href="JsonSerializer_8hpp.html" target="_top" xlink:title=" ">
<polygon fill="white" stroke="#666666" points="433.5,-218 273.5,-218 273.5,-198 433.5,-198 433.5,-218"/>
<text xml:space="preserve" text-anchor="middle" x="353.5" y="-204.5" font-family="Helvetica,sans-Serif" font-size="10.00">src/Utils/Json/JsonSerializer.hpp</text>
</a>
</g>
</g>
<!-- Node1&#45;&gt;Node5 -->
<g id="edge4_Node000001_Node000005" class="edge">
<title>Node1&#45;&gt;Node5</title>
<g id="a_edge4_Node000001_Node000005"><a xlink:title=" ">
<path fill="none" stroke="#63b8ff" d="M353.5,-248.25C353.5,-237.97 353.5,-226.09 353.5,-218.11"/>
<polygon fill="#63b8ff" stroke="#63b8ff" points="350,-248.11 353.5,-258.11 357,-248.11 350,-248.11"/>
</a>
</g>
</g>
<!-- Node7 -->
<g id="Node000007" class="node">
<title>Node7</title>
<g id="a_Node000007"><a xlink:href="UtilsFactory_8hpp.html" target="_top" xlink:title=" ">
<polygon fill="white" stroke="#666666" points="579,-218 452,-218 452,-198 579,-198 579,-218"/>
<text xml:space="preserve" text-anchor="middle" x="515.5" y="-204.5" font-family="Helvetica,sans-Serif" font-size="10.00">src/Utils/UtilsFactory.hpp</text>
</a>
</g>
</g>
<!-- Node1&#45;&gt;Node7 -->
<g id="edge7_Node000001_Node000007" class="edge">
<title>Node1&#45;&gt;Node7</title>
<g id="a_edge7_Node000001_Node000007"><a xlink:title=" ">
<path fill="none" stroke="#63b8ff" d="M389.44,-255.69C419.98,-244.38 463.04,-228.43 490.1,-218.41"/>
<polygon fill="#63b8ff" stroke="#63b8ff" points="388.39,-252.34 380.23,-259.1 390.82,-258.91 388.39,-252.34"/>
</a>
</g>
</g>
<!-- Node3 -->
<g id="Node000003" class="node">
<title>Node3</title>
<g id="a_Node000003"><a xlink:href="CustomStringsLoader_8cpp.html" target="_top" xlink:title=" ">
<polygon fill="white" stroke="#666666" points="145,-156 0,-156 0,-124 145,-124 145,-156"/>
<text xml:space="preserve" text-anchor="start" x="8" y="-142.5" font-family="Helvetica,sans-Serif" font-size="10.00">src/Utils/Json/CustomStrings</text>
<text xml:space="preserve" text-anchor="middle" x="72.5" y="-130.5" font-family="Helvetica,sans-Serif" font-size="10.00">Loader.cpp</text>
</a>
</g>
</g>
<!-- Node2&#45;&gt;Node3 -->
<g id="edge2_Node000002_Node000003" class="edge">
<title>Node2&#45;&gt;Node3</title>
<g id="a_edge2_Node000002_Node000003"><a xlink:title=" ">
<path fill="none" stroke="#63b8ff" d="M147.16,-185.8C131.21,-176.23 112.72,-165.13 98.13,-156.38"/>
<polygon fill="#63b8ff" stroke="#63b8ff" points="145.04,-188.6 155.41,-190.75 148.64,-182.6 145.04,-188.6"/>
</a>
</g>
</g>
<!-- Node4 -->
<g id="Node000004" class="node">
<title>Node4</title>
<g id="a_Node000004"><a xlink:href="UtilsFactory_8cpp.html" target="_top" xlink:title=" ">
<polygon fill="white" stroke="#666666" points="290,-150 163,-150 163,-130 290,-130 290,-150"/>
<text xml:space="preserve" text-anchor="middle" x="226.5" y="-136.5" font-family="Helvetica,sans-Serif" font-size="10.00">src/Utils/UtilsFactory.cpp</text>
</a>
</g>
</g>
<!-- Node2&#45;&gt;Node4 -->
<g id="edge3_Node000002_Node000004" class="edge">
<title>Node2&#45;&gt;Node4</title>
<g id="a_edge3_Node000002_Node000004"><a xlink:title=" ">
<path fill="none" stroke="#63b8ff" d="M198.93,-182.36C206.38,-171.18 214.75,-158.63 220.29,-150.32"/>
<polygon fill="#63b8ff" stroke="#63b8ff" points="196.18,-180.17 193.54,-190.43 202,-184.05 196.18,-180.17"/>
</a>
</g>
</g>
<!-- Node5&#45;&gt;Node4 -->
<g id="edge6_Node000005_Node000004" class="edge">
<title>Node5&#45;&gt;Node4</title>
<g id="a_edge6_Node000005_Node000004"><a xlink:title=" ">
<path fill="none" stroke="#63b8ff" d="M325.14,-192.26C300.54,-179.48 265.68,-161.36 244.66,-150.44"/>
<polygon fill="#63b8ff" stroke="#63b8ff" points="323.47,-195.34 333.96,-196.85 326.7,-189.13 323.47,-195.34"/>
</a>
</g>
</g>
<!-- Node6 -->
<g id="Node000006" class="node">
<title>Node6</title>
<g id="a_Node000006"><a xlink:href="JsonSerializer_8cpp.html" target="_top" xlink:title=" ">
<polygon fill="white" stroke="#666666" points="468.5,-150 308.5,-150 308.5,-130 468.5,-130 468.5,-150"/>
<text xml:space="preserve" text-anchor="middle" x="388.5" y="-136.5" font-family="Helvetica,sans-Serif" font-size="10.00">src/Utils/Json/JsonSerializer.cpp</text>
</a>
</g>
</g>
<!-- Node5&#45;&gt;Node6 -->
<g id="edge5_Node000005_Node000006" class="edge">
<title>Node5&#45;&gt;Node6</title>
<g id="a_edge5_Node000005_Node000006"><a xlink:title=" ">
<path fill="none" stroke="#63b8ff" d="M363.89,-187.4C370.37,-175.2 378.4,-160.04 383.49,-150.44"/>
<polygon fill="#63b8ff" stroke="#63b8ff" points="360.82,-185.73 359.22,-196.21 367,-189.01 360.82,-185.73"/>
</a>
</g>
</g>
<!-- Node7&#45;&gt;Node4 -->
<g id="edge15_Node000007_Node000004" class="edge">
<title>Node7&#45;&gt;Node4</title>
<g id="a_edge15_Node000007_Node000004"><a xlink:title=" ">
<path fill="none" stroke="#63b8ff" d="M462.98,-195C406.9,-182.2 319.19,-162.17 267.83,-150.44"/>
<polygon fill="#63b8ff" stroke="#63b8ff" points="462.09,-198.39 472.62,-197.21 463.65,-191.57 462.09,-198.39"/>
</a>
</g>
</g>
<!-- Node8 -->
<g id="Node000008" class="node">
<title>Node8</title>
<g id="a_Node000008"><a xlink:href="Application_8cpp.html" target="_top" xlink:title=" ">
<polygon fill="white" stroke="#666666" points="570.88,-20 422.12,-20 422.12,0 570.88,0 570.88,-20"/>
<text xml:space="preserve" text-anchor="middle" x="496.5" y="-6.5" font-family="Helvetica,sans-Serif" font-size="10.00">application/src/Application.cpp</text>
</a>
</g>
</g>
<!-- Node7&#45;&gt;Node8 -->
<g id="edge8_Node000007_Node000008" class="edge">
<title>Node7&#45;&gt;Node8</title>
<g id="a_edge8_Node000007_Node000008"><a xlink:title=" ">
<path fill="none" stroke="#63b8ff" d="M513.49,-186.29C509.42,-144.24 500.31,-50.3 497.41,-20.36"/>
<polygon fill="#63b8ff" stroke="#63b8ff" points="509.99,-186.42 514.44,-196.04 516.96,-185.75 509.99,-186.42"/>
</a>
</g>
</g>
<!-- Node9 -->
<g id="Node000009" class="node">
<title>Node9</title>
<g id="a_Node000009"><a xlink:href="EmojiModuleLib_8hpp.html" target="_top" xlink:title=" ">
<polygon fill="white" stroke="#666666" points="642.88,-88 524.12,-88 524.12,-56 642.88,-56 642.88,-88"/>
<text xml:space="preserve" text-anchor="start" x="532.12" y="-74.5" font-family="Helvetica,sans-Serif" font-size="10.00">include/EmojiModuleLib</text>
<text xml:space="preserve" text-anchor="middle" x="583.5" y="-62.5" font-family="Helvetica,sans-Serif" font-size="10.00">/EmojiModuleLib.hpp</text>
</a>
</g>
</g>
<!-- Node7&#45;&gt;Node9 -->
<g id="edge9_Node000007_Node000009" class="edge">
<title>Node7&#45;&gt;Node9</title>
<g id="a_edge9_Node000007_Node000009"><a xlink:title=" ">
<path fill="none" stroke="#63b8ff" d="M523.83,-187.32C531.19,-170.33 542.43,-145.24 553.5,-124 559.86,-111.79 567.78,-98.39 573.89,-88.39"/>
<polygon fill="#63b8ff" stroke="#63b8ff" points="520.73,-185.68 520.01,-196.25 527.16,-188.43 520.73,-185.68"/>
</a>
</g>
</g>
<!-- Node11 -->
<g id="Node000011" class="node">
<title>Node11</title>
<g id="a_Node000011"><a xlink:href="Emoji_8hpp.html" target="_top" xlink:title=" ">
<polygon fill="white" stroke="#666666" points="666.38,-150 562.62,-150 562.62,-130 666.38,-130 666.38,-150"/>
<text xml:space="preserve" text-anchor="middle" x="614.5" y="-136.5" font-family="Helvetica,sans-Serif" font-size="10.00">src/Emoji/Emoji.hpp</text>
</a>
</g>
</g>
<!-- Node7&#45;&gt;Node11 -->
<g id="edge12_Node000007_Node000011" class="edge">
<title>Node7&#45;&gt;Node11</title>
<g id="a_edge12_Node000007_Node000011"><a xlink:title=" ">
<path fill="none" stroke="#63b8ff" d="M539.17,-191.22C558.24,-178.51 584.4,-161.07 600.34,-150.44"/>
<polygon fill="#63b8ff" stroke="#63b8ff" points="537.32,-188.25 530.94,-196.7 541.21,-194.07 537.32,-188.25"/>
</a>
</g>
</g>
<!-- Node9&#45;&gt;Node8 -->
<g id="edge10_Node000009_Node000008" class="edge">
<title>Node9&#45;&gt;Node8</title>
<g id="a_edge10_Node000009_Node000008"><a xlink:title=" ">
<path fill="none" stroke="#63b8ff" d="M551.99,-49.27C537.61,-39.35 521.33,-28.12 510.14,-20.41"/>
<polygon fill="#63b8ff" stroke="#63b8ff" points="549.63,-51.89 559.85,-54.69 553.6,-46.13 549.63,-51.89"/>
</a>
</g>
</g>
<!-- Node10 -->
<g id="Node000010" class="node">
<title>Node10</title>
<g id="a_Node000010"><a xlink:href="EmojiModuleLib_8cpp.html" target="_top" xlink:title=" ">
<polygon fill="white" stroke="#666666" points="709.62,-20 589.38,-20 589.38,0 709.62,0 709.62,-20"/>
<text xml:space="preserve" text-anchor="middle" x="649.5" y="-6.5" font-family="Helvetica,sans-Serif" font-size="10.00">src/EmojiModuleLib.cpp</text>
</a>
</g>
</g>
<!-- Node9&#45;&gt;Node10 -->
<g id="edge11_Node000009_Node000010" class="edge">
<title>Node9&#45;&gt;Node10</title>
<g id="a_edge11_Node000009_Node000010"><a xlink:title=" ">
<path fill="none" stroke="#63b8ff" d="M608.97,-47.84C619.48,-38.29 631.07,-27.76 639.15,-20.41"/>
<polygon fill="#63b8ff" stroke="#63b8ff" points="606.66,-45.21 601.62,-54.53 611.37,-50.39 606.66,-45.21"/>
</a>
</g>
</g>
<!-- Node11&#45;&gt;Node9 -->
<g id="edge13_Node000011_Node000009" class="edge">
<title>Node11&#45;&gt;Node9</title>
<g id="a_edge13_Node000011_Node000009"><a xlink:title=" ">
<path fill="none" stroke="#63b8ff" d="M605.29,-119.39C600.62,-109.45 595.03,-97.56 590.69,-88.3"/>
<polygon fill="#63b8ff" stroke="#63b8ff" points="602,-120.61 609.41,-128.17 608.33,-117.63 602,-120.61"/>
</a>
</g>
</g>
<!-- Node12 -->
<g id="Node000012" class="node">
<title>Node12</title>
<g id="a_Node000012"><a xlink:href="Emoji_8cpp.html" target="_top" xlink:title=" ">
<polygon fill="white" stroke="#666666" points="764.38,-82 660.62,-82 660.62,-62 764.38,-62 764.38,-82"/>
<text xml:space="preserve" text-anchor="middle" x="712.5" y="-68.5" font-family="Helvetica,sans-Serif" font-size="10.00">src/Emoji/Emoji.cpp</text>
</a>
</g>
</g>
<!-- Node11&#45;&gt;Node12 -->
<g id="edge14_Node000011_Node000012" class="edge">
<title>Node11&#45;&gt;Node12</title>
<g id="a_edge14_Node000011_Node000012"><a xlink:title=" ">
<path fill="none" stroke="#63b8ff" d="M637.94,-123.22C656.81,-110.51 682.7,-93.07 698.49,-82.44"/>
<polygon fill="#63b8ff" stroke="#63b8ff" points="636.14,-120.21 629.8,-128.7 640.05,-126.02 636.14,-120.21"/>
</a>
</g>
</g>
</g>
</svg>
