<?xml version="1.0" encoding="UTF-8" standalone="no"?>
<!DOCTYPE svg PUBLIC "-//W3C//DTD SVG 1.1//EN"
 "http://www.w3.org/Graphics/SVG/1.1/DTD/svg11.dtd">
<!-- Generated by graphviz version 13.1.2 (20250808.2320)
 -->
<!-- Title: src/Utils/Logger/ILogger.hpp Pages: 1 -->
<svg width="708pt" height="344pt"
 viewBox="0.00 0.00 708.00 344.00" xmlns="http://www.w3.org/2000/svg" xmlns:xlink="http://www.w3.org/1999/xlink">
<g id="graph0" class="graph" transform="scale(1 1) rotate(0) translate(4 340)">
<title>src/Utils/Logger/ILogger.hpp</title>
<!-- Node1 -->
<g id="Node000001" class="node">
<title>Node1</title>
<g id="a_Node000001"><a xlink:title=" ">
<polygon fill="#999999" stroke="#666666" points="382.62,-336 243.62,-336 243.62,-316 382.62,-316 382.62,-336"/>
<text xml:space="preserve" text-anchor="middle" x="313.12" y="-322.5" font-family="Helvetica,sans-Serif" font-size="10.00">src/Utils/Logger/ILogger.hpp</text>
</a>
</g>
</g>
<!-- Node2 -->
<g id="Node000002" class="node">
<title>Node2</title>
<g id="a_Node000002"><a xlink:href="ConsoleLogger_8hpp.html" target="_top" xlink:title=" ">
<polygon fill="white" stroke="#666666" points="129.12,-280 5.12,-280 5.12,-248 129.12,-248 129.12,-280"/>
<text xml:space="preserve" text-anchor="start" x="13.12" y="-266.5" font-family="Helvetica,sans-Serif" font-size="10.00">src/Utils/Logger/Console</text>
<text xml:space="preserve" text-anchor="middle" x="67.12" y="-254.5" font-family="Helvetica,sans-Serif" font-size="10.00">Logger.hpp</text>
</a>
</g>
</g>
<!-- Node1&#45;&gt;Node2 -->
<g id="edge1_Node000001_Node000002" class="edge">
<title>Node1&#45;&gt;Node2</title>
<g id="a_edge1_Node000001_Node000002"><a xlink:title=" ">
<path fill="none" stroke="#63b8ff" d="M263.45,-312.89C224.84,-303.47 171.05,-290.35 129.54,-280.22"/>
<polygon fill="#63b8ff" stroke="#63b8ff" points="262.4,-316.23 272.95,-315.2 264.06,-309.43 262.4,-316.23"/>
</a>
</g>
</g>
<!-- Node5 -->
<g id="Node000005" class="node">
<title>Node5</title>
<g id="a_Node000005"><a xlink:href="LoggerFactory_8hpp.html" target="_top" xlink:title=" ">
<polygon fill="white" stroke="#666666" points="487.25,-274 319,-274 319,-254 487.25,-254 487.25,-274"/>
<text xml:space="preserve" text-anchor="middle" x="403.12" y="-260.5" font-family="Helvetica,sans-Serif" font-size="10.00">src/Utils/Logger/LoggerFactory.hpp</text>
</a>
</g>
</g>
<!-- Node1&#45;&gt;Node5 -->
<g id="edge4_Node000001_Node000005" class="edge">
<title>Node1&#45;&gt;Node5</title>
<g id="a_edge4_Node000001_Node000005"><a xlink:title=" ">
<path fill="none" stroke="#63b8ff" d="M336.32,-309.54C353.04,-298.39 375.06,-283.71 389.16,-274.31"/>
<polygon fill="#63b8ff" stroke="#63b8ff" points="334.83,-306.33 328.45,-314.79 338.71,-312.15 334.83,-306.33"/>
</a>
</g>
</g>
<!-- Node7 -->
<g id="Node000007" class="node">
<title>Node7</title>
<g id="a_Node000007"><a xlink:href="UtilsFactory_8hpp.html" target="_top" xlink:title=" ">
<polygon fill="white" stroke="#666666" points="546.62,-206 419.62,-206 419.62,-186 546.62,-186 546.62,-206"/>
<text xml:space="preserve" text-anchor="middle" x="483.12" y="-192.5" font-family="Helvetica,sans-Serif" font-size="10.00">src/Utils/UtilsFactory.hpp</text>
</a>
</g>
</g>
<!-- Node1&#45;&gt;Node7 -->
<g id="edge19_Node000001_Node000007" class="edge">
<title>Node1&#45;&gt;Node7</title>
<g id="a_edge19_Node000001_Node000007"><a xlink:title=" ">
<path fill="none" stroke="#63b8ff" d="M394.42,-314.95C437.09,-307.82 483.15,-296.55 496.12,-280 513.22,-258.19 497.78,-223.03 488.68,-206.36"/>
<polygon fill="#63b8ff" stroke="#63b8ff" points="393.91,-311.48 384.59,-316.52 395.01,-318.4 393.91,-311.48"/>
</a>
</g>
</g>
<!-- Node13 -->
<g id="Node000013" class="node">
<title>Node13</title>
<g id="a_Node000013"><a xlink:href="NullLogger_8hpp.html" target="_top" xlink:title=" ">
<polygon fill="white" stroke="#666666" points="300.75,-274 147.5,-274 147.5,-254 300.75,-254 300.75,-274"/>
<text xml:space="preserve" text-anchor="middle" x="224.12" y="-260.5" font-family="Helvetica,sans-Serif" font-size="10.00">src/Utils/Logger/NullLogger.hpp</text>
</a>
</g>
</g>
<!-- Node1&#45;&gt;Node13 -->
<g id="edge16_Node000001_Node000013" class="edge">
<title>Node1&#45;&gt;Node13</title>
<g id="a_edge16_Node000001_Node000013"><a xlink:title=" ">
<path fill="none" stroke="#63b8ff" d="M289.72,-309.22C273.24,-298.11 251.74,-283.62 237.93,-274.31"/>
<polygon fill="#63b8ff" stroke="#63b8ff" points="287.72,-312.09 297.96,-314.78 291.63,-306.29 287.72,-312.09"/>
</a>
</g>
</g>
<!-- Node3 -->
<g id="Node000003" class="node">
<title>Node3</title>
<g id="a_Node000003"><a xlink:href="ConsoleLoggerTest_8cpp.html" target="_top" xlink:title=" ">
<polygon fill="white" stroke="#666666" points="126.25,-212 0,-212 0,-180 126.25,-180 126.25,-212"/>
<text xml:space="preserve" text-anchor="start" x="8" y="-198.5" font-family="Helvetica,sans-Serif" font-size="10.00">application/tests/Console</text>
<text xml:space="preserve" text-anchor="middle" x="63.12" y="-186.5" font-family="Helvetica,sans-Serif" font-size="10.00">LoggerTest.cpp</text>
</a>
</g>
</g>
<!-- Node2&#45;&gt;Node3 -->
<g id="edge2_Node000002_Node000003" class="edge">
<title>Node2&#45;&gt;Node3</title>
<g id="a_edge2_Node000002_Node000003"><a xlink:title=" ">
<path fill="none" stroke="#63b8ff" d="M65.51,-236.31C65.01,-228.12 64.48,-219.38 64.05,-212.22"/>
<polygon fill="#63b8ff" stroke="#63b8ff" points="62.01,-236.41 66.11,-246.18 68.99,-235.99 62.01,-236.41"/>
</a>
</g>
</g>
<!-- Node4 -->
<g id="Node000004" class="node">
<title>Node4</title>
<g id="a_Node000004"><a xlink:href="LoggerFactory_8cpp.html" target="_top" xlink:title=" ">
<polygon fill="white" stroke="#666666" points="312.25,-206 144,-206 144,-186 312.25,-186 312.25,-206"/>
<text xml:space="preserve" text-anchor="middle" x="228.12" y="-192.5" font-family="Helvetica,sans-Serif" font-size="10.00">src/Utils/Logger/LoggerFactory.cpp</text>
</a>
</g>
</g>
<!-- Node2&#45;&gt;Node4 -->
<g id="edge3_Node000002_Node000004" class="edge">
<title>Node2&#45;&gt;Node4</title>
<g id="a_edge3_Node000002_Node000004"><a xlink:title=" ">
<path fill="none" stroke="#63b8ff" d="M115.45,-243.19C145.12,-231.03 181.77,-216 205.05,-206.46"/>
<polygon fill="#63b8ff" stroke="#63b8ff" points="114.2,-239.92 106.27,-246.95 116.85,-246.4 114.2,-239.92"/>
</a>
</g>
</g>
<!-- Node5&#45;&gt;Node4 -->
<g id="edge5_Node000005_Node000004" class="edge">
<title>Node5&#45;&gt;Node4</title>
<g id="a_edge5_Node000005_Node000004"><a xlink:title=" ">
<path fill="none" stroke="#63b8ff" d="M367.63,-249.61C333.62,-236.79 283.15,-217.75 253.15,-206.44"/>
<polygon fill="#63b8ff" stroke="#63b8ff" points="366.04,-252.76 376.64,-253.01 368.51,-246.21 366.04,-252.76"/>
</a>
</g>
</g>
<!-- Node6 -->
<g id="Node000006" class="node">
<title>Node6</title>
<g id="a_Node000006"><a xlink:href="UtilsFactory_8cpp.html" target="_top" xlink:title=" ">
<polygon fill="white" stroke="#666666" points="413.62,-144 286.62,-144 286.62,-124 413.62,-124 413.62,-144"/>
<text xml:space="preserve" text-anchor="middle" x="350.12" y="-130.5" font-family="Helvetica,sans-Serif" font-size="10.00">src/Utils/UtilsFactory.cpp</text>
</a>
</g>
</g>
<!-- Node5&#45;&gt;Node6 -->
<g id="edge6_Node000005_Node000006" class="edge">
<title>Node5&#45;&gt;Node6</title>
<g id="a_edge6_Node000005_Node000006"><a xlink:title=" ">
<path fill="none" stroke="#63b8ff" d="M394.98,-243.32C383.41,-215.38 362.66,-165.28 354.05,-144.47"/>
<polygon fill="#63b8ff" stroke="#63b8ff" points="391.67,-244.5 398.73,-252.4 398.14,-241.82 391.67,-244.5"/>
</a>
</g>
</g>
<!-- Node5&#45;&gt;Node7 -->
<g id="edge7_Node000005_Node000007" class="edge">
<title>Node5&#45;&gt;Node7</title>
<g id="a_edge7_Node000005_Node000007"><a xlink:title=" ">
<path fill="none" stroke="#63b8ff" d="M423.33,-246.33C438.63,-233.71 459.1,-216.82 471.68,-206.44"/>
<polygon fill="#63b8ff" stroke="#63b8ff" points="421.24,-243.52 415.75,-252.58 425.7,-248.92 421.24,-243.52"/>
</a>
</g>
</g>
<!-- Node7&#45;&gt;Node6 -->
<g id="edge15_Node000007_Node000006" class="edge">
<title>Node7&#45;&gt;Node6</title>
<g id="a_edge15_Node000007_Node000006"><a xlink:title=" ">
<path fill="none" stroke="#63b8ff" d="M451.92,-180.92C426.89,-169.63 392.47,-154.1 370.76,-144.31"/>
<polygon fill="#63b8ff" stroke="#63b8ff" points="450.41,-184.08 460.96,-185 453.29,-177.7 450.41,-184.08"/>
</a>
</g>
</g>
<!-- Node8 -->
<g id="Node000008" class="node">
<title>Node8</title>
<g id="a_Node000008"><a xlink:href="Application_8cpp.html" target="_top" xlink:title=" ">
<polygon fill="white" stroke="#666666" points="699.5,-20 550.75,-20 550.75,0 699.5,0 699.5,-20"/>
<text xml:space="preserve" text-anchor="middle" x="625.12" y="-6.5" font-family="Helvetica,sans-Serif" font-size="10.00">application/src/Application.cpp</text>
</a>
</g>
</g>
<!-- Node7&#45;&gt;Node8 -->
<g id="edge8_Node000007_Node000008" class="edge">
<title>Node7&#45;&gt;Node8</title>
<g id="a_edge8_Node000007_Node000008"><a xlink:title=" ">
<path fill="none" stroke="#63b8ff" d="M510.51,-180.03C539.88,-162.32 585.13,-129.87 606.12,-88 617.48,-65.35 622.33,-35.48 624.16,-20.47"/>
<polygon fill="#63b8ff" stroke="#63b8ff" points="509.02,-176.85 502.15,-184.91 512.55,-182.89 509.02,-176.85"/>
</a>
</g>
</g>
<!-- Node9 -->
<g id="Node000009" class="node">
<title>Node9</title>
<g id="a_Node000009"><a xlink:href="EmojiModuleLib_8hpp.html" target="_top" xlink:title=" ">
<polygon fill="white" stroke="#666666" points="597.5,-88 478.75,-88 478.75,-56 597.5,-56 597.5,-88"/>
<text xml:space="preserve" text-anchor="start" x="486.75" y="-74.5" font-family="Helvetica,sans-Serif" font-size="10.00">include/EmojiModuleLib</text>
<text xml:space="preserve" text-anchor="middle" x="538.12" y="-62.5" font-family="Helvetica,sans-Serif" font-size="10.00">/EmojiModuleLib.hpp</text>
</a>
</g>
</g>
<!-- Node7&#45;&gt;Node9 -->
<g id="edge9_Node000007_Node000009" class="edge">
<title>Node7&#45;&gt;Node9</title>
<g id="a_edge9_Node000007_Node000009"><a xlink:title=" ">
<path fill="none" stroke="#63b8ff" d="M510.69,-179.72C523.38,-171.06 537.14,-158.95 544.12,-144 552.4,-126.29 548.18,-103.4 543.73,-88.46"/>
<polygon fill="#63b8ff" stroke="#63b8ff" points="509.18,-176.53 502.61,-184.85 512.93,-182.44 509.18,-176.53"/>
</a>
</g>
</g>
<!-- Node11 -->
<g id="Node000011" class="node">
<title>Node11</title>
<g id="a_Node000011"><a xlink:href="Emoji_8hpp.html" target="_top" xlink:title=" ">
<polygon fill="white" stroke="#666666" points="535,-144 431.25,-144 431.25,-124 535,-124 535,-144"/>
<text xml:space="preserve" text-anchor="middle" x="483.12" y="-130.5" font-family="Helvetica,sans-Serif" font-size="10.00">src/Emoji/Emoji.hpp</text>
</a>
</g>
</g>
<!-- Node7&#45;&gt;Node11 -->
<g id="edge12_Node000007_Node000011" class="edge">
<title>Node7&#45;&gt;Node11</title>
<g id="a_edge12_Node000007_Node000011"><a xlink:title=" ">
<path fill="none" stroke="#63b8ff" d="M483.12,-174.25C483.12,-163.97 483.12,-152.09 483.12,-144.11"/>
<polygon fill="#63b8ff" stroke="#63b8ff" points="479.63,-174.11 483.13,-184.11 486.63,-174.11 479.63,-174.11"/>
</a>
</g>
</g>
<!-- Node9&#45;&gt;Node8 -->
<g id="edge10_Node000009_Node000008" class="edge">
<title>Node9&#45;&gt;Node8</title>
<g id="a_edge10_Node000009_Node000008"><a xlink:title=" ">
<path fill="none" stroke="#63b8ff" d="M569.63,-49.27C584.02,-39.35 600.3,-28.12 611.48,-20.41"/>
<polygon fill="#63b8ff" stroke="#63b8ff" points="568.02,-46.13 561.78,-54.69 571.99,-51.89 568.02,-46.13"/>
</a>
</g>
</g>
<!-- Node10 -->
<g id="Node000010" class="node">
<title>Node10</title>
<g id="a_Node000010"><a xlink:href="EmojiModuleLib_8cpp.html" target="_top" xlink:title=" ">
<polygon fill="white" stroke="#666666" points="532.25,-20 412,-20 412,0 532.25,0 532.25,-20"/>
<text xml:space="preserve" text-anchor="middle" x="472.12" y="-6.5" font-family="Helvetica,sans-Serif" font-size="10.00">src/EmojiModuleLib.cpp</text>
</a>
</g>
</g>
<!-- Node9&#45;&gt;Node10 -->
<g id="edge11_Node000009_Node000010" class="edge">
<title>Node9&#45;&gt;Node10</title>
<g id="a_edge11_Node000009_Node000010"><a xlink:title=" ">
<path fill="none" stroke="#63b8ff" d="M512.65,-47.84C502.14,-38.29 490.56,-27.76 482.47,-20.41"/>
<polygon fill="#63b8ff" stroke="#63b8ff" points="510.25,-50.39 520.01,-54.53 514.96,-45.21 510.25,-50.39"/>
</a>
</g>
</g>
<!-- Node11&#45;&gt;Node9 -->
<g id="edge13_Node000011_Node000009" class="edge">
<title>Node11&#45;&gt;Node9</title>
<g id="a_edge13_Node000011_Node000009"><a xlink:title=" ">
<path fill="none" stroke="#63b8ff" d="M499.28,-115.37C507.21,-106.73 516.65,-96.42 524.25,-88.14"/>
<polygon fill="#63b8ff" stroke="#63b8ff" points="496.92,-112.77 492.74,-122.51 502.08,-117.5 496.92,-112.77"/>
</a>
</g>
</g>
<!-- Node12 -->
<g id="Node000012" class="node">
<title>Node12</title>
<g id="a_Node000012"><a xlink:href="Emoji_8cpp.html" target="_top" xlink:title=" ">
<polygon fill="white" stroke="#666666" points="461,-82 357.25,-82 357.25,-62 461,-62 461,-82"/>
<text xml:space="preserve" text-anchor="middle" x="409.12" y="-68.5" font-family="Helvetica,sans-Serif" font-size="10.00">src/Emoji/Emoji.cpp</text>
</a>
</g>
</g>
<!-- Node11&#45;&gt;Node12 -->
<g id="edge14_Node000011_Node000012" class="edge">
<title>Node11&#45;&gt;Node12</title>
<g id="a_edge14_Node000011_Node000012"><a xlink:title=" ">
<path fill="none" stroke="#63b8ff" d="M462.83,-116.55C449.15,-105.45 431.61,-91.23 420.36,-82.11"/>
<polygon fill="#63b8ff" stroke="#63b8ff" points="460.41,-119.09 470.39,-122.67 464.82,-113.66 460.41,-119.09"/>
</a>
</g>
</g>
<!-- Node13&#45;&gt;Node4 -->
<g id="edge17_Node000013_Node000004" class="edge">
<title>Node13&#45;&gt;Node4</title>
<g id="a_edge17_Node000013_Node000004"><a xlink:title=" ">
<path fill="none" stroke="#63b8ff" d="M225.38,-242.28C226.11,-230.27 226.99,-215.74 227.55,-206.44"/>
<polygon fill="#63b8ff" stroke="#63b8ff" points="221.9,-241.84 224.79,-252.03 228.89,-242.26 221.9,-241.84"/>
</a>
</g>
</g>
<!-- Node13&#45;&gt;Node7 -->
<g id="edge18_Node000013_Node000007" class="edge">
<title>Node13&#45;&gt;Node7</title>
<g id="a_edge18_Node000013_Node000007"><a xlink:title=" ">
<path fill="none" stroke="#63b8ff" d="M272.14,-250.76C322.44,-237.95 400.34,-218.09 446.09,-206.44"/>
<polygon fill="#63b8ff" stroke="#63b8ff" points="271.53,-247.31 262.7,-253.17 273.25,-254.09 271.53,-247.31"/>
</a>
</g>
</g>
</g>
</svg>
