<?xml version="1.0" encoding="UTF-8" standalone="no"?>
<!DOCTYPE svg PUBLIC "-//W3C//DTD SVG 1.1//EN"
 "http://www.w3.org/Graphics/SVG/1.1/DTD/svg11.dtd">
<!-- Generated by graphviz version 13.1.2 (20250808.2320)
 -->
<!-- Title: Graphical Class Hierarchy Pages: 1 -->
<svg width="391pt" height="78pt"
 viewBox="0.00 0.00 391.00 78.00" xmlns="http://www.w3.org/2000/svg" xmlns:xlink="http://www.w3.org/1999/xlink">
<g id="graph0" class="graph" transform="scale(1 1) rotate(0) translate(4 74)">
<title>Graphical Class Hierarchy</title>
<!-- Node0 -->
<g id="Node000000" class="node">
<title>Node0</title>
<g id="a_Node000000"><a xlink:title=" ">
<polygon fill="#e0e0e0" stroke="#999999" points="98.5,-54 0,-54 0,-22 98.5,-22 98.5,-54"/>
<text xml:space="preserve" text-anchor="start" x="8" y="-40.5" font-family="Helvetica,sans-Serif" font-size="10.00">std::enable_shared</text>
<text xml:space="preserve" text-anchor="middle" x="49.25" y="-28.5" font-family="Helvetica,sans-Serif" font-size="10.00">_from_this</text>
</a>
</g>
</g>
<!-- Node1 -->
<g id="Node000001" class="node">
<title>Node1</title>
<g id="a_Node000001"><a xlink:href="classdotnamecpp_1_1logging_1_1ILogger.html" target="_top" xlink:title=" ">
<polygon fill="white" stroke="#666666" points="240.5,-54 134.5,-54 134.5,-22 240.5,-22 240.5,-54"/>
<text xml:space="preserve" text-anchor="start" x="142.5" y="-40.5" font-family="Helvetica,sans-Serif" font-size="10.00">dotnamecpp::logging</text>
<text xml:space="preserve" text-anchor="middle" x="187.5" y="-28.5" font-family="Helvetica,sans-Serif" font-size="10.00">::ILogger</text>
</a>
</g>
</g>
<!-- Node0&#45;&gt;Node1 -->
<g id="edge15_Node000000_Node000001" class="edge">
<title>Node0&#45;&gt;Node1</title>
<g id="a_edge15_Node000000_Node000001"><a xlink:title=" ">
<path fill="none" stroke="#63b8ff" d="M110.18,-38C118.14,-38 126.25,-38 134.07,-38"/>
<polygon fill="#63b8ff" stroke="#63b8ff" points="110.18,-34.5 100.18,-38 110.18,-41.5 110.18,-34.5"/>
</a>
</g>
</g>
<!-- Node2 -->
<g id="Node000002" class="node">
<title>Node2</title>
<g id="a_Node000002"><a xlink:href="classConsoleLogger.html" target="_top" xlink:title=" ">
<polygon fill="white" stroke="#666666" points="370.12,-70 288.88,-70 288.88,-50 370.12,-50 370.12,-70"/>
<text xml:space="preserve" text-anchor="middle" x="329.5" y="-56.5" font-family="Helvetica,sans-Serif" font-size="10.00">ConsoleLogger</text>
</a>
</g>
</g>
<!-- Node1&#45;&gt;Node2 -->
<g id="edge16_Node000001_Node000002" class="edge">
<title>Node1&#45;&gt;Node2</title>
<g id="a_edge16_Node000001_Node000002"><a xlink:title=" ">
<path fill="none" stroke="#63b8ff" d="M251.95,-47.97C264.42,-49.93 277.16,-51.93 288.58,-53.73"/>
<polygon fill="#63b8ff" stroke="#63b8ff" points="252.55,-44.52 242.13,-46.43 251.46,-51.44 252.55,-44.52"/>
</a>
</g>
</g>
<!-- Node3 -->
<g id="Node000003" class="node">
<title>Node3</title>
<g id="a_Node000003"><a xlink:href="classdotnamecpp_1_1logging_1_1NullLogger.html" target="_top" xlink:title=" ">
<polygon fill="white" stroke="#666666" points="382.5,-32 276.5,-32 276.5,0 382.5,0 382.5,-32"/>
<text xml:space="preserve" text-anchor="start" x="284.5" y="-18.5" font-family="Helvetica,sans-Serif" font-size="10.00">dotnamecpp::logging</text>
<text xml:space="preserve" text-anchor="middle" x="329.5" y="-6.5" font-family="Helvetica,sans-Serif" font-size="10.00">::NullLogger</text>
</a>
</g>
</g>
<!-- Node1&#45;&gt;Node3 -->
<g id="edge17_Node000001_Node000003" class="edge">
<title>Node1&#45;&gt;Node3</title>
<g id="a_edge17_Node000001_Node000003"><a xlink:title=" ">
<path fill="none" stroke="#63b8ff" d="M251.73,-28.06C259.95,-26.77 268.31,-25.46 276.33,-24.2"/>
<polygon fill="#63b8ff" stroke="#63b8ff" points="251.46,-24.56 242.13,-29.57 252.55,-31.48 251.46,-24.56"/>
</a>
</g>
</g>
</g>
</svg>
