<?xml version="1.0" encoding="UTF-8" standalone="no"?>
<!DOCTYPE svg PUBLIC "-//W3C//DTD SVG 1.1//EN"
 "http://www.w3.org/Graphics/SVG/1.1/DTD/svg11.dtd">
<!-- Generated by graphviz version 13.1.2 (20250808.2320)
 -->
<!-- Title: Graphical Class Hierarchy Pages: 1 -->
<svg width="214pt" height="104pt"
 viewBox="0.00 0.00 214.00 104.00" xmlns="http://www.w3.org/2000/svg" xmlns:xlink="http://www.w3.org/1999/xlink">
<g id="graph0" class="graph" transform="scale(1 1) rotate(0) translate(4 100)">
<title>Graphical Class Hierarchy</title>
<!-- Node0 -->
<g id="Node000000" class="node">
<title>Node0</title>
<g id="a_Node000000"><a xlink:title=" ">
<polygon fill="#e0e0e0" stroke="#999999" points="70,-58 0,-58 0,-38 70,-38 70,-58"/>
<text xml:space="preserve" text-anchor="middle" x="35" y="-44.5" font-family="Helvetica,sans-Serif" font-size="10.00">testing::Test</text>
</a>
</g>
</g>
<!-- Node1 -->
<g id="Node000001" class="node">
<title>Node1</title>
<g id="a_Node000001"><a xlink:href="classAssetManagerTest.html" target="_top" xlink:title=" ">
<polygon fill="white" stroke="#666666" points="204.88,-96 107.12,-96 107.12,-76 204.88,-76 204.88,-96"/>
<text xml:space="preserve" text-anchor="middle" x="156" y="-82.5" font-family="Helvetica,sans-Serif" font-size="10.00">AssetManagerTest</text>
</a>
</g>
</g>
<!-- Node0&#45;&gt;Node1 -->
<g id="edge18_Node000000_Node000001" class="edge">
<title>Node0&#45;&gt;Node1</title>
<g id="a_edge18_Node000000_Node000001"><a xlink:title=" ">
<path fill="none" stroke="#63b8ff" d="M79.77,-61.98C93.83,-66.47 109.15,-71.36 122.27,-75.55"/>
<polygon fill="#63b8ff" stroke="#63b8ff" points="80.86,-58.65 70.27,-58.94 78.74,-65.32 80.86,-58.65"/>
</a>
</g>
</g>
<!-- Node2 -->
<g id="Node000002" class="node">
<title>Node2</title>
<g id="a_Node000002"><a xlink:href="classConsoleLoggerTest.html" target="_top" xlink:title=" ">
<polygon fill="white" stroke="#666666" points="206,-58 106,-58 106,-38 206,-38 206,-58"/>
<text xml:space="preserve" text-anchor="middle" x="156" y="-44.5" font-family="Helvetica,sans-Serif" font-size="10.00">ConsoleLoggerTest</text>
</a>
</g>
</g>
<!-- Node0&#45;&gt;Node2 -->
<g id="edge19_Node000000_Node000002" class="edge">
<title>Node0&#45;&gt;Node2</title>
<g id="a_edge19_Node000000_Node000002"><a xlink:title=" ">
<path fill="none" stroke="#63b8ff" d="M81.89,-48C89.66,-48 97.75,-48 105.61,-48"/>
<polygon fill="#63b8ff" stroke="#63b8ff" points="81.93,-44.5 71.93,-48 81.93,-51.5 81.93,-44.5"/>
</a>
</g>
</g>
<!-- Node3 -->
<g id="Node000003" class="node">
<title>Node3</title>
<g id="a_Node000003"><a xlink:href="classFileReaderTest.html" target="_top" xlink:title=" ">
<polygon fill="white" stroke="#666666" points="197,-20 115,-20 115,0 197,0 197,-20"/>
<text xml:space="preserve" text-anchor="middle" x="156" y="-6.5" font-family="Helvetica,sans-Serif" font-size="10.00">FileReaderTest</text>
</a>
</g>
</g>
<!-- Node0&#45;&gt;Node3 -->
<g id="edge20_Node000000_Node000003" class="edge">
<title>Node0&#45;&gt;Node3</title>
<g id="a_edge20_Node000000_Node000003"><a xlink:title=" ">
<path fill="none" stroke="#63b8ff" d="M79.77,-34.02C93.83,-29.53 109.15,-24.64 122.27,-20.45"/>
<polygon fill="#63b8ff" stroke="#63b8ff" points="78.74,-30.68 70.27,-37.06 80.86,-37.35 78.74,-30.68"/>
</a>
</g>
</g>
</g>
</svg>
