<?xml version="1.0" encoding="UTF-8" standalone="no"?>
<!DOCTYPE svg PUBLIC "-//W3C//DTD SVG 1.1//EN"
 "http://www.w3.org/Graphics/SVG/1.1/DTD/svg11.dtd">
<!-- Generated by graphviz version 13.1.2 (20250808.2320)
 -->
<!-- Title: Graphical Class Hierarchy Pages: 1 -->
<svg width="262pt" height="140pt"
 viewBox="0.00 0.00 262.00 140.00" xmlns="http://www.w3.org/2000/svg" xmlns:xlink="http://www.w3.org/1999/xlink">
<g id="graph0" class="graph" transform="scale(1 1) rotate(0) translate(4 136)">
<title>Graphical Class Hierarchy</title>
<!-- Node0 -->
<g id="Node000000" class="node">
<title>Node0</title>
<g id="a_Node000000"><a xlink:href="classdotnamecpp_1_1utils_1_1IPlatformInfo.html" target="_top" xlink:title=" ">
<polygon fill="white" stroke="#666666" points="99.25,-82 0,-82 0,-50 99.25,-50 99.25,-82"/>
<text xml:space="preserve" text-anchor="start" x="8" y="-68.5" font-family="Helvetica,sans-Serif" font-size="10.00">dotnamecpp::utils::</text>
<text xml:space="preserve" text-anchor="middle" x="49.62" y="-56.5" font-family="Helvetica,sans-Serif" font-size="10.00">IPlatformInfo</text>
</a>
</g>
</g>
<!-- Node1 -->
<g id="Node000001" class="node">
<title>Node1</title>
<g id="a_Node000001"><a xlink:href="classdotnamecpp_1_1utils_1_1EmscriptenPlatformInfo.html" target="_top" xlink:title="Emscripten&#45;specific platform information implementation.">
<polygon fill="white" stroke="#666666" points="254,-132 135.25,-132 135.25,-100 254,-100 254,-132"/>
<text xml:space="preserve" text-anchor="start" x="143.25" y="-118.5" font-family="Helvetica,sans-Serif" font-size="10.00">dotnamecpp::utils::</text>
<text xml:space="preserve" text-anchor="middle" x="194.62" y="-106.5" font-family="Helvetica,sans-Serif" font-size="10.00">EmscriptenPlatformInfo</text>
</a>
</g>
</g>
<!-- Node0&#45;&gt;Node1 -->
<g id="edge11_Node000000_Node000001" class="edge">
<title>Node0&#45;&gt;Node1</title>
<g id="a_edge11_Node000000_Node000001"><a xlink:title=" ">
<path fill="none" stroke="#63b8ff" d="M108.04,-86.08C120.88,-90.56 134.34,-95.27 146.7,-99.59"/>
<polygon fill="#63b8ff" stroke="#63b8ff" points="109.47,-82.87 98.88,-82.87 107.16,-89.48 109.47,-82.87"/>
</a>
</g>
</g>
<!-- Node2 -->
<g id="Node000002" class="node">
<title>Node2</title>
<g id="a_Node000002"><a xlink:href="classdotnamecpp_1_1utils_1_1UnixPlatformInfo.html" target="_top" xlink:title="Unix&#45;like platform information implementation (Linux/macOS)">
<polygon fill="white" stroke="#666666" points="244.25,-82 145,-82 145,-50 244.25,-50 244.25,-82"/>
<text xml:space="preserve" text-anchor="start" x="153" y="-68.5" font-family="Helvetica,sans-Serif" font-size="10.00">dotnamecpp::utils::</text>
<text xml:space="preserve" text-anchor="middle" x="194.62" y="-56.5" font-family="Helvetica,sans-Serif" font-size="10.00">UnixPlatformInfo</text>
</a>
</g>
</g>
<!-- Node0&#45;&gt;Node2 -->
<g id="edge12_Node000000_Node000002" class="edge">
<title>Node0&#45;&gt;Node2</title>
<g id="a_edge12_Node000000_Node000002"><a xlink:title=" ">
<path fill="none" stroke="#63b8ff" d="M110.93,-66C122.14,-66 133.73,-66 144.55,-66"/>
<polygon fill="#63b8ff" stroke="#63b8ff" points="110.95,-62.5 100.95,-66 110.95,-69.5 110.95,-62.5"/>
</a>
</g>
</g>
<!-- Node3 -->
<g id="Node000003" class="node">
<title>Node3</title>
<g id="a_Node000003"><a xlink:href="classdotnamecpp_1_1utils_1_1WindowsPlatformInfo.html" target="_top" xlink:title="Windows&#45;specific platform information implementation.">
<polygon fill="white" stroke="#666666" points="249.5,-32 139.75,-32 139.75,0 249.5,0 249.5,-32"/>
<text xml:space="preserve" text-anchor="start" x="147.75" y="-18.5" font-family="Helvetica,sans-Serif" font-size="10.00">dotnamecpp::utils::</text>
<text xml:space="preserve" text-anchor="middle" x="194.62" y="-6.5" font-family="Helvetica,sans-Serif" font-size="10.00">WindowsPlatformInfo</text>
</a>
</g>
</g>
<!-- Node0&#45;&gt;Node3 -->
<g id="edge13_Node000000_Node000003" class="edge">
<title>Node0&#45;&gt;Node3</title>
<g id="a_edge13_Node000000_Node000003"><a xlink:title=" ">
<path fill="none" stroke="#63b8ff" d="M108.04,-45.92C120.88,-41.44 134.34,-36.73 146.7,-32.41"/>
<polygon fill="#63b8ff" stroke="#63b8ff" points="107.16,-42.52 98.88,-49.13 109.47,-49.13 107.16,-42.52"/>
</a>
</g>
</g>
</g>
</svg>
