<?xml version="1.0" encoding="UTF-8" standalone="no"?>
<!DOCTYPE svg PUBLIC "-//W3C//DTD SVG 1.1//EN"
 "http://www.w3.org/Graphics/SVG/1.1/DTD/svg11.dtd">
<!-- Generated by graphviz version 13.1.2 (20250808.2320)
 -->
<!-- Title: Graphical Class Hierarchy Pages: 1 -->
<svg width="253pt" height="90pt"
 viewBox="0.00 0.00 253.00 90.00" xmlns="http://www.w3.org/2000/svg" xmlns:xlink="http://www.w3.org/1999/xlink">
<g id="graph0" class="graph" transform="scale(1 1) rotate(0) translate(4 86)">
<title>Graphical Class Hierarchy</title>
<!-- Node0 -->
<g id="Node000000" class="node">
<title>Node0</title>
<g id="a_Node000000"><a xlink:href="classdotnamecpp_1_1assets_1_1IAssetManager.html" target="_top" xlink:title=" ">
<polygon fill="white" stroke="#666666" points="104.5,-82 0,-82 0,-50 104.5,-50 104.5,-82"/>
<text xml:space="preserve" text-anchor="start" x="8" y="-68.5" font-family="Helvetica,sans-Serif" font-size="10.00">dotnamecpp::assets</text>
<text xml:space="preserve" text-anchor="middle" x="52.25" y="-56.5" font-family="Helvetica,sans-Serif" font-size="10.00">::IAssetManager</text>
</a>
</g>
</g>
<!-- Node1 -->
<g id="Node000001" class="node">
<title>Node1</title>
<g id="a_Node000001"><a xlink:href="classMockAssetManager.html" target="_top" xlink:title="Mock implementation of IAssetManager for testing.">
<polygon fill="white" stroke="#666666" points="244.25,-74 141.25,-74 141.25,-54 244.25,-54 244.25,-74"/>
<text xml:space="preserve" text-anchor="middle" x="192.75" y="-60.5" font-family="Helvetica,sans-Serif" font-size="10.00">MockAssetManager</text>
</a>
</g>
</g>
<!-- Node0&#45;&gt;Node1 -->
<g id="edge1_Node000000_Node000001" class="edge">
<title>Node0&#45;&gt;Node1</title>
<g id="a_edge1_Node000000_Node000001"><a xlink:title=" ">
<path fill="none" stroke="#63b8ff" d="M116.1,-65.09C124.46,-64.97 132.94,-64.85 141.06,-64.73"/>
<polygon fill="#63b8ff" stroke="#63b8ff" points="116.28,-61.59 106.34,-65.23 116.39,-68.59 116.28,-61.59"/>
</a>
</g>
</g>
<!-- Node3 -->
<g id="Node000003" class="node">
<title>Node3</title>
<g id="a_Node000003"><a xlink:href="classdotnamecpp_1_1assets_1_1AssetManager.html" target="_top" xlink:title=" ">
<polygon fill="white" stroke="#666666" points="245,-35 140.5,-35 140.5,-3 245,-3 245,-35"/>
<text xml:space="preserve" text-anchor="start" x="148.5" y="-21.5" font-family="Helvetica,sans-Serif" font-size="10.00">dotnamecpp::assets</text>
<text xml:space="preserve" text-anchor="middle" x="192.75" y="-9.5" font-family="Helvetica,sans-Serif" font-size="10.00">::AssetManager</text>
</a>
</g>
</g>
<!-- Node0&#45;&gt;Node3 -->
<g id="edge2_Node000000_Node000003" class="edge">
<title>Node0&#45;&gt;Node3</title>
<g id="a_edge2_Node000000_Node000003"><a xlink:title=" ">
<path fill="none" stroke="#63b8ff" d="M112.38,-45.93C122.79,-42.4 133.51,-38.76 143.57,-35.35"/>
<polygon fill="#63b8ff" stroke="#63b8ff" points="111.47,-42.55 103.12,-49.08 113.72,-49.18 111.47,-42.55"/>
</a>
</g>
</g>
<!-- Node2 -->
<g id="Node000002" class="node">
<title>Node2</title>
<g id="a_Node000002"><a xlink:href="classdotnamecpp_1_1utils_1_1IAssetManager.html" target="_top" xlink:title=" ">
<polygon fill="white" stroke="#666666" points="101.88,-32 2.62,-32 2.62,0 101.88,0 101.88,-32"/>
<text xml:space="preserve" text-anchor="start" x="10.62" y="-18.5" font-family="Helvetica,sans-Serif" font-size="10.00">dotnamecpp::utils::</text>
<text xml:space="preserve" text-anchor="middle" x="52.25" y="-6.5" font-family="Helvetica,sans-Serif" font-size="10.00">IAssetManager</text>
</a>
</g>
</g>
<!-- Node2&#45;&gt;Node1 -->
<g id="edge3_Node000002_Node000001" class="edge">
<title>Node2&#45;&gt;Node1</title>
<g id="a_edge3_Node000002_Node000001"><a xlink:title=" ">
<path fill="none" stroke="#63b8ff" d="M111.16,-36.07C128.5,-42.08 146.82,-48.43 161.6,-53.55"/>
<polygon fill="#63b8ff" stroke="#63b8ff" points="112.55,-32.85 101.96,-32.88 110.26,-39.46 112.55,-32.85"/>
</a>
</g>
</g>
<!-- Node2&#45;&gt;Node3 -->
<g id="edge4_Node000002_Node000003" class="edge">
<title>Node2&#45;&gt;Node3</title>
<g id="a_edge4_Node000002_Node000003"><a xlink:title=" ">
<path fill="none" stroke="#63b8ff" d="M113.54,-17.31C122.38,-17.5 131.43,-17.69 140.07,-17.88"/>
<polygon fill="#63b8ff" stroke="#63b8ff" points="113.67,-13.81 103.59,-17.09 113.51,-20.81 113.67,-13.81"/>
</a>
</g>
</g>
</g>
</svg>
