<?xml version="1.0" encoding="UTF-8" standalone="no"?>
<!DOCTYPE svg PUBLIC "-//W3C//DTD SVG 1.1//EN"
 "http://www.w3.org/Graphics/SVG/1.1/DTD/svg11.dtd">
<!-- Generated by graphviz version 13.1.2 (20250808.2320)
 -->
<!-- Title: src/Utils/Filesystem/IPathResolver.hpp Pages: 1 -->
<svg width="553pt" height="300pt"
 viewBox="0.00 0.00 553.00 300.00" xmlns="http://www.w3.org/2000/svg" xmlns:xlink="http://www.w3.org/1999/xlink">
<g id="graph0" class="graph" transform="scale(1 1) rotate(0) translate(4 296)">
<title>src/Utils/Filesystem/IPathResolver.hpp</title>
<!-- Node1 -->
<g id="Node000001" class="node">
<title>Node1</title>
<g id="a_Node000001"><a xlink:title=" ">
<polygon fill="#999999" stroke="#666666" points="280.75,-292 177,-292 177,-260 280.75,-260 280.75,-292"/>
<text xml:space="preserve" text-anchor="start" x="185" y="-278.5" font-family="Helvetica,sans-Serif" font-size="10.00">src/Utils/Filesystem</text>
<text xml:space="preserve" text-anchor="middle" x="228.88" y="-266.5" font-family="Helvetica,sans-Serif" font-size="10.00">/IPathResolver.hpp</text>
</a>
</g>
</g>
<!-- Node2 -->
<g id="Node000002" class="node">
<title>Node2</title>
<g id="a_Node000002"><a xlink:href="PathResolver_8hpp.html" target="_top" xlink:title=" ">
<polygon fill="white" stroke="#666666" points="214.75,-224 111,-224 111,-192 214.75,-192 214.75,-224"/>
<text xml:space="preserve" text-anchor="start" x="119" y="-210.5" font-family="Helvetica,sans-Serif" font-size="10.00">src/Utils/Filesystem</text>
<text xml:space="preserve" text-anchor="middle" x="162.88" y="-198.5" font-family="Helvetica,sans-Serif" font-size="10.00">/PathResolver.hpp</text>
</a>
</g>
</g>
<!-- Node1&#45;&gt;Node2 -->
<g id="edge1_Node000001_Node000002" class="edge">
<title>Node1&#45;&gt;Node2</title>
<g id="a_edge1_Node000001_Node000002"><a xlink:title=" ">
<path fill="none" stroke="#63b8ff" d="M205.58,-251.71C196.46,-242.59 186.25,-232.37 178.1,-224.22"/>
<polygon fill="#63b8ff" stroke="#63b8ff" points="202.95,-254.03 212.5,-258.62 207.9,-249.08 202.95,-254.03"/>
</a>
</g>
</g>
<!-- Node5 -->
<g id="Node000005" class="node">
<title>Node5</title>
<g id="a_Node000005"><a xlink:href="UtilsFactory_8hpp.html" target="_top" xlink:title=" ">
<polygon fill="white" stroke="#666666" points="359.38,-218 232.38,-218 232.38,-198 359.38,-198 359.38,-218"/>
<text xml:space="preserve" text-anchor="middle" x="295.88" y="-204.5" font-family="Helvetica,sans-Serif" font-size="10.00">src/Utils/UtilsFactory.hpp</text>
</a>
</g>
</g>
<!-- Node1&#45;&gt;Node5 -->
<g id="edge4_Node000001_Node000005" class="edge">
<title>Node1&#45;&gt;Node5</title>
<g id="a_edge4_Node000001_Node000005"><a xlink:title=" ">
<path fill="none" stroke="#63b8ff" d="M252.52,-251.71C264.2,-240.2 277.64,-226.97 286.42,-218.32"/>
<polygon fill="#63b8ff" stroke="#63b8ff" points="250.16,-249.12 245.49,-258.63 255.07,-254.11 250.16,-249.12"/>
</a>
</g>
</g>
<!-- Node3 -->
<g id="Node000003" class="node">
<title>Node3</title>
<g id="a_Node000003"><a xlink:href="PathResolver_8cpp.html" target="_top" xlink:title=" ">
<polygon fill="white" stroke="#666666" points="103.75,-156 0,-156 0,-124 103.75,-124 103.75,-156"/>
<text xml:space="preserve" text-anchor="start" x="8" y="-142.5" font-family="Helvetica,sans-Serif" font-size="10.00">src/Utils/Filesystem</text>
<text xml:space="preserve" text-anchor="middle" x="51.88" y="-130.5" font-family="Helvetica,sans-Serif" font-size="10.00">/PathResolver.cpp</text>
</a>
</g>
</g>
<!-- Node2&#45;&gt;Node3 -->
<g id="edge2_Node000002_Node000003" class="edge">
<title>Node2&#45;&gt;Node3</title>
<g id="a_edge2_Node000002_Node000003"><a xlink:title=" ">
<path fill="none" stroke="#63b8ff" d="M127.22,-185.8C111.12,-176.23 92.46,-165.13 77.74,-156.38"/>
<polygon fill="#63b8ff" stroke="#63b8ff" points="125.17,-188.65 135.55,-190.75 128.74,-182.63 125.17,-188.65"/>
</a>
</g>
</g>
<!-- Node4 -->
<g id="Node000004" class="node">
<title>Node4</title>
<g id="a_Node000004"><a xlink:href="UtilsFactory_8cpp.html" target="_top" xlink:title=" ">
<polygon fill="white" stroke="#666666" points="248.38,-150 121.38,-150 121.38,-130 248.38,-130 248.38,-150"/>
<text xml:space="preserve" text-anchor="middle" x="184.88" y="-136.5" font-family="Helvetica,sans-Serif" font-size="10.00">src/Utils/UtilsFactory.cpp</text>
</a>
</g>
</g>
<!-- Node2&#45;&gt;Node4 -->
<g id="edge3_Node000002_Node000004" class="edge">
<title>Node2&#45;&gt;Node4</title>
<g id="a_edge3_Node000002_Node000004"><a xlink:title=" ">
<path fill="none" stroke="#63b8ff" d="M171.54,-181C175.15,-170.17 179.11,-158.29 181.77,-150.32"/>
<polygon fill="#63b8ff" stroke="#63b8ff" points="168.3,-179.66 168.46,-190.26 174.94,-181.88 168.3,-179.66"/>
</a>
</g>
</g>
<!-- Node5&#45;&gt;Node4 -->
<g id="edge12_Node000005_Node000004" class="edge">
<title>Node5&#45;&gt;Node4</title>
<g id="a_edge12_Node000005_Node000004"><a xlink:title=" ">
<path fill="none" stroke="#63b8ff" d="M270.21,-191.74C248.77,-178.99 218.87,-161.21 200.75,-150.44"/>
<polygon fill="#63b8ff" stroke="#63b8ff" points="268.29,-194.67 278.67,-196.77 271.86,-188.65 268.29,-194.67"/>
</a>
</g>
</g>
<!-- Node6 -->
<g id="Node000006" class="node">
<title>Node6</title>
<g id="a_Node000006"><a xlink:href="Application_8cpp.html" target="_top" xlink:title=" ">
<polygon fill="white" stroke="#666666" points="351.25,-20 202.5,-20 202.5,0 351.25,0 351.25,-20"/>
<text xml:space="preserve" text-anchor="middle" x="276.88" y="-6.5" font-family="Helvetica,sans-Serif" font-size="10.00">application/src/Application.cpp</text>
</a>
</g>
</g>
<!-- Node5&#45;&gt;Node6 -->
<g id="edge5_Node000005_Node000006" class="edge">
<title>Node5&#45;&gt;Node6</title>
<g id="a_edge5_Node000005_Node000006"><a xlink:title=" ">
<path fill="none" stroke="#63b8ff" d="M293.87,-186.29C289.79,-144.24 280.68,-50.3 277.78,-20.36"/>
<polygon fill="#63b8ff" stroke="#63b8ff" points="290.36,-186.42 294.81,-196.04 297.33,-185.75 290.36,-186.42"/>
</a>
</g>
</g>
<!-- Node7 -->
<g id="Node000007" class="node">
<title>Node7</title>
<g id="a_Node000007"><a xlink:href="EmojiModuleLib_8hpp.html" target="_top" xlink:title=" ">
<polygon fill="white" stroke="#666666" points="423.25,-88 304.5,-88 304.5,-56 423.25,-56 423.25,-88"/>
<text xml:space="preserve" text-anchor="start" x="312.5" y="-74.5" font-family="Helvetica,sans-Serif" font-size="10.00">include/EmojiModuleLib</text>
<text xml:space="preserve" text-anchor="middle" x="363.88" y="-62.5" font-family="Helvetica,sans-Serif" font-size="10.00">/EmojiModuleLib.hpp</text>
</a>
</g>
</g>
<!-- Node5&#45;&gt;Node7 -->
<g id="edge6_Node000005_Node000007" class="edge">
<title>Node5&#45;&gt;Node7</title>
<g id="a_edge6_Node000005_Node000007"><a xlink:title=" ">
<path fill="none" stroke="#63b8ff" d="M304.21,-187.32C311.56,-170.33 322.8,-145.24 333.88,-124 340.24,-111.79 348.16,-98.39 354.26,-88.39"/>
<polygon fill="#63b8ff" stroke="#63b8ff" points="301.1,-185.68 300.38,-196.25 307.54,-188.43 301.1,-185.68"/>
</a>
</g>
</g>
<!-- Node9 -->
<g id="Node000009" class="node">
<title>Node9</title>
<g id="a_Node000009"><a xlink:href="Emoji_8hpp.html" target="_top" xlink:title=" ">
<polygon fill="white" stroke="#666666" points="446.75,-150 343,-150 343,-130 446.75,-130 446.75,-150"/>
<text xml:space="preserve" text-anchor="middle" x="394.88" y="-136.5" font-family="Helvetica,sans-Serif" font-size="10.00">src/Emoji/Emoji.hpp</text>
</a>
</g>
</g>
<!-- Node5&#45;&gt;Node9 -->
<g id="edge9_Node000005_Node000009" class="edge">
<title>Node5&#45;&gt;Node9</title>
<g id="a_edge9_Node000005_Node000009"><a xlink:title=" ">
<path fill="none" stroke="#63b8ff" d="M319.55,-191.22C338.61,-178.51 364.78,-161.07 380.72,-150.44"/>
<polygon fill="#63b8ff" stroke="#63b8ff" points="317.7,-188.25 311.32,-196.7 321.58,-194.07 317.7,-188.25"/>
</a>
</g>
</g>
<!-- Node7&#45;&gt;Node6 -->
<g id="edge7_Node000007_Node000006" class="edge">
<title>Node7&#45;&gt;Node6</title>
<g id="a_edge7_Node000007_Node000006"><a xlink:title=" ">
<path fill="none" stroke="#63b8ff" d="M332.37,-49.27C317.98,-39.35 301.7,-28.12 290.52,-20.41"/>
<polygon fill="#63b8ff" stroke="#63b8ff" points="330.01,-51.89 340.22,-54.69 333.98,-46.13 330.01,-51.89"/>
</a>
</g>
</g>
<!-- Node8 -->
<g id="Node000008" class="node">
<title>Node8</title>
<g id="a_Node000008"><a xlink:href="EmojiModuleLib_8cpp.html" target="_top" xlink:title=" ">
<polygon fill="white" stroke="#666666" points="490,-20 369.75,-20 369.75,0 490,0 490,-20"/>
<text xml:space="preserve" text-anchor="middle" x="429.88" y="-6.5" font-family="Helvetica,sans-Serif" font-size="10.00">src/EmojiModuleLib.cpp</text>
</a>
</g>
</g>
<!-- Node7&#45;&gt;Node8 -->
<g id="edge8_Node000007_Node000008" class="edge">
<title>Node7&#45;&gt;Node8</title>
<g id="a_edge8_Node000007_Node000008"><a xlink:title=" ">
<path fill="none" stroke="#63b8ff" d="M389.35,-47.84C399.86,-38.29 411.44,-27.76 419.53,-20.41"/>
<polygon fill="#63b8ff" stroke="#63b8ff" points="387.04,-45.21 381.99,-54.53 391.75,-50.39 387.04,-45.21"/>
</a>
</g>
</g>
<!-- Node9&#45;&gt;Node7 -->
<g id="edge10_Node000009_Node000007" class="edge">
<title>Node9&#45;&gt;Node7</title>
<g id="a_edge10_Node000009_Node000007"><a xlink:title=" ">
<path fill="none" stroke="#63b8ff" d="M385.67,-119.39C381,-109.45 375.41,-97.56 371.06,-88.3"/>
<polygon fill="#63b8ff" stroke="#63b8ff" points="382.37,-120.61 389.79,-128.17 388.71,-117.63 382.37,-120.61"/>
</a>
</g>
</g>
<!-- Node10 -->
<g id="Node000010" class="node">
<title>Node10</title>
<g id="a_Node000010"><a xlink:href="Emoji_8cpp.html" target="_top" xlink:title=" ">
<polygon fill="white" stroke="#666666" points="544.75,-82 441,-82 441,-62 544.75,-62 544.75,-82"/>
<text xml:space="preserve" text-anchor="middle" x="492.88" y="-68.5" font-family="Helvetica,sans-Serif" font-size="10.00">src/Emoji/Emoji.cpp</text>
</a>
</g>
</g>
<!-- Node9&#45;&gt;Node10 -->
<g id="edge11_Node000009_Node000010" class="edge">
<title>Node9&#45;&gt;Node10</title>
<g id="a_edge11_Node000009_Node000010"><a xlink:title=" ">
<path fill="none" stroke="#63b8ff" d="M418.31,-123.22C437.18,-110.51 463.08,-93.07 478.86,-82.44"/>
<polygon fill="#63b8ff" stroke="#63b8ff" points="416.51,-120.21 410.17,-128.7 420.42,-126.02 416.51,-120.21"/>
</a>
</g>
</g>
</g>
</svg>
