<?xml version="1.0" encoding="UTF-8" standalone="no"?>
<!DOCTYPE svg PUBLIC "-//W3C//DTD SVG 1.1//EN"
 "http://www.w3.org/Graphics/SVG/1.1/DTD/svg11.dtd">
<!-- Generated by graphviz version 13.1.2 (20250808.2320)
 -->
<!-- Title: src/Utils/String/IStringFormatter.hpp Pages: 1 -->
<svg width="620pt" height="276pt"
 viewBox="0.00 0.00 620.00 276.00" xmlns="http://www.w3.org/2000/svg" xmlns:xlink="http://www.w3.org/1999/xlink">
<g id="graph0" class="graph" transform="scale(1 1) rotate(0) translate(4 272)">
<title>src/Utils/String/IStringFormatter.hpp</title>
<!-- Node1 -->
<g id="Node000001" class="node">
<title>Node1</title>
<g id="a_Node000001"><a xlink:title=" ">
<polygon fill="#999999" stroke="#666666" points="335.62,-268 222.88,-268 222.88,-236 335.62,-236 335.62,-268"/>
<text xml:space="preserve" text-anchor="start" x="230.88" y="-254.5" font-family="Helvetica,sans-Serif" font-size="10.00">src/Utils/String/IString</text>
<text xml:space="preserve" text-anchor="middle" x="279.25" y="-242.5" font-family="Helvetica,sans-Serif" font-size="10.00">Formatter.hpp</text>
</a>
</g>
</g>
<!-- Node2 -->
<g id="Node000002" class="node">
<title>Node2</title>
<g id="a_Node000002"><a xlink:href="StringFormatter_8hpp.html" target="_top" xlink:title=" ">
<polygon fill="white" stroke="#666666" points="281.5,-200 111,-200 111,-180 281.5,-180 281.5,-200"/>
<text xml:space="preserve" text-anchor="middle" x="196.25" y="-186.5" font-family="Helvetica,sans-Serif" font-size="10.00">src/Utils/String/StringFormatter.hpp</text>
</a>
</g>
</g>
<!-- Node1&#45;&gt;Node2 -->
<g id="edge1_Node000001_Node000002" class="edge">
<title>Node1&#45;&gt;Node2</title>
<g id="a_edge1_Node000001_Node000002"><a xlink:title=" ">
<path fill="none" stroke="#63b8ff" d="M248.8,-228.99C235.17,-219.14 219.84,-208.05 209.26,-200.41"/>
<polygon fill="#63b8ff" stroke="#63b8ff" points="246.49,-231.64 256.65,-234.66 250.6,-225.97 246.49,-231.64"/>
</a>
</g>
</g>
<!-- Node5 -->
<g id="Node000005" class="node">
<title>Node5</title>
<g id="a_Node000005"><a xlink:href="UtilsFactory_8hpp.html" target="_top" xlink:title=" ">
<polygon fill="white" stroke="#666666" points="426.75,-200 299.75,-200 299.75,-180 426.75,-180 426.75,-200"/>
<text xml:space="preserve" text-anchor="middle" x="363.25" y="-186.5" font-family="Helvetica,sans-Serif" font-size="10.00">src/Utils/UtilsFactory.hpp</text>
</a>
</g>
</g>
<!-- Node1&#45;&gt;Node5 -->
<g id="edge4_Node000001_Node000005" class="edge">
<title>Node1&#45;&gt;Node5</title>
<g id="a_edge4_Node000001_Node000005"><a xlink:title=" ">
<path fill="none" stroke="#63b8ff" d="M310.07,-228.99C323.86,-219.14 339.38,-208.05 350.08,-200.41"/>
<polygon fill="#63b8ff" stroke="#63b8ff" points="308.22,-226.01 302.11,-234.67 312.29,-231.7 308.22,-226.01"/>
</a>
</g>
</g>
<!-- Node3 -->
<g id="Node000003" class="node">
<title>Node3</title>
<g id="a_Node000003"><a xlink:href="StringFormatter_8cpp.html" target="_top" xlink:title=" ">
<polygon fill="white" stroke="#666666" points="170.5,-144 0,-144 0,-124 170.5,-124 170.5,-144"/>
<text xml:space="preserve" text-anchor="middle" x="85.25" y="-130.5" font-family="Helvetica,sans-Serif" font-size="10.00">src/Utils/String/StringFormatter.cpp</text>
</a>
</g>
</g>
<!-- Node2&#45;&gt;Node3 -->
<g id="edge2_Node000002_Node000003" class="edge">
<title>Node2&#45;&gt;Node3</title>
<g id="a_edge2_Node000002_Node000003"><a xlink:title=" ">
<path fill="none" stroke="#63b8ff" d="M166.68,-174.61C147.06,-165.07 121.87,-152.81 104.74,-144.48"/>
<polygon fill="#63b8ff" stroke="#63b8ff" points="165.03,-177.7 175.55,-178.93 168.09,-171.41 165.03,-177.7"/>
</a>
</g>
</g>
<!-- Node4 -->
<g id="Node000004" class="node">
<title>Node4</title>
<g id="a_Node000004"><a xlink:href="UtilsFactory_8cpp.html" target="_top" xlink:title=" ">
<polygon fill="white" stroke="#666666" points="315.75,-144 188.75,-144 188.75,-124 315.75,-124 315.75,-144"/>
<text xml:space="preserve" text-anchor="middle" x="252.25" y="-130.5" font-family="Helvetica,sans-Serif" font-size="10.00">src/Utils/UtilsFactory.cpp</text>
</a>
</g>
</g>
<!-- Node2&#45;&gt;Node4 -->
<g id="edge3_Node000002_Node000004" class="edge">
<title>Node2&#45;&gt;Node4</title>
<g id="a_edge3_Node000002_Node000004"><a xlink:title=" ">
<path fill="none" stroke="#63b8ff" d="M214.04,-171.85C223.5,-162.72 234.77,-151.86 242.61,-144.3"/>
<polygon fill="#63b8ff" stroke="#63b8ff" points="211.86,-169.08 207.09,-178.54 216.72,-174.12 211.86,-169.08"/>
</a>
</g>
</g>
<!-- Node5&#45;&gt;Node4 -->
<g id="edge12_Node000005_Node000004" class="edge">
<title>Node5&#45;&gt;Node4</title>
<g id="a_edge12_Node000005_Node000004"><a xlink:title=" ">
<path fill="none" stroke="#63b8ff" d="M333.68,-174.61C314.06,-165.07 288.87,-152.81 271.74,-144.48"/>
<polygon fill="#63b8ff" stroke="#63b8ff" points="332.03,-177.7 342.55,-178.93 335.09,-171.41 332.03,-177.7"/>
</a>
</g>
</g>
<!-- Node6 -->
<g id="Node000006" class="node">
<title>Node6</title>
<g id="a_Node000006"><a xlink:href="Application_8cpp.html" target="_top" xlink:title=" ">
<polygon fill="white" stroke="#666666" points="418.62,-20 269.88,-20 269.88,0 418.62,0 418.62,-20"/>
<text xml:space="preserve" text-anchor="middle" x="344.25" y="-6.5" font-family="Helvetica,sans-Serif" font-size="10.00">application/src/Application.cpp</text>
</a>
</g>
</g>
<!-- Node5&#45;&gt;Node6 -->
<g id="edge5_Node000005_Node000006" class="edge">
<title>Node5&#45;&gt;Node6</title>
<g id="a_edge5_Node000005_Node000006"><a xlink:title=" ">
<path fill="none" stroke="#63b8ff" d="M361.08,-168.68C356.97,-130.17 348.19,-47.9 345.24,-20.27"/>
<polygon fill="#63b8ff" stroke="#63b8ff" points="357.58,-168.85 362.12,-178.42 364.54,-168.11 357.58,-168.85"/>
</a>
</g>
</g>
<!-- Node7 -->
<g id="Node000007" class="node">
<title>Node7</title>
<g id="a_Node000007"><a xlink:href="EmojiModuleLib_8hpp.html" target="_top" xlink:title=" ">
<polygon fill="white" stroke="#666666" points="490.62,-88 371.88,-88 371.88,-56 490.62,-56 490.62,-88"/>
<text xml:space="preserve" text-anchor="start" x="379.88" y="-74.5" font-family="Helvetica,sans-Serif" font-size="10.00">include/EmojiModuleLib</text>
<text xml:space="preserve" text-anchor="middle" x="431.25" y="-62.5" font-family="Helvetica,sans-Serif" font-size="10.00">/EmojiModuleLib.hpp</text>
</a>
</g>
</g>
<!-- Node5&#45;&gt;Node7 -->
<g id="edge6_Node000005_Node000007" class="edge">
<title>Node5&#45;&gt;Node7</title>
<g id="a_edge6_Node000005_Node000007"><a xlink:title=" ">
<path fill="none" stroke="#63b8ff" d="M374.29,-170.08C381.87,-157.11 392.16,-139.5 401.25,-124 408.32,-111.95 416.34,-98.31 422.31,-88.17"/>
<polygon fill="#63b8ff" stroke="#63b8ff" points="371.44,-168.03 369.42,-178.43 377.48,-171.56 371.44,-168.03"/>
</a>
</g>
</g>
<!-- Node9 -->
<g id="Node000009" class="node">
<title>Node9</title>
<g id="a_Node000009"><a xlink:href="Emoji_8hpp.html" target="_top" xlink:title=" ">
<polygon fill="white" stroke="#666666" points="514.12,-144 410.38,-144 410.38,-124 514.12,-124 514.12,-144"/>
<text xml:space="preserve" text-anchor="middle" x="462.25" y="-130.5" font-family="Helvetica,sans-Serif" font-size="10.00">src/Emoji/Emoji.hpp</text>
</a>
</g>
</g>
<!-- Node5&#45;&gt;Node9 -->
<g id="edge9_Node000005_Node000009" class="edge">
<title>Node5&#45;&gt;Node9</title>
<g id="a_edge9_Node000005_Node000009"><a xlink:title=" ">
<path fill="none" stroke="#63b8ff" d="M390.11,-174.35C407.54,-164.84 429.73,-152.74 444.87,-144.48"/>
<polygon fill="#63b8ff" stroke="#63b8ff" points="388.93,-171.01 381.82,-178.87 392.28,-177.15 388.93,-171.01"/>
</a>
</g>
</g>
<!-- Node7&#45;&gt;Node6 -->
<g id="edge7_Node000007_Node000006" class="edge">
<title>Node7&#45;&gt;Node6</title>
<g id="a_edge7_Node000007_Node000006"><a xlink:title=" ">
<path fill="none" stroke="#63b8ff" d="M399.74,-49.27C385.36,-39.35 369.08,-28.12 357.89,-20.41"/>
<polygon fill="#63b8ff" stroke="#63b8ff" points="397.38,-51.89 407.6,-54.69 401.35,-46.13 397.38,-51.89"/>
</a>
</g>
</g>
<!-- Node8 -->
<g id="Node000008" class="node">
<title>Node8</title>
<g id="a_Node000008"><a xlink:href="EmojiModuleLib_8cpp.html" target="_top" xlink:title=" ">
<polygon fill="white" stroke="#666666" points="557.38,-20 437.12,-20 437.12,0 557.38,0 557.38,-20"/>
<text xml:space="preserve" text-anchor="middle" x="497.25" y="-6.5" font-family="Helvetica,sans-Serif" font-size="10.00">src/EmojiModuleLib.cpp</text>
</a>
</g>
</g>
<!-- Node7&#45;&gt;Node8 -->
<g id="edge8_Node000007_Node000008" class="edge">
<title>Node7&#45;&gt;Node8</title>
<g id="a_edge8_Node000007_Node000008"><a xlink:title=" ">
<path fill="none" stroke="#63b8ff" d="M456.72,-47.84C467.23,-38.29 478.82,-27.76 486.9,-20.41"/>
<polygon fill="#63b8ff" stroke="#63b8ff" points="454.41,-45.21 449.37,-54.53 459.12,-50.39 454.41,-45.21"/>
</a>
</g>
</g>
<!-- Node9&#45;&gt;Node7 -->
<g id="edge10_Node000009_Node000007" class="edge">
<title>Node9&#45;&gt;Node7</title>
<g id="a_edge10_Node000009_Node000007"><a xlink:title=" ">
<path fill="none" stroke="#63b8ff" d="M452.14,-113.44C447.9,-105.22 443.04,-95.81 439.07,-88.14"/>
<polygon fill="#63b8ff" stroke="#63b8ff" points="449.01,-115 456.71,-122.28 455.23,-111.79 449.01,-115"/>
</a>
</g>
</g>
<!-- Node10 -->
<g id="Node000010" class="node">
<title>Node10</title>
<g id="a_Node000010"><a xlink:href="Emoji_8cpp.html" target="_top" xlink:title=" ">
<polygon fill="white" stroke="#666666" points="612.12,-82 508.38,-82 508.38,-62 612.12,-62 612.12,-82"/>
<text xml:space="preserve" text-anchor="middle" x="560.25" y="-68.5" font-family="Helvetica,sans-Serif" font-size="10.00">src/Emoji/Emoji.cpp</text>
</a>
</g>
</g>
<!-- Node9&#45;&gt;Node10 -->
<g id="edge11_Node000009_Node000010" class="edge">
<title>Node9&#45;&gt;Node10</title>
<g id="a_edge11_Node000009_Node000010"><a xlink:title=" ">
<path fill="none" stroke="#63b8ff" d="M487.25,-117.69C505.49,-106.52 529.62,-91.75 545.05,-82.31"/>
<polygon fill="#63b8ff" stroke="#63b8ff" points="485.55,-114.63 478.85,-122.83 489.21,-120.6 485.55,-114.63"/>
</a>
</g>
</g>
</g>
</svg>
