<?xml version="1.0" encoding="UTF-8" standalone="no"?>
<!DOCTYPE svg PUBLIC "-//W3C//DTD SVG 1.1//EN"
 "http://www.w3.org/Graphics/SVG/1.1/DTD/svg11.dtd">
<!-- Generated by graphviz version 13.1.2 (20250808.2320)
 -->
<!-- Title: src/Utils/Json/JsonSerializer.cpp Pages: 1 -->
<svg width="572pt" height="252pt"
 viewBox="0.00 0.00 572.00 252.00" xmlns="http://www.w3.org/2000/svg" xmlns:xlink="http://www.w3.org/1999/xlink">
<g id="graph0" class="graph" transform="scale(1 1) rotate(0) translate(4 248)">
<title>src/Utils/Json/JsonSerializer.cpp</title>
<!-- Node1 -->
<g id="Node000001" class="node">
<title>Node1</title>
<g id="a_Node000001"><a xlink:title=" ">
<polygon fill="#999999" stroke="#666666" points="463.62,-244 303.62,-244 303.62,-224 463.62,-224 463.62,-244"/>
<text xml:space="preserve" text-anchor="middle" x="383.62" y="-230.5" font-family="Helvetica,sans-Serif" font-size="10.00">src/Utils/Json/JsonSerializer.cpp</text>
</a>
</g>
</g>
<!-- Node2 -->
<g id="Node000002" class="node">
<title>Node2</title>
<g id="a_Node000002"><a xlink:href="JsonSerializer_8hpp.html" target="_top" xlink:title=" ">
<polygon fill="white" stroke="#666666" points="383.75,-188 287.5,-188 287.5,-168 383.75,-168 383.75,-188"/>
<text xml:space="preserve" text-anchor="middle" x="335.62" y="-174.5" font-family="Helvetica,sans-Serif" font-size="10.00">JsonSerializer.hpp</text>
</a>
</g>
</g>
<!-- Node1&#45;&gt;Node2 -->
<g id="edge1_Node000001_Node000002" class="edge">
<title>Node1&#45;&gt;Node2</title>
<g id="a_edge1_Node000001_Node000002"><a xlink:title=" ">
<path fill="none" stroke="#63b8ff" d="M375.26,-223.59C368.73,-216.24 359.44,-205.8 351.51,-196.87"/>
<polygon fill="#63b8ff" stroke="#63b8ff" points="354.16,-194.58 344.9,-189.43 348.92,-199.23 354.16,-194.58"/>
</a>
</g>
</g>
<!-- Node16 -->
<g id="Node000016" class="node">
<title>Node16</title>
<g id="a_Node000016"><a xlink:title=" ">
<polygon fill="#e0e0e0" stroke="#999999" points="461.75,-188 401.5,-188 401.5,-168 461.75,-168 461.75,-188"/>
<text xml:space="preserve" text-anchor="middle" x="431.62" y="-174.5" font-family="Helvetica,sans-Serif" font-size="10.00">fmt/core.h</text>
</a>
</g>
</g>
<!-- Node1&#45;&gt;Node16 -->
<g id="edge25_Node000001_Node000016" class="edge">
<title>Node1&#45;&gt;Node16</title>
<g id="a_edge25_Node000001_Node000016"><a xlink:title=" ">
<path fill="none" stroke="#63b8ff" d="M391.99,-223.59C398.52,-216.24 407.81,-205.8 415.74,-196.87"/>
<polygon fill="#63b8ff" stroke="#63b8ff" points="418.33,-199.23 422.35,-189.43 413.09,-194.58 418.33,-199.23"/>
</a>
</g>
</g>
<!-- Node3 -->
<g id="Node000003" class="node">
<title>Node3</title>
<g id="a_Node000003"><a xlink:href="IFileReader_8hpp.html" target="_top" xlink:title=" ">
<polygon fill="white" stroke="#666666" points="330.25,-132 171,-132 171,-112 330.25,-112 330.25,-132"/>
<text xml:space="preserve" text-anchor="middle" x="250.62" y="-118.5" font-family="Helvetica,sans-Serif" font-size="10.00">Utils/Filesystem/IFileReader.hpp</text>
</a>
</g>
</g>
<!-- Node2&#45;&gt;Node3 -->
<g id="edge2_Node000002_Node000003" class="edge">
<title>Node2&#45;&gt;Node3</title>
<g id="a_edge2_Node000002_Node000003"><a xlink:title=" ">
<path fill="none" stroke="#63b8ff" d="M320.82,-167.59C308.22,-159.59 289.87,-147.93 275.09,-138.54"/>
<polygon fill="#63b8ff" stroke="#63b8ff" points="277.14,-135.7 266.82,-133.29 273.39,-141.61 277.14,-135.7"/>
</a>
</g>
</g>
<!-- Node12 -->
<g id="Node000012" class="node">
<title>Node12</title>
<g id="a_Node000012"><a xlink:href="IFileWriter_8hpp.html" target="_top" xlink:title=" ">
<polygon fill="white" stroke="#666666" points="153.25,-132 0,-132 0,-112 153.25,-112 153.25,-132"/>
<text xml:space="preserve" text-anchor="middle" x="76.62" y="-118.5" font-family="Helvetica,sans-Serif" font-size="10.00">Utils/Filesystem/IFileWriter.hpp</text>
</a>
</g>
</g>
<!-- Node2&#45;&gt;Node12 -->
<g id="edge13_Node000002_Node000012" class="edge">
<title>Node2&#45;&gt;Node12</title>
<g id="a_edge13_Node000002_Node000012"><a xlink:title=" ">
<path fill="none" stroke="#63b8ff" d="M290.21,-167.53C246.52,-158.42 180.33,-144.62 133.22,-134.8"/>
<polygon fill="#63b8ff" stroke="#63b8ff" points="133.97,-131.38 123.47,-132.77 132.54,-138.23 133.97,-131.38"/>
</a>
</g>
</g>
<!-- Node13 -->
<g id="Node000013" class="node">
<title>Node13</title>
<g id="a_Node000013"><a xlink:href="IJsonSerializer_8hpp.html" target="_top" xlink:title=" ">
<polygon fill="white" stroke="#666666" points="494.88,-132 348.38,-132 348.38,-112 494.88,-112 494.88,-132"/>
<text xml:space="preserve" text-anchor="middle" x="421.62" y="-118.5" font-family="Helvetica,sans-Serif" font-size="10.00">Utils/Json/IJsonSerializer.hpp</text>
</a>
</g>
</g>
<!-- Node2&#45;&gt;Node13 -->
<g id="edge19_Node000002_Node000013" class="edge">
<title>Node2&#45;&gt;Node13</title>
<g id="a_edge19_Node000002_Node000013"><a xlink:title=" ">
<path fill="none" stroke="#63b8ff" d="M350.61,-167.59C363.35,-159.59 381.92,-147.93 396.87,-138.54"/>
<polygon fill="#63b8ff" stroke="#63b8ff" points="398.64,-141.57 405.25,-133.28 394.92,-135.64 398.64,-141.57"/>
</a>
</g>
</g>
<!-- Node15 -->
<g id="Node000015" class="node">
<title>Node15</title>
<g id="a_Node000015"><a xlink:title=" ">
<polygon fill="#e0e0e0" stroke="#999999" points="564.25,-132 513,-132 513,-112 564.25,-112 564.25,-132"/>
<text xml:space="preserve" text-anchor="middle" x="538.62" y="-118.5" font-family="Helvetica,sans-Serif" font-size="10.00">memory</text>
</a>
</g>
</g>
<!-- Node2&#45;&gt;Node15 -->
<g id="edge24_Node000002_Node000015" class="edge">
<title>Node2&#45;&gt;Node15</title>
<g id="a_edge24_Node000002_Node000015"><a xlink:title=" ">
<path fill="none" stroke="#63b8ff" d="M370.98,-167.59C407.63,-157.84 464.66,-142.68 501.83,-132.79"/>
<polygon fill="#63b8ff" stroke="#63b8ff" points="502.46,-136.24 511.22,-130.29 500.66,-129.48 502.46,-136.24"/>
</a>
</g>
</g>
<!-- Node4 -->
<g id="Node000004" class="node">
<title>Node4</title>
<g id="a_Node000004"><a xlink:href="UtilsError_8hpp.html" target="_top" xlink:title=" ">
<polygon fill="white" stroke="#666666" points="408.25,-76 309,-76 309,-56 408.25,-56 408.25,-76"/>
<text xml:space="preserve" text-anchor="middle" x="358.62" y="-62.5" font-family="Helvetica,sans-Serif" font-size="10.00">Utils/UtilsError.hpp</text>
</a>
</g>
</g>
<!-- Node3&#45;&gt;Node4 -->
<g id="edge3_Node000003_Node000004" class="edge">
<title>Node3&#45;&gt;Node4</title>
<g id="a_edge3_Node000003_Node000004"><a xlink:title=" ">
<path fill="none" stroke="#63b8ff" d="M269.44,-111.59C285.98,-103.32 310.34,-91.14 329.42,-81.6"/>
<polygon fill="#63b8ff" stroke="#63b8ff" points="330.93,-84.76 338.31,-77.16 327.8,-78.5 330.93,-84.76"/>
</a>
</g>
</g>
<!-- Node5 -->
<g id="Node000005" class="node">
<title>Node5</title>
<g id="a_Node000005"><a xlink:title=" ">
<polygon fill="#e0e0e0" stroke="#999999" points="185.25,-20 140,-20 140,0 185.25,0 185.25,-20"/>
<text xml:space="preserve" text-anchor="middle" x="162.62" y="-6.5" font-family="Helvetica,sans-Serif" font-size="10.00">cstdint</text>
</a>
</g>
</g>
<!-- Node3&#45;&gt;Node5 -->
<g id="edge9_Node000003_Node000005" class="edge">
<title>Node3&#45;&gt;Node5</title>
<g id="a_edge9_Node000003_Node000005"><a xlink:title=" ">
<path fill="none" stroke="#63b8ff" d="M229.03,-111.59C214,-104.01 194.58,-91.98 182.62,-76 172.88,-62.97 167.83,-45.13 165.24,-31.44"/>
<polygon fill="#63b8ff" stroke="#63b8ff" points="168.74,-31.12 163.73,-21.78 161.82,-32.2 168.74,-31.12"/>
</a>
</g>
</g>
<!-- Node8 -->
<g id="Node000008" class="node">
<title>Node8</title>
<g id="a_Node000008"><a xlink:title=" ">
<polygon fill="#e0e0e0" stroke="#999999" points="300.62,-20 260.62,-20 260.62,0 300.62,0 300.62,-20"/>
<text xml:space="preserve" text-anchor="middle" x="280.62" y="-6.5" font-family="Helvetica,sans-Serif" font-size="10.00">string</text>
</a>
</g>
</g>
<!-- Node3&#45;&gt;Node8 -->
<g id="edge11_Node000003_Node000008" class="edge">
<title>Node3&#45;&gt;Node8</title>
<g id="a_edge11_Node000003_Node000008"><a xlink:title=" ">
<path fill="none" stroke="#63b8ff" d="M253.18,-111.62C258.01,-93.92 268.56,-55.24 275.08,-31.32"/>
<polygon fill="#63b8ff" stroke="#63b8ff" points="278.42,-32.38 277.68,-21.82 271.67,-30.54 278.42,-32.38"/>
</a>
</g>
</g>
<!-- Node10 -->
<g id="Node000010" class="node">
<title>Node10</title>
<g id="a_Node000010"><a xlink:title=" ">
<polygon fill="#e0e0e0" stroke="#999999" points="252.12,-76 191.12,-76 191.12,-56 252.12,-56 252.12,-76"/>
<text xml:space="preserve" text-anchor="middle" x="221.62" y="-62.5" font-family="Helvetica,sans-Serif" font-size="10.00">filesystem</text>
</a>
</g>
</g>
<!-- Node3&#45;&gt;Node10 -->
<g id="edge10_Node000003_Node000010" class="edge">
<title>Node3&#45;&gt;Node10</title>
<g id="a_edge10_Node000003_Node000010"><a xlink:title=" ">
<path fill="none" stroke="#63b8ff" d="M245.57,-111.59C241.83,-104.63 236.6,-94.89 231.98,-86.29"/>
<polygon fill="#63b8ff" stroke="#63b8ff" points="235.15,-84.79 227.33,-77.63 228.98,-88.1 235.15,-84.79"/>
</a>
</g>
</g>
<!-- Node11 -->
<g id="Node000011" class="node">
<title>Node11</title>
<g id="a_Node000011"><a xlink:title=" ">
<polygon fill="#e0e0e0" stroke="#999999" points="134.12,-76 91.12,-76 91.12,-56 134.12,-56 134.12,-76"/>
<text xml:space="preserve" text-anchor="middle" x="112.62" y="-62.5" font-family="Helvetica,sans-Serif" font-size="10.00">vector</text>
</a>
</g>
</g>
<!-- Node3&#45;&gt;Node11 -->
<g id="edge12_Node000003_Node000011" class="edge">
<title>Node3&#45;&gt;Node11</title>
<g id="a_edge12_Node000003_Node000011"><a xlink:title=" ">
<path fill="none" stroke="#63b8ff" d="M226.59,-111.59C203.99,-102.75 169.98,-89.44 145,-79.67"/>
<polygon fill="#63b8ff" stroke="#63b8ff" points="146.57,-76.52 135.98,-76.14 144.01,-83.04 146.57,-76.52"/>
</a>
</g>
</g>
<!-- Node4&#45;&gt;Node5 -->
<g id="edge4_Node000004_Node000005" class="edge">
<title>Node4&#45;&gt;Node5</title>
<g id="a_edge4_Node000004_Node000005"><a xlink:title=" ">
<path fill="none" stroke="#63b8ff" d="M324.48,-55.59C288.56,-45.7 232.35,-30.21 196.52,-20.34"/>
<polygon fill="#63b8ff" stroke="#63b8ff" points="197.68,-17.03 187.11,-17.75 195.83,-23.78 197.68,-17.03"/>
</a>
</g>
</g>
<!-- Node6 -->
<g id="Node000006" class="node">
<title>Node6</title>
<g id="a_Node000006"><a xlink:title=" ">
<polygon fill="#e0e0e0" stroke="#999999" points="508.5,-20 458.75,-20 458.75,0 508.5,0 508.5,-20"/>
<text xml:space="preserve" text-anchor="middle" x="483.62" y="-6.5" font-family="Helvetica,sans-Serif" font-size="10.00">optional</text>
</a>
</g>
</g>
<!-- Node4&#45;&gt;Node6 -->
<g id="edge5_Node000004_Node000006" class="edge">
<title>Node4&#45;&gt;Node6</title>
<g id="a_edge5_Node000004_Node000006"><a xlink:title=" ">
<path fill="none" stroke="#63b8ff" d="M380.4,-55.59C399.99,-47.13 429.05,-34.58 451.35,-24.94"/>
<polygon fill="#63b8ff" stroke="#63b8ff" points="452.5,-28.26 460.29,-21.08 449.72,-21.83 452.5,-28.26"/>
</a>
</g>
</g>
<!-- Node7 -->
<g id="Node000007" class="node">
<title>Node7</title>
<g id="a_Node000007"><a xlink:title=" ">
<polygon fill="#e0e0e0" stroke="#999999" points="377,-20 318.25,-20 318.25,0 377,0 377,-20"/>
<text xml:space="preserve" text-anchor="middle" x="347.62" y="-6.5" font-family="Helvetica,sans-Serif" font-size="10.00">stdexcept</text>
</a>
</g>
</g>
<!-- Node4&#45;&gt;Node7 -->
<g id="edge6_Node000004_Node000007" class="edge">
<title>Node4&#45;&gt;Node7</title>
<g id="a_edge6_Node000004_Node000007"><a xlink:title=" ">
<path fill="none" stroke="#63b8ff" d="M356.71,-55.59C355.35,-48.93 353.48,-39.75 351.79,-31.44"/>
<polygon fill="#63b8ff" stroke="#63b8ff" points="355.25,-30.88 349.82,-21.78 348.39,-32.28 355.25,-30.88"/>
</a>
</g>
</g>
<!-- Node4&#45;&gt;Node8 -->
<g id="edge7_Node000004_Node000008" class="edge">
<title>Node4&#45;&gt;Node8</title>
<g id="a_edge7_Node000004_Node000008"><a xlink:title=" ">
<path fill="none" stroke="#63b8ff" d="M345.04,-55.59C333.59,-47.67 316.96,-36.16 303.47,-26.82"/>
<polygon fill="#63b8ff" stroke="#63b8ff" points="305.78,-24.16 295.56,-21.34 301.79,-29.91 305.78,-24.16"/>
</a>
</g>
</g>
<!-- Node9 -->
<g id="Node000009" class="node">
<title>Node9</title>
<g id="a_Node000009"><a xlink:title=" ">
<polygon fill="#e0e0e0" stroke="#999999" points="440.25,-20 395,-20 395,0 440.25,0 440.25,-20"/>
<text xml:space="preserve" text-anchor="middle" x="417.62" y="-6.5" font-family="Helvetica,sans-Serif" font-size="10.00">variant</text>
</a>
</g>
</g>
<!-- Node4&#45;&gt;Node9 -->
<g id="edge8_Node000004_Node000009" class="edge">
<title>Node4&#45;&gt;Node9</title>
<g id="a_edge8_Node000004_Node000009"><a xlink:title=" ">
<path fill="none" stroke="#63b8ff" d="M368.9,-55.59C377.19,-48.01 389.07,-37.13 399.03,-28.02"/>
<polygon fill="#63b8ff" stroke="#63b8ff" points="401.34,-30.65 406.35,-21.32 396.61,-25.49 401.34,-30.65"/>
</a>
</g>
</g>
<!-- Node12&#45;&gt;Node4 -->
<g id="edge14_Node000012_Node000004" class="edge">
<title>Node12&#45;&gt;Node4</title>
<g id="a_edge14_Node000012_Node000004"><a xlink:title=" ">
<path fill="none" stroke="#63b8ff" d="M126.07,-111.53C173.94,-102.36 246.63,-88.45 297.97,-78.61"/>
<polygon fill="#63b8ff" stroke="#63b8ff" points="298.59,-82.06 307.75,-76.74 297.27,-75.18 298.59,-82.06"/>
</a>
</g>
</g>
<!-- Node12&#45;&gt;Node5 -->
<g id="edge15_Node000012_Node000005" class="edge">
<title>Node12&#45;&gt;Node5</title>
<g id="a_edge15_Node000012_Node000005"><a xlink:title=" ">
<path fill="none" stroke="#63b8ff" d="M66.98,-111.61C54.66,-98.44 36.32,-74.08 48.62,-56 66.35,-29.95 101.71,-18.98 128.38,-14.36"/>
<polygon fill="#63b8ff" stroke="#63b8ff" points="128.69,-17.85 138.06,-12.92 127.66,-10.93 128.69,-17.85"/>
</a>
</g>
</g>
<!-- Node12&#45;&gt;Node8 -->
<g id="edge17_Node000012_Node000008" class="edge">
<title>Node12&#45;&gt;Node8</title>
<g id="a_edge17_Node000012_Node000008"><a xlink:title=" ">
<path fill="none" stroke="#63b8ff" d="M74.43,-111.73C71.73,-97.82 69.03,-71.51 82.62,-56 104.24,-31.34 199.05,-18.75 249.22,-13.72"/>
<polygon fill="#63b8ff" stroke="#63b8ff" points="249.24,-17.23 258.86,-12.79 248.57,-10.26 249.24,-17.23"/>
</a>
</g>
</g>
<!-- Node12&#45;&gt;Node10 -->
<g id="edge16_Node000012_Node000010" class="edge">
<title>Node12&#45;&gt;Node10</title>
<g id="a_edge16_Node000012_Node000010"><a xlink:title=" ">
<path fill="none" stroke="#63b8ff" d="M101.88,-111.59C125.03,-102.97 159.55,-90.12 185.59,-80.42"/>
<polygon fill="#63b8ff" stroke="#63b8ff" points="186.6,-83.78 194.75,-77.01 184.16,-77.22 186.6,-83.78"/>
</a>
</g>
</g>
<!-- Node12&#45;&gt;Node11 -->
<g id="edge18_Node000012_Node000011" class="edge">
<title>Node12&#45;&gt;Node11</title>
<g id="a_edge18_Node000012_Node000011"><a xlink:title=" ">
<path fill="none" stroke="#63b8ff" d="M82.9,-111.59C87.64,-104.47 94.32,-94.45 100.15,-85.72"/>
<polygon fill="#63b8ff" stroke="#63b8ff" points="102.95,-87.82 105.59,-77.56 97.13,-83.94 102.95,-87.82"/>
</a>
</g>
</g>
<!-- Node13&#45;&gt;Node4 -->
<g id="edge20_Node000013_Node000004" class="edge">
<title>Node13&#45;&gt;Node4</title>
<g id="a_edge20_Node000013_Node000004"><a xlink:title=" ">
<path fill="none" stroke="#63b8ff" d="M410.65,-111.59C401.71,-103.93 388.85,-92.91 378.16,-83.75"/>
<polygon fill="#63b8ff" stroke="#63b8ff" points="380.49,-81.13 370.62,-77.28 375.94,-86.45 380.49,-81.13"/>
</a>
</g>
</g>
<!-- Node13&#45;&gt;Node8 -->
<g id="edge23_Node000013_Node000008" class="edge">
<title>Node13&#45;&gt;Node8</title>
<g id="a_edge23_Node000013_Node000008"><a xlink:title=" ">
<path fill="none" stroke="#63b8ff" d="M423.97,-111.93C426.92,-98.27 430.2,-72.29 417.62,-56 415.94,-53.82 351.79,-33.36 311.88,-20.79"/>
<polygon fill="#63b8ff" stroke="#63b8ff" points="313.13,-17.51 302.54,-17.85 311.03,-24.19 313.13,-17.51"/>
</a>
</g>
</g>
<!-- Node13&#45;&gt;Node10 -->
<g id="edge21_Node000013_Node000010" class="edge">
<title>Node13&#45;&gt;Node10</title>
<g id="a_edge21_Node000013_Node000010"><a xlink:title=" ">
<path fill="none" stroke="#63b8ff" d="M386.79,-111.59C352.4,-102.31 299.82,-88.11 263.25,-78.24"/>
<polygon fill="#63b8ff" stroke="#63b8ff" points="264.49,-74.95 253.92,-75.72 262.66,-81.7 264.49,-74.95"/>
</a>
</g>
</g>
<!-- Node14 -->
<g id="Node000014" class="node">
<title>Node14</title>
<g id="a_Node000014"><a xlink:title=" ">
<polygon fill="#e0e0e0" stroke="#999999" points="562.5,-76 464.75,-76 464.75,-56 562.5,-56 562.5,-76"/>
<text xml:space="preserve" text-anchor="middle" x="513.62" y="-62.5" font-family="Helvetica,sans-Serif" font-size="10.00">nlohmann/json.hpp</text>
</a>
</g>
</g>
<!-- Node13&#45;&gt;Node14 -->
<g id="edge22_Node000013_Node000014" class="edge">
<title>Node13&#45;&gt;Node14</title>
<g id="a_edge22_Node000013_Node000014"><a xlink:title=" ">
<path fill="none" stroke="#63b8ff" d="M437.65,-111.59C451.42,-103.51 471.53,-91.71 487.6,-82.27"/>
<polygon fill="#63b8ff" stroke="#63b8ff" points="489.32,-85.33 496.17,-77.25 485.77,-79.29 489.32,-85.33"/>
</a>
</g>
</g>
</g>
</svg>
