<?xml version="1.0" encoding="UTF-8" standalone="no"?>
<!DOCTYPE svg PUBLIC "-//W3C//DTD SVG 1.1//EN"
 "http://www.w3.org/Graphics/SVG/1.1/DTD/svg11.dtd">
<!-- Generated by graphviz version 13.1.2 (20250808.2320)
 -->
<!-- Title: src/Utils/Logger/LoggerFactory.cpp Pages: 1 -->
<!--zoomable 196 -->

<svg id="main" version="1.1" xmlns="http://www.w3.org/2000/svg" xmlns:xlink="http://www.w3.org/1999/xlink" xml:space="preserve" onload="init(evt)">

<style type="text/css"><![CDATA[
.node, .edge {opacity: 0.7;}
.node.selected, .edge.selected {opacity: 1;}
.edge:hover path { stroke: red; }
.edge:hover polygon { stroke: red; fill: red; }
]]></style>

<defs>
  <circle id="rim" cx="0" cy="0" r="7"/>
  <circle id="rim2" cx="0" cy="0" r="3.5"/>
  <g id="zoomPlus">
    <use xlink:href="#rim" fill="#404040"><set attributeName="fill" to="#808080" begin="zoomplus.mouseover" end="zoomplus.mouseout"/></use>
    <path d="M-4,0h8M0,-4v8" fill="none" stroke="white" stroke-width="1.5" pointer-events="none"/>
  </g>
  <g id="zoomMin">
    <use xlink:href="#rim" fill="#404040"><set attributeName="fill" to="#808080" begin="zoomminus.mouseover" end="zoomminus.mouseout"/></use>
    <path d="M-4,0h8" fill="none" stroke="white" stroke-width="1.5" pointer-events="none"/>
  </g>
  <g id="arrowUp" transform="translate(30 24)">
    <use xlink:href="#rim"/>
    <path pointer-events="none" fill="none" stroke="white" stroke-width="1.5" d="M0,-3.0v7 M-2.5,-0.5L0,-3.0L2.5,-0.5"/>
  </g>
  <g id="arrowRight" transform="rotate(90) translate(36 -43)">
    <use xlink:href="#rim"/>
    <path pointer-events="none" fill="none" stroke="white" stroke-width="1.5" d="M0,-3.0v7 M-2.5,-0.5L0,-3.0L2.5,-0.5"/>
  </g>
  <g id="arrowDown" transform="rotate(180) translate(-30 -48)">
    <use xlink:href="#rim"/>
    <path pointer-events="none" fill="none" stroke="white" stroke-width="1.5" d="M0,-3.0v7 M-2.5,-0.5L0,-3.0L2.5,-0.5"/>
  </g>
  <g id="arrowLeft" transform="rotate(270) translate(-36 17)">
    <use xlink:href="#rim"/>
    <path pointer-events="none" fill="none" stroke="white" stroke-width="1.5" d="M0,-3.0v7 M-2.5,-0.5L0,-3.0L2.5,-0.5"/>
  </g>
  <g id="resetDef">
    <use xlink:href="#rim2" fill="#404040"><set attributeName="fill" to="#808080" begin="reset.mouseover" end="reset.mouseout"/></use>
  </g>
</defs>
<script type="application/ecmascript">
var viewWidth = 830;
var viewHeight = 196;
var sectionId = 'dynsection-0';
</script>
<script type="application/ecmascript" xlink:href="svg.min.js"/>
<svg id="graph" class="graph">
<g id="viewport">
<title>src/Utils/Logger/LoggerFactory.cpp</title>
<!-- Node1 -->
<g id="Node000001" class="node">
<title>Node1</title>
<g id="a_Node000001"><a xlink:title=" ">
<polygon fill="#999999" stroke="#666666" points="239.25,-188 71,-188 71,-168 239.25,-168 239.25,-188"/>
<text xml:space="preserve" text-anchor="middle" x="155.12" y="-174.5" font-family="Helvetica,sans-Serif" font-size="10.00">src/Utils/Logger/LoggerFactory.cpp</text>
</a>
</g>
</g>
<!-- Node2 -->
<g id="Node000002" class="node">
<title>Node2</title>
<g id="a_Node000002"><a xlink:href="LoggerFactory_8hpp.html" target="_top" xlink:title=" ">
<polygon fill="white" stroke="#666666" points="96.25,-132 0,-132 0,-112 96.25,-112 96.25,-132"/>
<text xml:space="preserve" text-anchor="middle" x="48.12" y="-118.5" font-family="Helvetica,sans-Serif" font-size="10.00">LoggerFactory.hpp</text>
</a>
</g>
</g>
<!-- Node1&#45;&gt;Node2 -->
<g id="edge1_Node000001_Node000002" class="edge">
<title>Node1&#45;&gt;Node2</title>
<g id="a_edge1_Node000001_Node000002"><a xlink:title=" ">
<path fill="none" stroke="#63b8ff" d="M136.49,-167.59C120.09,-159.32 95.97,-147.14 77.06,-137.6"/>
<polygon fill="#63b8ff" stroke="#63b8ff" points="78.76,-134.54 68.26,-133.16 75.61,-140.79 78.76,-134.54"/>
</a>
</g>
</g>
<!-- Node9 -->
<g id="Node000009" class="node">
<title>Node9</title>
<g id="a_Node000009"><a xlink:href="ConsoleLogger_8hpp.html" target="_top" xlink:title=" ">
<polygon fill="white" stroke="#666666" points="501.12,-132 401.12,-132 401.12,-112 501.12,-112 501.12,-132"/>
<text xml:space="preserve" text-anchor="middle" x="451.12" y="-118.5" font-family="Helvetica,sans-Serif" font-size="10.00">ConsoleLogger.hpp</text>
</a>
</g>
</g>
<!-- Node1&#45;&gt;Node9 -->
<g id="edge10_Node000001_Node000009" class="edge">
<title>Node1&#45;&gt;Node9</title>
<g id="a_edge10_Node000001_Node000009"><a xlink:title=" ">
<path fill="none" stroke="#63b8ff" d="M207.02,-167.53C257.95,-158.24 335.62,-144.07 389.62,-134.22"/>
<polygon fill="#63b8ff" stroke="#63b8ff" points="390.07,-137.7 399.28,-132.46 388.82,-130.81 390.07,-137.7"/>
</a>
</g>
</g>
<!-- Node18 -->
<g id="Node000018" class="node">
<title>Node18</title>
<g id="a_Node000018"><a xlink:href="NullLogger_8hpp.html" target="_top" xlink:title=" ">
<polygon fill="white" stroke="#666666" points="195.75,-132 114.5,-132 114.5,-112 195.75,-112 195.75,-132"/>
<text xml:space="preserve" text-anchor="middle" x="155.12" y="-118.5" font-family="Helvetica,sans-Serif" font-size="10.00">NullLogger.hpp</text>
</a>
</g>
</g>
<!-- Node1&#45;&gt;Node18 -->
<g id="edge23_Node000001_Node000018" class="edge">
<title>Node1&#45;&gt;Node18</title>
<g id="a_edge23_Node000001_Node000018"><a xlink:title=" ">
<path fill="none" stroke="#63b8ff" d="M155.12,-167.59C155.12,-161.01 155.12,-151.96 155.12,-143.73"/>
<polygon fill="#63b8ff" stroke="#63b8ff" points="158.63,-143.81 155.13,-133.81 151.63,-143.81 158.63,-143.81"/>
</a>
</g>
</g>
<!-- Node3 -->
<g id="Node000003" class="node">
<title>Node3</title>
<g id="a_Node000003"><a xlink:href="ILogger_8hpp.html" target="_top" xlink:title=" ">
<polygon fill="white" stroke="#666666" points="198.38,-76 75.88,-76 75.88,-56 198.38,-56 198.38,-76"/>
<text xml:space="preserve" text-anchor="middle" x="137.12" y="-62.5" font-family="Helvetica,sans-Serif" font-size="10.00">Utils/Logger/ILogger.hpp</text>
</a>
</g>
</g>
<!-- Node2&#45;&gt;Node3 -->
<g id="edge2_Node000002_Node000003" class="edge">
<title>Node2&#45;&gt;Node3</title>
<g id="a_edge2_Node000002_Node000003"><a xlink:title=" ">
<path fill="none" stroke="#63b8ff" d="M63.63,-111.59C76.95,-103.51 96.4,-91.71 111.95,-82.27"/>
<polygon fill="#63b8ff" stroke="#63b8ff" points="113.47,-85.44 120.21,-77.26 109.84,-79.46 113.47,-85.44"/>
</a>
</g>
</g>
<!-- Node6 -->
<g id="Node000006" class="node">
<title>Node6</title>
<g id="a_Node000006"><a xlink:title=" ">
<polygon fill="#e0e0e0" stroke="#999999" points="65.75,-20 14.5,-20 14.5,0 65.75,0 65.75,-20"/>
<text xml:space="preserve" text-anchor="middle" x="40.12" y="-6.5" font-family="Helvetica,sans-Serif" font-size="10.00">memory</text>
</a>
</g>
</g>
<!-- Node2&#45;&gt;Node6 -->
<g id="edge8_Node000002_Node000006" class="edge">
<title>Node2&#45;&gt;Node6</title>
<g id="a_edge8_Node000002_Node000006"><a xlink:title=" ">
<path fill="none" stroke="#63b8ff" d="M44.26,-111.54C40.82,-102.57 36.04,-88.62 34.12,-76 31.88,-61.21 33.54,-44.39 35.68,-31.57"/>
<polygon fill="#63b8ff" stroke="#63b8ff" points="39.11,-32.27 37.57,-21.78 32.24,-30.94 39.11,-32.27"/>
</a>
</g>
</g>
<!-- Node8 -->
<g id="Node000008" class="node">
<title>Node8</title>
<g id="a_Node000008"><a xlink:title=" ">
<polygon fill="#e0e0e0" stroke="#999999" points="202.12,-20 162.12,-20 162.12,0 202.12,0 202.12,-20"/>
<text xml:space="preserve" text-anchor="middle" x="182.12" y="-6.5" font-family="Helvetica,sans-Serif" font-size="10.00">string</text>
</a>
</g>
</g>
<!-- Node2&#45;&gt;Node8 -->
<g id="edge9_Node000002_Node000008" class="edge">
<title>Node2&#45;&gt;Node8</title>
<g id="a_edge9_Node000002_Node000008"><a xlink:title=" ">
<path fill="none" stroke="#63b8ff" d="M48.35,-111.8C49.17,-97.98 52.68,-71.79 67.12,-56 73.1,-49.47 119.17,-32.66 151.15,-21.53"/>
<polygon fill="#63b8ff" stroke="#63b8ff" points="152.04,-24.93 160.36,-18.36 149.76,-18.31 152.04,-24.93"/>
</a>
</g>
</g>
<!-- Node4 -->
<g id="Node000004" class="node">
<title>Node4</title>
<g id="a_Node000004"><a xlink:title=" ">
<polygon fill="#e0e0e0" stroke="#999999" points="380.25,-20 320,-20 320,0 380.25,0 380.25,-20"/>
<text xml:space="preserve" text-anchor="middle" x="350.12" y="-6.5" font-family="Helvetica,sans-Serif" font-size="10.00">fmt/core.h</text>
</a>
</g>
</g>
<!-- Node3&#45;&gt;Node4 -->
<g id="edge3_Node000003_Node000004" class="edge">
<title>Node3&#45;&gt;Node4</title>
<g id="a_edge3_Node000003_Node000004"><a xlink:title=" ">
<path fill="none" stroke="#63b8ff" d="M174.23,-55.59C211.76,-46.08 269.67,-31.4 308.69,-21.51"/>
<polygon fill="#63b8ff" stroke="#63b8ff" points="309.35,-24.95 318.18,-19.1 307.63,-18.16 309.35,-24.95"/>
</a>
</g>
</g>
<!-- Node5 -->
<g id="Node000005" class="node">
<title>Node5</title>
<g id="a_Node000005"><a xlink:title=" ">
<polygon fill="#e0e0e0" stroke="#999999" points="143.75,-20 98.5,-20 98.5,0 143.75,0 143.75,-20"/>
<text xml:space="preserve" text-anchor="middle" x="121.12" y="-6.5" font-family="Helvetica,sans-Serif" font-size="10.00">cstdint</text>
</a>
</g>
</g>
<!-- Node3&#45;&gt;Node5 -->
<g id="edge4_Node000003_Node000005" class="edge">
<title>Node3&#45;&gt;Node5</title>
<g id="a_edge4_Node000003_Node000005"><a xlink:title=" ">
<path fill="none" stroke="#63b8ff" d="M134.34,-55.59C132.34,-48.86 129.58,-39.53 127.1,-31.15"/>
<polygon fill="#63b8ff" stroke="#63b8ff" points="130.51,-30.34 124.31,-21.75 123.8,-32.33 130.51,-30.34"/>
</a>
</g>
</g>
<!-- Node3&#45;&gt;Node6 -->
<g id="edge5_Node000003_Node000006" class="edge">
<title>Node3&#45;&gt;Node6</title>
<g id="a_edge5_Node000003_Node000006"><a xlink:title=" ">
<path fill="none" stroke="#63b8ff" d="M120.23,-55.59C105.58,-47.44 84.1,-35.48 67.08,-26"/>
<polygon fill="#63b8ff" stroke="#63b8ff" points="68.92,-23.02 58.48,-21.22 65.51,-29.14 68.92,-23.02"/>
</a>
</g>
</g>
<!-- Node7 -->
<g id="Node000007" class="node">
<title>Node7</title>
<g id="a_Node000007"><a xlink:title=" ">
<polygon fill="#e0e0e0" stroke="#999999" points="580.75,-20 529.5,-20 529.5,0 580.75,0 580.75,-20"/>
<text xml:space="preserve" text-anchor="middle" x="555.12" y="-6.5" font-family="Helvetica,sans-Serif" font-size="10.00">sstream</text>
</a>
</g>
</g>
<!-- Node3&#45;&gt;Node7 -->
<g id="edge6_Node000003_Node000007" class="edge">
<title>Node3&#45;&gt;Node7</title>
<g id="a_edge6_Node000003_Node000007"><a xlink:title=" ">
<path fill="none" stroke="#63b8ff" d="M198.8,-57.03C287,-45.64 446.42,-25.04 518.26,-15.76"/>
<polygon fill="#63b8ff" stroke="#63b8ff" points="518.45,-19.27 527.92,-14.51 517.55,-12.32 518.45,-19.27"/>
</a>
</g>
</g>
<!-- Node3&#45;&gt;Node8 -->
<g id="edge7_Node000003_Node000008" class="edge">
<title>Node3&#45;&gt;Node8</title>
<g id="a_edge7_Node000003_Node000008"><a xlink:title=" ">
<path fill="none" stroke="#63b8ff" d="M144.96,-55.59C151.09,-48.24 159.8,-37.8 167.24,-28.87"/>
<polygon fill="#63b8ff" stroke="#63b8ff" points="169.69,-31.38 173.41,-21.46 164.32,-26.9 169.69,-31.38"/>
</a>
</g>
</g>
<!-- Node9&#45;&gt;Node3 -->
<g id="edge11_Node000009_Node000003" class="edge">
<title>Node9&#45;&gt;Node3</title>
<g id="a_edge11_Node000009_Node000003"><a xlink:title=" ">
<path fill="none" stroke="#63b8ff" d="M400.68,-112.32C347.09,-103.11 262.16,-88.5 203.25,-78.37"/>
<polygon fill="#63b8ff" stroke="#63b8ff" points="204.14,-74.97 193.7,-76.73 202.96,-81.87 204.14,-74.97"/>
</a>
</g>
</g>
<!-- Node9&#45;&gt;Node4 -->
<g id="edge21_Node000009_Node000004" class="edge">
<title>Node9&#45;&gt;Node4</title>
<g id="a_edge21_Node000009_Node000004"><a xlink:title=" ">
<path fill="none" stroke="#63b8ff" d="M450.6,-111.58C449.39,-97.93 445.38,-72.5 432.12,-56 421.05,-42.22 404.57,-32.02 389.28,-24.85"/>
<polygon fill="#63b8ff" stroke="#63b8ff" points="390.91,-21.74 380.35,-20.96 388.12,-28.16 390.91,-21.74"/>
</a>
</g>
</g>
<!-- Node9&#45;&gt;Node7 -->
<g id="edge18_Node000009_Node000007" class="edge">
<title>Node9&#45;&gt;Node7</title>
<g id="a_edge18_Node000009_Node000007"><a xlink:title=" ">
<path fill="none" stroke="#63b8ff" d="M501.4,-117.74C558.82,-112.85 647.51,-101.33 668.12,-76 692.54,-46 633.98,-27.08 592.36,-17.82"/>
<polygon fill="#63b8ff" stroke="#63b8ff" points="593.14,-14.41 582.63,-15.78 591.7,-21.26 593.14,-14.41"/>
</a>
</g>
</g>
<!-- Node9&#45;&gt;Node8 -->
<g id="edge19_Node000009_Node000008" class="edge">
<title>Node9&#45;&gt;Node8</title>
<g id="a_edge19_Node000009_Node000008"><a xlink:title=" ">
<path fill="none" stroke="#63b8ff" d="M400.69,-117.97C357.37,-113.55 294.45,-102.69 246.12,-76 225.2,-64.44 206.7,-43.92 195.04,-29.02"/>
<polygon fill="#63b8ff" stroke="#63b8ff" points="198.12,-27.29 189.32,-21.4 192.53,-31.5 198.12,-27.29"/>
</a>
</g>
</g>
<!-- Node10 -->
<g id="Node000010" class="node">
<title>Node10</title>
<g id="a_Node000010"><a xlink:title=" ">
<polygon fill="#e0e0e0" stroke="#999999" points="524.75,-76 479.5,-76 479.5,-56 524.75,-56 524.75,-76"/>
<text xml:space="preserve" text-anchor="middle" x="502.12" y="-62.5" font-family="Helvetica,sans-Serif" font-size="10.00">chrono</text>
</a>
</g>
</g>
<!-- Node9&#45;&gt;Node10 -->
<g id="edge12_Node000009_Node000010" class="edge">
<title>Node9&#45;&gt;Node10</title>
<g id="a_edge12_Node000009_Node000010"><a xlink:title=" ">
<path fill="none" stroke="#63b8ff" d="M460.01,-111.59C467.03,-104.16 477.03,-93.58 485.52,-84.58"/>
<polygon fill="#63b8ff" stroke="#63b8ff" points="487.98,-87.07 492.3,-77.4 482.89,-82.27 487.98,-87.07"/>
</a>
</g>
</g>
<!-- Node11 -->
<g id="Node000011" class="node">
<title>Node11</title>
<g id="a_Node000011"><a xlink:title=" ">
<polygon fill="#e0e0e0" stroke="#999999" points="591.62,-76 542.62,-76 542.62,-56 591.62,-56 591.62,-76"/>
<text xml:space="preserve" text-anchor="middle" x="567.12" y="-62.5" font-family="Helvetica,sans-Serif" font-size="10.00">fstream</text>
</a>
</g>
</g>
<!-- Node9&#45;&gt;Node11 -->
<g id="edge13_Node000009_Node000011" class="edge">
<title>Node9&#45;&gt;Node11</title>
<g id="a_edge13_Node000009_Node000011"><a xlink:title=" ">
<path fill="none" stroke="#63b8ff" d="M471.33,-111.59C489.35,-103.21 515.99,-90.8 536.61,-81.21"/>
<polygon fill="#63b8ff" stroke="#63b8ff" points="537.8,-84.51 545.39,-77.12 534.85,-78.17 537.8,-84.51"/>
</a>
</g>
</g>
<!-- Node12 -->
<g id="Node000012" class="node">
<title>Node12</title>
<g id="a_Node000012"><a xlink:title=" ">
<polygon fill="#e0e0e0" stroke="#999999" points="659,-76 609.25,-76 609.25,-56 659,-56 659,-76"/>
<text xml:space="preserve" text-anchor="middle" x="634.12" y="-62.5" font-family="Helvetica,sans-Serif" font-size="10.00">iomanip</text>
</a>
</g>
</g>
<!-- Node9&#45;&gt;Node12 -->
<g id="edge14_Node000009_Node000012" class="edge">
<title>Node9&#45;&gt;Node12</title>
<g id="a_edge14_Node000009_Node000012"><a xlink:title=" ">
<path fill="none" stroke="#63b8ff" d="M483,-111.59C515.11,-102.12 564.57,-87.52 598.09,-77.63"/>
<polygon fill="#63b8ff" stroke="#63b8ff" points="598.74,-81.09 607.34,-74.9 596.76,-74.38 598.74,-81.09"/>
</a>
</g>
</g>
<!-- Node13 -->
<g id="Node000013" class="node">
<title>Node13</title>
<g id="a_Node000013"><a xlink:title=" ">
<polygon fill="#e0e0e0" stroke="#999999" points="768.88,-76 715.38,-76 715.38,-56 768.88,-56 768.88,-76"/>
<text xml:space="preserve" text-anchor="middle" x="742.12" y="-62.5" font-family="Helvetica,sans-Serif" font-size="10.00">iostream</text>
</a>
</g>
</g>
<!-- Node9&#45;&gt;Node13 -->
<g id="edge15_Node000009_Node000013" class="edge">
<title>Node9&#45;&gt;Node13</title>
<g id="a_edge15_Node000009_Node000013"><a xlink:title=" ">
<path fill="none" stroke="#63b8ff" d="M501.51,-112.51C552.08,-103.85 632.15,-89.77 701.12,-76 702.13,-75.8 703.14,-75.6 704.16,-75.39"/>
<polygon fill="#63b8ff" stroke="#63b8ff" points="704.7,-78.85 713.77,-73.36 703.26,-72 704.7,-78.85"/>
</a>
</g>
</g>
<!-- Node14 -->
<g id="Node000014" class="node">
<title>Node14</title>
<g id="a_Node000014"><a xlink:title=" ">
<polygon fill="#e0e0e0" stroke="#999999" points="821.5,-76 786.75,-76 786.75,-56 821.5,-56 821.5,-76"/>
<text xml:space="preserve" text-anchor="middle" x="804.12" y="-62.5" font-family="Helvetica,sans-Serif" font-size="10.00">map</text>
</a>
</g>
</g>
<!-- Node9&#45;&gt;Node14 -->
<g id="edge16_Node000009_Node000014" class="edge">
<title>Node9&#45;&gt;Node14</title>
<g id="a_edge16_Node000009_Node000014"><a xlink:title=" ">
<path fill="none" stroke="#63b8ff" d="M501.55,-117.16C564,-111.72 673.66,-99.95 775.28,-76.3"/>
<polygon fill="#63b8ff" stroke="#63b8ff" points="775.97,-79.73 784.89,-74.02 774.35,-72.92 775.97,-79.73"/>
</a>
</g>
</g>
<!-- Node15 -->
<g id="Node000015" class="node">
<title>Node15</title>
<g id="a_Node000015"><a xlink:title=" ">
<polygon fill="#e0e0e0" stroke="#999999" points="297.62,-76 254.62,-76 254.62,-56 297.62,-56 297.62,-76"/>
<text xml:space="preserve" text-anchor="middle" x="276.12" y="-62.5" font-family="Helvetica,sans-Serif" font-size="10.00">mutex</text>
</a>
</g>
</g>
<!-- Node9&#45;&gt;Node15 -->
<g id="edge17_Node000009_Node000015" class="edge">
<title>Node9&#45;&gt;Node15</title>
<g id="a_edge17_Node000009_Node000015"><a xlink:title=" ">
<path fill="none" stroke="#63b8ff" d="M420.64,-111.59C389.28,-101.92 340.61,-86.9 308.56,-77.01"/>
<polygon fill="#63b8ff" stroke="#63b8ff" points="310,-73.79 299.41,-74.19 307.94,-80.48 310,-73.79"/>
</a>
</g>
</g>
<!-- Node16 -->
<g id="Node000016" class="node">
<title>Node16</title>
<g id="a_Node000016"><a xlink:title=" ">
<polygon fill="#e0e0e0" stroke="#999999" points="354.75,-76 315.5,-76 315.5,-56 354.75,-56 354.75,-76"/>
<text xml:space="preserve" text-anchor="middle" x="335.12" y="-62.5" font-family="Helvetica,sans-Serif" font-size="10.00">utility</text>
</a>
</g>
</g>
<!-- Node9&#45;&gt;Node16 -->
<g id="edge20_Node000009_Node000016" class="edge">
<title>Node9&#45;&gt;Node16</title>
<g id="a_edge20_Node000009_Node000016"><a xlink:title=" ">
<path fill="none" stroke="#63b8ff" d="M430.92,-111.59C412.79,-103.15 385.93,-90.65 365.26,-81.03"/>
<polygon fill="#63b8ff" stroke="#63b8ff" points="367.01,-77.98 356.47,-76.94 364.06,-84.33 367.01,-77.98"/>
</a>
</g>
</g>
<!-- Node17 -->
<g id="Node000017" class="node">
<title>Node17</title>
<g id="a_Node000017"><a xlink:title=" ">
<polygon fill="#e0e0e0" stroke="#999999" points="423.38,-76 372.88,-76 372.88,-56 423.38,-56 423.38,-76"/>
<text xml:space="preserve" text-anchor="middle" x="398.12" y="-62.5" font-family="Helvetica,sans-Serif" font-size="10.00">unistd.h</text>
</a>
</g>
</g>
<!-- Node9&#45;&gt;Node17 -->
<g id="edge22_Node000009_Node000017" class="edge">
<title>Node9&#45;&gt;Node17</title>
<g id="a_edge22_Node000009_Node000017"><a xlink:title=" ">
<path fill="none" stroke="#63b8ff" d="M441.89,-111.59C434.52,-104.08 423.99,-93.35 415.11,-84.3"/>
<polygon fill="#63b8ff" stroke="#63b8ff" points="417.81,-82.06 408.31,-77.38 412.82,-86.97 417.81,-82.06"/>
</a>
</g>
</g>
<!-- Node18&#45;&gt;Node3 -->
<g id="edge24_Node000018_Node000003" class="edge">
<title>Node18&#45;&gt;Node3</title>
<g id="a_edge24_Node000018_Node000003"><a xlink:title=" ">
<path fill="none" stroke="#63b8ff" d="M151.99,-111.59C149.74,-104.86 146.64,-95.53 143.84,-87.15"/>
<polygon fill="#63b8ff" stroke="#63b8ff" points="147.19,-86.11 140.7,-77.73 140.55,-88.33 147.19,-86.11"/>
</a>
</g>
</g>
</g>
</svg>

<g id="navigator" transform="translate(0 0)" fill="#404254">
  <rect fill="#f2f5e9" fill-opacity="0.5" stroke="#606060" stroke-width=".5" x="0" y="0" width="60" height="60"/>
  <use id="zoomplus" xlink:href="#zoomPlus" x="17" y="9" onmousedown="handleZoom(evt,'in')"/>
  <use id="zoomminus" xlink:href="#zoomMin" x="42" y="9" onmousedown="handleZoom(evt,'out')"/>
  <use id="reset" xlink:href="#resetDef" x="30" y="36" onmousedown="handleReset()"/>
   <use id="arrowup" xlink:href="#arrowUp" x="0" y="0" onmousedown="handlePan(0,-1)"/>
  <use id="arrowright" xlink:href="#arrowRight" x="0" y="0" onmousedown="handlePan(1,0)"/>
  <use id="arrowdown" xlink:href="#arrowDown" x="0" y="0" onmousedown="handlePan(0,1)"/>
  <use id="arrowleft" xlink:href="#arrowLeft" x="0" y="0" onmousedown="handlePan(-1,0)"/>
</g>
<svg viewBox="0 0 15 15" width="100%" height="30px" preserveAspectRatio="xMaxYMin meet">
 <g id="arrow_out" transform="scale(0.3 0.3)">
  <a xlink:href="LoggerFactory_8cpp__incl_org.svg" target="_base">
   <rect id="button" ry="5" rx="5" y="6" x="6" height="38" width="38"
        fill="#f2f5e9" fill-opacity="0.5" stroke="#606060" stroke-width="1.0"/>
   <path id="arrow"
     d="M 11.500037,31.436501 C 11.940474,20.09759 22.043105,11.32322 32.158766,21.979434 L 37.068811,17.246167 C 37.068811,17.246167 37.088388,32 37.088388,32 L 22.160133,31.978069 C 22.160133,31.978069 26.997745,27.140456 26.997745,27.140456 C 18.528582,18.264221 13.291696,25.230495 11.500037,31.436501 z"
     style="fill:#404040;"/>
  </a>
 </g>
</svg>

<style type='text/css'>
<![CDATA[
[data-mouse-over-selected='false'] { opacity: 0.7; }
[data-mouse-over-selected='true']  { opacity: 1.0; }
]]>
</style>
<script type="application/ecmascript"><![CDATA[
document.addEventListener('DOMContentLoaded', (event) => {
  highlightEdges();
  highlightAdjacentNodes();
});
]]></script>
</svg>
