<?xml version="1.0" encoding="UTF-8" standalone="no"?>
<!DOCTYPE svg PUBLIC "-//W3C//DTD SVG 1.1//EN"
 "http://www.w3.org/Graphics/SVG/1.1/DTD/svg11.dtd">
<!-- Generated by graphviz version 13.1.2 (20250808.2320)
 -->
<!-- Title: src/Utils/Logger/LoggerFactory.hpp Pages: 1 -->
<svg width="348pt" height="140pt"
 viewBox="0.00 0.00 348.00 140.00" xmlns="http://www.w3.org/2000/svg" xmlns:xlink="http://www.w3.org/1999/xlink">
<g id="graph0" class="graph" transform="scale(1 1) rotate(0) translate(4 136)">
<title>src/Utils/Logger/LoggerFactory.hpp</title>
<!-- Node1 -->
<g id="Node000001" class="node">
<title>Node1</title>
<g id="a_Node000001"><a xlink:title=" ">
<polygon fill="#999999" stroke="#666666" points="340.25,-132 172,-132 172,-112 340.25,-112 340.25,-132"/>
<text xml:space="preserve" text-anchor="middle" x="256.12" y="-118.5" font-family="Helvetica,sans-Serif" font-size="10.00">src/Utils/Logger/LoggerFactory.hpp</text>
</a>
</g>
</g>
<!-- Node2 -->
<g id="Node000002" class="node">
<title>Node2</title>
<g id="a_Node000002"><a xlink:href="ILogger_8hpp.html" target="_top" xlink:title=" ">
<polygon fill="white" stroke="#666666" points="228.38,-76 105.88,-76 105.88,-56 228.38,-56 228.38,-76"/>
<text xml:space="preserve" text-anchor="middle" x="167.12" y="-62.5" font-family="Helvetica,sans-Serif" font-size="10.00">Utils/Logger/ILogger.hpp</text>
</a>
</g>
</g>
<!-- Node1&#45;&gt;Node2 -->
<g id="edge1_Node000001_Node000002" class="edge">
<title>Node1&#45;&gt;Node2</title>
<g id="a_edge1_Node000001_Node000002"><a xlink:title=" ">
<path fill="none" stroke="#63b8ff" d="M240.62,-111.59C227.3,-103.51 207.85,-91.71 192.3,-82.27"/>
<polygon fill="#63b8ff" stroke="#63b8ff" points="194.41,-79.46 184.04,-77.26 190.78,-85.44 194.41,-79.46"/>
</a>
</g>
</g>
<!-- Node5 -->
<g id="Node000005" class="node">
<title>Node5</title>
<g id="a_Node000005"><a xlink:title=" ">
<polygon fill="#e0e0e0" stroke="#999999" points="261.75,-20 210.5,-20 210.5,0 261.75,0 261.75,-20"/>
<text xml:space="preserve" text-anchor="middle" x="236.12" y="-6.5" font-family="Helvetica,sans-Serif" font-size="10.00">memory</text>
</a>
</g>
</g>
<!-- Node1&#45;&gt;Node5 -->
<g id="edge7_Node000001_Node000005" class="edge">
<title>Node1&#45;&gt;Node5</title>
<g id="a_edge7_Node000001_Node000005"><a xlink:title=" ">
<path fill="none" stroke="#63b8ff" d="M254.42,-111.62C251.22,-94.01 244.23,-55.59 239.88,-31.65"/>
<polygon fill="#63b8ff" stroke="#63b8ff" points="243.33,-31.06 238.1,-21.84 236.44,-32.31 243.33,-31.06"/>
</a>
</g>
</g>
<!-- Node7 -->
<g id="Node000007" class="node">
<title>Node7</title>
<g id="a_Node000007"><a xlink:title=" ">
<polygon fill="#e0e0e0" stroke="#999999" points="320.12,-20 280.12,-20 280.12,0 320.12,0 320.12,-20"/>
<text xml:space="preserve" text-anchor="middle" x="300.12" y="-6.5" font-family="Helvetica,sans-Serif" font-size="10.00">string</text>
</a>
</g>
</g>
<!-- Node1&#45;&gt;Node7 -->
<g id="edge8_Node000001_Node000007" class="edge">
<title>Node1&#45;&gt;Node7</title>
<g id="a_edge8_Node000001_Node000007"><a xlink:title=" ">
<path fill="none" stroke="#63b8ff" d="M259.88,-111.62C266.99,-93.84 282.57,-54.88 292.13,-31"/>
<polygon fill="#63b8ff" stroke="#63b8ff" points="295.36,-32.34 295.82,-21.76 288.86,-29.74 295.36,-32.34"/>
</a>
</g>
</g>
<!-- Node3 -->
<g id="Node000003" class="node">
<title>Node3</title>
<g id="a_Node000003"><a xlink:title=" ">
<polygon fill="#e0e0e0" stroke="#999999" points="60.25,-20 0,-20 0,0 60.25,0 60.25,-20"/>
<text xml:space="preserve" text-anchor="middle" x="30.12" y="-6.5" font-family="Helvetica,sans-Serif" font-size="10.00">fmt/core.h</text>
</a>
</g>
</g>
<!-- Node2&#45;&gt;Node3 -->
<g id="edge2_Node000002_Node000003" class="edge">
<title>Node2&#45;&gt;Node3</title>
<g id="a_edge2_Node000002_Node000003"><a xlink:title=" ">
<path fill="none" stroke="#63b8ff" d="M143.26,-55.59C121.59,-47.05 89.36,-34.35 64.83,-24.68"/>
<polygon fill="#63b8ff" stroke="#63b8ff" points="66.17,-21.45 55.58,-21.03 63.6,-27.96 66.17,-21.45"/>
</a>
</g>
</g>
<!-- Node4 -->
<g id="Node000004" class="node">
<title>Node4</title>
<g id="a_Node000004"><a xlink:title=" ">
<polygon fill="#e0e0e0" stroke="#999999" points="123.75,-20 78.5,-20 78.5,0 123.75,0 123.75,-20"/>
<text xml:space="preserve" text-anchor="middle" x="101.12" y="-6.5" font-family="Helvetica,sans-Serif" font-size="10.00">cstdint</text>
</a>
</g>
</g>
<!-- Node2&#45;&gt;Node4 -->
<g id="edge3_Node000002_Node000004" class="edge">
<title>Node2&#45;&gt;Node4</title>
<g id="a_edge3_Node000002_Node000004"><a xlink:title=" ">
<path fill="none" stroke="#63b8ff" d="M155.63,-55.59C146.16,-47.85 132.52,-36.69 121.25,-27.47"/>
<polygon fill="#63b8ff" stroke="#63b8ff" points="123.62,-24.88 113.66,-21.26 119.18,-30.3 123.62,-24.88"/>
</a>
</g>
</g>
<!-- Node2&#45;&gt;Node5 -->
<g id="edge4_Node000002_Node000005" class="edge">
<title>Node2&#45;&gt;Node5</title>
<g id="a_edge4_Node000002_Node000005"><a xlink:title=" ">
<path fill="none" stroke="#63b8ff" d="M179.14,-55.59C189.14,-47.77 203.59,-36.46 215.43,-27.19"/>
<polygon fill="#63b8ff" stroke="#63b8ff" points="217.33,-30.15 223.05,-21.23 213.02,-24.64 217.33,-30.15"/>
</a>
</g>
</g>
<!-- Node6 -->
<g id="Node000006" class="node">
<title>Node6</title>
<g id="a_Node000006"><a xlink:title=" ">
<polygon fill="#e0e0e0" stroke="#999999" points="192.75,-20 141.5,-20 141.5,0 192.75,0 192.75,-20"/>
<text xml:space="preserve" text-anchor="middle" x="167.12" y="-6.5" font-family="Helvetica,sans-Serif" font-size="10.00">sstream</text>
</a>
</g>
</g>
<!-- Node2&#45;&gt;Node6 -->
<g id="edge5_Node000002_Node000006" class="edge">
<title>Node2&#45;&gt;Node6</title>
<g id="a_edge5_Node000002_Node000006"><a xlink:title=" ">
<path fill="none" stroke="#63b8ff" d="M167.12,-55.59C167.12,-49.01 167.12,-39.96 167.12,-31.73"/>
<polygon fill="#63b8ff" stroke="#63b8ff" points="170.63,-31.81 167.13,-21.81 163.63,-31.81 170.63,-31.81"/>
</a>
</g>
</g>
<!-- Node2&#45;&gt;Node7 -->
<g id="edge6_Node000002_Node000007" class="edge">
<title>Node2&#45;&gt;Node7</title>
<g id="a_edge6_Node000002_Node000007"><a xlink:title=" ">
<path fill="none" stroke="#63b8ff" d="M190.29,-55.59C212.24,-46.68 245.33,-33.25 269.45,-23.45"/>
<polygon fill="#63b8ff" stroke="#63b8ff" points="270.48,-26.81 278.43,-19.81 267.85,-20.33 270.48,-26.81"/>
</a>
</g>
</g>
</g>
</svg>
