<?xml version="1.0" encoding="UTF-8" standalone="no"?>
<!DOCTYPE svg PUBLIC "-//W3C//DTD SVG 1.1//EN"
 "http://www.w3.org/Graphics/SVG/1.1/DTD/svg11.dtd">
<!-- Generated by graphviz version 13.1.2 (20250808.2320)
 -->
<!-- Title: src/Utils/Logger/LoggerFactory.hpp Pages: 1 -->
<svg width="564pt" height="264pt"
 viewBox="0.00 0.00 564.00 264.00" xmlns="http://www.w3.org/2000/svg" xmlns:xlink="http://www.w3.org/1999/xlink">
<g id="graph0" class="graph" transform="scale(1 1) rotate(0) translate(4 260)">
<title>src/Utils/Logger/LoggerFactory.hpp</title>
<!-- Node1 -->
<g id="Node000001" class="node">
<title>Node1</title>
<g id="a_Node000001"><a xlink:title=" ">
<polygon fill="#999999" stroke="#666666" points="280.25,-256 112,-256 112,-236 280.25,-236 280.25,-256"/>
<text xml:space="preserve" text-anchor="middle" x="196.12" y="-242.5" font-family="Helvetica,sans-Serif" font-size="10.00">src/Utils/Logger/LoggerFactory.hpp</text>
</a>
</g>
</g>
<!-- Node2 -->
<g id="Node000002" class="node">
<title>Node2</title>
<g id="a_Node000002"><a xlink:href="LoggerFactory_8cpp.html" target="_top" xlink:title=" ">
<polygon fill="white" stroke="#666666" points="168.25,-200 0,-200 0,-180 168.25,-180 168.25,-200"/>
<text xml:space="preserve" text-anchor="middle" x="84.12" y="-186.5" font-family="Helvetica,sans-Serif" font-size="10.00">src/Utils/Logger/LoggerFactory.cpp</text>
</a>
</g>
</g>
<!-- Node1&#45;&gt;Node2 -->
<g id="edge1_Node000001_Node000002" class="edge">
<title>Node1&#45;&gt;Node2</title>
<g id="a_edge1_Node000001_Node000002"><a xlink:title=" ">
<path fill="none" stroke="#63b8ff" d="M166.29,-230.61C146.49,-221.07 121.07,-208.81 103.79,-200.48"/>
<polygon fill="#63b8ff" stroke="#63b8ff" points="164.72,-233.75 175.25,-234.94 167.77,-227.44 164.72,-233.75"/>
</a>
</g>
</g>
<!-- Node3 -->
<g id="Node000003" class="node">
<title>Node3</title>
<g id="a_Node000003"><a xlink:href="UtilsFactory_8cpp.html" target="_top" xlink:title=" ">
<polygon fill="white" stroke="#666666" points="259.62,-144 132.62,-144 132.62,-124 259.62,-124 259.62,-144"/>
<text xml:space="preserve" text-anchor="middle" x="196.12" y="-130.5" font-family="Helvetica,sans-Serif" font-size="10.00">src/Utils/UtilsFactory.cpp</text>
</a>
</g>
</g>
<!-- Node1&#45;&gt;Node3 -->
<g id="edge2_Node000001_Node000003" class="edge">
<title>Node1&#45;&gt;Node3</title>
<g id="a_edge2_Node000001_Node000003"><a xlink:title=" ">
<path fill="none" stroke="#63b8ff" d="M196.12,-224.31C196.12,-200.36 196.12,-161.95 196.12,-144.35"/>
<polygon fill="#63b8ff" stroke="#63b8ff" points="192.63,-224.11 196.13,-234.11 199.63,-224.11 192.63,-224.11"/>
</a>
</g>
</g>
<!-- Node4 -->
<g id="Node000004" class="node">
<title>Node4</title>
<g id="a_Node000004"><a xlink:href="UtilsFactory_8hpp.html" target="_top" xlink:title=" ">
<polygon fill="white" stroke="#666666" points="351.62,-200 224.62,-200 224.62,-180 351.62,-180 351.62,-200"/>
<text xml:space="preserve" text-anchor="middle" x="288.12" y="-186.5" font-family="Helvetica,sans-Serif" font-size="10.00">src/Utils/UtilsFactory.hpp</text>
</a>
</g>
</g>
<!-- Node1&#45;&gt;Node4 -->
<g id="edge3_Node000001_Node000004" class="edge">
<title>Node1&#45;&gt;Node4</title>
<g id="a_edge3_Node000001_Node000004"><a xlink:title=" ">
<path fill="none" stroke="#63b8ff" d="M222,-229.81C238.05,-220.39 258.17,-208.58 271.97,-200.48"/>
<polygon fill="#63b8ff" stroke="#63b8ff" points="220.31,-226.75 213.46,-234.83 223.85,-232.78 220.31,-226.75"/>
</a>
</g>
</g>
<!-- Node4&#45;&gt;Node3 -->
<g id="edge11_Node000004_Node000003" class="edge">
<title>Node4&#45;&gt;Node3</title>
<g id="a_edge11_Node000004_Node000003"><a xlink:title=" ">
<path fill="none" stroke="#63b8ff" d="M262.25,-173.81C246.2,-164.39 226.08,-152.58 212.28,-144.48"/>
<polygon fill="#63b8ff" stroke="#63b8ff" points="260.4,-176.78 270.79,-178.83 263.94,-170.75 260.4,-176.78"/>
</a>
</g>
</g>
<!-- Node5 -->
<g id="Node000005" class="node">
<title>Node5</title>
<g id="a_Node000005"><a xlink:href="Application_8cpp.html" target="_top" xlink:title=" ">
<polygon fill="white" stroke="#666666" points="362.5,-20 213.75,-20 213.75,0 362.5,0 362.5,-20"/>
<text xml:space="preserve" text-anchor="middle" x="288.12" y="-6.5" font-family="Helvetica,sans-Serif" font-size="10.00">application/src/Application.cpp</text>
</a>
</g>
</g>
<!-- Node4&#45;&gt;Node5 -->
<g id="edge4_Node000004_Node000005" class="edge">
<title>Node4&#45;&gt;Node5</title>
<g id="a_edge4_Node000004_Node000005"><a xlink:title=" ">
<path fill="none" stroke="#63b8ff" d="M288.12,-168.43C288.12,-129.81 288.12,-47.84 288.12,-20.27"/>
<polygon fill="#63b8ff" stroke="#63b8ff" points="284.63,-168.41 288.13,-178.41 291.63,-168.41 284.63,-168.41"/>
</a>
</g>
</g>
<!-- Node6 -->
<g id="Node000006" class="node">
<title>Node6</title>
<g id="a_Node000006"><a xlink:href="EmojiModuleLib_8hpp.html" target="_top" xlink:title=" ">
<polygon fill="white" stroke="#666666" points="434.5,-88 315.75,-88 315.75,-56 434.5,-56 434.5,-88"/>
<text xml:space="preserve" text-anchor="start" x="323.75" y="-74.5" font-family="Helvetica,sans-Serif" font-size="10.00">include/EmojiModuleLib</text>
<text xml:space="preserve" text-anchor="middle" x="375.12" y="-62.5" font-family="Helvetica,sans-Serif" font-size="10.00">/EmojiModuleLib.hpp</text>
</a>
</g>
</g>
<!-- Node4&#45;&gt;Node6 -->
<g id="edge5_Node000004_Node000006" class="edge">
<title>Node4&#45;&gt;Node6</title>
<g id="a_edge5_Node000004_Node000006"><a xlink:title=" ">
<path fill="none" stroke="#63b8ff" d="M301.97,-170.54C319.01,-147.82 347.65,-109.64 363.57,-88.41"/>
<polygon fill="#63b8ff" stroke="#63b8ff" points="299.35,-168.2 296.15,-178.3 304.95,-172.4 299.35,-168.2"/>
</a>
</g>
</g>
<!-- Node8 -->
<g id="Node000008" class="node">
<title>Node8</title>
<g id="a_Node000008"><a xlink:href="Emoji_8hpp.html" target="_top" xlink:title=" ">
<polygon fill="white" stroke="#666666" points="458,-144 354.25,-144 354.25,-124 458,-124 458,-144"/>
<text xml:space="preserve" text-anchor="middle" x="406.12" y="-130.5" font-family="Helvetica,sans-Serif" font-size="10.00">src/Emoji/Emoji.hpp</text>
</a>
</g>
</g>
<!-- Node4&#45;&gt;Node8 -->
<g id="edge8_Node000004_Node000008" class="edge">
<title>Node4&#45;&gt;Node8</title>
<g id="a_edge8_Node000004_Node000008"><a xlink:title=" ">
<path fill="none" stroke="#63b8ff" d="M318.99,-174.88C339.92,-165.3 367.03,-152.89 385.41,-144.48"/>
<polygon fill="#63b8ff" stroke="#63b8ff" points="317.69,-171.62 310.06,-178.96 320.6,-177.99 317.69,-171.62"/>
</a>
</g>
</g>
<!-- Node6&#45;&gt;Node5 -->
<g id="edge6_Node000006_Node000005" class="edge">
<title>Node6&#45;&gt;Node5</title>
<g id="a_edge6_Node000006_Node000005"><a xlink:title=" ">
<path fill="none" stroke="#63b8ff" d="M343.62,-49.27C329.23,-39.35 312.95,-28.12 301.77,-20.41"/>
<polygon fill="#63b8ff" stroke="#63b8ff" points="341.26,-51.89 351.47,-54.69 345.23,-46.13 341.26,-51.89"/>
</a>
</g>
</g>
<!-- Node7 -->
<g id="Node000007" class="node">
<title>Node7</title>
<g id="a_Node000007"><a xlink:href="EmojiModuleLib_8cpp.html" target="_top" xlink:title=" ">
<polygon fill="white" stroke="#666666" points="501.25,-20 381,-20 381,0 501.25,0 501.25,-20"/>
<text xml:space="preserve" text-anchor="middle" x="441.12" y="-6.5" font-family="Helvetica,sans-Serif" font-size="10.00">src/EmojiModuleLib.cpp</text>
</a>
</g>
</g>
<!-- Node6&#45;&gt;Node7 -->
<g id="edge7_Node000006_Node000007" class="edge">
<title>Node6&#45;&gt;Node7</title>
<g id="a_edge7_Node000006_Node000007"><a xlink:title=" ">
<path fill="none" stroke="#63b8ff" d="M400.6,-47.84C411.11,-38.29 422.69,-27.76 430.78,-20.41"/>
<polygon fill="#63b8ff" stroke="#63b8ff" points="398.29,-45.21 393.24,-54.53 403,-50.39 398.29,-45.21"/>
</a>
</g>
</g>
<!-- Node8&#45;&gt;Node6 -->
<g id="edge9_Node000008_Node000006" class="edge">
<title>Node8&#45;&gt;Node6</title>
<g id="a_edge9_Node000008_Node000006"><a xlink:title=" ">
<path fill="none" stroke="#63b8ff" d="M396.02,-113.44C391.77,-105.22 386.91,-95.81 382.95,-88.14"/>
<polygon fill="#63b8ff" stroke="#63b8ff" points="392.89,-115 400.59,-122.28 399.11,-111.79 392.89,-115"/>
</a>
</g>
</g>
<!-- Node9 -->
<g id="Node000009" class="node">
<title>Node9</title>
<g id="a_Node000009"><a xlink:href="Emoji_8cpp.html" target="_top" xlink:title=" ">
<polygon fill="white" stroke="#666666" points="556,-82 452.25,-82 452.25,-62 556,-62 556,-82"/>
<text xml:space="preserve" text-anchor="middle" x="504.12" y="-68.5" font-family="Helvetica,sans-Serif" font-size="10.00">src/Emoji/Emoji.cpp</text>
</a>
</g>
</g>
<!-- Node8&#45;&gt;Node9 -->
<g id="edge10_Node000008_Node000009" class="edge">
<title>Node8&#45;&gt;Node9</title>
<g id="a_edge10_Node000008_Node000009"><a xlink:title=" ">
<path fill="none" stroke="#63b8ff" d="M431.13,-117.69C449.37,-106.52 473.5,-91.75 488.92,-82.31"/>
<polygon fill="#63b8ff" stroke="#63b8ff" points="429.43,-114.63 422.73,-122.83 433.08,-120.6 429.43,-114.63"/>
</a>
</g>
</g>
</g>
</svg>
