<?xml version="1.0" encoding="UTF-8" standalone="no"?>
<!DOCTYPE svg PUBLIC "-//W3C//DTD SVG 1.1//EN"
 "http://www.w3.org/Graphics/SVG/1.1/DTD/svg11.dtd">
<!-- Generated by graphviz version 13.1.2 (20250808.2320)
 -->
<!-- Title: application/tests/MockAssetManager.hpp Pages: 1 -->
<svg width="210pt" height="152pt"
 viewBox="0.00 0.00 210.00 152.00" xmlns="http://www.w3.org/2000/svg" xmlns:xlink="http://www.w3.org/1999/xlink">
<g id="graph0" class="graph" transform="scale(1 1) rotate(0) translate(4 148)">
<title>application/tests/MockAssetManager.hpp</title>
<!-- Node1 -->
<g id="Node000001" class="node">
<title>Node1</title>
<g id="a_Node000001"><a xlink:title=" ">
<polygon fill="#999999" stroke="#666666" points="201.75,-144 62,-144 62,-112 201.75,-112 201.75,-144"/>
<text xml:space="preserve" text-anchor="start" x="70" y="-130.5" font-family="Helvetica,sans-Serif" font-size="10.00">application/tests/MockAsset</text>
<text xml:space="preserve" text-anchor="middle" x="131.88" y="-118.5" font-family="Helvetica,sans-Serif" font-size="10.00">Manager.hpp</text>
</a>
</g>
</g>
<!-- Node2 -->
<g id="Node000002" class="node">
<title>Node2</title>
<g id="a_Node000002"><a xlink:href="IAssetManager_8hpp.html" target="_top" xlink:title=" ">
<polygon fill="white" stroke="#666666" points="157.75,-76 0,-76 0,-56 157.75,-56 157.75,-76"/>
<text xml:space="preserve" text-anchor="middle" x="78.88" y="-62.5" font-family="Helvetica,sans-Serif" font-size="10.00">Utils/Assets/IAssetManager.hpp</text>
</a>
</g>
</g>
<!-- Node1&#45;&gt;Node2 -->
<g id="edge1_Node000001_Node000002" class="edge">
<title>Node1&#45;&gt;Node2</title>
<g id="a_edge1_Node000001_Node000002"><a xlink:title=" ">
<path fill="none" stroke="#63b8ff" d="M118.23,-111.55C111.02,-103.39 102.14,-93.33 94.64,-84.84"/>
<polygon fill="#63b8ff" stroke="#63b8ff" points="97.43,-82.72 88.19,-77.54 92.18,-87.35 97.43,-82.72"/>
</a>
</g>
</g>
<!-- Node3 -->
<g id="Node000003" class="node">
<title>Node3</title>
<g id="a_Node000003"><a xlink:title=" ">
<polygon fill="#e0e0e0" stroke="#999999" points="162.38,-20 101.38,-20 101.38,0 162.38,0 162.38,-20"/>
<text xml:space="preserve" text-anchor="middle" x="131.88" y="-6.5" font-family="Helvetica,sans-Serif" font-size="10.00">filesystem</text>
</a>
</g>
</g>
<!-- Node1&#45;&gt;Node3 -->
<g id="edge3_Node000001_Node000003" class="edge">
<title>Node1&#45;&gt;Node3</title>
<g id="a_edge3_Node000001_Node000003"><a xlink:title=" ">
<path fill="none" stroke="#63b8ff" d="M145.96,-111.79C153.78,-102.28 162.74,-89.33 166.88,-76 169.51,-67.51 169.76,-64.41 166.88,-56 163.4,-45.88 156.63,-36.29 149.95,-28.58"/>
<polygon fill="#63b8ff" stroke="#63b8ff" points="152.52,-26.2 143.13,-21.3 147.42,-30.99 152.52,-26.2"/>
</a>
</g>
</g>
<!-- Node2&#45;&gt;Node3 -->
<g id="edge2_Node000002_Node000003" class="edge">
<title>Node2&#45;&gt;Node3</title>
<g id="a_edge2_Node000002_Node000003"><a xlink:title=" ">
<path fill="none" stroke="#63b8ff" d="M88.11,-55.59C95.48,-48.08 106.01,-37.35 114.89,-28.3"/>
<polygon fill="#63b8ff" stroke="#63b8ff" points="117.18,-30.97 121.69,-21.38 112.19,-26.06 117.18,-30.97"/>
</a>
</g>
</g>
</g>
</svg>
