<?xml version="1.0" encoding="UTF-8" standalone="no"?>
<!DOCTYPE svg PUBLIC "-//W3C//DTD SVG 1.1//EN"
 "http://www.w3.org/Graphics/SVG/1.1/DTD/svg11.dtd">
<!-- Generated by graphviz version 13.1.2 (20250808.2320)
 -->
<!-- Title: src/Utils/Filesystem/PathResolver.cpp Pages: 1 -->
<!--zoomable 264 -->

<svg id="main" version="1.1" xmlns="http://www.w3.org/2000/svg" xmlns:xlink="http://www.w3.org/1999/xlink" xml:space="preserve" onload="init(evt)">

<style type="text/css"><![CDATA[
.node, .edge {opacity: 0.7;}
.node.selected, .edge.selected {opacity: 1;}
.edge:hover path { stroke: red; }
.edge:hover polygon { stroke: red; fill: red; }
]]></style>

<defs>
  <circle id="rim" cx="0" cy="0" r="7"/>
  <circle id="rim2" cx="0" cy="0" r="3.5"/>
  <g id="zoomPlus">
    <use xlink:href="#rim" fill="#404040"><set attributeName="fill" to="#808080" begin="zoomplus.mouseover" end="zoomplus.mouseout"/></use>
    <path d="M-4,0h8M0,-4v8" fill="none" stroke="white" stroke-width="1.5" pointer-events="none"/>
  </g>
  <g id="zoomMin">
    <use xlink:href="#rim" fill="#404040"><set attributeName="fill" to="#808080" begin="zoomminus.mouseover" end="zoomminus.mouseout"/></use>
    <path d="M-4,0h8" fill="none" stroke="white" stroke-width="1.5" pointer-events="none"/>
  </g>
  <g id="arrowUp" transform="translate(30 24)">
    <use xlink:href="#rim"/>
    <path pointer-events="none" fill="none" stroke="white" stroke-width="1.5" d="M0,-3.0v7 M-2.5,-0.5L0,-3.0L2.5,-0.5"/>
  </g>
  <g id="arrowRight" transform="rotate(90) translate(36 -43)">
    <use xlink:href="#rim"/>
    <path pointer-events="none" fill="none" stroke="white" stroke-width="1.5" d="M0,-3.0v7 M-2.5,-0.5L0,-3.0L2.5,-0.5"/>
  </g>
  <g id="arrowDown" transform="rotate(180) translate(-30 -48)">
    <use xlink:href="#rim"/>
    <path pointer-events="none" fill="none" stroke="white" stroke-width="1.5" d="M0,-3.0v7 M-2.5,-0.5L0,-3.0L2.5,-0.5"/>
  </g>
  <g id="arrowLeft" transform="rotate(270) translate(-36 17)">
    <use xlink:href="#rim"/>
    <path pointer-events="none" fill="none" stroke="white" stroke-width="1.5" d="M0,-3.0v7 M-2.5,-0.5L0,-3.0L2.5,-0.5"/>
  </g>
  <g id="resetDef">
    <use xlink:href="#rim2" fill="#404040"><set attributeName="fill" to="#808080" begin="reset.mouseover" end="reset.mouseout"/></use>
  </g>
</defs>
<script type="application/ecmascript">
var viewWidth = 531;
var viewHeight = 264;
var sectionId = 'dynsection-0';
</script>
<script type="application/ecmascript" xlink:href="svg.min.js"/>
<svg id="graph" class="graph">
<g id="viewport">
<title>src/Utils/Filesystem/PathResolver.cpp</title>
<!-- Node1 -->
<g id="Node000001" class="node">
<title>Node1</title>
<g id="a_Node000001"><a xlink:title=" ">
<polygon fill="#999999" stroke="#666666" points="453.5,-256 349.75,-256 349.75,-224 453.5,-224 453.5,-256"/>
<text xml:space="preserve" text-anchor="start" x="357.75" y="-242.5" font-family="Helvetica,sans-Serif" font-size="10.00">src/Utils/Filesystem</text>
<text xml:space="preserve" text-anchor="middle" x="401.62" y="-230.5" font-family="Helvetica,sans-Serif" font-size="10.00">/PathResolver.cpp</text>
</a>
</g>
</g>
<!-- Node2 -->
<g id="Node000002" class="node">
<title>Node2</title>
<g id="a_Node000002"><a xlink:href="PathResolver_8hpp.html" target="_top" xlink:title=" ">
<polygon fill="white" stroke="#666666" points="353.62,-188 259.62,-188 259.62,-168 353.62,-168 353.62,-188"/>
<text xml:space="preserve" text-anchor="middle" x="306.62" y="-174.5" font-family="Helvetica,sans-Serif" font-size="10.00">PathResolver.hpp</text>
</a>
</g>
</g>
<!-- Node1&#45;&gt;Node2 -->
<g id="edge1_Node000001_Node000002" class="edge">
<title>Node1&#45;&gt;Node2</title>
<g id="a_edge1_Node000001_Node000002"><a xlink:title=" ">
<path fill="none" stroke="#63b8ff" d="M377.16,-223.55C363,-214.61 345.25,-203.39 331.09,-194.45"/>
<polygon fill="#63b8ff" stroke="#63b8ff" points="333.12,-191.6 322.8,-189.22 329.39,-197.52 333.12,-191.6"/>
</a>
</g>
</g>
<!-- Node12 -->
<g id="Node000012" class="node">
<title>Node12</title>
<g id="a_Node000012"><a xlink:title=" ">
<polygon fill="#e0e0e0" stroke="#999999" points="431.75,-188 371.5,-188 371.5,-168 431.75,-168 431.75,-188"/>
<text xml:space="preserve" text-anchor="middle" x="401.62" y="-174.5" font-family="Helvetica,sans-Serif" font-size="10.00">fmt/core.h</text>
</a>
</g>
</g>
<!-- Node1&#45;&gt;Node12 -->
<g id="edge12_Node000001_Node000012" class="edge">
<title>Node1&#45;&gt;Node12</title>
<g id="a_edge12_Node000001_Node000012"><a xlink:title=" ">
<path fill="none" stroke="#63b8ff" d="M401.62,-223.55C401.62,-216.34 401.62,-207.66 401.62,-199.88"/>
<polygon fill="#63b8ff" stroke="#63b8ff" points="405.13,-199.92 401.63,-189.92 398.13,-199.92 405.13,-199.92"/>
</a>
</g>
</g>
<!-- Node13 -->
<g id="Node000013" class="node">
<title>Node13</title>
<g id="a_Node000013"><a xlink:title=" ">
<polygon fill="#e0e0e0" stroke="#999999" points="523.12,-188 450.12,-188 450.12,-168 523.12,-168 523.12,-188"/>
<text xml:space="preserve" text-anchor="middle" x="486.62" y="-174.5" font-family="Helvetica,sans-Serif" font-size="10.00">system_error</text>
</a>
</g>
</g>
<!-- Node1&#45;&gt;Node13 -->
<g id="edge13_Node000001_Node000013" class="edge">
<title>Node1&#45;&gt;Node13</title>
<g id="a_edge13_Node000001_Node000013"><a xlink:title=" ">
<path fill="none" stroke="#63b8ff" d="M423.51,-223.55C435.93,-214.78 451.45,-203.83 463.99,-194.97"/>
<polygon fill="#63b8ff" stroke="#63b8ff" points="465.91,-197.91 472.06,-189.28 461.87,-192.19 465.91,-197.91"/>
</a>
</g>
</g>
<!-- Node3 -->
<g id="Node000003" class="node">
<title>Node3</title>
<g id="a_Node000003"><a xlink:href="IPathResolver_8hpp.html" target="_top" xlink:title=" ">
<polygon fill="white" stroke="#666666" points="392.25,-132 221,-132 221,-112 392.25,-112 392.25,-132"/>
<text xml:space="preserve" text-anchor="middle" x="306.62" y="-118.5" font-family="Helvetica,sans-Serif" font-size="10.00">Utils/Filesystem/IPathResolver.hpp</text>
</a>
</g>
</g>
<!-- Node2&#45;&gt;Node3 -->
<g id="edge2_Node000002_Node000003" class="edge">
<title>Node2&#45;&gt;Node3</title>
<g id="a_edge2_Node000002_Node000003"><a xlink:title=" ">
<path fill="none" stroke="#63b8ff" d="M306.62,-167.59C306.62,-161.01 306.62,-151.96 306.62,-143.73"/>
<polygon fill="#63b8ff" stroke="#63b8ff" points="310.13,-143.81 306.63,-133.81 303.13,-143.81 310.13,-143.81"/>
</a>
</g>
</g>
<!-- Node4 -->
<g id="Node000004" class="node">
<title>Node4</title>
<g id="a_Node000004"><a xlink:href="UtilsError_8hpp.html" target="_top" xlink:title=" ">
<polygon fill="white" stroke="#666666" points="236.25,-76 137,-76 137,-56 236.25,-56 236.25,-76"/>
<text xml:space="preserve" text-anchor="middle" x="186.62" y="-62.5" font-family="Helvetica,sans-Serif" font-size="10.00">Utils/UtilsError.hpp</text>
</a>
</g>
</g>
<!-- Node3&#45;&gt;Node4 -->
<g id="edge3_Node000003_Node000004" class="edge">
<title>Node3&#45;&gt;Node4</title>
<g id="a_edge3_Node000003_Node000004"><a xlink:title=" ">
<path fill="none" stroke="#63b8ff" d="M285.72,-111.59C267,-103.17 239.27,-90.69 217.9,-81.07"/>
<polygon fill="#63b8ff" stroke="#63b8ff" points="219.63,-78.01 209.07,-77.1 216.75,-84.4 219.63,-78.01"/>
</a>
</g>
</g>
<!-- Node8 -->
<g id="Node000008" class="node">
<title>Node8</title>
<g id="a_Node000008"><a xlink:title=" ">
<polygon fill="#e0e0e0" stroke="#999999" points="311.62,-20 271.62,-20 271.62,0 311.62,0 311.62,-20"/>
<text xml:space="preserve" text-anchor="middle" x="291.62" y="-6.5" font-family="Helvetica,sans-Serif" font-size="10.00">string</text>
</a>
</g>
</g>
<!-- Node3&#45;&gt;Node8 -->
<g id="edge10_Node000003_Node000008" class="edge">
<title>Node3&#45;&gt;Node8</title>
<g id="a_edge10_Node000003_Node000008"><a xlink:title=" ">
<path fill="none" stroke="#63b8ff" d="M304.48,-111.74C302.44,-102.68 299.44,-88.46 297.62,-76 295.47,-61.2 293.94,-44.38 292.97,-31.56"/>
<polygon fill="#63b8ff" stroke="#63b8ff" points="296.47,-31.53 292.28,-21.8 289.49,-32.02 296.47,-31.53"/>
</a>
</g>
</g>
<!-- Node10 -->
<g id="Node000010" class="node">
<title>Node10</title>
<g id="a_Node000010"><a xlink:title=" ">
<polygon fill="#e0e0e0" stroke="#999999" points="367.12,-76 306.12,-76 306.12,-56 367.12,-56 367.12,-76"/>
<text xml:space="preserve" text-anchor="middle" x="336.62" y="-62.5" font-family="Helvetica,sans-Serif" font-size="10.00">filesystem</text>
</a>
</g>
</g>
<!-- Node3&#45;&gt;Node10 -->
<g id="edge9_Node000003_Node000010" class="edge">
<title>Node3&#45;&gt;Node10</title>
<g id="a_edge9_Node000003_Node000010"><a xlink:title=" ">
<path fill="none" stroke="#63b8ff" d="M311.85,-111.59C315.72,-104.63 321.13,-94.89 325.91,-86.29"/>
<polygon fill="#63b8ff" stroke="#63b8ff" points="328.93,-88.06 330.72,-77.62 322.81,-84.66 328.93,-88.06"/>
</a>
</g>
</g>
<!-- Node11 -->
<g id="Node000011" class="node">
<title>Node11</title>
<g id="a_Node000011"><a xlink:title=" ">
<polygon fill="#e0e0e0" stroke="#999999" points="428.12,-76 385.12,-76 385.12,-56 428.12,-56 428.12,-76"/>
<text xml:space="preserve" text-anchor="middle" x="406.62" y="-62.5" font-family="Helvetica,sans-Serif" font-size="10.00">vector</text>
</a>
</g>
</g>
<!-- Node3&#45;&gt;Node11 -->
<g id="edge11_Node000003_Node000011" class="edge">
<title>Node3&#45;&gt;Node11</title>
<g id="a_edge11_Node000003_Node000011"><a xlink:title=" ">
<path fill="none" stroke="#63b8ff" d="M324.04,-111.59C339.29,-103.36 361.7,-91.26 379.33,-81.74"/>
<polygon fill="#63b8ff" stroke="#63b8ff" points="380.6,-85.03 387.74,-77.2 377.28,-78.87 380.6,-85.03"/>
</a>
</g>
</g>
<!-- Node5 -->
<g id="Node000005" class="node">
<title>Node5</title>
<g id="a_Node000005"><a xlink:title=" ">
<polygon fill="#e0e0e0" stroke="#999999" points="45.25,-20 0,-20 0,0 45.25,0 45.25,-20"/>
<text xml:space="preserve" text-anchor="middle" x="22.62" y="-6.5" font-family="Helvetica,sans-Serif" font-size="10.00">cstdint</text>
</a>
</g>
</g>
<!-- Node4&#45;&gt;Node5 -->
<g id="edge4_Node000004_Node000005" class="edge">
<title>Node4&#45;&gt;Node5</title>
<g id="a_edge4_Node000004_Node000005"><a xlink:title=" ">
<path fill="none" stroke="#63b8ff" d="M158.06,-55.59C129.74,-46.27 86.36,-31.99 56.36,-22.11"/>
<polygon fill="#63b8ff" stroke="#63b8ff" points="57.61,-18.83 47.02,-19.03 55.42,-25.48 57.61,-18.83"/>
</a>
</g>
</g>
<!-- Node6 -->
<g id="Node000006" class="node">
<title>Node6</title>
<g id="a_Node000006"><a xlink:title=" ">
<polygon fill="#e0e0e0" stroke="#999999" points="113.5,-20 63.75,-20 63.75,0 113.5,0 113.5,-20"/>
<text xml:space="preserve" text-anchor="middle" x="88.62" y="-6.5" font-family="Helvetica,sans-Serif" font-size="10.00">optional</text>
</a>
</g>
</g>
<!-- Node4&#45;&gt;Node6 -->
<g id="edge5_Node000004_Node000006" class="edge">
<title>Node4&#45;&gt;Node6</title>
<g id="a_edge5_Node000004_Node000006"><a xlink:title=" ">
<path fill="none" stroke="#63b8ff" d="M169.55,-55.59C154.75,-47.44 133.06,-35.48 115.86,-26"/>
<polygon fill="#63b8ff" stroke="#63b8ff" points="117.6,-22.97 107.15,-21.21 114.22,-29.1 117.6,-22.97"/>
</a>
</g>
</g>
<!-- Node7 -->
<g id="Node000007" class="node">
<title>Node7</title>
<g id="a_Node000007"><a xlink:title=" ">
<polygon fill="#e0e0e0" stroke="#999999" points="190,-20 131.25,-20 131.25,0 190,0 190,-20"/>
<text xml:space="preserve" text-anchor="middle" x="160.62" y="-6.5" font-family="Helvetica,sans-Serif" font-size="10.00">stdexcept</text>
</a>
</g>
</g>
<!-- Node4&#45;&gt;Node7 -->
<g id="edge6_Node000004_Node000007" class="edge">
<title>Node4&#45;&gt;Node7</title>
<g id="a_edge6_Node000004_Node000007"><a xlink:title=" ">
<path fill="none" stroke="#63b8ff" d="M182.1,-55.59C178.78,-48.7 174.16,-39.1 170.05,-30.57"/>
<polygon fill="#63b8ff" stroke="#63b8ff" points="173.25,-29.15 165.76,-21.66 166.94,-32.19 173.25,-29.15"/>
</a>
</g>
</g>
<!-- Node4&#45;&gt;Node8 -->
<g id="edge7_Node000004_Node000008" class="edge">
<title>Node4&#45;&gt;Node8</title>
<g id="a_edge7_Node000004_Node000008"><a xlink:title=" ">
<path fill="none" stroke="#63b8ff" d="M204.91,-55.59C220.93,-47.36 244.46,-35.26 262.97,-25.74"/>
<polygon fill="#63b8ff" stroke="#63b8ff" points="264.55,-28.86 271.85,-21.17 261.35,-22.63 264.55,-28.86"/>
</a>
</g>
</g>
<!-- Node9 -->
<g id="Node000009" class="node">
<title>Node9</title>
<g id="a_Node000009"><a xlink:title=" ">
<polygon fill="#e0e0e0" stroke="#999999" points="253.25,-20 208,-20 208,0 253.25,0 253.25,-20"/>
<text xml:space="preserve" text-anchor="middle" x="230.62" y="-6.5" font-family="Helvetica,sans-Serif" font-size="10.00">variant</text>
</a>
</g>
</g>
<!-- Node4&#45;&gt;Node9 -->
<g id="edge8_Node000004_Node000009" class="edge">
<title>Node4&#45;&gt;Node9</title>
<g id="a_edge8_Node000004_Node000009"><a xlink:title=" ">
<path fill="none" stroke="#63b8ff" d="M194.29,-55.59C200.22,-48.32 208.61,-38.02 215.84,-29.15"/>
<polygon fill="#63b8ff" stroke="#63b8ff" points="218.49,-31.43 222.09,-21.47 213.06,-27.01 218.49,-31.43"/>
</a>
</g>
</g>
</g>
</svg>

<g id="navigator" transform="translate(0 0)" fill="#404254">
  <rect fill="#f2f5e9" fill-opacity="0.5" stroke="#606060" stroke-width=".5" x="0" y="0" width="60" height="60"/>
  <use id="zoomplus" xlink:href="#zoomPlus" x="17" y="9" onmousedown="handleZoom(evt,'in')"/>
  <use id="zoomminus" xlink:href="#zoomMin" x="42" y="9" onmousedown="handleZoom(evt,'out')"/>
  <use id="reset" xlink:href="#resetDef" x="30" y="36" onmousedown="handleReset()"/>
   <use id="arrowup" xlink:href="#arrowUp" x="0" y="0" onmousedown="handlePan(0,-1)"/>
  <use id="arrowright" xlink:href="#arrowRight" x="0" y="0" onmousedown="handlePan(1,0)"/>
  <use id="arrowdown" xlink:href="#arrowDown" x="0" y="0" onmousedown="handlePan(0,1)"/>
  <use id="arrowleft" xlink:href="#arrowLeft" x="0" y="0" onmousedown="handlePan(-1,0)"/>
</g>
<svg viewBox="0 0 15 15" width="100%" height="30px" preserveAspectRatio="xMaxYMin meet">
 <g id="arrow_out" transform="scale(0.3 0.3)">
  <a xlink:href="PathResolver_8cpp__incl_org.svg" target="_base">
   <rect id="button" ry="5" rx="5" y="6" x="6" height="38" width="38"
        fill="#f2f5e9" fill-opacity="0.5" stroke="#606060" stroke-width="1.0"/>
   <path id="arrow"
     d="M 11.500037,31.436501 C 11.940474,20.09759 22.043105,11.32322 32.158766,21.979434 L 37.068811,17.246167 C 37.068811,17.246167 37.088388,32 37.088388,32 L 22.160133,31.978069 C 22.160133,31.978069 26.997745,27.140456 26.997745,27.140456 C 18.528582,18.264221 13.291696,25.230495 11.500037,31.436501 z"
     style="fill:#404040;"/>
  </a>
 </g>
</svg>

<style type='text/css'>
<![CDATA[
[data-mouse-over-selected='false'] { opacity: 0.7; }
[data-mouse-over-selected='true']  { opacity: 1.0; }
]]>
</style>
<script type="application/ecmascript"><![CDATA[
document.addEventListener('DOMContentLoaded', (event) => {
  highlightEdges();
  highlightAdjacentNodes();
});
]]></script>
</svg>
