<?xml version="1.0" encoding="UTF-8" standalone="no"?>
<!DOCTYPE svg PUBLIC "-//W3C//DTD SVG 1.1//EN"
 "http://www.w3.org/Graphics/SVG/1.1/DTD/svg11.dtd">
<!-- Generated by graphviz version 13.1.2 (20250808.2320)
 -->
<!-- Title: src/Utils/Platform/PlatformInfoFactory.hpp Pages: 1 -->
<svg width="336pt" height="220pt"
 viewBox="0.00 0.00 336.00 220.00" xmlns="http://www.w3.org/2000/svg" xmlns:xlink="http://www.w3.org/1999/xlink">

<svg id="main" version="1.1" xmlns="http://www.w3.org/2000/svg" xmlns:xlink="http://www.w3.org/1999/xlink" xml:space="preserve">

<style type="text/css"><![CDATA[
.node, .edge {opacity: 0.7;}
.node.selected, .edge.selected {opacity: 1;}
.edge:hover path { stroke: red; }
.edge:hover polygon { stroke: red; fill: red; }
]]></style>
<script type="application/ecmascript" xlink:href="svg.min.js"/>
<svg id="graph" class="graph">
<g id="graph0" class="graph" transform="scale(1 1) rotate(0) translate(4 216)">
<title>src/Utils/Platform/PlatformInfoFactory.hpp</title>
<!-- Node1 -->
<g id="Node000001" class="node">
<title>Node1</title>
<g id="a_Node000001"><a xlink:title=" ">
<polygon fill="#999999" stroke="#666666" points="312.25,-212 189,-212 189,-180 312.25,-180 312.25,-212"/>
<text xml:space="preserve" text-anchor="start" x="197" y="-198.5" font-family="Helvetica,sans-Serif" font-size="10.00">src/Utils/Platform</text>
<text xml:space="preserve" text-anchor="middle" x="250.62" y="-186.5" font-family="Helvetica,sans-Serif" font-size="10.00">/PlatformInfoFactory.hpp</text>
</a>
</g>
</g>
<!-- Node2 -->
<g id="Node000002" class="node">
<title>Node2</title>
<g id="a_Node000002"><a xlink:href="IPlatformInfo_8hpp.html" target="_top" xlink:title=" ">
<polygon fill="white" stroke="#666666" points="259,-144 140.25,-144 140.25,-112 259,-112 259,-144"/>
<text xml:space="preserve" text-anchor="start" x="148.25" y="-130.5" font-family="Helvetica,sans-Serif" font-size="10.00">Utils/Platform/IPlatform</text>
<text xml:space="preserve" text-anchor="middle" x="199.62" y="-118.5" font-family="Helvetica,sans-Serif" font-size="10.00">Info.hpp</text>
</a>
</g>
</g>
<!-- Node1&#45;&gt;Node2 -->
<g id="edge1_Node000001_Node000002" class="edge">
<title>Node1&#45;&gt;Node2</title>
<g id="a_edge1_Node000001_Node000002"><a xlink:title=" ">
<path fill="none" stroke="#63b8ff" d="M238.8,-179.69C232.75,-171.86 225.24,-162.15 218.42,-153.32"/>
<polygon fill="#63b8ff" stroke="#63b8ff" points="221.2,-151.2 212.31,-145.42 215.66,-155.48 221.2,-151.2"/>
</a>
</g>
</g>
<!-- Node10 -->
<g id="Node000010" class="node">
<title>Node10</title>
<g id="a_Node000010"><a xlink:title=" ">
<polygon fill="#e0e0e0" stroke="#999999" points="328.25,-138 277,-138 277,-118 328.25,-118 328.25,-138"/>
<text xml:space="preserve" text-anchor="middle" x="302.62" y="-124.5" font-family="Helvetica,sans-Serif" font-size="10.00">memory</text>
</a>
</g>
</g>
<!-- Node1&#45;&gt;Node10 -->
<g id="edge11_Node000001_Node000010" class="edge">
<title>Node1&#45;&gt;Node10</title>
<g id="a_edge11_Node000001_Node000010"><a xlink:title=" ">
<path fill="none" stroke="#63b8ff" d="M262.69,-179.69C270.32,-170 280.24,-157.41 288.29,-147.2"/>
<polygon fill="#63b8ff" stroke="#63b8ff" points="290.91,-149.53 294.35,-139.51 285.41,-145.19 290.91,-149.53"/>
</a>
</g>
</g>
<!-- Node3 -->
<g id="Node000003" class="node">
<title>Node3</title>
<g id="a_Node000003"><a xlink:href="UtilsError_8hpp.html" target="_top" xlink:title=" ">
<polygon fill="white" stroke="#666666" points="210.25,-76 111,-76 111,-56 210.25,-56 210.25,-76"/>
<text xml:space="preserve" text-anchor="middle" x="160.62" y="-62.5" font-family="Helvetica,sans-Serif" font-size="10.00">Utils/UtilsError.hpp</text>
</a>
</g>
</g>
<!-- Node2&#45;&gt;Node3 -->
<g id="edge2_Node000002_Node000003" class="edge">
<title>Node2&#45;&gt;Node3</title>
<g id="a_edge2_Node000002_Node000003"><a xlink:title=" ">
<path fill="none" stroke="#63b8ff" d="M189.58,-111.55C184.5,-103.74 178.3,-94.19 172.93,-85.94"/>
<polygon fill="#63b8ff" stroke="#63b8ff" points="175.95,-84.15 167.57,-77.68 170.08,-87.97 175.95,-84.15"/>
</a>
</g>
</g>
<!-- Node4 -->
<g id="Node000004" class="node">
<title>Node4</title>
<g id="a_Node000004"><a xlink:title=" ">
<polygon fill="#e0e0e0" stroke="#999999" points="45.25,-20 0,-20 0,0 45.25,0 45.25,-20"/>
<text xml:space="preserve" text-anchor="middle" x="22.62" y="-6.5" font-family="Helvetica,sans-Serif" font-size="10.00">cstdint</text>
</a>
</g>
</g>
<!-- Node2&#45;&gt;Node4 -->
<g id="edge8_Node000002_Node000004" class="edge">
<title>Node2&#45;&gt;Node4</title>
<g id="a_edge8_Node000002_Node000004"><a xlink:title=" ">
<path fill="none" stroke="#63b8ff" d="M165.98,-111.65C146.6,-102.29 122.1,-89.54 101.62,-76 79.33,-61.26 55.95,-41.39 40.47,-27.52"/>
<polygon fill="#63b8ff" stroke="#63b8ff" points="43.2,-25.27 33.45,-21.14 38.5,-30.46 43.2,-25.27"/>
</a>
</g>
</g>
<!-- Node7 -->
<g id="Node000007" class="node">
<title>Node7</title>
<g id="a_Node000007"><a xlink:title=" ">
<polygon fill="#e0e0e0" stroke="#999999" points="311.62,-20 271.62,-20 271.62,0 311.62,0 311.62,-20"/>
<text xml:space="preserve" text-anchor="middle" x="291.62" y="-6.5" font-family="Helvetica,sans-Serif" font-size="10.00">string</text>
</a>
</g>
</g>
<!-- Node2&#45;&gt;Node7 -->
<g id="edge10_Node000002_Node000007" class="edge">
<title>Node2&#45;&gt;Node7</title>
<g id="a_edge10_Node000002_Node000007"><a xlink:title=" ">
<path fill="none" stroke="#63b8ff" d="M211.65,-111.84C228.45,-90.65 258.92,-52.24 277.01,-29.43"/>
<polygon fill="#63b8ff" stroke="#63b8ff" points="279.73,-31.63 283.2,-21.62 274.24,-27.28 279.73,-31.63"/>
</a>
</g>
</g>
<!-- Node9 -->
<g id="Node000009" class="node">
<title>Node9</title>
<g id="a_Node000009"><a xlink:title=" ">
<polygon fill="#e0e0e0" stroke="#999999" points="328.12,-76 267.12,-76 267.12,-56 328.12,-56 328.12,-76"/>
<text xml:space="preserve" text-anchor="middle" x="297.62" y="-62.5" font-family="Helvetica,sans-Serif" font-size="10.00">filesystem</text>
</a>
</g>
</g>
<!-- Node2&#45;&gt;Node9 -->
<g id="edge9_Node000002_Node000009" class="edge">
<title>Node2&#45;&gt;Node9</title>
<g id="a_edge9_Node000002_Node000009"><a xlink:title=" ">
<path fill="none" stroke="#63b8ff" d="M224.86,-111.55C239.61,-102.52 258.14,-91.17 272.81,-82.19"/>
<polygon fill="#63b8ff" stroke="#63b8ff" points="274.27,-85.4 280.97,-77.2 270.61,-79.43 274.27,-85.4"/>
</a>
</g>
</g>
<!-- Node3&#45;&gt;Node4 -->
<g id="edge3_Node000003_Node000004" class="edge">
<title>Node3&#45;&gt;Node4</title>
<g id="a_edge3_Node000003_Node000004"><a xlink:title=" ">
<path fill="none" stroke="#63b8ff" d="M136.59,-55.59C114.25,-46.85 80.79,-33.76 55.9,-24.02"/>
<polygon fill="#63b8ff" stroke="#63b8ff" points="57.47,-20.88 46.88,-20.49 54.92,-27.39 57.47,-20.88"/>
</a>
</g>
</g>
<!-- Node5 -->
<g id="Node000005" class="node">
<title>Node5</title>
<g id="a_Node000005"><a xlink:title=" ">
<polygon fill="#e0e0e0" stroke="#999999" points="113.5,-20 63.75,-20 63.75,0 113.5,0 113.5,-20"/>
<text xml:space="preserve" text-anchor="middle" x="88.62" y="-6.5" font-family="Helvetica,sans-Serif" font-size="10.00">optional</text>
</a>
</g>
</g>
<!-- Node3&#45;&gt;Node5 -->
<g id="edge4_Node000003_Node000005" class="edge">
<title>Node3&#45;&gt;Node5</title>
<g id="a_edge4_Node000003_Node000005"><a xlink:title=" ">
<path fill="none" stroke="#63b8ff" d="M148.08,-55.59C137.66,-47.77 122.58,-36.46 110.21,-27.19"/>
<polygon fill="#63b8ff" stroke="#63b8ff" points="112.33,-24.41 102.23,-21.21 108.13,-30.01 112.33,-24.41"/>
</a>
</g>
</g>
<!-- Node6 -->
<g id="Node000006" class="node">
<title>Node6</title>
<g id="a_Node000006"><a xlink:title=" ">
<polygon fill="#e0e0e0" stroke="#999999" points="190,-20 131.25,-20 131.25,0 190,0 190,-20"/>
<text xml:space="preserve" text-anchor="middle" x="160.62" y="-6.5" font-family="Helvetica,sans-Serif" font-size="10.00">stdexcept</text>
</a>
</g>
</g>
<!-- Node3&#45;&gt;Node6 -->
<g id="edge5_Node000003_Node000006" class="edge">
<title>Node3&#45;&gt;Node6</title>
<g id="a_edge5_Node000003_Node000006"><a xlink:title=" ">
<path fill="none" stroke="#63b8ff" d="M160.62,-55.59C160.62,-49.01 160.62,-39.96 160.62,-31.73"/>
<polygon fill="#63b8ff" stroke="#63b8ff" points="164.13,-31.81 160.63,-21.81 157.13,-31.81 164.13,-31.81"/>
</a>
</g>
</g>
<!-- Node3&#45;&gt;Node7 -->
<g id="edge6_Node000003_Node000007" class="edge">
<title>Node3&#45;&gt;Node7</title>
<g id="a_edge6_Node000003_Node000007"><a xlink:title=" ">
<path fill="none" stroke="#63b8ff" d="M183.44,-55.59C204.83,-46.78 236.98,-33.53 260.67,-23.76"/>
<polygon fill="#63b8ff" stroke="#63b8ff" points="261.91,-27.04 269.82,-19.99 259.24,-20.56 261.91,-27.04"/>
</a>
</g>
</g>
<!-- Node8 -->
<g id="Node000008" class="node">
<title>Node8</title>
<g id="a_Node000008"><a xlink:title=" ">
<polygon fill="#e0e0e0" stroke="#999999" points="253.25,-20 208,-20 208,0 253.25,0 253.25,-20"/>
<text xml:space="preserve" text-anchor="middle" x="230.62" y="-6.5" font-family="Helvetica,sans-Serif" font-size="10.00">variant</text>
</a>
</g>
</g>
<!-- Node3&#45;&gt;Node8 -->
<g id="edge7_Node000003_Node000008" class="edge">
<title>Node3&#45;&gt;Node8</title>
<g id="a_edge7_Node000003_Node000008"><a xlink:title=" ">
<path fill="none" stroke="#63b8ff" d="M172.82,-55.59C182.96,-47.77 197.62,-36.46 209.64,-27.19"/>
<polygon fill="#63b8ff" stroke="#63b8ff" points="211.59,-30.1 217.37,-21.22 207.32,-24.56 211.59,-30.1"/>
</a>
</g>
</g>
</g>
</svg>
</svg>

<style type='text/css'>
<![CDATA[
[data-mouse-over-selected='false'] { opacity: 0.7; }
[data-mouse-over-selected='true']  { opacity: 1.0; }
]]>
</style>
<script type="application/ecmascript"><![CDATA[
document.addEventListener('DOMContentLoaded', (event) => {
  highlightEdges();
  highlightAdjacentNodes();
});
]]></script>
</svg>
