<?xml version="1.0" encoding="UTF-8" standalone="no"?>
<!DOCTYPE svg PUBLIC "-//W3C//DTD SVG 1.1//EN"
 "http://www.w3.org/Graphics/SVG/1.1/DTD/svg11.dtd">
<!-- Generated by graphviz version 13.1.2 (20250808.2320)
 -->
<!-- Title: src/Utils/Platform/PlatformInfoFactory.cpp Pages: 1 -->
<svg width="612pt" height="276pt"
 viewBox="0.00 0.00 612.00 276.00" xmlns="http://www.w3.org/2000/svg" xmlns:xlink="http://www.w3.org/1999/xlink">
<g id="graph0" class="graph" transform="scale(1 1) rotate(0) translate(4 272)">
<title>src/Utils/Platform/PlatformInfoFactory.cpp</title>
<!-- Node1 -->
<g id="Node000001" class="node">
<title>Node1</title>
<g id="a_Node000001"><a xlink:title=" ">
<polygon fill="#999999" stroke="#666666" points="407.38,-268 284.12,-268 284.12,-236 407.38,-236 407.38,-268"/>
<text xml:space="preserve" text-anchor="start" x="292.12" y="-254.5" font-family="Helvetica,sans-Serif" font-size="10.00">src/Utils/Platform</text>
<text xml:space="preserve" text-anchor="middle" x="345.75" y="-242.5" font-family="Helvetica,sans-Serif" font-size="10.00">/PlatformInfoFactory.cpp</text>
</a>
</g>
</g>
<!-- Node2 -->
<g id="Node000002" class="node">
<title>Node2</title>
<g id="a_Node000002"><a xlink:href="PlatformInfoFactory_8hpp.html" target="_top" xlink:title=" ">
<polygon fill="white" stroke="#666666" points="547.88,-200 427.62,-200 427.62,-180 547.88,-180 547.88,-200"/>
<text xml:space="preserve" text-anchor="middle" x="487.75" y="-186.5" font-family="Helvetica,sans-Serif" font-size="10.00">PlatformInfoFactory.hpp</text>
</a>
</g>
</g>
<!-- Node1&#45;&gt;Node2 -->
<g id="edge1_Node000001_Node000002" class="edge">
<title>Node1&#45;&gt;Node2</title>
<g id="a_edge1_Node000001_Node000002"><a xlink:title=" ">
<path fill="none" stroke="#63b8ff" d="M382.32,-235.55C404.81,-226.04 433.39,-213.97 455.12,-204.79"/>
<polygon fill="#63b8ff" stroke="#63b8ff" points="456.24,-208.11 464.09,-201 453.52,-201.67 456.24,-208.11"/>
</a>
</g>
</g>
<!-- Node7 -->
<g id="Node000007" class="node">
<title>Node7</title>
<g id="a_Node000007"><a xlink:title=" ">
<polygon fill="#e0e0e0" stroke="#999999" points="604.12,-20 545.38,-20 545.38,0 604.12,0 604.12,-20"/>
<text xml:space="preserve" text-anchor="middle" x="574.75" y="-6.5" font-family="Helvetica,sans-Serif" font-size="10.00">stdexcept</text>
</a>
</g>
</g>
<!-- Node1&#45;&gt;Node7 -->
<g id="edge19_Node000001_Node000007" class="edge">
<title>Node1&#45;&gt;Node7</title>
<g id="a_edge19_Node000001_Node000007"><a xlink:title=" ">
<path fill="none" stroke="#63b8ff" d="M407.84,-243.97C462.88,-236.38 537.43,-222.28 556.75,-200 598.26,-152.12 587.57,-69.55 579.68,-31.41"/>
<polygon fill="#63b8ff" stroke="#63b8ff" points="583.12,-30.76 577.52,-21.77 576.29,-32.29 583.12,-30.76"/>
</a>
</g>
</g>
<!-- Node12 -->
<g id="Node000012" class="node">
<title>Node12</title>
<g id="a_Node000012"><a xlink:href="EmscriptenPlatformInfo_8hpp.html" target="_top" xlink:title=" ">
<polygon fill="white" stroke="#666666" points="137.5,-200 0,-200 0,-180 137.5,-180 137.5,-200"/>
<text xml:space="preserve" text-anchor="middle" x="68.75" y="-186.5" font-family="Helvetica,sans-Serif" font-size="10.00">EmscriptenPlatformInfo.hpp</text>
</a>
</g>
</g>
<!-- Node1&#45;&gt;Node12 -->
<g id="edge13_Node000001_Node000012" class="edge">
<title>Node1&#45;&gt;Node12</title>
<g id="a_edge13_Node000001_Node000012"><a xlink:title=" ">
<path fill="none" stroke="#63b8ff" d="M283.93,-237.61C235.76,-227.18 169.52,-212.83 123.31,-202.82"/>
<polygon fill="#63b8ff" stroke="#63b8ff" points="124.3,-199.45 113.79,-200.76 122.82,-206.29 124.3,-199.45"/>
</a>
</g>
</g>
<!-- Node13 -->
<g id="Node000013" class="node">
<title>Node13</title>
<g id="a_Node000013"><a xlink:href="UnixPlatformInfo_8hpp.html" target="_top" xlink:title=" ">
<polygon fill="white" stroke="#666666" points="263.88,-200 155.62,-200 155.62,-180 263.88,-180 263.88,-200"/>
<text xml:space="preserve" text-anchor="middle" x="209.75" y="-186.5" font-family="Helvetica,sans-Serif" font-size="10.00">UnixPlatformInfo.hpp</text>
</a>
</g>
</g>
<!-- Node1&#45;&gt;Node13 -->
<g id="edge15_Node000001_Node000013" class="edge">
<title>Node1&#45;&gt;Node13</title>
<g id="a_edge15_Node000001_Node000013"><a xlink:title=" ">
<path fill="none" stroke="#63b8ff" d="M310.73,-235.55C289.38,-226.13 262.31,-214.19 241.57,-205.04"/>
<polygon fill="#63b8ff" stroke="#63b8ff" points="243.02,-201.85 232.46,-201.02 240.2,-208.26 243.02,-201.85"/>
</a>
</g>
</g>
<!-- Node14 -->
<g id="Node000014" class="node">
<title>Node14</title>
<g id="a_Node000014"><a xlink:href="WindowsPlatformInfo_8hpp.html" target="_top" xlink:title=" ">
<polygon fill="white" stroke="#666666" points="410,-200 281.5,-200 281.5,-180 410,-180 410,-200"/>
<text xml:space="preserve" text-anchor="middle" x="345.75" y="-186.5" font-family="Helvetica,sans-Serif" font-size="10.00">WindowsPlatformInfo.hpp</text>
</a>
</g>
</g>
<!-- Node1&#45;&gt;Node14 -->
<g id="edge17_Node000001_Node000014" class="edge">
<title>Node1&#45;&gt;Node14</title>
<g id="a_edge17_Node000001_Node000014"><a xlink:title=" ">
<path fill="none" stroke="#63b8ff" d="M345.75,-235.55C345.75,-228.34 345.75,-219.66 345.75,-211.88"/>
<polygon fill="#63b8ff" stroke="#63b8ff" points="349.25,-211.92 345.75,-201.92 342.25,-211.92 349.25,-211.92"/>
</a>
</g>
</g>
<!-- Node3 -->
<g id="Node000003" class="node">
<title>Node3</title>
<g id="a_Node000003"><a xlink:href="IPlatformInfo_8hpp.html" target="_top" xlink:title=" ">
<polygon fill="white" stroke="#666666" points="405.12,-144 286.38,-144 286.38,-112 405.12,-112 405.12,-144"/>
<text xml:space="preserve" text-anchor="start" x="294.38" y="-130.5" font-family="Helvetica,sans-Serif" font-size="10.00">Utils/Platform/IPlatform</text>
<text xml:space="preserve" text-anchor="middle" x="345.75" y="-118.5" font-family="Helvetica,sans-Serif" font-size="10.00">Info.hpp</text>
</a>
</g>
</g>
<!-- Node2&#45;&gt;Node3 -->
<g id="edge2_Node000002_Node000003" class="edge">
<title>Node2&#45;&gt;Node3</title>
<g id="a_edge2_Node000002_Node000003"><a xlink:title=" ">
<path fill="none" stroke="#63b8ff" d="M465.56,-179.62C446.2,-171.44 417.44,-159.29 392.96,-148.95"/>
<polygon fill="#63b8ff" stroke="#63b8ff" points="394.38,-145.75 383.81,-145.08 391.65,-152.2 394.38,-145.75"/>
</a>
</g>
</g>
<!-- Node11 -->
<g id="Node000011" class="node">
<title>Node11</title>
<g id="a_Node000011"><a xlink:title=" ">
<polygon fill="#e0e0e0" stroke="#999999" points="513.38,-138 462.12,-138 462.12,-118 513.38,-118 513.38,-138"/>
<text xml:space="preserve" text-anchor="middle" x="487.75" y="-124.5" font-family="Helvetica,sans-Serif" font-size="10.00">memory</text>
</a>
</g>
</g>
<!-- Node2&#45;&gt;Node11 -->
<g id="edge12_Node000002_Node000011" class="edge">
<title>Node2&#45;&gt;Node11</title>
<g id="a_edge12_Node000002_Node000011"><a xlink:title=" ">
<path fill="none" stroke="#63b8ff" d="M487.75,-179.62C487.75,-171.56 487.75,-159.65 487.75,-149.41"/>
<polygon fill="#63b8ff" stroke="#63b8ff" points="491.25,-149.63 487.75,-139.63 484.25,-149.63 491.25,-149.63"/>
</a>
</g>
</g>
<!-- Node4 -->
<g id="Node000004" class="node">
<title>Node4</title>
<g id="a_Node000004"><a xlink:href="UtilsError_8hpp.html" target="_top" xlink:title=" ">
<polygon fill="white" stroke="#666666" points="493.38,-76 394.12,-76 394.12,-56 493.38,-56 493.38,-76"/>
<text xml:space="preserve" text-anchor="middle" x="443.75" y="-62.5" font-family="Helvetica,sans-Serif" font-size="10.00">Utils/UtilsError.hpp</text>
</a>
</g>
</g>
<!-- Node3&#45;&gt;Node4 -->
<g id="edge3_Node000003_Node000004" class="edge">
<title>Node3&#45;&gt;Node4</title>
<g id="a_edge3_Node000003_Node000004"><a xlink:title=" ">
<path fill="none" stroke="#63b8ff" d="M370.99,-111.55C385.73,-102.52 404.27,-91.17 418.94,-82.19"/>
<polygon fill="#63b8ff" stroke="#63b8ff" points="420.39,-85.4 427.09,-77.2 416.74,-79.43 420.39,-85.4"/>
</a>
</g>
</g>
<!-- Node5 -->
<g id="Node000005" class="node">
<title>Node5</title>
<g id="a_Node000005"><a xlink:title=" ">
<polygon fill="#e0e0e0" stroke="#999999" points="322.38,-20 277.12,-20 277.12,0 322.38,0 322.38,-20"/>
<text xml:space="preserve" text-anchor="middle" x="299.75" y="-6.5" font-family="Helvetica,sans-Serif" font-size="10.00">cstdint</text>
</a>
</g>
</g>
<!-- Node3&#45;&gt;Node5 -->
<g id="edge9_Node000003_Node000005" class="edge">
<title>Node3&#45;&gt;Node5</title>
<g id="a_edge9_Node000003_Node000005"><a xlink:title=" ">
<path fill="none" stroke="#63b8ff" d="M329.74,-111.54C321.07,-102.13 311.07,-89.38 305.75,-76 300.1,-61.8 298.74,-44.51 298.71,-31.34"/>
<polygon fill="#63b8ff" stroke="#63b8ff" points="302.2,-31.81 298.97,-21.72 295.21,-31.62 302.2,-31.81"/>
</a>
</g>
</g>
<!-- Node8 -->
<g id="Node000008" class="node">
<title>Node8</title>
<g id="a_Node000008"><a xlink:title=" ">
<polygon fill="#e0e0e0" stroke="#999999" points="526.75,-20 486.75,-20 486.75,0 526.75,0 526.75,-20"/>
<text xml:space="preserve" text-anchor="middle" x="506.75" y="-6.5" font-family="Helvetica,sans-Serif" font-size="10.00">string</text>
</a>
</g>
</g>
<!-- Node3&#45;&gt;Node8 -->
<g id="edge11_Node000003_Node000008" class="edge">
<title>Node3&#45;&gt;Node8</title>
<g id="a_edge11_Node000003_Node000008"><a xlink:title=" ">
<path fill="none" stroke="#63b8ff" d="M405.44,-123.56C439.5,-118.24 479.85,-105.57 502.75,-76 512.5,-63.42 512.73,-45.02 510.97,-31.01"/>
<polygon fill="#63b8ff" stroke="#63b8ff" points="514.49,-30.83 509.35,-21.57 507.59,-32.02 514.49,-30.83"/>
</a>
</g>
</g>
<!-- Node10 -->
<g id="Node000010" class="node">
<title>Node10</title>
<g id="a_Node000010"><a xlink:title=" ">
<polygon fill="#e0e0e0" stroke="#999999" points="376.25,-76 315.25,-76 315.25,-56 376.25,-56 376.25,-76"/>
<text xml:space="preserve" text-anchor="middle" x="345.75" y="-62.5" font-family="Helvetica,sans-Serif" font-size="10.00">filesystem</text>
</a>
</g>
</g>
<!-- Node3&#45;&gt;Node10 -->
<g id="edge10_Node000003_Node000010" class="edge">
<title>Node3&#45;&gt;Node10</title>
<g id="a_edge10_Node000003_Node000010"><a xlink:title=" ">
<path fill="none" stroke="#63b8ff" d="M345.75,-111.55C345.75,-104.34 345.75,-95.66 345.75,-87.88"/>
<polygon fill="#63b8ff" stroke="#63b8ff" points="349.25,-87.92 345.75,-77.92 342.25,-87.92 349.25,-87.92"/>
</a>
</g>
</g>
<!-- Node4&#45;&gt;Node5 -->
<g id="edge4_Node000004_Node000005" class="edge">
<title>Node4&#45;&gt;Node5</title>
<g id="a_edge4_Node000004_Node000005"><a xlink:title=" ">
<path fill="none" stroke="#63b8ff" d="M418.67,-55.59C394.98,-46.71 359.28,-33.32 333.18,-23.54"/>
<polygon fill="#63b8ff" stroke="#63b8ff" points="334.66,-20.35 324.06,-20.12 332.2,-26.91 334.66,-20.35"/>
</a>
</g>
</g>
<!-- Node6 -->
<g id="Node000006" class="node">
<title>Node6</title>
<g id="a_Node000006"><a xlink:title=" ">
<polygon fill="#e0e0e0" stroke="#999999" points="402.62,-20 352.88,-20 352.88,0 402.62,0 402.62,-20"/>
<text xml:space="preserve" text-anchor="middle" x="377.75" y="-6.5" font-family="Helvetica,sans-Serif" font-size="10.00">optional</text>
</a>
</g>
</g>
<!-- Node4&#45;&gt;Node6 -->
<g id="edge5_Node000004_Node000006" class="edge">
<title>Node4&#45;&gt;Node6</title>
<g id="a_edge5_Node000004_Node000006"><a xlink:title=" ">
<path fill="none" stroke="#63b8ff" d="M432.25,-55.59C422.79,-47.85 409.15,-36.69 397.88,-27.47"/>
<polygon fill="#63b8ff" stroke="#63b8ff" points="400.24,-24.88 390.29,-21.26 395.81,-30.3 400.24,-24.88"/>
</a>
</g>
</g>
<!-- Node4&#45;&gt;Node7 -->
<g id="edge6_Node000004_Node000007" class="edge">
<title>Node4&#45;&gt;Node7</title>
<g id="a_edge6_Node000004_Node000007"><a xlink:title=" ">
<path fill="none" stroke="#63b8ff" d="M466.57,-55.59C487.2,-47.09 517.83,-34.46 541.24,-24.81"/>
<polygon fill="#63b8ff" stroke="#63b8ff" points="542.44,-28.1 550.35,-21.06 539.77,-21.63 542.44,-28.1"/>
</a>
</g>
</g>
<!-- Node4&#45;&gt;Node8 -->
<g id="edge7_Node000004_Node000008" class="edge">
<title>Node4&#45;&gt;Node8</title>
<g id="a_edge7_Node000004_Node000008"><a xlink:title=" ">
<path fill="none" stroke="#63b8ff" d="M454.72,-55.59C463.67,-47.93 476.52,-36.91 487.21,-27.75"/>
<polygon fill="#63b8ff" stroke="#63b8ff" points="489.44,-30.45 494.75,-21.28 484.88,-25.13 489.44,-30.45"/>
</a>
</g>
</g>
<!-- Node9 -->
<g id="Node000009" class="node">
<title>Node9</title>
<g id="a_Node000009"><a xlink:title=" ">
<polygon fill="#e0e0e0" stroke="#999999" points="466.38,-20 421.12,-20 421.12,0 466.38,0 466.38,-20"/>
<text xml:space="preserve" text-anchor="middle" x="443.75" y="-6.5" font-family="Helvetica,sans-Serif" font-size="10.00">variant</text>
</a>
</g>
</g>
<!-- Node4&#45;&gt;Node9 -->
<g id="edge8_Node000004_Node000009" class="edge">
<title>Node4&#45;&gt;Node9</title>
<g id="a_edge8_Node000004_Node000009"><a xlink:title=" ">
<path fill="none" stroke="#63b8ff" d="M443.75,-55.59C443.75,-49.01 443.75,-39.96 443.75,-31.73"/>
<polygon fill="#63b8ff" stroke="#63b8ff" points="447.25,-31.81 443.75,-21.81 440.25,-31.81 447.25,-31.81"/>
</a>
</g>
</g>
<!-- Node12&#45;&gt;Node3 -->
<g id="edge14_Node000012_Node000003" class="edge">
<title>Node12&#45;&gt;Node3</title>
<g id="a_edge14_Node000012_Node000003"><a xlink:title=" ">
<path fill="none" stroke="#63b8ff" d="M112.34,-179.56C155.91,-170.12 223.64,-155.45 274.94,-144.34"/>
<polygon fill="#63b8ff" stroke="#63b8ff" points="275.44,-147.81 284.47,-142.27 273.96,-140.97 275.44,-147.81"/>
</a>
</g>
</g>
<!-- Node13&#45;&gt;Node3 -->
<g id="edge16_Node000013_Node000003" class="edge">
<title>Node13&#45;&gt;Node3</title>
<g id="a_edge16_Node000013_Node000003"><a xlink:title=" ">
<path fill="none" stroke="#63b8ff" d="M231,-179.62C249.46,-171.48 276.84,-159.4 300.22,-149.09"/>
<polygon fill="#63b8ff" stroke="#63b8ff" points="301.52,-152.34 309.25,-145.1 298.69,-145.94 301.52,-152.34"/>
</a>
</g>
</g>
<!-- Node14&#45;&gt;Node3 -->
<g id="edge18_Node000014_Node000003" class="edge">
<title>Node14&#45;&gt;Node3</title>
<g id="a_edge18_Node000014_Node000003"><a xlink:title=" ">
<path fill="none" stroke="#63b8ff" d="M345.75,-179.62C345.75,-173.1 345.75,-164.05 345.75,-155.4"/>
<polygon fill="#63b8ff" stroke="#63b8ff" points="349.25,-155.65 345.75,-145.65 342.25,-155.65 349.25,-155.65"/>
</a>
</g>
</g>
</g>
</svg>
