<?xml version="1.0" encoding="UTF-8" standalone="no"?>
<!DOCTYPE svg PUBLIC "-//W3C//DTD SVG 1.1//EN"
 "http://www.w3.org/Graphics/SVG/1.1/DTD/svg11.dtd">
<!-- Generated by graphviz version 13.1.2 (20250808.2320)
 -->
<!-- Title: src/Utils/String/StringFormatter.hpp Pages: 1 -->
<svg width="324pt" height="84pt"
 viewBox="0.00 0.00 324.00 84.00" xmlns="http://www.w3.org/2000/svg" xmlns:xlink="http://www.w3.org/1999/xlink">
<g id="graph0" class="graph" transform="scale(1 1) rotate(0) translate(4 80)">
<title>src/Utils/String/StringFormatter.hpp</title>
<!-- Node1 -->
<g id="Node000001" class="node">
<title>Node1</title>
<g id="a_Node000001"><a xlink:title=" ">
<polygon fill="#999999" stroke="#666666" points="253.5,-76 83,-76 83,-56 253.5,-56 253.5,-76"/>
<text xml:space="preserve" text-anchor="middle" x="168.25" y="-62.5" font-family="Helvetica,sans-Serif" font-size="10.00">src/Utils/String/StringFormatter.hpp</text>
</a>
</g>
</g>
<!-- Node2 -->
<g id="Node000002" class="node">
<title>Node2</title>
<g id="a_Node000002"><a xlink:href="StringFormatter_8cpp.html" target="_top" xlink:title=" ">
<polygon fill="white" stroke="#666666" points="170.5,-20 0,-20 0,0 170.5,0 170.5,-20"/>
<text xml:space="preserve" text-anchor="middle" x="85.25" y="-6.5" font-family="Helvetica,sans-Serif" font-size="10.00">src/Utils/String/StringFormatter.cpp</text>
</a>
</g>
</g>
<!-- Node1&#45;&gt;Node2 -->
<g id="edge1_Node000001_Node000002" class="edge">
<title>Node1&#45;&gt;Node2</title>
<g id="a_edge1_Node000001_Node000002"><a xlink:title=" ">
<path fill="none" stroke="#63b8ff" d="M144.49,-49.54C130.08,-40.17 112.16,-28.51 99.82,-20.48"/>
<polygon fill="#63b8ff" stroke="#63b8ff" points="142.23,-52.25 152.52,-54.77 146.05,-46.38 142.23,-52.25"/>
</a>
</g>
</g>
<!-- Node3 -->
<g id="Node000003" class="node">
<title>Node3</title>
<g id="a_Node000003"><a xlink:href="UtilsFactory_8cpp.html" target="_top" xlink:title=" ">
<polygon fill="white" stroke="#666666" points="315.75,-20 188.75,-20 188.75,0 315.75,0 315.75,-20"/>
<text xml:space="preserve" text-anchor="middle" x="252.25" y="-6.5" font-family="Helvetica,sans-Serif" font-size="10.00">src/Utils/UtilsFactory.cpp</text>
</a>
</g>
</g>
<!-- Node1&#45;&gt;Node3 -->
<g id="edge2_Node000001_Node000003" class="edge">
<title>Node1&#45;&gt;Node3</title>
<g id="a_edge2_Node000001_Node000003"><a xlink:title=" ">
<path fill="none" stroke="#63b8ff" d="M192.3,-49.54C206.88,-40.17 225.02,-28.51 237.5,-20.48"/>
<polygon fill="#63b8ff" stroke="#63b8ff" points="190.67,-46.42 184.15,-54.78 194.46,-52.31 190.67,-46.42"/>
</a>
</g>
</g>
</g>
</svg>
