<?xml version="1.0" encoding="UTF-8" standalone="no"?>
<!DOCTYPE svg PUBLIC "-//W3C//DTD SVG 1.1//EN"
 "http://www.w3.org/Graphics/SVG/1.1/DTD/svg11.dtd">
<!-- Generated by graphviz version 13.1.2 (20250808.2320)
 -->
<!-- Title: src/Utils/UtilsFactory.hpp Pages: 1 -->
<svg width="421pt" height="208pt"
 viewBox="0.00 0.00 421.00 208.00" xmlns="http://www.w3.org/2000/svg" xmlns:xlink="http://www.w3.org/1999/xlink">
<g id="graph0" class="graph" transform="scale(1 1) rotate(0) translate(4 204)">
<title>src/Utils/UtilsFactory.hpp</title>
<!-- Node1 -->
<g id="Node000001" class="node">
<title>Node1</title>
<g id="a_Node000001"><a xlink:title=" ">
<polygon fill="#999999" stroke="#666666" points="239.88,-200 112.88,-200 112.88,-180 239.88,-180 239.88,-200"/>
<text xml:space="preserve" text-anchor="middle" x="176.38" y="-186.5" font-family="Helvetica,sans-Serif" font-size="10.00">src/Utils/UtilsFactory.hpp</text>
</a>
</g>
</g>
<!-- Node2 -->
<g id="Node000002" class="node">
<title>Node2</title>
<g id="a_Node000002"><a xlink:href="Application_8cpp.html" target="_top" xlink:title=" ">
<polygon fill="white" stroke="#666666" points="148.75,-20 0,-20 0,0 148.75,0 148.75,-20"/>
<text xml:space="preserve" text-anchor="middle" x="74.38" y="-6.5" font-family="Helvetica,sans-Serif" font-size="10.00">application/src/Application.cpp</text>
</a>
</g>
</g>
<!-- Node1&#45;&gt;Node2 -->
<g id="edge1_Node000001_Node000002" class="edge">
<title>Node1&#45;&gt;Node2</title>
<g id="a_edge1_Node000001_Node000002"><a xlink:title=" ">
<path fill="none" stroke="#63b8ff" d="M158.09,-171.84C139.13,-153.04 109.98,-121.1 93.38,-88 82.02,-65.35 77.17,-35.48 75.34,-20.47"/>
<polygon fill="#63b8ff" stroke="#63b8ff" points="155.54,-174.25 165.16,-178.69 160.42,-169.22 155.54,-174.25"/>
</a>
</g>
</g>
<!-- Node3 -->
<g id="Node000003" class="node">
<title>Node3</title>
<g id="a_Node000003"><a xlink:href="EmojiModuleLib_8hpp.html" target="_top" xlink:title=" ">
<polygon fill="white" stroke="#666666" points="220.75,-88 102,-88 102,-56 220.75,-56 220.75,-88"/>
<text xml:space="preserve" text-anchor="start" x="110" y="-74.5" font-family="Helvetica,sans-Serif" font-size="10.00">include/EmojiModuleLib</text>
<text xml:space="preserve" text-anchor="middle" x="161.38" y="-62.5" font-family="Helvetica,sans-Serif" font-size="10.00">/EmojiModuleLib.hpp</text>
</a>
</g>
</g>
<!-- Node1&#45;&gt;Node3 -->
<g id="edge2_Node000001_Node000003" class="edge">
<title>Node1&#45;&gt;Node3</title>
<g id="a_edge2_Node000001_Node000003"><a xlink:title=" ">
<path fill="none" stroke="#63b8ff" d="M165.1,-169.68C161.21,-161.96 157.33,-152.82 155.38,-144 151.2,-125.16 154.34,-102.92 157.43,-88.41"/>
<polygon fill="#63b8ff" stroke="#63b8ff" points="162.02,-171.34 169.87,-178.45 168.16,-167.99 162.02,-171.34"/>
</a>
</g>
</g>
<!-- Node5 -->
<g id="Node000005" class="node">
<title>Node5</title>
<g id="a_Node000005"><a xlink:href="Emoji_8hpp.html" target="_top" xlink:title=" ">
<polygon fill="white" stroke="#666666" points="268.25,-144 164.5,-144 164.5,-124 268.25,-124 268.25,-144"/>
<text xml:space="preserve" text-anchor="middle" x="216.38" y="-130.5" font-family="Helvetica,sans-Serif" font-size="10.00">src/Emoji/Emoji.hpp</text>
</a>
</g>
</g>
<!-- Node1&#45;&gt;Node5 -->
<g id="edge5_Node000001_Node000005" class="edge">
<title>Node1&#45;&gt;Node5</title>
<g id="a_edge5_Node000001_Node000005"><a xlink:title=" ">
<path fill="none" stroke="#63b8ff" d="M190.13,-170.44C196.66,-161.62 204.18,-151.47 209.49,-144.3"/>
<polygon fill="#63b8ff" stroke="#63b8ff" points="187.38,-168.26 184.24,-178.38 193.01,-172.43 187.38,-168.26"/>
</a>
</g>
</g>
<!-- Node7 -->
<g id="Node000007" class="node">
<title>Node7</title>
<g id="a_Node000007"><a xlink:href="UtilsFactory_8cpp.html" target="_top" xlink:title=" ">
<polygon fill="white" stroke="#666666" points="412.88,-144 285.88,-144 285.88,-124 412.88,-124 412.88,-144"/>
<text xml:space="preserve" text-anchor="middle" x="349.38" y="-130.5" font-family="Helvetica,sans-Serif" font-size="10.00">src/Utils/UtilsFactory.cpp</text>
</a>
</g>
</g>
<!-- Node1&#45;&gt;Node7 -->
<g id="edge8_Node000001_Node000007" class="edge">
<title>Node1&#45;&gt;Node7</title>
<g id="a_edge8_Node000001_Node000007"><a xlink:title=" ">
<path fill="none" stroke="#63b8ff" d="M217.45,-176.18C248.64,-166.44 290.82,-153.28 319.01,-144.48"/>
<polygon fill="#63b8ff" stroke="#63b8ff" points="216.46,-172.82 207.95,-179.14 218.54,-179.5 216.46,-172.82"/>
</a>
</g>
</g>
<!-- Node3&#45;&gt;Node2 -->
<g id="edge3_Node000003_Node000002" class="edge">
<title>Node3&#45;&gt;Node2</title>
<g id="a_edge3_Node000003_Node000002"><a xlink:title=" ">
<path fill="none" stroke="#63b8ff" d="M129.87,-49.27C115.48,-39.35 99.2,-28.12 88.02,-20.41"/>
<polygon fill="#63b8ff" stroke="#63b8ff" points="127.51,-51.89 137.72,-54.69 131.48,-46.13 127.51,-51.89"/>
</a>
</g>
</g>
<!-- Node4 -->
<g id="Node000004" class="node">
<title>Node4</title>
<g id="a_Node000004"><a xlink:href="EmojiModuleLib_8cpp.html" target="_top" xlink:title=" ">
<polygon fill="white" stroke="#666666" points="287.5,-20 167.25,-20 167.25,0 287.5,0 287.5,-20"/>
<text xml:space="preserve" text-anchor="middle" x="227.38" y="-6.5" font-family="Helvetica,sans-Serif" font-size="10.00">src/EmojiModuleLib.cpp</text>
</a>
</g>
</g>
<!-- Node3&#45;&gt;Node4 -->
<g id="edge4_Node000003_Node000004" class="edge">
<title>Node3&#45;&gt;Node4</title>
<g id="a_edge4_Node000003_Node000004"><a xlink:title=" ">
<path fill="none" stroke="#63b8ff" d="M186.85,-47.84C197.36,-38.29 208.94,-27.76 217.03,-20.41"/>
<polygon fill="#63b8ff" stroke="#63b8ff" points="184.54,-45.21 179.49,-54.53 189.25,-50.39 184.54,-45.21"/>
</a>
</g>
</g>
<!-- Node5&#45;&gt;Node3 -->
<g id="edge6_Node000005_Node000003" class="edge">
<title>Node5&#45;&gt;Node3</title>
<g id="a_edge6_Node000005_Node000003"><a xlink:title=" ">
<path fill="none" stroke="#63b8ff" d="M200.22,-115.37C192.29,-106.73 182.85,-96.42 175.25,-88.14"/>
<polygon fill="#63b8ff" stroke="#63b8ff" points="197.42,-117.5 206.76,-122.51 202.58,-112.77 197.42,-117.5"/>
</a>
</g>
</g>
<!-- Node6 -->
<g id="Node000006" class="node">
<title>Node6</title>
<g id="a_Node000006"><a xlink:href="Emoji_8cpp.html" target="_top" xlink:title=" ">
<polygon fill="white" stroke="#666666" points="342.25,-82 238.5,-82 238.5,-62 342.25,-62 342.25,-82"/>
<text xml:space="preserve" text-anchor="middle" x="290.38" y="-68.5" font-family="Helvetica,sans-Serif" font-size="10.00">src/Emoji/Emoji.cpp</text>
</a>
</g>
</g>
<!-- Node5&#45;&gt;Node6 -->
<g id="edge7_Node000005_Node000006" class="edge">
<title>Node5&#45;&gt;Node6</title>
<g id="a_edge7_Node000005_Node000006"><a xlink:title=" ">
<path fill="none" stroke="#63b8ff" d="M236.67,-116.55C250.35,-105.45 267.89,-91.23 279.14,-82.11"/>
<polygon fill="#63b8ff" stroke="#63b8ff" points="234.68,-113.66 229.11,-122.67 239.09,-119.09 234.68,-113.66"/>
</a>
</g>
</g>
</g>
</svg>
