<?xml version="1.0" encoding="UTF-8" standalone="no"?>
<!DOCTYPE svg PUBLIC "-//W3C//DTD SVG 1.1//EN"
 "http://www.w3.org/Graphics/SVG/1.1/DTD/svg11.dtd">
<!-- Generated by graphviz version 13.1.2 (20250808.2320)
 -->
<!-- Title: src/Utils/UtilsFactory.hpp Pages: 1 -->
<!--zoomable 208 -->

<svg id="main" version="1.1" xmlns="http://www.w3.org/2000/svg" xmlns:xlink="http://www.w3.org/1999/xlink" xml:space="preserve" onload="init(evt)">

<style type="text/css"><![CDATA[
.node, .edge {opacity: 0.7;}
.node.selected, .edge.selected {opacity: 1;}
.edge:hover path { stroke: red; }
.edge:hover polygon { stroke: red; fill: red; }
]]></style>

<defs>
  <circle id="rim" cx="0" cy="0" r="7"/>
  <circle id="rim2" cx="0" cy="0" r="3.5"/>
  <g id="zoomPlus">
    <use xlink:href="#rim" fill="#404040"><set attributeName="fill" to="#808080" begin="zoomplus.mouseover" end="zoomplus.mouseout"/></use>
    <path d="M-4,0h8M0,-4v8" fill="none" stroke="white" stroke-width="1.5" pointer-events="none"/>
  </g>
  <g id="zoomMin">
    <use xlink:href="#rim" fill="#404040"><set attributeName="fill" to="#808080" begin="zoomminus.mouseover" end="zoomminus.mouseout"/></use>
    <path d="M-4,0h8" fill="none" stroke="white" stroke-width="1.5" pointer-events="none"/>
  </g>
  <g id="arrowUp" transform="translate(30 24)">
    <use xlink:href="#rim"/>
    <path pointer-events="none" fill="none" stroke="white" stroke-width="1.5" d="M0,-3.0v7 M-2.5,-0.5L0,-3.0L2.5,-0.5"/>
  </g>
  <g id="arrowRight" transform="rotate(90) translate(36 -43)">
    <use xlink:href="#rim"/>
    <path pointer-events="none" fill="none" stroke="white" stroke-width="1.5" d="M0,-3.0v7 M-2.5,-0.5L0,-3.0L2.5,-0.5"/>
  </g>
  <g id="arrowDown" transform="rotate(180) translate(-30 -48)">
    <use xlink:href="#rim"/>
    <path pointer-events="none" fill="none" stroke="white" stroke-width="1.5" d="M0,-3.0v7 M-2.5,-0.5L0,-3.0L2.5,-0.5"/>
  </g>
  <g id="arrowLeft" transform="rotate(270) translate(-36 17)">
    <use xlink:href="#rim"/>
    <path pointer-events="none" fill="none" stroke="white" stroke-width="1.5" d="M0,-3.0v7 M-2.5,-0.5L0,-3.0L2.5,-0.5"/>
  </g>
  <g id="resetDef">
    <use xlink:href="#rim2" fill="#404040"><set attributeName="fill" to="#808080" begin="reset.mouseover" end="reset.mouseout"/></use>
  </g>
</defs>
<script type="application/ecmascript">
var viewWidth = 1909;
var viewHeight = 208;
var sectionId = 'dynsection-0';
</script>
<script type="application/ecmascript" xlink:href="svg.min.js"/>
<svg id="graph" class="graph">
<g id="viewport">
<title>src/Utils/UtilsFactory.hpp</title>
<!-- Node1 -->
<g id="Node000001" class="node">
<title>Node1</title>
<g id="a_Node000001"><a xlink:title=" ">
<polygon fill="#999999" stroke="#666666" points="1144.38,-200 1017.38,-200 1017.38,-180 1144.38,-180 1144.38,-200"/>
<text xml:space="preserve" text-anchor="middle" x="1080.88" y="-186.5" font-family="Helvetica,sans-Serif" font-size="10.00">src/Utils/UtilsFactory.hpp</text>
</a>
</g>
</g>
<!-- Node2 -->
<g id="Node000002" class="node">
<title>Node2</title>
<g id="a_Node000002"><a xlink:title=" ">
<polygon fill="#e0e0e0" stroke="#999999" points="127.75,-138 0,-138 0,-118 127.75,-118 127.75,-138"/>
<text xml:space="preserve" text-anchor="middle" x="63.88" y="-124.5" font-family="Helvetica,sans-Serif" font-size="10.00">EmojiModuleLib/version.h</text>
</a>
</g>
</g>
<!-- Node1&#45;&gt;Node2 -->
<g id="edge1_Node000001_Node000002" class="edge">
<title>Node1&#45;&gt;Node2</title>
<g id="a_edge1_Node000001_Node000002"><a xlink:title=" ">
<path fill="none" stroke="#63b8ff" d="M1017.05,-189.36C864.34,-189.48 466.12,-185.42 136.88,-144 129.88,-143.12 122.56,-141.94 115.37,-140.62"/>
<polygon fill="#63b8ff" stroke="#63b8ff" points="116.2,-137.21 105.72,-138.74 114.87,-144.08 116.2,-137.21"/>
</a>
</g>
</g>
<!-- Node3 -->
<g id="Node000003" class="node">
<title>Node3</title>
<g id="a_Node000003"><a xlink:href="IAssetManager_8hpp.html" target="_top" xlink:title=" ">
<polygon fill="white" stroke="#666666" points="655.75,-138 498,-138 498,-118 655.75,-118 655.75,-138"/>
<text xml:space="preserve" text-anchor="middle" x="576.88" y="-124.5" font-family="Helvetica,sans-Serif" font-size="10.00">Utils/Assets/IAssetManager.hpp</text>
</a>
</g>
</g>
<!-- Node1&#45;&gt;Node3 -->
<g id="edge2_Node000001_Node000003" class="edge">
<title>Node1&#45;&gt;Node3</title>
<g id="a_edge2_Node000001_Node000003"><a xlink:title=" ">
<path fill="none" stroke="#63b8ff" d="M1016.94,-183.31C935.14,-175.74 789.17,-161.3 664.88,-144 656.96,-142.9 648.66,-141.63 640.46,-140.31"/>
<polygon fill="#63b8ff" stroke="#63b8ff" points="641.31,-136.9 630.87,-138.73 640.17,-143.81 641.31,-136.9"/>
</a>
</g>
</g>
<!-- Node4 -->
<g id="Node000004" class="node">
<title>Node4</title>
<g id="a_Node000004"><a xlink:title=" ">
<polygon fill="#e0e0e0" stroke="#999999" points="730.38,-76 669.38,-76 669.38,-56 730.38,-56 730.38,-76"/>
<text xml:space="preserve" text-anchor="middle" x="699.88" y="-62.5" font-family="Helvetica,sans-Serif" font-size="10.00">filesystem</text>
</a>
</g>
</g>
<!-- Node1&#45;&gt;Node4 -->
<g id="edge59_Node000001_Node000004" class="edge">
<title>Node1&#45;&gt;Node4</title>
<g id="a_edge59_Node000001_Node000004"><a xlink:title=" ">
<path fill="none" stroke="#63b8ff" d="M1016.88,-188.93C871.1,-188.1 524.19,-182.11 488.88,-144 479.21,-133.57 479.93,-123.06 488.88,-112 499.48,-98.9 599.49,-81.97 657.93,-73.08"/>
<polygon fill="#63b8ff" stroke="#63b8ff" points="658.16,-76.58 667.53,-71.64 657.12,-69.66 658.16,-76.58"/>
</a>
</g>
</g>
<!-- Node5 -->
<g id="Node000005" class="node">
<title>Node5</title>
<g id="a_Node000005"><a xlink:href="IDirectoryManager_8hpp.html" target="_top" xlink:title=" ">
<polygon fill="white" stroke="#666666" points="806.38,-144 673.38,-144 673.38,-112 806.38,-112 806.38,-144"/>
<text xml:space="preserve" text-anchor="start" x="681.38" y="-130.5" font-family="Helvetica,sans-Serif" font-size="10.00">Utils/Filesystem/IDirectory</text>
<text xml:space="preserve" text-anchor="middle" x="739.88" y="-118.5" font-family="Helvetica,sans-Serif" font-size="10.00">Manager.hpp</text>
</a>
</g>
</g>
<!-- Node1&#45;&gt;Node5 -->
<g id="edge4_Node000001_Node000005" class="edge">
<title>Node1&#45;&gt;Node5</title>
<g id="a_edge4_Node000001_Node000005"><a xlink:title=" ">
<path fill="none" stroke="#63b8ff" d="M1021.89,-179.54C970.45,-171.17 893.55,-158.38 817.69,-144.49"/>
<polygon fill="#63b8ff" stroke="#63b8ff" points="818.47,-141.08 808,-142.71 817.2,-147.96 818.47,-141.08"/>
</a>
</g>
</g>
<!-- Node13 -->
<g id="Node000013" class="node">
<title>Node13</title>
<g id="a_Node000013"><a xlink:href="IFileReader_8hpp.html" target="_top" xlink:title=" ">
<polygon fill="white" stroke="#666666" points="441.5,-138 282.25,-138 282.25,-118 441.5,-118 441.5,-138"/>
<text xml:space="preserve" text-anchor="middle" x="361.88" y="-124.5" font-family="Helvetica,sans-Serif" font-size="10.00">Utils/Filesystem/IFileReader.hpp</text>
</a>
</g>
</g>
<!-- Node1&#45;&gt;Node13 -->
<g id="edge13_Node000001_Node000013" class="edge">
<title>Node1&#45;&gt;Node13</title>
<g id="a_edge13_Node000001_Node000013"><a xlink:title=" ">
<path fill="none" stroke="#63b8ff" d="M1017.27,-186.24C904.09,-180.92 660.39,-167.64 455.88,-144 446.55,-142.92 436.74,-141.59 427.12,-140.16"/>
<polygon fill="#63b8ff" stroke="#63b8ff" points="427.86,-136.73 417.44,-138.68 426.8,-143.65 427.86,-136.73"/>
</a>
</g>
</g>
<!-- Node14 -->
<g id="Node000014" class="node">
<title>Node14</title>
<g id="a_Node000014"><a xlink:href="IFileWriter_8hpp.html" target="_top" xlink:title=" ">
<polygon fill="white" stroke="#666666" points="977.5,-138 824.25,-138 824.25,-118 977.5,-118 977.5,-138"/>
<text xml:space="preserve" text-anchor="middle" x="900.88" y="-124.5" font-family="Helvetica,sans-Serif" font-size="10.00">Utils/Filesystem/IFileWriter.hpp</text>
</a>
</g>
</g>
<!-- Node1&#45;&gt;Node14 -->
<g id="edge19_Node000001_Node000014" class="edge">
<title>Node1&#45;&gt;Node14</title>
<g id="a_edge19_Node000001_Node000014"><a xlink:title=" ">
<path fill="none" stroke="#63b8ff" d="M1052.75,-179.62C1022.33,-169.48 973.62,-153.25 939.59,-141.9"/>
<polygon fill="#63b8ff" stroke="#63b8ff" points="941.13,-138.73 930.53,-138.89 938.91,-145.37 941.13,-138.73"/>
</a>
</g>
</g>
<!-- Node15 -->
<g id="Node000015" class="node">
<title>Node15</title>
<g id="a_Node000015"><a xlink:href="IPathResolver_8hpp.html" target="_top" xlink:title=" ">
<polygon fill="white" stroke="#666666" points="1166.5,-138 995.25,-138 995.25,-118 1166.5,-118 1166.5,-138"/>
<text xml:space="preserve" text-anchor="middle" x="1080.88" y="-124.5" font-family="Helvetica,sans-Serif" font-size="10.00">Utils/Filesystem/IPathResolver.hpp</text>
</a>
</g>
</g>
<!-- Node1&#45;&gt;Node15 -->
<g id="edge25_Node000001_Node000015" class="edge">
<title>Node1&#45;&gt;Node15</title>
<g id="a_edge25_Node000001_Node000015"><a xlink:title=" ">
<path fill="none" stroke="#63b8ff" d="M1080.88,-179.62C1080.88,-171.56 1080.88,-159.65 1080.88,-149.41"/>
<polygon fill="#63b8ff" stroke="#63b8ff" points="1084.38,-149.63 1080.88,-139.63 1077.38,-149.63 1084.38,-149.63"/>
</a>
</g>
</g>
<!-- Node16 -->
<g id="Node000016" class="node">
<title>Node16</title>
<g id="a_Node000016"><a xlink:href="ICustomStringsLoader_8hpp.html" target="_top" xlink:title=" ">
<polygon fill="white" stroke="#666666" points="1480.62,-144 1349.12,-144 1349.12,-112 1480.62,-112 1480.62,-144"/>
<text xml:space="preserve" text-anchor="start" x="1357.12" y="-130.5" font-family="Helvetica,sans-Serif" font-size="10.00">Utils/Json/ICustomStrings</text>
<text xml:space="preserve" text-anchor="middle" x="1414.88" y="-118.5" font-family="Helvetica,sans-Serif" font-size="10.00">Loader.hpp</text>
</a>
</g>
</g>
<!-- Node1&#45;&gt;Node16 -->
<g id="edge30_Node000001_Node000016" class="edge">
<title>Node1&#45;&gt;Node16</title>
<g id="a_edge30_Node000001_Node000016"><a xlink:title=" ">
<path fill="none" stroke="#63b8ff" d="M1137.79,-179.54C1187.86,-171.12 1263,-158.25 1337.63,-144.39"/>
<polygon fill="#63b8ff" stroke="#63b8ff" points="1337.96,-147.89 1347.15,-142.62 1336.68,-141.01 1337.96,-147.89"/>
</a>
</g>
</g>
<!-- Node18 -->
<g id="Node000018" class="node">
<title>Node18</title>
<g id="a_Node000018"><a xlink:href="IJsonSerializer_8hpp.html" target="_top" xlink:title=" ">
<polygon fill="white" stroke="#666666" points="1331.12,-138 1184.62,-138 1184.62,-118 1331.12,-118 1331.12,-138"/>
<text xml:space="preserve" text-anchor="middle" x="1257.88" y="-124.5" font-family="Helvetica,sans-Serif" font-size="10.00">Utils/Json/IJsonSerializer.hpp</text>
</a>
</g>
</g>
<!-- Node1&#45;&gt;Node18 -->
<g id="edge35_Node000001_Node000018" class="edge">
<title>Node1&#45;&gt;Node18</title>
<g id="a_edge35_Node000001_Node000018"><a xlink:title=" ">
<path fill="none" stroke="#63b8ff" d="M1108.53,-179.62C1138.32,-169.53 1185.93,-153.39 1219.37,-142.05"/>
<polygon fill="#63b8ff" stroke="#63b8ff" points="1220.34,-145.42 1228.69,-138.89 1218.09,-138.79 1220.34,-145.42"/>
</a>
</g>
</g>
<!-- Node19 -->
<g id="Node000019" class="node">
<title>Node19</title>
<g id="a_Node000019"><a xlink:href="ILogger_8hpp.html" target="_top" xlink:title=" ">
<polygon fill="white" stroke="#666666" points="1737.12,-76 1614.62,-76 1614.62,-56 1737.12,-56 1737.12,-76"/>
<text xml:space="preserve" text-anchor="middle" x="1675.88" y="-62.5" font-family="Helvetica,sans-Serif" font-size="10.00">Utils/Logger/ILogger.hpp</text>
</a>
</g>
</g>
<!-- Node1&#45;&gt;Node19 -->
<g id="edge40_Node000001_Node000019" class="edge">
<title>Node1&#45;&gt;Node19</title>
<g id="a_edge40_Node000001_Node000019"><a xlink:title=" ">
<path fill="none" stroke="#63b8ff" d="M1144.77,-189.14C1294.99,-188.82 1660.78,-183.89 1697.88,-144 1712.75,-128 1701.07,-102.62 1689.84,-85.42"/>
<polygon fill="#63b8ff" stroke="#63b8ff" points="1692.96,-83.77 1684.34,-77.6 1687.23,-87.79 1692.96,-83.77"/>
</a>
</g>
</g>
<!-- Node21 -->
<g id="Node000021" class="node">
<title>Node21</title>
<g id="a_Node000021"><a xlink:title=" ">
<polygon fill="#e0e0e0" stroke="#999999" points="1790.5,-20 1739.25,-20 1739.25,0 1790.5,0 1790.5,-20"/>
<text xml:space="preserve" text-anchor="middle" x="1764.88" y="-6.5" font-family="Helvetica,sans-Serif" font-size="10.00">memory</text>
</a>
</g>
</g>
<!-- Node1&#45;&gt;Node21 -->
<g id="edge60_Node000001_Node000021" class="edge">
<title>Node1&#45;&gt;Node21</title>
<g id="a_edge60_Node000001_Node000021"><a xlink:title=" ">
<path fill="none" stroke="#63b8ff" d="M1144.72,-187.82C1331.33,-184.05 1864.38,-170.95 1889.88,-144 1930.65,-100.89 1844.89,-49.69 1795.89,-25.29"/>
<polygon fill="#63b8ff" stroke="#63b8ff" points="1797.65,-22.26 1787.13,-21.03 1794.59,-28.55 1797.65,-22.26"/>
</a>
</g>
</g>
<!-- Node23 -->
<g id="Node000023" class="node">
<title>Node23</title>
<g id="a_Node000023"><a xlink:href="LoggerFactory_8hpp.html" target="_top" xlink:title=" ">
<polygon fill="white" stroke="#666666" points="1688.75,-138 1537,-138 1537,-118 1688.75,-118 1688.75,-138"/>
<text xml:space="preserve" text-anchor="middle" x="1612.88" y="-124.5" font-family="Helvetica,sans-Serif" font-size="10.00">Utils/Logger/LoggerFactory.hpp</text>
</a>
</g>
</g>
<!-- Node1&#45;&gt;Node23 -->
<g id="edge46_Node000001_Node000023" class="edge">
<title>Node1&#45;&gt;Node23</title>
<g id="a_edge46_Node000001_Node000023"><a xlink:title=" ">
<path fill="none" stroke="#63b8ff" d="M1144.7,-183.79C1230.77,-176.46 1388.71,-161.99 1522.88,-144 1531.17,-142.89 1539.88,-141.6 1548.47,-140.24"/>
<polygon fill="#63b8ff" stroke="#63b8ff" points="1548.85,-143.73 1558.16,-138.69 1547.74,-136.82 1548.85,-143.73"/>
</a>
</g>
</g>
<!-- Node24 -->
<g id="Node000024" class="node">
<title>Node24</title>
<g id="a_Node000024"><a xlink:href="NullLogger_8hpp.html" target="_top" xlink:title=" ">
<polygon fill="white" stroke="#666666" points="1881.25,-138 1744.5,-138 1744.5,-118 1881.25,-118 1881.25,-138"/>
<text xml:space="preserve" text-anchor="middle" x="1812.88" y="-124.5" font-family="Helvetica,sans-Serif" font-size="10.00">Utils/Logger/NullLogger.hpp</text>
</a>
</g>
</g>
<!-- Node1&#45;&gt;Node24 -->
<g id="edge50_Node000001_Node000024" class="edge">
<title>Node1&#45;&gt;Node24</title>
<g id="a_edge50_Node000001_Node000024"><a xlink:title=" ">
<path fill="none" stroke="#63b8ff" d="M1144.77,-186.95C1261.53,-182.67 1517.07,-170.87 1730.88,-144 1738.68,-143.02 1746.87,-141.78 1754.93,-140.43"/>
<polygon fill="#63b8ff" stroke="#63b8ff" points="1755.44,-143.9 1764.69,-138.73 1754.24,-137 1755.44,-143.9"/>
</a>
</g>
</g>
<!-- Node25 -->
<g id="Node000025" class="node">
<title>Node25</title>
<g id="a_Node000025"><a xlink:href="IPlatformInfo_8hpp.html" target="_top" xlink:title=" ">
<polygon fill="white" stroke="#666666" points="264.25,-144 145.5,-144 145.5,-112 264.25,-112 264.25,-144"/>
<text xml:space="preserve" text-anchor="start" x="153.5" y="-130.5" font-family="Helvetica,sans-Serif" font-size="10.00">Utils/Platform/IPlatform</text>
<text xml:space="preserve" text-anchor="middle" x="204.88" y="-118.5" font-family="Helvetica,sans-Serif" font-size="10.00">Info.hpp</text>
</a>
</g>
</g>
<!-- Node1&#45;&gt;Node25 -->
<g id="edge52_Node000001_Node000025" class="edge">
<title>Node1&#45;&gt;Node25</title>
<g id="a_edge52_Node000001_Node000025"><a xlink:title=" ">
<path fill="none" stroke="#63b8ff" d="M1016.9,-188.94C881.65,-188.04 556.67,-181.91 275.72,-144.25"/>
<polygon fill="#63b8ff" stroke="#63b8ff" points="276.36,-140.8 265.98,-142.92 275.42,-147.74 276.36,-140.8"/>
</a>
</g>
</g>
<!-- Node26 -->
<g id="Node000026" class="node">
<title>Node26</title>
<g id="a_Node000026"><a xlink:href="IStringFormatter_8hpp.html" target="_top" xlink:title=" ">
<polygon fill="white" stroke="#666666" points="1558.38,-76 1401.38,-76 1401.38,-56 1558.38,-56 1558.38,-76"/>
<text xml:space="preserve" text-anchor="middle" x="1479.88" y="-62.5" font-family="Helvetica,sans-Serif" font-size="10.00">Utils/String/IStringFormatter.hpp</text>
</a>
</g>
</g>
<!-- Node1&#45;&gt;Node26 -->
<g id="edge57_Node000001_Node000026" class="edge">
<title>Node1&#45;&gt;Node26</title>
<g id="a_edge57_Node000001_Node000026"><a xlink:title=" ">
<path fill="none" stroke="#63b8ff" d="M1144.76,-186.57C1254.03,-181.75 1467.29,-169.2 1489.88,-144 1503.75,-128.52 1497.28,-103.74 1489.94,-86.49"/>
<polygon fill="#63b8ff" stroke="#63b8ff" points="1493.27,-85.34 1485.84,-77.79 1486.93,-88.33 1493.27,-85.34"/>
</a>
</g>
</g>
<!-- Node3&#45;&gt;Node4 -->
<g id="edge3_Node000003_Node000004" class="edge">
<title>Node3&#45;&gt;Node4</title>
<g id="a_edge3_Node000003_Node000004"><a xlink:title=" ">
<path fill="none" stroke="#63b8ff" d="M596.09,-117.62C616.04,-107.89 647.49,-92.55 670.55,-81.31"/>
<polygon fill="#63b8ff" stroke="#63b8ff" points="671.98,-84.5 679.43,-76.97 668.91,-78.21 671.98,-84.5"/>
</a>
</g>
</g>
<!-- Node5&#45;&gt;Node4 -->
<g id="edge11_Node000005_Node000004" class="edge">
<title>Node5&#45;&gt;Node4</title>
<g id="a_edge11_Node000005_Node000004"><a xlink:title=" ">
<path fill="none" stroke="#63b8ff" d="M729.57,-111.55C724.37,-103.74 718,-94.19 712.5,-85.94"/>
<polygon fill="#63b8ff" stroke="#63b8ff" points="715.45,-84.05 706.99,-77.67 709.62,-87.93 715.45,-84.05"/>
</a>
</g>
</g>
<!-- Node6 -->
<g id="Node000006" class="node">
<title>Node6</title>
<g id="a_Node000006"><a xlink:href="UtilsError_8hpp.html" target="_top" xlink:title=" ">
<polygon fill="white" stroke="#666666" points="1046.5,-76 947.25,-76 947.25,-56 1046.5,-56 1046.5,-76"/>
<text xml:space="preserve" text-anchor="middle" x="996.88" y="-62.5" font-family="Helvetica,sans-Serif" font-size="10.00">Utils/UtilsError.hpp</text>
</a>
</g>
</g>
<!-- Node5&#45;&gt;Node6 -->
<g id="edge5_Node000005_Node000006" class="edge">
<title>Node5&#45;&gt;Node6</title>
<g id="a_edge5_Node000005_Node000006"><a xlink:title=" ">
<path fill="none" stroke="#63b8ff" d="M806.06,-111.55C849.33,-101.45 905.05,-88.44 945.09,-79.09"/>
<polygon fill="#63b8ff" stroke="#63b8ff" points="945.78,-82.52 954.73,-76.84 944.19,-75.71 945.78,-82.52"/>
</a>
</g>
</g>
<!-- Node12 -->
<g id="Node000012" class="node">
<title>Node12</title>
<g id="a_Node000012"><a xlink:title=" ">
<polygon fill="#e0e0e0" stroke="#999999" points="800.38,-76 757.38,-76 757.38,-56 800.38,-56 800.38,-76"/>
<text xml:space="preserve" text-anchor="middle" x="778.88" y="-62.5" font-family="Helvetica,sans-Serif" font-size="10.00">vector</text>
</a>
</g>
</g>
<!-- Node5&#45;&gt;Node12 -->
<g id="edge12_Node000005_Node000012" class="edge">
<title>Node5&#45;&gt;Node12</title>
<g id="a_edge12_Node000005_Node000012"><a xlink:title=" ">
<path fill="none" stroke="#63b8ff" d="M749.92,-111.55C755,-103.74 761.2,-94.19 766.57,-85.94"/>
<polygon fill="#63b8ff" stroke="#63b8ff" points="769.42,-87.97 771.93,-77.68 763.55,-84.15 769.42,-87.97"/>
</a>
</g>
</g>
<!-- Node7 -->
<g id="Node000007" class="node">
<title>Node7</title>
<g id="a_Node000007"><a xlink:title=" ">
<polygon fill="#e0e0e0" stroke="#999999" points="923.5,-20 878.25,-20 878.25,0 923.5,0 923.5,-20"/>
<text xml:space="preserve" text-anchor="middle" x="900.88" y="-6.5" font-family="Helvetica,sans-Serif" font-size="10.00">cstdint</text>
</a>
</g>
</g>
<!-- Node6&#45;&gt;Node7 -->
<g id="edge6_Node000006_Node000007" class="edge">
<title>Node6&#45;&gt;Node7</title>
<g id="a_edge6_Node000006_Node000007"><a xlink:title=" ">
<path fill="none" stroke="#63b8ff" d="M980.15,-55.59C965.65,-47.44 944.4,-35.48 927.55,-26"/>
<polygon fill="#63b8ff" stroke="#63b8ff" points="929.48,-23.07 919.05,-21.22 926.05,-29.17 929.48,-23.07"/>
</a>
</g>
</g>
<!-- Node8 -->
<g id="Node000008" class="node">
<title>Node8</title>
<g id="a_Node000008"><a xlink:title=" ">
<polygon fill="#e0e0e0" stroke="#999999" points="1139.75,-20 1090,-20 1090,0 1139.75,0 1139.75,-20"/>
<text xml:space="preserve" text-anchor="middle" x="1114.88" y="-6.5" font-family="Helvetica,sans-Serif" font-size="10.00">optional</text>
</a>
</g>
</g>
<!-- Node6&#45;&gt;Node8 -->
<g id="edge7_Node000006_Node000008" class="edge">
<title>Node6&#45;&gt;Node8</title>
<g id="a_edge7_Node000006_Node000008"><a xlink:title=" ">
<path fill="none" stroke="#63b8ff" d="M1017.43,-55.59C1035.76,-47.21 1062.86,-34.8 1083.83,-25.21"/>
<polygon fill="#63b8ff" stroke="#63b8ff" points="1085.15,-28.45 1092.78,-21.11 1082.23,-22.09 1085.15,-28.45"/>
</a>
</g>
</g>
<!-- Node9 -->
<g id="Node000009" class="node">
<title>Node9</title>
<g id="a_Node000009"><a xlink:title=" ">
<polygon fill="#e0e0e0" stroke="#999999" points="1005.25,-20 946.5,-20 946.5,0 1005.25,0 1005.25,-20"/>
<text xml:space="preserve" text-anchor="middle" x="975.88" y="-6.5" font-family="Helvetica,sans-Serif" font-size="10.00">stdexcept</text>
</a>
</g>
</g>
<!-- Node6&#45;&gt;Node9 -->
<g id="edge8_Node000006_Node000009" class="edge">
<title>Node6&#45;&gt;Node9</title>
<g id="a_edge8_Node000006_Node000009"><a xlink:title=" ">
<path fill="none" stroke="#63b8ff" d="M993.22,-55.59C990.57,-48.78 986.89,-39.32 983.6,-30.86"/>
<polygon fill="#63b8ff" stroke="#63b8ff" points="986.93,-29.76 980.04,-21.71 980.4,-32.3 986.93,-29.76"/>
</a>
</g>
</g>
<!-- Node10 -->
<g id="Node000010" class="node">
<title>Node10</title>
<g id="a_Node000010"><a xlink:title=" ">
<polygon fill="#e0e0e0" stroke="#999999" points="1198.88,-20 1158.88,-20 1158.88,0 1198.88,0 1198.88,-20"/>
<text xml:space="preserve" text-anchor="middle" x="1178.88" y="-6.5" font-family="Helvetica,sans-Serif" font-size="10.00">string</text>
</a>
</g>
</g>
<!-- Node6&#45;&gt;Node10 -->
<g id="edge9_Node000006_Node000010" class="edge">
<title>Node6&#45;&gt;Node10</title>
<g id="a_edge9_Node000006_Node000010"><a xlink:title=" ">
<path fill="none" stroke="#63b8ff" d="M1028.91,-55.55C1057.46,-47.13 1100.65,-34.36 1147.53,-20.39"/>
<polygon fill="#63b8ff" stroke="#63b8ff" points="1148.51,-23.75 1157.09,-17.54 1146.51,-17.04 1148.51,-23.75"/>
</a>
</g>
</g>
<!-- Node11 -->
<g id="Node000011" class="node">
<title>Node11</title>
<g id="a_Node000011"><a xlink:title=" ">
<polygon fill="#e0e0e0" stroke="#999999" points="1068.5,-20 1023.25,-20 1023.25,0 1068.5,0 1068.5,-20"/>
<text xml:space="preserve" text-anchor="middle" x="1045.88" y="-6.5" font-family="Helvetica,sans-Serif" font-size="10.00">variant</text>
</a>
</g>
</g>
<!-- Node6&#45;&gt;Node11 -->
<g id="edge10_Node000006_Node000011" class="edge">
<title>Node6&#45;&gt;Node11</title>
<g id="a_edge10_Node000006_Node000011"><a xlink:title=" ">
<path fill="none" stroke="#63b8ff" d="M1005.41,-55.59C1012.16,-48.16 1021.76,-37.58 1029.92,-28.58"/>
<polygon fill="#63b8ff" stroke="#63b8ff" points="1032.29,-31.18 1036.42,-21.42 1027.11,-26.47 1032.29,-31.18"/>
</a>
</g>
</g>
<!-- Node13&#45;&gt;Node4 -->
<g id="edge16_Node000013_Node000004" class="edge">
<title>Node13&#45;&gt;Node4</title>
<g id="a_edge16_Node000013_Node000004"><a xlink:title=" ">
<path fill="none" stroke="#63b8ff" d="M415.06,-117.56C482.3,-105.62 596.67,-85.32 658.03,-74.43"/>
<polygon fill="#63b8ff" stroke="#63b8ff" points="658.48,-77.9 667.72,-72.71 657.26,-71.01 658.48,-77.9"/>
</a>
</g>
</g>
<!-- Node13&#45;&gt;Node6 -->
<g id="edge14_Node000013_Node000006" class="edge">
<title>Node13&#45;&gt;Node6</title>
<g id="a_edge14_Node000013_Node000006"><a xlink:title=" ">
<path fill="none" stroke="#63b8ff" d="M439.07,-117.52C455.5,-115.6 472.75,-113.67 488.88,-112 649.93,-95.36 840.12,-79.53 935.63,-71.84"/>
<polygon fill="#63b8ff" stroke="#63b8ff" points="935.88,-75.34 945.57,-71.05 935.32,-68.36 935.88,-75.34"/>
</a>
</g>
</g>
<!-- Node13&#45;&gt;Node7 -->
<g id="edge15_Node000013_Node000007" class="edge">
<title>Node13&#45;&gt;Node7</title>
<g id="a_edge15_Node000013_Node000007"><a xlink:title=" ">
<path fill="none" stroke="#63b8ff" d="M390.1,-117.61C435.67,-102.75 528.47,-73.68 608.88,-56 701.29,-35.68 812.13,-21.28 866.86,-14.82"/>
<polygon fill="#63b8ff" stroke="#63b8ff" points="866.94,-18.33 876.47,-13.7 866.13,-11.38 866.94,-18.33"/>
</a>
</g>
</g>
<!-- Node13&#45;&gt;Node10 -->
<g id="edge17_Node000013_Node000010" class="edge">
<title>Node13&#45;&gt;Node10</title>
<g id="a_edge17_Node000013_Node000010"><a xlink:title=" ">
<path fill="none" stroke="#63b8ff" d="M398.45,-117.51C466.28,-100.03 609.29,-63.84 659.88,-56 871.65,-23.19 932.56,-58.34 1147.66,-19.73"/>
<polygon fill="#63b8ff" stroke="#63b8ff" points="1147.99,-23.22 1157.2,-17.98 1146.73,-16.34 1147.99,-23.22"/>
</a>
</g>
</g>
<!-- Node13&#45;&gt;Node12 -->
<g id="edge18_Node000013_Node000012" class="edge">
<title>Node13&#45;&gt;Node12</title>
<g id="a_edge18_Node000013_Node000012"><a xlink:title=" ">
<path fill="none" stroke="#63b8ff" d="M438.35,-117.53C531.59,-105.84 683.69,-86.25 739.88,-76 741.89,-75.63 743.96,-75.23 746.04,-74.81"/>
<polygon fill="#63b8ff" stroke="#63b8ff" points="746.58,-78.27 755.61,-72.73 745.09,-71.43 746.58,-78.27"/>
</a>
</g>
</g>
<!-- Node14&#45;&gt;Node4 -->
<g id="edge22_Node000014_Node000004" class="edge">
<title>Node14&#45;&gt;Node4</title>
<g id="a_edge22_Node000014_Node000004"><a xlink:title=" ">
<path fill="none" stroke="#63b8ff" d="M869.47,-117.62C835,-107.34 779.51,-90.77 741.46,-79.41"/>
<polygon fill="#63b8ff" stroke="#63b8ff" points="742.76,-76.15 732.18,-76.64 740.76,-82.86 742.76,-76.15"/>
</a>
</g>
</g>
<!-- Node14&#45;&gt;Node6 -->
<g id="edge20_Node000014_Node000006" class="edge">
<title>Node14&#45;&gt;Node6</title>
<g id="a_edge20_Node000014_Node000006"><a xlink:title=" ">
<path fill="none" stroke="#63b8ff" d="M915.88,-117.62C930.95,-108.2 954.45,-93.52 972.26,-82.39"/>
<polygon fill="#63b8ff" stroke="#63b8ff" points="974.07,-85.38 980.7,-77.11 970.36,-79.44 974.07,-85.38"/>
</a>
</g>
</g>
<!-- Node14&#45;&gt;Node7 -->
<g id="edge21_Node000014_Node000007" class="edge">
<title>Node14&#45;&gt;Node7</title>
<g id="a_edge21_Node000014_Node000007"><a xlink:title=" ">
<path fill="none" stroke="#63b8ff" d="M900.88,-117.51C900.88,-98.81 900.88,-56.82 900.88,-31.51"/>
<polygon fill="#63b8ff" stroke="#63b8ff" points="904.38,-31.81 900.88,-21.81 897.38,-31.81 904.38,-31.81"/>
</a>
</g>
</g>
<!-- Node14&#45;&gt;Node10 -->
<g id="edge23_Node000014_Node000010" class="edge">
<title>Node14&#45;&gt;Node10</title>
<g id="a_edge23_Node000014_Node000010"><a xlink:title=" ">
<path fill="none" stroke="#63b8ff" d="M935.04,-117.56C966.86,-108.35 1015.34,-93.24 1055.88,-76 1090.73,-61.18 1129.03,-40.13 1153.48,-26.04"/>
<polygon fill="#63b8ff" stroke="#63b8ff" points="1155.18,-29.1 1162.06,-21.05 1151.66,-23.05 1155.18,-29.1"/>
</a>
</g>
</g>
<!-- Node14&#45;&gt;Node12 -->
<g id="edge24_Node000014_Node000012" class="edge">
<title>Node14&#45;&gt;Node12</title>
<g id="a_edge24_Node000014_Node000012"><a xlink:title=" ">
<path fill="none" stroke="#63b8ff" d="M881.81,-117.62C862.03,-107.89 830.83,-92.55 807.96,-81.31"/>
<polygon fill="#63b8ff" stroke="#63b8ff" points="809.68,-78.25 799.16,-76.98 806.59,-84.53 809.68,-78.25"/>
</a>
</g>
</g>
<!-- Node15&#45;&gt;Node4 -->
<g id="edge27_Node000015_Node000004" class="edge">
<title>Node15&#45;&gt;Node4</title>
<g id="a_edge27_Node000015_Node000004"><a xlink:title=" ">
<path fill="none" stroke="#63b8ff" d="M1021.97,-117.52C1010.34,-115.68 998.22,-113.76 986.88,-112 881.16,-95.57 854.39,-93.67 748.88,-76 746.58,-75.62 744.22,-75.21 741.84,-74.8"/>
<polygon fill="#63b8ff" stroke="#63b8ff" points="742.64,-71.39 732.18,-73.08 741.41,-78.28 742.64,-71.39"/>
</a>
</g>
</g>
<!-- Node15&#45;&gt;Node6 -->
<g id="edge26_Node000015_Node000006" class="edge">
<title>Node15&#45;&gt;Node6</title>
<g id="a_edge26_Node000015_Node000006"><a xlink:title=" ">
<path fill="none" stroke="#63b8ff" d="M1067.75,-117.62C1054.68,-108.29 1034.38,-93.79 1018.85,-82.7"/>
<polygon fill="#63b8ff" stroke="#63b8ff" points="1021.31,-80.15 1011.14,-77.19 1017.24,-85.85 1021.31,-80.15"/>
</a>
</g>
</g>
<!-- Node15&#45;&gt;Node10 -->
<g id="edge28_Node000015_Node000010" class="edge">
<title>Node15&#45;&gt;Node10</title>
<g id="a_edge28_Node000015_Node000010"><a xlink:title=" ">
<path fill="none" stroke="#63b8ff" d="M1088.89,-117.51C1105.27,-98.12 1142.78,-53.72 1163.83,-28.8"/>
<polygon fill="#63b8ff" stroke="#63b8ff" points="1166.26,-31.35 1170.04,-21.46 1160.91,-26.84 1166.26,-31.35"/>
</a>
</g>
</g>
<!-- Node15&#45;&gt;Node12 -->
<g id="edge29_Node000015_Node000012" class="edge">
<title>Node15&#45;&gt;Node12</title>
<g id="a_edge29_Node000015_Node000012"><a xlink:title=" ">
<path fill="none" stroke="#63b8ff" d="M1033.36,-117.56C971.58,-105.29 865.3,-84.17 811.74,-73.53"/>
<polygon fill="#63b8ff" stroke="#63b8ff" points="812.52,-70.12 802.03,-71.6 811.15,-76.98 812.52,-70.12"/>
</a>
</g>
</g>
<!-- Node16&#45;&gt;Node6 -->
<g id="edge31_Node000016_Node000006" class="edge">
<title>Node16&#45;&gt;Node6</title>
<g id="a_edge31_Node000016_Node000006"><a xlink:title=" ">
<path fill="none" stroke="#63b8ff" d="M1348.67,-113.51C1345.7,-112.98 1342.76,-112.48 1339.88,-112 1241.51,-95.73 1126.48,-81.64 1057.77,-73.74"/>
<polygon fill="#63b8ff" stroke="#63b8ff" points="1058.57,-70.31 1048.23,-72.65 1057.77,-77.26 1058.57,-70.31"/>
</a>
</g>
</g>
<!-- Node16&#45;&gt;Node8 -->
<g id="edge33_Node000016_Node000008" class="edge">
<title>Node16&#45;&gt;Node8</title>
<g id="a_edge33_Node000016_Node000008"><a xlink:title=" ">
<path fill="none" stroke="#63b8ff" d="M1395.68,-111.79C1371.93,-93.24 1332.6,-63.42 1315.88,-56 1249.98,-26.74 1225.54,-36.41 1150.95,-20.09"/>
<polygon fill="#63b8ff" stroke="#63b8ff" points="1152.09,-16.76 1141.56,-17.94 1150.53,-23.58 1152.09,-16.76"/>
</a>
</g>
</g>
<!-- Node16&#45;&gt;Node10 -->
<g id="edge34_Node000016_Node000010" class="edge">
<title>Node16&#45;&gt;Node10</title>
<g id="a_edge34_Node000016_Node000010"><a xlink:title=" ">
<path fill="none" stroke="#63b8ff" d="M1404.6,-111.58C1392.97,-95.34 1372.54,-70.2 1348.88,-56 1305.12,-29.76 1246.05,-18.6 1210.31,-14.02"/>
<polygon fill="#63b8ff" stroke="#63b8ff" points="1210.98,-10.57 1200.64,-12.88 1210.16,-17.52 1210.98,-10.57"/>
</a>
</g>
</g>
<!-- Node17 -->
<g id="Node000017" class="node">
<title>Node17</title>
<g id="a_Node000017"><a xlink:title=" ">
<polygon fill="#e0e0e0" stroke="#999999" points="1306.75,-76 1209,-76 1209,-56 1306.75,-56 1306.75,-76"/>
<text xml:space="preserve" text-anchor="middle" x="1257.88" y="-62.5" font-family="Helvetica,sans-Serif" font-size="10.00">nlohmann/json.hpp</text>
</a>
</g>
</g>
<!-- Node16&#45;&gt;Node17 -->
<g id="edge32_Node000016_Node000017" class="edge">
<title>Node16&#45;&gt;Node17</title>
<g id="a_edge32_Node000016_Node000017"><a xlink:title=" ">
<path fill="none" stroke="#63b8ff" d="M1374.44,-111.55C1349.23,-101.91 1317.11,-89.64 1292.97,-80.41"/>
<polygon fill="#63b8ff" stroke="#63b8ff" points="1294.5,-77.25 1283.91,-76.95 1292,-83.79 1294.5,-77.25"/>
</a>
</g>
</g>
<!-- Node18&#45;&gt;Node4 -->
<g id="edge37_Node000018_Node000004" class="edge">
<title>Node18&#45;&gt;Node4</title>
<g id="a_edge37_Node000018_Node000004"><a xlink:title=" ">
<path fill="none" stroke="#63b8ff" d="M1210.73,-117.57C1199.36,-115.52 1187.21,-113.51 1175.88,-112 987.09,-86.84 937.65,-101.23 748.88,-76 746.56,-75.69 744.2,-75.35 741.81,-74.98"/>
<polygon fill="#63b8ff" stroke="#63b8ff" points="742.58,-71.56 732.14,-73.37 741.43,-78.46 742.58,-71.56"/>
</a>
</g>
</g>
<!-- Node18&#45;&gt;Node6 -->
<g id="edge36_Node000018_Node000006" class="edge">
<title>Node18&#45;&gt;Node6</title>
<g id="a_edge36_Node000018_Node000006"><a xlink:title=" ">
<path fill="none" stroke="#63b8ff" d="M1216.81,-117.56C1171.52,-107.15 1098.56,-90.38 1049.21,-79.03"/>
<polygon fill="#63b8ff" stroke="#63b8ff" points="1050.14,-75.65 1039.61,-76.82 1048.57,-82.48 1050.14,-75.65"/>
</a>
</g>
</g>
<!-- Node18&#45;&gt;Node10 -->
<g id="edge39_Node000018_Node000010" class="edge">
<title>Node18&#45;&gt;Node10</title>
<g id="a_edge39_Node000018_Node000010"><a xlink:title=" ">
<path fill="none" stroke="#63b8ff" d="M1243.24,-117.56C1230.14,-108.4 1211.28,-93.37 1199.88,-76 1190.9,-62.34 1185.51,-44.55 1182.43,-31.03"/>
<polygon fill="#63b8ff" stroke="#63b8ff" points="1185.93,-30.67 1180.53,-21.55 1179.07,-32.04 1185.93,-30.67"/>
</a>
</g>
</g>
<!-- Node18&#45;&gt;Node17 -->
<g id="edge38_Node000018_Node000017" class="edge">
<title>Node18&#45;&gt;Node17</title>
<g id="a_edge38_Node000018_Node000017"><a xlink:title=" ">
<path fill="none" stroke="#63b8ff" d="M1257.88,-117.62C1257.88,-109.56 1257.88,-97.65 1257.88,-87.41"/>
<polygon fill="#63b8ff" stroke="#63b8ff" points="1261.38,-87.63 1257.88,-77.63 1254.38,-87.63 1261.38,-87.63"/>
</a>
</g>
</g>
<!-- Node19&#45;&gt;Node7 -->
<g id="edge42_Node000019_Node000007" class="edge">
<title>Node19&#45;&gt;Node7</title>
<g id="a_edge42_Node000019_Node000007"><a xlink:title=" ">
<path fill="none" stroke="#63b8ff" d="M1614.21,-59.58C1599.07,-58.33 1582.89,-57.05 1567.88,-56 1288.11,-36.35 1215.27,-61.31 937.88,-20 936.87,-19.85 935.86,-19.69 934.84,-19.51"/>
<polygon fill="#63b8ff" stroke="#63b8ff" points="935.82,-16.14 925.32,-17.57 934.42,-23 935.82,-16.14"/>
</a>
</g>
</g>
<!-- Node19&#45;&gt;Node10 -->
<g id="edge45_Node000019_Node000010" class="edge">
<title>Node19&#45;&gt;Node10</title>
<g id="a_edge45_Node000019_Node000010"><a xlink:title=" ">
<path fill="none" stroke="#63b8ff" d="M1614.49,-57.57C1609.88,-57.03 1605.31,-56.5 1600.88,-56 1454.85,-39.45 1280.19,-21.37 1210.17,-14.19"/>
<polygon fill="#63b8ff" stroke="#63b8ff" points="1210.9,-10.75 1200.6,-13.21 1210.19,-17.71 1210.9,-10.75"/>
</a>
</g>
</g>
<!-- Node20 -->
<g id="Node000020" class="node">
<title>Node20</title>
<g id="a_Node000020"><a xlink:title=" ">
<polygon fill="#e0e0e0" stroke="#999999" points="1642,-20 1581.75,-20 1581.75,0 1642,0 1642,-20"/>
<text xml:space="preserve" text-anchor="middle" x="1611.88" y="-6.5" font-family="Helvetica,sans-Serif" font-size="10.00">fmt/core.h</text>
</a>
</g>
</g>
<!-- Node19&#45;&gt;Node20 -->
<g id="edge41_Node000019_Node000020" class="edge">
<title>Node19&#45;&gt;Node20</title>
<g id="a_edge41_Node000019_Node000020"><a xlink:title=" ">
<path fill="none" stroke="#63b8ff" d="M1664.73,-55.59C1655.55,-47.85 1642.32,-36.69 1631.39,-27.47"/>
<polygon fill="#63b8ff" stroke="#63b8ff" points="1633.95,-25.05 1624.05,-21.27 1629.44,-30.4 1633.95,-25.05"/>
</a>
</g>
</g>
<!-- Node19&#45;&gt;Node21 -->
<g id="edge43_Node000019_Node000021" class="edge">
<title>Node19&#45;&gt;Node21</title>
<g id="a_edge43_Node000019_Node000021"><a xlink:title=" ">
<path fill="none" stroke="#63b8ff" d="M1691.38,-55.59C1704.7,-47.51 1724.15,-35.71 1739.7,-26.27"/>
<polygon fill="#63b8ff" stroke="#63b8ff" points="1741.22,-29.44 1747.96,-21.26 1737.59,-23.46 1741.22,-29.44"/>
</a>
</g>
</g>
<!-- Node22 -->
<g id="Node000022" class="node">
<title>Node22</title>
<g id="a_Node000022"><a xlink:title=" ">
<polygon fill="#e0e0e0" stroke="#999999" points="1711.5,-20 1660.25,-20 1660.25,0 1711.5,0 1711.5,-20"/>
<text xml:space="preserve" text-anchor="middle" x="1685.88" y="-6.5" font-family="Helvetica,sans-Serif" font-size="10.00">sstream</text>
</a>
</g>
</g>
<!-- Node19&#45;&gt;Node22 -->
<g id="edge44_Node000019_Node000022" class="edge">
<title>Node19&#45;&gt;Node22</title>
<g id="a_edge44_Node000019_Node000022"><a xlink:title=" ">
<path fill="none" stroke="#63b8ff" d="M1677.62,-55.59C1678.85,-48.93 1680.55,-39.75 1682.09,-31.44"/>
<polygon fill="#63b8ff" stroke="#63b8ff" points="1685.5,-32.26 1683.88,-21.79 1678.62,-30.98 1685.5,-32.26"/>
</a>
</g>
</g>
<!-- Node23&#45;&gt;Node10 -->
<g id="edge49_Node000023_Node000010" class="edge">
<title>Node23&#45;&gt;Node10</title>
<g id="a_edge49_Node000023_Node000010"><a xlink:title=" ">
<path fill="none" stroke="#63b8ff" d="M1609.96,-117.72C1604.49,-102.04 1591.11,-70.59 1567.88,-56 1508.53,-18.75 1292.53,-12.31 1210.64,-11.22"/>
<polygon fill="#63b8ff" stroke="#63b8ff" points="1210.9,-7.72 1200.86,-11.11 1210.82,-14.72 1210.9,-7.72"/>
</a>
</g>
</g>
<!-- Node23&#45;&gt;Node19 -->
<g id="edge47_Node000023_Node000019" class="edge">
<title>Node23&#45;&gt;Node19</title>
<g id="a_edge47_Node000023_Node000019"><a xlink:title=" ">
<path fill="none" stroke="#63b8ff" d="M1622.72,-117.62C1632.21,-108.59 1646.77,-94.72 1658.26,-83.78"/>
<polygon fill="#63b8ff" stroke="#63b8ff" points="1660.38,-86.59 1665.21,-77.16 1655.56,-81.52 1660.38,-86.59"/>
</a>
</g>
</g>
<!-- Node23&#45;&gt;Node21 -->
<g id="edge48_Node000023_Node000021" class="edge">
<title>Node23&#45;&gt;Node21</title>
<g id="a_edge48_Node000023_Node000021"><a xlink:title=" ">
<path fill="none" stroke="#63b8ff" d="M1668.91,-117.5C1695.54,-110.29 1725.85,-97.73 1745.88,-76 1757.09,-63.83 1761.72,-45.39 1763.61,-31.26"/>
<polygon fill="#63b8ff" stroke="#63b8ff" points="1767.05,-32 1764.52,-21.72 1760.08,-31.34 1767.05,-32"/>
</a>
</g>
</g>
<!-- Node24&#45;&gt;Node19 -->
<g id="edge51_Node000024_Node000019" class="edge">
<title>Node24&#45;&gt;Node19</title>
<g id="a_edge51_Node000024_Node000019"><a xlink:title=" ">
<path fill="none" stroke="#63b8ff" d="M1791.47,-117.62C1768.95,-107.76 1733.27,-92.13 1707.5,-80.85"/>
<polygon fill="#63b8ff" stroke="#63b8ff" points="1709.08,-77.72 1698.52,-76.92 1706.27,-84.13 1709.08,-77.72"/>
</a>
</g>
</g>
<!-- Node25&#45;&gt;Node4 -->
<g id="edge55_Node000025_Node000004" class="edge">
<title>Node25&#45;&gt;Node4</title>
<g id="a_edge55_Node000025_Node000004"><a xlink:title=" ">
<path fill="none" stroke="#63b8ff" d="M264.51,-113.45C267.33,-112.93 270.13,-112.45 272.88,-112 413.02,-89.23 581,-75.43 657.81,-69.86"/>
<polygon fill="#63b8ff" stroke="#63b8ff" points="657.67,-73.38 667.4,-69.18 657.17,-66.4 657.67,-73.38"/>
</a>
</g>
</g>
<!-- Node25&#45;&gt;Node6 -->
<g id="edge53_Node000025_Node000006" class="edge">
<title>Node25&#45;&gt;Node6</title>
<g id="a_edge53_Node000025_Node000006"><a xlink:title=" ">
<path fill="none" stroke="#63b8ff" d="M264.48,-113.3C267.31,-112.83 270.12,-112.39 272.88,-112 337.58,-102.91 773.13,-78.99 935.77,-70.25"/>
<polygon fill="#63b8ff" stroke="#63b8ff" points="935.7,-73.76 945.49,-69.73 935.32,-66.77 935.7,-73.76"/>
</a>
</g>
</g>
<!-- Node25&#45;&gt;Node7 -->
<g id="edge54_Node000025_Node000007" class="edge">
<title>Node25&#45;&gt;Node7</title>
<g id="a_edge54_Node000025_Node000007"><a xlink:title=" ">
<path fill="none" stroke="#63b8ff" d="M264.58,-113.82C267.38,-113.21 270.16,-112.6 272.88,-112 387.07,-86.96 414.61,-75.5 529.88,-56 653.03,-35.16 800.77,-20.22 866.47,-14.08"/>
<polygon fill="#63b8ff" stroke="#63b8ff" points="866.61,-17.59 876.25,-13.18 865.97,-10.62 866.61,-17.59"/>
</a>
</g>
</g>
<!-- Node25&#45;&gt;Node10 -->
<g id="edge56_Node000025_Node000010" class="edge">
<title>Node25&#45;&gt;Node10</title>
<g id="a_edge56_Node000025_Node000010"><a xlink:title=" ">
<path fill="none" stroke="#63b8ff" d="M264.54,-113.64C267.36,-113.08 270.14,-112.52 272.88,-112 370.18,-93.32 396.19,-97.65 492.88,-76 524.45,-68.93 530.98,-61.47 562.88,-56 816.41,-12.52 889.91,-64.29 1147.48,-19.72"/>
<polygon fill="#63b8ff" stroke="#63b8ff" points="1147.97,-23.19 1157.2,-18 1146.75,-16.3 1147.97,-23.19"/>
</a>
</g>
</g>
<!-- Node26&#45;&gt;Node10 -->
<g id="edge58_Node000026_Node000010" class="edge">
<title>Node26&#45;&gt;Node10</title>
<g id="a_edge58_Node000026_Node000010"><a xlink:title=" ">
<path fill="none" stroke="#63b8ff" d="M1427.1,-55.53C1364.38,-44.28 1261.75,-25.87 1210.33,-16.64"/>
<polygon fill="#63b8ff" stroke="#63b8ff" points="1211.23,-13.25 1200.77,-14.93 1210,-20.14 1211.23,-13.25"/>
</a>
</g>
</g>
</g>
</svg>

<g id="navigator" transform="translate(0 0)" fill="#404254">
  <rect fill="#f2f5e9" fill-opacity="0.5" stroke="#606060" stroke-width=".5" x="0" y="0" width="60" height="60"/>
  <use id="zoomplus" xlink:href="#zoomPlus" x="17" y="9" onmousedown="handleZoom(evt,'in')"/>
  <use id="zoomminus" xlink:href="#zoomMin" x="42" y="9" onmousedown="handleZoom(evt,'out')"/>
  <use id="reset" xlink:href="#resetDef" x="30" y="36" onmousedown="handleReset()"/>
   <use id="arrowup" xlink:href="#arrowUp" x="0" y="0" onmousedown="handlePan(0,-1)"/>
  <use id="arrowright" xlink:href="#arrowRight" x="0" y="0" onmousedown="handlePan(1,0)"/>
  <use id="arrowdown" xlink:href="#arrowDown" x="0" y="0" onmousedown="handlePan(0,1)"/>
  <use id="arrowleft" xlink:href="#arrowLeft" x="0" y="0" onmousedown="handlePan(-1,0)"/>
</g>
<svg viewBox="0 0 15 15" width="100%" height="30px" preserveAspectRatio="xMaxYMin meet">
 <g id="arrow_out" transform="scale(0.3 0.3)">
  <a xlink:href="UtilsFactory_8hpp__incl_org.svg" target="_base">
   <rect id="button" ry="5" rx="5" y="6" x="6" height="38" width="38"
        fill="#f2f5e9" fill-opacity="0.5" stroke="#606060" stroke-width="1.0"/>
   <path id="arrow"
     d="M 11.500037,31.436501 C 11.940474,20.09759 22.043105,11.32322 32.158766,21.979434 L 37.068811,17.246167 C 37.068811,17.246167 37.088388,32 37.088388,32 L 22.160133,31.978069 C 22.160133,31.978069 26.997745,27.140456 26.997745,27.140456 C 18.528582,18.264221 13.291696,25.230495 11.500037,31.436501 z"
     style="fill:#404040;"/>
  </a>
 </g>
</svg>

<style type='text/css'>
<![CDATA[
[data-mouse-over-selected='false'] { opacity: 0.7; }
[data-mouse-over-selected='true']  { opacity: 1.0; }
]]>
</style>
<script type="application/ecmascript"><![CDATA[
document.addEventListener('DOMContentLoaded', (event) => {
  highlightEdges();
  highlightAdjacentNodes();
});
]]></script>
</svg>
