<?xml version="1.0" encoding="UTF-8" standalone="no"?>
<!DOCTYPE svg PUBLIC "-//W3C//DTD SVG 1.1//EN"
 "http://www.w3.org/Graphics/SVG/1.1/DTD/svg11.dtd">
<!-- Generated by graphviz version 13.1.2 (20250808.2320)
 -->
<!-- Title: src/Utils/UtilsError.hpp Pages: 1 -->
<svg width="1906pt" height="356pt"
 viewBox="0.00 0.00 1906.00 356.00" xmlns="http://www.w3.org/2000/svg" xmlns:xlink="http://www.w3.org/1999/xlink">
<g id="graph0" class="graph" transform="scale(1 1) rotate(0) translate(4 352)">
<title>src/Utils/UtilsError.hpp</title>
<!-- Node1 -->
<g id="Node000001" class="node">
<title>Node1</title>
<g id="a_Node000001"><a xlink:title=" ">
<polygon fill="#999999" stroke="#666666" points="847.62,-348 731.88,-348 731.88,-328 847.62,-328 847.62,-348"/>
<text xml:space="preserve" text-anchor="middle" x="789.75" y="-334.5" font-family="Helvetica,sans-Serif" font-size="10.00">src/Utils/UtilsError.hpp</text>
</a>
</g>
</g>
<!-- Node2 -->
<g id="Node000002" class="node">
<title>Node2</title>
<g id="a_Node000002"><a xlink:href="IDirectoryManager_8hpp.html" target="_top" xlink:title=" ">
<polygon fill="white" stroke="#666666" points="568.75,-292 450.75,-292 450.75,-260 568.75,-260 568.75,-292"/>
<text xml:space="preserve" text-anchor="start" x="458.75" y="-278.5" font-family="Helvetica,sans-Serif" font-size="10.00">src/Utils/Filesystem</text>
<text xml:space="preserve" text-anchor="middle" x="509.75" y="-266.5" font-family="Helvetica,sans-Serif" font-size="10.00">/IDirectoryManager.hpp</text>
</a>
</g>
</g>
<!-- Node1&#45;&gt;Node2 -->
<g id="edge1_Node000001_Node000002" class="edge">
<title>Node1&#45;&gt;Node2</title>
<g id="a_edge1_Node000001_Node000002"><a xlink:title=" ">
<path fill="none" stroke="#63b8ff" d="M733.63,-325.21C690.88,-316.21 630.58,-303.43 577.75,-292 574.91,-291.39 572.01,-290.76 569.08,-290.12"/>
<polygon fill="#63b8ff" stroke="#63b8ff" points="732.66,-328.59 743.17,-327.22 734.1,-321.74 732.66,-328.59"/>
</a>
</g>
</g>
<!-- Node12 -->
<g id="Node000012" class="node">
<title>Node12</title>
<g id="a_Node000012"><a xlink:href="IFileReader_8hpp.html" target="_top" xlink:title=" ">
<polygon fill="white" stroke="#666666" points="432.62,-292 328.88,-292 328.88,-260 432.62,-260 432.62,-292"/>
<text xml:space="preserve" text-anchor="start" x="336.88" y="-278.5" font-family="Helvetica,sans-Serif" font-size="10.00">src/Utils/Filesystem</text>
<text xml:space="preserve" text-anchor="middle" x="380.75" y="-266.5" font-family="Helvetica,sans-Serif" font-size="10.00">/IFileReader.hpp</text>
</a>
</g>
</g>
<!-- Node1&#45;&gt;Node12 -->
<g id="edge14_Node000001_Node000012" class="edge">
<title>Node1&#45;&gt;Node12</title>
<g id="a_edge14_Node000001_Node000012"><a xlink:title=" ">
<path fill="none" stroke="#63b8ff" d="M720.18,-330.33C649.67,-323.03 537.61,-309.93 441.75,-292 438.86,-291.46 435.89,-290.86 432.91,-290.24"/>
<polygon fill="#63b8ff" stroke="#63b8ff" points="719.75,-333.81 730.05,-331.34 720.46,-326.84 719.75,-333.81"/>
</a>
</g>
</g>
<!-- Node18 -->
<g id="Node000018" class="node">
<title>Node18</title>
<g id="a_Node000018"><a xlink:href="IFileWriter_8hpp.html" target="_top" xlink:title=" ">
<polygon fill="white" stroke="#666666" points="690.62,-292 586.88,-292 586.88,-260 690.62,-260 690.62,-292"/>
<text xml:space="preserve" text-anchor="start" x="594.88" y="-278.5" font-family="Helvetica,sans-Serif" font-size="10.00">src/Utils/Filesystem</text>
<text xml:space="preserve" text-anchor="middle" x="638.75" y="-266.5" font-family="Helvetica,sans-Serif" font-size="10.00">/IFileWriter.hpp</text>
</a>
</g>
</g>
<!-- Node1&#45;&gt;Node18 -->
<g id="edge23_Node000001_Node000018" class="edge">
<title>Node1&#45;&gt;Node18</title>
<g id="a_edge23_Node000001_Node000018"><a xlink:title=" ">
<path fill="none" stroke="#63b8ff" d="M755.46,-323.38C732.34,-314.19 701.78,-302.05 677.73,-292.49"/>
<polygon fill="#63b8ff" stroke="#63b8ff" points="754.16,-326.63 764.75,-327.07 756.75,-320.12 754.16,-326.63"/>
</a>
</g>
</g>
<!-- Node21 -->
<g id="Node000021" class="node">
<title>Node21</title>
<g id="a_Node000021"><a xlink:href="IPathResolver_8hpp.html" target="_top" xlink:title=" ">
<polygon fill="white" stroke="#666666" points="992.62,-292 888.88,-292 888.88,-260 992.62,-260 992.62,-292"/>
<text xml:space="preserve" text-anchor="start" x="896.88" y="-278.5" font-family="Helvetica,sans-Serif" font-size="10.00">src/Utils/Filesystem</text>
<text xml:space="preserve" text-anchor="middle" x="940.75" y="-266.5" font-family="Helvetica,sans-Serif" font-size="10.00">/IPathResolver.hpp</text>
</a>
</g>
</g>
<!-- Node1&#45;&gt;Node21 -->
<g id="edge29_Node000001_Node000021" class="edge">
<title>Node1&#45;&gt;Node21</title>
<g id="a_edge29_Node000001_Node000021"><a xlink:title=" ">
<path fill="none" stroke="#63b8ff" d="M824.04,-323.38C847.16,-314.19 877.72,-302.05 901.77,-292.49"/>
<polygon fill="#63b8ff" stroke="#63b8ff" points="822.75,-320.12 814.75,-327.07 825.34,-326.63 822.75,-320.12"/>
</a>
</g>
</g>
<!-- Node24 -->
<g id="Node000024" class="node">
<title>Node24</title>
<g id="a_Node000024"><a xlink:href="ICustomStringsLoader_8hpp.html" target="_top" xlink:title=" ">
<polygon fill="white" stroke="#666666" points="1158.75,-292 1010.75,-292 1010.75,-260 1158.75,-260 1158.75,-292"/>
<text xml:space="preserve" text-anchor="start" x="1018.75" y="-278.5" font-family="Helvetica,sans-Serif" font-size="10.00">src/Utils/Json/ICustomStrings</text>
<text xml:space="preserve" text-anchor="middle" x="1084.75" y="-266.5" font-family="Helvetica,sans-Serif" font-size="10.00">Loader.hpp</text>
</a>
</g>
</g>
<!-- Node1&#45;&gt;Node24 -->
<g id="edge34_Node000001_Node000024" class="edge">
<title>Node1&#45;&gt;Node24</title>
<g id="a_edge34_Node000001_Node000024"><a xlink:title=" ">
<path fill="none" stroke="#63b8ff" d="M847.28,-325.3C893.89,-315.82 959.88,-302.4 1010.48,-292.11"/>
<polygon fill="#63b8ff" stroke="#63b8ff" points="846.75,-321.83 837.65,-327.26 848.15,-328.69 846.75,-321.83"/>
</a>
</g>
</g>
<!-- Node27 -->
<g id="Node000027" class="node">
<title>Node27</title>
<g id="a_Node000027"><a xlink:href="IJsonSerializer_8hpp.html" target="_top" xlink:title=" ">
<polygon fill="white" stroke="#666666" points="871.25,-286 708.25,-286 708.25,-266 871.25,-266 871.25,-286"/>
<text xml:space="preserve" text-anchor="middle" x="789.75" y="-272.5" font-family="Helvetica,sans-Serif" font-size="10.00">src/Utils/Json/IJsonSerializer.hpp</text>
</a>
</g>
</g>
<!-- Node1&#45;&gt;Node27 -->
<g id="edge39_Node000001_Node000027" class="edge">
<title>Node1&#45;&gt;Node27</title>
<g id="a_edge39_Node000001_Node000027"><a xlink:title=" ">
<path fill="none" stroke="#63b8ff" d="M789.75,-316.25C789.75,-305.97 789.75,-294.09 789.75,-286.11"/>
<polygon fill="#63b8ff" stroke="#63b8ff" points="786.25,-316.11 789.75,-326.11 793.25,-316.11 786.25,-316.11"/>
</a>
</g>
</g>
<!-- Node28 -->
<g id="Node000028" class="node">
<title>Node28</title>
<g id="a_Node000028"><a xlink:href="IPlatformInfo_8hpp.html" target="_top" xlink:title=" ">
<polygon fill="white" stroke="#666666" points="1317.75,-292 1223.75,-292 1223.75,-260 1317.75,-260 1317.75,-292"/>
<text xml:space="preserve" text-anchor="start" x="1231.75" y="-278.5" font-family="Helvetica,sans-Serif" font-size="10.00">src/Utils/Platform</text>
<text xml:space="preserve" text-anchor="middle" x="1270.75" y="-266.5" font-family="Helvetica,sans-Serif" font-size="10.00">/IPlatformInfo.hpp</text>
</a>
</g>
</g>
<!-- Node1&#45;&gt;Node28 -->
<g id="edge43_Node000001_Node000028" class="edge">
<title>Node1&#45;&gt;Node28</title>
<g id="a_edge43_Node000001_Node000028"><a xlink:title=" ">
<path fill="none" stroke="#63b8ff" d="M859.38,-329.26C935.27,-320.7 1060.25,-306.22 1167.75,-292 1185.93,-289.59 1205.89,-286.74 1223.35,-284.17"/>
<polygon fill="#63b8ff" stroke="#63b8ff" points="859.14,-325.77 849.59,-330.36 859.92,-332.72 859.14,-325.77"/>
</a>
</g>
</g>
<!-- Node3 -->
<g id="Node000003" class="node">
<title>Node3</title>
<g id="a_Node000003"><a xlink:href="DirectoryManager_8hpp.html" target="_top" xlink:title=" ">
<polygon fill="white" stroke="#666666" points="423.25,-224 308.25,-224 308.25,-192 423.25,-192 423.25,-224"/>
<text xml:space="preserve" text-anchor="start" x="316.25" y="-210.5" font-family="Helvetica,sans-Serif" font-size="10.00">src/Utils/Filesystem</text>
<text xml:space="preserve" text-anchor="middle" x="365.75" y="-198.5" font-family="Helvetica,sans-Serif" font-size="10.00">/DirectoryManager.hpp</text>
</a>
</g>
</g>
<!-- Node2&#45;&gt;Node3 -->
<g id="edge2_Node000002_Node000003" class="edge">
<title>Node2&#45;&gt;Node3</title>
<g id="a_edge2_Node000002_Node000003"><a xlink:title=" ">
<path fill="none" stroke="#63b8ff" d="M465.55,-254.74C444.21,-244.96 419.03,-233.42 399.3,-224.38"/>
<polygon fill="#63b8ff" stroke="#63b8ff" points="464.06,-257.91 474.61,-258.9 466.98,-251.55 464.06,-257.91"/>
</a>
</g>
</g>
<!-- Node6 -->
<g id="Node000006" class="node">
<title>Node6</title>
<g id="a_Node000006"><a xlink:href="UtilsFactory_8hpp.html" target="_top" xlink:title=" ">
<polygon fill="white" stroke="#666666" points="868.25,-218 741.25,-218 741.25,-198 868.25,-198 868.25,-218"/>
<text xml:space="preserve" text-anchor="middle" x="804.75" y="-204.5" font-family="Helvetica,sans-Serif" font-size="10.00">src/Utils/UtilsFactory.hpp</text>
</a>
</g>
</g>
<!-- Node2&#45;&gt;Node6 -->
<g id="edge5_Node000002_Node000006" class="edge">
<title>Node2&#45;&gt;Node6</title>
<g id="a_edge5_Node000002_Node000006"><a xlink:title=" ">
<path fill="none" stroke="#63b8ff" d="M580.16,-259.25C637.02,-246.53 715.12,-229.05 762.65,-218.42"/>
<polygon fill="#63b8ff" stroke="#63b8ff" points="579.56,-255.79 570.57,-261.39 581.09,-262.63 579.56,-255.79"/>
</a>
</g>
</g>
<!-- Node4 -->
<g id="Node000004" class="node">
<title>Node4</title>
<g id="a_Node000004"><a xlink:href="DirectoryManager_8cpp.html" target="_top" xlink:title=" ">
<polygon fill="white" stroke="#666666" points="392.25,-156 277.25,-156 277.25,-124 392.25,-124 392.25,-156"/>
<text xml:space="preserve" text-anchor="start" x="285.25" y="-142.5" font-family="Helvetica,sans-Serif" font-size="10.00">src/Utils/Filesystem</text>
<text xml:space="preserve" text-anchor="middle" x="334.75" y="-130.5" font-family="Helvetica,sans-Serif" font-size="10.00">/DirectoryManager.cpp</text>
</a>
</g>
</g>
<!-- Node3&#45;&gt;Node4 -->
<g id="edge3_Node000003_Node000004" class="edge">
<title>Node3&#45;&gt;Node4</title>
<g id="a_edge3_Node000003_Node000004"><a xlink:title=" ">
<path fill="none" stroke="#63b8ff" d="M353.75,-181.45C349.75,-172.93 345.42,-163.71 341.9,-156.22"/>
<polygon fill="#63b8ff" stroke="#63b8ff" points="350.5,-182.76 357.92,-190.32 356.83,-179.78 350.5,-182.76"/>
</a>
</g>
</g>
<!-- Node5 -->
<g id="Node000005" class="node">
<title>Node5</title>
<g id="a_Node000005"><a xlink:href="UtilsFactory_8cpp.html" target="_top" xlink:title=" ">
<polygon fill="white" stroke="#666666" points="875.25,-150 748.25,-150 748.25,-130 875.25,-130 875.25,-150"/>
<text xml:space="preserve" text-anchor="middle" x="811.75" y="-136.5" font-family="Helvetica,sans-Serif" font-size="10.00">src/Utils/UtilsFactory.cpp</text>
</a>
</g>
</g>
<!-- Node3&#45;&gt;Node5 -->
<g id="edge4_Node000003_Node000005" class="edge">
<title>Node3&#45;&gt;Node5</title>
<g id="a_edge4_Node000003_Node000005"><a xlink:title=" ">
<path fill="none" stroke="#63b8ff" d="M434.9,-191.52C552.4,-170.68 584.82,-171.59 700.75,-156 715.98,-153.95 732.37,-151.74 747.77,-149.66"/>
<polygon fill="#63b8ff" stroke="#63b8ff" points="434.35,-188.06 425.13,-193.27 435.59,-194.95 434.35,-188.06"/>
</a>
</g>
</g>
<!-- Node6&#45;&gt;Node5 -->
<g id="edge13_Node000006_Node000005" class="edge">
<title>Node6&#45;&gt;Node5</title>
<g id="a_edge13_Node000006_Node000005"><a xlink:title=" ">
<path fill="none" stroke="#63b8ff" d="M806.95,-186.28C808.22,-174.27 809.76,-159.74 810.75,-150.44"/>
<polygon fill="#63b8ff" stroke="#63b8ff" points="803.49,-185.73 805.91,-196.04 810.45,-186.46 803.49,-185.73"/>
</a>
</g>
</g>
<!-- Node7 -->
<g id="Node000007" class="node">
<title>Node7</title>
<g id="a_Node000007"><a xlink:href="Application_8cpp.html" target="_top" xlink:title=" ">
<polygon fill="white" stroke="#666666" points="870.12,-20 721.38,-20 721.38,0 870.12,0 870.12,-20"/>
<text xml:space="preserve" text-anchor="middle" x="795.75" y="-6.5" font-family="Helvetica,sans-Serif" font-size="10.00">application/src/Application.cpp</text>
</a>
</g>
</g>
<!-- Node6&#45;&gt;Node7 -->
<g id="edge6_Node000006_Node000007" class="edge">
<title>Node6&#45;&gt;Node7</title>
<g id="a_edge6_Node000006_Node000007"><a xlink:title=" ">
<path fill="none" stroke="#63b8ff" d="M774.88,-191.77C761.53,-183.23 747.15,-171.21 739.75,-156 715.67,-106.5 765.53,-43.81 786.78,-20.39"/>
<polygon fill="#63b8ff" stroke="#63b8ff" points="773.07,-194.77 783.46,-196.85 776.64,-188.74 773.07,-194.77"/>
</a>
</g>
</g>
<!-- Node8 -->
<g id="Node000008" class="node">
<title>Node8</title>
<g id="a_Node000008"><a xlink:href="EmojiModuleLib_8hpp.html" target="_top" xlink:title=" ">
<polygon fill="white" stroke="#666666" points="1044.12,-88 925.38,-88 925.38,-56 1044.12,-56 1044.12,-88"/>
<text xml:space="preserve" text-anchor="start" x="933.38" y="-74.5" font-family="Helvetica,sans-Serif" font-size="10.00">include/EmojiModuleLib</text>
<text xml:space="preserve" text-anchor="middle" x="984.75" y="-62.5" font-family="Helvetica,sans-Serif" font-size="10.00">/EmojiModuleLib.hpp</text>
</a>
</g>
</g>
<!-- Node6&#45;&gt;Node8 -->
<g id="edge7_Node000006_Node000008" class="edge">
<title>Node6&#45;&gt;Node8</title>
<g id="a_edge7_Node000006_Node000008"><a xlink:title=" ">
<path fill="none" stroke="#63b8ff" d="M858.71,-195.03C916.66,-181.91 1001.13,-161.94 1005.75,-156 1021.17,-136.17 1007.08,-106.35 995.72,-88.37"/>
<polygon fill="#63b8ff" stroke="#63b8ff" points="857.97,-191.6 848.98,-197.22 859.51,-198.43 857.97,-191.6"/>
</a>
</g>
</g>
<!-- Node10 -->
<g id="Node000010" class="node">
<title>Node10</title>
<g id="a_Node000010"><a xlink:href="Emoji_8hpp.html" target="_top" xlink:title=" ">
<polygon fill="white" stroke="#666666" points="996.62,-150 892.88,-150 892.88,-130 996.62,-130 996.62,-150"/>
<text xml:space="preserve" text-anchor="middle" x="944.75" y="-136.5" font-family="Helvetica,sans-Serif" font-size="10.00">src/Emoji/Emoji.hpp</text>
</a>
</g>
</g>
<!-- Node6&#45;&gt;Node10 -->
<g id="edge10_Node000006_Node000010" class="edge">
<title>Node6&#45;&gt;Node10</title>
<g id="a_edge10_Node000006_Node000010"><a xlink:title=" ">
<path fill="none" stroke="#63b8ff" d="M834.93,-192.77C862.09,-179.97 901.25,-161.51 924.73,-150.44"/>
<polygon fill="#63b8ff" stroke="#63b8ff" points="833.73,-189.47 826.18,-196.9 836.72,-195.8 833.73,-189.47"/>
</a>
</g>
</g>
<!-- Node8&#45;&gt;Node7 -->
<g id="edge8_Node000008_Node000007" class="edge">
<title>Node8&#45;&gt;Node7</title>
<g id="a_edge8_Node000008_Node000007"><a xlink:title=" ">
<path fill="none" stroke="#63b8ff" d="M925.14,-52.07C892.03,-41.57 852.29,-28.95 825.66,-20.5"/>
<polygon fill="#63b8ff" stroke="#63b8ff" points="924.04,-55.4 934.64,-55.09 926.16,-48.73 924.04,-55.4"/>
</a>
</g>
</g>
<!-- Node9 -->
<g id="Node000009" class="node">
<title>Node9</title>
<g id="a_Node000009"><a xlink:href="EmojiModuleLib_8cpp.html" target="_top" xlink:title=" ">
<polygon fill="white" stroke="#666666" points="1044.88,-20 924.62,-20 924.62,0 1044.88,0 1044.88,-20"/>
<text xml:space="preserve" text-anchor="middle" x="984.75" y="-6.5" font-family="Helvetica,sans-Serif" font-size="10.00">src/EmojiModuleLib.cpp</text>
</a>
</g>
</g>
<!-- Node8&#45;&gt;Node9 -->
<g id="edge9_Node000008_Node000009" class="edge">
<title>Node8&#45;&gt;Node9</title>
<g id="a_edge9_Node000008_Node000009"><a xlink:title=" ">
<path fill="none" stroke="#63b8ff" d="M984.75,-44.08C984.75,-35.6 984.75,-26.8 984.75,-20.41"/>
<polygon fill="#63b8ff" stroke="#63b8ff" points="981.25,-44.03 984.75,-54.03 988.25,-44.03 981.25,-44.03"/>
</a>
</g>
</g>
<!-- Node10&#45;&gt;Node8 -->
<g id="edge11_Node000010_Node000008" class="edge">
<title>Node10&#45;&gt;Node8</title>
<g id="a_edge11_Node000010_Node000008"><a xlink:title=" ">
<path fill="none" stroke="#63b8ff" d="M956.44,-119.71C962.5,-109.71 969.81,-97.66 975.48,-88.3"/>
<polygon fill="#63b8ff" stroke="#63b8ff" points="953.46,-117.88 951.27,-128.25 959.44,-121.51 953.46,-117.88"/>
</a>
</g>
</g>
<!-- Node11 -->
<g id="Node000011" class="node">
<title>Node11</title>
<g id="a_Node000011"><a xlink:href="Emoji_8cpp.html" target="_top" xlink:title=" ">
<polygon fill="white" stroke="#666666" points="907.62,-82 803.88,-82 803.88,-62 907.62,-62 907.62,-82"/>
<text xml:space="preserve" text-anchor="middle" x="855.75" y="-68.5" font-family="Helvetica,sans-Serif" font-size="10.00">src/Emoji/Emoji.cpp</text>
</a>
</g>
</g>
<!-- Node10&#45;&gt;Node11 -->
<g id="edge12_Node000010_Node000011" class="edge">
<title>Node10&#45;&gt;Node11</title>
<g id="a_edge12_Node000010_Node000011"><a xlink:title=" ">
<path fill="none" stroke="#63b8ff" d="M922.75,-122.69C905.68,-110.03 882.61,-92.92 868.48,-82.44"/>
<polygon fill="#63b8ff" stroke="#63b8ff" points="920.67,-125.5 930.78,-128.64 924.84,-119.87 920.67,-125.5"/>
</a>
</g>
</g>
<!-- Node12&#45;&gt;Node6 -->
<g id="edge22_Node000012_Node000006" class="edge">
<title>Node12&#45;&gt;Node6</title>
<g id="a_edge22_Node000012_Node000006"><a xlink:title=" ">
<path fill="none" stroke="#63b8ff" d="M443.88,-259.75C571.41,-236.9 607.1,-244.51 731.75,-224 741.45,-222.4 751.83,-220.43 761.62,-218.45"/>
<polygon fill="#63b8ff" stroke="#63b8ff" points="443.61,-256.24 434.4,-261.48 444.86,-263.13 443.61,-256.24"/>
</a>
</g>
</g>
<!-- Node13 -->
<g id="Node000013" class="node">
<title>Node13</title>
<g id="a_Node000013"><a xlink:href="FileReader_8hpp.html" target="_top" xlink:title=" ">
<polygon fill="white" stroke="#666666" points="278.62,-224 174.88,-224 174.88,-192 278.62,-192 278.62,-224"/>
<text xml:space="preserve" text-anchor="start" x="182.88" y="-210.5" font-family="Helvetica,sans-Serif" font-size="10.00">src/Utils/Filesystem</text>
<text xml:space="preserve" text-anchor="middle" x="226.75" y="-198.5" font-family="Helvetica,sans-Serif" font-size="10.00">/FileReader.hpp</text>
</a>
</g>
</g>
<!-- Node12&#45;&gt;Node13 -->
<g id="edge15_Node000012_Node000013" class="edge">
<title>Node12&#45;&gt;Node13</title>
<g id="a_edge15_Node000012_Node000013"><a xlink:title=" ">
<path fill="none" stroke="#63b8ff" d="M334.14,-255.03C311.28,-245.23 284.16,-233.61 262.9,-224.49"/>
<polygon fill="#63b8ff" stroke="#63b8ff" points="332.68,-258.21 343.25,-258.93 335.44,-251.77 332.68,-258.21"/>
</a>
</g>
</g>
<!-- Node16 -->
<g id="Node000016" class="node">
<title>Node16</title>
<g id="a_Node000016"><a xlink:href="JsonSerializer_8hpp.html" target="_top" xlink:title=" ">
<polygon fill="white" stroke="#666666" points="722.75,-218 562.75,-218 562.75,-198 722.75,-198 722.75,-218"/>
<text xml:space="preserve" text-anchor="middle" x="642.75" y="-204.5" font-family="Helvetica,sans-Serif" font-size="10.00">src/Utils/Json/JsonSerializer.hpp</text>
</a>
</g>
</g>
<!-- Node12&#45;&gt;Node16 -->
<g id="edge19_Node000012_Node000016" class="edge">
<title>Node12&#45;&gt;Node16</title>
<g id="a_edge19_Node000012_Node000016"><a xlink:title=" ">
<path fill="none" stroke="#63b8ff" d="M443.92,-259.09C494.28,-246.4 563.12,-229.06 605.17,-218.47"/>
<polygon fill="#63b8ff" stroke="#63b8ff" points="443.14,-255.68 434.29,-261.51 444.85,-262.46 443.14,-255.68"/>
</a>
</g>
</g>
<!-- Node13&#45;&gt;Node5 -->
<g id="edge18_Node000013_Node000005" class="edge">
<title>Node13&#45;&gt;Node5</title>
<g id="a_edge18_Node000013_Node000005"><a xlink:title=" ">
<path fill="none" stroke="#63b8ff" d="M290.04,-193.54C293.32,-192.99 296.57,-192.47 299.75,-192 476.78,-165.95 522.93,-175.99 700.75,-156 716.02,-154.28 732.43,-152.2 747.83,-150.14"/>
<polygon fill="#63b8ff" stroke="#63b8ff" points="289.58,-190.07 280.35,-195.28 290.81,-196.96 289.58,-190.07"/>
</a>
</g>
</g>
<!-- Node14 -->
<g id="Node000014" class="node">
<title>Node14</title>
<g id="a_Node000014"><a xlink:href="FileReaderTest_8cpp.html" target="_top" xlink:title=" ">
<polygon fill="white" stroke="#666666" points="137.5,-156 0,-156 0,-124 137.5,-124 137.5,-156"/>
<text xml:space="preserve" text-anchor="start" x="8" y="-142.5" font-family="Helvetica,sans-Serif" font-size="10.00">application/tests/FileReader</text>
<text xml:space="preserve" text-anchor="middle" x="68.75" y="-130.5" font-family="Helvetica,sans-Serif" font-size="10.00">Test.cpp</text>
</a>
</g>
</g>
<!-- Node13&#45;&gt;Node14 -->
<g id="edge16_Node000013_Node000014" class="edge">
<title>Node13&#45;&gt;Node14</title>
<g id="a_edge16_Node000013_Node000014"><a xlink:title=" ">
<path fill="none" stroke="#63b8ff" d="M179.25,-187.16C155.73,-177.33 127.75,-165.65 105.84,-156.49"/>
<polygon fill="#63b8ff" stroke="#63b8ff" points="177.73,-190.32 188.31,-190.94 180.43,-183.86 177.73,-190.32"/>
</a>
</g>
</g>
<!-- Node15 -->
<g id="Node000015" class="node">
<title>Node15</title>
<g id="a_Node000015"><a xlink:href="FileReader_8cpp.html" target="_top" xlink:title=" ">
<polygon fill="white" stroke="#666666" points="259.62,-156 155.88,-156 155.88,-124 259.62,-124 259.62,-156"/>
<text xml:space="preserve" text-anchor="start" x="163.88" y="-142.5" font-family="Helvetica,sans-Serif" font-size="10.00">src/Utils/Filesystem</text>
<text xml:space="preserve" text-anchor="middle" x="207.75" y="-130.5" font-family="Helvetica,sans-Serif" font-size="10.00">/FileReader.cpp</text>
</a>
</g>
</g>
<!-- Node13&#45;&gt;Node15 -->
<g id="edge17_Node000013_Node000015" class="edge">
<title>Node13&#45;&gt;Node15</title>
<g id="a_edge17_Node000013_Node000015"><a xlink:title=" ">
<path fill="none" stroke="#63b8ff" d="M219.23,-180.89C216.82,-172.52 214.24,-163.54 212.13,-156.22"/>
<polygon fill="#63b8ff" stroke="#63b8ff" points="215.79,-181.6 221.92,-190.24 222.52,-179.66 215.79,-181.6"/>
</a>
</g>
</g>
<!-- Node16&#45;&gt;Node5 -->
<g id="edge21_Node000016_Node000005" class="edge">
<title>Node16&#45;&gt;Node5</title>
<g id="a_edge21_Node000016_Node000005"><a xlink:title=" ">
<path fill="none" stroke="#63b8ff" d="M677.45,-193.45C710.29,-180.62 758.74,-161.7 787.58,-150.44"/>
<polygon fill="#63b8ff" stroke="#63b8ff" points="676.42,-190.1 668.37,-196.99 678.96,-196.62 676.42,-190.1"/>
</a>
</g>
</g>
<!-- Node17 -->
<g id="Node000017" class="node">
<title>Node17</title>
<g id="a_Node000017"><a xlink:href="JsonSerializer_8cpp.html" target="_top" xlink:title=" ">
<polygon fill="white" stroke="#666666" points="691.75,-150 531.75,-150 531.75,-130 691.75,-130 691.75,-150"/>
<text xml:space="preserve" text-anchor="middle" x="611.75" y="-136.5" font-family="Helvetica,sans-Serif" font-size="10.00">src/Utils/Json/JsonSerializer.cpp</text>
</a>
</g>
</g>
<!-- Node16&#45;&gt;Node17 -->
<g id="edge20_Node000016_Node000017" class="edge">
<title>Node16&#45;&gt;Node17</title>
<g id="a_edge20_Node000016_Node000017"><a xlink:title=" ">
<path fill="none" stroke="#63b8ff" d="M633.55,-187.4C627.81,-175.2 620.69,-160.04 616.18,-150.44"/>
<polygon fill="#63b8ff" stroke="#63b8ff" points="630.25,-188.61 637.66,-196.17 636.58,-185.63 630.25,-188.61"/>
</a>
</g>
</g>
<!-- Node18&#45;&gt;Node6 -->
<g id="edge28_Node000018_Node000006" class="edge">
<title>Node18&#45;&gt;Node6</title>
<g id="a_edge28_Node000018_Node000006"><a xlink:title=" ">
<path fill="none" stroke="#63b8ff" d="M688.17,-255.35C718.83,-243.16 756.85,-228.05 780.96,-218.46"/>
<polygon fill="#63b8ff" stroke="#63b8ff" points="687.08,-252.02 679.08,-258.97 689.66,-258.52 687.08,-252.02"/>
</a>
</g>
</g>
<!-- Node18&#45;&gt;Node16 -->
<g id="edge27_Node000018_Node000016" class="edge">
<title>Node18&#45;&gt;Node16</title>
<g id="a_edge27_Node000018_Node000016"><a xlink:title=" ">
<path fill="none" stroke="#63b8ff" d="M640.37,-248.31C641.01,-237.67 641.71,-226.13 642.19,-218.32"/>
<polygon fill="#63b8ff" stroke="#63b8ff" points="636.88,-247.99 639.77,-258.18 643.87,-248.41 636.88,-247.99"/>
</a>
</g>
</g>
<!-- Node19 -->
<g id="Node000019" class="node">
<title>Node19</title>
<g id="a_Node000019"><a xlink:href="FileWriter_8hpp.html" target="_top" xlink:title=" ">
<polygon fill="white" stroke="#666666" points="544.62,-224 440.88,-224 440.88,-192 544.62,-192 544.62,-224"/>
<text xml:space="preserve" text-anchor="start" x="448.88" y="-210.5" font-family="Helvetica,sans-Serif" font-size="10.00">src/Utils/Filesystem</text>
<text xml:space="preserve" text-anchor="middle" x="492.75" y="-198.5" font-family="Helvetica,sans-Serif" font-size="10.00">/FileWriter.hpp</text>
</a>
</g>
</g>
<!-- Node18&#45;&gt;Node19 -->
<g id="edge24_Node000018_Node000019" class="edge">
<title>Node18&#45;&gt;Node19</title>
<g id="a_edge24_Node000018_Node000019"><a xlink:title=" ">
<path fill="none" stroke="#63b8ff" d="M594.27,-254.89C572.66,-245.12 547.09,-233.56 527.02,-224.49"/>
<polygon fill="#63b8ff" stroke="#63b8ff" points="592.59,-257.97 603.14,-258.9 595.47,-251.59 592.59,-257.97"/>
</a>
</g>
</g>
<!-- Node19&#45;&gt;Node5 -->
<g id="edge26_Node000019_Node000005" class="edge">
<title>Node19&#45;&gt;Node5</title>
<g id="a_edge26_Node000019_Node000005"><a xlink:title=" ">
<path fill="none" stroke="#63b8ff" d="M555.77,-191.61C632.46,-174.77 710.37,-159.78 760.21,-150.47"/>
<polygon fill="#63b8ff" stroke="#63b8ff" points="555.44,-188.09 546.43,-193.67 556.95,-194.93 555.44,-188.09"/>
</a>
</g>
</g>
<!-- Node20 -->
<g id="Node000020" class="node">
<title>Node20</title>
<g id="a_Node000020"><a xlink:href="FileWriter_8cpp.html" target="_top" xlink:title=" ">
<polygon fill="white" stroke="#666666" points="513.62,-156 409.88,-156 409.88,-124 513.62,-124 513.62,-156"/>
<text xml:space="preserve" text-anchor="start" x="417.88" y="-142.5" font-family="Helvetica,sans-Serif" font-size="10.00">src/Utils/Filesystem</text>
<text xml:space="preserve" text-anchor="middle" x="461.75" y="-130.5" font-family="Helvetica,sans-Serif" font-size="10.00">/FileWriter.cpp</text>
</a>
</g>
</g>
<!-- Node19&#45;&gt;Node20 -->
<g id="edge25_Node000019_Node000020" class="edge">
<title>Node19&#45;&gt;Node20</title>
<g id="a_edge25_Node000019_Node000020"><a xlink:title=" ">
<path fill="none" stroke="#63b8ff" d="M480.75,-181.45C476.75,-172.93 472.42,-163.71 468.9,-156.22"/>
<polygon fill="#63b8ff" stroke="#63b8ff" points="477.5,-182.76 484.92,-190.32 483.83,-179.78 477.5,-182.76"/>
</a>
</g>
</g>
<!-- Node21&#45;&gt;Node6 -->
<g id="edge33_Node000021_Node000006" class="edge">
<title>Node21&#45;&gt;Node6</title>
<g id="a_edge33_Node000021_Node000006"><a xlink:title=" ">
<path fill="none" stroke="#63b8ff" d="M898.6,-254.55C873.78,-242.5 843.56,-227.84 824.24,-218.46"/>
<polygon fill="#63b8ff" stroke="#63b8ff" points="896.98,-257.65 907.5,-258.87 900.03,-251.35 896.98,-257.65"/>
</a>
</g>
</g>
<!-- Node22 -->
<g id="Node000022" class="node">
<title>Node22</title>
<g id="a_Node000022"><a xlink:href="PathResolver_8hpp.html" target="_top" xlink:title=" ">
<polygon fill="white" stroke="#666666" points="989.62,-224 885.88,-224 885.88,-192 989.62,-192 989.62,-224"/>
<text xml:space="preserve" text-anchor="start" x="893.88" y="-210.5" font-family="Helvetica,sans-Serif" font-size="10.00">src/Utils/Filesystem</text>
<text xml:space="preserve" text-anchor="middle" x="937.75" y="-198.5" font-family="Helvetica,sans-Serif" font-size="10.00">/PathResolver.hpp</text>
</a>
</g>
</g>
<!-- Node21&#45;&gt;Node22 -->
<g id="edge30_Node000021_Node000022" class="edge">
<title>Node21&#45;&gt;Node22</title>
<g id="a_edge30_Node000021_Node000022"><a xlink:title=" ">
<path fill="none" stroke="#63b8ff" d="M939.54,-248.31C939.16,-240.12 938.77,-231.38 938.44,-224.22"/>
<polygon fill="#63b8ff" stroke="#63b8ff" points="936.03,-248.35 939.99,-258.18 943.03,-248.03 936.03,-248.35"/>
</a>
</g>
</g>
<!-- Node22&#45;&gt;Node5 -->
<g id="edge32_Node000022_Node000005" class="edge">
<title>Node22&#45;&gt;Node5</title>
<g id="a_edge32_Node000022_Node000005"><a xlink:title=" ">
<path fill="none" stroke="#63b8ff" d="M898.09,-186.22C875.21,-174.24 847.55,-159.75 829.81,-150.46"/>
<polygon fill="#63b8ff" stroke="#63b8ff" points="896.39,-189.28 906.87,-190.82 899.63,-183.08 896.39,-189.28"/>
</a>
</g>
</g>
<!-- Node23 -->
<g id="Node000023" class="node">
<title>Node23</title>
<g id="a_Node000023"><a xlink:href="PathResolver_8cpp.html" target="_top" xlink:title=" ">
<polygon fill="white" stroke="#666666" points="1156.62,-156 1052.88,-156 1052.88,-124 1156.62,-124 1156.62,-156"/>
<text xml:space="preserve" text-anchor="start" x="1060.88" y="-142.5" font-family="Helvetica,sans-Serif" font-size="10.00">src/Utils/Filesystem</text>
<text xml:space="preserve" text-anchor="middle" x="1104.75" y="-130.5" font-family="Helvetica,sans-Serif" font-size="10.00">/PathResolver.cpp</text>
</a>
</g>
</g>
<!-- Node22&#45;&gt;Node23 -->
<g id="edge31_Node000022_Node000023" class="edge">
<title>Node22&#45;&gt;Node23</title>
<g id="a_edge31_Node000022_Node000023"><a xlink:title=" ">
<path fill="none" stroke="#63b8ff" d="M987.28,-187.42C1012.28,-177.54 1042.18,-165.73 1065.55,-156.49"/>
<polygon fill="#63b8ff" stroke="#63b8ff" points="986.33,-184.04 978.31,-190.97 988.9,-190.55 986.33,-184.04"/>
</a>
</g>
</g>
<!-- Node24&#45;&gt;Node6 -->
<g id="edge38_Node000024_Node000006" class="edge">
<title>Node24&#45;&gt;Node6</title>
<g id="a_edge38_Node000024_Node000006"><a xlink:title=" ">
<path fill="none" stroke="#63b8ff" d="M1008.09,-256.93C955.31,-244.49 887.33,-228.46 844.88,-218.46"/>
<polygon fill="#63b8ff" stroke="#63b8ff" points="1007.09,-260.29 1017.63,-259.18 1008.7,-253.48 1007.09,-260.29"/>
</a>
</g>
</g>
<!-- Node25 -->
<g id="Node000025" class="node">
<title>Node25</title>
<g id="a_Node000025"><a xlink:href="CustomStringsLoader_8hpp.html" target="_top" xlink:title=" ">
<polygon fill="white" stroke="#666666" points="1152.25,-224 1007.25,-224 1007.25,-192 1152.25,-192 1152.25,-224"/>
<text xml:space="preserve" text-anchor="start" x="1015.25" y="-210.5" font-family="Helvetica,sans-Serif" font-size="10.00">src/Utils/Json/CustomStrings</text>
<text xml:space="preserve" text-anchor="middle" x="1079.75" y="-198.5" font-family="Helvetica,sans-Serif" font-size="10.00">Loader.hpp</text>
</a>
</g>
</g>
<!-- Node24&#45;&gt;Node25 -->
<g id="edge35_Node000024_Node000025" class="edge">
<title>Node24&#45;&gt;Node25</title>
<g id="a_edge35_Node000024_Node000025"><a xlink:title=" ">
<path fill="none" stroke="#63b8ff" d="M1082.73,-248.31C1082.11,-240.12 1081.45,-231.38 1080.9,-224.22"/>
<polygon fill="#63b8ff" stroke="#63b8ff" points="1079.23,-248.48 1083.48,-258.18 1086.21,-247.95 1079.23,-248.48"/>
</a>
</g>
</g>
<!-- Node25&#45;&gt;Node5 -->
<g id="edge37_Node000025_Node000005" class="edge">
<title>Node25&#45;&gt;Node5</title>
<g id="a_edge37_Node000025_Node000005"><a xlink:title=" ">
<path fill="none" stroke="#63b8ff" d="M1005.74,-188.77C955.32,-176.36 890.62,-160.42 850.16,-150.46"/>
<polygon fill="#63b8ff" stroke="#63b8ff" points="1004.9,-192.17 1015.45,-191.16 1006.57,-185.37 1004.9,-192.17"/>
</a>
</g>
</g>
<!-- Node26 -->
<g id="Node000026" class="node">
<title>Node26</title>
<g id="a_Node000026"><a xlink:href="CustomStringsLoader_8cpp.html" target="_top" xlink:title=" ">
<polygon fill="white" stroke="#666666" points="1319.25,-156 1174.25,-156 1174.25,-124 1319.25,-124 1319.25,-156"/>
<text xml:space="preserve" text-anchor="start" x="1182.25" y="-142.5" font-family="Helvetica,sans-Serif" font-size="10.00">src/Utils/Json/CustomStrings</text>
<text xml:space="preserve" text-anchor="middle" x="1246.75" y="-130.5" font-family="Helvetica,sans-Serif" font-size="10.00">Loader.cpp</text>
</a>
</g>
</g>
<!-- Node25&#45;&gt;Node26 -->
<g id="edge36_Node000025_Node000026" class="edge">
<title>Node25&#45;&gt;Node26</title>
<g id="a_edge36_Node000025_Node000026"><a xlink:title=" ">
<path fill="none" stroke="#63b8ff" d="M1129.28,-187.42C1154.28,-177.54 1184.18,-165.73 1207.55,-156.49"/>
<polygon fill="#63b8ff" stroke="#63b8ff" points="1128.33,-184.04 1120.31,-190.97 1130.9,-190.55 1128.33,-184.04"/>
</a>
</g>
</g>
<!-- Node27&#45;&gt;Node6 -->
<g id="edge42_Node000027_Node000006" class="edge">
<title>Node27&#45;&gt;Node6</title>
<g id="a_edge42_Node000027_Node000006"><a xlink:title=" ">
<path fill="none" stroke="#63b8ff" d="M794.37,-254.65C797.12,-242.58 800.47,-227.84 802.6,-218.44"/>
<polygon fill="#63b8ff" stroke="#63b8ff" points="791.04,-253.54 792.23,-264.07 797.86,-255.09 791.04,-253.54"/>
</a>
</g>
</g>
<!-- Node27&#45;&gt;Node16 -->
<g id="edge41_Node000027_Node000016" class="edge">
<title>Node27&#45;&gt;Node16</title>
<g id="a_edge41_Node000027_Node000016"><a xlink:title=" ">
<path fill="none" stroke="#63b8ff" d="M758.44,-260.94C729.9,-248.13 688.53,-229.56 663.77,-218.44"/>
<polygon fill="#63b8ff" stroke="#63b8ff" points="756.75,-264.02 767.31,-264.92 759.62,-257.63 756.75,-264.02"/>
</a>
</g>
</g>
<!-- Node27&#45;&gt;Node25 -->
<g id="edge40_Node000027_Node000025" class="edge">
<title>Node27&#45;&gt;Node25</title>
<g id="a_edge40_Node000027_Node000025"><a xlink:title=" ">
<path fill="none" stroke="#63b8ff" d="M842.26,-263.05C889.73,-252.24 959.92,-236.27 1011.68,-224.49"/>
<polygon fill="#63b8ff" stroke="#63b8ff" points="841.75,-259.58 832.78,-265.21 843.3,-266.4 841.75,-259.58"/>
</a>
</g>
</g>
<!-- Node28&#45;&gt;Node5 -->
<g id="edge56_Node000028_Node000005" class="edge">
<title>Node28&#45;&gt;Node5</title>
<g id="a_edge56_Node000028_Node000005"><a xlink:title=" ">
<path fill="none" stroke="#63b8ff" d="M1239.26,-253.16C1226.8,-244.32 1212.44,-233.88 1199.75,-224 1182.33,-210.44 1181.96,-200.89 1161.75,-192 1047.7,-141.84 1006.6,-176.72 883.75,-156 874.18,-154.39 863.95,-152.41 854.29,-150.43"/>
<polygon fill="#63b8ff" stroke="#63b8ff" points="1236.93,-255.81 1247.12,-258.71 1240.97,-250.09 1236.93,-255.81"/>
</a>
</g>
</g>
<!-- Node28&#45;&gt;Node6 -->
<g id="edge57_Node000028_Node000006" class="edge">
<title>Node28&#45;&gt;Node6</title>
<g id="a_edge57_Node000028_Node000006"><a xlink:title=" ">
<path fill="none" stroke="#63b8ff" d="M1212,-266.22C1197.54,-264.12 1182.09,-261.93 1167.75,-260 1038.6,-242.61 1005.32,-245.31 876.75,-224 867.18,-222.41 856.94,-220.45 847.28,-218.47"/>
<polygon fill="#63b8ff" stroke="#63b8ff" points="1211.45,-269.68 1221.85,-267.66 1212.46,-262.75 1211.45,-269.68"/>
</a>
</g>
</g>
<!-- Node29 -->
<g id="Node000029" class="node">
<title>Node29</title>
<g id="a_Node000029"><a xlink:href="EmscriptenPlatformInfo_8hpp.html" target="_top" xlink:title=" ">
<polygon fill="white" stroke="#666666" points="1491,-224 1350.5,-224 1350.5,-192 1491,-192 1491,-224"/>
<text xml:space="preserve" text-anchor="start" x="1358.5" y="-210.5" font-family="Helvetica,sans-Serif" font-size="10.00">src/Utils/Platform</text>
<text xml:space="preserve" text-anchor="middle" x="1420.75" y="-198.5" font-family="Helvetica,sans-Serif" font-size="10.00">/EmscriptenPlatformInfo.hpp</text>
</a>
</g>
</g>
<!-- Node28&#45;&gt;Node29 -->
<g id="edge44_Node000028_Node000029" class="edge">
<title>Node28&#45;&gt;Node29</title>
<g id="a_edge44_Node000028_Node000029"><a xlink:title=" ">
<path fill="none" stroke="#63b8ff" d="M1316.45,-254.89C1338.65,-245.12 1364.92,-233.56 1385.54,-224.49"/>
<polygon fill="#63b8ff" stroke="#63b8ff" points="1315.05,-251.69 1307.3,-258.92 1317.87,-258.09 1315.05,-251.69"/>
</a>
</g>
</g>
<!-- Node32 -->
<g id="Node000032" class="node">
<title>Node32</title>
<g id="a_Node000032"><a xlink:href="PlatformInfoFactory_8hpp.html" target="_top" xlink:title=" ">
<polygon fill="white" stroke="#666666" points="1332.38,-224 1209.12,-224 1209.12,-192 1332.38,-192 1332.38,-224"/>
<text xml:space="preserve" text-anchor="start" x="1217.12" y="-210.5" font-family="Helvetica,sans-Serif" font-size="10.00">src/Utils/Platform</text>
<text xml:space="preserve" text-anchor="middle" x="1270.75" y="-198.5" font-family="Helvetica,sans-Serif" font-size="10.00">/PlatformInfoFactory.hpp</text>
</a>
</g>
</g>
<!-- Node28&#45;&gt;Node32 -->
<g id="edge47_Node000028_Node000032" class="edge">
<title>Node28&#45;&gt;Node32</title>
<g id="a_edge47_Node000028_Node000032"><a xlink:title=" ">
<path fill="none" stroke="#63b8ff" d="M1270.75,-248.31C1270.75,-240.12 1270.75,-231.38 1270.75,-224.22"/>
<polygon fill="#63b8ff" stroke="#63b8ff" points="1267.25,-248.18 1270.75,-258.18 1274.25,-248.18 1267.25,-248.18"/>
</a>
</g>
</g>
<!-- Node33 -->
<g id="Node000033" class="node">
<title>Node33</title>
<g id="a_Node000033"><a xlink:href="UnixPlatformInfo_8hpp.html" target="_top" xlink:title=" ">
<polygon fill="white" stroke="#666666" points="1620.38,-224 1509.12,-224 1509.12,-192 1620.38,-192 1620.38,-224"/>
<text xml:space="preserve" text-anchor="start" x="1517.12" y="-210.5" font-family="Helvetica,sans-Serif" font-size="10.00">src/Utils/Platform</text>
<text xml:space="preserve" text-anchor="middle" x="1564.75" y="-198.5" font-family="Helvetica,sans-Serif" font-size="10.00">/UnixPlatformInfo.hpp</text>
</a>
</g>
</g>
<!-- Node28&#45;&gt;Node33 -->
<g id="edge50_Node000028_Node000033" class="edge">
<title>Node28&#45;&gt;Node33</title>
<g id="a_edge50_Node000028_Node000033"><a xlink:title=" ">
<path fill="none" stroke="#63b8ff" d="M1329.17,-262.12C1375.46,-251.88 1441.77,-237.15 1499.75,-224 1502.69,-223.33 1505.7,-222.65 1508.74,-221.95"/>
<polygon fill="#63b8ff" stroke="#63b8ff" points="1328.63,-258.65 1319.62,-264.23 1330.14,-265.49 1328.63,-258.65"/>
</a>
</g>
</g>
<!-- Node35 -->
<g id="Node000035" class="node">
<title>Node35</title>
<g id="a_Node000035"><a xlink:href="WindowsPlatformInfo_8hpp.html" target="_top" xlink:title=" ">
<polygon fill="white" stroke="#666666" points="1769.5,-224 1638,-224 1638,-192 1769.5,-192 1769.5,-224"/>
<text xml:space="preserve" text-anchor="start" x="1646" y="-210.5" font-family="Helvetica,sans-Serif" font-size="10.00">src/Utils/Platform</text>
<text xml:space="preserve" text-anchor="middle" x="1703.75" y="-198.5" font-family="Helvetica,sans-Serif" font-size="10.00">/WindowsPlatformInfo.hpp</text>
</a>
</g>
</g>
<!-- Node28&#45;&gt;Node35 -->
<g id="edge53_Node000028_Node000035" class="edge">
<title>Node28&#45;&gt;Node35</title>
<g id="a_edge53_Node000028_Node000035"><a xlink:title=" ">
<path fill="none" stroke="#63b8ff" d="M1329.62,-267.72C1400.87,-258.65 1524.41,-242.14 1629.75,-224 1632.33,-223.56 1634.97,-223.09 1637.62,-222.61"/>
<polygon fill="#63b8ff" stroke="#63b8ff" points="1329.2,-264.24 1319.72,-268.97 1330.08,-271.19 1329.2,-264.24"/>
</a>
</g>
</g>
<!-- Node30 -->
<g id="Node000030" class="node">
<title>Node30</title>
<g id="a_Node000030"><a xlink:href="EmscriptenPlatformInfo_8cpp.html" target="_top" xlink:title=" ">
<polygon fill="white" stroke="#666666" points="1478,-156 1337.5,-156 1337.5,-124 1478,-124 1478,-156"/>
<text xml:space="preserve" text-anchor="start" x="1345.5" y="-142.5" font-family="Helvetica,sans-Serif" font-size="10.00">src/Utils/Platform</text>
<text xml:space="preserve" text-anchor="middle" x="1407.75" y="-130.5" font-family="Helvetica,sans-Serif" font-size="10.00">/EmscriptenPlatformInfo.cpp</text>
</a>
</g>
</g>
<!-- Node29&#45;&gt;Node30 -->
<g id="edge45_Node000029_Node000030" class="edge">
<title>Node29&#45;&gt;Node30</title>
<g id="a_edge45_Node000029_Node000030"><a xlink:title=" ">
<path fill="none" stroke="#63b8ff" d="M1415.55,-180.6C1413.92,-172.32 1412.17,-163.46 1410.75,-156.22"/>
<polygon fill="#63b8ff" stroke="#63b8ff" points="1412.08,-181.07 1417.44,-190.21 1418.94,-179.72 1412.08,-181.07"/>
</a>
</g>
</g>
<!-- Node31 -->
<g id="Node000031" class="node">
<title>Node31</title>
<g id="a_Node000031"><a xlink:href="PlatformInfoFactory_8cpp.html" target="_top" xlink:title=" ">
<polygon fill="white" stroke="#666666" points="1619.38,-156 1496.12,-156 1496.12,-124 1619.38,-124 1619.38,-156"/>
<text xml:space="preserve" text-anchor="start" x="1504.12" y="-142.5" font-family="Helvetica,sans-Serif" font-size="10.00">src/Utils/Platform</text>
<text xml:space="preserve" text-anchor="middle" x="1557.75" y="-130.5" font-family="Helvetica,sans-Serif" font-size="10.00">/PlatformInfoFactory.cpp</text>
</a>
</g>
</g>
<!-- Node29&#45;&gt;Node31 -->
<g id="edge46_Node000029_Node000031" class="edge">
<title>Node29&#45;&gt;Node31</title>
<g id="a_edge46_Node000029_Node000031"><a xlink:title=" ">
<path fill="none" stroke="#63b8ff" d="M1463.08,-186.61C1483.32,-176.86 1507.14,-165.38 1525.83,-156.38"/>
<polygon fill="#63b8ff" stroke="#63b8ff" points="1461.72,-183.38 1454.23,-190.87 1464.76,-189.68 1461.72,-183.38"/>
</a>
</g>
</g>
<!-- Node32&#45;&gt;Node5 -->
<g id="edge49_Node000032_Node000005" class="edge">
<title>Node32&#45;&gt;Node5</title>
<g id="a_edge49_Node000032_Node000005"><a xlink:title=" ">
<path fill="none" stroke="#63b8ff" d="M1197.82,-192.49C1196.79,-192.32 1195.77,-192.16 1194.75,-192 1057.27,-170.51 1021.11,-178.21 883.75,-156 874.04,-154.43 863.66,-152.45 853.89,-150.44"/>
<polygon fill="#63b8ff" stroke="#63b8ff" points="1197.08,-195.91 1207.53,-194.14 1198.26,-189.01 1197.08,-195.91"/>
</a>
</g>
</g>
<!-- Node32&#45;&gt;Node31 -->
<g id="edge48_Node000032_Node000031" class="edge">
<title>Node32&#45;&gt;Node31</title>
<g id="a_edge48_Node000032_Node000031"><a xlink:title=" ">
<path fill="none" stroke="#63b8ff" d="M1343.71,-190.22C1390.76,-179.4 1451.27,-165.49 1495.94,-155.21"/>
<polygon fill="#63b8ff" stroke="#63b8ff" points="1343.11,-186.77 1334.15,-192.42 1344.68,-193.59 1343.11,-186.77"/>
</a>
</g>
</g>
<!-- Node33&#45;&gt;Node31 -->
<g id="edge51_Node000033_Node000031" class="edge">
<title>Node33&#45;&gt;Node31</title>
<g id="a_edge51_Node000033_Node000031"><a xlink:title=" ">
<path fill="none" stroke="#63b8ff" d="M1561.92,-180.31C1561.05,-172.12 1560.12,-163.38 1559.36,-156.22"/>
<polygon fill="#63b8ff" stroke="#63b8ff" points="1558.43,-180.61 1562.97,-190.19 1565.39,-179.87 1558.43,-180.61"/>
</a>
</g>
</g>
<!-- Node34 -->
<g id="Node000034" class="node">
<title>Node34</title>
<g id="a_Node000034"><a xlink:href="UnixPlatformInfo_8cpp.html" target="_top" xlink:title=" ">
<polygon fill="white" stroke="#666666" points="1748.38,-156 1637.12,-156 1637.12,-124 1748.38,-124 1748.38,-156"/>
<text xml:space="preserve" text-anchor="start" x="1645.12" y="-142.5" font-family="Helvetica,sans-Serif" font-size="10.00">src/Utils/Platform</text>
<text xml:space="preserve" text-anchor="middle" x="1692.75" y="-130.5" font-family="Helvetica,sans-Serif" font-size="10.00">/UnixPlatformInfo.cpp</text>
</a>
</g>
</g>
<!-- Node33&#45;&gt;Node34 -->
<g id="edge52_Node000033_Node000034" class="edge">
<title>Node33&#45;&gt;Node34</title>
<g id="a_edge52_Node000033_Node000034"><a xlink:title=" ">
<path fill="none" stroke="#63b8ff" d="M1604.82,-186.34C1623.62,-176.65 1645.63,-165.3 1662.93,-156.38"/>
<polygon fill="#63b8ff" stroke="#63b8ff" points="1603.39,-183.14 1596.11,-190.83 1606.6,-189.36 1603.39,-183.14"/>
</a>
</g>
</g>
<!-- Node35&#45;&gt;Node31 -->
<g id="edge54_Node000035_Node000031" class="edge">
<title>Node35&#45;&gt;Node31</title>
<g id="a_edge54_Node000035_Node000031"><a xlink:title=" ">
<path fill="none" stroke="#63b8ff" d="M1659.27,-186.89C1637.66,-177.12 1612.09,-165.56 1592.02,-156.49"/>
<polygon fill="#63b8ff" stroke="#63b8ff" points="1657.59,-189.97 1668.14,-190.9 1660.47,-183.59 1657.59,-189.97"/>
</a>
</g>
</g>
<!-- Node36 -->
<g id="Node000036" class="node">
<title>Node36</title>
<g id="a_Node000036"><a xlink:href="WindowsPlatformInfo_8cpp.html" target="_top" xlink:title=" ">
<polygon fill="white" stroke="#666666" points="1897.5,-156 1766,-156 1766,-124 1897.5,-124 1897.5,-156"/>
<text xml:space="preserve" text-anchor="start" x="1774" y="-142.5" font-family="Helvetica,sans-Serif" font-size="10.00">src/Utils/Platform</text>
<text xml:space="preserve" text-anchor="middle" x="1831.75" y="-130.5" font-family="Helvetica,sans-Serif" font-size="10.00">/WindowsPlatformInfo.cpp</text>
</a>
</g>
</g>
<!-- Node35&#45;&gt;Node36 -->
<g id="edge55_Node000035_Node000036" class="edge">
<title>Node35&#45;&gt;Node36</title>
<g id="a_edge55_Node000035_Node000036"><a xlink:title=" ">
<path fill="none" stroke="#63b8ff" d="M1743.82,-186.34C1762.62,-176.65 1784.63,-165.3 1801.93,-156.38"/>
<polygon fill="#63b8ff" stroke="#63b8ff" points="1742.39,-183.14 1735.11,-190.83 1745.6,-189.36 1742.39,-183.14"/>
</a>
</g>
</g>
</g>
</svg>
